<?xml version="1.0" encoding="UTF-8" standalone="no"?>
<!--MusicXML 2.0 file created by CapToMusic.py CapXML to MusicXML converter version 1.40-->
<!DOCTYPE score-partwise PUBLIC "-//Recordare//DTD MusicXML 2.0 Partwise//EN" "http://www.musicxml.org/dtds/partwise.dtd">
<score-partwise version="2.0">
	<identification>
		<encoding>
			<encoding-date>2017-04-02</encoding-date>
			<software>CapToMusic.py CapXML to MusicXML converter version 1.40</software>
			<encoding-description>Options: FinaleDolet33=1, ChordCaseMatters=1, ExportToSibelius=0</encoding-description>
		</encoding>
	</identification>
	<defaults>
		<scaling>
			<millimeters>1.8</millimeters>
			<tenths>10.0</tenths>
		</scaling>
		<page-layout>
			<page-height>1650</page-height>
			<page-width>1166</page-width>
			<page-margins type="both">
				<left-margin>111</left-margin>
				<right-margin>111</right-margin>
				<top-margin>111</top-margin>
				<bottom-margin>111</bottom-margin>
			</page-margins>
		</page-layout>
		<system-layout>
			<system-margins>
				<left-margin>0</left-margin>
				<right-margin>0</right-margin>
			</system-margins>
			<system-distance>0</system-distance>
			<top-system-distance>40</top-system-distance>
		</system-layout>
	</defaults>
	<credit>
		<credit-words></credit-words>
	</credit>
	<part-list>
		<part-group type="start" number="1">
			<group-symbol>bracket</group-symbol>
		</part-group>
		<score-part id="P1">
			<part-name></part-name>
			<part-abbreviation></part-abbreviation>
			<score-instrument id="P1-I1">
				<instrument-name>Midi_1</instrument-name>
			</score-instrument>
			<midi-instrument id="P1-I1">
				<midi-channel>1</midi-channel>
				<midi-program>1</midi-program>
			</midi-instrument>
		</score-part>
		<score-part id="P2">
			<part-name></part-name>
			<part-abbreviation></part-abbreviation>
			<score-instrument id="P2-I1">
				<instrument-name>Midi_1</instrument-name>
			</score-instrument>
			<midi-instrument id="P2-I1">
				<midi-channel>2</midi-channel>
				<midi-program>1</midi-program>
			</midi-instrument>
		</score-part>
		<part-group type="stop" number="1"/>
	</part-list>
	<part id="P1">
		<measure number="1">
			<direction>
				<direction-type>
					<other-direction/>
				</direction-type>
				<sound tempo="120"/>
			</direction>
			<print>
				<system-layout>
					<system-margins>
						<left-margin>0</left-margin>
						<right-margin>0</right-margin>
					</system-margins>
					<top-system-distance>180</top-system-distance>
				</system-layout>
				<staff-layout number="1">
					<staff-distance>140</staff-distance>
				</staff-layout>
			</print>
			<attributes>
				<divisions>480</divisions>
				<key>
					<fifths>0</fifths>
					<mode>major</mode>
				</key>
				<time symbol="common">
					<beats>4</beats>
					<beat-type>4</beat-type>
				</time>
				<clef>
					<sign>G</sign>
					<line>2</line>
				</clef>
			</attributes>
			<note>
				<pitch>
					<step>E</step>
					<octave>5</octave>
				</pitch>
				<duration>480</duration>
				<voice>1</voice>
				<type>quarter</type>
				<lyric default-y="-85" number="1">
					<syllabic>single</syllabic>
					<text>Eins</text>
				</lyric>
				<lyric default-y="-110" number="2">
					<syllabic>begin</syllabic>
					<text>Al</text>
				</lyric>
			</note>
			<note>
				<pitch>
					<step>D</step>
					<octave>5</octave>
				</pitch>
				<duration>240</duration>
				<voice>1</voice>
				<type>eighth</type>
				<beam number="1">begin</beam>
				<lyric default-y="-85" number="1">
					<syllabic>end</syllabic>
					<text>ist</text>
				</lyric>
				<lyric default-y="-110" number="2">
					<syllabic>single</syllabic>
					<text>les</text>
				</lyric>
			</note>
			<note>
				<pitch>
					<step>C</step>
					<octave>5</octave>
				</pitch>
				<duration>240</duration>
				<voice>1</voice>
				<type>eighth</type>
				<beam number="1">end</beam>
			</note>
			<note>
				<pitch>
					<step>D</step>
					<octave>5</octave>
				</pitch>
				<duration>480</duration>
				<voice>1</voice>
				<type>quarter</type>
				<lyric default-y="-85" number="1">
					<syllabic>single</syllabic>
					<text>Noth!</text>
				</lyric>
				<lyric default-y="-110" number="2">
					<syllabic>begin</syllabic>
					<text>and</text>
				</lyric>
			</note>
			<note>
				<pitch>
					<step>G</step>
					<octave>4</octave>
				</pitch>
				<duration>480</duration>
				<voice>1</voice>
				<type>quarter</type>
				<lyric default-y="-85" number="1">
					<syllabic>end</syllabic>
					<text>Ach</text>
				</lyric>
				<lyric default-y="-110" number="2">
					<syllabic>single</syllabic>
					<text>re</text>
				</lyric>
			</note>
		</measure>
		<measure number="2">
			<note>
				<pitch>
					<step>C</step>
					<octave>5</octave>
				</pitch>
				<duration>240</duration>
				<voice>1</voice>
				<type>eighth</type>
				<beam number="1">begin</beam>
				<notations>
					<slur number="1" placement="above" type="start"/>
				</notations>
				<lyric default-y="-85" number="1">
					<syllabic>single</syllabic>
					<text>Herr</text>
				</lyric>
				<lyric default-y="-110" number="2">
					<syllabic>single</syllabic>
					<text>wie's</text>
				</lyric>
			</note>
			<note>
				<pitch>
					<step>E</step>
					<octave>5</octave>
				</pitch>
				<duration>240</duration>
				<voice>1</voice>
				<type>eighth</type>
				<beam number="1">end</beam>
				<notations>
					<slur number="1" type="stop"/>
				</notations>
			</note>
			<direction placement="above">
				<direction-type>
					<words relative-x="47" default-y="146" font-family="Times New Roman" font-size="17" font-weight="bold" justify="center">Eins ist Noth! ach Herr, dies Eine.</words>
				</direction-type>
			</direction>
			<note>
				<pitch>
					<step>D</step>
					<octave>5</octave>
				</pitch>
				<duration>240</duration>
				<voice>1</voice>
				<type>eighth</type>
				<beam number="1">begin</beam>
				<notations>
					<slur number="1" placement="above" type="start"/>
				</notations>
				<lyric default-y="-85" number="1">
					<syllabic>single</syllabic>
					<text>dies</text>
				</lyric>
				<lyric default-y="-110" number="2">
					<syllabic>single</syllabic>
					<text>auch</text>
				</lyric>
			</note>
			<note>
				<pitch>
					<step>C</step>
					<octave>5</octave>
				</pitch>
				<duration>240</duration>
				<voice>1</voice>
				<type>eighth</type>
				<beam number="1">end</beam>
				<notations>
					<slur number="1" type="stop"/>
				</notations>
			</note>
			<note>
				<pitch>
					<step>B</step>
					<octave>4</octave>
				</pitch>
				<duration>480</duration>
				<voice>1</voice>
				<type>quarter</type>
				<lyric default-y="-85" number="1">
					<syllabic>begin</syllabic>
					<text>Ei</text>
				</lyric>
				<lyric default-y="-110" number="2">
					<syllabic>middle</syllabic>
					<text>schei</text>
				</lyric>
			</note>
			<note>
				<pitch>
					<step>G</step>
					<octave>4</octave>
				</pitch>
				<duration>480</duration>
				<voice>1</voice>
				<type>quarter</type>
				<notations>
					<fermata type="upright"/>
				</notations>
				<lyric default-y="-85" number="1">
					<syllabic>end</syllabic>
					<text>ne</text>
				</lyric>
				<lyric default-y="-110" number="2">
					<syllabic>single</syllabic>
					<text>ne,</text>
				</lyric>
			</note>
		</measure>
		<measure number="3">
			<note>
				<pitch>
					<step>A</step>
					<octave>4</octave>
				</pitch>
				<duration>480</duration>
				<voice>1</voice>
				<type>quarter</type>
				<lyric default-y="-85" number="1">
					<syllabic>begin</syllabic>
					<text>leh</text>
				</lyric>
				<lyric default-y="-110" number="2">
					<syllabic>end</syllabic>
					<text>ist</text>
				</lyric>
			</note>
			<note>
				<pitch>
					<step>G</step>
					<octave>4</octave>
				</pitch>
				<duration>480</duration>
				<voice>1</voice>
				<type>quarter</type>
				<lyric default-y="-85" number="1">
					<syllabic>single</syllabic>
					<text>re</text>
				</lyric>
				<lyric default-y="-110" number="2">
					<syllabic>single</syllabic>
					<text>ja</text>
				</lyric>
			</note>
			<note>
				<pitch>
					<step>F</step>
					<octave>4</octave>
				</pitch>
				<duration>480</duration>
				<voice>1</voice>
				<type>quarter</type>
				<lyric default-y="-85" number="1">
					<syllabic>single</syllabic>
					<text>mich</text>
				</lyric>
				<lyric default-y="-110" number="2">
					<syllabic>single</syllabic>
					<text>nur</text>
				</lyric>
			</note>
			<note>
				<pitch>
					<step>E</step>
					<octave>4</octave>
				</pitch>
				<duration>480</duration>
				<voice>1</voice>
				<type>quarter</type>
				<lyric default-y="-85" number="1">
					<syllabic>begin</syllabic>
					<text>er</text>
				</lyric>
				<lyric default-y="-110" number="2">
					<syllabic>end</syllabic>
					<text>ein</text>
				</lyric>
			</note>
		</measure>
		<measure number="4">
			<note>
				<pitch>
					<step>D</step>
					<octave>4</octave>
				</pitch>
				<duration>720</duration>
				<voice>1</voice>
				<type>quarter</type>
				<dot/>
				<lyric default-y="-85" number="1">
					<syllabic>begin</syllabic>
					<text>ken</text>
				</lyric>
				<lyric default-y="-110" number="2">
					<syllabic>middle</syllabic>
					<text>schwe</text>
				</lyric>
			</note>
			<note>
				<pitch>
					<step>C</step>
					<octave>4</octave>
				</pitch>
				<duration>240</duration>
				<voice>1</voice>
				<type>eighth</type>
				<lyric default-y="-85" number="1">
					<syllabic>end</syllabic>
					<text>nen</text>
				</lyric>
				<lyric default-y="-110" number="2">
					<syllabic>single</syllabic>
					<text>res</text>
				</lyric>
			</note>
			<direction placement="above">
				<direction-type>
					<words relative-x="75" default-y="62" font-family="Times New Roman" font-size="10" justify="right">Johann Sebastian Bach
BWV 453</words>
				</direction-type>
			</direction>
			<note>
				<pitch>
					<step>C</step>
					<octave>4</octave>
				</pitch>
				<duration>960</duration>
				<voice>1</voice>
				<type>half</type>
				<lyric default-y="-85" number="1">
					<syllabic>single</syllabic>
					<text>doch!</text>
				</lyric>
				<lyric default-y="-110" number="2">
					<syllabic>single</syllabic>
					<text>Joch,</text>
				</lyric>
			</note>
			<barline>
				<bar-style>light-heavy</bar-style>
				<repeat direction="backward"/>
			</barline>
		</measure>
		<measure number="5">
			<attributes>
				<time>
					<beats>3</beats>
					<beat-type>4</beat-type>
				</time>
			</attributes>
		</measure>
		<measure number="6">
			<print new-system="yes">
				<system-layout>
					<system-margins>
						<left-margin>0</left-margin>
						<right-margin>0</right-margin>
					</system-margins>
					<system-distance>110</system-distance>
				</system-layout>
				<staff-layout number="1">
					<staff-distance>50</staff-distance>
				</staff-layout>
			</print>
			<attributes>
				<time>
					<beats>3</beats>
					<beat-type>4</beat-type>
				</time>
			</attributes>
			<note>
				<pitch>
					<step>E</step>
					<octave>4</octave>
				</pitch>
				<duration>240</duration>
				<voice>1</voice>
				<type>eighth</type>
				<beam number="1">begin</beam>
				<lyric default-y="-95" number="1">
					<syllabic>begin</syllabic>
					<text>da</text>
				</lyric>
			</note>
			<note>
				<pitch>
					<step>F</step>
					<octave>4</octave>
				</pitch>
				<duration>240</duration>
				<voice>1</voice>
				<type>eighth</type>
				<beam number="1">end</beam>
			</note>
			<barline>
				<bar-style>regular</bar-style>
			</barline>
		</measure>
		<measure number="7">
			<note>
				<pitch>
					<step>G</step>
					<octave>4</octave>
				</pitch>
				<duration>480</duration>
				<voice>1</voice>
				<type>quarter</type>
				<lyric default-y="-95" number="1">
					<syllabic>middle</syllabic>
					<text>run</text>
				</lyric>
			</note>
			<note>
				<pitch>
					<step>G</step>
					<octave>4</octave>
				</pitch>
				<duration>480</duration>
				<voice>1</voice>
				<type>quarter</type>
				<lyric default-y="-95" number="1">
					<syllabic>end</syllabic>
					<text>ter</text>
				</lyric>
			</note>
			<note>
				<pitch>
					<step>A</step>
					<octave>4</octave>
				</pitch>
				<duration>240</duration>
				<voice>1</voice>
				<type>eighth</type>
				<beam number="1">begin</beam>
				<notations>
					<slur number="1" placement="below" type="start"/>
				</notations>
				<lyric default-y="-95" number="1">
					<syllabic>single</syllabic>
					<text>das</text>
				</lyric>
			</note>
			<note>
				<pitch>
					<step>B</step>
					<octave>4</octave>
				</pitch>
				<duration>240</duration>
				<voice>1</voice>
				<type>eighth</type>
				<beam number="1">end</beam>
				<notations>
					<slur number="1" type="stop"/>
				</notations>
			</note>
		</measure>
		<measure number="8">
			<note>
				<pitch>
					<step>C</step>
					<octave>5</octave>
				</pitch>
				<duration>480</duration>
				<voice>1</voice>
				<type>quarter</type>
				<lyric default-y="-95" number="1">
					<syllabic>begin</syllabic>
					<text>Her</text>
				</lyric>
			</note>
			<note>
				<pitch>
					<step>C</step>
					<octave>5</octave>
				</pitch>
				<duration>480</duration>
				<voice>1</voice>
				<type>quarter</type>
				<lyric default-y="-95" number="1">
					<syllabic>end</syllabic>
					<text>ze</text>
				</lyric>
			</note>
			<note>
				<pitch>
					<step>G</step>
					<octave>4</octave>
				</pitch>
				<duration>480</duration>
				<voice>1</voice>
				<type>quarter</type>
				<lyric default-y="-95" number="1">
					<syllabic>single</syllabic>
					<text>sich</text>
				</lyric>
			</note>
		</measure>
		<measure number="9">
			<note>
				<pitch>
					<step>A</step>
					<octave>4</octave>
				</pitch>
				<duration>480</duration>
				<voice>1</voice>
				<type>quarter</type>
				<lyric default-y="-95" number="1">
					<syllabic>begin</syllabic>
					<text>na</text>
				</lyric>
			</note>
			<note>
				<pitch>
					<step>G</step>
					<octave>4</octave>
				</pitch>
				<duration>480</duration>
				<voice>1</voice>
				<type>quarter</type>
				<lyric default-y="-95" number="1">
					<syllabic>end</syllabic>
					<text>get</text>
				</lyric>
			</note>
			<note>
				<pitch>
					<step>F</step>
					<octave>4</octave>
				</pitch>
				<duration>480</duration>
				<voice>1</voice>
				<type>quarter</type>
				<lyric default-y="-95" number="1">
					<syllabic>single</syllabic>
					<text>und</text>
				</lyric>
			</note>
		</measure>
		<measure number="10">
			<note>
				<pitch>
					<step>E</step>
					<octave>4</octave>
				</pitch>
				<duration>480</duration>
				<voice>1</voice>
				<type>quarter</type>
				<lyric default-y="-95" number="1">
					<syllabic>begin</syllabic>
					<text>pla</text>
				</lyric>
			</note>
			<note>
				<pitch>
					<step>E</step>
					<octave>4</octave>
				</pitch>
				<duration>480</duration>
				<voice>1</voice>
				<type>quarter</type>
				<notations>
					<fermata type="upright"/>
				</notations>
				<lyric default-y="-95" number="1">
					<syllabic>end</syllabic>
					<text>get</text>
				</lyric>
			</note>
			<note>
				<pitch>
					<step>G</step>
					<octave>4</octave>
				</pitch>
				<duration>480</duration>
				<voice>1</voice>
				<type>quarter</type>
				<lyric default-y="-95" number="1">
					<syllabic>single</syllabic>
					<text>und</text>
				</lyric>
			</note>
		</measure>
		<measure number="11">
			<note>
				<pitch>
					<step>A</step>
					<octave>4</octave>
				</pitch>
				<duration>480</duration>
				<voice>1</voice>
				<type>quarter</type>
				<lyric default-y="-95" number="1">
					<syllabic>begin</syllabic>
					<text>den</text>
				</lyric>
			</note>
			<note>
				<pitch>
					<step>B</step>
					<octave>4</octave>
				</pitch>
				<duration>480</duration>
				<voice>1</voice>
				<type>quarter</type>
				<lyric default-y="-95" number="1">
					<syllabic>end</syllabic>
					<text>noch</text>
				</lyric>
			</note>
			<note>
				<pitch>
					<step>C</step>
					<octave>5</octave>
				</pitch>
				<duration>480</duration>
				<voice>1</voice>
				<type>quarter</type>
				<lyric default-y="-95" number="1">
					<syllabic>single</syllabic>
					<text>kein</text>
				</lyric>
			</note>
		</measure>
		<measure number="12">
			<print new-system="yes">
				<system-layout>
					<system-margins>
						<left-margin>0</left-margin>
						<right-margin>0</right-margin>
					</system-margins>
					<system-distance>110</system-distance>
				</system-layout>
				<staff-layout number="1">
					<staff-distance>50</staff-distance>
				</staff-layout>
			</print>
			<note>
				<pitch>
					<step>B</step>
					<octave>4</octave>
				</pitch>
				<duration>480</duration>
				<voice>1</voice>
				<type>quarter</type>
				<lyric default-y="-95" number="1">
					<syllabic>begin</syllabic>
					<text>wah</text>
				</lyric>
			</note>
			<note>
				<pitch>
					<step>C</step>
					<octave>5</octave>
				</pitch>
				<duration>480</duration>
				<voice>1</voice>
				<type>quarter</type>
				<lyric default-y="-95" number="1">
					<syllabic>end</syllabic>
					<text>res</text>
				</lyric>
			</note>
			<note>
				<pitch>
					<step>D</step>
					<octave>5</octave>
				</pitch>
				<duration>480</duration>
				<voice>1</voice>
				<type>quarter</type>
				<lyric default-y="-95" number="1">
					<syllabic>begin</syllabic>
					<text>Ver</text>
				</lyric>
			</note>
		</measure>
		<measure number="13">
			<note>
				<pitch>
					<step>G</step>
					<octave>4</octave>
				</pitch>
				<duration>480</duration>
				<voice>1</voice>
				<type>quarter</type>
				<lyric default-y="-95" number="1">
					<syllabic>middle</syllabic>
					<text>gnü</text>
				</lyric>
			</note>
			<note>
				<pitch>
					<step>A</step>
					<octave>4</octave>
				</pitch>
				<duration>480</duration>
				<voice>1</voice>
				<type>quarter</type>
				<lyric default-y="-95" number="1">
					<syllabic>end</syllabic>
					<text>gen</text>
				</lyric>
			</note>
			<note>
				<pitch>
					<step>F</step>
					<alter>1</alter>
					<octave>4</octave>
				</pitch>
				<duration>480</duration>
				<voice>1</voice>
				<type>quarter</type>
				<accidental>sharp</accidental>
				<lyric default-y="-95" number="1">
					<syllabic>begin</syllabic>
					<text>er</text>
				</lyric>
			</note>
		</measure>
		<measure number="14">
			<note>
				<pitch>
					<step>G</step>
					<octave>4</octave>
				</pitch>
				<duration>480</duration>
				<voice>1</voice>
				<type>quarter</type>
				<lyric default-y="-95" number="1">
					<syllabic>middle</syllabic>
					<text>ja</text>
				</lyric>
			</note>
			<note>
				<pitch>
					<step>G</step>
					<octave>4</octave>
				</pitch>
				<duration>480</duration>
				<voice>1</voice>
				<type>quarter</type>
				<notations>
					<fermata type="upright"/>
				</notations>
				<lyric default-y="-95" number="1">
					<syllabic>end</syllabic>
					<text>get.</text>
				</lyric>
			</note>
			<note>
				<pitch>
					<step>G</step>
					<octave>4</octave>
				</pitch>
				<duration>480</duration>
				<voice>1</voice>
				<type>quarter</type>
				<lyric default-y="-95" number="1">
					<syllabic>begin</syllabic>
					<text>Er</text>
				</lyric>
			</note>
		</measure>
		<measure number="15">
			<note>
				<pitch>
					<step>C</step>
					<octave>5</octave>
				</pitch>
				<duration>480</duration>
				<voice>1</voice>
				<type>quarter</type>
				<lyric default-y="-95" number="1">
					<syllabic>end</syllabic>
					<text>lang'</text>
				</lyric>
			</note>
			<note>
				<pitch>
					<step>C</step>
					<octave>5</octave>
				</pitch>
				<duration>480</duration>
				<voice>1</voice>
				<type>quarter</type>
				<lyric default-y="-95" number="1">
					<syllabic>single</syllabic>
					<text>ich</text>
				</lyric>
			</note>
			<note>
				<pitch>
					<step>B</step>
					<alter>-1</alter>
					<octave>4</octave>
				</pitch>
				<duration>480</duration>
				<voice>1</voice>
				<type>quarter</type>
				<accidental>flat</accidental>
				<lyric default-y="-95" number="1">
					<syllabic>single</syllabic>
					<text>dies</text>
				</lyric>
			</note>
		</measure>
		<measure number="16">
			<note>
				<pitch>
					<step>A</step>
					<octave>4</octave>
				</pitch>
				<duration>480</duration>
				<voice>1</voice>
				<type>quarter</type>
				<lyric default-y="-95" number="1">
					<syllabic>begin</syllabic>
					<text>Ei</text>
				</lyric>
			</note>
			<note>
				<pitch>
					<step>A</step>
					<octave>4</octave>
				</pitch>
				<duration>480</duration>
				<voice>1</voice>
				<type>quarter</type>
				<lyric default-y="-95" number="1">
					<syllabic>end</syllabic>
					<text>ne,</text>
				</lyric>
			</note>
			<note>
				<pitch>
					<step>G</step>
					<octave>4</octave>
				</pitch>
				<duration>480</duration>
				<voice>1</voice>
				<type>quarter</type>
				<lyric default-y="-95" number="1">
					<syllabic>single</syllabic>
					<text>das</text>
				</lyric>
			</note>
		</measure>
		<measure number="17">
			<print new-system="yes">
				<system-layout>
					<system-margins>
						<left-margin>0</left-margin>
						<right-margin>0</right-margin>
					</system-margins>
					<system-distance>110</system-distance>
				</system-layout>
				<staff-layout number="1">
					<staff-distance>50</staff-distance>
				</staff-layout>
			</print>
			<note>
				<pitch>
					<step>F</step>
					<octave>4</octave>
				</pitch>
				<duration>480</duration>
				<voice>1</voice>
				<type>quarter</type>
				<lyric default-y="-95" number="1">
					<syllabic>begin</syllabic>
					<text>Al</text>
				</lyric>
			</note>
			<note>
				<pitch>
					<step>F</step>
					<octave>4</octave>
				</pitch>
				<duration>480</duration>
				<voice>1</voice>
				<type>quarter</type>
				<lyric default-y="-95" number="1">
					<syllabic>end</syllabic>
					<text>les</text>
				</lyric>
			</note>
			<note>
				<pitch>
					<step>E</step>
					<octave>4</octave>
				</pitch>
				<duration>480</duration>
				<voice>1</voice>
				<type>quarter</type>
				<lyric default-y="-95" number="1">
					<syllabic>begin</syllabic>
					<text>er</text>
				</lyric>
			</note>
		</measure>
		<measure number="18">
			<note>
				<pitch>
					<step>D</step>
					<octave>4</octave>
				</pitch>
				<duration>960</duration>
				<voice>1</voice>
				<type>half</type>
				<notations>
					<fermata type="upright"/>
				</notations>
				<lyric default-y="-95" number="1">
					<syllabic>end</syllabic>
					<text>setzt,</text>
				</lyric>
			</note>
			<note>
				<pitch>
					<step>G</step>
					<octave>4</octave>
				</pitch>
				<duration>480</duration>
				<voice>1</voice>
				<type>quarter</type>
				<lyric default-y="-95" number="1">
					<syllabic>single</syllabic>
					<text>so</text>
				</lyric>
			</note>
		</measure>
		<measure number="19">
			<note>
				<pitch>
					<step>A</step>
					<octave>4</octave>
				</pitch>
				<duration>480</duration>
				<voice>1</voice>
				<type>quarter</type>
				<lyric default-y="-95" number="1">
					<syllabic>single</syllabic>
					<text>werd'</text>
				</lyric>
			</note>
			<note>
				<pitch>
					<step>A</step>
					<octave>4</octave>
				</pitch>
				<duration>480</duration>
				<voice>1</voice>
				<type>quarter</type>
				<lyric default-y="-95" number="1">
					<syllabic>single</syllabic>
					<text>ich</text>
				</lyric>
			</note>
			<note>
				<pitch>
					<step>B</step>
					<octave>4</octave>
				</pitch>
				<duration>480</duration>
				<voice>1</voice>
				<type>quarter</type>
				<lyric default-y="-95" number="1">
					<syllabic>single</syllabic>
					<text>mit</text>
				</lyric>
			</note>
		</measure>
		<measure number="20">
			<note>
				<pitch>
					<step>C</step>
					<octave>5</octave>
				</pitch>
				<duration>480</duration>
				<voice>1</voice>
				<type>quarter</type>
				<lyric default-y="-95" number="1">
					<syllabic>begin</syllabic>
					<text>Ei</text>
				</lyric>
			</note>
			<note>
				<pitch>
					<step>C</step>
					<octave>5</octave>
				</pitch>
				<duration>480</duration>
				<voice>1</voice>
				<type>quarter</type>
				<lyric default-y="-95" number="1">
					<syllabic>end</syllabic>
					<text>nem</text>
				</lyric>
			</note>
			<note>
				<pitch>
					<step>D</step>
					<octave>4</octave>
				</pitch>
				<duration>480</duration>
				<voice>1</voice>
				<type>quarter</type>
				<lyric default-y="-95" number="1">
					<syllabic>single</syllabic>
					<text>in</text>
				</lyric>
			</note>
		</measure>
		<measure number="21">
			<note>
				<pitch>
					<step>E</step>
					<octave>4</octave>
				</pitch>
				<duration>480</duration>
				<voice>1</voice>
				<type>quarter</type>
				<lyric default-y="-95" number="1">
					<syllabic>begin</syllabic>
					<text>Al</text>
				</lyric>
			</note>
			<note>
				<pitch>
					<step>F</step>
					<octave>4</octave>
				</pitch>
				<duration>480</duration>
				<voice>1</voice>
				<type>quarter</type>
				<lyric default-y="-95" number="1">
					<syllabic>end</syllabic>
					<text>lem</text>
				</lyric>
			</note>
			<note>
				<pitch>
					<step>D</step>
					<octave>4</octave>
				</pitch>
				<duration>480</duration>
				<voice>1</voice>
				<type>quarter</type>
				<lyric default-y="-95" number="1">
					<syllabic>begin</syllabic>
					<text>er</text>
				</lyric>
			</note>
		</measure>
		<measure number="22">
			<note>
				<pitch>
					<step>C</step>
					<octave>4</octave>
				</pitch>
				<duration>1440</duration>
				<voice>1</voice>
				<type>half</type>
				<dot/>
				<lyric default-y="-95" number="1">
					<syllabic>end</syllabic>
					<text>götzt.</text>
				</lyric>
			</note>
			<barline>
				<bar-style>light-heavy</bar-style>
			</barline>
		</measure>
	</part>
	<part id="P2">
		<measure number="1">
			<direction>
				<direction-type>
					<other-direction/>
				</direction-type>
				<sound tempo="120"/>
			</direction>
			<print>
				<system-layout>
					<system-margins>
						<left-margin>0</left-margin>
						<right-margin>0</right-margin>
					</system-margins>
					<top-system-distance>180</top-system-distance>
				</system-layout>
				<staff-layout number="1">
					<staff-distance>100</staff-distance>
				</staff-layout>
			</print>
			<attributes>
				<divisions>480</divisions>
				<key>
					<fifths>0</fifths>
					<mode>major</mode>
				</key>
				<time symbol="common">
					<beats>4</beats>
					<beat-type>4</beat-type>
				</time>
				<clef>
					<sign>F</sign>
					<line>4</line>
				</clef>
			</attributes>
			<note>
				<pitch>
					<step>C</step>
					<octave>3</octave>
				</pitch>
				<duration>480</duration>
				<voice>1</voice>
				<type>quarter</type>
			</note>
			<note>
				<pitch>
					<step>A</step>
					<octave>2</octave>
				</pitch>
				<duration>480</duration>
				<voice>1</voice>
				<type>quarter</type>
			</note>
			<note>
				<pitch>
					<step>B</step>
					<octave>2</octave>
				</pitch>
				<duration>480</duration>
				<voice>1</voice>
				<type>quarter</type>
				<lyric default-y="-75" number="1">
					<syllabic>single</syllabic>
					<text>7</text>
				</lyric>
			</note>
			<note>
				<pitch>
					<step>E</step>
					<octave>3</octave>
				</pitch>
				<duration>480</duration>
				<voice>1</voice>
				<type>quarter</type>
				<lyric default-y="-75" number="1">
					<syllabic>single</syllabic>
					<text>7</text>
				</lyric>
			</note>
		</measure>
		<measure number="2">
			<note>
				<pitch>
					<step>A</step>
					<octave>2</octave>
				</pitch>
				<duration>480</duration>
				<voice>1</voice>
				<type>quarter</type>
				<lyric default-y="-75" number="1">
					<syllabic>single</syllabic>
					<text>7</text>
				</lyric>
			</note>
			<direction placement="below">
				<direction-type>
					<words relative-x="31" default-y="-75" font-family="Times New Roman" font-size="7">7</words>
				</direction-type>
			</direction>
			<note>
				<pitch>
					<step>D</step>
					<octave>3</octave>
				</pitch>
				<duration>480</duration>
				<voice>1</voice>
				<type>quarter</type>
				<lyric default-y="-75" number="1">
					<syllabic>single</syllabic>
					<text>8</text>
				</lyric>
			</note>
			<note>
				<pitch>
					<step>G</step>
					<octave>2</octave>
				</pitch>
				<duration>960</duration>
				<voice>1</voice>
				<type>half</type>
				<notations>
					<fermata type="upright"/>
				</notations>
			</note>
		</measure>
		<measure number="3">
			<note>
				<pitch>
					<step>C</step>
					<octave>3</octave>
				</pitch>
				<duration>240</duration>
				<voice>1</voice>
				<type>eighth</type>
				<beam number="1">begin</beam>
				<lyric default-y="-75" number="1">
					<syllabic>single</syllabic>
					<text>6</text>
				</lyric>
			</note>
			<note>
				<pitch>
					<step>D</step>
					<octave>3</octave>
				</pitch>
				<duration>240</duration>
				<voice>1</voice>
				<type>eighth</type>
				<beam number="1">end</beam>
			</note>
			<direction placement="below">
				<direction-type>
					<words relative-x="18" default-y="-75" font-family="Times New Roman" font-size="7">7</words>
				</direction-type>
			</direction>
			<note>
				<pitch>
					<step>E</step>
					<octave>3</octave>
				</pitch>
				<duration>480</duration>
				<voice>1</voice>
				<type>quarter</type>
				<lyric default-y="-75" number="1">
					<syllabic>single</syllabic>
					<text>8</text>
				</lyric>
			</note>
			<note>
				<pitch>
					<step>A</step>
					<octave>2</octave>
				</pitch>
				<duration>240</duration>
				<voice>1</voice>
				<type>eighth</type>
				<beam number="1">begin</beam>
				<lyric default-y="-75" number="1">
					<syllabic>single</syllabic>
					<text>6</text>
				</lyric>
			</note>
			<note>
				<pitch>
					<step>B</step>
					<octave>2</octave>
				</pitch>
				<duration>240</duration>
				<voice>1</voice>
				<type>eighth</type>
				<beam number="1">end</beam>
			</note>
			<note>
				<pitch>
					<step>C</step>
					<octave>3</octave>
				</pitch>
				<duration>480</duration>
				<voice>1</voice>
				<type>quarter</type>
			</note>
		</measure>
		<measure number="4">
			<note>
				<pitch>
					<step>F</step>
					<octave>2</octave>
				</pitch>
				<duration>480</duration>
				<voice>1</voice>
				<type>quarter</type>
				<lyric default-y="-75" number="1">
					<syllabic>single</syllabic>
					<text>6</text>
				</lyric>
				<lyric default-y="-90" number="2">
					<syllabic>single</syllabic>
					<text>5</text>
				</lyric>
			</note>
			<note>
				<pitch>
					<step>G</step>
					<octave>2</octave>
				</pitch>
				<duration>480</duration>
				<voice>1</voice>
				<type>quarter</type>
			</note>
			<note>
				<pitch>
					<step>C</step>
					<octave>3</octave>
				</pitch>
				<duration>960</duration>
				<voice>1</voice>
				<type>half</type>
			</note>
			<barline>
				<bar-style>light-heavy</bar-style>
				<repeat direction="backward"/>
			</barline>
		</measure>
		<measure number="5">
			<attributes>
				<time>
					<beats>3</beats>
					<beat-type>4</beat-type>
				</time>
			</attributes>
		</measure>
		<measure number="6">
			<print new-system="yes">
				<system-layout>
					<system-margins>
						<left-margin>0</left-margin>
						<right-margin>0</right-margin>
					</system-margins>
					<system-distance>110</system-distance>
				</system-layout>
				<staff-layout number="1">
					<staff-distance>100</staff-distance>
				</staff-layout>
			</print>
			<attributes>
				<time>
					<beats>3</beats>
					<beat-type>4</beat-type>
				</time>
			</attributes>
			<note>
				<pitch>
					<step>C</step>
					<octave>3</octave>
				</pitch>
				<duration>240</duration>
				<voice>1</voice>
				<type>eighth</type>
				<beam number="1">begin</beam>
			</note>
			<note>
				<pitch>
					<step>D</step>
					<octave>3</octave>
				</pitch>
				<duration>240</duration>
				<voice>1</voice>
				<type>eighth</type>
				<beam number="1">end</beam>
			</note>
			<barline>
				<bar-style>regular</bar-style>
			</barline>
		</measure>
		<measure number="7">
			<note>
				<pitch>
					<step>E</step>
					<octave>3</octave>
				</pitch>
				<duration>480</duration>
				<voice>1</voice>
				<type>quarter</type>
				<lyric default-y="-75" number="1">
					<syllabic>single</syllabic>
					<text>6</text>
				</lyric>
			</note>
			<note>
				<pitch>
					<step>C</step>
					<octave>3</octave>
				</pitch>
				<duration>480</duration>
				<voice>1</voice>
				<type>quarter</type>
			</note>
			<note>
				<pitch>
					<step>F</step>
					<octave>3</octave>
				</pitch>
				<duration>480</duration>
				<voice>1</voice>
				<type>quarter</type>
			</note>
		</measure>
		<measure number="8">
			<note>
				<pitch>
					<step>E</step>
					<octave>3</octave>
				</pitch>
				<duration>480</duration>
				<voice>1</voice>
				<type>quarter</type>
				<lyric default-y="-75" number="1">
					<syllabic>single</syllabic>
					<text>6</text>
				</lyric>
			</note>
			<note>
				<pitch>
					<step>F</step>
					<octave>3</octave>
				</pitch>
				<duration>240</duration>
				<voice>1</voice>
				<type>eighth</type>
				<beam number="1">begin</beam>
				<lyric default-y="-75" number="1">
					<syllabic>single</syllabic>
					<text>5</text>
				</lyric>
				<lyric default-y="-90" number="2">
					<syllabic>single</syllabic>
					<text>2</text>
				</lyric>
			</note>
			<note>
				<pitch>
					<step>E</step>
					<octave>3</octave>
				</pitch>
				<duration>240</duration>
				<voice>1</voice>
				<type>eighth</type>
				<beam number="1">continue</beam>
				<beam number="2">end</beam>
			</note>
			<note>
				<pitch>
					<step>D</step>
					<octave>3</octave>
				</pitch>
				<duration>240</duration>
				<voice>1</voice>
				<type>eighth</type>
				<beam number="1">continue</beam>
				<lyric default-y="-75" number="1">
					<syllabic>single</syllabic>
					<text>7</text>
				</lyric>
				<lyric default-y="-90" number="2">
					<syllabic>single</syllabic>
					<text>4</text>
				</lyric>
				<lyric default-y="-105" number="3">
					<syllabic>single</syllabic>
					<text>2</text>
				</lyric>
			</note>
			<note>
				<pitch>
					<step>C</step>
					<octave>3</octave>
				</pitch>
				<duration>240</duration>
				<voice>1</voice>
				<type>eighth</type>
				<beam number="1">continue</beam>
				<beam number="2">end</beam>
			</note>
		</measure>
		<measure number="9">
			<note>
				<pitch>
					<step>F</step>
					<octave>3</octave>
				</pitch>
				<duration>480</duration>
				<voice>1</voice>
				<type>quarter</type>
			</note>
			<note>
				<pitch>
					<step>G</step>
					<octave>3</octave>
				</pitch>
				<duration>480</duration>
				<voice>1</voice>
				<type>quarter</type>
				<lyric default-y="-75" number="1">
					<syllabic>single</syllabic>
					<text>6</text>
				</lyric>
				<lyric default-y="-90" number="2">
					<syllabic>single</syllabic>
					<text>4</text>
				</lyric>
			</note>
			<note>
				<pitch>
					<step>G</step>
					<octave>2</octave>
				</pitch>
				<duration>480</duration>
				<voice>1</voice>
				<type>quarter</type>
				<lyric default-y="-75" number="1">
					<syllabic>single</syllabic>
					<text>5</text>
				</lyric>
				<lyric default-y="-90" number="2">
					<syllabic>single</syllabic>
					<text>3</text>
				</lyric>
			</note>
		</measure>
		<measure number="10">
			<note>
				<pitch>
					<step>C</step>
					<octave>3</octave>
				</pitch>
				<duration>960</duration>
				<voice>1</voice>
				<type>half</type>
				<notations>
					<fermata type="upright"/>
				</notations>
			</note>
			<note>
				<pitch>
					<step>C</step>
					<octave>3</octave>
				</pitch>
				<duration>480</duration>
				<voice>1</voice>
				<type>quarter</type>
			</note>
		</measure>
		<measure number="11">
			<note>
				<pitch>
					<step>F</step>
					<octave>3</octave>
				</pitch>
				<duration>480</duration>
				<voice>1</voice>
				<type>quarter</type>
			</note>
			<note>
				<pitch>
					<step>E</step>
					<octave>3</octave>
				</pitch>
				<duration>240</duration>
				<voice>1</voice>
				<type>eighth</type>
				<beam number="1">continue</beam>
				<lyric default-y="-75" number="1">
					<syllabic>single</syllabic>
					<text>7</text>
				</lyric>
				<lyric default-y="-90" number="2">
					<syllabic>single</syllabic>
					<text>5</text>
				</lyric>
				<lyric default-y="-105" number="3">
					<syllabic>single</syllabic>
					<text>2</text>
				</lyric>
			</note>
			<note>
				<pitch>
					<step>D</step>
					<octave>3</octave>
				</pitch>
				<duration>240</duration>
				<voice>1</voice>
				<type>eighth</type>
				<beam number="1">continue</beam>
				<beam number="2">end</beam>
			</note>
			<note>
				<pitch>
					<step>E</step>
					<octave>3</octave>
				</pitch>
				<duration>240</duration>
				<voice>1</voice>
				<type>eighth</type>
				<beam number="1">continue</beam>
				<lyric default-y="-75" number="1">
					<syllabic>single</syllabic>
					<text>6</text>
				</lyric>
			</note>
			<note>
				<pitch>
					<step>F</step>
					<alter>1</alter>
					<octave>3</octave>
				</pitch>
				<duration>240</duration>
				<voice>1</voice>
				<type>eighth</type>
				<accidental>sharp</accidental>
				<beam number="1">continue</beam>
				<beam number="2">end</beam>
			</note>
		</measure>
		<measure number="12">
			<print new-system="yes">
				<system-layout>
					<system-margins>
						<left-margin>0</left-margin>
						<right-margin>0</right-margin>
					</system-margins>
					<system-distance>110</system-distance>
				</system-layout>
				<staff-layout number="1">
					<staff-distance>100</staff-distance>
				</staff-layout>
			</print>
			<note>
				<pitch>
					<step>G</step>
					<octave>3</octave>
				</pitch>
				<duration>480</duration>
				<voice>1</voice>
				<type>quarter</type>
			</note>
			<note>
				<pitch>
					<step>E</step>
					<octave>3</octave>
				</pitch>
				<duration>480</duration>
				<voice>1</voice>
				<type>quarter</type>
				<lyric default-y="-75" number="1">
					<syllabic>single</syllabic>
					<text>6</text>
				</lyric>
			</note>
			<note>
				<pitch>
					<step>B</step>
					<octave>2</octave>
				</pitch>
				<duration>480</duration>
				<voice>1</voice>
				<type>quarter</type>
				<lyric default-y="-75" number="1">
					<syllabic>single</syllabic>
					<text>6</text>
				</lyric>
			</note>
		</measure>
		<measure number="13">
			<note>
				<pitch>
					<step>C</step>
					<octave>3</octave>
				</pitch>
				<duration>480</duration>
				<voice>1</voice>
				<type>quarter</type>
			</note>
			<note>
				<pitch>
					<step>A</step>
					<octave>2</octave>
				</pitch>
				<duration>480</duration>
				<voice>1</voice>
				<type>quarter</type>
			</note>
			<note>
				<pitch>
					<step>D</step>
					<octave>3</octave>
				</pitch>
				<duration>480</duration>
				<voice>1</voice>
				<type>quarter</type>
				<lyric default-y="-75" number="1">
					<syllabic>single</syllabic>
					<text>7</text>
				</lyric>
			</note>
		</measure>
		<measure number="14">
			<note>
				<pitch>
					<step>G</step>
					<octave>2</octave>
				</pitch>
				<duration>960</duration>
				<voice>1</voice>
				<type>half</type>
				<notations>
					<fermata type="upright"/>
				</notations>
			</note>
			<note>
				<pitch>
					<step>G</step>
					<octave>3</octave>
				</pitch>
				<duration>240</duration>
				<voice>1</voice>
				<type>eighth</type>
				<beam number="1">begin</beam>
			</note>
			<note>
				<pitch>
					<step>F</step>
					<octave>3</octave>
				</pitch>
				<duration>240</duration>
				<voice>1</voice>
				<type>eighth</type>
				<beam number="1">end</beam>
			</note>
		</measure>
		<measure number="15">
			<note>
				<pitch>
					<step>E</step>
					<octave>3</octave>
				</pitch>
				<duration>480</duration>
				<voice>1</voice>
				<type>quarter</type>
				<lyric default-y="-75" number="1">
					<syllabic>single</syllabic>
					<text>6</text>
				</lyric>
			</note>
			<note>
				<pitch>
					<step>C</step>
					<octave>3</octave>
				</pitch>
				<duration>240</duration>
				<voice>1</voice>
				<type>eighth</type>
				<beam number="1">begin</beam>
			</note>
			<note>
				<pitch>
					<step>D</step>
					<octave>3</octave>
				</pitch>
				<duration>240</duration>
				<voice>1</voice>
				<type>eighth</type>
				<beam number="1">continue</beam>
				<beam number="2">end</beam>
			</note>
			<note>
				<pitch>
					<step>E</step>
					<octave>3</octave>
				</pitch>
				<duration>240</duration>
				<voice>1</voice>
				<type>eighth</type>
				<beam number="1">continue</beam>
				<lyric default-y="-75" number="1">
					<syllabic>single</syllabic>
					<text>6</text>
				</lyric>
				<lyric default-y="-90" number="2">
					<syllabic>single</syllabic>
					<text>5</text>
				</lyric>
			</note>
			<note>
				<pitch>
					<step>C</step>
					<octave>3</octave>
				</pitch>
				<duration>240</duration>
				<voice>1</voice>
				<type>eighth</type>
				<beam number="1">continue</beam>
				<beam number="2">end</beam>
			</note>
		</measure>
		<measure number="16">
			<note>
				<pitch>
					<step>F</step>
					<octave>3</octave>
				</pitch>
				<duration>480</duration>
				<voice>1</voice>
				<type>quarter</type>
				<lyric default-y="-75" number="1">
					<syllabic>single</syllabic>
					<text>9</text>
				</lyric>
			</note>
			<note>
				<pitch>
					<step>A</step>
					<octave>2</octave>
				</pitch>
				<duration>240</duration>
				<voice>1</voice>
				<type>eighth</type>
				<beam number="1">continue</beam>
				<lyric default-y="-75" number="1">
					<syllabic>single</syllabic>
					<text>6</text>
				</lyric>
			</note>
			<note>
				<pitch>
					<step>B</step>
					<octave>2</octave>
				</pitch>
				<duration>240</duration>
				<voice>1</voice>
				<type>eighth</type>
				<beam number="1">continue</beam>
				<beam number="2">end</beam>
			</note>
			<note>
				<pitch>
					<step>C</step>
					<octave>3</octave>
				</pitch>
				<duration>240</duration>
				<voice>1</voice>
				<type>eighth</type>
				<beam number="1">continue</beam>
			</note>
			<note>
				<pitch>
					<step>A</step>
					<octave>2</octave>
				</pitch>
				<duration>240</duration>
				<voice>1</voice>
				<type>eighth</type>
				<beam number="1">continue</beam>
				<beam number="2">end</beam>
			</note>
		</measure>
		<measure number="17">
			<print new-system="yes">
				<system-layout>
					<system-margins>
						<left-margin>0</left-margin>
						<right-margin>0</right-margin>
					</system-margins>
					<system-distance>110</system-distance>
				</system-layout>
				<staff-layout number="1">
					<staff-distance>100</staff-distance>
				</staff-layout>
			</print>
			<note>
				<pitch>
					<step>D</step>
					<octave>3</octave>
				</pitch>
				<duration>480</duration>
				<voice>1</voice>
				<type>quarter</type>
			</note>
			<note>
				<pitch>
					<step>B</step>
					<octave>2</octave>
				</pitch>
				<duration>480</duration>
				<voice>1</voice>
				<type>quarter</type>
				<lyric default-y="-75" number="1">
					<syllabic>single</syllabic>
					<text>6</text>
				</lyric>
				<lyric default-y="-90" number="2">
					<syllabic>single</syllabic>
					<text>5</text>
				</lyric>
			</note>
			<note>
				<pitch>
					<step>C</step>
					<octave>3</octave>
				</pitch>
				<duration>480</duration>
				<voice>1</voice>
				<type>quarter</type>
			</note>
		</measure>
		<measure number="18">
			<note>
				<pitch>
					<step>G</step>
					<octave>2</octave>
				</pitch>
				<duration>960</duration>
				<voice>1</voice>
				<type>half</type>
				<notations>
					<fermata type="upright"/>
				</notations>
			</note>
			<note>
				<pitch>
					<step>E</step>
					<octave>3</octave>
				</pitch>
				<duration>480</duration>
				<voice>1</voice>
				<type>quarter</type>
				<lyric default-y="-75" number="1">
					<syllabic>single</syllabic>
					<text>6</text>
				</lyric>
			</note>
		</measure>
		<measure number="19">
			<note>
				<pitch>
					<step>F</step>
					<octave>3</octave>
				</pitch>
				<duration>480</duration>
				<voice>1</voice>
				<type>quarter</type>
			</note>
			<note>
				<pitch>
					<step>G</step>
					<octave>3</octave>
				</pitch>
				<duration>240</duration>
				<voice>1</voice>
				<type>eighth</type>
				<beam number="1">begin</beam>
				<lyric default-y="-75" number="1">
					<syllabic>single</syllabic>
					<text>6</text>
				</lyric>
				<lyric default-y="-90" number="2">
					<syllabic>single</syllabic>
					<text>4</text>
				</lyric>
				<lyric default-y="-105" number="3">
					<syllabic>single</syllabic>
					<text>2</text>
				</lyric>
			</note>
			<note>
				<pitch>
					<step>F</step>
					<octave>3</octave>
				</pitch>
				<duration>240</duration>
				<voice>1</voice>
				<type>eighth</type>
				<beam number="1">continue</beam>
				<beam number="2">end</beam>
			</note>
			<note>
				<pitch>
					<step>E</step>
					<octave>3</octave>
				</pitch>
				<duration>240</duration>
				<voice>1</voice>
				<type>eighth</type>
				<beam number="1">continue</beam>
				<lyric default-y="-75" number="1">
					<syllabic>single</syllabic>
					<text>7</text>
				</lyric>
				<lyric default-y="-90" number="2">
					<syllabic>single</syllabic>
					<text>5</text>
				</lyric>
				<lyric default-y="-105" number="3">
					<syllabic>single</syllabic>
					<text>2</text>
				</lyric>
			</note>
			<note>
				<pitch>
					<step>D</step>
					<octave>3</octave>
				</pitch>
				<duration>240</duration>
				<voice>1</voice>
				<type>eighth</type>
				<beam number="1">continue</beam>
				<beam number="2">end</beam>
			</note>
		</measure>
		<measure number="20">
			<note>
				<pitch>
					<step>E</step>
					<octave>3</octave>
				</pitch>
				<duration>480</duration>
				<voice>1</voice>
				<type>quarter</type>
				<lyric default-y="-75" number="1">
					<syllabic>single</syllabic>
					<text>6</text>
				</lyric>
			</note>
			<note>
				<pitch>
					<step>A</step>
					<octave>3</octave>
				</pitch>
				<duration>480</duration>
				<voice>1</voice>
				<type>quarter</type>
			</note>
			<note>
				<pitch>
					<step>F</step>
					<octave>3</octave>
				</pitch>
				<duration>480</duration>
				<voice>1</voice>
				<type>quarter</type>
				<lyric default-y="-75" number="1">
					<syllabic>single</syllabic>
					<text>6</text>
				</lyric>
				<lyric default-y="-90" number="2">
					<syllabic>single</syllabic>
					<text>5</text>
				</lyric>
			</note>
		</measure>
		<measure number="21">
			<note>
				<pitch>
					<step>G</step>
					<octave>3</octave>
				</pitch>
				<duration>480</duration>
				<voice>1</voice>
				<type>quarter</type>
				<lyric default-y="-75" number="1">
					<syllabic>single</syllabic>
					<text>6</text>
				</lyric>
				<lyric default-y="-90" number="2">
					<syllabic>single</syllabic>
					<text>4</text>
				</lyric>
			</note>
			<note>
				<pitch>
					<step>F</step>
					<octave>3</octave>
				</pitch>
				<duration>480</duration>
				<voice>1</voice>
				<type>quarter</type>
				<lyric default-y="-75" number="1">
					<syllabic>single</syllabic>
					<text>6</text>
				</lyric>
			</note>
			<note>
				<pitch>
					<step>G</step>
					<octave>3</octave>
				</pitch>
				<duration>480</duration>
				<voice>1</voice>
				<type>quarter</type>
				<lyric default-y="-75" number="1">
					<syllabic>single</syllabic>
					<text>5</text>
				</lyric>
				<lyric default-y="-90" number="2">
					<syllabic>single</syllabic>
					<text>3</text>
				</lyric>
			</note>
		</measure>
		<measure number="22">
			<note>
				<pitch>
					<step>C</step>
					<octave>3</octave>
				</pitch>
				<duration>1440</duration>
				<voice>1</voice>
				<type>half</type>
				<dot/>
			</note>
			<barline>
				<bar-style>light-heavy</bar-style>
			</barline>
		</measure>
	</part>
</score-partwise>
