<?xml version="1.0" encoding="UTF-8" standalone="no"?>
<!--MusicXML 2.0 file created by CapToMusic.py CapXML to MusicXML converter version 1.40-->
<!DOCTYPE score-partwise PUBLIC "-//Recordare//DTD MusicXML 2.0 Partwise//EN" "http://www.musicxml.org/dtds/partwise.dtd">
<score-partwise version="2.0">
	<identification>
		<encoding>
			<encoding-date>2017-04-02</encoding-date>
			<software>CapToMusic.py CapXML to MusicXML converter version 1.40</software>
			<encoding-description>Options: FinaleDolet33=1, ChordCaseMatters=1, ExportToSibelius=0</encoding-description>
		</encoding>
	</identification>
	<defaults>
		<scaling>
			<millimeters>1.8</millimeters>
			<tenths>10.0</tenths>
		</scaling>
		<page-layout>
			<page-height>1650</page-height>
			<page-width>1166</page-width>
			<page-margins type="both">
				<left-margin>111</left-margin>
				<right-margin>111</right-margin>
				<top-margin>111</top-margin>
				<bottom-margin>111</bottom-margin>
			</page-margins>
		</page-layout>
		<system-layout>
			<system-margins>
				<left-margin>0</left-margin>
				<right-margin>0</right-margin>
			</system-margins>
			<system-distance>0</system-distance>
			<top-system-distance>40</top-system-distance>
		</system-layout>
	</defaults>
	<credit>
		<credit-words></credit-words>
	</credit>
	<part-list>
		<part-group type="start" number="1">
			<group-symbol>bracket</group-symbol>
		</part-group>
		<score-part id="P1">
			<part-name></part-name>
			<part-abbreviation></part-abbreviation>
			<score-instrument id="P1-I1">
				<instrument-name>Midi_1</instrument-name>
			</score-instrument>
			<midi-instrument id="P1-I1">
				<midi-channel>1</midi-channel>
				<midi-program>1</midi-program>
			</midi-instrument>
		</score-part>
		<score-part id="P2">
			<part-name></part-name>
			<part-abbreviation></part-abbreviation>
			<score-instrument id="P2-I1">
				<instrument-name>Midi_1</instrument-name>
			</score-instrument>
			<midi-instrument id="P2-I1">
				<midi-channel>2</midi-channel>
				<midi-program>1</midi-program>
			</midi-instrument>
		</score-part>
		<part-group type="stop" number="1"/>
	</part-list>
	<part id="P1">
		<measure number="0">
			<direction>
				<direction-type>
					<other-direction/>
				</direction-type>
				<sound tempo="120"/>
			</direction>
			<print>
				<system-layout>
					<system-margins>
						<left-margin>0</left-margin>
						<right-margin>0</right-margin>
					</system-margins>
					<top-system-distance>180</top-system-distance>
				</system-layout>
				<staff-layout number="1">
					<staff-distance>140</staff-distance>
				</staff-layout>
			</print>
			<attributes>
				<divisions>480</divisions>
				<key>
					<fifths>3</fifths>
					<mode>major</mode>
				</key>
				<time symbol="common">
					<beats>4</beats>
					<beat-type>4</beat-type>
				</time>
				<clef>
					<sign>G</sign>
					<line>2</line>
				</clef>
			</attributes>
			<note>
				<pitch>
					<step>A</step>
					<octave>4</octave>
				</pitch>
				<duration>480</duration>
				<voice>1</voice>
				<type>quarter</type>
				<lyric default-y="-85" number="1">
					<syllabic>single</syllabic>
					<text>Kommt</text>
				</lyric>
				<lyric default-y="-110" number="2">
					<syllabic>single</syllabic>
					<text>schöpft</text>
				</lyric>
			</note>
			<barline>
				<bar-style>regular</bar-style>
			</barline>
		</measure>
		<measure number="1">
			<note>
				<pitch>
					<step>E</step>
					<octave>5</octave>
				</pitch>
				<duration>480</duration>
				<voice>1</voice>
				<type>quarter</type>
				<lyric default-y="-85" number="1">
					<syllabic>begin</syllabic>
					<text> wie</text>
				</lyric>
				<lyric default-y="-110" number="2">
					<syllabic>middle</syllabic>
					<text>neu</text>
				</lyric>
			</note>
			<note>
				<pitch>
					<step>F</step>
					<alter>1</alter>
					<octave>5</octave>
				</pitch>
				<duration>240</duration>
				<voice>1</voice>
				<type>eighth</type>
				<beam number="1">begin</beam>
				<notations>
					<slur number="1" placement="above" type="start"/>
				</notations>
				<lyric default-y="-85" number="1">
					<syllabic>end</syllabic>
					<text>der</text>
				</lyric>
				<lyric default-y="-110" number="2">
					<syllabic>single</syllabic>
					<text>en</text>
				</lyric>
			</note>
			<note>
				<pitch>
					<step>E</step>
					<octave>5</octave>
				</pitch>
				<duration>240</duration>
				<voice>1</voice>
				<type>eighth</type>
				<beam number="1">end</beam>
				<notations>
					<slur number="1" type="stop"/>
				</notations>
			</note>
			<note>
				<pitch>
					<step>D</step>
					<octave>5</octave>
				</pitch>
				<duration>240</duration>
				<voice>1</voice>
				<type>eighth</type>
				<beam number="1">begin</beam>
				<notations>
					<slur number="1" placement="above" type="start"/>
				</notations>
				<lyric default-y="-85" number="1">
					<syllabic>single</syllabic>
					<text>aus</text>
				</lyric>
				<lyric default-y="-110" number="2">
					<syllabic>single</syllabic>
					<text>Muth</text>
				</lyric>
			</note>
			<note>
				<pitch>
					<step>C</step>
					<alter>1</alter>
					<octave>5</octave>
				</pitch>
				<duration>240</duration>
				<voice>1</voice>
				<type>eighth</type>
				<beam number="1">end</beam>
				<notations>
					<slur number="1" type="stop"/>
				</notations>
			</note>
			<note>
				<pitch>
					<step>B</step>
					<octave>4</octave>
				</pitch>
				<duration>240</duration>
				<voice>1</voice>
				<type>eighth</type>
				<beam number="1">begin</beam>
				<notations>
					<slur number="1" placement="below" type="start"/>
				</notations>
				<lyric default-y="-85" number="1">
					<syllabic>single</syllabic>
					<text>der</text>
				</lyric>
				<lyric default-y="-110" number="2">
					<syllabic>single</syllabic>
					<text>und</text>
				</lyric>
			</note>
			<note>
				<pitch>
					<step>A</step>
					<octave>4</octave>
				</pitch>
				<duration>240</duration>
				<voice>1</voice>
				<type>eighth</type>
				<beam number="1">end</beam>
				<notations>
					<slur number="1" type="stop"/>
				</notations>
			</note>
		</measure>
		<measure number="2">
			<note>
				<pitch>
					<step>G</step>
					<alter>1</alter>
					<octave>4</octave>
				</pitch>
				<duration>240</duration>
				<voice>1</voice>
				<type>eighth</type>
				<beam number="1">begin</beam>
				<notations>
					<slur number="1" placement="below" type="start"/>
				</notations>
				<lyric default-y="-85" number="1">
					<syllabic>begin</syllabic>
					<text>fin</text>
				</lyric>
				<lyric default-y="-110" number="2">
					<syllabic>middle</syllabic>
					<text>fri</text>
				</lyric>
			</note>
			<note>
				<pitch>
					<step>A</step>
					<octave>4</octave>
				</pitch>
				<duration>240</duration>
				<voice>1</voice>
				<type>eighth</type>
				<beam number="1">end</beam>
				<notations>
					<slur number="1" type="stop"/>
				</notations>
			</note>
			<note>
				<pitch>
					<step>B</step>
					<octave>4</octave>
				</pitch>
				<duration>480</duration>
				<voice>1</voice>
				<type>quarter</type>
				<lyric default-y="-85" number="1">
					<syllabic>end</syllabic>
					<text>stern</text>
				</lyric>
				<lyric default-y="-110" number="2">
					<syllabic>single</syllabic>
					<text>sche</text>
				</lyric>
			</note>
			<direction placement="above">
				<direction-type>
					<words relative-x="-50" default-y="146" font-family="Times New Roman" font-size="17" font-weight="bold" justify="center">Kommt wieder aus der finstern Gruft.</words>
				</direction-type>
			</direction>
			<note>
				<pitch>
					<step>E</step>
					<octave>4</octave>
				</pitch>
				<duration>480</duration>
				<voice>1</voice>
				<type>quarter</type>
				<notations>
					<fermata type="upright"/>
				</notations>
				<lyric default-y="-85" number="1">
					<syllabic>single</syllabic>
					<text> Gruft,</text>
				</lyric>
				<lyric default-y="-110" number="2">
					<syllabic>single</syllabic>
					<text>Luft,</text>
				</lyric>
			</note>
			<note>
				<pitch>
					<step>F</step>
					<alter>1</alter>
					<octave>4</octave>
				</pitch>
				<duration>240</duration>
				<voice>1</voice>
				<type>eighth</type>
				<beam number="1">begin</beam>
				<lyric default-y="-85" number="1">
					<syllabic>single</syllabic>
					<text>ihr</text>
				</lyric>
				<lyric default-y="-110" number="2">
					<syllabic>single</syllabic>
					<text>blickt</text>
				</lyric>
			</note>
			<note>
				<pitch>
					<step>G</step>
					<alter>1</alter>
					<octave>4</octave>
				</pitch>
				<duration>240</duration>
				<voice>1</voice>
				<type>eighth</type>
				<beam number="1">end</beam>
			</note>
		</measure>
		<measure number="3">
			<note>
				<pitch>
					<step>A</step>
					<octave>4</octave>
				</pitch>
				<duration>480</duration>
				<voice>1</voice>
				<type>quarter</type>
				<lyric default-y="-85" number="1">
					<syllabic>single</syllabic>
					<text>Gott</text>
				</lyric>
				<lyric default-y="-110" number="2">
					<syllabic>single</syllabic>
					<text>hin</text>
				</lyric>
			</note>
			<note>
				<pitch>
					<step>B</step>
					<octave>4</octave>
				</pitch>
				<duration>240</duration>
				<voice>1</voice>
				<type>eighth</type>
				<beam number="1">begin</beam>
				<notations>
					<slur number="1" placement="above" type="start"/>
				</notations>
				<lyric default-y="-85" number="1">
					<syllabic>begin</syllabic>
					<text>er</text>
				</lyric>
				<lyric default-y="-110" number="2">
					<syllabic>end</syllabic>
					<text>nach</text>
				</lyric>
			</note>
			<note>
				<pitch>
					<step>C</step>
					<alter>1</alter>
					<octave>5</octave>
				</pitch>
				<duration>240</duration>
				<voice>1</voice>
				<type>eighth</type>
				<beam number="1">end</beam>
				<notations>
					<slur number="1" type="stop"/>
				</notations>
			</note>
			<note>
				<pitch>
					<step>D</step>
					<octave>5</octave>
				</pitch>
				<duration>240</duration>
				<voice>1</voice>
				<type>eighth</type>
				<beam number="1">begin</beam>
				<notations>
					<slur number="1" placement="above" type="start"/>
				</notations>
				<lyric default-y="-85" number="1">
					<syllabic>begin</syllabic>
					<text>geb'</text>
				</lyric>
				<lyric default-y="-110" number="2">
					<syllabic>middle</syllabic>
					<text>  Zi</text>
				</lyric>
			</note>
			<note>
				<pitch>
					<step>B</step>
					<octave>4</octave>
				</pitch>
				<duration>240</duration>
				<voice>1</voice>
				<type>eighth</type>
				<beam number="1">end</beam>
				<notations>
					<slur number="1" type="stop"/>
				</notations>
			</note>
			<note>
				<pitch>
					<step>E</step>
					<octave>5</octave>
				</pitch>
				<duration>480</duration>
				<voice>1</voice>
				<type>quarter</type>
				<lyric default-y="-85" number="1">
					<syllabic>end</syllabic>
					<text>nen</text>
				</lyric>
				<lyric default-y="-110" number="2">
					<syllabic>single</syllabic>
					<text>ons</text>
				</lyric>
			</note>
		</measure>
		<measure number="4">
			<note>
				<pitch>
					<step>C</step>
					<alter>1</alter>
					<octave>5</octave>
				</pitch>
				<duration>720</duration>
				<voice>1</voice>
				<type>quarter</type>
				<dot/>
				<notations>
					<slur number="1" placement="above" type="start"/>
				</notations>
				<lyric default-y="-85" number="1">
					<syllabic>begin</syllabic>
					<text>Sin</text>
				</lyric>
				<lyric default-y="-110" number="2">
					<syllabic>middle</syllabic>
					<text>Zin</text>
				</lyric>
			</note>
			<note>
				<pitch>
					<step>B</step>
					<octave>4</octave>
				</pitch>
				<duration>240</duration>
				<voice>1</voice>
				<type>eighth</type>
				<notations>
					<slur number="1" type="stop"/>
				</notations>
			</note>
			<direction placement="above">
				<direction-type>
					<words relative-x="41" default-y="66" font-family="Times New Roman" font-size="10" justify="right">Johann Sebastian Bach
BWV 480</words>
				</direction-type>
			</direction>
			<note>
				<pitch>
					<step>B</step>
					<octave>4</octave>
				</pitch>
				<duration>480</duration>
				<voice>1</voice>
				<type>quarter</type>
				<lyric default-y="-85" number="1">
					<syllabic>end</syllabic>
					<text>nen,</text>
				</lyric>
				<lyric default-y="-110" number="2">
					<syllabic>single</syllabic>
					<text>nen;</text>
				</lyric>
			</note>
			<barline>
				<bar-style>light-heavy</bar-style>
				<repeat direction="backward"/>
			</barline>
		</measure>
		<measure number="5">
			<print new-system="yes">
				<system-layout>
					<system-margins>
						<left-margin>0</left-margin>
						<right-margin>0</right-margin>
					</system-margins>
					<system-distance>120</system-distance>
				</system-layout>
				<staff-layout number="1">
					<staff-distance>60</staff-distance>
				</staff-layout>
			</print>
			<attributes>
				<time>
					<beats>4</beats>
					<beat-type>4</beat-type>
				</time>
			</attributes>
			<note>
				<pitch>
					<step>B</step>
					<octave>4</octave>
				</pitch>
				<duration>480</duration>
				<voice>1</voice>
				<type>quarter</type>
				<lyric default-y="-95" number="1">
					<syllabic>single</syllabic>
					<text>denn</text>
				</lyric>
			</note>
			<barline>
				<bar-style>regular</bar-style>
			</barline>
		</measure>
		<measure number="6">
			<note>
				<pitch>
					<step>E</step>
					<octave>5</octave>
				</pitch>
				<duration>480</duration>
				<voice>1</voice>
				<type>quarter</type>
				<lyric default-y="-95" number="1">
					<syllabic>begin</syllabic>
					<text>Je</text>
				</lyric>
			</note>
			<note>
				<pitch>
					<step>D</step>
					<octave>5</octave>
				</pitch>
				<duration>240</duration>
				<voice>1</voice>
				<type>eighth</type>
				<beam number="1">begin</beam>
				<notations>
					<slur number="1" placement="above" type="start"/>
				</notations>
				<lyric default-y="-95" number="1">
					<syllabic>end</syllabic>
					<text>sus,</text>
				</lyric>
			</note>
			<note>
				<pitch>
					<step>C</step>
					<alter>1</alter>
					<octave>5</octave>
				</pitch>
				<duration>240</duration>
				<voice>1</voice>
				<type>eighth</type>
				<beam number="1">end</beam>
				<notations>
					<slur number="1" type="stop"/>
				</notations>
			</note>
			<note>
				<pitch>
					<step>F</step>
					<alter>1</alter>
					<octave>5</octave>
				</pitch>
				<duration>480</duration>
				<voice>1</voice>
				<type>quarter</type>
				<lyric default-y="-95" number="1">
					<syllabic>single</syllabic>
					<text>der</text>
				</lyric>
			</note>
			<note>
				<pitch>
					<step>B</step>
					<octave>4</octave>
				</pitch>
				<duration>480</duration>
				<voice>1</voice>
				<type>quarter</type>
				<lyric default-y="-95" number="1">
					<syllabic>single</syllabic>
					<text>im</text>
				</lyric>
			</note>
		</measure>
		<measure number="7">
			<note>
				<pitch>
					<step>A</step>
					<alter>1</alter>
					<octave>4</octave>
				</pitch>
				<duration>240</duration>
				<voice>1</voice>
				<type>eighth</type>
				<accidental>sharp</accidental>
				<beam number="1">begin</beam>
				<notations>
					<slur number="1" placement="below" type="start"/>
				</notations>
				<lyric default-y="-95" number="1">
					<syllabic>begin</syllabic>
					<text>Gra</text>
				</lyric>
			</note>
			<note>
				<pitch>
					<step>B</step>
					<octave>4</octave>
				</pitch>
				<duration>240</duration>
				<voice>1</voice>
				<type>eighth</type>
				<beam number="1">end</beam>
				<notations>
					<slur number="1" type="stop"/>
				</notations>
			</note>
			<note>
				<pitch>
					<step>C</step>
					<alter>1</alter>
					<octave>5</octave>
				</pitch>
				<duration>480</duration>
				<voice>1</voice>
				<type>quarter</type>
				<lyric default-y="-95" number="1">
					<syllabic>end</syllabic>
					<text>be</text>
				</lyric>
			</note>
			<note>
				<pitch>
					<step>F</step>
					<alter>1</alter>
					<octave>4</octave>
				</pitch>
				<duration>480</duration>
				<voice>1</voice>
				<type>quarter</type>
				<notations>
					<fermata type="upright"/>
				</notations>
				<lyric default-y="-95" number="1">
					<syllabic>single</syllabic>
					<text>lag,</text>
				</lyric>
			</note>
			<note>
				<pitch>
					<step>A</step>
					<alter>1</alter>
					<octave>4</octave>
				</pitch>
				<duration>480</duration>
				<voice>1</voice>
				<type>quarter</type>
				<lyric default-y="-95" number="1">
					<syllabic>single</syllabic>
					<text>hat</text>
				</lyric>
			</note>
		</measure>
		<measure number="8">
			<note>
				<pitch>
					<step>B</step>
					<octave>4</octave>
				</pitch>
				<duration>480</duration>
				<voice>1</voice>
				<type>quarter</type>
				<lyric default-y="-95" number="1">
					<syllabic>single</syllabic>
					<text>als</text>
				</lyric>
			</note>
			<note>
				<pitch>
					<step>C</step>
					<alter>1</alter>
					<octave>5</octave>
				</pitch>
				<duration>240</duration>
				<voice>1</voice>
				<type>eighth</type>
				<beam number="1">begin</beam>
				<notations>
					<slur number="1" placement="above" type="start"/>
				</notations>
				<lyric default-y="-95" number="1">
					<syllabic>single</syllabic>
					<text>ein</text>
				</lyric>
			</note>
			<note>
				<pitch>
					<step>D</step>
					<octave>5</octave>
				</pitch>
				<duration>240</duration>
				<voice>1</voice>
				<type>eighth</type>
				<beam number="1">end</beam>
				<notations>
					<slur number="1" type="stop"/>
				</notations>
			</note>
			<note>
				<pitch>
					<step>E</step>
					<octave>5</octave>
				</pitch>
				<duration>240</duration>
				<voice>1</voice>
				<type>eighth</type>
				<beam number="1">begin</beam>
				<notations>
					<slur number="1" placement="above" type="start"/>
				</notations>
				<lyric default-y="-95" number="1">
					<syllabic>single</syllabic>
					<text>Held</text>
				</lyric>
			</note>
			<note>
				<pitch>
					<step>C</step>
					<alter>1</alter>
					<octave>5</octave>
				</pitch>
				<duration>240</duration>
				<voice>1</voice>
				<type>eighth</type>
				<beam number="1">end</beam>
				<notations>
					<slur number="1" type="stop"/>
				</notations>
			</note>
			<note>
				<pitch>
					<step>B</step>
					<octave>4</octave>
				</pitch>
				<duration>240</duration>
				<voice>1</voice>
				<type>eighth</type>
				<beam number="1">begin</beam>
				<notations>
					<slur number="1" placement="below" type="start"/>
				</notations>
				<lyric default-y="-95" number="1">
					<syllabic>single</syllabic>
					<text>am</text>
				</lyric>
			</note>
			<note>
				<pitch>
					<step>A</step>
					<octave>4</octave>
				</pitch>
				<duration>240</duration>
				<voice>1</voice>
				<type>eighth</type>
				<accidental cautionary="yes">natural</accidental>
				<beam number="1">end</beam>
				<notations>
					<slur number="1" type="stop"/>
				</notations>
			</note>
		</measure>
		<measure number="9">
			<print new-system="yes">
				<system-layout>
					<system-margins>
						<left-margin>0</left-margin>
						<right-margin>0</right-margin>
					</system-margins>
					<system-distance>120</system-distance>
				</system-layout>
				<staff-layout number="1">
					<staff-distance>60</staff-distance>
				</staff-layout>
			</print>
			<note>
				<pitch>
					<step>F</step>
					<alter>1</alter>
					<octave>5</octave>
				</pitch>
				<duration>720</duration>
				<voice>1</voice>
				<type>quarter</type>
				<dot/>
				<lyric default-y="-95" number="1">
					<syllabic>begin</syllabic>
					<text>drit</text>
				</lyric>
			</note>
			<note>
				<pitch>
					<step>G</step>
					<octave>5</octave>
				</pitch>
				<duration>240</duration>
				<voice>1</voice>
				<type>eighth</type>
				<accidental>natural</accidental>
				<lyric default-y="-95" number="1">
					<syllabic>end</syllabic>
					<text>ten</text>
				</lyric>
			</note>
			<note>
				<pitch>
					<step>E</step>
					<octave>5</octave>
				</pitch>
				<duration>480</duration>
				<voice>1</voice>
				<type>quarter</type>
				<notations>
					<fermata type="upright"/>
				</notations>
				<lyric default-y="-95" number="1">
					<syllabic>single</syllabic>
					<text>Tag</text>
				</lyric>
			</note>
			<note>
				<pitch>
					<step>E</step>
					<octave>4</octave>
				</pitch>
				<duration>480</duration>
				<voice>1</voice>
				<type>quarter</type>
				<lyric default-y="-95" number="1">
					<syllabic>single</syllabic>
					<text>des</text>
				</lyric>
			</note>
		</measure>
		<measure number="10">
			<note>
				<pitch>
					<step>F</step>
					<alter>1</alter>
					<octave>4</octave>
				</pitch>
				<duration>480</duration>
				<voice>1</voice>
				<type>quarter</type>
				<lyric default-y="-95" number="1">
					<syllabic>begin</syllabic>
					<text>To</text>
				</lyric>
			</note>
			<note>
				<pitch>
					<step>G</step>
					<alter>1</alter>
					<octave>4</octave>
				</pitch>
				<duration>240</duration>
				<voice>1</voice>
				<type>eighth</type>
				<accidental cautionary="yes">sharp</accidental>
				<beam number="1">begin</beam>
				<notations>
					<slur number="1" placement="below" type="start"/>
				</notations>
				<lyric default-y="-95" number="1">
					<syllabic>end</syllabic>
					<text>des</text>
				</lyric>
			</note>
			<note>
				<pitch>
					<step>A</step>
					<octave>4</octave>
				</pitch>
				<duration>240</duration>
				<voice>1</voice>
				<type>eighth</type>
				<beam number="1">end</beam>
				<notations>
					<slur number="1" type="stop"/>
				</notations>
			</note>
			<note>
				<pitch>
					<step>B</step>
					<octave>4</octave>
				</pitch>
				<duration>240</duration>
				<voice>1</voice>
				<type>eighth</type>
				<beam number="1">begin</beam>
				<notations>
					<slur number="1" placement="above" type="start"/>
				</notations>
				<lyric default-y="-95" number="1">
					<syllabic>single</syllabic>
					<text>Reich</text>
				</lyric>
			</note>
			<note>
				<pitch>
					<step>D</step>
					<octave>5</octave>
				</pitch>
				<duration>240</duration>
				<voice>1</voice>
				<type>eighth</type>
				<beam number="1">end</beam>
				<notations>
					<slur number="1" type="stop"/>
				</notations>
			</note>
			<note>
				<pitch>
					<step>C</step>
					<alter>1</alter>
					<octave>5</octave>
				</pitch>
				<duration>240</duration>
				<voice>1</voice>
				<type>eighth</type>
				<beam number="1">begin</beam>
				<notations>
					<slur number="1" placement="above" type="start"/>
				</notations>
				<lyric default-y="-95" number="1">
					<syllabic>begin</syllabic>
					<text>be</text>
				</lyric>
			</note>
			<note>
				<pitch>
					<step>B</step>
					<octave>4</octave>
				</pitch>
				<duration>240</duration>
				<voice>1</voice>
				<type>eighth</type>
				<beam number="1">end</beam>
				<notations>
					<slur number="1" type="stop"/>
				</notations>
			</note>
		</measure>
		<measure number="11">
			<note>
				<pitch>
					<step>B</step>
					<octave>4</octave>
				</pitch>
				<duration>720</duration>
				<voice>1</voice>
				<type>quarter</type>
				<dot/>
				<notations>
					<slur number="1" placement="above" type="start"/>
				</notations>
				<lyric default-y="-95" number="1">
					<syllabic>middle</syllabic>
					<text>sie</text>
				</lyric>
			</note>
			<note>
				<pitch>
					<step>A</step>
					<octave>4</octave>
				</pitch>
				<duration>240</duration>
				<voice>1</voice>
				<type>eighth</type>
				<notations>
					<slur number="1" type="stop"/>
				</notations>
			</note>
			<note>
				<pitch>
					<step>A</step>
					<octave>4</octave>
				</pitch>
				<duration>480</duration>
				<voice>1</voice>
				<type>quarter</type>
				<notations>
					<fermata type="upright"/>
				</notations>
				<lyric default-y="-95" number="1">
					<syllabic>end</syllabic>
					<text>get.</text>
				</lyric>
			</note>
			<barline>
				<bar-style>light-heavy</bar-style>
			</barline>
		</measure>
	</part>
	<part id="P2">
		<measure number="0">
			<direction>
				<direction-type>
					<other-direction/>
				</direction-type>
				<sound tempo="120"/>
			</direction>
			<print>
				<system-layout>
					<system-margins>
						<left-margin>0</left-margin>
						<right-margin>0</right-margin>
					</system-margins>
					<top-system-distance>180</top-system-distance>
				</system-layout>
				<staff-layout number="1">
					<staff-distance>100</staff-distance>
				</staff-layout>
			</print>
			<attributes>
				<divisions>480</divisions>
				<key>
					<fifths>3</fifths>
					<mode>major</mode>
				</key>
				<time symbol="common">
					<beats>4</beats>
					<beat-type>4</beat-type>
				</time>
				<clef>
					<sign>F</sign>
					<line>4</line>
				</clef>
			</attributes>
			<note>
				<pitch>
					<step>A</step>
					<octave>3</octave>
				</pitch>
				<duration>480</duration>
				<tie type="start"/>
				<voice>1</voice>
				<type>quarter</type>
				<notations>
					<tied type="start"/>
				</notations>
			</note>
			<barline>
				<bar-style>regular</bar-style>
			</barline>
		</measure>
		<measure number="1">
			<note>
				<pitch>
					<step>A</step>
					<octave>3</octave>
				</pitch>
				<duration>480</duration>
				<tie type="stop"/>
				<voice>1</voice>
				<type>quarter</type>
				<notations>
					<tied type="stop"/>
				</notations>
				<lyric default-y="-75" number="1">
					<syllabic>single</syllabic>
					<text>5</text>
				</lyric>
				<lyric default-y="-90" number="2">
					<syllabic>single</syllabic>
					<text>2</text>
				</lyric>
			</note>
			<note>
				<pitch>
					<step>G</step>
					<alter>1</alter>
					<octave>3</octave>
				</pitch>
				<duration>480</duration>
				<voice>1</voice>
				<type>quarter</type>
				<lyric default-y="-75" number="1">
					<syllabic>single</syllabic>
					<text>    7   6</text>
				</lyric>
			</note>
			<note>
				<pitch>
					<step>A</step>
					<octave>3</octave>
				</pitch>
				<duration>480</duration>
				<voice>1</voice>
				<type>quarter</type>
				<lyric default-y="-75" number="1">
					<syllabic>single</syllabic>
					<text>   4   3</text>
				</lyric>
			</note>
			<note>
				<pitch>
					<step>D</step>
					<octave>3</octave>
				</pitch>
				<duration>480</duration>
				<tie type="start"/>
				<voice>1</voice>
				<type>quarter</type>
				<notations>
					<tied type="start"/>
				</notations>
				<lyric default-y="-75" number="1">
					<syllabic>single</syllabic>
					<text>   6  5</text>
				</lyric>
			</note>
		</measure>
		<measure number="2">
			<note>
				<pitch>
					<step>D</step>
					<octave>3</octave>
				</pitch>
				<duration>240</duration>
				<tie type="stop"/>
				<voice>1</voice>
				<type>eighth</type>
				<beam number="1">begin</beam>
				<notations>
					<tied type="stop"/>
				</notations>
				<lyric default-y="-75" number="1">
					<syllabic>single</syllabic>
					<text>4</text>
				</lyric>
				<lyric default-y="-90" number="2">
					<syllabic>single</syllabic>
					<text>2</text>
				</lyric>
			</note>
			<note>
				<pitch>
					<step>C</step>
					<alter>1</alter>
					<octave>3</octave>
				</pitch>
				<duration>240</duration>
				<voice>1</voice>
				<type>eighth</type>
				<beam number="1">continue</beam>
				<beam number="2">end</beam>
				<lyric default-y="-75" number="1">
					<syllabic>single</syllabic>
					<text>6</text>
				</lyric>
			</note>
			<note>
				<pitch>
					<step>B</step>
					<octave>2</octave>
				</pitch>
				<duration>240</duration>
				<voice>1</voice>
				<type>eighth</type>
				<beam number="1">continue</beam>
				<lyric default-y="-75" number="1">
					<syllabic>single</syllabic>
					<text>6</text>
				</lyric>
			</note>
			<note>
				<pitch>
					<step>A</step>
					<octave>2</octave>
				</pitch>
				<duration>240</duration>
				<voice>1</voice>
				<type>eighth</type>
				<beam number="1">end</beam>
				<lyric default-y="-75" number="1">
					<syllabic>single</syllabic>
					<text>6</text>
				</lyric>
				<lyric default-y="-90" number="2">
					<syllabic>single</syllabic>
					<text>4</text>
				</lyric>
				<lyric default-y="-105" number="3">
					<syllabic>single</syllabic>
					<text>2</text>
				</lyric>
			</note>
			<note>
				<pitch>
					<step>G</step>
					<alter>1</alter>
					<octave>2</octave>
				</pitch>
				<duration>480</duration>
				<voice>1</voice>
				<type>quarter</type>
				<notations>
					<fermata type="upright"/>
				</notations>
				<lyric default-y="-75" number="1">
					<syllabic>single</syllabic>
					<text>6</text>
				</lyric>
				<lyric default-y="-90" number="2">
					<syllabic>single</syllabic>
					<text>5</text>
				</lyric>
			</note>
			<note>
				<pitch>
					<step>A</step>
					<octave>2</octave>
				</pitch>
				<duration>240</duration>
				<voice>1</voice>
				<type>eighth</type>
				<beam number="1">begin</beam>
				<lyric default-y="-75" number="1">
					<syllabic>single</syllabic>
					<text>6</text>
				</lyric>
			</note>
			<note>
				<pitch>
					<step>B</step>
					<octave>2</octave>
				</pitch>
				<duration>240</duration>
				<voice>1</voice>
				<type>eighth</type>
				<beam number="1">end</beam>
				<lyric default-y="-75" number="1">
					<syllabic>single</syllabic>
					<text>6</text>
				</lyric>
			</note>
		</measure>
		<measure number="3">
			<note>
				<pitch>
					<step>C</step>
					<alter>1</alter>
					<octave>3</octave>
				</pitch>
				<duration>240</duration>
				<voice>1</voice>
				<type>eighth</type>
				<beam number="1">begin</beam>
				<lyric default-y="-75" number="1">
					<syllabic>single</syllabic>
					<text>6</text>
				</lyric>
			</note>
			<note>
				<pitch>
					<step>E</step>
					<octave>3</octave>
				</pitch>
				<duration>240</duration>
				<voice>1</voice>
				<type>eighth</type>
				<beam number="1">continue</beam>
				<beam number="2">end</beam>
			</note>
			<note>
				<pitch>
					<step>D</step>
					<octave>3</octave>
				</pitch>
				<duration>240</duration>
				<voice>1</voice>
				<type>eighth</type>
				<beam number="1">continue</beam>
				<lyric default-y="-75" number="1">
					<syllabic>single</syllabic>
					<text>4</text>
				</lyric>
				<lyric default-y="-90" number="2">
					<syllabic>single</syllabic>
					<text>2</text>
				</lyric>
			</note>
			<note>
				<pitch>
					<step>C</step>
					<alter>1</alter>
					<octave>3</octave>
				</pitch>
				<duration>240</duration>
				<voice>1</voice>
				<type>eighth</type>
				<beam number="1">end</beam>
				<lyric default-y="-75" number="1">
					<syllabic>single</syllabic>
					<text>6</text>
				</lyric>
			</note>
			<note>
				<pitch>
					<step>B</step>
					<octave>2</octave>
				</pitch>
				<duration>240</duration>
				<voice>1</voice>
				<type>eighth</type>
				<beam number="1">begin</beam>
				<lyric default-y="-75" number="1">
					<syllabic>single</syllabic>
					<text>5</text>
				</lyric>
			</note>
			<note>
				<pitch>
					<step>A</step>
					<octave>2</octave>
				</pitch>
				<duration>240</duration>
				<voice>1</voice>
				<type>eighth</type>
				<beam number="1">continue</beam>
				<beam number="2">end</beam>
			</note>
			<note>
				<pitch>
					<step>G</step>
					<alter>1</alter>
					<octave>2</octave>
				</pitch>
				<duration>240</duration>
				<voice>1</voice>
				<type>eighth</type>
				<beam number="1">continue</beam>
				<lyric default-y="-75" number="1">
					<syllabic>single</syllabic>
					<text>6</text>
				</lyric>
			</note>
			<note>
				<pitch>
					<step>E</step>
					<octave>2</octave>
				</pitch>
				<duration>240</duration>
				<voice>1</voice>
				<type>eighth</type>
				<beam number="1">end</beam>
			</note>
		</measure>
		<measure number="4">
			<note>
				<pitch>
					<step>A</step>
					<octave>2</octave>
				</pitch>
				<duration>240</duration>
				<voice>1</voice>
				<type>eighth</type>
				<beam number="1">begin</beam>
				<lyric default-y="-75" number="1">
					<syllabic>single</syllabic>
					<text>9</text>
				</lyric>
			</note>
			<note>
				<pitch>
					<step>B</step>
					<octave>2</octave>
				</pitch>
				<duration>240</duration>
				<voice>1</voice>
				<type>eighth</type>
				<beam number="1">continue</beam>
				<beam number="2">end</beam>
			</note>
			<note>
				<pitch>
					<step>C</step>
					<alter>1</alter>
					<octave>3</octave>
				</pitch>
				<duration>240</duration>
				<voice>1</voice>
				<type>eighth</type>
				<beam number="1">continue</beam>
				<lyric default-y="-75" number="1">
					<syllabic>single</syllabic>
					<text>6</text>
				</lyric>
			</note>
			<note>
				<pitch>
					<step>D</step>
					<octave>3</octave>
				</pitch>
				<duration>240</duration>
				<voice>1</voice>
				<type>eighth</type>
				<beam number="1">end</beam>
			</note>
			<note>
				<pitch>
					<step>E</step>
					<octave>3</octave>
				</pitch>
				<duration>480</duration>
				<voice>1</voice>
				<type>quarter</type>
			</note>
			<barline>
				<bar-style>light-heavy</bar-style>
				<repeat direction="backward"/>
			</barline>
		</measure>
		<measure number="5">
			<print new-system="yes">
				<system-layout>
					<system-margins>
						<left-margin>0</left-margin>
						<right-margin>0</right-margin>
					</system-margins>
					<system-distance>120</system-distance>
				</system-layout>
				<staff-layout number="1">
					<staff-distance>100</staff-distance>
				</staff-layout>
			</print>
			<attributes>
				<time>
					<beats>4</beats>
					<beat-type>4</beat-type>
				</time>
			</attributes>
			<note>
				<pitch>
					<step>E</step>
					<octave>3</octave>
				</pitch>
				<duration>240</duration>
				<voice>1</voice>
				<type>eighth</type>
				<beam number="1">begin</beam>
			</note>
			<note>
				<pitch>
					<step>D</step>
					<octave>3</octave>
				</pitch>
				<duration>240</duration>
				<voice>1</voice>
				<type>eighth</type>
				<beam number="1">end</beam>
			</note>
			<barline>
				<bar-style>regular</bar-style>
			</barline>
		</measure>
		<measure number="6">
			<note>
				<pitch>
					<step>C</step>
					<alter>1</alter>
					<octave>3</octave>
				</pitch>
				<duration>480</duration>
				<voice>1</voice>
				<type>quarter</type>
				<lyric default-y="-75" number="1">
					<syllabic>single</syllabic>
					<text>   7  6</text>
				</lyric>
			</note>
			<note>
				<pitch>
					<step>F</step>
					<alter>1</alter>
					<octave>3</octave>
				</pitch>
				<duration>240</duration>
				<voice>1</voice>
				<type>eighth</type>
				<beam number="1">begin</beam>
				<lyric default-y="-75" number="1">
					<syllabic>single</syllabic>
					<text>6</text>
				</lyric>
			</note>
			<note>
				<pitch>
					<step>E</step>
					<octave>3</octave>
				</pitch>
				<duration>240</duration>
				<voice>1</voice>
				<type>eighth</type>
				<beam number="1">end</beam>
			</note>
			<note>
				<pitch>
					<step>D</step>
					<octave>3</octave>
				</pitch>
				<duration>480</duration>
				<voice>1</voice>
				<type>quarter</type>
				<lyric default-y="-75" number="1">
					<syllabic>single</syllabic>
					<text>  6  5</text>
				</lyric>
			</note>
			<note>
				<pitch>
					<step>E</step>
					<octave>3</octave>
				</pitch>
				<duration>480</duration>
				<tie type="start"/>
				<voice>1</voice>
				<type>quarter</type>
				<notations>
					<tied type="start"/>
				</notations>
				<lyric default-y="-75" number="1">
					<syllabic>single</syllabic>
					<text>   8  7</text>
				</lyric>
			</note>
		</measure>
		<measure number="7">
			<note>
				<pitch>
					<step>E</step>
					<octave>3</octave>
				</pitch>
				<duration>240</duration>
				<tie type="stop"/>
				<voice>1</voice>
				<type>eighth</type>
				<beam number="1">begin</beam>
				<notations>
					<tied type="stop"/>
				</notations>
				<lyric default-y="-75" number="1">
					<syllabic>single</syllabic>
					<text>  4+</text>
				</lyric>
				<lyric default-y="-90" number="2">
					<syllabic>single</syllabic>
					<text>2</text>
				</lyric>
			</note>
			<note>
				<pitch>
					<step>D</step>
					<octave>3</octave>
				</pitch>
				<duration>240</duration>
				<voice>1</voice>
				<type>eighth</type>
				<beam number="1">continue</beam>
				<beam number="2">end</beam>
				<lyric default-y="-75" number="1">
					<syllabic>single</syllabic>
					<text>6</text>
				</lyric>
			</note>
			<note>
				<pitch>
					<step>C</step>
					<alter>1</alter>
					<octave>3</octave>
				</pitch>
				<duration>240</duration>
				<voice>1</voice>
				<type>eighth</type>
				<beam number="1">continue</beam>
				<lyric default-y="-75" number="1">
					<syllabic>single</syllabic>
					<text>6</text>
				</lyric>
			</note>
			<note>
				<pitch>
					<step>B</step>
					<octave>2</octave>
				</pitch>
				<duration>240</duration>
				<voice>1</voice>
				<type>eighth</type>
				<beam number="1">end</beam>
			</note>
			<note>
				<pitch>
					<step>A</step>
					<alter>1</alter>
					<octave>2</octave>
				</pitch>
				<duration>480</duration>
				<voice>1</voice>
				<type>quarter</type>
				<accidental>sharp</accidental>
				<notations>
					<fermata type="upright"/>
				</notations>
				<lyric default-y="-75" number="1">
					<syllabic>single</syllabic>
					<text>6</text>
				</lyric>
				<lyric default-y="-90" number="2">
					<syllabic>single</syllabic>
					<text>5</text>
				</lyric>
			</note>
			<note>
				<pitch>
					<step>F</step>
					<alter>1</alter>
					<octave>3</octave>
				</pitch>
				<duration>240</duration>
				<voice>1</voice>
				<type>eighth</type>
				<beam number="1">begin</beam>
				<lyric default-y="-75" number="1">
					<syllabic>single</syllabic>
					<text>6</text>
				</lyric>
			</note>
			<note>
				<pitch>
					<step>E</step>
					<octave>3</octave>
				</pitch>
				<duration>240</duration>
				<voice>1</voice>
				<type>eighth</type>
				<beam number="1">end</beam>
				<lyric default-y="-75" number="1">
					<syllabic>single</syllabic>
					<text>6</text>
				</lyric>
				<lyric default-y="-90" number="2">
					<syllabic>single</syllabic>
					<text>  4+</text>
				</lyric>
			</note>
		</measure>
		<measure number="8">
			<note>
				<pitch>
					<step>D</step>
					<octave>3</octave>
				</pitch>
				<duration>240</duration>
				<voice>1</voice>
				<type>eighth</type>
				<beam number="1">begin</beam>
				<lyric default-y="-75" number="1">
					<syllabic>single</syllabic>
					<text>6</text>
				</lyric>
			</note>
			<note>
				<pitch>
					<step>C</step>
					<alter>1</alter>
					<octave>3</octave>
				</pitch>
				<duration>240</duration>
				<voice>1</voice>
				<type>eighth</type>
				<beam number="1">end</beam>
			</note>
			<note>
				<pitch>
					<step>B</step>
					<octave>2</octave>
				</pitch>
				<duration>480</duration>
				<voice>1</voice>
				<type>quarter</type>
			</note>
			<note>
				<pitch>
					<step>C</step>
					<alter>1</alter>
					<octave>3</octave>
				</pitch>
				<duration>480</duration>
				<voice>1</voice>
				<type>quarter</type>
				<lyric default-y="-75" number="1">
					<syllabic>single</syllabic>
					<text>7</text>
				</lyric>
			</note>
			<note>
				<pitch>
					<step>F</step>
					<alter>1</alter>
					<octave>3</octave>
				</pitch>
				<duration>480</duration>
				<tie type="start"/>
				<voice>1</voice>
				<type>quarter</type>
				<notations>
					<tied type="start"/>
				</notations>
				<lyric default-y="-75" number="1">
					<syllabic>single</syllabic>
					<text>43</text>
				</lyric>
			</note>
		</measure>
		<measure number="9">
			<print new-system="yes">
				<system-layout>
					<system-margins>
						<left-margin>0</left-margin>
						<right-margin>0</right-margin>
					</system-margins>
					<system-distance>120</system-distance>
				</system-layout>
				<staff-layout number="1">
					<staff-distance>100</staff-distance>
				</staff-layout>
			</print>
			<note>
				<pitch>
					<step>F</step>
					<alter>1</alter>
					<octave>3</octave>
				</pitch>
				<duration>240</duration>
				<tie type="stop"/>
				<voice>1</voice>
				<type>eighth</type>
				<beam number="1">begin</beam>
				<notations>
					<tied type="stop"/>
				</notations>
				<lyric default-y="-75" number="1">
					<syllabic>single</syllabic>
					<text>6</text>
				</lyric>
			</note>
			<note>
				<pitch>
					<step>E</step>
					<octave>3</octave>
				</pitch>
				<duration>240</duration>
				<voice>1</voice>
				<type>eighth</type>
				<beam number="1">end</beam>
			</note>
			<note>
				<pitch>
					<step>D</step>
					<octave>3</octave>
				</pitch>
				<duration>480</duration>
				<voice>1</voice>
				<type>quarter</type>
				<lyric default-y="-75" number="1">
					<syllabic>single</syllabic>
					<text>   5    6</text>
				</lyric>
				<lyric default-y="-90" number="2">
					<syllabic>single</syllabic>
					<text>   3    4</text>
				</lyric>
			</note>
			<note>
				<pitch>
					<step>A</step>
					<octave>3</octave>
				</pitch>
				<duration>480</duration>
				<voice>1</voice>
				<type>quarter</type>
				<notations>
					<fermata type="upright"/>
				</notations>
			</note>
			<note>
				<pitch>
					<step>C</step>
					<alter>1</alter>
					<octave>3</octave>
				</pitch>
				<duration>480</duration>
				<voice>1</voice>
				<type>quarter</type>
				<lyric default-y="-75" number="1">
					<syllabic>single</syllabic>
					<text>6</text>
				</lyric>
			</note>
		</measure>
		<measure number="10">
			<note>
				<pitch>
					<step>D</step>
					<octave>3</octave>
				</pitch>
				<duration>240</duration>
				<voice>1</voice>
				<type>eighth</type>
				<beam number="1">begin</beam>
				<lyric default-y="-75" number="1">
					<syllabic>single</syllabic>
					<text>9</text>
				</lyric>
			</note>
			<note>
				<pitch>
					<step>C</step>
					<alter>1</alter>
					<octave>3</octave>
				</pitch>
				<duration>240</duration>
				<voice>1</voice>
				<type>eighth</type>
				<beam number="1">continue</beam>
				<beam number="2">end</beam>
			</note>
			<note>
				<pitch>
					<step>B</step>
					<octave>2</octave>
				</pitch>
				<duration>240</duration>
				<voice>1</voice>
				<type>eighth</type>
				<beam number="1">continue</beam>
				<lyric default-y="-75" number="1">
					<syllabic>single</syllabic>
					<text>6</text>
				</lyric>
			</note>
			<note>
				<pitch>
					<step>A</step>
					<octave>2</octave>
				</pitch>
				<duration>240</duration>
				<voice>1</voice>
				<type>eighth</type>
				<beam number="1">end</beam>
			</note>
			<note>
				<pitch>
					<step>G</step>
					<alter>1</alter>
					<octave>2</octave>
				</pitch>
				<duration>240</duration>
				<voice>1</voice>
				<type>eighth</type>
				<beam number="1">begin</beam>
				<lyric default-y="-75" number="1">
					<syllabic>single</syllabic>
					<text>6</text>
				</lyric>
				<lyric default-y="-90" number="2">
					<syllabic>single</syllabic>
					<text>5</text>
				</lyric>
			</note>
			<note>
				<pitch>
					<step>E</step>
					<octave>2</octave>
				</pitch>
				<duration>240</duration>
				<voice>1</voice>
				<type>eighth</type>
				<beam number="1">continue</beam>
				<beam number="2">end</beam>
			</note>
			<note>
				<pitch>
					<step>A</step>
					<octave>2</octave>
				</pitch>
				<duration>240</duration>
				<voice>1</voice>
				<type>eighth</type>
				<beam number="1">continue</beam>
			</note>
			<note>
				<pitch>
					<step>D</step>
					<octave>3</octave>
				</pitch>
				<duration>240</duration>
				<voice>1</voice>
				<type>eighth</type>
				<beam number="1">end</beam>
				<lyric default-y="-75" number="1">
					<syllabic>single</syllabic>
					<text>6</text>
				</lyric>
				<lyric default-y="-90" number="2">
					<syllabic>single</syllabic>
					<text>5</text>
				</lyric>
			</note>
		</measure>
		<measure number="11">
			<note>
				<pitch>
					<step>E</step>
					<octave>3</octave>
				</pitch>
				<duration>480</duration>
				<voice>1</voice>
				<type>quarter</type>
				<lyric default-y="-75" number="1">
					<syllabic>single</syllabic>
					<text>4</text>
				</lyric>
			</note>
			<note>
				<pitch>
					<step>E</step>
					<octave>2</octave>
				</pitch>
				<duration>480</duration>
				<voice>1</voice>
				<type>quarter</type>
				<lyric default-y="-75" number="1">
					<syllabic>single</syllabic>
					<text>3</text>
				</lyric>
			</note>
			<note>
				<pitch>
					<step>A</step>
					<octave>2</octave>
				</pitch>
				<duration>480</duration>
				<voice>1</voice>
				<type>quarter</type>
				<notations>
					<fermata type="upright"/>
				</notations>
			</note>
			<barline>
				<bar-style>light-heavy</bar-style>
			</barline>
		</measure>
	</part>
</score-partwise>
