<?xml version="1.0" encoding="UTF-8" standalone="no"?>
<!--MusicXML 2.0 file created by CapToMusic.py CapXML to MusicXML converter version 1.37-->
<!DOCTYPE score-partwise PUBLIC "-//Recordare//DTD MusicXML 2.0 Partwise//EN" "http://www.musicxml.org/dtds/partwise.dtd">
<score-partwise version="2.0">
	<identification>
		<encoding>
			<encoding-date>2016-05-06</encoding-date>
			<software>CapToMusic.py CapXML to MusicXML converter version 1.37</software>
			<encoding-description>Options: FinaleDolet33=1, ChordCaseMatters=1, ExportToSibelius=0</encoding-description>
		</encoding>
	</identification>
	<defaults>
		<scaling>
			<millimeters>1.44</millimeters>
			<tenths>10.0</tenths>
		</scaling>
		<page-layout>
			<page-height>2062</page-height>
			<page-width>1458</page-width>
			<page-margins type="both">
				<left-margin>69</left-margin>
				<right-margin>69</right-margin>
				<top-margin>69</top-margin>
				<bottom-margin>69</bottom-margin>
			</page-margins>
		</page-layout>
		<system-layout>
			<system-margins>
				<left-margin>0</left-margin>
				<right-margin>0</right-margin>
			</system-margins>
			<system-distance>20</system-distance>
			<top-system-distance>40</top-system-distance>
		</system-layout>
	</defaults>
	<credit>
		<credit-words default-x="1387" default-y="1969" font-family="Times New Roman" font-size="8" justify="right">BWV 20-4 S.#</credit-words>
	</credit>
	<part-list>
		<part-group type="start" number="1">
			<group-symbol>bracket</group-symbol>
		</part-group>
		<score-part id="P1">
			<part-name>Basso.</part-name>
			<part-abbreviation></part-abbreviation>
			<score-instrument id="P1-I1">
				<instrument-name>Midi_71</instrument-name>
			</score-instrument>
			<midi-instrument id="P1-I1">
				<midi-channel>1</midi-channel>
				<midi-program>71</midi-program>
			</midi-instrument>
		</score-part>
		<score-part id="P2">
			<part-name>Continuo.</part-name>
			<part-abbreviation></part-abbreviation>
			<score-instrument id="P2-I1">
				<instrument-name>Midi_43</instrument-name>
			</score-instrument>
			<midi-instrument id="P2-I1">
				<midi-channel>2</midi-channel>
				<midi-program>43</midi-program>
			</midi-instrument>
		</score-part>
		<part-group type="stop" number="1"/>
	</part-list>
	<part id="P1">
		<measure number="1">
			<print>
				<system-layout>
					<system-margins>
						<left-margin>137</left-margin>
						<right-margin>0</right-margin>
					</system-margins>
					<top-system-distance>120</top-system-distance>
				</system-layout>
				<staff-layout number="1">
					<staff-distance>80</staff-distance>
				</staff-layout>
			</print>
			<attributes>
				<divisions>480</divisions>
				<key>
					<fifths>-1</fifths>
					<mode>major</mode>
				</key>
				<time symbol="common">
					<beats>4</beats>
					<beat-type>4</beat-type>
				</time>
				<clef>
					<sign>F</sign>
					<line>4</line>
				</clef>
			</attributes>
			<direction placement="above">
				<direction-type>
					<words relative-x="-48" default-y="31" font-family="Times New Roman" font-size="12" font-weight="bold">4. RECITATIVO.</words>
				</direction-type>
			</direction>
			<note>
				<rest>
					<display-step>D</display-step>
					<display-octave>3</display-octave>
				</rest>
				<duration>240</duration>
				<voice>1</voice>
				<type>eighth</type>
			</note>
			<note>
				<pitch>
					<step>A</step>
					<octave>3</octave>
				</pitch>
				<duration>240</duration>
				<voice>1</voice>
				<type>eighth</type>
				<lyric default-y="-75" number="1">
					<syllabic>begin</syllabic>
					<text>Ge</text>
				</lyric>
			</note>
			<note>
				<pitch>
					<step>D</step>
					<octave>4</octave>
				</pitch>
				<duration>240</duration>
				<voice>1</voice>
				<type>eighth</type>
				<lyric default-y="-75" number="1">
					<syllabic>end</syllabic>
					<text>setzt,</text>
				</lyric>
			</note>
			<note>
				<rest>
					<display-step>D</display-step>
					<display-octave>3</display-octave>
				</rest>
				<duration>120</duration>
				<voice>1</voice>
				<type>16th</type>
			</note>
			<note>
				<pitch>
					<step>D</step>
					<octave>3</octave>
				</pitch>
				<duration>120</duration>
				<voice>1</voice>
				<type>16th</type>
				<lyric default-y="-75" number="1">
					<syllabic>single</syllabic>
					<text>es</text>
				</lyric>
			</note>
			<note>
				<pitch>
					<step>C</step>
					<octave>4</octave>
				</pitch>
				<duration>120</duration>
				<voice>1</voice>
				<type>16th</type>
				<lyric default-y="-75" number="1">
					<syllabic>begin</syllabic>
					<text>dau'r</text>
				</lyric>
			</note>
			<note>
				<pitch>
					<step>C</step>
					<octave>4</octave>
				</pitch>
				<duration>120</duration>
				<voice>1</voice>
				<type>16th</type>
				<lyric default-y="-75" number="1">
					<syllabic>end</syllabic>
					<text>te</text>
				</lyric>
			</note>
			<note>
				<pitch>
					<step>C</step>
					<octave>4</octave>
				</pitch>
				<duration>120</duration>
				<voice>1</voice>
				<type>16th</type>
				<lyric default-y="-75" number="1">
					<syllabic>single</syllabic>
					<text>der</text>
				</lyric>
			</note>
			<note>
				<pitch>
					<step>A</step>
					<octave>3</octave>
				</pitch>
				<duration>120</duration>
				<voice>1</voice>
				<type>16th</type>
				<lyric default-y="-75" number="1">
					<syllabic>begin</syllabic>
					<text>Ver</text>
				</lyric>
			</note>
			<note>
				<pitch>
					<step>F</step>
					<alter>1</alter>
					<octave>3</octave>
				</pitch>
				<duration>240</duration>
				<voice>1</voice>
				<type>eighth</type>
				<accidental>sharp</accidental>
				<lyric default-y="-75" number="1">
					<syllabic>middle</syllabic>
					<text>damm</text>
				</lyric>
			</note>
			<note>
				<pitch>
					<step>D</step>
					<octave>3</octave>
				</pitch>
				<duration>240</duration>
				<voice>1</voice>
				<type>eighth</type>
				<lyric default-y="-75" number="1">
					<syllabic>end</syllabic>
					<text>ten</text>
				</lyric>
			</note>
		</measure>
		<measure number="2">
			<note>
				<pitch>
					<step>E</step>
					<alter>-1</alter>
					<octave>3</octave>
				</pitch>
				<duration>240</duration>
				<voice>1</voice>
				<type>eighth</type>
				<accidental>flat</accidental>
				<lyric default-y="-75" number="1">
					<syllabic>single</syllabic>
					<text>Qual</text>
				</lyric>
			</note>
			<note>
				<pitch>
					<step>C</step>
					<octave>3</octave>
				</pitch>
				<duration>240</duration>
				<voice>1</voice>
				<type>eighth</type>
				<lyric default-y="-75" number="1">
					<syllabic>single</syllabic>
					<text>so</text>
				</lyric>
			</note>
			<note>
				<pitch>
					<step>F</step>
					<alter>1</alter>
					<octave>3</octave>
				</pitch>
				<duration>360</duration>
				<voice>1</voice>
				<type>eighth</type>
				<dot/>
				<accidental>sharp</accidental>
				<lyric default-y="-75" number="1">
					<syllabic>begin</syllabic>
					<text>vie</text>
				</lyric>
			</note>
			<note>
				<pitch>
					<step>G</step>
					<octave>3</octave>
				</pitch>
				<duration>120</duration>
				<voice>1</voice>
				<type>16th</type>
				<lyric default-y="-75" number="1">
					<syllabic>end</syllabic>
					<text>le</text>
				</lyric>
			</note>
			<note>
				<pitch>
					<step>A</step>
					<octave>3</octave>
				</pitch>
				<duration>240</duration>
				<voice>1</voice>
				<type>eighth</type>
				<lyric default-y="-75" number="1">
					<syllabic>single</syllabic>
					<text>Jahr',</text>
				</lyric>
			</note>
			<note>
				<rest>
					<display-step>D</display-step>
					<display-octave>3</display-octave>
				</rest>
				<duration>120</duration>
				<voice>1</voice>
				<type>16th</type>
			</note>
			<direction placement="above">
				<direction-type>
					<words relative-x="257" default-y="76" font-family="Times New Roman" font-size="8">neu gesetzt: RS 01/16</words>
				</direction-type>
			</direction>
			<note>
				<pitch>
					<step>A</step>
					<octave>3</octave>
				</pitch>
				<duration>120</duration>
				<voice>1</voice>
				<type>16th</type>
				<lyric default-y="-75" number="1">
					<syllabic>single</syllabic>
					<text>als</text>
				</lyric>
			</note>
			<note>
				<pitch>
					<step>B</step>
					<alter>-1</alter>
					<octave>3</octave>
				</pitch>
				<duration>240</duration>
				<voice>1</voice>
				<type>eighth</type>
				<lyric default-y="-75" number="1">
					<syllabic>single</syllabic>
					<text>an</text>
				</lyric>
			</note>
			<note>
				<pitch>
					<step>C</step>
					<octave>4</octave>
				</pitch>
				<duration>240</duration>
				<voice>1</voice>
				<type>eighth</type>
				<lyric default-y="-75" number="1">
					<syllabic>single</syllabic>
					<text>der</text>
				</lyric>
			</note>
		</measure>
		<measure number="3">
			<note>
				<pitch>
					<step>D</step>
					<octave>4</octave>
				</pitch>
				<duration>240</duration>
				<voice>1</voice>
				<type>eighth</type>
				<lyric default-y="-75" number="1">
					<syllabic>single</syllabic>
					<text>Zahl</text>
				</lyric>
			</note>
			<note>
				<pitch>
					<step>F</step>
					<octave>3</octave>
				</pitch>
				<duration>240</duration>
				<voice>1</voice>
				<type>eighth</type>
				<accidental cautionary="yes">natural</accidental>
				<lyric default-y="-75" number="1">
					<syllabic>single</syllabic>
					<text>auf</text>
				</lyric>
			</note>
			<note>
				<pitch>
					<step>G</step>
					<octave>3</octave>
				</pitch>
				<duration>240</duration>
				<voice>1</voice>
				<type>eighth</type>
				<lyric default-y="-75" number="1">
					<syllabic>begin</syllabic>
					<text>Er</text>
				</lyric>
			</note>
			<note>
				<pitch>
					<step>D</step>
					<octave>3</octave>
				</pitch>
				<duration>240</duration>
				<voice>1</voice>
				<type>eighth</type>
				<lyric default-y="-75" number="1">
					<syllabic>end</syllabic>
					<text>den</text>
				</lyric>
			</note>
			<note>
				<pitch>
					<step>E</step>
					<alter>-1</alter>
					<octave>3</octave>
				</pitch>
				<duration>480</duration>
				<voice>1</voice>
				<type>quarter</type>
				<accidental>flat</accidental>
				<lyric default-y="-75" number="1">
					<syllabic>single</syllabic>
					<text>Gras,</text>
				</lyric>
			</note>
			<note>
				<rest>
					<display-step>D</display-step>
					<display-octave>3</display-octave>
				</rest>
				<duration>240</duration>
				<voice>1</voice>
				<type>eighth</type>
			</note>
			<note>
				<pitch>
					<step>G</step>
					<octave>3</octave>
				</pitch>
				<duration>240</duration>
				<voice>1</voice>
				<type>eighth</type>
				<lyric default-y="-75" number="1">
					<syllabic>single</syllabic>
					<text>am</text>
				</lyric>
			</note>
		</measure>
		<measure number="4">
			<print new-system="yes">
				<system-layout>
					<system-margins>
						<left-margin>0</left-margin>
						<right-margin>0</right-margin>
					</system-margins>
					<system-distance>120</system-distance>
				</system-layout>
				<staff-layout number="1">
					<staff-distance>50</staff-distance>
				</staff-layout>
			</print>
			<attributes>
				<time>
					<beats>4</beats>
					<beat-type>4</beat-type>
				</time>
			</attributes>
			<note>
				<pitch>
					<step>E</step>
					<alter>-1</alter>
					<octave>4</octave>
				</pitch>
				<duration>240</duration>
				<voice>1</voice>
				<type>eighth</type>
				<accidental>flat</accidental>
				<lyric default-y="-75" number="1">
					<syllabic>begin</syllabic>
					<text>Him</text>
				</lyric>
			</note>
			<note>
				<pitch>
					<step>C</step>
					<octave>4</octave>
				</pitch>
				<duration>240</duration>
				<voice>1</voice>
				<type>eighth</type>
				<lyric default-y="-75" number="1">
					<syllabic>end</syllabic>
					<text>mel</text>
				</lyric>
			</note>
			<note>
				<pitch>
					<step>A</step>
					<octave>3</octave>
				</pitch>
				<duration>240</duration>
				<voice>1</voice>
				<type>eighth</type>
				<lyric default-y="-75" number="1">
					<syllabic>begin</syllabic>
					<text>Ster</text>
				</lyric>
			</note>
			<note>
				<pitch>
					<step>D</step>
					<octave>4</octave>
				</pitch>
				<duration>240</duration>
				<voice>1</voice>
				<type>eighth</type>
				<lyric default-y="-75" number="1">
					<syllabic>end</syllabic>
					<text>ne</text>
				</lyric>
			</note>
			<note>
				<pitch>
					<step>B</step>
					<alter>-1</alter>
					<octave>3</octave>
				</pitch>
				<duration>240</duration>
				<voice>1</voice>
				<type>eighth</type>
				<lyric default-y="-75" number="1">
					<syllabic>begin</syllabic>
					<text>wä</text>
				</lyric>
			</note>
			<note>
				<pitch>
					<step>B</step>
					<alter>-1</alter>
					<octave>3</octave>
				</pitch>
				<duration>240</duration>
				<voice>1</voice>
				<type>eighth</type>
				<lyric default-y="-75" number="1">
					<syllabic>end</syllabic>
					<text>ren;</text>
				</lyric>
			</note>
			<note>
				<rest>
					<display-step>D</display-step>
					<display-octave>3</display-octave>
				</rest>
				<duration>240</duration>
				<voice>1</voice>
				<type>eighth</type>
			</note>
			<note>
				<pitch>
					<step>D</step>
					<octave>3</octave>
				</pitch>
				<duration>240</duration>
				<voice>1</voice>
				<type>eighth</type>
				<lyric default-y="-75" number="1">
					<syllabic>begin</syllabic>
					<text>ge</text>
				</lyric>
			</note>
		</measure>
		<measure number="5">
			<note>
				<pitch>
					<step>G</step>
					<octave>3</octave>
				</pitch>
				<duration>240</duration>
				<voice>1</voice>
				<type>eighth</type>
				<lyric default-y="-75" number="1">
					<syllabic>end</syllabic>
					<text>setzt,</text>
				</lyric>
			</note>
			<note>
				<rest>
					<display-step>D</display-step>
					<display-octave>3</display-octave>
				</rest>
				<duration>120</duration>
				<voice>1</voice>
				<type>16th</type>
			</note>
			<note>
				<pitch>
					<step>G</step>
					<octave>3</octave>
				</pitch>
				<duration>120</duration>
				<voice>1</voice>
				<type>16th</type>
				<lyric default-y="-75" number="1">
					<syllabic>single</syllabic>
					<text>es</text>
				</lyric>
			</note>
			<note>
				<pitch>
					<step>G</step>
					<octave>3</octave>
				</pitch>
				<duration>240</duration>
				<voice>1</voice>
				<type>eighth</type>
				<lyric default-y="-75" number="1">
					<syllabic>single</syllabic>
					<text>sei</text>
				</lyric>
			</note>
			<note>
				<pitch>
					<step>A</step>
					<octave>3</octave>
				</pitch>
				<duration>240</duration>
				<voice>1</voice>
				<type>eighth</type>
				<lyric default-y="-75" number="1">
					<syllabic>single</syllabic>
					<text>die</text>
				</lyric>
			</note>
			<note>
				<pitch>
					<step>B</step>
					<alter>-1</alter>
					<octave>3</octave>
				</pitch>
				<duration>240</duration>
				<voice>1</voice>
				<type>eighth</type>
				<lyric default-y="-75" number="1">
					<syllabic>single</syllabic>
					<text>Pein</text>
				</lyric>
			</note>
			<note>
				<rest>
					<display-step>D</display-step>
					<display-octave>3</display-octave>
				</rest>
				<duration>120</duration>
				<voice>1</voice>
				<type>16th</type>
			</note>
			<note>
				<pitch>
					<step>B</step>
					<alter>-1</alter>
					<octave>2</octave>
				</pitch>
				<duration>120</duration>
				<voice>1</voice>
				<type>16th</type>
				<lyric default-y="-75" number="1">
					<syllabic>single</syllabic>
					<text>so</text>
				</lyric>
			</note>
			<note>
				<pitch>
					<step>B</step>
					<alter>-1</alter>
					<octave>3</octave>
				</pitch>
				<duration>120</duration>
				<voice>1</voice>
				<type>16th</type>
				<lyric default-y="-75" number="1">
					<syllabic>single</syllabic>
					<text>weit</text>
				</lyric>
			</note>
			<note>
				<pitch>
					<step>C</step>
					<octave>4</octave>
				</pitch>
				<duration>120</duration>
				<voice>1</voice>
				<type>16th</type>
				<lyric default-y="-75" number="1">
					<syllabic>begin</syllabic>
					<text>hin</text>
				</lyric>
			</note>
			<note>
				<pitch>
					<step>D</step>
					<alter>-1</alter>
					<octave>4</octave>
				</pitch>
				<duration>120</duration>
				<voice>1</voice>
				<type>16th</type>
				<accidental>flat</accidental>
				<lyric default-y="-75" number="1">
					<syllabic>end</syllabic>
					<text>aus</text>
				</lyric>
			</note>
			<note>
				<pitch>
					<step>G</step>
					<octave>3</octave>
				</pitch>
				<duration>120</duration>
				<voice>1</voice>
				<type>16th</type>
				<lyric default-y="-75" number="1">
					<syllabic>begin</syllabic>
					<text>ge</text>
				</lyric>
			</note>
		</measure>
		<measure number="6">
			<note>
				<pitch>
					<step>C</step>
					<octave>4</octave>
				</pitch>
				<duration>240</duration>
				<voice>1</voice>
				<type>eighth</type>
				<lyric default-y="-75" number="1">
					<syllabic>end</syllabic>
					<text>stellt,</text>
				</lyric>
			</note>
			<note>
				<rest>
					<display-step>D</display-step>
					<display-octave>3</display-octave>
				</rest>
				<duration>120</duration>
				<voice>1</voice>
				<type>16th</type>
			</note>
			<note>
				<pitch>
					<step>G</step>
					<octave>3</octave>
				</pitch>
				<duration>120</duration>
				<voice>1</voice>
				<type>16th</type>
				<lyric default-y="-75" number="1">
					<syllabic>single</syllabic>
					<text>als</text>
				</lyric>
			</note>
			<note>
				<pitch>
					<step>E</step>
					<octave>3</octave>
				</pitch>
				<duration>120</duration>
				<voice>1</voice>
				<type>16th</type>
				<lyric default-y="-75" number="1">
					<syllabic>begin</syllabic>
					<text>Men</text>
				</lyric>
			</note>
			<note>
				<pitch>
					<step>E</step>
					<octave>3</octave>
				</pitch>
				<duration>120</duration>
				<voice>1</voice>
				<type>16th</type>
				<lyric default-y="-75" number="1">
					<syllabic>end</syllabic>
					<text>schen</text>
				</lyric>
			</note>
			<note>
				<pitch>
					<step>G</step>
					<octave>3</octave>
				</pitch>
				<duration>120</duration>
				<voice>1</voice>
				<type>16th</type>
				<lyric default-y="-75" number="1">
					<syllabic>single</syllabic>
					<text>in</text>
				</lyric>
			</note>
			<note>
				<pitch>
					<step>E</step>
					<octave>3</octave>
				</pitch>
				<duration>120</duration>
				<voice>1</voice>
				<type>16th</type>
				<lyric default-y="-75" number="1">
					<syllabic>single</syllabic>
					<text>der</text>
				</lyric>
			</note>
			<note>
				<pitch>
					<step>C</step>
					<octave>3</octave>
				</pitch>
				<duration>240</duration>
				<voice>1</voice>
				<type>eighth</type>
				<lyric default-y="-75" number="1">
					<syllabic>single</syllabic>
					<text>Welt</text>
				</lyric>
			</note>
			<note>
				<rest>
					<display-step>D</display-step>
					<display-octave>3</display-octave>
				</rest>
				<duration>120</duration>
				<voice>1</voice>
				<type>16th</type>
			</note>
			<note>
				<pitch>
					<step>C</step>
					<octave>3</octave>
				</pitch>
				<duration>120</duration>
				<voice>1</voice>
				<type>16th</type>
				<lyric default-y="-75" number="1">
					<syllabic>single</syllabic>
					<text>von</text>
				</lyric>
			</note>
			<note>
				<pitch>
					<step>B</step>
					<alter>-1</alter>
					<octave>3</octave>
				</pitch>
				<duration>120</duration>
				<voice>1</voice>
				<type>16th</type>
				<lyric default-y="-75" number="1">
					<syllabic>begin</syllabic>
					<text>An</text>
				</lyric>
			</note>
			<note>
				<pitch>
					<step>B</step>
					<alter>-1</alter>
					<octave>3</octave>
				</pitch>
				<duration>120</duration>
				<voice>1</voice>
				<type>16th</type>
				<lyric default-y="-75" number="1">
					<syllabic>middle</syllabic>
					<text>be</text>
				</lyric>
			</note>
			<note>
				<pitch>
					<step>C</step>
					<octave>4</octave>
				</pitch>
				<duration>120</duration>
				<voice>1</voice>
				<type>16th</type>
				<lyric default-y="-75" number="1">
					<syllabic>end</syllabic>
					<text>ginn</text>
				</lyric>
			</note>
			<note>
				<pitch>
					<step>G</step>
					<octave>3</octave>
				</pitch>
				<duration>120</duration>
				<voice>1</voice>
				<type>16th</type>
				<lyric default-y="-75" number="1">
					<syllabic>begin</syllabic>
					<text>ge</text>
				</lyric>
			</note>
		</measure>
		<measure number="7">
			<print new-system="yes">
				<system-layout>
					<system-margins>
						<left-margin>0</left-margin>
						<right-margin>0</right-margin>
					</system-margins>
					<system-distance>100</system-distance>
				</system-layout>
				<staff-layout number="1">
					<staff-distance>40</staff-distance>
				</staff-layout>
			</print>
			<note>
				<pitch>
					<step>A</step>
					<alter>-1</alter>
					<octave>3</octave>
				</pitch>
				<duration>240</duration>
				<voice>1</voice>
				<type>eighth</type>
				<accidental>flat</accidental>
				<lyric default-y="-75" number="1">
					<syllabic>middle</syllabic>
					<text>we</text>
				</lyric>
			</note>
			<note>
				<pitch>
					<step>A</step>
					<alter>-1</alter>
					<octave>3</octave>
				</pitch>
				<duration>240</duration>
				<voice>1</voice>
				<type>eighth</type>
				<lyric default-y="-75" number="1">
					<syllabic>end</syllabic>
					<text>sen,</text>
				</lyric>
			</note>
			<note>
				<rest>
					<display-step>D</display-step>
					<display-octave>3</display-octave>
				</rest>
				<duration>240</duration>
				<voice>1</voice>
				<type>eighth</type>
			</note>
			<note>
				<pitch>
					<step>C</step>
					<octave>4</octave>
				</pitch>
				<duration>240</duration>
				<voice>1</voice>
				<type>eighth</type>
				<lyric default-y="-75" number="1">
					<syllabic>single</syllabic>
					<text>so</text>
				</lyric>
			</note>
			<note>
				<pitch>
					<step>A</step>
					<alter>-1</alter>
					<octave>3</octave>
				</pitch>
				<duration>240</duration>
				<voice>1</voice>
				<type>eighth</type>
				<lyric default-y="-75" number="1">
					<syllabic>begin</syllabic>
					<text>wä</text>
				</lyric>
			</note>
			<note>
				<pitch>
					<step>A</step>
					<alter>-1</alter>
					<octave>3</octave>
				</pitch>
				<duration>240</duration>
				<voice>1</voice>
				<type>eighth</type>
				<lyric default-y="-75" number="1">
					<syllabic>end</syllabic>
					<text>re</text>
				</lyric>
			</note>
			<note>
				<pitch>
					<step>F</step>
					<octave>3</octave>
				</pitch>
				<duration>240</duration>
				<voice>1</voice>
				<type>eighth</type>
				<lyric default-y="-75" number="1">
					<syllabic>single</syllabic>
					<text>doch</text>
				</lyric>
			</note>
			<note>
				<pitch>
					<step>D</step>
					<octave>3</octave>
				</pitch>
				<duration>240</duration>
				<voice>1</voice>
				<type>eighth</type>
				<lyric default-y="-75" number="1">
					<syllabic>begin</syllabic>
					<text>zu</text>
				</lyric>
			</note>
		</measure>
		<measure number="8">
			<note>
				<pitch>
					<step>B</step>
					<octave>2</octave>
				</pitch>
				<duration>240</duration>
				<voice>1</voice>
				<type>eighth</type>
				<accidental>natural</accidental>
				<lyric default-y="-75" number="1">
					<syllabic>end</syllabic>
					<text>letzt</text>
				</lyric>
			</note>
			<note>
				<rest>
					<display-step>D</display-step>
					<display-octave>3</display-octave>
				</rest>
				<duration>120</duration>
				<voice>1</voice>
				<type>16th</type>
			</note>
			<note>
				<pitch>
					<step>D</step>
					<octave>3</octave>
				</pitch>
				<duration>120</duration>
				<voice>1</voice>
				<type>16th</type>
				<lyric default-y="-75" number="1">
					<syllabic>begin</syllabic>
					<text>der</text>
				</lyric>
			</note>
			<note>
				<pitch>
					<step>G</step>
					<octave>3</octave>
				</pitch>
				<duration>240</duration>
				<voice>1</voice>
				<type>eighth</type>
				<lyric default-y="-75" number="1">
					<syllabic>middle</syllabic>
					<text>sel</text>
				</lyric>
			</note>
			<note>
				<pitch>
					<step>A</step>
					<octave>3</octave>
				</pitch>
				<duration>240</duration>
				<voice>1</voice>
				<type>eighth</type>
				<accidental cautionary="yes">natural</accidental>
				<lyric default-y="-75" number="1">
					<syllabic>end</syllabic>
					<text>ben</text>
				</lyric>
			</note>
			<note>
				<pitch>
					<step>B</step>
					<octave>3</octave>
				</pitch>
				<duration>240</duration>
				<voice>1</voice>
				<type>eighth</type>
				<accidental>natural</accidental>
				<lyric default-y="-75" number="1">
					<syllabic>single</syllabic>
					<text>Ziel</text>
				</lyric>
			</note>
			<note>
				<pitch>
					<step>B</step>
					<octave>3</octave>
				</pitch>
				<duration>240</duration>
				<voice>1</voice>
				<type>eighth</type>
				<lyric default-y="-75" number="1">
					<syllabic>single</syllabic>
					<text>und</text>
				</lyric>
			</note>
			<note>
				<pitch>
					<step>D</step>
					<octave>4</octave>
				</pitch>
				<duration>240</duration>
				<voice>1</voice>
				<type>eighth</type>
				<lyric default-y="-75" number="1">
					<syllabic>single</syllabic>
					<text>Maass</text>
				</lyric>
			</note>
			<note>
				<pitch>
					<step>G</step>
					<octave>3</octave>
				</pitch>
				<duration>240</duration>
				<voice>1</voice>
				<type>eighth</type>
				<lyric default-y="-75" number="1">
					<syllabic>begin</syllabic>
					<text>ge</text>
				</lyric>
			</note>
		</measure>
		<measure number="9">
			<note>
				<pitch>
					<step>C</step>
					<octave>4</octave>
				</pitch>
				<duration>240</duration>
				<voice>1</voice>
				<type>eighth</type>
				<lyric default-y="-75" number="1">
					<syllabic>end</syllabic>
					<text>setzt,</text>
				</lyric>
			</note>
			<note>
				<rest>
					<display-step>D</display-step>
					<display-octave>3</display-octave>
				</rest>
				<duration>120</duration>
				<voice>1</voice>
				<type>16th</type>
			</note>
			<note>
				<pitch>
					<step>G</step>
					<octave>3</octave>
				</pitch>
				<duration>120</duration>
				<voice>1</voice>
				<type>16th</type>
				<lyric default-y="-75" number="1">
					<syllabic>single</syllabic>
					<text>sie</text>
				</lyric>
			</note>
			<note>
				<pitch>
					<step>E</step>
					<alter>-1</alter>
					<octave>3</octave>
				</pitch>
				<duration>240</duration>
				<voice>1</voice>
				<type>eighth</type>
				<accidental>flat</accidental>
				<lyric default-y="-75" number="1">
					<syllabic>begin</syllabic>
					<text>müs</text>
				</lyric>
			</note>
			<note>
				<pitch>
					<step>C</step>
					<octave>3</octave>
				</pitch>
				<duration>240</duration>
				<voice>1</voice>
				<type>eighth</type>
				<lyric default-y="-75" number="1">
					<syllabic>end</syllabic>
					<text>ste</text>
				</lyric>
			</note>
			<note>
				<pitch>
					<step>A</step>
					<alter>-1</alter>
					<octave>3</octave>
				</pitch>
				<duration>240</duration>
				<voice>1</voice>
				<type>eighth</type>
				<accidental>flat</accidental>
				<lyric default-y="-75" number="1">
					<syllabic>single</syllabic>
					<text>doch</text>
				</lyric>
			</note>
			<note>
				<pitch>
					<step>G</step>
					<octave>3</octave>
				</pitch>
				<duration>240</duration>
				<voice>1</voice>
				<type>eighth</type>
				<lyric default-y="-75" number="1">
					<syllabic>begin</syllabic>
					<text>ein</text>
				</lyric>
			</note>
			<note>
				<pitch>
					<step>F</step>
					<octave>3</octave>
				</pitch>
				<duration>240</duration>
				<voice>1</voice>
				<type>eighth</type>
				<lyric default-y="-75" number="1">
					<syllabic>end</syllabic>
					<text>mal</text>
				</lyric>
			</note>
			<note>
				<pitch>
					<step>E</step>
					<alter>-1</alter>
					<octave>3</octave>
				</pitch>
				<duration>240</duration>
				<voice>1</voice>
				<type>eighth</type>
				<lyric default-y="-75" number="1">
					<syllabic>begin</syllabic>
					<text>auf</text>
				</lyric>
			</note>
		</measure>
		<measure number="10">
			<print new-system="yes">
				<system-layout>
					<system-margins>
						<left-margin>0</left-margin>
						<right-margin>0</right-margin>
					</system-margins>
					<system-distance>120</system-distance>
				</system-layout>
				<staff-layout number="1">
					<staff-distance>50</staff-distance>
				</staff-layout>
			</print>
			<note>
				<pitch>
					<step>C</step>
					<octave>3</octave>
				</pitch>
				<duration>240</duration>
				<voice>1</voice>
				<type>eighth</type>
				<lyric default-y="-75" number="1">
					<syllabic>middle</syllabic>
					<text>hö</text>
				</lyric>
			</note>
			<note>
				<pitch>
					<step>C</step>
					<octave>3</octave>
				</pitch>
				<duration>240</duration>
				<voice>1</voice>
				<type>eighth</type>
				<lyric default-y="-75" number="1">
					<syllabic>end</syllabic>
					<text>ren.</text>
				</lyric>
			</note>
			<note>
				<rest>
					<display-step>D</display-step>
					<display-octave>3</display-octave>
				</rest>
				<duration>480</duration>
				<voice>1</voice>
				<type>quarter</type>
			</note>
			<note>
				<rest>
					<display-step>D</display-step>
					<display-octave>3</display-octave>
				</rest>
				<duration>480</duration>
				<voice>1</voice>
				<type>quarter</type>
			</note>
			<note>
				<rest>
					<display-step>D</display-step>
					<display-octave>3</display-octave>
				</rest>
				<duration>240</duration>
				<voice>1</voice>
				<type>eighth</type>
			</note>
			<note>
				<pitch>
					<step>C</step>
					<octave>4</octave>
				</pitch>
				<duration>240</duration>
				<voice>1</voice>
				<type>eighth</type>
				<lyric default-y="-75" number="1">
					<syllabic>single</syllabic>
					<text>Nun</text>
				</lyric>
			</note>
		</measure>
		<measure number="11">
			<note>
				<pitch>
					<step>C</step>
					<octave>4</octave>
				</pitch>
				<duration>240</duration>
				<voice>1</voice>
				<type>eighth</type>
				<lyric default-y="-75" number="1">
					<syllabic>begin</syllabic>
					<text>a</text>
				</lyric>
			</note>
			<note>
				<pitch>
					<step>F</step>
					<alter>1</alter>
					<octave>3</octave>
				</pitch>
				<duration>240</duration>
				<voice>1</voice>
				<type>eighth</type>
				<accidental>sharp</accidental>
				<lyric default-y="-75" number="1">
					<syllabic>end</syllabic>
					<text>ber,</text>
				</lyric>
			</note>
			<note>
				<pitch>
					<step>F</step>
					<alter>1</alter>
					<octave>3</octave>
				</pitch>
				<duration>240</duration>
				<voice>1</voice>
				<type>eighth</type>
				<lyric default-y="-75" number="1">
					<syllabic>single</syllabic>
					<text>wenn</text>
				</lyric>
			</note>
			<note>
				<pitch>
					<step>G</step>
					<octave>3</octave>
				</pitch>
				<duration>240</duration>
				<voice>1</voice>
				<type>eighth</type>
				<lyric default-y="-75" number="1">
					<syllabic>single</syllabic>
					<text>du</text>
				</lyric>
			</note>
			<note>
				<pitch>
					<step>A</step>
					<octave>3</octave>
				</pitch>
				<duration>240</duration>
				<voice>1</voice>
				<type>eighth</type>
				<lyric default-y="-75" number="1">
					<syllabic>single</syllabic>
					<text>die</text>
				</lyric>
			</note>
			<note>
				<pitch>
					<step>D</step>
					<octave>3</octave>
				</pitch>
				<duration>240</duration>
				<voice>1</voice>
				<type>eighth</type>
				<lyric default-y="-75" number="1">
					<syllabic>begin</syllabic>
					<text>Ge</text>
				</lyric>
			</note>
			<note>
				<pitch>
					<step>E</step>
					<alter>-1</alter>
					<octave>3</octave>
				</pitch>
				<duration>240</duration>
				<voice>1</voice>
				<type>eighth</type>
				<accidental>flat</accidental>
				<lyric default-y="-75" number="1">
					<syllabic>end</syllabic>
					<text>fahr,</text>
				</lyric>
			</note>
			<note>
				<rest>
					<display-step>D</display-step>
					<display-octave>3</display-octave>
				</rest>
				<duration>120</duration>
				<voice>1</voice>
				<type>16th</type>
			</note>
			<note>
				<pitch>
					<step>E</step>
					<alter>-1</alter>
					<octave>3</octave>
				</pitch>
				<duration>120</duration>
				<voice>1</voice>
				<type>16th</type>
				<lyric default-y="-75" number="1">
					<syllabic>begin</syllabic>
					<text>Ver</text>
				</lyric>
			</note>
		</measure>
		<measure number="12">
			<note>
				<pitch>
					<step>E</step>
					<alter>-1</alter>
					<octave>4</octave>
				</pitch>
				<duration>240</duration>
				<voice>1</voice>
				<type>eighth</type>
				<accidental>flat</accidental>
				<lyric default-y="-75" number="1">
					<syllabic>middle</syllabic>
					<text>damm</text>
				</lyric>
			</note>
			<note>
				<pitch>
					<step>E</step>
					<alter>-1</alter>
					<octave>4</octave>
				</pitch>
				<duration>240</duration>
				<voice>1</voice>
				<type>eighth</type>
				<lyric default-y="-75" number="1">
					<syllabic>end</syllabic>
					<text>ter,</text>
				</lyric>
			</note>
			<note>
				<pitch>
					<step>F</step>
					<alter>1</alter>
					<octave>3</octave>
				</pitch>
				<duration>240</duration>
				<voice>1</voice>
				<type>eighth</type>
				<accidental>sharp</accidental>
				<lyric default-y="-75" number="1">
					<syllabic>begin</syllabic>
					<text>tau</text>
				</lyric>
			</note>
			<note>
				<pitch>
					<step>G</step>
					<octave>3</octave>
				</pitch>
				<duration>240</duration>
				<voice>1</voice>
				<type>eighth</type>
				<lyric default-y="-75" number="1">
					<syllabic>end</syllabic>
					<text>send</text>
				</lyric>
			</note>
			<note>
				<pitch>
					<step>A</step>
					<octave>3</octave>
				</pitch>
				<duration>240</duration>
				<voice>1</voice>
				<type>eighth</type>
				<lyric default-y="-75" number="1">
					<syllabic>begin</syllabic>
					<text>Mil</text>
				</lyric>
			</note>
			<note>
				<pitch>
					<step>A</step>
					<octave>3</octave>
				</pitch>
				<duration>240</duration>
				<voice>1</voice>
				<type>eighth</type>
				<lyric default-y="-75" number="1">
					<syllabic>middle</syllabic>
					<text>li</text>
				</lyric>
			</note>
			<note>
				<pitch>
					<step>G</step>
					<octave>3</octave>
				</pitch>
				<duration>240</duration>
				<voice>1</voice>
				<type>eighth</type>
				<lyric default-y="-75" number="1">
					<syllabic>middle</syllabic>
					<text>o</text>
				</lyric>
			</note>
			<note>
				<pitch>
					<step>F</step>
					<alter>1</alter>
					<octave>3</octave>
				</pitch>
				<duration>240</duration>
				<voice>1</voice>
				<type>eighth</type>
				<lyric default-y="-75" number="1">
					<syllabic>end</syllabic>
					<text>nen</text>
				</lyric>
			</note>
		</measure>
		<measure number="13">
			<print new-system="yes">
				<system-layout>
					<system-margins>
						<left-margin>0</left-margin>
						<right-margin>0</right-margin>
					</system-margins>
					<system-distance>120</system-distance>
				</system-layout>
				<staff-layout number="1">
					<staff-distance>50</staff-distance>
				</staff-layout>
			</print>
			<note>
				<pitch>
					<step>B</step>
					<octave>3</octave>
				</pitch>
				<duration>240</duration>
				<voice>1</voice>
				<type>eighth</type>
				<accidental>natural</accidental>
				<lyric default-y="-70" number="1">
					<syllabic>single</syllabic>
					<text>Jahr</text>
				</lyric>
			</note>
			<note>
				<rest>
					<display-step>D</display-step>
					<display-octave>3</display-octave>
				</rest>
				<duration>120</duration>
				<voice>1</voice>
				<type>16th</type>
			</note>
			<note>
				<pitch>
					<step>B</step>
					<octave>3</octave>
				</pitch>
				<duration>120</duration>
				<voice>1</voice>
				<type>16th</type>
				<lyric default-y="-70" number="1">
					<syllabic>single</syllabic>
					<text>mit</text>
				</lyric>
			</note>
			<note>
				<pitch>
					<step>B</step>
					<octave>3</octave>
				</pitch>
				<duration>240</duration>
				<voice>1</voice>
				<type>eighth</type>
				<lyric default-y="-70" number="1">
					<syllabic>begin</syllabic>
					<text>al</text>
				</lyric>
			</note>
			<note>
				<pitch>
					<step>F</step>
					<alter>1</alter>
					<octave>3</octave>
				</pitch>
				<duration>240</duration>
				<voice>1</voice>
				<type>eighth</type>
				<accidental>sharp</accidental>
				<lyric default-y="-70" number="1">
					<syllabic>end</syllabic>
					<text>len</text>
				</lyric>
			</note>
			<note>
				<pitch>
					<step>D</step>
					<alter>1</alter>
					<octave>3</octave>
				</pitch>
				<duration>240</duration>
				<voice>1</voice>
				<type>eighth</type>
				<accidental>sharp</accidental>
				<lyric default-y="-70" number="1">
					<syllabic>begin</syllabic>
					<text>Teu</text>
				</lyric>
			</note>
			<note>
				<pitch>
					<step>D</step>
					<alter>1</alter>
					<octave>3</octave>
				</pitch>
				<duration>240</duration>
				<voice>1</voice>
				<type>eighth</type>
				<lyric default-y="-70" number="1">
					<syllabic>end</syllabic>
					<text>feln</text>
				</lyric>
			</note>
			<note>
				<pitch>
					<step>C</step>
					<octave>4</octave>
				</pitch>
				<duration>240</duration>
				<voice>1</voice>
				<type>eighth</type>
				<lyric default-y="-70" number="1">
					<syllabic>begin</syllabic>
					<text>aus</text>
				</lyric>
			</note>
			<note>
				<pitch>
					<step>B</step>
					<octave>3</octave>
				</pitch>
				<duration>240</duration>
				<voice>1</voice>
				<type>eighth</type>
				<lyric default-y="-70" number="1">
					<syllabic>middle</syllabic>
					<text>ge</text>
				</lyric>
			</note>
		</measure>
		<measure number="14">
			<note>
				<pitch>
					<step>G</step>
					<octave>3</octave>
				</pitch>
				<duration>240</duration>
				<voice>1</voice>
				<type>eighth</type>
				<lyric default-y="-70" number="1">
					<syllabic>middle</syllabic>
					<text>stan</text>
				</lyric>
			</note>
			<note>
				<pitch>
					<step>G</step>
					<octave>3</octave>
				</pitch>
				<duration>240</duration>
				<voice>1</voice>
				<type>eighth</type>
				<lyric default-y="-70" number="1">
					<syllabic>end</syllabic>
					<text>den,</text>
				</lyric>
			</note>
			<note>
				<rest>
					<display-step>D</display-step>
					<display-octave>3</display-octave>
				</rest>
				<duration>120</duration>
				<voice>1</voice>
				<type>16th</type>
			</note>
			<note>
				<pitch>
					<step>E</step>
					<octave>3</octave>
				</pitch>
				<duration>120</duration>
				<voice>1</voice>
				<type>16th</type>
				<lyric default-y="-70" number="1">
					<syllabic>single</syllabic>
					<text>so</text>
				</lyric>
			</note>
			<note>
				<pitch>
					<step>G</step>
					<octave>3</octave>
				</pitch>
				<duration>120</duration>
				<voice>1</voice>
				<type>16th</type>
				<lyric default-y="-70" number="1">
					<syllabic>single</syllabic>
					<text>ist</text>
				</lyric>
			</note>
			<note>
				<pitch>
					<step>B</step>
					<octave>3</octave>
				</pitch>
				<duration>120</duration>
				<voice>1</voice>
				<type>16th</type>
				<accidental>natural</accidental>
				<lyric default-y="-70" number="1">
					<syllabic>single</syllabic>
					<text>doch</text>
				</lyric>
			</note>
			<note>
				<pitch>
					<step>D</step>
					<octave>4</octave>
				</pitch>
				<duration>240</duration>
				<voice>1</voice>
				<type>eighth</type>
				<lyric default-y="-70" number="1">
					<syllabic>single</syllabic>
					<text>nie</text>
				</lyric>
			</note>
			<note>
				<pitch>
					<step>B</step>
					<octave>3</octave>
				</pitch>
				<duration>240</duration>
				<voice>1</voice>
				<type>eighth</type>
				<lyric default-y="-70" number="1">
					<syllabic>single</syllabic>
					<text>der</text>
				</lyric>
			</note>
			<note>
				<pitch>
					<step>G</step>
					<alter>1</alter>
					<octave>3</octave>
				</pitch>
				<duration>360</duration>
				<voice>1</voice>
				<type>eighth</type>
				<dot/>
				<accidental>sharp</accidental>
				<lyric default-y="-70" number="1">
					<syllabic>single</syllabic>
					<text>Schluss</text>
				</lyric>
			</note>
			<note>
				<pitch>
					<step>B</step>
					<octave>3</octave>
				</pitch>
				<duration>120</duration>
				<voice>1</voice>
				<type>16th</type>
				<lyric default-y="-70" number="1">
					<syllabic>begin</syllabic>
					<text>vor</text>
				</lyric>
			</note>
		</measure>
		<measure number="15">
			<note>
				<pitch>
					<step>C</step>
					<octave>4</octave>
				</pitch>
				<duration>240</duration>
				<voice>1</voice>
				<type>eighth</type>
				<lyric default-y="-70" number="1">
					<syllabic>middle</syllabic>
					<text>han</text>
				</lyric>
			</note>
			<note>
				<pitch>
					<step>C</step>
					<octave>4</octave>
				</pitch>
				<duration>240</duration>
				<voice>1</voice>
				<type>eighth</type>
				<lyric default-y="-70" number="1">
					<syllabic>end</syllabic>
					<text>den;</text>
				</lyric>
			</note>
			<note>
				<rest>
					<display-step>D</display-step>
					<display-octave>3</display-octave>
				</rest>
				<duration>240</duration>
				<voice>1</voice>
				<type>eighth</type>
			</note>
			<note>
				<pitch>
					<step>C</step>
					<octave>4</octave>
				</pitch>
				<duration>240</duration>
				<voice>1</voice>
				<type>eighth</type>
				<beam number="1">begin</beam>
				<lyric default-y="-70" number="1">
					<syllabic>single</syllabic>
					<text>die</text>
				</lyric>
			</note>
			<note>
				<grace slash="no" steal-time-previous="2"/>
				<pitch>
					<step>G</step>
					<octave>3</octave>
				</pitch>
				<voice>1</voice>
				<type>eighth</type>
				<stem>up</stem>
				<beam number="1">end</beam>
				<notations>
					<slur number="1" type="start"/>
				</notations>
				<lyric default-y="-70" number="1">
					<syllabic>single</syllabic>
					<text>Zeit,</text>
				</lyric>
			</note>
			<note>
				<pitch>
					<step>F</step>
					<alter>1</alter>
					<octave>3</octave>
				</pitch>
				<duration>240</duration>
				<voice>1</voice>
				<type>eighth</type>
				<accidental>sharp</accidental>
				<notations>
					<slur number="1" type="stop"/>
				</notations>
			</note>
			<note>
				<rest>
					<display-step>D</display-step>
					<display-octave>3</display-octave>
				</rest>
				<duration>120</duration>
				<voice>1</voice>
				<type>16th</type>
			</note>
			<note>
				<pitch>
					<step>G</step>
					<octave>3</octave>
				</pitch>
				<duration>120</duration>
				<voice>1</voice>
				<type>16th</type>
				<lyric default-y="-70" number="1">
					<syllabic>single</syllabic>
					<text>so</text>
				</lyric>
			</note>
			<note>
				<pitch>
					<step>A</step>
					<octave>3</octave>
				</pitch>
				<duration>120</duration>
				<voice>1</voice>
				<type>16th</type>
				<lyric default-y="-70" number="1">
					<syllabic>begin</syllabic>
					<text>Nie</text>
				</lyric>
			</note>
			<note>
				<pitch>
					<step>C</step>
					<octave>3</octave>
				</pitch>
				<duration>120</duration>
				<voice>1</voice>
				<type>16th</type>
				<lyric default-y="-70" number="1">
					<syllabic>end</syllabic>
					<text>mand</text>
				</lyric>
			</note>
			<note>
				<pitch>
					<step>E</step>
					<alter>-1</alter>
					<octave>3</octave>
				</pitch>
				<duration>120</duration>
				<voice>1</voice>
				<type>16th</type>
				<accidental>flat</accidental>
				<lyric default-y="-70" number="1">
					<syllabic>begin</syllabic>
					<text>zäh</text>
				</lyric>
			</note>
			<note>
				<pitch>
					<step>D</step>
					<octave>3</octave>
				</pitch>
				<duration>120</duration>
				<voice>1</voice>
				<type>16th</type>
				<lyric default-y="-70" number="1">
					<syllabic>end</syllabic>
					<text>len</text>
				</lyric>
			</note>
		</measure>
		<measure number="16">
			<print new-system="yes">
				<system-layout>
					<system-margins>
						<left-margin>0</left-margin>
						<right-margin>0</right-margin>
					</system-margins>
					<system-distance>120</system-distance>
				</system-layout>
				<staff-layout number="1">
					<staff-distance>50</staff-distance>
				</staff-layout>
			</print>
			<note>
				<pitch>
					<step>B</step>
					<alter>-1</alter>
					<octave>2</octave>
				</pitch>
				<duration>240</duration>
				<voice>1</voice>
				<type>eighth</type>
				<lyric default-y="-75" number="1">
					<syllabic>single</syllabic>
					<text>kann,</text>
				</lyric>
			</note>
			<note>
				<rest>
					<display-step>D</display-step>
					<display-octave>3</display-octave>
				</rest>
				<duration>120</duration>
				<voice>1</voice>
				<type>16th</type>
			</note>
			<note>
				<pitch>
					<step>D</step>
					<octave>3</octave>
				</pitch>
				<duration>120</duration>
				<voice>1</voice>
				<type>16th</type>
				<lyric default-y="-75" number="1">
					<syllabic>single</syllabic>
					<text>fängt</text>
				</lyric>
			</note>
			<note>
				<pitch>
					<step>G</step>
					<octave>3</octave>
				</pitch>
				<duration>240</duration>
				<voice>1</voice>
				<type>eighth</type>
				<lyric default-y="-75" number="1">
					<syllabic>begin</syllabic>
					<text>je</text>
				</lyric>
			</note>
			<note>
				<pitch>
					<step>A</step>
					<octave>3</octave>
				</pitch>
				<duration>240</duration>
				<voice>1</voice>
				<type>eighth</type>
				<lyric default-y="-75" number="1">
					<syllabic>end</syllabic>
					<text>den</text>
				</lyric>
			</note>
			<note>
				<pitch>
					<step>B</step>
					<alter>-1</alter>
					<octave>3</octave>
				</pitch>
				<duration>120</duration>
				<voice>1</voice>
				<type>16th</type>
				<lyric default-y="-75" number="1">
					<syllabic>begin</syllabic>
					<text>Au</text>
				</lyric>
			</note>
			<note>
				<pitch>
					<step>G</step>
					<octave>3</octave>
				</pitch>
				<duration>120</duration>
				<voice>1</voice>
				<type>16th</type>
				<lyric default-y="-75" number="1">
					<syllabic>middle</syllabic>
					<text>gen</text>
				</lyric>
			</note>
			<note>
				<pitch>
					<step>C</step>
					<alter>1</alter>
					<octave>4</octave>
				</pitch>
				<duration>240</duration>
				<voice>1</voice>
				<type>eighth</type>
				<accidental>sharp</accidental>
				<lyric default-y="-75" number="1">
					<syllabic>end</syllabic>
					<text>blick</text>
				</lyric>
			</note>
			<note>
				<rest>
					<display-step>D</display-step>
					<display-octave>3</display-octave>
				</rest>
				<duration>120</duration>
				<voice>1</voice>
				<type>16th</type>
			</note>
			<note>
				<pitch>
					<step>E</step>
					<octave>3</octave>
				</pitch>
				<duration>120</duration>
				<voice>1</voice>
				<type>16th</type>
				<accidental cautionary="yes">natural</accidental>
				<lyric default-y="-75" number="1">
					<syllabic>single</syllabic>
					<text>zu</text>
				</lyric>
			</note>
			<note>
				<pitch>
					<step>E</step>
					<octave>3</octave>
				</pitch>
				<duration>120</duration>
				<voice>1</voice>
				<type>16th</type>
				<lyric default-y="-75" number="1">
					<syllabic>begin</syllabic>
					<text>dei</text>
				</lyric>
			</note>
			<note>
				<pitch>
					<step>F</step>
					<octave>3</octave>
				</pitch>
				<duration>120</duration>
				<voice>1</voice>
				<type>16th</type>
				<lyric default-y="-75" number="1">
					<syllabic>end</syllabic>
					<text>ner</text>
				</lyric>
			</note>
		</measure>
		<measure number="17">
			<note>
				<pitch>
					<step>G</step>
					<octave>3</octave>
				</pitch>
				<duration>240</duration>
				<voice>1</voice>
				<type>eighth</type>
				<lyric default-y="-75" number="1">
					<syllabic>begin</syllabic>
					<text>See</text>
				</lyric>
			</note>
			<note>
				<pitch>
					<step>G</step>
					<octave>3</octave>
				</pitch>
				<duration>240</duration>
				<voice>1</voice>
				<type>eighth</type>
				<lyric default-y="-75" number="1">
					<syllabic>end</syllabic>
					<text>len</text>
				</lyric>
			</note>
			<note>
				<pitch>
					<step>B</step>
					<alter>-1</alter>
					<octave>3</octave>
				</pitch>
				<duration>240</duration>
				<voice>1</voice>
				<type>eighth</type>
				<lyric default-y="-75" number="1">
					<syllabic>single</syllabic>
					<text>ew'</text>
				</lyric>
			</note>
			<note>
				<pitch>
					<step>E</step>
					<octave>3</octave>
				</pitch>
				<duration>240</duration>
				<voice>1</voice>
				<type>eighth</type>
				<accidental cautionary="yes">natural</accidental>
				<lyric default-y="-75" number="1">
					<syllabic>single</syllabic>
					<text>gem</text>
				</lyric>
			</note>
			<note>
				<pitch>
					<step>C</step>
					<alter>1</alter>
					<octave>3</octave>
				</pitch>
				<duration>360</duration>
				<voice>1</voice>
				<type>eighth</type>
				<dot/>
				<accidental>sharp</accidental>
				<lyric default-y="-75" number="1">
					<syllabic>begin</syllabic>
					<text>Un</text>
				</lyric>
			</note>
			<note>
				<pitch>
					<step>C</step>
					<alter>1</alter>
					<octave>3</octave>
				</pitch>
				<duration>120</duration>
				<voice>1</voice>
				<type>16th</type>
				<lyric default-y="-75" number="1">
					<syllabic>middle</syllabic>
					<text>ge</text>
				</lyric>
			</note>
			<note>
				<pitch>
					<step>C</step>
					<alter>1</alter>
					<octave>3</octave>
				</pitch>
				<duration>240</duration>
				<voice>1</voice>
				<type>eighth</type>
				<lyric default-y="-75" number="1">
					<syllabic>end</syllabic>
					<text>lück</text>
				</lyric>
			</note>
			<note>
				<pitch>
					<step>E</step>
					<octave>3</octave>
				</pitch>
				<duration>240</duration>
				<voice>1</voice>
				<type>eighth</type>
				<lyric default-y="-75" number="1">
					<syllabic>single</syllabic>
					<text>sich</text>
				</lyric>
			</note>
		</measure>
		<measure number="18">
			<note>
				<pitch>
					<step>A</step>
					<octave>3</octave>
				</pitch>
				<duration>240</duration>
				<voice>1</voice>
				<type>eighth</type>
				<lyric default-y="-75" number="1">
					<syllabic>single</syllabic>
					<text>stets</text>
				</lyric>
			</note>
			<note>
				<pitch>
					<step>D</step>
					<octave>3</octave>
				</pitch>
				<duration>240</duration>
				<voice>1</voice>
				<type>eighth</type>
				<lyric default-y="-75" number="1">
					<syllabic>single</syllabic>
					<text>von</text>
				</lyric>
			</note>
			<note>
				<pitch>
					<step>C</step>
					<alter>1</alter>
					<octave>4</octave>
				</pitch>
				<duration>360</duration>
				<voice>1</voice>
				<type>eighth</type>
				<dot/>
				<accidental>sharp</accidental>
				<lyric default-y="-75" number="1">
					<syllabic>begin</syllabic>
					<text>neu</text>
				</lyric>
			</note>
			<note>
				<pitch>
					<step>D</step>
					<octave>4</octave>
				</pitch>
				<duration>120</duration>
				<voice>1</voice>
				<type>16th</type>
				<lyric default-y="-75" number="1">
					<syllabic>end</syllabic>
					<text>em</text>
				</lyric>
			</note>
			<note>
				<pitch>
					<step>D</step>
					<octave>4</octave>
				</pitch>
				<duration>240</duration>
				<voice>1</voice>
				<type>eighth</type>
				<beam number="1">begin</beam>
				<lyric default-y="-75" number="1">
					<syllabic>single</syllabic>
					<text>an.</text>
				</lyric>
			</note>
			<note>
				<pitch>
					<step>A</step>
					<octave>3</octave>
				</pitch>
				<duration>240</duration>
				<voice>1</voice>
				<type>eighth</type>
				<beam number="1">end</beam>
			</note>
			<note>
				<rest>
					<display-step>D</display-step>
					<display-octave>3</display-octave>
				</rest>
				<duration>480</duration>
				<voice>1</voice>
				<type>quarter</type>
			</note>
		</measure>
		<measure number="19">
			<note>
				<rest measure="yes">
					<display-step>D</display-step>
					<display-octave>3</display-octave>
				</rest>
				<duration>1920</duration>
				<voice>1</voice>
				<type>whole</type>
				<notations>
					<fermata type="upright"/>
				</notations>
			</note>
			<barline>
				<bar-style>light-heavy</bar-style>
			</barline>
		</measure>
	</part>
	<part id="P2">
		<measure number="1">
			<print>
				<system-layout>
					<system-margins>
						<left-margin>137</left-margin>
						<right-margin>0</right-margin>
					</system-margins>
					<top-system-distance>120</top-system-distance>
				</system-layout>
				<staff-layout number="1">
					<staff-distance>70</staff-distance>
				</staff-layout>
			</print>
			<attributes>
				<divisions>480</divisions>
				<key>
					<fifths>-1</fifths>
					<mode>major</mode>
				</key>
				<time symbol="common">
					<beats>4</beats>
					<beat-type>4</beat-type>
				</time>
				<clef>
					<sign>F</sign>
					<line>4</line>
				</clef>
			</attributes>
			<note>
				<pitch>
					<step>F</step>
					<alter>1</alter>
					<octave>2</octave>
				</pitch>
				<duration>1920</duration>
				<tie type="start"/>
				<voice>1</voice>
				<type>whole</type>
				<accidental>sharp</accidental>
				<notations>
					<tied type="start"/>
				</notations>
			</note>
			<backup>
				<duration>1920</duration>
			</backup>
			<note print-object="no">
				<pitch>
					<step>C</step>
					<octave>2</octave>
				</pitch>
				<duration>960</duration>
				<voice>2</voice>
				<type>half</type>
				<stem>down</stem>
				<lyric default-y="-75" number="2">
					<syllabic>single</syllabic>
					<text>6</text>
				</lyric>
			</note>
			<note print-object="no">
				<pitch>
					<step>C</step>
					<octave>2</octave>
				</pitch>
				<duration>960</duration>
				<voice>2</voice>
				<type>half</type>
				<stem>down</stem>
				<lyric default-y="-75" number="2">
					<syllabic>single</syllabic>
					<text>5</text>
				</lyric>
			</note>
		</measure>
		<measure number="2">
			<note>
				<pitch>
					<step>F</step>
					<alter>1</alter>
					<octave>2</octave>
				</pitch>
				<duration>1920</duration>
				<tie type="stop"/>
				<voice>1</voice>
				<type>whole</type>
				<notations>
					<tied type="stop"/>
				</notations>
			</note>
			<backup>
				<duration>1920</duration>
			</backup>
			<note print-object="no">
				<pitch>
					<step>C</step>
					<octave>2</octave>
				</pitch>
				<duration>1920</duration>
				<voice>2</voice>
				<type>whole</type>
				<stem>down</stem>
			</note>
		</measure>
		<measure number="3">
			<note>
				<pitch>
					<step>B</step>
					<octave>2</octave>
				</pitch>
				<duration>960</duration>
				<voice>1</voice>
				<type>half</type>
				<accidental>natural</accidental>
			</note>
			<note>
				<pitch>
					<step>C</step>
					<octave>3</octave>
				</pitch>
				<duration>960</duration>
				<tie type="start"/>
				<voice>1</voice>
				<type>half</type>
				<notations>
					<tied type="start"/>
				</notations>
			</note>
			<backup>
				<duration>1920</duration>
			</backup>
			<note print-object="no">
				<pitch>
					<step>C</step>
					<octave>2</octave>
				</pitch>
				<duration>960</duration>
				<voice>2</voice>
				<type>half</type>
				<stem>down</stem>
				<lyric default-y="-65" number="1">
					<syllabic>single</syllabic>
					<text>6</text>
				</lyric>
				<lyric default-y="-85" number="3">
					<syllabic>single</syllabic>
					<text>t</text>
				</lyric>
			</note>
			<note print-object="no">
				<pitch>
					<step>C</step>
					<octave>2</octave>
				</pitch>
				<duration>960</duration>
				<voice>2</voice>
				<type>half</type>
				<stem>down</stem>
				<lyric default-y="-65" number="1">
					<syllabic>single</syllabic>
					<text>Y</text>
				</lyric>
			</note>
		</measure>
		<measure number="4">
			<print new-system="yes">
				<system-layout>
					<system-margins>
						<left-margin>0</left-margin>
						<right-margin>0</right-margin>
					</system-margins>
					<system-distance>120</system-distance>
				</system-layout>
				<staff-layout number="1">
					<staff-distance>70</staff-distance>
				</staff-layout>
			</print>
			<attributes>
				<time>
					<beats>4</beats>
					<beat-type>4</beat-type>
				</time>
			</attributes>
			<note>
				<pitch>
					<step>C</step>
					<octave>3</octave>
				</pitch>
				<duration>960</duration>
				<tie type="stop"/>
				<voice>1</voice>
				<type>half</type>
				<notations>
					<tied type="stop"/>
				</notations>
			</note>
			<note>
				<pitch>
					<step>G</step>
					<octave>2</octave>
				</pitch>
				<duration>960</duration>
				<tie type="start"/>
				<voice>1</voice>
				<type>half</type>
				<notations>
					<tied type="start"/>
				</notations>
			</note>
			<backup>
				<duration>1920</duration>
			</backup>
			<note print-object="no">
				<pitch>
					<step>C</step>
					<octave>2</octave>
				</pitch>
				<duration>480</duration>
				<voice>2</voice>
				<type>quarter</type>
				<stem>down</stem>
				<lyric default-y="-60" number="1">
					<syllabic>single</syllabic>
					<text>_</text>
				</lyric>
			</note>
			<note print-object="no">
				<pitch>
					<step>C</step>
					<octave>2</octave>
				</pitch>
				<duration>480</duration>
				<voice>2</voice>
				<type>quarter</type>
				<stem>down</stem>
				<lyric default-y="-60" number="1">
					<syllabic>single</syllabic>
					<text>$</text>
				</lyric>
				<lyric default-y="-80" number="3">
					<syllabic>single</syllabic>
					<text>2</text>
				</lyric>
			</note>
			<note print-object="no">
				<pitch>
					<step>C</step>
					<octave>2</octave>
				</pitch>
				<duration>960</duration>
				<voice>2</voice>
				<type>half</type>
				<stem>down</stem>
			</note>
		</measure>
		<measure number="5">
			<note>
				<pitch>
					<step>G</step>
					<octave>2</octave>
				</pitch>
				<duration>960</duration>
				<tie type="stop"/>
				<voice>1</voice>
				<type>half</type>
				<notations>
					<tied type="stop"/>
				</notations>
			</note>
			<note>
				<pitch>
					<step>D</step>
					<alter>-1</alter>
					<octave>3</octave>
				</pitch>
				<duration>960</duration>
				<voice>1</voice>
				<type>half</type>
				<accidental>flat</accidental>
			</note>
			<backup>
				<duration>1920</duration>
			</backup>
			<note print-object="no">
				<pitch>
					<step>C</step>
					<octave>2</octave>
				</pitch>
				<duration>960</duration>
				<voice>2</voice>
				<type>half</type>
				<stem>down</stem>
			</note>
			<note print-object="no">
				<pitch>
					<step>C</step>
					<octave>2</octave>
				</pitch>
				<duration>960</duration>
				<voice>2</voice>
				<type>half</type>
				<stem>down</stem>
				<lyric default-y="-60" number="1">
					<syllabic>single</syllabic>
					<text>6</text>
				</lyric>
				<lyric default-y="-80" number="3">
					<syllabic>single</syllabic>
					<text>4</text>
				</lyric>
				<lyric default-y="-100" number="5">
					<syllabic>single</syllabic>
					<text>w</text>
				</lyric>
			</note>
		</measure>
		<measure number="6">
			<note>
				<pitch>
					<step>E</step>
					<octave>2</octave>
				</pitch>
				<duration>1920</duration>
				<voice>1</voice>
				<type>whole</type>
				<accidental cautionary="yes">natural</accidental>
			</note>
			<backup>
				<duration>1920</duration>
			</backup>
			<note print-object="no">
				<pitch>
					<step>C</step>
					<octave>2</octave>
				</pitch>
				<duration>1920</duration>
				<voice>2</voice>
				<type>whole</type>
				<stem>down</stem>
				<lyric default-y="-70" number="2">
					<syllabic>single</syllabic>
					<text>6</text>
				</lyric>
			</note>
		</measure>
		<measure number="7">
			<print new-system="yes">
				<system-layout>
					<system-margins>
						<left-margin>0</left-margin>
						<right-margin>0</right-margin>
					</system-margins>
					<system-distance>100</system-distance>
				</system-layout>
				<staff-layout number="1">
					<staff-distance>80</staff-distance>
				</staff-layout>
			</print>
			<note>
				<pitch>
					<step>F</step>
					<octave>2</octave>
				</pitch>
				<duration>1920</duration>
				<tie type="start"/>
				<voice>1</voice>
				<type>whole</type>
				<notations>
					<tied type="start"/>
				</notations>
			</note>
			<backup>
				<duration>1920</duration>
			</backup>
			<note print-object="no">
				<pitch>
					<step>C</step>
					<octave>2</octave>
				</pitch>
				<duration>1920</duration>
				<voice>2</voice>
				<type>whole</type>
				<stem>down</stem>
				<lyric default-y="-70" number="2">
					<syllabic>single</syllabic>
					<text>Y</text>
				</lyric>
			</note>
		</measure>
		<measure number="8">
			<note>
				<pitch>
					<step>F</step>
					<octave>2</octave>
				</pitch>
				<duration>1920</duration>
				<tie type="stop"/>
				<voice>1</voice>
				<type>whole</type>
				<notations>
					<tied type="stop"/>
				</notations>
			</note>
			<backup>
				<duration>1920</duration>
			</backup>
			<note print-object="no">
				<pitch>
					<step>C</step>
					<octave>2</octave>
				</pitch>
				<duration>1920</duration>
				<voice>2</voice>
				<type>whole</type>
				<stem>down</stem>
				<lyric default-y="-70" number="2">
					<syllabic>single</syllabic>
					<text>r</text>
				</lyric>
				<lyric default-y="-90" number="4">
					<syllabic>single</syllabic>
					<text>2</text>
				</lyric>
			</note>
		</measure>
		<measure number="9">
			<note>
				<pitch>
					<step>E</step>
					<alter>-1</alter>
					<octave>2</octave>
				</pitch>
				<duration>960</duration>
				<voice>1</voice>
				<type>half</type>
				<accidental>flat</accidental>
			</note>
			<note>
				<pitch>
					<step>F</step>
					<octave>2</octave>
				</pitch>
				<duration>960</duration>
				<voice>1</voice>
				<type>half</type>
			</note>
			<backup>
				<duration>1920</duration>
			</backup>
			<note print-object="no">
				<pitch>
					<step>C</step>
					<octave>2</octave>
				</pitch>
				<duration>960</duration>
				<voice>2</voice>
				<type>half</type>
				<stem>down</stem>
				<lyric default-y="-70" number="2">
					<syllabic>single</syllabic>
					<text>6</text>
				</lyric>
			</note>
			<note print-object="no">
				<pitch>
					<step>C</step>
					<octave>2</octave>
				</pitch>
				<duration>960</duration>
				<voice>2</voice>
				<type>half</type>
				<stem>down</stem>
				<lyric default-y="-70" number="2">
					<syllabic>single</syllabic>
					<text>Y</text>
				</lyric>
			</note>
		</measure>
		<measure number="10">
			<print new-system="yes">
				<system-layout>
					<system-margins>
						<left-margin>0</left-margin>
						<right-margin>0</right-margin>
					</system-margins>
					<system-distance>120</system-distance>
				</system-layout>
				<staff-layout number="1">
					<staff-distance>70</staff-distance>
				</staff-layout>
			</print>
			<note>
				<rest>
					<display-step>D</display-step>
					<display-octave>3</display-octave>
				</rest>
				<duration>480</duration>
				<voice>1</voice>
				<type>quarter</type>
			</note>
			<note>
				<pitch>
					<step>G</step>
					<octave>2</octave>
				</pitch>
				<duration>480</duration>
				<voice>1</voice>
				<type>quarter</type>
			</note>
			<note>
				<pitch>
					<step>C</step>
					<octave>3</octave>
				</pitch>
				<duration>960</duration>
				<voice>1</voice>
				<type>half</type>
			</note>
			<backup>
				<duration>1920</duration>
			</backup>
			<note print-object="no">
				<rest/>
				<duration>480</duration>
				<voice>2</voice>
				<type>quarter</type>
			</note>
			<note print-object="no">
				<pitch>
					<step>C</step>
					<octave>2</octave>
				</pitch>
				<duration>240</duration>
				<voice>2</voice>
				<type>eighth</type>
				<stem>down</stem>
				<beam number="1">begin</beam>
				<lyric default-y="-60" number="1">
					<syllabic>single</syllabic>
					<text>4</text>
				</lyric>
			</note>
			<note print-object="no">
				<pitch>
					<step>C</step>
					<octave>2</octave>
				</pitch>
				<duration>240</duration>
				<voice>2</voice>
				<type>eighth</type>
				<stem>down</stem>
				<beam number="1">end</beam>
				<lyric default-y="-60" number="1">
					<syllabic>single</syllabic>
					<text>Q</text>
				</lyric>
			</note>
			<note print-object="no">
				<pitch>
					<step>C</step>
					<octave>2</octave>
				</pitch>
				<duration>960</duration>
				<voice>2</voice>
				<type>half</type>
				<stem>down</stem>
				<lyric default-y="-60" number="1">
					<syllabic>single</syllabic>
					<text>Y</text>
				</lyric>
			</note>
		</measure>
		<measure number="11">
			<note>
				<pitch>
					<step>A</step>
					<octave>2</octave>
				</pitch>
				<duration>1920</duration>
				<tie type="start"/>
				<voice>1</voice>
				<type>whole</type>
				<notations>
					<tied type="start"/>
				</notations>
			</note>
			<backup>
				<duration>1920</duration>
			</backup>
			<note print-object="no">
				<pitch>
					<step>C</step>
					<octave>2</octave>
				</pitch>
				<duration>960</duration>
				<voice>2</voice>
				<type>half</type>
				<stem>down</stem>
				<lyric default-y="-60" number="1">
					<syllabic>single</syllabic>
					<text>&amp;</text>
				</lyric>
			</note>
			<note print-object="no">
				<pitch>
					<step>C</step>
					<octave>2</octave>
				</pitch>
				<duration>480</duration>
				<voice>2</voice>
				<type>quarter</type>
				<stem>down</stem>
			</note>
			<note print-object="no">
				<pitch>
					<step>C</step>
					<octave>2</octave>
				</pitch>
				<duration>480</duration>
				<voice>2</voice>
				<type>quarter</type>
				<stem>down</stem>
				<lyric default-y="-70" number="2">
					<syllabic>single</syllabic>
					<text>%</text>
				</lyric>
			</note>
		</measure>
		<measure number="12">
			<note>
				<pitch>
					<step>A</step>
					<octave>2</octave>
				</pitch>
				<duration>1920</duration>
				<tie type="start"/>
				<tie type="stop"/>
				<voice>1</voice>
				<type>whole</type>
				<notations>
					<tied type="start"/>
					<tied type="stop"/>
				</notations>
			</note>
			<backup>
				<duration>1920</duration>
			</backup>
			<note print-object="no">
				<pitch>
					<step>C</step>
					<octave>2</octave>
				</pitch>
				<duration>1920</duration>
				<voice>2</voice>
				<type>whole</type>
				<stem>down</stem>
				<lyric default-y="-60" number="1">
					<syllabic>single</syllabic>
					<text>&amp;</text>
				</lyric>
				<lyric default-y="-80" number="3">
					<syllabic>single</syllabic>
					<text>b</text>
				</lyric>
				<lyric default-y="-100" number="5">
					<syllabic>single</syllabic>
					<text>3</text>
				</lyric>
			</note>
		</measure>
		<measure number="13">
			<print new-system="yes">
				<system-layout>
					<system-margins>
						<left-margin>0</left-margin>
						<right-margin>0</right-margin>
					</system-margins>
					<system-distance>120</system-distance>
				</system-layout>
				<staff-layout number="1">
					<staff-distance>80</staff-distance>
				</staff-layout>
			</print>
			<note>
				<pitch>
					<step>A</step>
					<octave>2</octave>
				</pitch>
				<duration>1920</duration>
				<tie type="stop"/>
				<voice>1</voice>
				<type>whole</type>
				<notations>
					<tied type="stop"/>
				</notations>
			</note>
			<backup>
				<duration>1920</duration>
			</backup>
			<note print-object="no">
				<pitch>
					<step>C</step>
					<octave>2</octave>
				</pitch>
				<duration>1920</duration>
				<voice>2</voice>
				<type>whole</type>
				<stem>down</stem>
				<lyric default-y="-60" number="1">
					<syllabic>single</syllabic>
					<text>&amp;</text>
				</lyric>
				<lyric default-y="-80" number="3">
					<syllabic>single</syllabic>
					<text>$</text>
				</lyric>
				<lyric default-y="-100" number="5">
					<syllabic>single</syllabic>
					<text>w</text>
				</lyric>
			</note>
		</measure>
		<measure number="14">
			<note>
				<pitch>
					<step>E</step>
					<octave>3</octave>
				</pitch>
				<duration>1920</duration>
				<voice>1</voice>
				<type>whole</type>
				<accidental cautionary="yes">natural</accidental>
			</note>
			<backup>
				<duration>1920</duration>
			</backup>
			<note print-object="no">
				<pitch>
					<step>C</step>
					<octave>2</octave>
				</pitch>
				<duration>960</duration>
				<voice>2</voice>
				<type>half</type>
				<stem>down</stem>
				<lyric default-y="-60" number="1">
					<syllabic>single</syllabic>
					<text>t</text>
				</lyric>
			</note>
			<note print-object="no">
				<pitch>
					<step>C</step>
					<octave>2</octave>
				</pitch>
				<duration>960</duration>
				<voice>2</voice>
				<type>half</type>
				<stem>down</stem>
				<lyric default-y="-60" number="1">
					<syllabic>single</syllabic>
					<text>7</text>
				</lyric>
				<lyric default-y="-80" number="3">
					<syllabic>single</syllabic>
					<text>#</text>
				</lyric>
			</note>
		</measure>
		<measure number="15">
			<note>
				<pitch>
					<step>E</step>
					<alter>-1</alter>
					<octave>3</octave>
				</pitch>
				<duration>960</duration>
				<voice>1</voice>
				<type>half</type>
				<accidental>flat</accidental>
			</note>
			<note>
				<pitch>
					<step>D</step>
					<octave>3</octave>
				</pitch>
				<duration>960</duration>
				<voice>1</voice>
				<type>half</type>
			</note>
			<backup>
				<duration>1920</duration>
			</backup>
			<note print-object="no">
				<pitch>
					<step>C</step>
					<octave>2</octave>
				</pitch>
				<duration>480</duration>
				<voice>2</voice>
				<type>quarter</type>
				<stem>down</stem>
				<lyric default-y="-60" number="1">
					<syllabic>single</syllabic>
					<text>6</text>
				</lyric>
				<lyric default-y="-80" number="3">
					<syllabic>single</syllabic>
					<text>4</text>
				</lyric>
			</note>
			<note print-object="no">
				<pitch>
					<step>C</step>
					<octave>2</octave>
				</pitch>
				<duration>480</duration>
				<voice>2</voice>
				<type>quarter</type>
				<stem>down</stem>
				<lyric default-y="-80" number="3">
					<syllabic>single</syllabic>
					<text>3</text>
				</lyric>
			</note>
			<note print-object="no">
				<pitch>
					<step>C</step>
					<octave>2</octave>
				</pitch>
				<duration>960</duration>
				<voice>2</voice>
				<type>half</type>
				<stem>down</stem>
				<lyric default-y="-60" number="1">
					<syllabic>single</syllabic>
					<text>7</text>
				</lyric>
				<lyric default-y="-80" number="3">
					<syllabic>single</syllabic>
					<text>#</text>
				</lyric>
			</note>
		</measure>
		<measure number="16">
			<print new-system="yes">
				<system-layout>
					<system-margins>
						<left-margin>0</left-margin>
						<right-margin>0</right-margin>
					</system-margins>
					<system-distance>120</system-distance>
				</system-layout>
				<staff-layout number="1">
					<staff-distance>70</staff-distance>
				</staff-layout>
			</print>
			<note>
				<pitch>
					<step>G</step>
					<octave>2</octave>
				</pitch>
				<duration>1920</duration>
				<tie type="start"/>
				<voice>1</voice>
				<type>whole</type>
				<notations>
					<tied type="start"/>
				</notations>
			</note>
			<backup>
				<duration>1920</duration>
			</backup>
			<note print-object="no">
				<pitch>
					<step>C</step>
					<octave>2</octave>
				</pitch>
				<duration>960</duration>
				<voice>2</voice>
				<type>half</type>
				<stem>down</stem>
				<lyric default-y="-70" number="2">
					<syllabic>single</syllabic>
					<text>Y</text>
				</lyric>
			</note>
			<note print-object="no">
				<pitch>
					<step>C</step>
					<octave>2</octave>
				</pitch>
				<duration>240</duration>
				<voice>2</voice>
				<type>eighth</type>
				<stem>down</stem>
				<beam number="1">begin</beam>
			</note>
			<note print-object="no">
				<pitch>
					<step>C</step>
					<octave>2</octave>
				</pitch>
				<duration>240</duration>
				<voice>2</voice>
				<type>eighth</type>
				<stem>down</stem>
				<beam number="1">end</beam>
				<lyric default-y="-70" number="2">
					<syllabic>single</syllabic>
					<text>$</text>
				</lyric>
				<lyric default-y="-90" number="4">
					<syllabic>single</syllabic>
					<text>2</text>
				</lyric>
			</note>
			<note print-object="no">
				<pitch>
					<step>C</step>
					<octave>2</octave>
				</pitch>
				<duration>480</duration>
				<voice>2</voice>
				<type>quarter</type>
				<stem>down</stem>
			</note>
		</measure>
		<measure number="17">
			<note>
				<pitch>
					<step>G</step>
					<octave>2</octave>
				</pitch>
				<duration>1920</duration>
				<tie type="stop"/>
				<voice>1</voice>
				<type>whole</type>
				<notations>
					<tied type="stop"/>
				</notations>
			</note>
			<backup>
				<duration>1920</duration>
			</backup>
			<note print-object="no">
				<pitch>
					<step>C</step>
					<octave>2</octave>
				</pitch>
				<duration>1920</duration>
				<voice>2</voice>
				<type>whole</type>
				<stem>down</stem>
			</note>
		</measure>
		<measure number="18">
			<note>
				<pitch>
					<step>F</step>
					<octave>2</octave>
				</pitch>
				<duration>480</duration>
				<voice>1</voice>
				<type>quarter</type>
			</note>
			<note>
				<pitch>
					<step>B</step>
					<alter>-1</alter>
					<octave>2</octave>
				</pitch>
				<duration>480</duration>
				<voice>1</voice>
				<type>quarter</type>
			</note>
			<note>
				<rest>
					<display-step>D</display-step>
					<display-octave>3</display-octave>
				</rest>
				<duration>480</duration>
				<voice>1</voice>
				<type>quarter</type>
			</note>
			<note>
				<pitch>
					<step>A</step>
					<octave>2</octave>
				</pitch>
				<duration>480</duration>
				<voice>1</voice>
				<type>quarter</type>
			</note>
			<backup>
				<duration>1920</duration>
			</backup>
			<note print-object="no">
				<pitch>
					<step>C</step>
					<octave>2</octave>
				</pitch>
				<duration>480</duration>
				<voice>2</voice>
				<type>quarter</type>
				<stem>down</stem>
				<lyric default-y="-70" number="2">
					<syllabic>single</syllabic>
					<text>3</text>
				</lyric>
			</note>
			<note print-object="no">
				<pitch>
					<step>C</step>
					<octave>2</octave>
				</pitch>
				<duration>480</duration>
				<voice>2</voice>
				<type>quarter</type>
				<stem>down</stem>
				<lyric default-y="-60" number="1">
					<syllabic>single</syllabic>
					<text>6</text>
				</lyric>
				<lyric default-y="-80" number="3">
					<syllabic>single</syllabic>
					<text>r</text>
				</lyric>
				<lyric default-y="-100" number="5">
					<syllabic>single</syllabic>
					<text>s</text>
				</lyric>
			</note>
			<note print-object="no">
				<pitch>
					<step>C</step>
					<octave>2</octave>
				</pitch>
				<duration>480</duration>
				<voice>2</voice>
				<type>quarter</type>
				<stem>down</stem>
			</note>
			<note print-object="no">
				<pitch>
					<step>C</step>
					<octave>2</octave>
				</pitch>
				<duration>240</duration>
				<voice>2</voice>
				<type>eighth</type>
				<stem>down</stem>
				<beam number="1">begin</beam>
				<lyric default-y="-60" number="1">
					<syllabic>single</syllabic>
					<text>6</text>
				</lyric>
				<lyric default-y="-80" number="3">
					<syllabic>single</syllabic>
					<text>4</text>
				</lyric>
			</note>
			<note print-object="no">
				<pitch>
					<step>C</step>
					<octave>2</octave>
				</pitch>
				<duration>240</duration>
				<voice>2</voice>
				<type>eighth</type>
				<stem>down</stem>
				<beam number="1">end</beam>
				<lyric default-y="-60" number="1">
					<syllabic>single</syllabic>
					<text>5</text>
				</lyric>
				<lyric default-y="-80" number="3">
					<syllabic>single</syllabic>
					<text>#</text>
				</lyric>
			</note>
		</measure>
		<measure number="19">
			<note>
				<pitch>
					<step>D</step>
					<octave>2</octave>
				</pitch>
				<duration>1920</duration>
				<voice>1</voice>
				<type>whole</type>
				<notations>
					<fermata type="upright"/>
				</notations>
			</note>
			<backup>
				<duration>1920</duration>
			</backup>
			<note print-object="no">
				<pitch>
					<step>C</step>
					<octave>2</octave>
				</pitch>
				<duration>1920</duration>
				<voice>2</voice>
				<type>whole</type>
				<stem>down</stem>
			</note>
			<barline>
				<bar-style>light-heavy</bar-style>
			</barline>
		</measure>
	</part>
</score-partwise>
