<?xml version="1.0" encoding="UTF-8" standalone="no"?>
<!--MusicXML 2.0 file created by CapToMusic.py CapXML to MusicXML converter version 1.34-->
<!DOCTYPE score-partwise PUBLIC "-//Recordare//DTD MusicXML 2.0 Partwise//EN" "http://www.musicxml.org/dtds/partwise.dtd">
<score-partwise version="2.0">
	<identification>
		<encoding>
			<encoding-date>2015-01-06</encoding-date>
			<software>CapToMusic.py CapXML to MusicXML converter version 1.34</software>
			<encoding-description>Options: FinaleDolet33=1, ChordCaseMatters=1, ExportToSibelius=0</encoding-description>
		</encoding>
	</identification>
	<defaults>
		<scaling>
			<millimeters>1.68</millimeters>
			<tenths>10.0</tenths>
		</scaling>
		<page-layout>
			<page-height>1250</page-height>
			<page-width>1767</page-width>
			<page-margins type="both">
				<left-margin>119</left-margin>
				<right-margin>119</right-margin>
				<top-margin>71</top-margin>
				<bottom-margin>71</bottom-margin>
			</page-margins>
		</page-layout>
		<system-layout>
			<system-margins>
				<left-margin>0</left-margin>
				<right-margin>0</right-margin>
			</system-margins>
			<system-distance>0</system-distance>
		</system-layout>
	</defaults>
	<credit>
		<credit-words></credit-words>
	</credit>
	<part-list>
		<score-part id="P1">
			<part-name></part-name>
			<part-abbreviation></part-abbreviation>
			<score-instrument id="P1-I1">
				<instrument-name>Midi_20</instrument-name>
			</score-instrument>
			<midi-instrument id="P1-I1">
				<midi-channel>1</midi-channel>
				<midi-program>20</midi-program>
			</midi-instrument>
		</score-part>
	</part-list>
	<part id="P1">
		<measure number="0">
			<print>
				<system-layout>
					<system-margins>
						<left-margin>70</left-margin>
						<right-margin>0</right-margin>
					</system-margins>
					<top-system-distance>140</top-system-distance>
				</system-layout>
				<staff-layout number="1">
					<staff-distance>100</staff-distance>
				</staff-layout>
				<staff-layout number="2">
					<staff-distance>90</staff-distance>
				</staff-layout>
			</print>
			<attributes>
				<divisions>480</divisions>
				<key>
					<fifths>0</fifths>
					<mode>major</mode>
				</key>
				<time symbol="common">
					<beats>4</beats>
					<beat-type>4</beat-type>
				</time>
				<staves>2</staves>
				<clef number="1">
					<sign>G</sign>
					<line>2</line>
				</clef>
			</attributes>
			<direction placement="above">
				<direction-type>
					<words relative-x="602" default-y="109" font-family="Times New Roman" font-size="17" font-weight="bold" justify="center">Choral: Wer nur den lieben Gott läßt walten.</words>
				</direction-type>
				<staff>1</staff>
			</direction>
			<note>
				<pitch>
					<step>E</step>
					<octave>4</octave>
				</pitch>
				<duration>480</duration>
				<voice>1</voice>
				<type>quarter</type>
				<staff>1</staff>
			</note>
			<backup>
				<duration>480</duration>
			</backup>
			<attributes>
				<staves>2</staves>
				<clef number="2">
					<sign>F</sign>
					<line>4</line>
				</clef>
			</attributes>
			<note>
				<pitch>
					<step>C</step>
					<octave>3</octave>
				</pitch>
				<duration>240</duration>
				<voice>4</voice>
				<type>eighth</type>
				<stem>up</stem>
				<staff>2</staff>
				<beam number="1">begin</beam>
			</note>
			<note>
				<pitch>
					<step>D</step>
					<octave>3</octave>
				</pitch>
				<duration>240</duration>
				<voice>4</voice>
				<type>eighth</type>
				<stem>up</stem>
				<staff>2</staff>
				<beam number="1">end</beam>
			</note>
			<backup>
				<duration>480</duration>
			</backup>
			<note>
				<pitch>
					<step>A</step>
					<octave>2</octave>
				</pitch>
				<duration>240</duration>
				<voice>5</voice>
				<type>eighth</type>
				<stem>down</stem>
				<staff>2</staff>
				<beam number="1">begin</beam>
			</note>
			<note>
				<pitch>
					<step>B</step>
					<octave>2</octave>
				</pitch>
				<duration>240</duration>
				<voice>5</voice>
				<type>eighth</type>
				<stem>down</stem>
				<staff>2</staff>
				<beam number="1">end</beam>
			</note>
			<barline>
				<bar-style>regular</bar-style>
			</barline>
		</measure>
		<measure number="1">
			<note>
				<pitch>
					<step>A</step>
					<octave>4</octave>
				</pitch>
				<duration>120</duration>
				<voice>1</voice>
				<type>16th</type>
				<staff>1</staff>
				<beam number="1">begin</beam>
				<beam number="2">begin</beam>
				<notations>
					<ornaments>
						<mordent relative-x="-5" default-y="24" placement="above"/>
					</ornaments>
				</notations>
			</note>
			<note>
				<pitch>
					<step>B</step>
					<octave>4</octave>
				</pitch>
				<duration>120</duration>
				<voice>1</voice>
				<type>16th</type>
				<staff>1</staff>
				<beam number="1">continue</beam>
				<beam number="2">continue</beam>
			</note>
			<note>
				<pitch>
					<step>A</step>
					<octave>4</octave>
				</pitch>
				<duration>120</duration>
				<voice>1</voice>
				<type>16th</type>
				<staff>1</staff>
				<beam number="1">continue</beam>
				<beam number="2">continue</beam>
			</note>
			<note>
				<pitch>
					<step>B</step>
					<octave>4</octave>
				</pitch>
				<duration>120</duration>
				<voice>1</voice>
				<type>16th</type>
				<staff>1</staff>
				<beam number="1">end</beam>
				<beam number="2">end</beam>
			</note>
			<note>
				<pitch>
					<step>B</step>
					<octave>4</octave>
				</pitch>
				<duration>360</duration>
				<voice>1</voice>
				<type>eighth</type>
				<dot/>
				<staff>1</staff>
				<beam number="1">begin</beam>
				<notations>
					<ornaments>
						<inverted-mordent relative-x="-5" default-y="22" placement="above"/>
					</ornaments>
				</notations>
			</note>
			<note>
				<pitch>
					<step>A</step>
					<octave>4</octave>
				</pitch>
				<duration>60</duration>
				<voice>1</voice>
				<type>32nd</type>
				<staff>1</staff>
				<beam number="1">continue</beam>
				<beam number="2">begin</beam>
				<beam number="3">begin</beam>
			</note>
			<note>
				<pitch>
					<step>B</step>
					<octave>4</octave>
				</pitch>
				<duration>60</duration>
				<voice>1</voice>
				<type>32nd</type>
				<staff>1</staff>
				<beam number="1">end</beam>
				<beam number="2">end</beam>
				<beam number="3">end</beam>
			</note>
			<note>
				<pitch>
					<step>C</step>
					<octave>5</octave>
				</pitch>
				<duration>480</duration>
				<voice>1</voice>
				<type>quarter</type>
				<staff>1</staff>
			</note>
			<note>
				<pitch>
					<step>B</step>
					<octave>4</octave>
				</pitch>
				<duration>120</duration>
				<voice>1</voice>
				<type>16th</type>
				<staff>1</staff>
				<beam number="1">begin</beam>
				<beam number="2">begin</beam>
				<notations>
					<slur number="1" placement="above" type="start"/>
				</notations>
			</note>
			<note>
				<pitch>
					<step>C</step>
					<octave>5</octave>
				</pitch>
				<duration>60</duration>
				<voice>1</voice>
				<type>32nd</type>
				<staff>1</staff>
				<beam number="1">continue</beam>
				<beam number="2">continue</beam>
				<beam number="3">begin</beam>
			</note>
			<note>
				<pitch>
					<step>D</step>
					<octave>5</octave>
				</pitch>
				<duration>60</duration>
				<voice>1</voice>
				<type>32nd</type>
				<staff>1</staff>
				<beam number="1">continue</beam>
				<beam number="2">continue</beam>
				<beam number="3">continue</beam>
			</note>
			<note>
				<pitch>
					<step>C</step>
					<octave>5</octave>
				</pitch>
				<duration>120</duration>
				<voice>1</voice>
				<type>16th</type>
				<staff>1</staff>
				<beam number="1">continue</beam>
				<beam number="2">continue</beam>
				<beam number="3">end</beam>
			</note>
			<note>
				<pitch>
					<step>B</step>
					<octave>4</octave>
				</pitch>
				<duration>120</duration>
				<voice>1</voice>
				<type>16th</type>
				<staff>1</staff>
				<beam number="1">end</beam>
				<beam number="2">end</beam>
				<notations>
					<slur number="1" type="stop"/>
				</notations>
			</note>
			<backup>
				<duration>1920</duration>
			</backup>
			<note>
				<pitch>
					<step>E</step>
					<octave>3</octave>
				</pitch>
				<duration>240</duration>
				<voice>4</voice>
				<type>eighth</type>
				<stem>up</stem>
				<staff>2</staff>
			</note>
			<note>
				<pitch>
					<step>A</step>
					<octave>3</octave>
				</pitch>
				<duration>480</duration>
				<voice>4</voice>
				<type>quarter</type>
				<stem>up</stem>
				<staff>2</staff>
			</note>
			<note>
				<pitch>
					<step>G</step>
					<alter>1</alter>
					<octave>3</octave>
				</pitch>
				<duration>240</duration>
				<voice>4</voice>
				<type>eighth</type>
				<accidental>sharp</accidental>
				<stem>up</stem>
				<staff>2</staff>
			</note>
			<note>
				<pitch>
					<step>A</step>
					<octave>3</octave>
				</pitch>
				<duration>360</duration>
				<voice>4</voice>
				<type>eighth</type>
				<dot/>
				<stem>up</stem>
				<staff>2</staff>
				<beam number="1">begin</beam>
			</note>
			<note>
				<pitch>
					<step>C</step>
					<octave>4</octave>
				</pitch>
				<duration>120</duration>
				<voice>4</voice>
				<type>16th</type>
				<stem>up</stem>
				<staff>2</staff>
				<beam number="1">end</beam>
			</note>
			<note>
				<pitch>
					<step>D</step>
					<octave>4</octave>
				</pitch>
				<duration>240</duration>
				<voice>4</voice>
				<type>eighth</type>
				<stem>up</stem>
				<staff>2</staff>
				<beam number="1">begin</beam>
			</note>
			<note>
				<pitch>
					<step>E</step>
					<octave>4</octave>
				</pitch>
				<duration>240</duration>
				<voice>4</voice>
				<type>eighth</type>
				<stem>up</stem>
				<staff>2</staff>
				<beam number="1">end</beam>
			</note>
			<backup>
				<duration>1920</duration>
			</backup>
			<note>
				<pitch>
					<step>C</step>
					<octave>3</octave>
				</pitch>
				<duration>240</duration>
				<voice>5</voice>
				<type>eighth</type>
				<stem>down</stem>
				<staff>2</staff>
				<beam number="1">begin</beam>
			</note>
			<note>
				<pitch>
					<step>F</step>
					<octave>3</octave>
				</pitch>
				<duration>240</duration>
				<voice>5</voice>
				<type>eighth</type>
				<stem>down</stem>
				<staff>2</staff>
				<beam number="1">continue</beam>
			</note>
			<note>
				<pitch>
					<step>D</step>
					<octave>3</octave>
				</pitch>
				<duration>240</duration>
				<voice>5</voice>
				<type>eighth</type>
				<stem>down</stem>
				<staff>2</staff>
				<beam number="1">continue</beam>
			</note>
			<note>
				<pitch>
					<step>E</step>
					<octave>3</octave>
				</pitch>
				<duration>240</duration>
				<voice>5</voice>
				<type>eighth</type>
				<stem>down</stem>
				<staff>2</staff>
				<beam number="1">end</beam>
			</note>
			<note>
				<pitch>
					<step>A</step>
					<octave>3</octave>
				</pitch>
				<duration>720</duration>
				<voice>5</voice>
				<type>quarter</type>
				<dot/>
				<stem>down</stem>
				<staff>2</staff>
			</note>
			<note>
				<pitch>
					<step>G</step>
					<octave>3</octave>
				</pitch>
				<duration>240</duration>
				<voice>5</voice>
				<type>eighth</type>
				<accidental cautionary="yes">natural</accidental>
				<stem>down</stem>
				<staff>2</staff>
			</note>
		</measure>
		<measure number="2">
			<note>
				<pitch>
					<step>A</step>
					<octave>4</octave>
				</pitch>
				<duration>120</duration>
				<voice>1</voice>
				<type>16th</type>
				<stem>down</stem>
				<staff>1</staff>
				<beam number="1">begin</beam>
				<beam number="2">begin</beam>
			</note>
			<note>
				<pitch>
					<step>A</step>
					<octave>4</octave>
				</pitch>
				<duration>120</duration>
				<voice>1</voice>
				<type>16th</type>
				<stem>down</stem>
				<staff>1</staff>
				<beam number="1">continue</beam>
				<beam number="2">continue</beam>
			</note>
			<note>
				<pitch>
					<step>B</step>
					<octave>4</octave>
				</pitch>
				<duration>120</duration>
				<voice>1</voice>
				<type>16th</type>
				<stem>down</stem>
				<staff>1</staff>
				<beam number="1">continue</beam>
				<beam number="2">continue</beam>
				<notations>
					<ornaments>
						<mordent relative-x="-6" default-y="7" placement="above"/>
					</ornaments>
				</notations>
			</note>
			<note>
				<pitch>
					<step>C</step>
					<octave>5</octave>
				</pitch>
				<duration>120</duration>
				<voice>1</voice>
				<type>16th</type>
				<stem>down</stem>
				<staff>1</staff>
				<beam number="1">end</beam>
				<beam number="2">end</beam>
			</note>
			<note>
				<pitch>
					<step>B</step>
					<octave>4</octave>
				</pitch>
				<duration>360</duration>
				<voice>1</voice>
				<type>eighth</type>
				<dot/>
				<staff>1</staff>
				<beam number="1">begin</beam>
				<notations>
					<ornaments>
						<inverted-mordent relative-x="-5" default-y="23" placement="above"/>
					</ornaments>
				</notations>
			</note>
			<note>
				<pitch>
					<step>A</step>
					<octave>4</octave>
				</pitch>
				<duration>120</duration>
				<voice>1</voice>
				<type>16th</type>
				<staff>1</staff>
				<beam number="1">end</beam>
			</note>
			<note>
				<pitch>
					<step>G</step>
					<alter>1</alter>
					<octave>4</octave>
				</pitch>
				<duration>360</duration>
				<voice>1</voice>
				<type>eighth</type>
				<dot/>
				<accidental>sharp</accidental>
				<staff>1</staff>
				<beam number="1">begin</beam>
				<notations>
					<ornaments>
						<inverted-mordent relative-x="-3" default-y="20" placement="above"/>
					</ornaments>
				</notations>
			</note>
			<note>
				<pitch>
					<step>F</step>
					<alter>1</alter>
					<octave>4</octave>
				</pitch>
				<duration>120</duration>
				<voice>1</voice>
				<type>16th</type>
				<accidental>sharp</accidental>
				<staff>1</staff>
				<beam number="1">end</beam>
				<notations>
					<slur number="1" placement="below" type="start"/>
				</notations>
			</note>
			<note>
				<pitch>
					<step>E</step>
					<octave>4</octave>
				</pitch>
				<duration>240</duration>
				<voice>1</voice>
				<type>eighth</type>
				<staff>1</staff>
				<notations>
					<slur number="1" type="stop"/>
					<fermata type="upright"/>
				</notations>
			</note>
			<direction placement="above">
				<direction-type>
					<words relative-x="67" default-y="59" font-family="Times New Roman" font-size="10" justify="right">Johann Sebastian Bach
BWV 691</words>
				</direction-type>
				<staff>1</staff>
			</direction>
			<note>
				<pitch>
					<step>G</step>
					<octave>4</octave>
				</pitch>
				<duration>240</duration>
				<voice>1</voice>
				<type>eighth</type>
				<accidental>natural</accidental>
				<staff>1</staff>
			</note>
			<backup>
				<duration>1920</duration>
			</backup>
			<note>
				<pitch>
					<step>E</step>
					<octave>4</octave>
				</pitch>
				<duration>240</duration>
				<voice>4</voice>
				<type>eighth</type>
				<staff>2</staff>
				<beam number="1">begin</beam>
			</note>
			<note>
				<pitch>
					<step>D</step>
					<octave>4</octave>
				</pitch>
				<duration>240</duration>
				<voice>4</voice>
				<type>eighth</type>
				<staff>2</staff>
				<beam number="1">end</beam>
			</note>
			<note>
				<pitch>
					<step>D</step>
					<octave>4</octave>
				</pitch>
				<duration>240</duration>
				<voice>4</voice>
				<type>eighth</type>
				<stem>up</stem>
				<staff>2</staff>
				<beam number="1">begin</beam>
			</note>
			<note>
				<pitch>
					<step>C</step>
					<octave>4</octave>
				</pitch>
				<duration>240</duration>
				<voice>4</voice>
				<type>eighth</type>
				<stem>up</stem>
				<staff>2</staff>
				<beam number="1">end</beam>
			</note>
			<note>
				<pitch>
					<step>B</step>
					<octave>3</octave>
				</pitch>
				<duration>240</duration>
				<voice>4</voice>
				<type>eighth</type>
				<stem>up</stem>
				<staff>2</staff>
				<beam number="1">begin</beam>
			</note>
			<note>
				<pitch>
					<step>A</step>
					<octave>3</octave>
				</pitch>
				<duration>240</duration>
				<voice>4</voice>
				<type>eighth</type>
				<stem>up</stem>
				<staff>2</staff>
				<beam number="1">end</beam>
			</note>
			<note>
				<pitch>
					<step>G</step>
					<alter>1</alter>
					<octave>3</octave>
				</pitch>
				<duration>240</duration>
				<voice>4</voice>
				<type>eighth</type>
				<accidental>sharp</accidental>
				<stem>up</stem>
				<staff>2</staff>
				<notations>
					<fermata type="upright"/>
				</notations>
			</note>
			<note>
				<pitch>
					<step>B</step>
					<octave>3</octave>
				</pitch>
				<duration>240</duration>
				<voice>4</voice>
				<type>eighth</type>
				<stem>up</stem>
				<staff>2</staff>
			</note>
			<backup>
				<duration>1920</duration>
			</backup>
			<note>
				<pitch>
					<step>F</step>
					<octave>3</octave>
				</pitch>
				<duration>360</duration>
				<voice>5</voice>
				<type>eighth</type>
				<dot/>
				<stem>down</stem>
				<staff>2</staff>
				<beam number="1">begin</beam>
			</note>
			<note>
				<pitch>
					<step>E</step>
					<octave>3</octave>
				</pitch>
				<duration>120</duration>
				<voice>5</voice>
				<type>16th</type>
				<stem>down</stem>
				<staff>2</staff>
				<beam number="1">end</beam>
			</note>
			<note>
				<pitch>
					<step>D</step>
					<octave>3</octave>
				</pitch>
				<duration>480</duration>
				<voice>5</voice>
				<type>quarter</type>
				<stem>down</stem>
				<staff>2</staff>
			</note>
			<note>
				<pitch>
					<step>E</step>
					<octave>3</octave>
				</pitch>
				<duration>720</duration>
				<voice>5</voice>
				<type>quarter</type>
				<dot/>
				<stem>down</stem>
				<staff>2</staff>
			</note>
			<note>
				<pitch>
					<step>E</step>
					<octave>3</octave>
				</pitch>
				<duration>240</duration>
				<voice>5</voice>
				<type>eighth</type>
				<stem>down</stem>
				<staff>2</staff>
			</note>
		</measure>
		<measure number="3">
			<print new-system="yes">
				<system-layout>
					<system-margins>
						<left-margin>0</left-margin>
						<right-margin>0</right-margin>
					</system-margins>
					<system-distance>70</system-distance>
				</system-layout>
				<staff-layout number="1">
					<staff-distance>40</staff-distance>
				</staff-layout>
				<staff-layout number="2">
					<staff-distance>90</staff-distance>
				</staff-layout>
			</print>
			<note>
				<pitch>
					<step>G</step>
					<octave>4</octave>
				</pitch>
				<duration>120</duration>
				<voice>1</voice>
				<type>16th</type>
				<staff>1</staff>
				<beam number="1">begin</beam>
				<beam number="2">begin</beam>
			</note>
			<note>
				<pitch>
					<step>F</step>
					<octave>4</octave>
				</pitch>
				<duration>120</duration>
				<voice>1</voice>
				<type>16th</type>
				<accidental cautionary="yes">natural</accidental>
				<staff>1</staff>
				<beam number="1">continue</beam>
				<beam number="2">continue</beam>
			</note>
			<note>
				<pitch>
					<step>E</step>
					<octave>4</octave>
				</pitch>
				<duration>120</duration>
				<voice>1</voice>
				<type>16th</type>
				<staff>1</staff>
				<beam number="1">continue</beam>
				<beam number="2">continue</beam>
			</note>
			<note>
				<pitch>
					<step>F</step>
					<octave>4</octave>
				</pitch>
				<duration>120</duration>
				<voice>1</voice>
				<type>16th</type>
				<staff>1</staff>
				<beam number="1">end</beam>
				<beam number="2">end</beam>
			</note>
			<note>
				<pitch>
					<step>F</step>
					<octave>4</octave>
				</pitch>
				<duration>360</duration>
				<voice>1</voice>
				<type>eighth</type>
				<dot/>
				<staff>1</staff>
				<beam number="1">begin</beam>
			</note>
			<note>
				<pitch>
					<step>E</step>
					<octave>4</octave>
				</pitch>
				<duration>120</duration>
				<voice>1</voice>
				<type>16th</type>
				<staff>1</staff>
				<beam number="1">end</beam>
			</note>
			<note>
				<pitch>
					<step>E</step>
					<octave>4</octave>
				</pitch>
				<duration>480</duration>
				<voice>1</voice>
				<type>quarter</type>
				<staff>1</staff>
				<notations>
					<ornaments>
						<mordent relative-x="-1" default-y="5" placement="above"/>
					</ornaments>
				</notations>
			</note>
			<note>
				<rest/>
				<duration>120</duration>
				<voice>1</voice>
				<type>16th</type>
				<staff>1</staff>
			</note>
			<note>
				<pitch>
					<step>A</step>
					<octave>4</octave>
				</pitch>
				<duration>120</duration>
				<voice>1</voice>
				<type>16th</type>
				<staff>1</staff>
				<beam number="1">begin</beam>
				<beam number="2">begin</beam>
			</note>
			<note>
				<pitch>
					<step>B</step>
					<octave>4</octave>
				</pitch>
				<duration>120</duration>
				<voice>1</voice>
				<type>16th</type>
				<staff>1</staff>
				<beam number="1">continue</beam>
				<beam number="2">continue</beam>
			</note>
			<note>
				<pitch>
					<step>C</step>
					<octave>5</octave>
				</pitch>
				<duration>120</duration>
				<voice>1</voice>
				<type>16th</type>
				<staff>1</staff>
				<beam number="1">end</beam>
				<beam number="2">end</beam>
				<notations>
					<ornaments>
						<mordent relative-x="-6" default-y="4" placement="above"/>
					</ornaments>
				</notations>
			</note>
			<backup>
				<duration>1920</duration>
			</backup>
			<note>
				<pitch>
					<step>C</step>
					<octave>4</octave>
				</pitch>
				<duration>720</duration>
				<voice>4</voice>
				<type>quarter</type>
				<dot/>
				<stem>up</stem>
				<staff>2</staff>
			</note>
			<note>
				<pitch>
					<step>B</step>
					<octave>3</octave>
				</pitch>
				<duration>240</duration>
				<tie type="start"/>
				<voice>4</voice>
				<type>eighth</type>
				<stem>up</stem>
				<staff>2</staff>
				<notations>
					<tied type="start"/>
				</notations>
			</note>
			<note>
				<pitch>
					<step>B</step>
					<octave>3</octave>
				</pitch>
				<duration>240</duration>
				<tie type="stop"/>
				<voice>4</voice>
				<type>eighth</type>
				<stem>up</stem>
				<staff>2</staff>
				<beam number="1">begin</beam>
				<notations>
					<tied type="stop"/>
				</notations>
			</note>
			<note>
				<pitch>
					<step>A</step>
					<octave>3</octave>
				</pitch>
				<duration>120</duration>
				<voice>4</voice>
				<type>16th</type>
				<stem>up</stem>
				<staff>2</staff>
				<beam number="1">continue</beam>
				<beam number="2">begin</beam>
			</note>
			<note>
				<pitch>
					<step>G</step>
					<alter>1</alter>
					<octave>3</octave>
				</pitch>
				<duration>120</duration>
				<voice>4</voice>
				<type>16th</type>
				<accidental>sharp</accidental>
				<stem>up</stem>
				<staff>2</staff>
				<beam number="1">end</beam>
				<beam number="2">end</beam>
			</note>
			<note>
				<pitch>
					<step>A</step>
					<octave>3</octave>
				</pitch>
				<duration>480</duration>
				<voice>4</voice>
				<type>quarter</type>
				<stem>up</stem>
				<staff>2</staff>
			</note>
			<backup>
				<duration>1920</duration>
			</backup>
			<note>
				<pitch>
					<step>A</step>
					<octave>3</octave>
				</pitch>
				<duration>480</duration>
				<voice>5</voice>
				<type>quarter</type>
				<stem>down</stem>
				<staff>2</staff>
			</note>
			<note>
				<pitch>
					<step>D</step>
					<octave>3</octave>
				</pitch>
				<duration>240</duration>
				<voice>5</voice>
				<type>eighth</type>
				<stem>down</stem>
				<staff>2</staff>
				<beam number="1">begin</beam>
			</note>
			<note>
				<pitch>
					<step>G</step>
					<octave>3</octave>
				</pitch>
				<duration>240</duration>
				<voice>5</voice>
				<type>eighth</type>
				<accidental cautionary="yes">natural</accidental>
				<stem>down</stem>
				<staff>2</staff>
				<beam number="1">end</beam>
			</note>
			<note>
				<pitch>
					<step>C</step>
					<octave>3</octave>
				</pitch>
				<duration>480</duration>
				<voice>5</voice>
				<type>quarter</type>
				<stem>down</stem>
				<staff>2</staff>
			</note>
			<note>
				<pitch>
					<step>F</step>
					<octave>3</octave>
				</pitch>
				<duration>240</duration>
				<voice>5</voice>
				<type>eighth</type>
				<stem>down</stem>
				<staff>2</staff>
				<beam number="1">begin</beam>
			</note>
			<note>
				<pitch>
					<step>E</step>
					<octave>3</octave>
				</pitch>
				<duration>240</duration>
				<voice>5</voice>
				<type>eighth</type>
				<stem>down</stem>
				<staff>2</staff>
				<beam number="1">end</beam>
			</note>
		</measure>
		<measure number="4">
			<note>
				<pitch>
					<step>C</step>
					<octave>5</octave>
				</pitch>
				<duration>120</duration>
				<voice>1</voice>
				<type>16th</type>
				<staff>1</staff>
				<beam number="1">begin</beam>
				<beam number="2">begin</beam>
			</note>
			<note>
				<pitch>
					<step>B</step>
					<octave>4</octave>
				</pitch>
				<duration>120</duration>
				<voice>1</voice>
				<type>16th</type>
				<staff>1</staff>
				<beam number="1">continue</beam>
				<beam number="2">continue</beam>
			</note>
			<note>
				<pitch>
					<step>C</step>
					<octave>5</octave>
				</pitch>
				<duration>120</duration>
				<voice>1</voice>
				<type>16th</type>
				<staff>1</staff>
				<beam number="1">continue</beam>
				<beam number="2">continue</beam>
				<notations>
					<ornaments>
						<mordent relative-x="-5" default-y="3" placement="above"/>
					</ornaments>
				</notations>
			</note>
			<note>
				<pitch>
					<step>D</step>
					<octave>5</octave>
				</pitch>
				<duration>120</duration>
				<voice>1</voice>
				<type>16th</type>
				<staff>1</staff>
				<beam number="1">end</beam>
				<beam number="2">end</beam>
				<notations>
					<slur number="1" placement="below" type="start"/>
				</notations>
			</note>
			<note>
				<pitch>
					<step>G</step>
					<alter>1</alter>
					<octave>4</octave>
				</pitch>
				<duration>360</duration>
				<voice>1</voice>
				<type>eighth</type>
				<dot/>
				<accidental>sharp</accidental>
				<staff>1</staff>
				<beam number="1">begin</beam>
				<notations>
					<slur number="1" type="stop"/>
				</notations>
			</note>
			<note>
				<pitch>
					<step>A</step>
					<octave>4</octave>
				</pitch>
				<duration>120</duration>
				<voice>1</voice>
				<type>16th</type>
				<staff>1</staff>
				<beam number="1">end</beam>
			</note>
			<note>
				<pitch>
					<step>A</step>
					<octave>4</octave>
				</pitch>
				<duration>480</duration>
				<voice>1</voice>
				<type>quarter</type>
				<staff>1</staff>
				<notations>
					<ornaments>
						<mordent relative-x="-1" default-y="15" placement="above"/>
					</ornaments>
				</notations>
			</note>
			<backup>
				<duration>1440</duration>
			</backup>
			<note>
				<pitch>
					<step>D</step>
					<octave>4</octave>
				</pitch>
				<duration>240</duration>
				<voice>4</voice>
				<type>eighth</type>
				<stem>up</stem>
				<staff>2</staff>
				<beam number="1">begin</beam>
			</note>
			<note>
				<pitch>
					<step>C</step>
					<octave>4</octave>
				</pitch>
				<duration>240</duration>
				<voice>4</voice>
				<type>eighth</type>
				<stem>up</stem>
				<staff>2</staff>
				<beam number="1">end</beam>
			</note>
			<note>
				<pitch>
					<step>B</step>
					<octave>3</octave>
				</pitch>
				<duration>480</duration>
				<voice>4</voice>
				<type>quarter</type>
				<stem>up</stem>
				<staff>2</staff>
			</note>
			<note>
				<pitch>
					<step>A</step>
					<octave>3</octave>
				</pitch>
				<duration>480</duration>
				<voice>4</voice>
				<type>quarter</type>
				<stem>up</stem>
				<staff>2</staff>
			</note>
			<backup>
				<duration>1440</duration>
			</backup>
			<note>
				<pitch>
					<step>D</step>
					<octave>3</octave>
				</pitch>
				<duration>480</duration>
				<voice>5</voice>
				<type>quarter</type>
				<stem>down</stem>
				<staff>2</staff>
			</note>
			<note>
				<pitch>
					<step>E</step>
					<octave>3</octave>
				</pitch>
				<duration>480</duration>
				<voice>5</voice>
				<type>quarter</type>
				<stem>down</stem>
				<staff>2</staff>
			</note>
			<note>
				<rest/>
				<duration>240</duration>
				<voice>5</voice>
				<type>eighth</type>
				<staff>2</staff>
			</note>
			<note>
				<pitch>
					<step>A</step>
					<octave>2</octave>
				</pitch>
				<duration>240</duration>
				<voice>5</voice>
				<type>eighth</type>
				<stem>down</stem>
				<staff>2</staff>
			</note>
			<barline>
				<bar-style>light-heavy</bar-style>
				<repeat direction="backward"/>
			</barline>
		</measure>
		<measure number="5">
			<print new-system="yes">
				<system-layout>
					<system-margins>
						<left-margin>0</left-margin>
						<right-margin>0</right-margin>
					</system-margins>
					<system-distance>70</system-distance>
				</system-layout>
				<staff-layout number="1">
					<staff-distance>40</staff-distance>
				</staff-layout>
				<staff-layout number="2">
					<staff-distance>90</staff-distance>
				</staff-layout>
			</print>
			<attributes>
				<divisions>16</divisions>
				<staves>2</staves>
			</attributes>
			<note>
				<pitch>
					<step>B</step>
					<octave>4</octave>
				</pitch>
				<duration>8</duration>
				<tie type="start"/>
				<voice>1</voice>
				<type>eighth</type>
				<staff>1</staff>
				<beam number="1">begin</beam>
				<notations>
					<tied type="start"/>
					<ornaments>
						<mordent relative-x="-6" default-y="6" placement="above"/>
					</ornaments>
				</notations>
			</note>
			<note>
				<pitch>
					<step>B</step>
					<octave>4</octave>
				</pitch>
				<duration>2</duration>
				<tie type="stop"/>
				<voice>1</voice>
				<type>32nd</type>
				<staff>1</staff>
				<beam number="1">continue</beam>
				<beam number="2">begin</beam>
				<beam number="3">begin</beam>
				<notations>
					<tied type="stop"/>
				</notations>
			</note>
			<note>
				<pitch>
					<step>C</step>
					<octave>5</octave>
				</pitch>
				<duration>1</duration>
				<voice>1</voice>
				<type>64th</type>
				<staff>1</staff>
				<beam number="1">continue</beam>
				<beam number="2">continue</beam>
				<beam number="3">continue</beam>
				<beam number="4">begin</beam>
			</note>
			<note>
				<pitch>
					<step>B</step>
					<octave>4</octave>
				</pitch>
				<duration>1</duration>
				<voice>1</voice>
				<type>64th</type>
				<staff>1</staff>
				<beam number="1">continue</beam>
				<beam number="2">continue</beam>
				<beam number="3">continue</beam>
				<beam number="4">continue</beam>
			</note>
			<note>
				<pitch>
					<step>A</step>
					<octave>4</octave>
				</pitch>
				<duration>2</duration>
				<voice>1</voice>
				<type>32nd</type>
				<staff>1</staff>
				<beam number="1">continue</beam>
				<beam number="2">continue</beam>
				<beam number="3">continue</beam>
				<beam number="4">end</beam>
			</note>
			<note>
				<pitch>
					<step>B</step>
					<octave>4</octave>
				</pitch>
				<duration>2</duration>
				<voice>1</voice>
				<type>32nd</type>
				<staff>1</staff>
				<beam number="1">end</beam>
				<beam number="2">end</beam>
				<beam number="3">end</beam>
			</note>
			<backup>
				<duration>16</duration>
			</backup>
			<note>
				<rest/>
				<duration>8</duration>
				<voice>4</voice>
				<type>eighth</type>
				<staff>2</staff>
			</note>
			<note>
				<pitch>
					<step>E</step>
					<octave>3</octave>
				</pitch>
				<duration>8</duration>
				<tie type="start"/>
				<voice>4</voice>
				<type>eighth</type>
				<stem>up</stem>
				<staff>2</staff>
				<notations>
					<tied type="start"/>
				</notations>
			</note>
			<backup>
				<duration>16</duration>
			</backup>
			<note>
				<pitch>
					<step>G</step>
					<alter>1</alter>
					<octave>2</octave>
				</pitch>
				<duration>16</duration>
				<voice>5</voice>
				<type>quarter</type>
				<accidental>sharp</accidental>
				<stem>down</stem>
				<staff>2</staff>
			</note>
			<barline>
				<bar-style>regular</bar-style>
			</barline>
		</measure>
		<measure number="6">
			<note>
				<pitch>
					<step>C</step>
					<octave>5</octave>
				</pitch>
				<duration>4</duration>
				<voice>1</voice>
				<type>16th</type>
				<staff>1</staff>
				<beam number="1">begin</beam>
				<beam number="2">begin</beam>
			</note>
			<note>
				<pitch>
					<step>D</step>
					<octave>5</octave>
				</pitch>
				<duration>4</duration>
				<voice>1</voice>
				<type>16th</type>
				<staff>1</staff>
				<beam number="1">continue</beam>
				<beam number="2">continue</beam>
			</note>
			<note>
				<pitch>
					<step>C</step>
					<octave>5</octave>
				</pitch>
				<duration>4</duration>
				<voice>1</voice>
				<type>16th</type>
				<staff>1</staff>
				<beam number="1">continue</beam>
				<beam number="2">continue</beam>
			</note>
			<note>
				<pitch>
					<step>D</step>
					<octave>5</octave>
				</pitch>
				<duration>4</duration>
				<voice>1</voice>
				<type>16th</type>
				<staff>1</staff>
				<beam number="1">end</beam>
				<beam number="2">end</beam>
			</note>
			<note>
				<pitch>
					<step>D</step>
					<octave>5</octave>
				</pitch>
				<duration>12</duration>
				<voice>1</voice>
				<type>eighth</type>
				<dot/>
				<staff>1</staff>
				<beam number="1">begin</beam>
				<notations>
					<ornaments>
						<inverted-mordent relative-x="-5" default-y="8" placement="above"/>
					</ornaments>
				</notations>
			</note>
			<note>
				<pitch>
					<step>C</step>
					<octave>5</octave>
				</pitch>
				<duration>2</duration>
				<voice>1</voice>
				<type>32nd</type>
				<staff>1</staff>
				<beam number="1">continue</beam>
				<beam number="2">begin</beam>
				<beam number="3">begin</beam>
			</note>
			<note>
				<pitch>
					<step>D</step>
					<octave>5</octave>
				</pitch>
				<duration>2</duration>
				<voice>1</voice>
				<type>32nd</type>
				<staff>1</staff>
				<beam number="1">end</beam>
				<beam number="2">end</beam>
				<beam number="3">end</beam>
			</note>
			<note>
				<pitch>
					<step>E</step>
					<octave>5</octave>
				</pitch>
				<duration>16</duration>
				<voice>1</voice>
				<type>quarter</type>
				<staff>1</staff>
			</note>
			<note>
				<pitch>
					<step>E</step>
					<octave>5</octave>
				</pitch>
				<duration>4</duration>
				<voice>1</voice>
				<type>16th</type>
				<staff>1</staff>
				<beam number="1">begin</beam>
				<beam number="2">begin</beam>
			</note>
			<note>
				<pitch>
					<step>F</step>
					<octave>5</octave>
				</pitch>
				<duration>2</duration>
				<voice>1</voice>
				<type>32nd</type>
				<staff>1</staff>
				<beam number="1">continue</beam>
				<beam number="2">continue</beam>
				<beam number="3">begin</beam>
			</note>
			<note>
				<pitch>
					<step>G</step>
					<octave>5</octave>
				</pitch>
				<duration>2</duration>
				<voice>1</voice>
				<type>32nd</type>
				<staff>1</staff>
				<beam number="1">continue</beam>
				<beam number="2">continue</beam>
				<beam number="3">continue</beam>
			</note>
			<note>
				<pitch>
					<step>F</step>
					<octave>5</octave>
				</pitch>
				<duration>4</duration>
				<voice>1</voice>
				<type>16th</type>
				<staff>1</staff>
				<beam number="1">continue</beam>
				<beam number="2">continue</beam>
				<beam number="3">end</beam>
			</note>
			<note>
				<pitch>
					<step>E</step>
					<octave>5</octave>
				</pitch>
				<duration>4</duration>
				<voice>1</voice>
				<type>16th</type>
				<staff>1</staff>
				<beam number="1">end</beam>
				<beam number="2">end</beam>
				<notations>
					<ornaments>
						<inverted-mordent relative-x="-5" default-y="6" placement="above"/>
					</ornaments>
				</notations>
			</note>
			<backup>
				<duration>64</duration>
			</backup>
			<note>
				<pitch>
					<step>E</step>
					<octave>3</octave>
				</pitch>
				<duration>8</duration>
				<tie type="stop"/>
				<voice>4</voice>
				<type>eighth</type>
				<stem>up</stem>
				<staff>2</staff>
				<notations>
					<tied type="stop"/>
				</notations>
			</note>
			<note>
				<pitch>
					<step>F</step>
					<octave>3</octave>
				</pitch>
				<duration>16</duration>
				<voice>4</voice>
				<type>quarter</type>
				<stem>up</stem>
				<staff>2</staff>
			</note>
			<note>
				<pitch>
					<step>G</step>
					<octave>3</octave>
				</pitch>
				<duration>8</duration>
				<voice>4</voice>
				<type>eighth</type>
				<stem>up</stem>
				<staff>2</staff>
			</note>
			<note>
				<pitch>
					<step>G</step>
					<octave>3</octave>
				</pitch>
				<duration>8</duration>
				<voice>4</voice>
				<type>eighth</type>
				<stem>up</stem>
				<staff>2</staff>
				<beam number="1">begin</beam>
			</note>
			<note>
				<pitch>
					<step>G</step>
					<octave>3</octave>
				</pitch>
				<duration>8</duration>
				<voice>4</voice>
				<type>eighth</type>
				<stem>up</stem>
				<staff>2</staff>
				<beam number="1">end</beam>
			</note>
			<note>
				<pitch>
					<step>C</step>
					<octave>4</octave>
				</pitch>
				<duration>16</duration>
				<voice>4</voice>
				<type>quarter</type>
				<stem>up</stem>
				<staff>2</staff>
			</note>
			<backup>
				<duration>64</duration>
			</backup>
			<note>
				<pitch>
					<step>A</step>
					<octave>2</octave>
				</pitch>
				<duration>16</duration>
				<voice>5</voice>
				<type>quarter</type>
				<stem>down</stem>
				<staff>2</staff>
			</note>
			<note>
				<pitch>
					<step>B</step>
					<octave>2</octave>
				</pitch>
				<duration>16</duration>
				<voice>5</voice>
				<type>quarter</type>
				<stem>down</stem>
				<staff>2</staff>
			</note>
			<note>
				<pitch>
					<step>C</step>
					<octave>3</octave>
				</pitch>
				<duration>24</duration>
				<voice>5</voice>
				<type>quarter</type>
				<dot/>
				<stem>down</stem>
				<staff>2</staff>
			</note>
			<note>
				<pitch>
					<step>A</step>
					<octave>3</octave>
				</pitch>
				<duration>8</duration>
				<voice>5</voice>
				<type>eighth</type>
				<stem>down</stem>
				<staff>2</staff>
			</note>
		</measure>
		<measure number="7">
			<note>
				<pitch>
					<step>A</step>
					<octave>5</octave>
				</pitch>
				<duration>4</duration>
				<voice>1</voice>
				<type>16th</type>
				<staff>1</staff>
				<beam number="1">begin</beam>
				<beam number="2">begin</beam>
			</note>
			<note>
				<pitch>
					<step>B</step>
					<octave>4</octave>
				</pitch>
				<duration>4</duration>
				<voice>1</voice>
				<type>16th</type>
				<staff>1</staff>
				<beam number="1">continue</beam>
				<beam number="2">continue</beam>
			</note>
			<note>
				<pitch>
					<step>C</step>
					<octave>5</octave>
				</pitch>
				<duration>4</duration>
				<voice>1</voice>
				<type>16th</type>
				<staff>1</staff>
				<beam number="1">continue</beam>
				<beam number="2">continue</beam>
			</note>
			<note>
				<pitch>
					<step>D</step>
					<octave>5</octave>
				</pitch>
				<duration>4</duration>
				<voice>1</voice>
				<type>16th</type>
				<staff>1</staff>
				<beam number="1">end</beam>
				<beam number="2">end</beam>
			</note>
			<note>
				<pitch>
					<step>G</step>
					<octave>4</octave>
				</pitch>
				<duration>4</duration>
				<voice>1</voice>
				<type>16th</type>
				<staff>1</staff>
				<beam number="1">begin</beam>
				<beam number="2">begin</beam>
			</note>
			<note>
				<pitch>
					<step>F</step>
					<octave>5</octave>
				</pitch>
				<duration>4</duration>
				<voice>1</voice>
				<type>16th</type>
				<staff>1</staff>
				<beam number="1">continue</beam>
				<beam number="2">continue</beam>
			</note>
			<note>
				<pitch>
					<step>E</step>
					<octave>5</octave>
				</pitch>
				<duration>4</duration>
				<voice>1</voice>
				<type>16th</type>
				<staff>1</staff>
				<beam number="1">continue</beam>
				<beam number="2">continue</beam>
			</note>
			<note>
				<pitch>
					<step>D</step>
					<octave>5</octave>
				</pitch>
				<duration>2</duration>
				<voice>1</voice>
				<type>32nd</type>
				<staff>1</staff>
				<beam number="1">continue</beam>
				<beam number="2">continue</beam>
				<beam number="3">begin</beam>
			</note>
			<note>
				<pitch>
					<step>C</step>
					<octave>5</octave>
				</pitch>
				<duration>2</duration>
				<voice>1</voice>
				<type>32nd</type>
				<staff>1</staff>
				<beam number="1">end</beam>
				<beam number="2">end</beam>
				<beam number="3">end</beam>
			</note>
			<note>
				<pitch>
					<step>C</step>
					<octave>5</octave>
				</pitch>
				<duration>16</duration>
				<voice>1</voice>
				<type>quarter</type>
				<staff>1</staff>
				<notations>
					<ornaments>
						<mordent relative-x="-3" default-y="3" placement="above"/>
					</ornaments>
					<fermata type="upright"/>
				</notations>
			</note>
			<note>
				<pitch>
					<step>E</step>
					<octave>5</octave>
				</pitch>
				<duration>4</duration>
				<voice>1</voice>
				<type>16th</type>
				<staff>1</staff>
				<beam number="1">begin</beam>
				<beam number="2">begin</beam>
				<notations>
					<slur number="1" placement="above" type="start"/>
				</notations>
			</note>
			<note>
				<pitch>
					<step>G</step>
					<octave>5</octave>
				</pitch>
				<duration>4</duration>
				<voice>1</voice>
				<type>16th</type>
				<staff>1</staff>
				<beam number="1">continue</beam>
				<beam number="2">continue</beam>
			</note>
			<note>
				<pitch>
					<step>F</step>
					<octave>5</octave>
				</pitch>
				<duration>4</duration>
				<voice>1</voice>
				<type>16th</type>
				<staff>1</staff>
				<beam number="1">continue</beam>
				<beam number="2">continue</beam>
			</note>
			<note>
				<pitch>
					<step>E</step>
					<octave>5</octave>
				</pitch>
				<duration>4</duration>
				<voice>1</voice>
				<type>16th</type>
				<staff>1</staff>
				<beam number="1">end</beam>
				<beam number="2">end</beam>
				<notations>
					<slur number="1" type="stop"/>
				</notations>
			</note>
			<backup>
				<duration>64</duration>
			</backup>
			<note>
				<pitch>
					<step>C</step>
					<octave>4</octave>
				</pitch>
				<duration>16</duration>
				<voice>4</voice>
				<type>quarter</type>
				<stem>up</stem>
				<staff>2</staff>
			</note>
			<note>
				<pitch>
					<step>C</step>
					<octave>4</octave>
				</pitch>
				<duration>8</duration>
				<voice>4</voice>
				<type>eighth</type>
				<staff>2</staff>
				<beam number="1">begin</beam>
			</note>
			<note>
				<pitch>
					<step>B</step>
					<octave>3</octave>
				</pitch>
				<duration>8</duration>
				<voice>4</voice>
				<type>eighth</type>
				<staff>2</staff>
				<beam number="1">end</beam>
			</note>
			<note>
				<rest/>
				<duration>4</duration>
				<voice>4</voice>
				<type>16th</type>
				<staff>2</staff>
			</note>
			<note>
				<pitch>
					<step>G</step>
					<octave>3</octave>
				</pitch>
				<duration>4</duration>
				<voice>4</voice>
				<type>16th</type>
				<staff>2</staff>
				<beam number="1">begin</beam>
				<beam number="2">begin</beam>
			</note>
			<note>
				<pitch>
					<step>A</step>
					<octave>3</octave>
				</pitch>
				<duration>4</duration>
				<voice>4</voice>
				<type>16th</type>
				<staff>2</staff>
				<beam number="1">continue</beam>
				<beam number="2">continue</beam>
			</note>
			<note>
				<pitch>
					<step>B</step>
					<octave>3</octave>
				</pitch>
				<duration>4</duration>
				<voice>4</voice>
				<type>16th</type>
				<staff>2</staff>
				<beam number="1">end</beam>
				<beam number="2">end</beam>
			</note>
			<note>
				<pitch>
					<step>C</step>
					<octave>4</octave>
				</pitch>
				<duration>16</duration>
				<voice>4</voice>
				<type>quarter</type>
				<stem>up</stem>
				<staff>2</staff>
			</note>
			<backup>
				<duration>64</duration>
			</backup>
			<note>
				<pitch>
					<step>F</step>
					<octave>3</octave>
				</pitch>
				<duration>8</duration>
				<voice>5</voice>
				<type>eighth</type>
				<staff>2</staff>
				<beam number="1">begin</beam>
			</note>
			<note>
				<pitch>
					<step>F</step>
					<alter>1</alter>
					<octave>3</octave>
				</pitch>
				<duration>8</duration>
				<voice>5</voice>
				<type>eighth</type>
				<accidental>sharp</accidental>
				<staff>2</staff>
				<beam number="1">end</beam>
			</note>
			<note>
				<pitch>
					<step>G</step>
					<octave>3</octave>
				</pitch>
				<duration>16</duration>
				<voice>5</voice>
				<type>quarter</type>
				<stem>down</stem>
				<staff>2</staff>
			</note>
			<note>
				<pitch>
					<step>C</step>
					<octave>3</octave>
				</pitch>
				<duration>16</duration>
				<voice>5</voice>
				<type>quarter</type>
				<stem>down</stem>
				<staff>2</staff>
			</note>
			<note>
				<rest/>
				<duration>8</duration>
				<voice>5</voice>
				<type>eighth</type>
				<staff>2</staff>
			</note>
			<note>
				<pitch>
					<step>A</step>
					<octave>3</octave>
				</pitch>
				<duration>8</duration>
				<tie type="start"/>
				<voice>5</voice>
				<type>eighth</type>
				<stem>down</stem>
				<staff>2</staff>
				<notations>
					<tied type="start"/>
				</notations>
			</note>
		</measure>
		<measure number="8">
			<print new-system="yes">
				<system-layout>
					<system-margins>
						<left-margin>0</left-margin>
						<right-margin>0</right-margin>
					</system-margins>
					<system-distance>70</system-distance>
				</system-layout>
				<staff-layout number="1">
					<staff-distance>40</staff-distance>
				</staff-layout>
				<staff-layout number="2">
					<staff-distance>90</staff-distance>
				</staff-layout>
			</print>
			<attributes>
				<divisions>480</divisions>
				<staves>2</staves>
			</attributes>
			<note>
				<pitch>
					<step>D</step>
					<octave>5</octave>
				</pitch>
				<duration>120</duration>
				<voice>1</voice>
				<type>16th</type>
				<stem>down</stem>
				<staff>1</staff>
				<beam number="1">begin</beam>
				<beam number="2">begin</beam>
				<notations>
					<slur number="1" placement="above" type="start"/>
				</notations>
			</note>
			<note>
				<pitch>
					<step>C</step>
					<octave>5</octave>
				</pitch>
				<duration>120</duration>
				<voice>1</voice>
				<type>16th</type>
				<stem>down</stem>
				<staff>1</staff>
				<beam number="1">continue</beam>
				<beam number="2">continue</beam>
			</note>
			<note>
				<pitch>
					<step>B</step>
					<octave>4</octave>
				</pitch>
				<duration>120</duration>
				<voice>1</voice>
				<type>16th</type>
				<stem>down</stem>
				<staff>1</staff>
				<beam number="1">continue</beam>
				<beam number="2">continue</beam>
			</note>
			<note>
				<pitch>
					<step>C</step>
					<octave>5</octave>
				</pitch>
				<duration>120</duration>
				<voice>1</voice>
				<type>16th</type>
				<stem>down</stem>
				<staff>1</staff>
				<beam number="1">end</beam>
				<beam number="2">end</beam>
				<notations>
					<slur number="1" type="stop"/>
				</notations>
			</note>
			<note>
				<pitch>
					<step>C</step>
					<octave>5</octave>
				</pitch>
				<duration>360</duration>
				<voice>1</voice>
				<type>eighth</type>
				<dot/>
				<stem>down</stem>
				<staff>1</staff>
				<beam number="1">begin</beam>
				<notations>
					<ornaments>
						<inverted-mordent relative-x="-2" default-y="3" placement="above"/>
					</ornaments>
				</notations>
			</note>
			<note>
				<pitch>
					<step>B</step>
					<octave>4</octave>
				</pitch>
				<duration>120</duration>
				<voice>1</voice>
				<type>16th</type>
				<stem>down</stem>
				<staff>1</staff>
				<beam number="1">end</beam>
			</note>
			<note>
				<pitch>
					<step>C</step>
					<octave>5</octave>
				</pitch>
				<duration>120</duration>
				<voice>1</voice>
				<type>16th</type>
				<staff>1</staff>
				<beam number="1">begin</beam>
				<beam number="2">begin</beam>
			</note>
			<note>
				<pitch>
					<step>B</step>
					<octave>4</octave>
				</pitch>
				<duration>120</duration>
				<voice>1</voice>
				<type>16th</type>
				<staff>1</staff>
				<beam number="1">continue</beam>
				<beam number="2">continue</beam>
			</note>
			<note>
				<pitch>
					<step>A</step>
					<octave>4</octave>
				</pitch>
				<duration>120</duration>
				<voice>1</voice>
				<type>16th</type>
				<staff>1</staff>
				<beam number="1">continue</beam>
				<beam number="2">continue</beam>
				<notations>
					<ornaments>
						<inverted-mordent relative-x="-5" default-y="17" placement="above"/>
					</ornaments>
				</notations>
			</note>
			<note>
				<pitch>
					<step>G</step>
					<alter>1</alter>
					<octave>4</octave>
				</pitch>
				<duration>120</duration>
				<voice>1</voice>
				<type>16th</type>
				<accidental>sharp</accidental>
				<staff>1</staff>
				<beam number="1">end</beam>
				<beam number="2">end</beam>
			</note>
			<note print-object="no">
				<rest/>
				<duration>480</duration>
				<voice>1</voice>
				<type>quarter</type>
				<staff>1</staff>
			</note>
			<backup>
				<duration>1920</duration>
			</backup>
			<note print-object="no">
				<rest/>
				<duration>240</duration>
				<voice>2</voice>
				<type>eighth</type>
				<staff>1</staff>
			</note>
			<note print-object="no">
				<rest/>
				<duration>240</duration>
				<voice>2</voice>
				<type>eighth</type>
				<staff>1</staff>
			</note>
			<note print-object="no">
				<rest/>
				<duration>240</duration>
				<voice>2</voice>
				<type>eighth</type>
				<staff>1</staff>
			</note>
			<note print-object="no">
				<rest/>
				<duration>240</duration>
				<voice>2</voice>
				<type>eighth</type>
				<staff>1</staff>
			</note>
			<note print-object="no">
				<rest/>
				<duration>240</duration>
				<voice>2</voice>
				<type>eighth</type>
				<staff>1</staff>
			</note>
			<note print-object="no">
				<rest/>
				<duration>240</duration>
				<voice>2</voice>
				<type>eighth</type>
				<staff>1</staff>
			</note>
			<note>
				<grace slash="no"/>
				<pitch>
					<step>G</step>
					<octave>4</octave>
				</pitch>
				<voice>2</voice>
				<type>eighth</type>
				<stem>up</stem>
				<staff>1</staff>
				<notations>
					<slur number="1" placement="below" type="start"/>
				</notations>
			</note>
			<note>
				<pitch>
					<step>A</step>
					<octave>4</octave>
				</pitch>
				<duration>240</duration>
				<voice>2</voice>
				<type>eighth</type>
				<staff>1</staff>
				<beam number="1">begin</beam>
				<notations>
					<slur number="1" type="stop"/>
					<ornaments>
						<mordent relative-x="-6" default-y="0" placement="below"/>
					</ornaments>
				</notations>
			</note>
			<note>
				<pitch>
					<step>C</step>
					<octave>5</octave>
				</pitch>
				<duration>120</duration>
				<voice>2</voice>
				<type>16th</type>
				<staff>1</staff>
				<beam number="1">continue</beam>
				<beam number="2">begin</beam>
			</note>
			<note>
				<pitch>
					<step>B</step>
					<octave>4</octave>
				</pitch>
				<duration>120</duration>
				<voice>2</voice>
				<type>16th</type>
				<staff>1</staff>
				<beam number="1">end</beam>
				<beam number="2">end</beam>
			</note>
			<backup>
				<duration>1920</duration>
			</backup>
			<note print-object="no">
				<rest/>
				<duration>1920</duration>
				<voice>3</voice>
				<type>whole</type>
				<staff>1</staff>
			</note>
			<backup>
				<duration>1920</duration>
			</backup>
			<note>
				<pitch>
					<step>B</step>
					<octave>3</octave>
				</pitch>
				<duration>480</duration>
				<voice>4</voice>
				<type>quarter</type>
				<stem>up</stem>
				<staff>2</staff>
			</note>
			<note>
				<pitch>
					<step>A</step>
					<octave>3</octave>
				</pitch>
				<duration>480</duration>
				<tie type="start"/>
				<voice>4</voice>
				<type>quarter</type>
				<stem>up</stem>
				<staff>2</staff>
				<notations>
					<tied type="start"/>
				</notations>
			</note>
			<note>
				<pitch>
					<step>A</step>
					<octave>3</octave>
				</pitch>
				<duration>240</duration>
				<tie type="stop"/>
				<voice>4</voice>
				<type>eighth</type>
				<stem>up</stem>
				<staff>2</staff>
				<beam number="1">begin</beam>
				<notations>
					<tied type="stop"/>
				</notations>
			</note>
			<note>
				<pitch>
					<step>D</step>
					<octave>4</octave>
				</pitch>
				<duration>240</duration>
				<voice>4</voice>
				<type>eighth</type>
				<stem>up</stem>
				<staff>2</staff>
				<beam number="1">end</beam>
			</note>
			<note>
				<pitch>
					<step>C</step>
					<octave>4</octave>
				</pitch>
				<duration>240</duration>
				<voice>4</voice>
				<type>eighth</type>
				<stem>up</stem>
				<staff>2</staff>
				<beam number="1">begin</beam>
			</note>
			<note>
				<pitch>
					<step>B</step>
					<octave>3</octave>
				</pitch>
				<duration>240</duration>
				<voice>4</voice>
				<type>eighth</type>
				<stem>up</stem>
				<staff>2</staff>
				<beam number="1">end</beam>
			</note>
			<backup>
				<duration>1920</duration>
			</backup>
			<note>
				<pitch>
					<step>A</step>
					<octave>3</octave>
				</pitch>
				<duration>240</duration>
				<tie type="stop"/>
				<voice>5</voice>
				<type>eighth</type>
				<stem>down</stem>
				<staff>2</staff>
				<beam number="1">begin</beam>
				<notations>
					<tied type="stop"/>
				</notations>
			</note>
			<note>
				<pitch>
					<step>G</step>
					<alter>1</alter>
					<octave>3</octave>
				</pitch>
				<duration>240</duration>
				<voice>5</voice>
				<type>eighth</type>
				<accidental>sharp</accidental>
				<staff>2</staff>
				<beam number="1">end</beam>
			</note>
			<note>
				<pitch>
					<step>A</step>
					<octave>3</octave>
				</pitch>
				<duration>240</duration>
				<voice>5</voice>
				<type>eighth</type>
				<stem>down</stem>
				<staff>2</staff>
				<beam number="1">begin</beam>
			</note>
			<note>
				<pitch>
					<step>C</step>
					<octave>3</octave>
				</pitch>
				<duration>240</duration>
				<voice>5</voice>
				<type>eighth</type>
				<stem>down</stem>
				<staff>2</staff>
				<beam number="1">end</beam>
			</note>
			<note>
				<pitch>
					<step>D</step>
					<octave>3</octave>
				</pitch>
				<duration>240</duration>
				<voice>5</voice>
				<type>eighth</type>
				<stem>down</stem>
				<staff>2</staff>
				<beam number="1">begin</beam>
			</note>
			<note>
				<pitch>
					<step>E</step>
					<octave>3</octave>
				</pitch>
				<duration>240</duration>
				<voice>5</voice>
				<type>eighth</type>
				<stem>down</stem>
				<staff>2</staff>
				<beam number="1">end</beam>
			</note>
			<note>
				<pitch>
					<step>F</step>
					<alter>1</alter>
					<octave>3</octave>
				</pitch>
				<duration>240</duration>
				<voice>5</voice>
				<type>eighth</type>
				<accidental>sharp</accidental>
				<stem>down</stem>
				<staff>2</staff>
				<beam number="1">begin</beam>
			</note>
			<note>
				<pitch>
					<step>G</step>
					<alter>1</alter>
					<octave>3</octave>
				</pitch>
				<duration>240</duration>
				<voice>5</voice>
				<type>eighth</type>
				<stem>down</stem>
				<staff>2</staff>
				<beam number="1">end</beam>
			</note>
		</measure>
		<measure number="9">
			<note print-object="no">
				<rest/>
				<duration>960</duration>
				<voice>1</voice>
				<type>half</type>
				<staff>1</staff>
			</note>
			<note>
				<pitch>
					<step>A</step>
					<octave>4</octave>
				</pitch>
				<duration>480</duration>
				<tie type="start"/>
				<voice>1</voice>
				<type>quarter</type>
				<stem>up</stem>
				<staff>1</staff>
				<notations>
					<tied type="start"/>
				</notations>
			</note>
			<note>
				<pitch>
					<step>A</step>
					<octave>4</octave>
				</pitch>
				<duration>240</duration>
				<tie type="stop"/>
				<voice>1</voice>
				<type>eighth</type>
				<stem>up</stem>
				<staff>1</staff>
				<notations>
					<tied type="stop"/>
				</notations>
			</note>
			<backup>
				<duration>1680</duration>
			</backup>
			<note>
				<pitch>
					<step>C</step>
					<octave>5</octave>
				</pitch>
				<duration>240</duration>
				<voice>2</voice>
				<type>eighth</type>
				<stem>down</stem>
				<staff>1</staff>
				<beam number="1">begin</beam>
				<notations>
					<ornaments>
						<mordent relative-x="-8" default-y="5" placement="above"/>
					</ornaments>
				</notations>
			</note>
			<note>
				<pitch>
					<step>D</step>
					<octave>5</octave>
				</pitch>
				<duration>120</duration>
				<voice>2</voice>
				<type>16th</type>
				<stem>down</stem>
				<staff>1</staff>
				<beam number="1">continue</beam>
				<beam number="2">begin</beam>
			</note>
			<note>
				<pitch>
					<step>E</step>
					<octave>5</octave>
				</pitch>
				<duration>120</duration>
				<voice>2</voice>
				<type>16th</type>
				<stem>down</stem>
				<staff>1</staff>
				<beam number="1">end</beam>
				<beam number="2">end</beam>
			</note>
			<note>
				<pitch>
					<step>C</step>
					<octave>5</octave>
				</pitch>
				<duration>240</duration>
				<voice>2</voice>
				<type>eighth</type>
				<stem>down</stem>
				<staff>1</staff>
				<beam number="1">begin</beam>
				<notations>
					<ornaments>
						<inverted-mordent relative-x="-5" default-y="5" placement="above"/>
					</ornaments>
				</notations>
			</note>
			<note>
				<pitch>
					<step>B</step>
					<octave>4</octave>
				</pitch>
				<duration>120</duration>
				<voice>2</voice>
				<type>16th</type>
				<stem>down</stem>
				<staff>1</staff>
				<beam number="1">continue</beam>
				<beam number="2">begin</beam>
			</note>
			<note>
				<pitch>
					<step>A</step>
					<octave>4</octave>
				</pitch>
				<duration>120</duration>
				<voice>2</voice>
				<type>16th</type>
				<stem>down</stem>
				<staff>1</staff>
				<beam number="1">end</beam>
				<beam number="2">end</beam>
			</note>
			<note>
				<pitch>
					<step>A</step>
					<octave>4</octave>
				</pitch>
				<duration>120</duration>
				<voice>2</voice>
				<type>16th</type>
				<stem>down</stem>
				<staff>1</staff>
				<beam number="1">begin</beam>
				<beam number="2">begin</beam>
			</note>
			<note>
				<pitch>
					<step>E</step>
					<octave>4</octave>
				</pitch>
				<duration>120</duration>
				<voice>2</voice>
				<type>16th</type>
				<stem>down</stem>
				<staff>1</staff>
				<beam number="1">continue</beam>
				<beam number="2">continue</beam>
			</note>
			<note>
				<pitch>
					<step>C</step>
					<octave>4</octave>
				</pitch>
				<duration>240</duration>
				<tie type="start"/>
				<voice>2</voice>
				<type>eighth</type>
				<stem>down</stem>
				<staff>1</staff>
				<beam number="1">end</beam>
				<beam number="2">end</beam>
				<notations>
					<tied type="start"/>
				</notations>
			</note>
			<note>
				<pitch>
					<step>C</step>
					<octave>4</octave>
				</pitch>
				<duration>240</duration>
				<tie type="stop"/>
				<voice>2</voice>
				<type>eighth</type>
				<stem>down</stem>
				<staff>1</staff>
				<notations>
					<tied type="stop"/>
				</notations>
			</note>
			<backup>
				<duration>1680</duration>
			</backup>
			<note print-object="no">
				<rest/>
				<duration>960</duration>
				<voice>3</voice>
				<type>half</type>
				<staff>1</staff>
			</note>
			<note print-object="no">
				<rest/>
				<duration>120</duration>
				<voice>3</voice>
				<type>16th</type>
				<staff>1</staff>
			</note>
			<note>
				<pitch>
					<step>E</step>
					<octave>4</octave>
				</pitch>
				<duration>360</duration>
				<tie type="start"/>
				<voice>3</voice>
				<type>eighth</type>
				<dot/>
				<stem>up</stem>
				<staff>1</staff>
				<notations>
					<tied type="start"/>
				</notations>
			</note>
			<note>
				<pitch>
					<step>E</step>
					<octave>4</octave>
				</pitch>
				<duration>240</duration>
				<tie type="stop"/>
				<voice>3</voice>
				<type>eighth</type>
				<stem>up</stem>
				<staff>1</staff>
				<notations>
					<tied type="stop"/>
				</notations>
			</note>
			<backup>
				<duration>1680</duration>
			</backup>
			<note>
				<pitch>
					<step>A</step>
					<octave>3</octave>
				</pitch>
				<duration>720</duration>
				<voice>4</voice>
				<type>quarter</type>
				<dot/>
				<stem>up</stem>
				<staff>2</staff>
			</note>
			<note>
				<pitch>
					<step>G</step>
					<alter>1</alter>
					<octave>3</octave>
				</pitch>
				<duration>240</duration>
				<voice>4</voice>
				<type>eighth</type>
				<accidental>sharp</accidental>
				<stem>up</stem>
				<staff>2</staff>
			</note>
			<note>
				<rest/>
				<duration>240</duration>
				<voice>4</voice>
				<type>eighth</type>
				<staff>2</staff>
			</note>
			<note>
				<rest/>
				<duration>120</duration>
				<voice>4</voice>
				<type>16th</type>
				<staff>2</staff>
			</note>
			<note>
				<pitch>
					<step>E</step>
					<octave>3</octave>
				</pitch>
				<duration>120</duration>
				<voice>4</voice>
				<type>16th</type>
				<stem>up</stem>
				<staff>2</staff>
			</note>
			<note>
				<pitch>
					<step>A</step>
					<octave>3</octave>
				</pitch>
				<duration>240</duration>
				<voice>4</voice>
				<type>eighth</type>
				<stem>up</stem>
				<staff>2</staff>
			</note>
			<backup>
				<duration>1680</duration>
			</backup>
			<note>
				<pitch>
					<step>A</step>
					<octave>3</octave>
				</pitch>
				<duration>240</duration>
				<voice>5</voice>
				<type>eighth</type>
				<stem>down</stem>
				<staff>2</staff>
				<beam number="1">begin</beam>
			</note>
			<note>
				<pitch>
					<step>D</step>
					<octave>3</octave>
				</pitch>
				<duration>240</duration>
				<voice>5</voice>
				<type>eighth</type>
				<stem>down</stem>
				<staff>2</staff>
				<beam number="1">end</beam>
			</note>
			<note>
				<pitch>
					<step>E</step>
					<octave>3</octave>
				</pitch>
				<duration>480</duration>
				<voice>5</voice>
				<type>quarter</type>
				<stem>down</stem>
				<staff>2</staff>
			</note>
			<note>
				<pitch>
					<step>A</step>
					<octave>2</octave>
				</pitch>
				<duration>480</duration>
				<tie type="start"/>
				<voice>5</voice>
				<type>quarter</type>
				<stem>down</stem>
				<staff>2</staff>
				<notations>
					<tied type="start"/>
				</notations>
			</note>
			<note>
				<pitch>
					<step>A</step>
					<octave>2</octave>
				</pitch>
				<duration>240</duration>
				<tie type="stop"/>
				<voice>5</voice>
				<type>eighth</type>
				<stem>down</stem>
				<staff>2</staff>
				<notations>
					<tied type="stop"/>
					<fermata type="inverted"/>
				</notations>
			</note>
			<barline>
				<bar-style>light-heavy</bar-style>
			</barline>
		</measure>
	</part>
</score-partwise>
