<?xml version="1.0" encoding="UTF-8" standalone="no"?>
<!--MusicXML 2.0 file created by CapToMusic.py CapXML to MusicXML converter version 1.37-->
<!DOCTYPE score-partwise PUBLIC "-//Recordare//DTD MusicXML 2.0 Partwise//EN" "http://www.musicxml.org/dtds/partwise.dtd">
<score-partwise version="2.0">
	<identification>
		<encoding>
			<encoding-date>2016-05-06</encoding-date>
			<software>CapToMusic.py CapXML to MusicXML converter version 1.37</software>
			<encoding-description>Options: FinaleDolet33=1, ChordCaseMatters=1, ExportToSibelius=0</encoding-description>
		</encoding>
	</identification>
	<defaults>
		<scaling>
			<millimeters>1.44</millimeters>
			<tenths>10.0</tenths>
		</scaling>
		<page-layout>
			<page-height>2062</page-height>
			<page-width>1458</page-width>
			<page-margins type="both">
				<left-margin>69</left-margin>
				<right-margin>69</right-margin>
				<top-margin>69</top-margin>
				<bottom-margin>69</bottom-margin>
			</page-margins>
		</page-layout>
		<system-layout>
			<system-margins>
				<left-margin>0</left-margin>
				<right-margin>0</right-margin>
			</system-margins>
			<system-distance>10</system-distance>
			<top-system-distance>50</top-system-distance>
		</system-layout>
	</defaults>
	<credit>
		<credit-words default-x="1386" default-y="1971" font-family="Times New Roman" font-size="8" justify="right">BWV 20-9 S.#</credit-words>
	</credit>
	<part-list>
		<part-group type="start" number="1">
			<group-symbol>bracket</group-symbol>
		</part-group>
		<score-part id="P1">
			<part-name>Alto.</part-name>
			<part-abbreviation></part-abbreviation>
			<score-instrument id="P1-I1">
				<instrument-name>Midi_69</instrument-name>
			</score-instrument>
			<midi-instrument id="P1-I1">
				<midi-channel>1</midi-channel>
				<midi-program>69</midi-program>
			</midi-instrument>
		</score-part>
		<score-part id="P2">
			<part-name>Continuo.</part-name>
			<part-abbreviation></part-abbreviation>
			<score-instrument id="P2-I1">
				<instrument-name>Midi_43</instrument-name>
			</score-instrument>
			<midi-instrument id="P2-I1">
				<midi-channel>2</midi-channel>
				<midi-program>43</midi-program>
			</midi-instrument>
		</score-part>
		<part-group type="stop" number="1"/>
	</part-list>
	<part id="P1">
		<measure number="1">
			<print>
				<system-layout>
					<system-margins>
						<left-margin>114</left-margin>
						<right-margin>0</right-margin>
					</system-margins>
					<top-system-distance>150</top-system-distance>
				</system-layout>
				<staff-layout number="1">
					<staff-distance>100</staff-distance>
				</staff-layout>
			</print>
			<attributes>
				<divisions>480</divisions>
				<key>
					<fifths>0</fifths>
					<mode>major</mode>
				</key>
				<time symbol="common">
					<beats>4</beats>
					<beat-type>4</beat-type>
				</time>
				<clef>
					<sign>G</sign>
					<line>2</line>
				</clef>
			</attributes>
			<direction placement="above">
				<direction-type>
					<words relative-x="-52" default-y="31" font-family="Times New Roman" font-size="12" font-weight="bold">9. RECITATIVO.</words>
				</direction-type>
			</direction>
			<note>
				<rest>
					<display-step>B</display-step>
					<display-octave>4</display-octave>
				</rest>
				<duration>480</duration>
				<voice>1</voice>
				<type>quarter</type>
			</note>
			<note>
				<rest>
					<display-step>B</display-step>
					<display-octave>4</display-octave>
				</rest>
				<duration>240</duration>
				<voice>1</voice>
				<type>eighth</type>
			</note>
			<note>
				<pitch>
					<step>D</step>
					<octave>4</octave>
				</pitch>
				<duration>240</duration>
				<voice>1</voice>
				<type>eighth</type>
				<lyric default-y="-80" number="1">
					<syllabic>begin</syllabic>
					<text>Ver</text>
				</lyric>
			</note>
			<note>
				<pitch>
					<step>B</step>
					<octave>4</octave>
				</pitch>
				<duration>240</duration>
				<voice>1</voice>
				<type>eighth</type>
				<lyric default-y="-80" number="1">
					<syllabic>end</syllabic>
					<text>lass,</text>
				</lyric>
			</note>
			<note>
				<rest>
					<display-step>B</display-step>
					<display-octave>4</display-octave>
				</rest>
				<duration>120</duration>
				<voice>1</voice>
				<type>16th</type>
			</note>
			<note>
				<pitch>
					<step>B</step>
					<octave>4</octave>
				</pitch>
				<duration>120</duration>
				<voice>1</voice>
				<type>16th</type>
				<lyric default-y="-80" number="1">
					<syllabic>single</syllabic>
					<text>o</text>
				</lyric>
			</note>
			<note>
				<pitch>
					<step>D</step>
					<octave>5</octave>
				</pitch>
				<duration>240</duration>
				<voice>1</voice>
				<type>eighth</type>
				<lyric default-y="-80" number="1">
					<syllabic>single</syllabic>
					<text>Mensch,</text>
				</lyric>
			</note>
			<note>
				<pitch>
					<step>B</step>
					<octave>4</octave>
				</pitch>
				<duration>240</duration>
				<voice>1</voice>
				<type>eighth</type>
				<lyric default-y="-80" number="1">
					<syllabic>single</syllabic>
					<text>die</text>
				</lyric>
			</note>
		</measure>
		<measure number="2">
			<note>
				<pitch>
					<step>G</step>
					<alter>1</alter>
					<octave>4</octave>
				</pitch>
				<duration>240</duration>
				<voice>1</voice>
				<type>eighth</type>
				<accidental>sharp</accidental>
				<lyric default-y="-80" number="1">
					<syllabic>begin</syllabic>
					<text>Wol</text>
				</lyric>
			</note>
			<note>
				<pitch>
					<step>G</step>
					<alter>1</alter>
					<octave>4</octave>
				</pitch>
				<duration>240</duration>
				<voice>1</voice>
				<type>eighth</type>
				<lyric default-y="-80" number="1">
					<syllabic>end</syllabic>
					<text>lust</text>
				</lyric>
			</note>
			<note>
				<pitch>
					<step>A</step>
					<octave>4</octave>
				</pitch>
				<duration>240</duration>
				<voice>1</voice>
				<type>eighth</type>
				<lyric default-y="-80" number="1">
					<syllabic>begin</syllabic>
					<text>die</text>
				</lyric>
			</note>
			<note>
				<pitch>
					<step>B</step>
					<octave>4</octave>
				</pitch>
				<duration>240</duration>
				<voice>1</voice>
				<type>eighth</type>
				<lyric default-y="-80" number="1">
					<syllabic>end</syllabic>
					<text>ser</text>
				</lyric>
			</note>
			<note>
				<pitch>
					<step>C</step>
					<octave>4</octave>
				</pitch>
				<duration>480</duration>
				<voice>1</voice>
				<type>quarter</type>
				<lyric default-y="-80" number="1">
					<syllabic>single</syllabic>
					<text>Welt:</text>
				</lyric>
			</note>
			<note>
				<pitch>
					<step>C</step>
					<octave>5</octave>
				</pitch>
				<duration>240</duration>
				<voice>1</voice>
				<type>eighth</type>
				<notations>
					<articulations>
						<staccato/>
					</articulations>
				</notations>
				<lyric default-y="-80" number="1">
					<syllabic>single</syllabic>
					<text>Pracht,</text>
				</lyric>
			</note>
			<note>
				<rest>
					<display-step>B</display-step>
					<display-octave>4</display-octave>
				</rest>
				<duration>240</duration>
				<voice>1</voice>
				<type>eighth</type>
			</note>
		</measure>
		<measure number="3">
			<direction placement="above">
				<direction-type>
					<words relative-x="392" default-y="105" font-family="Times New Roman" font-size="8" justify="right">neu gesetzt: RS 01/16</words>
				</direction-type>
			</direction>
			<note>
				<rest>
					<display-step>B</display-step>
					<display-octave>4</display-octave>
				</rest>
				<duration>480</duration>
				<voice>1</voice>
				<type>quarter</type>
			</note>
			<note>
				<pitch>
					<step>C</step>
					<alter>1</alter>
					<octave>5</octave>
				</pitch>
				<duration>240</duration>
				<voice>1</voice>
				<type>eighth</type>
				<accidental>sharp</accidental>
				<lyric default-y="-80" number="1">
					<syllabic>begin</syllabic>
					<text>Hof</text>
				</lyric>
			</note>
			<note>
				<pitch>
					<step>A</step>
					<octave>4</octave>
				</pitch>
				<duration>240</duration>
				<voice>1</voice>
				<type>eighth</type>
				<lyric default-y="-80" number="1">
					<syllabic>end</syllabic>
					<text>fahrt,</text>
				</lyric>
			</note>
			<note>
				<rest>
					<display-step>B</display-step>
					<display-octave>4</display-octave>
				</rest>
				<duration>480</duration>
				<voice>1</voice>
				<type>quarter</type>
			</note>
			<note>
				<pitch>
					<step>D</step>
					<alter>1</alter>
					<octave>4</octave>
				</pitch>
				<duration>240</duration>
				<voice>1</voice>
				<type>eighth</type>
				<accidental>sharp</accidental>
				<lyric default-y="-80" number="1">
					<syllabic>begin</syllabic>
					<text>Reich</text>
				</lyric>
			</note>
			<note>
				<pitch>
					<step>D</step>
					<alter>1</alter>
					<octave>4</octave>
				</pitch>
				<duration>240</duration>
				<voice>1</voice>
				<type>eighth</type>
				<lyric default-y="-80" number="1">
					<syllabic>end</syllabic>
					<text>thum,</text>
				</lyric>
			</note>
		</measure>
		<measure number="4">
			<print new-system="yes">
				<system-layout>
					<system-margins>
						<left-margin>0</left-margin>
						<right-margin>0</right-margin>
					</system-margins>
					<system-distance>150</system-distance>
				</system-layout>
				<staff-layout number="1">
					<staff-distance>70</staff-distance>
				</staff-layout>
			</print>
			<attributes>
				<time>
					<beats>4</beats>
					<beat-type>4</beat-type>
				</time>
			</attributes>
			<note>
				<rest>
					<display-step>B</display-step>
					<display-octave>4</display-octave>
				</rest>
				<duration>240</duration>
				<voice>1</voice>
				<type>eighth</type>
			</note>
			<note>
				<pitch>
					<step>C</step>
					<octave>5</octave>
				</pitch>
				<duration>240</duration>
				<voice>1</voice>
				<type>eighth</type>
				<lyric default-y="-80" number="1">
					<syllabic>single</syllabic>
					<text>Ehr'</text>
				</lyric>
			</note>
			<note>
				<rest>
					<display-step>B</display-step>
					<display-octave>4</display-octave>
				</rest>
				<duration>240</duration>
				<voice>1</voice>
				<type>eighth</type>
			</note>
			<note>
				<pitch>
					<step>B</step>
					<octave>4</octave>
				</pitch>
				<duration>240</duration>
				<voice>1</voice>
				<type>eighth</type>
				<lyric default-y="-80" number="1">
					<syllabic>single</syllabic>
					<text>und</text>
				</lyric>
			</note>
			<note>
				<pitch>
					<step>G</step>
					<octave>4</octave>
				</pitch>
				<duration>480</duration>
				<voice>1</voice>
				<type>quarter</type>
				<lyric default-y="-80" number="1">
					<syllabic>single</syllabic>
					<text>Geld;</text>
				</lyric>
			</note>
			<note>
				<rest>
					<display-step>B</display-step>
					<display-octave>4</display-octave>
				</rest>
				<duration>240</duration>
				<voice>1</voice>
				<type>eighth</type>
			</note>
			<note>
				<pitch>
					<step>E</step>
					<octave>4</octave>
				</pitch>
				<duration>240</duration>
				<voice>1</voice>
				<type>eighth</type>
				<lyric default-y="-80" number="1">
					<syllabic>begin</syllabic>
					<text>be</text>
				</lyric>
			</note>
		</measure>
		<measure number="5">
			<note>
				<pitch>
					<step>B</step>
					<alter>-1</alter>
					<octave>4</octave>
				</pitch>
				<duration>240</duration>
				<voice>1</voice>
				<type>eighth</type>
				<accidental>flat</accidental>
				<lyric default-y="-80" number="1">
					<syllabic>middle</syllabic>
					<text>den</text>
				</lyric>
			</note>
			<note>
				<pitch>
					<step>B</step>
					<alter>-1</alter>
					<octave>4</octave>
				</pitch>
				<duration>240</duration>
				<voice>1</voice>
				<type>eighth</type>
				<lyric default-y="-80" number="1">
					<syllabic>end</syllabic>
					<text>ke</text>
				</lyric>
			</note>
			<note>
				<pitch>
					<step>D</step>
					<octave>5</octave>
				</pitch>
				<duration>240</duration>
				<voice>1</voice>
				<type>eighth</type>
				<lyric default-y="-80" number="1">
					<syllabic>single</syllabic>
					<text>doch</text>
				</lyric>
			</note>
			<note>
				<pitch>
					<step>B</step>
					<alter>-1</alter>
					<octave>4</octave>
				</pitch>
				<duration>240</duration>
				<voice>1</voice>
				<type>eighth</type>
				<lyric default-y="-80" number="1">
					<syllabic>single</syllabic>
					<text>in</text>
				</lyric>
			</note>
			<note>
				<pitch>
					<step>G</step>
					<octave>4</octave>
				</pitch>
				<duration>240</duration>
				<voice>1</voice>
				<type>eighth</type>
				<lyric default-y="-80" number="1">
					<syllabic>begin</syllabic>
					<text>die</text>
				</lyric>
			</note>
			<note>
				<pitch>
					<step>G</step>
					<octave>4</octave>
				</pitch>
				<duration>240</duration>
				<voice>1</voice>
				<type>eighth</type>
				<lyric default-y="-80" number="1">
					<syllabic>end</syllabic>
					<text>ser</text>
				</lyric>
			</note>
			<note>
				<pitch>
					<step>C</step>
					<octave>5</octave>
				</pitch>
				<duration>240</duration>
				<voice>1</voice>
				<type>eighth</type>
				<lyric default-y="-80" number="1">
					<syllabic>single</syllabic>
					<text>Zeit</text>
				</lyric>
			</note>
			<note>
				<pitch>
					<step>G</step>
					<octave>4</octave>
				</pitch>
				<duration>240</duration>
				<voice>1</voice>
				<type>eighth</type>
				<lyric default-y="-80" number="1">
					<syllabic>begin</syllabic>
					<text>an</text>
				</lyric>
			</note>
		</measure>
		<measure number="6">
			<note>
				<pitch>
					<step>A</step>
					<octave>4</octave>
				</pitch>
				<duration>480</duration>
				<voice>1</voice>
				<type>quarter</type>
				<lyric default-y="-80" number="1">
					<syllabic>end</syllabic>
					<text>noch,</text>
				</lyric>
			</note>
			<note>
				<rest>
					<display-step>B</display-step>
					<display-octave>4</display-octave>
				</rest>
				<duration>240</duration>
				<voice>1</voice>
				<type>eighth</type>
			</note>
			<note>
				<pitch>
					<step>E</step>
					<octave>4</octave>
				</pitch>
				<duration>240</duration>
				<voice>1</voice>
				<type>eighth</type>
				<lyric default-y="-80" number="1">
					<syllabic>single</syllabic>
					<text>da</text>
				</lyric>
			</note>
			<note>
				<pitch>
					<step>C</step>
					<alter>1</alter>
					<octave>4</octave>
				</pitch>
				<duration>240</duration>
				<voice>1</voice>
				<type>eighth</type>
				<accidental>sharp</accidental>
				<lyric default-y="-80" number="1">
					<syllabic>single</syllabic>
					<text>dir</text>
				</lyric>
			</note>
			<note>
				<rest>
					<display-step>B</display-step>
					<display-octave>4</display-octave>
				</rest>
				<duration>120</duration>
				<voice>1</voice>
				<type>16th</type>
			</note>
			<note>
				<pitch>
					<step>E</step>
					<octave>4</octave>
				</pitch>
				<duration>120</duration>
				<voice>1</voice>
				<type>16th</type>
				<lyric default-y="-80" number="1">
					<syllabic>single</syllabic>
					<text>der</text>
				</lyric>
			</note>
			<note>
				<pitch>
					<step>A</step>
					<octave>4</octave>
				</pitch>
				<duration>120</duration>
				<voice>1</voice>
				<type>16th</type>
				<lyric default-y="-80" number="1">
					<syllabic>single</syllabic>
					<text>Baum</text>
				</lyric>
			</note>
			<note>
				<pitch>
					<step>A</step>
					<octave>4</octave>
				</pitch>
				<duration>120</duration>
				<voice>1</voice>
				<type>16th</type>
				<lyric default-y="-80" number="1">
					<syllabic>single</syllabic>
					<text>des</text>
				</lyric>
			</note>
			<note>
				<pitch>
					<step>B</step>
					<octave>4</octave>
				</pitch>
				<duration>120</duration>
				<voice>1</voice>
				<type>16th</type>
				<accidental cautionary="yes">natural</accidental>
				<lyric default-y="-80" number="1">
					<syllabic>begin</syllabic>
					<text>Le</text>
				</lyric>
			</note>
			<note>
				<pitch>
					<step>C</step>
					<alter>1</alter>
					<octave>5</octave>
				</pitch>
				<duration>120</duration>
				<voice>1</voice>
				<type>16th</type>
				<accidental>sharp</accidental>
				<lyric default-y="-80" number="1">
					<syllabic>end</syllabic>
					<text>bens</text>
				</lyric>
			</note>
		</measure>
		<measure number="7">
			<print new-system="yes">
				<system-layout>
					<system-margins>
						<left-margin>0</left-margin>
						<right-margin>0</right-margin>
					</system-margins>
					<system-distance>150</system-distance>
				</system-layout>
				<staff-layout number="1">
					<staff-distance>70</staff-distance>
				</staff-layout>
			</print>
			<note>
				<pitch>
					<step>D</step>
					<octave>5</octave>
				</pitch>
				<duration>240</duration>
				<voice>1</voice>
				<type>eighth</type>
				<lyric default-y="-80" number="1">
					<syllabic>begin</syllabic>
					<text>grü</text>
				</lyric>
			</note>
			<note>
				<pitch>
					<step>D</step>
					<octave>5</octave>
				</pitch>
				<duration>240</duration>
				<voice>1</voice>
				<type>eighth</type>
				<lyric default-y="-80" number="1">
					<syllabic>end</syllabic>
					<text>net,</text>
				</lyric>
			</note>
			<note>
				<rest>
					<display-step>B</display-step>
					<display-octave>4</display-octave>
				</rest>
				<duration>240</duration>
				<voice>1</voice>
				<type>eighth</type>
			</note>
			<note>
				<pitch>
					<step>A</step>
					<octave>4</octave>
				</pitch>
				<duration>240</duration>
				<voice>1</voice>
				<type>eighth</type>
				<lyric default-y="-80" number="1">
					<syllabic>single</syllabic>
					<text>was</text>
				</lyric>
			</note>
			<note>
				<pitch>
					<step>F</step>
					<alter>1</alter>
					<octave>4</octave>
				</pitch>
				<duration>240</duration>
				<voice>1</voice>
				<type>eighth</type>
				<accidental>sharp</accidental>
				<lyric default-y="-80" number="1">
					<syllabic>single</syllabic>
					<text>dir</text>
				</lyric>
			</note>
			<note>
				<pitch>
					<step>D</step>
					<octave>4</octave>
				</pitch>
				<duration>240</duration>
				<voice>1</voice>
				<type>eighth</type>
				<lyric default-y="-80" number="1">
					<syllabic>single</syllabic>
					<text>zu</text>
				</lyric>
			</note>
			<note>
				<pitch>
					<step>C</step>
					<octave>5</octave>
				</pitch>
				<duration>240</duration>
				<voice>1</voice>
				<type>eighth</type>
				<lyric default-y="-80" number="1">
					<syllabic>begin</syllabic>
					<text>dei</text>
				</lyric>
			</note>
			<note>
				<pitch>
					<step>B</step>
					<octave>4</octave>
				</pitch>
				<duration>240</duration>
				<voice>1</voice>
				<type>eighth</type>
				<lyric default-y="-80" number="1">
					<syllabic>end</syllabic>
					<text>nem</text>
				</lyric>
			</note>
		</measure>
		<measure number="8">
			<note>
				<pitch>
					<step>F</step>
					<alter>1</alter>
					<octave>4</octave>
				</pitch>
				<duration>240</duration>
				<voice>1</voice>
				<type>eighth</type>
				<accidental>sharp</accidental>
				<lyric default-y="-80" number="1">
					<syllabic>begin</syllabic>
					<text>Frie</text>
				</lyric>
			</note>
			<note>
				<pitch>
					<step>G</step>
					<octave>4</octave>
				</pitch>
				<duration>240</duration>
				<voice>1</voice>
				<type>eighth</type>
				<lyric default-y="-80" number="1">
					<syllabic>end</syllabic>
					<text>den</text>
				</lyric>
			</note>
			<note>
				<pitch>
					<step>G</step>
					<octave>4</octave>
				</pitch>
				<duration>240</duration>
				<voice>1</voice>
				<type>eighth</type>
				<lyric default-y="-80" number="1">
					<syllabic>begin</syllabic>
					<text>die</text>
				</lyric>
			</note>
			<note>
				<pitch>
					<step>D</step>
					<octave>4</octave>
				</pitch>
				<duration>240</duration>
				<voice>1</voice>
				<type>eighth</type>
				<lyric default-y="-80" number="1">
					<syllabic>end</syllabic>
					<text>net.</text>
				</lyric>
			</note>
			<note>
				<rest>
					<display-step>B</display-step>
					<display-octave>4</display-octave>
				</rest>
				<duration>480</duration>
				<voice>1</voice>
				<type>quarter</type>
			</note>
			<note>
				<rest>
					<display-step>B</display-step>
					<display-octave>4</display-octave>
				</rest>
				<duration>240</duration>
				<voice>1</voice>
				<type>eighth</type>
			</note>
			<note>
				<pitch>
					<step>G</step>
					<octave>4</octave>
				</pitch>
				<duration>240</duration>
				<voice>1</voice>
				<type>eighth</type>
				<lyric default-y="-80" number="1">
					<syllabic>begin</syllabic>
					<text>Viel</text>
				</lyric>
			</note>
		</measure>
		<measure number="9">
			<note>
				<pitch>
					<step>D</step>
					<octave>5</octave>
				</pitch>
				<duration>240</duration>
				<voice>1</voice>
				<type>eighth</type>
				<lyric default-y="-80" number="1">
					<syllabic>end</syllabic>
					<text>leicht</text>
				</lyric>
			</note>
			<note>
				<rest>
					<display-step>B</display-step>
					<display-octave>4</display-octave>
				</rest>
				<duration>120</duration>
				<voice>1</voice>
				<type>16th</type>
			</note>
			<note>
				<pitch>
					<step>B</step>
					<octave>4</octave>
				</pitch>
				<duration>120</duration>
				<voice>1</voice>
				<type>16th</type>
				<lyric default-y="-80" number="1">
					<syllabic>single</syllabic>
					<text>ist</text>
				</lyric>
			</note>
			<note>
				<pitch>
					<step>G</step>
					<octave>4</octave>
				</pitch>
				<duration>120</duration>
				<voice>1</voice>
				<type>16th</type>
				<lyric default-y="-80" number="1">
					<syllabic>single</syllabic>
					<text>diess</text>
				</lyric>
			</note>
			<note>
				<pitch>
					<step>G</step>
					<octave>4</octave>
				</pitch>
				<duration>120</duration>
				<voice>1</voice>
				<type>16th</type>
				<lyric default-y="-80" number="1">
					<syllabic>single</syllabic>
					<text>der</text>
				</lyric>
			</note>
			<note>
				<pitch>
					<step>A</step>
					<octave>4</octave>
				</pitch>
				<duration>120</duration>
				<voice>1</voice>
				<type>16th</type>
				<lyric default-y="-80" number="1">
					<syllabic>begin</syllabic>
					<text>letz</text>
				</lyric>
			</note>
			<note>
				<pitch>
					<step>B</step>
					<octave>4</octave>
				</pitch>
				<duration>120</duration>
				<voice>1</voice>
				<type>16th</type>
				<lyric default-y="-80" number="1">
					<syllabic>end</syllabic>
					<text>te</text>
				</lyric>
			</note>
			<note>
				<pitch>
					<step>C</step>
					<octave>5</octave>
				</pitch>
				<duration>240</duration>
				<voice>1</voice>
				<type>eighth</type>
				<lyric default-y="-80" number="1">
					<syllabic>single</syllabic>
					<text>Tag,</text>
				</lyric>
			</note>
			<note>
				<rest>
					<display-step>B</display-step>
					<display-octave>4</display-octave>
				</rest>
				<duration>120</duration>
				<voice>1</voice>
				<type>16th</type>
			</note>
			<note>
				<pitch>
					<step>G</step>
					<octave>4</octave>
				</pitch>
				<duration>120</duration>
				<voice>1</voice>
				<type>16th</type>
				<lyric default-y="-80" number="1">
					<syllabic>single</syllabic>
					<text>kein</text>
				</lyric>
			</note>
			<note>
				<pitch>
					<step>B</step>
					<alter>-1</alter>
					<octave>4</octave>
				</pitch>
				<duration>240</duration>
				<voice>1</voice>
				<type>eighth</type>
				<accidental>flat</accidental>
				<lyric default-y="-80" number="1">
					<syllabic>single</syllabic>
					<text>Mensch</text>
				</lyric>
			</note>
			<note>
				<pitch>
					<step>E</step>
					<octave>4</octave>
				</pitch>
				<duration>240</duration>
				<voice>1</voice>
				<type>eighth</type>
				<lyric default-y="-80" number="1">
					<syllabic>single</syllabic>
					<text>weiss,</text>
				</lyric>
			</note>
		</measure>
		<measure number="10">
			<print new-system="yes">
				<system-layout>
					<system-margins>
						<left-margin>0</left-margin>
						<right-margin>0</right-margin>
					</system-margins>
					<system-distance>160</system-distance>
				</system-layout>
				<staff-layout number="1">
					<staff-distance>70</staff-distance>
				</staff-layout>
			</print>
			<note>
				<rest>
					<display-step>B</display-step>
					<display-octave>4</display-octave>
				</rest>
				<duration>240</duration>
				<voice>1</voice>
				<type>eighth</type>
			</note>
			<note>
				<pitch>
					<step>F</step>
					<octave>4</octave>
				</pitch>
				<duration>120</duration>
				<voice>1</voice>
				<type>16th</type>
				<lyric default-y="-80" number="1">
					<syllabic>single</syllabic>
					<text>wenn</text>
				</lyric>
			</note>
			<note>
				<pitch>
					<step>G</step>
					<octave>4</octave>
				</pitch>
				<duration>120</duration>
				<voice>1</voice>
				<type>16th</type>
				<lyric default-y="-80" number="1">
					<syllabic>single</syllabic>
					<text>er</text>
				</lyric>
			</note>
			<note>
				<pitch>
					<step>C</step>
					<alter>1</alter>
					<octave>4</octave>
				</pitch>
				<duration>360</duration>
				<voice>1</voice>
				<type>eighth</type>
				<dot/>
				<accidental>sharp</accidental>
				<lyric default-y="-80" number="1">
					<syllabic>begin</syllabic>
					<text>ster</text>
				</lyric>
			</note>
			<note>
				<pitch>
					<step>A</step>
					<octave>4</octave>
				</pitch>
				<duration>120</duration>
				<voice>1</voice>
				<type>16th</type>
				<lyric default-y="-80" number="1">
					<syllabic>end</syllabic>
					<text>ben</text>
				</lyric>
			</note>
			<note>
				<pitch>
					<step>F</step>
					<octave>4</octave>
				</pitch>
				<duration>480</duration>
				<voice>1</voice>
				<type>quarter</type>
				<lyric default-y="-80" number="1">
					<syllabic>single</syllabic>
					<text>mag;</text>
				</lyric>
			</note>
			<note>
				<rest>
					<display-step>B</display-step>
					<display-octave>4</display-octave>
				</rest>
				<duration>240</duration>
				<voice>1</voice>
				<type>eighth</type>
			</note>
			<note>
				<pitch>
					<step>D</step>
					<octave>4</octave>
				</pitch>
				<duration>240</duration>
				<voice>1</voice>
				<type>eighth</type>
				<lyric default-y="-80" number="1">
					<syllabic>single</syllabic>
					<text>wie</text>
				</lyric>
			</note>
		</measure>
		<measure number="11">
			<note>
				<pitch>
					<step>A</step>
					<octave>4</octave>
				</pitch>
				<duration>240</duration>
				<voice>1</voice>
				<type>eighth</type>
				<lyric default-y="-80" number="1">
					<syllabic>single</syllabic>
					<text>leicht,</text>
				</lyric>
			</note>
			<note>
				<rest>
					<display-step>B</display-step>
					<display-octave>4</display-octave>
				</rest>
				<duration>120</duration>
				<voice>1</voice>
				<type>16th</type>
			</note>
			<note>
				<pitch>
					<step>A</step>
					<octave>4</octave>
				</pitch>
				<duration>120</duration>
				<voice>1</voice>
				<type>16th</type>
				<lyric default-y="-80" number="1">
					<syllabic>single</syllabic>
					<text>wie</text>
				</lyric>
			</note>
			<note>
				<pitch>
					<step>D</step>
					<octave>5</octave>
				</pitch>
				<duration>240</duration>
				<voice>1</voice>
				<type>eighth</type>
				<lyric default-y="-80" number="1">
					<syllabic>single</syllabic>
					<text>bald</text>
				</lyric>
			</note>
			<note>
				<rest>
					<display-step>B</display-step>
					<display-octave>4</display-octave>
				</rest>
				<duration>120</duration>
				<voice>1</voice>
				<type>16th</type>
			</note>
			<note>
				<pitch>
					<step>D</step>
					<octave>4</octave>
				</pitch>
				<duration>120</duration>
				<voice>1</voice>
				<type>16th</type>
				<lyric default-y="-80" number="1">
					<syllabic>single</syllabic>
					<text>ist</text>
				</lyric>
			</note>
			<note>
				<pitch>
					<step>F</step>
					<octave>4</octave>
				</pitch>
				<duration>240</duration>
				<voice>1</voice>
				<type>eighth</type>
				<lyric default-y="-80" number="1">
					<syllabic>begin</syllabic>
					<text>Man</text>
				</lyric>
			</note>
			<note>
				<pitch>
					<step>F</step>
					<octave>4</octave>
				</pitch>
				<duration>240</duration>
				<voice>1</voice>
				<type>eighth</type>
				<lyric default-y="-80" number="1">
					<syllabic>end</syllabic>
					<text>cher</text>
				</lyric>
			</note>
			<note>
				<pitch>
					<step>A</step>
					<alter>-1</alter>
					<octave>4</octave>
				</pitch>
				<duration>240</duration>
				<voice>1</voice>
				<type>eighth</type>
				<accidental>flat</accidental>
				<lyric default-y="-80" number="1">
					<syllabic>single</syllabic>
					<text>todt</text>
				</lyric>
			</note>
			<note>
				<pitch>
					<step>G</step>
					<octave>4</octave>
				</pitch>
				<duration>240</duration>
				<voice>1</voice>
				<type>eighth</type>
				<lyric default-y="-80" number="1">
					<syllabic>single</syllabic>
					<text>und</text>
				</lyric>
			</note>
		</measure>
		<measure number="12">
			<note>
				<pitch>
					<step>E</step>
					<alter>-1</alter>
					<octave>4</octave>
				</pitch>
				<duration>480</duration>
				<voice>1</voice>
				<type>quarter</type>
				<accidental>flat</accidental>
				<lyric default-y="-80" number="1">
					<syllabic>single</syllabic>
					<text>kalt,</text>
				</lyric>
			</note>
			<note>
				<rest>
					<display-step>B</display-step>
					<display-octave>4</display-octave>
				</rest>
				<duration>240</duration>
				<voice>1</voice>
				<type>eighth</type>
			</note>
			<note>
				<pitch>
					<step>G</step>
					<octave>4</octave>
				</pitch>
				<duration>240</duration>
				<voice>1</voice>
				<type>eighth</type>
				<lyric default-y="-80" number="1">
					<syllabic>single</syllabic>
					<text>man</text>
				</lyric>
			</note>
			<note>
				<pitch>
					<step>G</step>
					<octave>4</octave>
				</pitch>
				<duration>240</duration>
				<voice>1</voice>
				<type>eighth</type>
				<lyric default-y="-80" number="1">
					<syllabic>single</syllabic>
					<text>kann</text>
				</lyric>
			</note>
			<note>
				<pitch>
					<step>E</step>
					<alter>-1</alter>
					<octave>4</octave>
				</pitch>
				<duration>240</duration>
				<voice>1</voice>
				<type>eighth</type>
				<lyric default-y="-80" number="1">
					<syllabic>single</syllabic>
					<text>noch</text>
				</lyric>
			</note>
			<note>
				<pitch>
					<step>F</step>
					<octave>4</octave>
				</pitch>
				<duration>240</duration>
				<voice>1</voice>
				<type>eighth</type>
				<lyric default-y="-80" number="1">
					<syllabic>begin</syllabic>
					<text>die</text>
				</lyric>
			</note>
			<note>
				<pitch>
					<step>G</step>
					<octave>4</octave>
				</pitch>
				<duration>240</duration>
				<voice>1</voice>
				<type>eighth</type>
				<lyric default-y="-80" number="1">
					<syllabic>end</syllabic>
					<text>se</text>
				</lyric>
			</note>
		</measure>
		<measure number="13">
			<print new-system="yes">
				<system-layout>
					<system-margins>
						<left-margin>0</left-margin>
						<right-margin>0</right-margin>
					</system-margins>
					<system-distance>150</system-distance>
				</system-layout>
				<staff-layout number="1">
					<staff-distance>70</staff-distance>
				</staff-layout>
			</print>
			<note>
				<pitch>
					<step>C</step>
					<octave>4</octave>
				</pitch>
				<duration>240</duration>
				<voice>1</voice>
				<type>eighth</type>
				<lyric default-y="-80" number="1">
					<syllabic>single</syllabic>
					<text>Nacht</text>
				</lyric>
			</note>
			<note>
				<rest>
					<display-step>B</display-step>
					<display-octave>4</display-octave>
				</rest>
				<duration>120</duration>
				<voice>1</voice>
				<type>16th</type>
			</note>
			<note>
				<pitch>
					<step>C</step>
					<octave>4</octave>
				</pitch>
				<duration>120</duration>
				<voice>1</voice>
				<type>16th</type>
				<lyric default-y="-80" number="1">
					<syllabic>single</syllabic>
					<text>den</text>
				</lyric>
			</note>
			<note>
				<pitch>
					<step>E</step>
					<octave>4</octave>
				</pitch>
				<duration>240</duration>
				<voice>1</voice>
				<type>eighth</type>
				<accidental cautionary="yes">natural</accidental>
				<lyric default-y="-80" number="1">
					<syllabic>single</syllabic>
					<text>Sarg</text>
				</lyric>
			</note>
			<note>
				<rest>
					<display-step>B</display-step>
					<display-octave>4</display-octave>
				</rest>
				<duration>120</duration>
				<voice>1</voice>
				<type>16th</type>
			</note>
			<note>
				<pitch>
					<step>E</step>
					<octave>4</octave>
				</pitch>
				<duration>120</duration>
				<voice>1</voice>
				<type>16th</type>
				<lyric default-y="-80" number="1">
					<syllabic>single</syllabic>
					<text>vor</text>
				</lyric>
			</note>
			<note>
				<pitch>
					<step>F</step>
					<alter>1</alter>
					<octave>4</octave>
				</pitch>
				<duration>240</duration>
				<voice>1</voice>
				<type>eighth</type>
				<accidental>sharp</accidental>
				<lyric default-y="-80" number="1">
					<syllabic>begin</syllabic>
					<text>dei</text>
				</lyric>
			</note>
			<note>
				<pitch>
					<step>A</step>
					<octave>4</octave>
				</pitch>
				<duration>240</duration>
				<voice>1</voice>
				<type>eighth</type>
				<lyric default-y="-80" number="1">
					<syllabic>end</syllabic>
					<text>ne</text>
				</lyric>
			</note>
			<note>
				<pitch>
					<step>C</step>
					<octave>5</octave>
				</pitch>
				<duration>240</duration>
				<voice>1</voice>
				<type>eighth</type>
				<lyric default-y="-80" number="1">
					<syllabic>begin</syllabic>
					<text>Thü</text>
				</lyric>
			</note>
			<note>
				<pitch>
					<step>B</step>
					<alter>-1</alter>
					<octave>4</octave>
				</pitch>
				<duration>240</duration>
				<voice>1</voice>
				<type>eighth</type>
				<accidental>flat</accidental>
				<lyric default-y="-80" number="1">
					<syllabic>end</syllabic>
					<text>re</text>
				</lyric>
			</note>
		</measure>
		<measure number="14">
			<note>
				<pitch>
					<step>B</step>
					<alter>-1</alter>
					<octave>4</octave>
				</pitch>
				<duration>240</duration>
				<voice>1</voice>
				<type>eighth</type>
				<accidental>flat</accidental>
				<lyric default-y="-80" number="1">
					<syllabic>begin</syllabic>
					<text>brin</text>
				</lyric>
			</note>
			<note>
				<pitch>
					<step>B</step>
					<alter>-1</alter>
					<octave>4</octave>
				</pitch>
				<duration>240</duration>
				<voice>1</voice>
				<type>eighth</type>
				<lyric default-y="-80" number="1">
					<syllabic>end</syllabic>
					<text>gen!</text>
				</lyric>
			</note>
			<note>
				<rest>
					<display-step>B</display-step>
					<display-octave>4</display-octave>
				</rest>
				<duration>240</duration>
				<voice>1</voice>
				<type>eighth</type>
			</note>
			<note>
				<pitch>
					<step>D</step>
					<octave>5</octave>
				</pitch>
				<duration>240</duration>
				<voice>1</voice>
				<type>eighth</type>
				<lyric default-y="-80" number="1">
					<syllabic>single</syllabic>
					<text>Drum</text>
				</lyric>
			</note>
			<note>
				<pitch>
					<step>B</step>
					<alter>-1</alter>
					<octave>4</octave>
				</pitch>
				<duration>240</duration>
				<voice>1</voice>
				<type>eighth</type>
				<lyric default-y="-80" number="1">
					<syllabic>single</syllabic>
					<text>sei</text>
				</lyric>
			</note>
			<note>
				<pitch>
					<step>B</step>
					<alter>-1</alter>
					<octave>4</octave>
				</pitch>
				<duration>240</duration>
				<voice>1</voice>
				<type>eighth</type>
				<lyric default-y="-80" number="1">
					<syllabic>single</syllabic>
					<text>vor</text>
				</lyric>
			</note>
			<note>
				<pitch>
					<step>G</step>
					<octave>4</octave>
				</pitch>
				<duration>240</duration>
				<voice>1</voice>
				<type>eighth</type>
				<lyric default-y="-80" number="1">
					<syllabic>begin</syllabic>
					<text>al</text>
				</lyric>
			</note>
			<note>
				<pitch>
					<step>E</step>
					<octave>4</octave>
				</pitch>
				<duration>240</duration>
				<voice>1</voice>
				<type>eighth</type>
				<lyric default-y="-80" number="1">
					<syllabic>end</syllabic>
					<text>len</text>
				</lyric>
			</note>
		</measure>
		<measure number="15">
			<note>
				<pitch>
					<step>C</step>
					<alter>1</alter>
					<octave>5</octave>
				</pitch>
				<duration>240</duration>
				<voice>1</voice>
				<type>eighth</type>
				<accidental>sharp</accidental>
				<lyric default-y="-80" number="1">
					<syllabic>begin</syllabic>
					<text>Din</text>
				</lyric>
			</note>
			<note>
				<pitch>
					<step>C</step>
					<alter>1</alter>
					<octave>5</octave>
				</pitch>
				<duration>120</duration>
				<voice>1</voice>
				<type>16th</type>
				<lyric default-y="-80" number="1">
					<syllabic>end</syllabic>
					<text>gen</text>
				</lyric>
			</note>
			<note>
				<rest>
					<display-step>B</display-step>
					<display-octave>4</display-octave>
				</rest>
				<duration>120</duration>
				<voice>1</voice>
				<type>16th</type>
			</note>
			<note>
				<pitch>
					<step>A</step>
					<octave>4</octave>
				</pitch>
				<duration>240</duration>
				<voice>1</voice>
				<type>eighth</type>
				<lyric default-y="-80" number="1">
					<syllabic>single</syllabic>
					<text>auf</text>
				</lyric>
			</note>
			<note>
				<pitch>
					<step>B</step>
					<octave>4</octave>
				</pitch>
				<duration>120</duration>
				<voice>1</voice>
				<type>16th</type>
				<accidental cautionary="yes">natural</accidental>
				<lyric default-y="-80" number="1">
					<syllabic>begin</syllabic>
					<text>dei</text>
				</lyric>
			</note>
			<note>
				<pitch>
					<step>C</step>
					<alter>1</alter>
					<octave>5</octave>
				</pitch>
				<duration>120</duration>
				<voice>1</voice>
				<type>16th</type>
				<lyric default-y="-80" number="1">
					<syllabic>end</syllabic>
					<text>ner</text>
				</lyric>
			</note>
			<note>
				<pitch>
					<step>D</step>
					<octave>5</octave>
				</pitch>
				<duration>240</duration>
				<voice>1</voice>
				<type>eighth</type>
				<lyric default-y="-80" number="1">
					<syllabic>begin</syllabic>
					<text>See</text>
				</lyric>
			</note>
			<note>
				<pitch>
					<step>B</step>
					<octave>4</octave>
				</pitch>
				<duration>240</duration>
				<voice>1</voice>
				<type>eighth</type>
				<lyric default-y="-80" number="1">
					<syllabic>end</syllabic>
					<text>len</text>
				</lyric>
			</note>
			<note>
				<pitch>
					<step>G</step>
					<alter>1</alter>
					<octave>4</octave>
				</pitch>
				<duration>360</duration>
				<voice>1</voice>
				<type>eighth</type>
				<dot/>
				<accidental>sharp</accidental>
				<lyric default-y="-80" number="1">
					<syllabic>single</syllabic>
					<text>Heil</text>
				</lyric>
			</note>
			<note>
				<pitch>
					<step>A</step>
					<octave>4</octave>
				</pitch>
				<duration>120</duration>
				<voice>1</voice>
				<type>16th</type>
				<lyric default-y="-80" number="1">
					<syllabic>begin</syllabic>
					<text>be</text>
				</lyric>
			</note>
		</measure>
		<measure number="16">
			<note>
				<pitch>
					<step>A</step>
					<octave>4</octave>
				</pitch>
				<duration>240</duration>
				<voice>1</voice>
				<type>eighth</type>
				<beam number="1">begin</beam>
				<lyric default-y="-80" number="1">
					<syllabic>end</syllabic>
					<text>dacht.</text>
				</lyric>
			</note>
			<note>
				<pitch>
					<step>E</step>
					<octave>4</octave>
				</pitch>
				<duration>240</duration>
				<voice>1</voice>
				<type>eighth</type>
				<beam number="1">end</beam>
			</note>
			<note>
				<rest>
					<display-step>B</display-step>
					<display-octave>4</display-octave>
				</rest>
				<duration>480</duration>
				<voice>1</voice>
				<type>quarter</type>
			</note>
			<note>
				<rest>
					<display-step>B</display-step>
					<display-octave>4</display-octave>
				</rest>
				<duration>960</duration>
				<voice>1</voice>
				<type>half</type>
			</note>
			<barline>
				<bar-style>light-heavy</bar-style>
			</barline>
		</measure>
	</part>
	<part id="P2">
		<measure number="1">
			<print>
				<system-layout>
					<system-margins>
						<left-margin>114</left-margin>
						<right-margin>0</right-margin>
					</system-margins>
					<top-system-distance>150</top-system-distance>
				</system-layout>
				<staff-layout number="1">
					<staff-distance>100</staff-distance>
				</staff-layout>
			</print>
			<attributes>
				<divisions>480</divisions>
				<key>
					<fifths>0</fifths>
					<mode>major</mode>
				</key>
				<time symbol="common">
					<beats>4</beats>
					<beat-type>4</beat-type>
				</time>
				<clef>
					<sign>F</sign>
					<line>4</line>
				</clef>
			</attributes>
			<note>
				<pitch>
					<step>G</step>
					<alter>1</alter>
					<octave>2</octave>
				</pitch>
				<duration>1920</duration>
				<tie type="start"/>
				<voice>1</voice>
				<type>whole</type>
				<accidental>sharp</accidental>
				<notations>
					<tied type="start"/>
				</notations>
			</note>
			<backup>
				<duration>1920</duration>
			</backup>
			<note print-object="no">
				<pitch>
					<step>G</step>
					<alter>1</alter>
					<octave>2</octave>
				</pitch>
				<duration>1920</duration>
				<tie type="start"/>
				<voice>2</voice>
				<type>whole</type>
				<accidental>sharp</accidental>
				<stem>down</stem>
				<notations>
					<tied type="start"/>
				</notations>
				<lyric default-y="-75" number="2">
					<syllabic>single</syllabic>
					<text>5</text>
				</lyric>
			</note>
		</measure>
		<measure number="2">
			<note>
				<pitch>
					<step>G</step>
					<alter>1</alter>
					<octave>2</octave>
				</pitch>
				<duration>960</duration>
				<tie type="stop"/>
				<voice>1</voice>
				<type>half</type>
				<notations>
					<tied type="stop"/>
				</notations>
			</note>
			<note>
				<pitch>
					<step>A</step>
					<octave>2</octave>
				</pitch>
				<duration>360</duration>
				<voice>1</voice>
				<type>eighth</type>
				<dot/>
				<beam number="1">begin</beam>
			</note>
			<note>
				<pitch>
					<step>C</step>
					<octave>3</octave>
				</pitch>
				<duration>60</duration>
				<voice>1</voice>
				<type>32nd</type>
				<beam number="1">continue</beam>
				<beam number="2">begin</beam>
				<beam number="3">begin</beam>
			</note>
			<note>
				<pitch>
					<step>E</step>
					<octave>3</octave>
				</pitch>
				<duration>60</duration>
				<voice>1</voice>
				<type>32nd</type>
				<beam number="1">end</beam>
				<beam number="2">end</beam>
				<beam number="3">end</beam>
			</note>
			<note>
				<pitch>
					<step>A</step>
					<octave>3</octave>
				</pitch>
				<duration>360</duration>
				<voice>1</voice>
				<type>eighth</type>
				<dot/>
				<beam number="1">begin</beam>
			</note>
			<note>
				<pitch>
					<step>E</step>
					<octave>3</octave>
				</pitch>
				<duration>60</duration>
				<voice>1</voice>
				<type>32nd</type>
				<beam number="1">continue</beam>
				<beam number="2">begin</beam>
				<beam number="3">begin</beam>
			</note>
			<note>
				<pitch>
					<step>C</step>
					<octave>3</octave>
				</pitch>
				<duration>60</duration>
				<voice>1</voice>
				<type>32nd</type>
				<beam number="1">end</beam>
				<beam number="2">end</beam>
				<beam number="3">end</beam>
			</note>
			<backup>
				<duration>1920</duration>
			</backup>
			<note print-object="no">
				<pitch>
					<step>G</step>
					<alter>1</alter>
					<octave>2</octave>
				</pitch>
				<duration>960</duration>
				<tie type="stop"/>
				<voice>2</voice>
				<type>half</type>
				<stem>down</stem>
				<notations>
					<tied type="stop"/>
				</notations>
			</note>
			<note print-object="no">
				<pitch>
					<step>A</step>
					<octave>2</octave>
				</pitch>
				<duration>360</duration>
				<voice>2</voice>
				<type>eighth</type>
				<dot/>
				<stem>down</stem>
				<beam number="1">begin</beam>
			</note>
			<note print-object="no">
				<pitch>
					<step>C</step>
					<octave>3</octave>
				</pitch>
				<duration>60</duration>
				<voice>2</voice>
				<type>32nd</type>
				<stem>down</stem>
				<beam number="1">continue</beam>
				<beam number="2">begin</beam>
				<beam number="3">begin</beam>
			</note>
			<note print-object="no">
				<pitch>
					<step>E</step>
					<octave>3</octave>
				</pitch>
				<duration>60</duration>
				<voice>2</voice>
				<type>32nd</type>
				<stem>down</stem>
				<beam number="1">end</beam>
				<beam number="2">end</beam>
				<beam number="3">end</beam>
			</note>
			<note print-object="no">
				<pitch>
					<step>A</step>
					<octave>3</octave>
				</pitch>
				<duration>360</duration>
				<voice>2</voice>
				<type>eighth</type>
				<dot/>
				<stem>down</stem>
				<beam number="1">begin</beam>
			</note>
			<note print-object="no">
				<pitch>
					<step>E</step>
					<octave>3</octave>
				</pitch>
				<duration>60</duration>
				<voice>2</voice>
				<type>32nd</type>
				<stem>down</stem>
				<beam number="1">continue</beam>
				<beam number="2">begin</beam>
				<beam number="3">begin</beam>
			</note>
			<note print-object="no">
				<pitch>
					<step>C</step>
					<octave>3</octave>
				</pitch>
				<duration>60</duration>
				<voice>2</voice>
				<type>32nd</type>
				<stem>down</stem>
				<beam number="1">end</beam>
				<beam number="2">end</beam>
				<beam number="3">end</beam>
			</note>
		</measure>
		<measure number="3">
			<note>
				<pitch>
					<step>G</step>
					<octave>2</octave>
				</pitch>
				<duration>360</duration>
				<voice>1</voice>
				<type>eighth</type>
				<dot/>
				<beam number="1">begin</beam>
			</note>
			<note>
				<pitch>
					<step>C</step>
					<alter>1</alter>
					<octave>3</octave>
				</pitch>
				<duration>60</duration>
				<voice>1</voice>
				<type>32nd</type>
				<accidental>sharp</accidental>
				<beam number="1">continue</beam>
				<beam number="2">begin</beam>
				<beam number="3">begin</beam>
			</note>
			<note>
				<pitch>
					<step>E</step>
					<octave>3</octave>
				</pitch>
				<duration>60</duration>
				<voice>1</voice>
				<type>32nd</type>
				<beam number="1">end</beam>
				<beam number="2">end</beam>
				<beam number="3">end</beam>
			</note>
			<note>
				<pitch>
					<step>A</step>
					<octave>3</octave>
				</pitch>
				<duration>360</duration>
				<voice>1</voice>
				<type>eighth</type>
				<dot/>
				<beam number="1">begin</beam>
			</note>
			<note>
				<pitch>
					<step>E</step>
					<octave>3</octave>
				</pitch>
				<duration>60</duration>
				<voice>1</voice>
				<type>32nd</type>
				<beam number="1">continue</beam>
				<beam number="2">begin</beam>
				<beam number="3">begin</beam>
			</note>
			<note>
				<pitch>
					<step>C</step>
					<alter>1</alter>
					<octave>3</octave>
				</pitch>
				<duration>60</duration>
				<voice>1</voice>
				<type>32nd</type>
				<beam number="1">end</beam>
				<beam number="2">end</beam>
				<beam number="3">end</beam>
			</note>
			<note>
				<pitch>
					<step>F</step>
					<alter>1</alter>
					<octave>2</octave>
				</pitch>
				<duration>360</duration>
				<voice>1</voice>
				<type>eighth</type>
				<dot/>
				<accidental>sharp</accidental>
				<beam number="1">begin</beam>
			</note>
			<note>
				<pitch>
					<step>D</step>
					<alter>1</alter>
					<octave>3</octave>
				</pitch>
				<duration>60</duration>
				<voice>1</voice>
				<type>32nd</type>
				<accidental>sharp</accidental>
				<beam number="1">continue</beam>
				<beam number="2">begin</beam>
				<beam number="3">begin</beam>
			</note>
			<note>
				<pitch>
					<step>F</step>
					<alter>1</alter>
					<octave>3</octave>
				</pitch>
				<duration>60</duration>
				<voice>1</voice>
				<type>32nd</type>
				<accidental>sharp</accidental>
				<beam number="1">end</beam>
				<beam number="2">end</beam>
				<beam number="3">end</beam>
			</note>
			<note>
				<pitch>
					<step>A</step>
					<octave>3</octave>
				</pitch>
				<duration>360</duration>
				<voice>1</voice>
				<type>eighth</type>
				<dot/>
				<beam number="1">begin</beam>
			</note>
			<note>
				<pitch>
					<step>F</step>
					<alter>1</alter>
					<octave>3</octave>
				</pitch>
				<duration>60</duration>
				<voice>1</voice>
				<type>32nd</type>
				<beam number="1">continue</beam>
				<beam number="2">begin</beam>
				<beam number="3">begin</beam>
			</note>
			<note>
				<pitch>
					<step>D</step>
					<alter>1</alter>
					<octave>3</octave>
				</pitch>
				<duration>60</duration>
				<voice>1</voice>
				<type>32nd</type>
				<beam number="1">end</beam>
				<beam number="2">end</beam>
				<beam number="3">end</beam>
			</note>
			<backup>
				<duration>1920</duration>
			</backup>
			<note print-object="no">
				<pitch>
					<step>G</step>
					<octave>2</octave>
				</pitch>
				<duration>360</duration>
				<voice>2</voice>
				<type>eighth</type>
				<dot/>
				<stem>down</stem>
				<beam number="1">begin</beam>
				<lyric default-y="-65" number="1">
					<syllabic>single</syllabic>
					<text>6</text>
				</lyric>
				<lyric default-y="-85" number="3">
					<syllabic>single</syllabic>
					<text>$</text>
				</lyric>
				<lyric default-y="-105" number="5">
					<syllabic>single</syllabic>
					<text>2</text>
				</lyric>
			</note>
			<note print-object="no">
				<pitch>
					<step>C</step>
					<alter>1</alter>
					<octave>3</octave>
				</pitch>
				<duration>60</duration>
				<voice>2</voice>
				<type>32nd</type>
				<accidental>sharp</accidental>
				<stem>down</stem>
				<beam number="1">continue</beam>
				<beam number="2">begin</beam>
				<beam number="3">begin</beam>
			</note>
			<note print-object="no">
				<pitch>
					<step>E</step>
					<octave>3</octave>
				</pitch>
				<duration>60</duration>
				<voice>2</voice>
				<type>32nd</type>
				<stem>down</stem>
				<beam number="1">end</beam>
				<beam number="2">end</beam>
				<beam number="3">end</beam>
			</note>
			<note print-object="no">
				<pitch>
					<step>A</step>
					<octave>3</octave>
				</pitch>
				<duration>360</duration>
				<voice>2</voice>
				<type>eighth</type>
				<dot/>
				<stem>down</stem>
				<beam number="1">begin</beam>
			</note>
			<note print-object="no">
				<pitch>
					<step>E</step>
					<octave>3</octave>
				</pitch>
				<duration>60</duration>
				<voice>2</voice>
				<type>32nd</type>
				<stem>down</stem>
				<beam number="1">continue</beam>
				<beam number="2">begin</beam>
				<beam number="3">begin</beam>
			</note>
			<note print-object="no">
				<pitch>
					<step>C</step>
					<alter>1</alter>
					<octave>3</octave>
				</pitch>
				<duration>60</duration>
				<voice>2</voice>
				<type>32nd</type>
				<stem>down</stem>
				<beam number="1">end</beam>
				<beam number="2">end</beam>
				<beam number="3">end</beam>
			</note>
			<note print-object="no">
				<pitch>
					<step>F</step>
					<alter>1</alter>
					<octave>2</octave>
				</pitch>
				<duration>360</duration>
				<voice>2</voice>
				<type>eighth</type>
				<dot/>
				<accidental>sharp</accidental>
				<stem>down</stem>
				<beam number="1">begin</beam>
				<lyric default-y="-75" number="2">
					<syllabic>single</syllabic>
					<text>6</text>
				</lyric>
			</note>
			<note print-object="no">
				<pitch>
					<step>D</step>
					<alter>1</alter>
					<octave>3</octave>
				</pitch>
				<duration>60</duration>
				<voice>2</voice>
				<type>32nd</type>
				<accidental>sharp</accidental>
				<stem>down</stem>
				<beam number="1">continue</beam>
				<beam number="2">begin</beam>
				<beam number="3">begin</beam>
			</note>
			<note print-object="no">
				<pitch>
					<step>F</step>
					<alter>1</alter>
					<octave>3</octave>
				</pitch>
				<duration>60</duration>
				<voice>2</voice>
				<type>32nd</type>
				<accidental>sharp</accidental>
				<stem>down</stem>
				<beam number="1">end</beam>
				<beam number="2">end</beam>
				<beam number="3">end</beam>
			</note>
			<note print-object="no">
				<pitch>
					<step>A</step>
					<octave>3</octave>
				</pitch>
				<duration>360</duration>
				<voice>2</voice>
				<type>eighth</type>
				<dot/>
				<stem>down</stem>
				<beam number="1">begin</beam>
				<lyric default-y="-75" number="2">
					<syllabic>single</syllabic>
					<text>$</text>
				</lyric>
				<lyric default-y="-95" number="4">
					<syllabic>single</syllabic>
					<text>2</text>
				</lyric>
			</note>
			<note print-object="no">
				<pitch>
					<step>F</step>
					<alter>1</alter>
					<octave>3</octave>
				</pitch>
				<duration>60</duration>
				<voice>2</voice>
				<type>32nd</type>
				<stem>down</stem>
				<beam number="1">continue</beam>
				<beam number="2">begin</beam>
				<beam number="3">begin</beam>
			</note>
			<note print-object="no">
				<pitch>
					<step>D</step>
					<alter>1</alter>
					<octave>3</octave>
				</pitch>
				<duration>60</duration>
				<voice>2</voice>
				<type>32nd</type>
				<stem>down</stem>
				<beam number="1">end</beam>
				<beam number="2">end</beam>
				<beam number="3">end</beam>
			</note>
		</measure>
		<measure number="4">
			<print new-system="yes">
				<system-layout>
					<system-margins>
						<left-margin>0</left-margin>
						<right-margin>0</right-margin>
					</system-margins>
					<system-distance>150</system-distance>
				</system-layout>
				<staff-layout number="1">
					<staff-distance>100</staff-distance>
				</staff-layout>
			</print>
			<attributes>
				<time>
					<beats>4</beats>
					<beat-type>4</beat-type>
				</time>
			</attributes>
			<note>
				<pitch>
					<step>D</step>
					<alter>1</alter>
					<octave>2</octave>
				</pitch>
				<duration>360</duration>
				<voice>1</voice>
				<type>eighth</type>
				<dot/>
				<accidental>sharp</accidental>
				<beam number="1">begin</beam>
			</note>
			<note>
				<pitch>
					<step>D</step>
					<alter>1</alter>
					<octave>3</octave>
				</pitch>
				<duration>60</duration>
				<voice>1</voice>
				<type>32nd</type>
				<accidental>sharp</accidental>
				<beam number="1">continue</beam>
				<beam number="2">begin</beam>
				<beam number="3">begin</beam>
			</note>
			<note>
				<pitch>
					<step>F</step>
					<alter>1</alter>
					<octave>3</octave>
				</pitch>
				<duration>60</duration>
				<voice>1</voice>
				<type>32nd</type>
				<accidental>sharp</accidental>
				<beam number="1">end</beam>
				<beam number="2">end</beam>
				<beam number="3">end</beam>
			</note>
			<note>
				<pitch>
					<step>A</step>
					<octave>3</octave>
				</pitch>
				<duration>360</duration>
				<voice>1</voice>
				<type>eighth</type>
				<dot/>
				<beam number="1">begin</beam>
			</note>
			<note>
				<pitch>
					<step>F</step>
					<alter>1</alter>
					<octave>3</octave>
				</pitch>
				<duration>60</duration>
				<voice>1</voice>
				<type>32nd</type>
				<beam number="1">continue</beam>
				<beam number="2">begin</beam>
				<beam number="3">begin</beam>
			</note>
			<note>
				<pitch>
					<step>D</step>
					<alter>1</alter>
					<octave>3</octave>
				</pitch>
				<duration>60</duration>
				<voice>1</voice>
				<type>32nd</type>
				<beam number="1">end</beam>
				<beam number="2">end</beam>
				<beam number="3">end</beam>
			</note>
			<note>
				<pitch>
					<step>E</step>
					<octave>3</octave>
				</pitch>
				<duration>360</duration>
				<voice>1</voice>
				<type>eighth</type>
				<dot/>
				<beam number="1">begin</beam>
			</note>
			<note>
				<pitch>
					<step>G</step>
					<octave>3</octave>
				</pitch>
				<duration>60</duration>
				<voice>1</voice>
				<type>32nd</type>
				<beam number="1">continue</beam>
				<beam number="2">begin</beam>
				<beam number="3">begin</beam>
			</note>
			<note>
				<pitch>
					<step>B</step>
					<octave>3</octave>
				</pitch>
				<duration>60</duration>
				<voice>1</voice>
				<type>32nd</type>
				<beam number="1">end</beam>
				<beam number="2">end</beam>
				<beam number="3">end</beam>
			</note>
			<note>
				<pitch>
					<step>E</step>
					<octave>4</octave>
				</pitch>
				<duration>360</duration>
				<voice>1</voice>
				<type>eighth</type>
				<dot/>
				<beam number="1">begin</beam>
			</note>
			<note>
				<pitch>
					<step>B</step>
					<octave>3</octave>
				</pitch>
				<duration>60</duration>
				<voice>1</voice>
				<type>32nd</type>
				<beam number="1">continue</beam>
				<beam number="2">begin</beam>
				<beam number="3">begin</beam>
			</note>
			<note>
				<pitch>
					<step>G</step>
					<octave>3</octave>
				</pitch>
				<duration>60</duration>
				<voice>1</voice>
				<type>32nd</type>
				<beam number="1">end</beam>
				<beam number="2">end</beam>
				<beam number="3">end</beam>
			</note>
			<backup>
				<duration>1920</duration>
			</backup>
			<note print-object="no">
				<pitch>
					<step>C</step>
					<octave>2</octave>
				</pitch>
				<duration>480</duration>
				<voice>2</voice>
				<type>quarter</type>
				<stem>down</stem>
				<lyric default-y="-85" number="3">
					<syllabic>single</syllabic>
					<text>7</text>
				</lyric>
				<lyric default-y="-105" number="5">
					<syllabic>single</syllabic>
					<text>5</text>
				</lyric>
			</note>
			<note print-object="no">
				<pitch>
					<step>C</step>
					<octave>2</octave>
				</pitch>
				<duration>480</duration>
				<voice>2</voice>
				<type>quarter</type>
				<stem>down</stem>
				<lyric default-y="-75" number="2">
					<syllabic>single</syllabic>
					<text>$</text>
				</lyric>
				<lyric default-y="-95" number="4">
					<syllabic>single</syllabic>
					<text>e</text>
				</lyric>
			</note>
			<note print-object="no">
				<pitch>
					<step>C</step>
					<octave>2</octave>
				</pitch>
				<duration>480</duration>
				<voice>2</voice>
				<type>quarter</type>
				<stem>down</stem>
				<lyric default-y="-85" number="3">
					<syllabic>single</syllabic>
					<text>Q</text>
				</lyric>
			</note>
			<note print-object="no">
				<pitch>
					<step>C</step>
					<octave>2</octave>
				</pitch>
				<duration>480</duration>
				<voice>2</voice>
				<type>quarter</type>
			</note>
		</measure>
		<measure number="5">
			<note>
				<pitch>
					<step>E</step>
					<octave>3</octave>
				</pitch>
				<duration>1920</duration>
				<voice>1</voice>
				<type>whole</type>
			</note>
			<backup>
				<duration>1920</duration>
			</backup>
			<note print-object="no">
				<pitch>
					<step>C</step>
					<octave>2</octave>
				</pitch>
				<duration>960</duration>
				<voice>2</voice>
				<type>half</type>
				<stem>down</stem>
				<lyric default-y="-65" number="1">
					<syllabic>single</syllabic>
					<text>7</text>
				</lyric>
				<lyric default-y="-85" number="3">
					<syllabic>single</syllabic>
					<text>b</text>
				</lyric>
			</note>
			<note print-object="no">
				<pitch>
					<step>C</step>
					<octave>2</octave>
				</pitch>
				<duration>960</duration>
				<voice>2</voice>
				<type>half</type>
				<stem>down</stem>
				<lyric default-y="-65" number="1">
					<syllabic>single</syllabic>
					<text>6</text>
				</lyric>
			</note>
		</measure>
		<measure number="6">
			<note>
				<pitch>
					<step>C</step>
					<alter>1</alter>
					<octave>3</octave>
				</pitch>
				<duration>1920</duration>
				<voice>1</voice>
				<type>whole</type>
				<accidental>sharp</accidental>
			</note>
			<backup>
				<duration>1920</duration>
			</backup>
			<note print-object="no">
				<pitch>
					<step>C</step>
					<octave>2</octave>
				</pitch>
				<duration>1920</duration>
				<voice>2</voice>
				<type>whole</type>
				<stem>down</stem>
				<lyric default-y="-65" number="1">
					<syllabic>single</syllabic>
					<text>6</text>
				</lyric>
			</note>
		</measure>
		<measure number="7">
			<print new-system="yes">
				<system-layout>
					<system-margins>
						<left-margin>0</left-margin>
						<right-margin>0</right-margin>
					</system-margins>
					<system-distance>150</system-distance>
				</system-layout>
				<staff-layout number="1">
					<staff-distance>100</staff-distance>
				</staff-layout>
			</print>
			<note>
				<pitch>
					<step>F</step>
					<alter>1</alter>
					<octave>2</octave>
				</pitch>
				<duration>960</duration>
				<voice>1</voice>
				<type>half</type>
				<accidental>sharp</accidental>
			</note>
			<note>
				<pitch>
					<step>C</step>
					<octave>3</octave>
				</pitch>
				<duration>480</duration>
				<voice>1</voice>
				<type>quarter</type>
			</note>
			<note>
				<pitch>
					<step>D</step>
					<octave>3</octave>
				</pitch>
				<duration>480</duration>
				<voice>1</voice>
				<type>quarter</type>
			</note>
			<backup>
				<duration>1920</duration>
			</backup>
			<note print-object="no">
				<pitch>
					<step>C</step>
					<octave>2</octave>
				</pitch>
				<duration>960</duration>
				<voice>2</voice>
				<type>half</type>
				<stem>down</stem>
				<lyric default-y="-80" number="2">
					<syllabic>single</syllabic>
					<text>6</text>
				</lyric>
			</note>
			<note print-object="no">
				<pitch>
					<step>C</step>
					<octave>2</octave>
				</pitch>
				<duration>480</duration>
				<voice>2</voice>
				<type>quarter</type>
				<stem>down</stem>
				<lyric default-y="-70" number="1">
					<syllabic>single</syllabic>
					<text>$</text>
				</lyric>
				<lyric default-y="-90" number="3">
					<syllabic>single</syllabic>
					<text>2</text>
				</lyric>
			</note>
			<note print-object="no">
				<pitch>
					<step>C</step>
					<octave>2</octave>
				</pitch>
				<duration>480</duration>
				<voice>2</voice>
				<type>quarter</type>
				<stem>down</stem>
				<lyric default-y="-70" number="1">
					<syllabic>single</syllabic>
					<text>7</text>
				</lyric>
				<lyric default-y="-90" number="3">
					<syllabic>single</syllabic>
					<text>#</text>
				</lyric>
			</note>
		</measure>
		<measure number="8">
			<note>
				<pitch>
					<step>E</step>
					<octave>3</octave>
				</pitch>
				<duration>480</duration>
				<voice>1</voice>
				<type>quarter</type>
			</note>
			<note>
				<pitch>
					<step>D</step>
					<octave>3</octave>
				</pitch>
				<duration>480</duration>
				<voice>1</voice>
				<type>quarter</type>
			</note>
			<note>
				<pitch>
					<step>G</step>
					<octave>2</octave>
				</pitch>
				<duration>960</duration>
				<voice>1</voice>
				<type>half</type>
			</note>
			<backup>
				<duration>1920</duration>
			</backup>
			<note print-object="no">
				<pitch>
					<step>C</step>
					<octave>2</octave>
				</pitch>
				<duration>480</duration>
				<voice>2</voice>
				<type>quarter</type>
				<stem>down</stem>
				<lyric default-y="-70" number="1">
					<syllabic>single</syllabic>
					<text>6</text>
				</lyric>
				<lyric default-y="-90" number="3">
					<syllabic>single</syllabic>
					<text>4</text>
				</lyric>
				<lyric default-y="-110" number="5">
					<syllabic>single</syllabic>
					<text>2</text>
				</lyric>
			</note>
			<note print-object="no">
				<pitch>
					<step>C</step>
					<octave>2</octave>
				</pitch>
				<duration>240</duration>
				<voice>2</voice>
				<type>eighth</type>
				<stem>down</stem>
				<beam number="1">begin</beam>
				<lyric default-y="-70" number="1">
					<syllabic>single</syllabic>
					<text>6</text>
				</lyric>
				<lyric default-y="-90" number="3">
					<syllabic>single</syllabic>
					<text>4</text>
				</lyric>
			</note>
			<note print-object="no">
				<pitch>
					<step>C</step>
					<octave>2</octave>
				</pitch>
				<duration>240</duration>
				<voice>2</voice>
				<type>eighth</type>
				<stem>down</stem>
				<beam number="1">end</beam>
				<lyric default-y="-70" number="1">
					<syllabic>single</syllabic>
					<text>5</text>
				</lyric>
				<lyric default-y="-90" number="3">
					<syllabic>single</syllabic>
					<text>#</text>
				</lyric>
			</note>
			<note print-object="no">
				<pitch>
					<step>C</step>
					<octave>2</octave>
				</pitch>
				<duration>960</duration>
				<voice>2</voice>
				<type>half</type>
				<stem>down</stem>
			</note>
		</measure>
		<measure number="9">
			<note>
				<pitch>
					<step>F</step>
					<octave>2</octave>
				</pitch>
				<duration>960</duration>
				<voice>1</voice>
				<type>half</type>
				<accidental cautionary="yes">natural</accidental>
			</note>
			<note>
				<pitch>
					<step>E</step>
					<octave>2</octave>
				</pitch>
				<duration>960</duration>
				<tie type="start"/>
				<voice>1</voice>
				<type>half</type>
				<notations>
					<tied type="start"/>
				</notations>
			</note>
			<backup>
				<duration>1920</duration>
			</backup>
			<note print-object="no">
				<pitch>
					<step>C</step>
					<octave>2</octave>
				</pitch>
				<duration>960</duration>
				<voice>2</voice>
				<type>half</type>
				<stem>down</stem>
				<lyric default-y="-80" number="2">
					<syllabic>single</syllabic>
					<text>6</text>
				</lyric>
				<lyric default-y="-100" number="4">
					<syllabic>single</syllabic>
					<text>4</text>
				</lyric>
				<lyric default-y="-120" number="6">
					<syllabic>single</syllabic>
					<text>2</text>
				</lyric>
			</note>
			<note print-object="no">
				<pitch>
					<step>C</step>
					<octave>2</octave>
				</pitch>
				<duration>480</duration>
				<voice>2</voice>
				<type>quarter</type>
				<stem>down</stem>
				<lyric default-y="-80" number="2">
					<syllabic>single</syllabic>
					<text>6</text>
				</lyric>
			</note>
			<note print-object="no">
				<pitch>
					<step>C</step>
					<octave>2</octave>
				</pitch>
				<duration>480</duration>
				<voice>2</voice>
				<type>quarter</type>
				<stem>down</stem>
				<lyric default-y="-90" number="3">
					<syllabic>single</syllabic>
					<text>b</text>
				</lyric>
			</note>
		</measure>
		<measure number="10">
			<print new-system="yes">
				<system-layout>
					<system-margins>
						<left-margin>0</left-margin>
						<right-margin>0</right-margin>
					</system-margins>
					<system-distance>160</system-distance>
				</system-layout>
				<staff-layout number="1">
					<staff-distance>90</staff-distance>
				</staff-layout>
			</print>
			<note>
				<pitch>
					<step>E</step>
					<octave>2</octave>
				</pitch>
				<duration>960</duration>
				<tie type="stop"/>
				<voice>1</voice>
				<type>half</type>
				<notations>
					<tied type="stop"/>
				</notations>
			</note>
			<note>
				<pitch>
					<step>D</step>
					<octave>2</octave>
				</pitch>
				<duration>960</duration>
				<voice>1</voice>
				<type>half</type>
			</note>
			<backup>
				<duration>1920</duration>
			</backup>
			<note print-object="no">
				<pitch>
					<step>E</step>
					<octave>2</octave>
				</pitch>
				<duration>960</duration>
				<tie type="stop"/>
				<voice>2</voice>
				<type>half</type>
				<stem>down</stem>
				<notations>
					<tied type="stop"/>
				</notations>
				<lyric default-y="-75" number="2">
					<syllabic>single</syllabic>
					<text>&amp;</text>
				</lyric>
			</note>
			<note print-object="no">
				<pitch>
					<step>D</step>
					<octave>2</octave>
				</pitch>
				<duration>960</duration>
				<voice>2</voice>
				<type>half</type>
				<stem>down</stem>
			</note>
		</measure>
		<measure number="11">
			<note>
				<pitch>
					<step>C</step>
					<octave>3</octave>
				</pitch>
				<duration>960</duration>
				<voice>1</voice>
				<type>half</type>
			</note>
			<note>
				<pitch>
					<step>B</step>
					<octave>2</octave>
				</pitch>
				<duration>960</duration>
				<voice>1</voice>
				<type>half</type>
			</note>
			<backup>
				<duration>1920</duration>
			</backup>
			<note print-object="no">
				<pitch>
					<step>C</step>
					<octave>3</octave>
				</pitch>
				<duration>960</duration>
				<voice>2</voice>
				<type>half</type>
				<stem>down</stem>
				<lyric default-y="-65" number="1">
					<syllabic>single</syllabic>
					<text>6</text>
				</lyric>
				<lyric default-y="-85" number="3">
					<syllabic>single</syllabic>
					<text>4</text>
				</lyric>
				<lyric default-y="-105" number="5">
					<syllabic>single</syllabic>
					<text>2</text>
				</lyric>
			</note>
			<note print-object="no">
				<pitch>
					<step>B</step>
					<octave>2</octave>
				</pitch>
				<duration>960</duration>
				<voice>2</voice>
				<type>half</type>
				<stem>down</stem>
				<lyric default-y="-65" number="1">
					<syllabic>single</syllabic>
					<text>6</text>
				</lyric>
				<lyric default-y="-85" number="3">
					<syllabic>single</syllabic>
					<text>5</text>
				</lyric>
			</note>
		</measure>
		<measure number="12">
			<note>
				<pitch>
					<step>C</step>
					<octave>3</octave>
				</pitch>
				<duration>1920</duration>
				<voice>1</voice>
				<type>whole</type>
			</note>
			<backup>
				<duration>1920</duration>
			</backup>
			<note print-object="no">
				<pitch>
					<step>C</step>
					<octave>3</octave>
				</pitch>
				<duration>1920</duration>
				<voice>2</voice>
				<type>whole</type>
				<stem>down</stem>
				<lyric default-y="-65" number="1">
					<syllabic>single</syllabic>
					<text>Y</text>
				</lyric>
			</note>
		</measure>
		<measure number="13">
			<print new-system="yes">
				<system-layout>
					<system-margins>
						<left-margin>0</left-margin>
						<right-margin>0</right-margin>
					</system-margins>
					<system-distance>150</system-distance>
				</system-layout>
				<staff-layout number="1">
					<staff-distance>100</staff-distance>
				</staff-layout>
			</print>
			<note>
				<pitch>
					<step>B</step>
					<alter>-1</alter>
					<octave>2</octave>
				</pitch>
				<duration>960</duration>
				<voice>1</voice>
				<type>half</type>
				<accidental>flat</accidental>
			</note>
			<note>
				<pitch>
					<step>A</step>
					<octave>2</octave>
				</pitch>
				<duration>960</duration>
				<voice>1</voice>
				<type>half</type>
			</note>
			<backup>
				<duration>1920</duration>
			</backup>
			<note print-object="no">
				<pitch>
					<step>B</step>
					<alter>-1</alter>
					<octave>2</octave>
				</pitch>
				<duration>960</duration>
				<voice>2</voice>
				<type>half</type>
				<accidental>flat</accidental>
				<stem>down</stem>
				<lyric default-y="-65" number="1">
					<syllabic>single</syllabic>
					<text>6</text>
				</lyric>
				<lyric default-y="-85" number="3">
					<syllabic>single</syllabic>
					<text>r</text>
				</lyric>
				<lyric default-y="-105" number="5">
					<syllabic>single</syllabic>
					<text>2</text>
				</lyric>
			</note>
			<note print-object="no">
				<pitch>
					<step>A</step>
					<octave>2</octave>
				</pitch>
				<duration>960</duration>
				<voice>2</voice>
				<type>half</type>
				<stem>down</stem>
				<lyric default-y="-65" number="1">
					<syllabic>single</syllabic>
					<text>&amp;</text>
				</lyric>
			</note>
		</measure>
		<measure number="14">
			<note>
				<pitch>
					<step>G</step>
					<octave>2</octave>
				</pitch>
				<duration>1920</duration>
				<tie type="start"/>
				<voice>1</voice>
				<type>whole</type>
				<notations>
					<tied type="start"/>
				</notations>
			</note>
			<backup>
				<duration>1920</duration>
			</backup>
			<note print-object="no">
				<pitch>
					<step>G</step>
					<octave>2</octave>
				</pitch>
				<duration>1920</duration>
				<tie type="start"/>
				<voice>2</voice>
				<type>whole</type>
				<stem>down</stem>
				<notations>
					<tied type="start"/>
				</notations>
				<lyric default-y="-65" number="1">
					<syllabic>single</syllabic>
					<text>Y</text>
				</lyric>
			</note>
		</measure>
		<measure number="15">
			<note>
				<pitch>
					<step>G</step>
					<octave>2</octave>
				</pitch>
				<duration>960</duration>
				<tie type="stop"/>
				<voice>1</voice>
				<type>half</type>
				<notations>
					<tied type="stop"/>
				</notations>
			</note>
			<note>
				<pitch>
					<step>F</step>
					<octave>2</octave>
				</pitch>
				<duration>960</duration>
				<voice>1</voice>
				<type>half</type>
			</note>
			<backup>
				<duration>1920</duration>
			</backup>
			<note print-object="no">
				<pitch>
					<step>G</step>
					<octave>2</octave>
				</pitch>
				<duration>960</duration>
				<tie type="stop"/>
				<voice>2</voice>
				<type>half</type>
				<stem>down</stem>
				<notations>
					<tied type="stop"/>
				</notations>
				<lyric default-y="-65" number="1">
					<syllabic>single</syllabic>
					<text>6</text>
				</lyric>
				<lyric default-y="-85" number="3">
					<syllabic>single</syllabic>
					<text>4</text>
				</lyric>
				<lyric default-y="-105" number="5">
					<syllabic>single</syllabic>
					<text>2</text>
				</lyric>
			</note>
			<note print-object="no">
				<pitch>
					<step>F</step>
					<octave>2</octave>
				</pitch>
				<duration>960</duration>
				<voice>2</voice>
				<type>half</type>
				<stem>down</stem>
				<lyric default-y="-75" number="2">
					<syllabic>single</syllabic>
					<text>6</text>
				</lyric>
			</note>
		</measure>
		<measure number="16">
			<note>
				<rest>
					<display-step>D</display-step>
					<display-octave>3</display-octave>
				</rest>
				<duration>480</duration>
				<voice>1</voice>
				<type>quarter</type>
			</note>
			<note>
				<pitch>
					<step>E</step>
					<octave>2</octave>
				</pitch>
				<duration>480</duration>
				<voice>1</voice>
				<type>quarter</type>
			</note>
			<note>
				<pitch>
					<step>A</step>
					<octave>2</octave>
				</pitch>
				<duration>960</duration>
				<voice>1</voice>
				<type>half</type>
			</note>
			<backup>
				<duration>1920</duration>
			</backup>
			<note print-object="no">
				<rest>
					<display-step>D</display-step>
					<display-octave>3</display-octave>
				</rest>
				<duration>480</duration>
				<voice>2</voice>
				<type>quarter</type>
			</note>
			<note print-object="no">
				<pitch>
					<step>E</step>
					<octave>2</octave>
				</pitch>
				<duration>480</duration>
				<voice>2</voice>
				<type>quarter</type>
				<stem>down</stem>
				<lyric default-y="-85" number="3">
					<syllabic>single</syllabic>
					<text>'#</text>
				</lyric>
			</note>
			<note print-object="no">
				<pitch>
					<step>A</step>
					<octave>2</octave>
				</pitch>
				<duration>960</duration>
				<voice>2</voice>
				<type>half</type>
				<stem>down</stem>
			</note>
			<barline>
				<bar-style>light-heavy</bar-style>
			</barline>
		</measure>
	</part>
</score-partwise>
