<?xml version="1.0" encoding="UTF-8" standalone="no"?>
<!--MusicXML 2.0 file created by CapToMusic.py CapXML to MusicXML converter version 2.9-->
<!DOCTYPE score-partwise PUBLIC "-//Recordare//DTD MusicXML 2.0 Partwise//EN" "http://www.musicxml.org/dtds/partwise.dtd">
<score-partwise version="2.0">
	<identification>
		<encoding>
			<encoding-date>2019-12-23</encoding-date>
			<software>CapToMusic.py CapXML to MusicXML converter version 2.9</software>
			<encoding-description>Options: FinaleDolet33=1, ChordCaseMatters=1, ExportToSibelius=0</encoding-description>
		</encoding>
	</identification>
	<defaults>
		<scaling>
			<millimeters>1.4</millimeters>
			<tenths>10.0</tenths>
		</scaling>
		<page-layout>
			<page-height>2121</page-height>
			<page-width>1500</page-width>
			<page-margins type="both">
				<left-margin>85</left-margin>
				<right-margin>85</right-margin>
				<top-margin>85</top-margin>
				<bottom-margin>85</bottom-margin>
			</page-margins>
		</page-layout>
		<system-layout>
			<system-margins>
				<left-margin>0</left-margin>
				<right-margin>0</right-margin>
			</system-margins>
			<system-distance>10</system-distance>
			<top-system-distance>30</top-system-distance>
		</system-layout>
	</defaults>
	<credit>
		<credit-words default-x="748" default-y="88" font-family="Times New Roman" font-size="8" justify="center">BWV 65 - S. #</credit-words>
	</credit>
	<part-list>
		<part-group type="start" number="1">
			<group-symbol>bracket</group-symbol>
		</part-group>
		<score-part id="P1">
			<part-name>Basso.</part-name>
			<part-abbreviation></part-abbreviation>
			<score-instrument id="P1-I1">
				<instrument-name>Midi_71</instrument-name>
			</score-instrument>
			<midi-instrument id="P1-I1">
				<midi-channel>1</midi-channel>
				<midi-program>71</midi-program>
			</midi-instrument>
		</score-part>
		<score-part id="P2">
			<part-name>Continuo.</part-name>
			<part-abbreviation></part-abbreviation>
			<score-instrument id="P2-I1">
				<instrument-name>Midi_43</instrument-name>
			</score-instrument>
			<midi-instrument id="P2-I1">
				<midi-channel>2</midi-channel>
				<midi-program>43</midi-program>
			</midi-instrument>
		</score-part>
		<part-group type="stop" number="1"/>
	</part-list>
	<part id="P1">
		<measure number="1">
			<direction>
				<direction-type>
					<other-direction/>
				</direction-type>
				<sound tempo="60"/>
			</direction>
			<print>
				<system-layout>
					<system-margins>
						<left-margin>114</left-margin>
						<right-margin>0</right-margin>
					</system-margins>
					<top-system-distance>100</top-system-distance>
				</system-layout>
				<staff-layout number="1">
					<staff-distance>70</staff-distance>
				</staff-layout>
			</print>
			<attributes>
				<divisions>480</divisions>
				<key>
					<fifths>0</fifths>
					<mode>major</mode>
				</key>
				<time symbol="common">
					<beats>4</beats>
					<beat-type>4</beat-type>
				</time>
				<clef>
					<sign>F</sign>
					<line>4</line>
				</clef>
			</attributes>
			<note>
				<rest/>
				<duration>480</duration>
				<voice>1</voice>
				<type>quarter</type>
			</note>
			<note>
				<rest/>
				<duration>240</duration>
				<voice>1</voice>
				<type>eighth</type>
			</note>
			<direction placement="above">
				<direction-type>
					<words relative-x="-141" default-y="40" font-family="Times New Roman" font-size="12" font-weight="bold">3. Recitativo.</words>
				</direction-type>
			</direction>
			<note>
				<pitch>
					<step>F</step>
					<octave>3</octave>
				</pitch>
				<duration>240</duration>
				<voice>1</voice>
				<type>eighth</type>
				<lyric default-y="-80" number="1">
					<syllabic>single</syllabic>
					<text>Was</text>
				</lyric>
			</note>
			<note>
				<pitch>
					<step>D</step>
					<octave>4</octave>
				</pitch>
				<duration>480</duration>
				<voice>1</voice>
				<type>quarter</type>
				<lyric default-y="-80" number="1">
					<syllabic>single</syllabic>
					<text>dort</text>
				</lyric>
			</note>
			<note>
				<rest/>
				<duration>240</duration>
				<voice>1</voice>
				<type>eighth</type>
			</note>
			<note>
				<pitch>
					<step>E</step>
					<octave>3</octave>
				</pitch>
				<duration>120</duration>
				<voice>1</voice>
				<type>16th</type>
				<lyric default-y="-80" number="1">
					<syllabic>begin</syllabic>
					<text>Je</text>
				</lyric>
			</note>
			<note>
				<pitch>
					<step>F</step>
					<octave>3</octave>
				</pitch>
				<duration>120</duration>
				<voice>1</voice>
				<type>16th</type>
				<lyric default-y="-80" number="1">
					<syllabic>middle</syllabic>
					<text>sa</text>
				</lyric>
			</note>
		</measure>
		<measure number="2">
			<note>
				<pitch>
					<step>G</step>
					<octave>3</octave>
				</pitch>
				<duration>240</duration>
				<voice>1</voice>
				<type>eighth</type>
				<lyric default-y="-80" number="1">
					<syllabic>middle</syllabic>
					<text>i</text>
				</lyric>
			</note>
			<note>
				<pitch>
					<step>E</step>
					<octave>3</octave>
				</pitch>
				<duration>120</duration>
				<voice>1</voice>
				<type>16th</type>
				<lyric default-y="-80" number="1">
					<syllabic>end</syllabic>
					<text>as</text>
				</lyric>
			</note>
			<note>
				<pitch>
					<step>C</step>
					<octave>3</octave>
				</pitch>
				<duration>120</duration>
				<voice>1</voice>
				<type>16th</type>
				<lyric default-y="-80" number="1">
					<syllabic>begin</syllabic>
					<text>vor</text>
				</lyric>
			</note>
			<note>
				<pitch>
					<step>C</step>
					<octave>4</octave>
				</pitch>
				<duration>240</duration>
				<voice>1</voice>
				<type>eighth</type>
				<lyric default-y="-80" number="1">
					<syllabic>middle</syllabic>
					<text>her</text>
				</lyric>
			</note>
			<note>
				<pitch>
					<step>G</step>
					<octave>3</octave>
				</pitch>
				<duration>240</duration>
				<voice>1</voice>
				<type>eighth</type>
				<lyric default-y="-80" number="1">
					<syllabic>middle</syllabic>
					<text>ge</text>
				</lyric>
			</note>
			<note>
				<pitch>
					<step>A</step>
					<octave>3</octave>
				</pitch>
				<duration>480</duration>
				<voice>1</voice>
				<type>quarter</type>
				<lyric default-y="-80" number="1">
					<syllabic>end</syllabic>
					<text>sehn,</text>
				</lyric>
			</note>
			<note>
				<rest/>
				<duration>120</duration>
				<voice>1</voice>
				<type>16th</type>
			</note>
			<note>
				<pitch>
					<step>F</step>
					<octave>3</octave>
				</pitch>
				<duration>120</duration>
				<voice>1</voice>
				<type>16th</type>
				<lyric default-y="-80" number="1">
					<syllabic>single</syllabic>
					<text>das</text>
				</lyric>
			</note>
			<note>
				<pitch>
					<step>F</step>
					<octave>3</octave>
				</pitch>
				<duration>120</duration>
				<voice>1</voice>
				<type>16th</type>
				<lyric default-y="-80" number="1">
					<syllabic>single</syllabic>
					<text>ist</text>
				</lyric>
			</note>
			<note>
				<pitch>
					<step>C</step>
					<octave>3</octave>
				</pitch>
				<duration>120</duration>
				<voice>1</voice>
				<type>16th</type>
				<lyric default-y="-80" number="1">
					<syllabic>single</syllabic>
					<text>zu</text>
				</lyric>
			</note>
		</measure>
		<measure number="3">
			<note>
				<pitch>
					<step>D</step>
					<octave>3</octave>
				</pitch>
				<duration>240</duration>
				<voice>1</voice>
				<type>eighth</type>
				<lyric default-y="-80" number="1">
					<syllabic>begin</syllabic>
					<text>Beth</text>
				</lyric>
			</note>
			<note>
				<pitch>
					<step>F</step>
					<octave>3</octave>
				</pitch>
				<duration>240</duration>
				<voice>1</voice>
				<type>eighth</type>
				<lyric default-y="-80" number="1">
					<syllabic>middle</syllabic>
					<text>le</text>
				</lyric>
			</note>
			<note>
				<pitch>
					<step>B</step>
					<alter>-1</alter>
					<octave>3</octave>
				</pitch>
				<duration>240</duration>
				<voice>1</voice>
				<type>eighth</type>
				<accidental>flat</accidental>
				<lyric default-y="-80" number="1">
					<syllabic>end</syllabic>
					<text>hem</text>
				</lyric>
			</note>
			<note>
				<pitch>
					<step>A</step>
					<octave>3</octave>
				</pitch>
				<duration>240</duration>
				<voice>1</voice>
				<type>eighth</type>
				<lyric default-y="-80" number="1">
					<syllabic>begin</syllabic>
					<text>ge</text>
				</lyric>
			</note>
			<note>
				<pitch>
					<step>F</step>
					<octave>3</octave>
				</pitch>
				<duration>480</duration>
				<voice>1</voice>
				<type>quarter</type>
				<lyric default-y="-80" number="1">
					<syllabic>end</syllabic>
					<text>schehn.</text>
				</lyric>
			</note>
			<note>
				<rest/>
				<duration>480</duration>
				<voice>1</voice>
				<type>quarter</type>
			</note>
		</measure>
		<measure number="4">
			<print new-system="yes">
				<system-layout>
					<system-margins>
						<left-margin>0</left-margin>
						<right-margin>0</right-margin>
					</system-margins>
					<system-distance>90</system-distance>
				</system-layout>
				<staff-layout number="1">
					<staff-distance>40</staff-distance>
				</staff-layout>
			</print>
			<attributes>
				<time>
					<beats>4</beats>
					<beat-type>4</beat-type>
				</time>
			</attributes>
			<note>
				<rest/>
				<duration>480</duration>
				<voice>1</voice>
				<type>quarter</type>
			</note>
			<note>
				<rest/>
				<duration>240</duration>
				<voice>1</voice>
				<type>eighth</type>
			</note>
			<note>
				<pitch>
					<step>C</step>
					<octave>4</octave>
				</pitch>
				<duration>240</duration>
				<voice>1</voice>
				<type>eighth</type>
				<lyric default-y="-80" number="1">
					<syllabic>single</syllabic>
					<text>Hier</text>
				</lyric>
			</note>
			<note>
				<pitch>
					<step>A</step>
					<octave>3</octave>
				</pitch>
				<duration>240</duration>
				<voice>1</voice>
				<type>eighth</type>
				<lyric default-y="-80" number="1">
					<syllabic>begin</syllabic>
					<text>stel</text>
				</lyric>
			</note>
			<note>
				<pitch>
					<step>A</step>
					<octave>3</octave>
				</pitch>
				<duration>240</duration>
				<voice>1</voice>
				<type>eighth</type>
				<lyric default-y="-80" number="1">
					<syllabic>end</syllabic>
					<text>len</text>
				</lyric>
			</note>
			<note>
				<pitch>
					<step>G</step>
					<octave>3</octave>
				</pitch>
				<duration>240</duration>
				<voice>1</voice>
				<type>eighth</type>
				<lyric default-y="-80" number="1">
					<syllabic>single</syllabic>
					<text>sich</text>
				</lyric>
			</note>
			<note>
				<pitch>
					<step>F</step>
					<octave>3</octave>
				</pitch>
				<duration>240</duration>
				<voice>1</voice>
				<type>eighth</type>
				<lyric default-y="-80" number="1">
					<syllabic>single</syllabic>
					<text>die</text>
				</lyric>
			</note>
		</measure>
		<measure number="5">
			<note>
				<pitch>
					<step>D</step>
					<octave>4</octave>
				</pitch>
				<duration>240</duration>
				<voice>1</voice>
				<type>eighth</type>
				<lyric default-y="-80" number="1">
					<syllabic>begin</syllabic>
					<text>Wei</text>
				</lyric>
			</note>
			<note>
				<pitch>
					<step>D</step>
					<octave>4</octave>
				</pitch>
				<duration>240</duration>
				<voice>1</voice>
				<type>eighth</type>
				<lyric default-y="-80" number="1">
					<syllabic>end</syllabic>
					<text>sen</text>
				</lyric>
			</note>
			<note>
				<rest/>
				<duration>240</duration>
				<voice>1</voice>
				<type>eighth</type>
			</note>
			<note>
				<pitch>
					<step>G</step>
					<octave>3</octave>
				</pitch>
				<duration>240</duration>
				<voice>1</voice>
				<type>eighth</type>
				<lyric default-y="-80" number="1">
					<syllabic>single</syllabic>
					<text>bei</text>
				</lyric>
			</note>
			<note>
				<pitch>
					<step>G</step>
					<octave>3</octave>
				</pitch>
				<duration>240</duration>
				<voice>1</voice>
				<type>eighth</type>
				<lyric default-y="-80" number="1">
					<syllabic>begin</syllabic>
					<text>Je</text>
				</lyric>
			</note>
			<note>
				<pitch>
					<step>D</step>
					<octave>3</octave>
				</pitch>
				<duration>240</duration>
				<voice>1</voice>
				<type>eighth</type>
				<lyric default-y="-80" number="1">
					<syllabic>end</syllabic>
					<text>su</text>
				</lyric>
			</note>
			<note>
				<pitch>
					<step>B</step>
					<octave>2</octave>
				</pitch>
				<duration>240</duration>
				<voice>1</voice>
				<type>eighth</type>
				<lyric default-y="-80" number="1">
					<syllabic>begin</syllabic>
					<text>Krip</text>
				</lyric>
			</note>
			<note>
				<pitch>
					<step>D</step>
					<octave>3</octave>
				</pitch>
				<duration>240</duration>
				<voice>1</voice>
				<type>eighth</type>
				<lyric default-y="-80" number="1">
					<syllabic>end</syllabic>
					<text>pe</text>
				</lyric>
			</note>
		</measure>
		<measure number="6">
			<note>
				<pitch>
					<step>E</step>
					<octave>3</octave>
				</pitch>
				<duration>480</duration>
				<voice>1</voice>
				<type>quarter</type>
				<lyric default-y="-80" number="1">
					<syllabic>single</syllabic>
					<text>ein</text>
				</lyric>
			</note>
			<note>
				<rest/>
				<duration>240</duration>
				<voice>1</voice>
				<type>eighth</type>
			</note>
			<note>
				<pitch>
					<step>C</step>
					<octave>3</octave>
				</pitch>
				<duration>240</duration>
				<voice>1</voice>
				<type>eighth</type>
				<lyric default-y="-80" number="1">
					<syllabic>single</syllabic>
					<text>und</text>
				</lyric>
			</note>
			<note>
				<pitch>
					<step>G</step>
					<octave>3</octave>
				</pitch>
				<duration>240</duration>
				<voice>1</voice>
				<type>eighth</type>
				<lyric default-y="-80" number="1">
					<syllabic>begin</syllabic>
					<text>wol</text>
				</lyric>
			</note>
			<note>
				<pitch>
					<step>G</step>
					<octave>3</octave>
				</pitch>
				<duration>240</duration>
				<voice>1</voice>
				<type>eighth</type>
				<lyric default-y="-80" number="1">
					<syllabic>end</syllabic>
					<text>len</text>
				</lyric>
			</note>
			<note>
				<pitch>
					<step>C</step>
					<octave>4</octave>
				</pitch>
				<duration>240</duration>
				<voice>1</voice>
				<type>eighth</type>
				<lyric default-y="-80" number="1">
					<syllabic>single</syllabic>
					<text>Ihn</text>
				</lyric>
			</note>
			<note>
				<pitch>
					<step>G</step>
					<octave>3</octave>
				</pitch>
				<duration>240</duration>
				<voice>1</voice>
				<type>eighth</type>
				<lyric default-y="-80" number="1">
					<syllabic>single</syllabic>
					<text>als</text>
				</lyric>
			</note>
		</measure>
		<measure number="7">
			<note>
				<pitch>
					<step>A</step>
					<octave>3</octave>
				</pitch>
				<duration>240</duration>
				<voice>1</voice>
				<type>eighth</type>
				<lyric default-y="-80" number="1">
					<syllabic>begin</syllabic>
					<text>ih</text>
				</lyric>
			</note>
			<note>
				<pitch>
					<step>D</step>
					<octave>4</octave>
				</pitch>
				<duration>240</duration>
				<voice>1</voice>
				<type>eighth</type>
				<lyric default-y="-80" number="1">
					<syllabic>end</syllabic>
					<text>ren</text>
				</lyric>
			</note>
			<note>
				<pitch>
					<step>B</step>
					<octave>3</octave>
				</pitch>
				<duration>240</duration>
				<voice>1</voice>
				<type>eighth</type>
				<lyric default-y="-80" number="1">
					<syllabic>begin</syllabic>
					<text>Kö</text>
				</lyric>
			</note>
			<note>
				<pitch>
					<step>C</step>
					<octave>4</octave>
				</pitch>
				<duration>240</duration>
				<voice>1</voice>
				<type>eighth</type>
				<lyric default-y="-80" number="1">
					<syllabic>end</syllabic>
					<text>nig</text>
				</lyric>
			</note>
			<note>
				<pitch>
					<step>C</step>
					<octave>4</octave>
				</pitch>
				<duration>240</duration>
				<voice>1</voice>
				<type>eighth</type>
				<lyric default-y="-80" number="1">
					<syllabic>begin</syllabic>
					<text>prei</text>
				</lyric>
			</note>
			<note>
				<pitch>
					<step>G</step>
					<octave>3</octave>
				</pitch>
				<duration>240</duration>
				<voice>1</voice>
				<type>eighth</type>
				<lyric default-y="-80" number="1">
					<syllabic>end</syllabic>
					<text>sen.</text>
				</lyric>
			</note>
			<note>
				<rest/>
				<duration>480</duration>
				<voice>1</voice>
				<type>quarter</type>
			</note>
		</measure>
		<measure number="8">
			<print new-system="yes">
				<system-layout>
					<system-margins>
						<left-margin>0</left-margin>
						<right-margin>0</right-margin>
					</system-margins>
					<system-distance>90</system-distance>
				</system-layout>
				<staff-layout number="1">
					<staff-distance>40</staff-distance>
				</staff-layout>
			</print>
			<note>
				<rest/>
				<duration>480</duration>
				<voice>1</voice>
				<type>quarter</type>
			</note>
			<note>
				<pitch>
					<step>A</step>
					<octave>3</octave>
				</pitch>
				<duration>480</duration>
				<voice>1</voice>
				<type>quarter</type>
				<lyric default-y="-80" number="1">
					<syllabic>single</syllabic>
					<text>Gold,</text>
				</lyric>
			</note>
			<note>
				<rest/>
				<duration>480</duration>
				<voice>1</voice>
				<type>quarter</type>
			</note>
			<note>
				<pitch>
					<step>F</step>
					<alter>1</alter>
					<octave>3</octave>
				</pitch>
				<duration>240</duration>
				<voice>1</voice>
				<type>eighth</type>
				<accidental>sharp</accidental>
				<lyric default-y="-80" number="1">
					<syllabic>begin</syllabic>
					<text>Weih</text>
				</lyric>
			</note>
			<note>
				<pitch>
					<step>D</step>
					<octave>3</octave>
				</pitch>
				<duration>240</duration>
				<voice>1</voice>
				<type>eighth</type>
				<lyric default-y="-80" number="1">
					<syllabic>end</syllabic>
					<text>rauch,</text>
				</lyric>
			</note>
		</measure>
		<measure number="9">
			<note>
				<rest/>
				<duration>480</duration>
				<voice>1</voice>
				<type>quarter</type>
			</note>
			<note>
				<pitch>
					<step>D</step>
					<octave>4</octave>
				</pitch>
				<duration>240</duration>
				<voice>1</voice>
				<type>eighth</type>
				<lyric default-y="-80" number="1">
					<syllabic>begin</syllabic>
					<text>Myrr</text>
				</lyric>
			</note>
			<note>
				<pitch>
					<step>G</step>
					<alter>1</alter>
					<octave>3</octave>
				</pitch>
				<duration>240</duration>
				<voice>1</voice>
				<type>eighth</type>
				<accidental>sharp</accidental>
				<lyric default-y="-80" number="1">
					<syllabic>end</syllabic>
					<text>hen</text>
				</lyric>
			</note>
			<note>
				<rest/>
				<duration>240</duration>
				<voice>1</voice>
				<type>eighth</type>
			</note>
			<note>
				<pitch>
					<step>E</step>
					<octave>3</octave>
				</pitch>
				<duration>120</duration>
				<voice>1</voice>
				<type>16th</type>
				<lyric default-y="-80" number="1">
					<syllabic>single</syllabic>
					<text>sind</text>
				</lyric>
			</note>
			<note>
				<pitch>
					<step>F</step>
					<alter>1</alter>
					<octave>3</octave>
				</pitch>
				<duration>120</duration>
				<voice>1</voice>
				<type>16th</type>
				<accidental>sharp</accidental>
				<lyric default-y="-80" number="1">
					<syllabic>single</syllabic>
					<text>die</text>
				</lyric>
			</note>
			<note>
				<pitch>
					<step>G</step>
					<alter>1</alter>
					<octave>3</octave>
				</pitch>
				<duration>120</duration>
				<voice>1</voice>
				<type>16th</type>
				<lyric default-y="-80" number="1">
					<syllabic>begin</syllabic>
					<text>köst</text>
				</lyric>
			</note>
			<note>
				<pitch>
					<step>G</step>
					<alter>1</alter>
					<octave>3</octave>
				</pitch>
				<duration>120</duration>
				<voice>1</voice>
				<type>16th</type>
				<lyric default-y="-80" number="1">
					<syllabic>middle</syllabic>
					<text>li</text>
				</lyric>
			</note>
			<note>
				<pitch>
					<step>A</step>
					<octave>3</octave>
				</pitch>
				<duration>120</duration>
				<voice>1</voice>
				<type>16th</type>
				<lyric default-y="-80" number="1">
					<syllabic>end</syllabic>
					<text>chen</text>
				</lyric>
			</note>
			<note>
				<pitch>
					<step>B</step>
					<octave>3</octave>
				</pitch>
				<duration>120</duration>
				<voice>1</voice>
				<type>16th</type>
				<lyric default-y="-80" number="1">
					<syllabic>begin</syllabic>
					<text>Ge</text>
				</lyric>
			</note>
		</measure>
		<measure number="10">
			<note>
				<pitch>
					<step>C</step>
					<octave>3</octave>
				</pitch>
				<duration>240</duration>
				<voice>1</voice>
				<type>eighth</type>
				<lyric default-y="-80" number="1">
					<syllabic>middle</syllabic>
					<text>schen</text>
				</lyric>
			</note>
			<note>
				<pitch>
					<step>C</step>
					<octave>3</octave>
				</pitch>
				<duration>240</duration>
				<voice>1</voice>
				<type>eighth</type>
				<lyric default-y="-80" number="1">
					<syllabic>end</syllabic>
					<text>ke,</text>
				</lyric>
			</note>
			<note>
				<rest/>
				<duration>240</duration>
				<voice>1</voice>
				<type>eighth</type>
			</note>
			<note>
				<pitch>
					<step>E</step>
					<octave>3</octave>
				</pitch>
				<duration>240</duration>
				<voice>1</voice>
				<type>eighth</type>
				<lyric default-y="-80" number="1">
					<syllabic>begin</syllabic>
					<text>wo</text>
				</lyric>
			</note>
			<note>
				<pitch>
					<step>A</step>
					<octave>3</octave>
				</pitch>
				<duration>240</duration>
				<voice>1</voice>
				<type>eighth</type>
				<lyric default-y="-80" number="1">
					<syllabic>end</syllabic>
					<text>mit</text>
				</lyric>
			</note>
			<note>
				<pitch>
					<step>A</step>
					<octave>3</octave>
				</pitch>
				<duration>240</duration>
				<voice>1</voice>
				<type>eighth</type>
				<lyric default-y="-80" number="1">
					<syllabic>single</syllabic>
					<text>sie</text>
				</lyric>
			</note>
			<note>
				<pitch>
					<step>B</step>
					<octave>3</octave>
				</pitch>
				<duration>240</duration>
				<voice>1</voice>
				<type>eighth</type>
				<lyric default-y="-80" number="1">
					<syllabic>begin</syllabic>
					<text>die</text>
				</lyric>
			</note>
			<note>
				<pitch>
					<step>C</step>
					<octave>4</octave>
				</pitch>
				<duration>240</duration>
				<voice>1</voice>
				<type>eighth</type>
				<lyric default-y="-80" number="1">
					<syllabic>end</syllabic>
					<text>ses</text>
				</lyric>
			</note>
		</measure>
		<measure number="11">
			<note>
				<pitch>
					<step>D</step>
					<octave>4</octave>
				</pitch>
				<duration>240</duration>
				<voice>1</voice>
				<type>eighth</type>
				<lyric default-y="-80" number="1">
					<syllabic>begin</syllabic>
					<text>Je</text>
				</lyric>
			</note>
			<note>
				<pitch>
					<step>B</step>
					<octave>3</octave>
				</pitch>
				<duration>240</duration>
				<voice>1</voice>
				<type>eighth</type>
				<lyric default-y="-80" number="1">
					<syllabic>middle</syllabic>
					<text>sus</text>
				</lyric>
			</note>
			<note>
				<pitch>
					<step>G</step>
					<octave>3</octave>
				</pitch>
				<duration>240</duration>
				<voice>1</voice>
				<type>eighth</type>
				<lyric default-y="-80" number="1">
					<syllabic>end</syllabic>
					<text>kind</text>
				</lyric>
			</note>
			<note>
				<rest/>
				<duration>120</duration>
				<voice>1</voice>
				<type>16th</type>
			</note>
			<note>
				<pitch>
					<step>D</step>
					<octave>3</octave>
				</pitch>
				<duration>120</duration>
				<voice>1</voice>
				<type>16th</type>
				<lyric default-y="-80" number="1">
					<syllabic>single</syllabic>
					<text>zu</text>
				</lyric>
			</note>
			<note>
				<pitch>
					<step>B</step>
					<alter>-1</alter>
					<octave>3</octave>
				</pitch>
				<duration>240</duration>
				<voice>1</voice>
				<type>eighth</type>
				<accidental>flat</accidental>
				<lyric default-y="-80" number="1">
					<syllabic>begin</syllabic>
					<text>Beth</text>
				</lyric>
			</note>
			<note>
				<pitch>
					<step>B</step>
					<alter>-1</alter>
					<octave>3</octave>
				</pitch>
				<duration>240</duration>
				<voice>1</voice>
				<type>eighth</type>
				<lyric default-y="-80" number="1">
					<syllabic>middle</syllabic>
					<text>le</text>
				</lyric>
			</note>
			<note>
				<pitch>
					<step>B</step>
					<alter>-1</alter>
					<octave>3</octave>
				</pitch>
				<duration>240</duration>
				<voice>1</voice>
				<type>eighth</type>
				<lyric default-y="-80" number="1">
					<syllabic>end</syllabic>
					<text>hem</text>
				</lyric>
			</note>
			<note>
				<pitch>
					<step>A</step>
					<octave>3</octave>
				</pitch>
				<duration>240</duration>
				<voice>1</voice>
				<type>eighth</type>
				<lyric default-y="-80" number="1">
					<syllabic>single</syllabic>
					<text>im</text>
				</lyric>
			</note>
		</measure>
		<measure number="12">
			<print new-system="yes">
				<system-layout>
					<system-margins>
						<left-margin>0</left-margin>
						<right-margin>0</right-margin>
					</system-margins>
					<system-distance>90</system-distance>
				</system-layout>
				<staff-layout number="1">
					<staff-distance>40</staff-distance>
				</staff-layout>
			</print>
			<note>
				<pitch>
					<step>F</step>
					<alter>1</alter>
					<octave>3</octave>
				</pitch>
				<duration>240</duration>
				<voice>1</voice>
				<type>eighth</type>
				<accidental>sharp</accidental>
				<lyric default-y="-80" number="1">
					<syllabic>single</syllabic>
					<text>Stall</text>
				</lyric>
			</note>
			<note>
				<rest/>
				<duration>120</duration>
				<voice>1</voice>
				<type>16th</type>
			</note>
			<note>
				<pitch>
					<step>G</step>
					<octave>3</octave>
				</pitch>
				<duration>120</duration>
				<voice>1</voice>
				<type>16th</type>
				<lyric default-y="-80" number="1">
					<syllabic>begin</syllabic>
					<text>be</text>
				</lyric>
			</note>
			<note>
				<pitch>
					<step>G</step>
					<octave>3</octave>
				</pitch>
				<duration>240</duration>
				<voice>1</voice>
				<type>eighth</type>
				<lyric default-y="-80" number="1">
					<syllabic>middle</syllabic>
					<text>eh</text>
				</lyric>
			</note>
			<note>
				<pitch>
					<step>D</step>
					<octave>3</octave>
				</pitch>
				<duration>240</duration>
				<voice>1</voice>
				<type>eighth</type>
				<lyric default-y="-80" number="1">
					<syllabic>end</syllabic>
					<text>ren.</text>
				</lyric>
			</note>
			<note>
				<rest/>
				<duration>480</duration>
				<voice>1</voice>
				<type>quarter</type>
			</note>
			<note>
				<rest/>
				<duration>240</duration>
				<voice>1</voice>
				<type>eighth</type>
			</note>
			<note>
				<pitch>
					<step>D</step>
					<octave>4</octave>
				</pitch>
				<duration>240</duration>
				<voice>1</voice>
				<type>eighth</type>
				<lyric default-y="-80" number="1">
					<syllabic>single</syllabic>
					<text>Mein</text>
				</lyric>
			</note>
		</measure>
		<measure number="13">
			<note>
				<pitch>
					<step>D</step>
					<octave>4</octave>
				</pitch>
				<duration>240</duration>
				<voice>1</voice>
				<type>eighth</type>
				<beam number="1">begin</beam>
				<lyric default-y="-80" number="1">
					<syllabic>single</syllabic>
					<text>Je</text>
				</lyric>
			</note>
			<note>
				<pitch>
					<step>B</step>
					<octave>3</octave>
				</pitch>
				<duration>240</duration>
				<voice>1</voice>
				<type>eighth</type>
				<beam number="1">end</beam>
			</note>
			<note>
				<pitch>
					<step>G</step>
					<octave>3</octave>
				</pitch>
				<duration>480</duration>
				<voice>1</voice>
				<type>quarter</type>
				<lyric default-y="-80" number="1">
					<syllabic>single</syllabic>
					<text>su,</text>
				</lyric>
			</note>
			<note>
				<rest/>
				<duration>240</duration>
				<voice>1</voice>
				<type>eighth</type>
			</note>
			<note>
				<pitch>
					<step>B</step>
					<octave>2</octave>
				</pitch>
				<duration>120</duration>
				<voice>1</voice>
				<type>16th</type>
				<lyric default-y="-80" number="1">
					<syllabic>single</syllabic>
					<text>wenn</text>
				</lyric>
			</note>
			<note>
				<pitch>
					<step>C</step>
					<octave>3</octave>
				</pitch>
				<duration>120</duration>
				<voice>1</voice>
				<type>16th</type>
				<lyric default-y="-80" number="1">
					<syllabic>single</syllabic>
					<text>ich</text>
				</lyric>
			</note>
			<note>
				<pitch>
					<step>D</step>
					<octave>3</octave>
				</pitch>
				<duration>240</duration>
				<voice>1</voice>
				<type>eighth</type>
				<lyric default-y="-80" number="1">
					<syllabic>single</syllabic>
					<text>jetzt</text>
				</lyric>
			</note>
			<note>
				<pitch>
					<step>E</step>
					<octave>3</octave>
				</pitch>
				<duration>240</duration>
				<voice>1</voice>
				<type>eighth</type>
				<lyric default-y="-80" number="1">
					<syllabic>single</syllabic>
					<text>an</text>
				</lyric>
			</note>
		</measure>
		<measure number="14">
			<note>
				<pitch>
					<step>F</step>
					<octave>3</octave>
				</pitch>
				<duration>240</duration>
				<voice>1</voice>
				<type>eighth</type>
				<lyric default-y="-80" number="1">
					<syllabic>begin</syllabic>
					<text>mei</text>
				</lyric>
			</note>
			<note>
				<pitch>
					<step>F</step>
					<octave>3</octave>
				</pitch>
				<duration>240</duration>
				<voice>1</voice>
				<type>eighth</type>
				<lyric default-y="-80" number="1">
					<syllabic>end</syllabic>
					<text>ne</text>
				</lyric>
			</note>
			<note>
				<pitch>
					<step>A</step>
					<octave>3</octave>
				</pitch>
				<duration>240</duration>
				<voice>1</voice>
				<type>eighth</type>
				<lyric default-y="-80" number="1">
					<syllabic>single</syllabic>
					<text>Pflicht</text>
				</lyric>
			</note>
			<note>
				<pitch>
					<step>G</step>
					<octave>3</octave>
				</pitch>
				<duration>240</duration>
				<voice>1</voice>
				<type>eighth</type>
				<lyric default-y="-80" number="1">
					<syllabic>begin</syllabic>
					<text>ge</text>
				</lyric>
			</note>
			<note>
				<pitch>
					<step>E</step>
					<octave>3</octave>
				</pitch>
				<duration>240</duration>
				<voice>1</voice>
				<type>eighth</type>
				<lyric default-y="-80" number="1">
					<syllabic>middle</syllabic>
					<text>den</text>
				</lyric>
			</note>
			<note>
				<pitch>
					<step>E</step>
					<octave>3</octave>
				</pitch>
				<duration>240</duration>
				<voice>1</voice>
				<type>eighth</type>
				<lyric default-y="-80" number="1">
					<syllabic>end</syllabic>
					<text>ke,</text>
				</lyric>
			</note>
			<note>
				<rest/>
				<duration>240</duration>
				<voice>1</voice>
				<type>eighth</type>
			</note>
			<note>
				<pitch>
					<step>E</step>
					<octave>4</octave>
				</pitch>
				<duration>240</duration>
				<voice>1</voice>
				<type>eighth</type>
				<lyric default-y="-80" number="1">
					<syllabic>single</syllabic>
					<text>muß</text>
				</lyric>
			</note>
		</measure>
		<measure number="15">
			<note>
				<pitch>
					<step>E</step>
					<octave>4</octave>
				</pitch>
				<duration>240</duration>
				<voice>1</voice>
				<type>eighth</type>
				<lyric default-y="-80" number="1">
					<syllabic>single</syllabic>
					<text>ich</text>
				</lyric>
			</note>
			<note>
				<pitch>
					<step>A</step>
					<octave>3</octave>
				</pitch>
				<duration>240</duration>
				<voice>1</voice>
				<type>eighth</type>
				<lyric default-y="-80" number="1">
					<syllabic>single</syllabic>
					<text>mich</text>
				</lyric>
			</note>
			<note>
				<pitch>
					<step>G</step>
					<octave>3</octave>
				</pitch>
				<duration>240</duration>
				<voice>1</voice>
				<type>eighth</type>
				<lyric default-y="-80" number="1">
					<syllabic>single</syllabic>
					<text>auch</text>
				</lyric>
			</note>
			<note>
				<pitch>
					<step>A</step>
					<octave>3</octave>
				</pitch>
				<duration>240</duration>
				<voice>1</voice>
				<type>eighth</type>
				<lyric default-y="-80" number="1">
					<syllabic>single</syllabic>
					<text>zu</text>
				</lyric>
			</note>
			<note>
				<pitch>
					<step>B</step>
					<alter>-1</alter>
					<octave>3</octave>
				</pitch>
				<duration>240</duration>
				<voice>1</voice>
				<type>eighth</type>
				<accidental>flat</accidental>
				<lyric default-y="-80" number="1">
					<syllabic>begin</syllabic>
					<text>dei</text>
				</lyric>
			</note>
			<note>
				<pitch>
					<step>G</step>
					<octave>3</octave>
				</pitch>
				<duration>240</duration>
				<voice>1</voice>
				<type>eighth</type>
				<lyric default-y="-80" number="1">
					<syllabic>end</syllabic>
					<text>ner</text>
				</lyric>
			</note>
			<note>
				<pitch>
					<step>E</step>
					<octave>3</octave>
				</pitch>
				<duration>240</duration>
				<voice>1</voice>
				<type>eighth</type>
				<lyric default-y="-80" number="1">
					<syllabic>begin</syllabic>
					<text>Krip</text>
				</lyric>
			</note>
			<note>
				<pitch>
					<step>A</step>
					<octave>3</octave>
				</pitch>
				<duration>240</duration>
				<voice>1</voice>
				<type>eighth</type>
				<lyric default-y="-80" number="1">
					<syllabic>end</syllabic>
					<text>pe</text>
				</lyric>
			</note>
		</measure>
		<measure number="16">
			<print new-system="yes">
				<system-layout>
					<system-margins>
						<left-margin>0</left-margin>
						<right-margin>0</right-margin>
					</system-margins>
					<system-distance>90</system-distance>
				</system-layout>
				<staff-layout number="1">
					<staff-distance>40</staff-distance>
				</staff-layout>
			</print>
			<note>
				<pitch>
					<step>F</step>
					<octave>3</octave>
				</pitch>
				<duration>240</duration>
				<voice>1</voice>
				<type>eighth</type>
				<lyric default-y="-80" number="1">
					<syllabic>begin</syllabic>
					<text>keh</text>
				</lyric>
			</note>
			<note>
				<pitch>
					<step>F</step>
					<octave>3</octave>
				</pitch>
				<duration>240</duration>
				<voice>1</voice>
				<type>eighth</type>
				<lyric default-y="-80" number="1">
					<syllabic>end</syllabic>
					<text>ren</text>
				</lyric>
			</note>
			<note>
				<rest/>
				<duration>240</duration>
				<voice>1</voice>
				<type>eighth</type>
			</note>
			<note>
				<pitch>
					<step>D</step>
					<octave>3</octave>
				</pitch>
				<duration>240</duration>
				<voice>1</voice>
				<type>eighth</type>
				<lyric default-y="-80" number="1">
					<syllabic>single</syllabic>
					<text>und</text>
				</lyric>
			</note>
			<note>
				<pitch>
					<step>G</step>
					<octave>3</octave>
				</pitch>
				<duration>240</duration>
				<voice>1</voice>
				<type>eighth</type>
				<lyric default-y="-80" number="1">
					<syllabic>begin</syllabic>
					<text>gleich</text>
				</lyric>
			</note>
			<note>
				<pitch>
					<step>E</step>
					<octave>3</octave>
				</pitch>
				<duration>240</duration>
				<voice>1</voice>
				<type>eighth</type>
				<lyric default-y="-80" number="1">
					<syllabic>end</syllabic>
					<text>falls</text>
				</lyric>
			</note>
			<note>
				<pitch>
					<step>C</step>
					<alter>1</alter>
					<octave>3</octave>
				</pitch>
				<duration>360</duration>
				<voice>1</voice>
				<type>eighth</type>
				<dot/>
				<accidental>sharp</accidental>
				<lyric default-y="-80" number="1">
					<syllabic>begin</syllabic>
					<text>dank</text>
				</lyric>
			</note>
			<note>
				<pitch>
					<step>F</step>
					<octave>3</octave>
				</pitch>
				<duration>120</duration>
				<voice>1</voice>
				<type>16th</type>
				<lyric default-y="-80" number="1">
					<syllabic>end</syllabic>
					<text>bar</text>
				</lyric>
			</note>
		</measure>
		<measure number="17">
			<note>
				<pitch>
					<step>D</step>
					<octave>3</octave>
				</pitch>
				<duration>480</duration>
				<voice>1</voice>
				<type>quarter</type>
				<lyric default-y="-80" number="1">
					<syllabic>single</syllabic>
					<text>sein,</text>
				</lyric>
			</note>
			<note>
				<rest/>
				<duration>120</duration>
				<voice>1</voice>
				<type>16th</type>
			</note>
			<note>
				<pitch>
					<step>D</step>
					<octave>3</octave>
				</pitch>
				<duration>120</duration>
				<voice>1</voice>
				<type>16th</type>
				<lyric default-y="-80" number="1">
					<syllabic>single</syllabic>
					<text>denn</text>
				</lyric>
			</note>
			<note>
				<pitch>
					<step>A</step>
					<octave>3</octave>
				</pitch>
				<duration>120</duration>
				<voice>1</voice>
				<type>16th</type>
				<lyric default-y="-80" number="1">
					<syllabic>begin</syllabic>
					<text>die</text>
				</lyric>
			</note>
			<note>
				<pitch>
					<step>B</step>
					<octave>3</octave>
				</pitch>
				<duration>120</duration>
				<voice>1</voice>
				<type>16th</type>
				<lyric default-y="-80" number="1">
					<syllabic>end</syllabic>
					<text>ser</text>
				</lyric>
			</note>
			<note>
				<pitch>
					<step>C</step>
					<octave>4</octave>
				</pitch>
				<duration>480</duration>
				<voice>1</voice>
				<type>quarter</type>
				<lyric default-y="-80" number="1">
					<syllabic>single</syllabic>
					<text>Tag</text>
				</lyric>
			</note>
			<note>
				<rest/>
				<duration>240</duration>
				<voice>1</voice>
				<type>eighth</type>
			</note>
			<note>
				<pitch>
					<step>A</step>
					<octave>3</octave>
				</pitch>
				<duration>240</duration>
				<voice>1</voice>
				<type>eighth</type>
				<lyric default-y="-80" number="1">
					<syllabic>single</syllabic>
					<text>ist</text>
				</lyric>
			</note>
		</measure>
		<measure number="18">
			<note>
				<pitch>
					<step>F</step>
					<alter>1</alter>
					<octave>3</octave>
				</pitch>
				<duration>240</duration>
				<voice>1</voice>
				<type>eighth</type>
				<accidental>sharp</accidental>
				<lyric default-y="-80" number="1">
					<syllabic>single</syllabic>
					<text>mir</text>
				</lyric>
			</note>
			<note>
				<pitch>
					<step>D</step>
					<octave>3</octave>
				</pitch>
				<duration>240</duration>
				<voice>1</voice>
				<type>eighth</type>
				<lyric default-y="-80" number="1">
					<syllabic>single</syllabic>
					<text>ein</text>
				</lyric>
			</note>
			<note>
				<pitch>
					<step>D</step>
					<octave>4</octave>
				</pitch>
				<duration>240</duration>
				<voice>1</voice>
				<type>eighth</type>
				<lyric default-y="-80" number="1">
					<syllabic>single</syllabic>
					<text>Tag</text>
				</lyric>
			</note>
			<note>
				<pitch>
					<step>A</step>
					<octave>3</octave>
				</pitch>
				<duration>240</duration>
				<voice>1</voice>
				<type>eighth</type>
				<lyric default-y="-80" number="1">
					<syllabic>single</syllabic>
					<text>der</text>
				</lyric>
			</note>
			<note>
				<pitch>
					<step>B</step>
					<octave>3</octave>
				</pitch>
				<duration>240</duration>
				<voice>1</voice>
				<type>eighth</type>
				<lyric default-y="-80" number="1">
					<syllabic>begin</syllabic>
					<text>Freu</text>
				</lyric>
			</note>
			<note>
				<pitch>
					<step>B</step>
					<octave>3</octave>
				</pitch>
				<duration>240</duration>
				<voice>1</voice>
				<type>eighth</type>
				<lyric default-y="-80" number="1">
					<syllabic>end</syllabic>
					<text>den,</text>
				</lyric>
			</note>
			<note>
				<rest/>
				<duration>240</duration>
				<voice>1</voice>
				<type>eighth</type>
			</note>
			<note>
				<pitch>
					<step>G</step>
					<octave>3</octave>
				</pitch>
				<duration>240</duration>
				<voice>1</voice>
				<type>eighth</type>
				<lyric default-y="-80" number="1">
					<syllabic>single</syllabic>
					<text>da</text>
				</lyric>
			</note>
		</measure>
		<measure number="19">
			<note>
				<pitch>
					<step>D</step>
					<octave>4</octave>
				</pitch>
				<duration>240</duration>
				<voice>1</voice>
				<type>eighth</type>
				<lyric default-y="-80" number="1">
					<syllabic>single</syllabic>
					<text>du,</text>
				</lyric>
			</note>
			<note>
				<rest/>
				<duration>120</duration>
				<voice>1</voice>
				<type>16th</type>
			</note>
			<note>
				<pitch>
					<step>D</step>
					<octave>4</octave>
				</pitch>
				<duration>120</duration>
				<voice>1</voice>
				<type>16th</type>
				<lyric default-y="-80" number="1">
					<syllabic>single</syllabic>
					<text>o</text>
				</lyric>
			</note>
			<note>
				<pitch>
					<step>C</step>
					<octave>4</octave>
				</pitch>
				<duration>120</duration>
				<voice>1</voice>
				<type>16th</type>
				<beam number="1">begin</beam>
				<beam number="2">begin</beam>
				<lyric default-y="-80" number="1">
					<syllabic>single</syllabic>
					<text>Le</text>
				</lyric>
			</note>
			<note>
				<pitch>
					<step>B</step>
					<octave>3</octave>
				</pitch>
				<duration>120</duration>
				<voice>1</voice>
				<type>16th</type>
				<beam number="1">end</beam>
				<beam number="2">end</beam>
			</note>
			<note>
				<pitch>
					<step>A</step>
					<octave>3</octave>
				</pitch>
				<duration>120</duration>
				<voice>1</voice>
				<type>16th</type>
				<beam number="1">begin</beam>
				<beam number="2">begin</beam>
				<lyric default-y="-80" number="1">
					<syllabic>single</syllabic>
					<text>bens</text>
				</lyric>
			</note>
			<note>
				<pitch>
					<step>B</step>
					<octave>3</octave>
				</pitch>
				<duration>60</duration>
				<voice>1</voice>
				<type>32nd</type>
				<beam number="1">continue</beam>
				<beam number="2">continue</beam>
				<beam number="3">begin</beam>
			</note>
			<note>
				<pitch>
					<step>G</step>
					<octave>3</octave>
				</pitch>
				<duration>60</duration>
				<voice>1</voice>
				<type>32nd</type>
				<beam number="1">end</beam>
				<beam number="2">end</beam>
				<beam number="3">end</beam>
			</note>
		</measure>
		<measure number="20">
			<print new-system="yes">
				<system-layout>
					<system-margins>
						<left-margin>0</left-margin>
						<right-margin>0</right-margin>
					</system-margins>
					<system-distance>90</system-distance>
				</system-layout>
				<staff-layout number="1">
					<staff-distance>40</staff-distance>
				</staff-layout>
			</print>
			<note>
				<pitch>
					<step>E</step>
					<octave>4</octave>
				</pitch>
				<duration>240</duration>
				<voice>1</voice>
				<type>eighth</type>
				<lyric default-y="-80" number="1">
					<syllabic>single</syllabic>
					<text>fürst,</text>
				</lyric>
			</note>
			<note>
				<rest/>
				<duration>120</duration>
				<voice>1</voice>
				<type>16th</type>
			</note>
			<note>
				<pitch>
					<step>B</step>
					<octave>3</octave>
				</pitch>
				<duration>120</duration>
				<voice>1</voice>
				<type>16th</type>
				<lyric default-y="-80" number="1">
					<syllabic>single</syllabic>
					<text>das</text>
				</lyric>
			</note>
			<note>
				<pitch>
					<step>G</step>
					<alter>1</alter>
					<octave>3</octave>
				</pitch>
				<duration>240</duration>
				<voice>1</voice>
				<type>eighth</type>
				<accidental>sharp</accidental>
				<lyric default-y="-80" number="1">
					<syllabic>single</syllabic>
					<text>Licht</text>
				</lyric>
			</note>
			<note>
				<pitch>
					<step>E</step>
					<octave>3</octave>
				</pitch>
				<duration>240</duration>
				<voice>1</voice>
				<type>eighth</type>
				<lyric default-y="-80" number="1">
					<syllabic>single</syllabic>
					<text>der</text>
				</lyric>
			</note>
			<note>
				<pitch>
					<step>F</step>
					<octave>3</octave>
				</pitch>
				<duration>240</duration>
				<voice>1</voice>
				<type>eighth</type>
				<lyric default-y="-80" number="1">
					<syllabic>begin</syllabic>
					<text>Hei</text>
				</lyric>
			</note>
			<note>
				<pitch>
					<step>F</step>
					<octave>3</octave>
				</pitch>
				<duration>240</duration>
				<voice>1</voice>
				<type>eighth</type>
				<lyric default-y="-80" number="1">
					<syllabic>end</syllabic>
					<text>den</text>
				</lyric>
			</note>
			<note>
				<rest/>
				<duration>240</duration>
				<voice>1</voice>
				<type>eighth</type>
			</note>
			<note>
				<pitch>
					<step>D</step>
					<octave>3</octave>
				</pitch>
				<duration>240</duration>
				<voice>1</voice>
				<type>eighth</type>
				<lyric default-y="-80" number="1">
					<syllabic>single</syllabic>
					<text>und</text>
				</lyric>
			</note>
		</measure>
		<measure number="21">
			<note>
				<pitch>
					<step>G</step>
					<alter>1</alter>
					<octave>3</octave>
				</pitch>
				<duration>240</duration>
				<voice>1</voice>
				<type>eighth</type>
				<accidental>sharp</accidental>
				<lyric default-y="-80" number="1">
					<syllabic>single</syllabic>
					<text>ihr</text>
				</lyric>
			</note>
			<note>
				<pitch>
					<step>A</step>
					<octave>3</octave>
				</pitch>
				<duration>240</duration>
				<voice>1</voice>
				<type>eighth</type>
				<lyric default-y="-80" number="1">
					<syllabic>begin</syllabic>
					<text>Er</text>
				</lyric>
			</note>
			<note>
				<pitch>
					<step>C</step>
					<octave>4</octave>
				</pitch>
				<duration>240</duration>
				<voice>1</voice>
				<type>eighth</type>
				<lyric default-y="-80" number="1">
					<syllabic>middle</syllabic>
					<text>lö</text>
				</lyric>
			</note>
			<note>
				<pitch>
					<step>B</step>
					<octave>3</octave>
				</pitch>
				<duration>240</duration>
				<voice>1</voice>
				<type>eighth</type>
				<lyric default-y="-80" number="1">
					<syllabic>end</syllabic>
					<text>ser</text>
				</lyric>
			</note>
			<note>
				<pitch>
					<step>A</step>
					<octave>3</octave>
				</pitch>
				<duration>480</duration>
				<voice>1</voice>
				<type>quarter</type>
				<lyric default-y="-80" number="1">
					<syllabic>single</syllabic>
					<text>wirst.</text>
				</lyric>
			</note>
			<note>
				<rest/>
				<duration>480</duration>
				<voice>1</voice>
				<type>quarter</type>
			</note>
		</measure>
		<measure number="22">
			<note>
				<rest/>
				<duration>240</duration>
				<voice>1</voice>
				<type>eighth</type>
			</note>
			<note>
				<pitch>
					<step>C</step>
					<octave>4</octave>
				</pitch>
				<duration>240</duration>
				<voice>1</voice>
				<type>eighth</type>
				<lyric default-y="-80" number="1">
					<syllabic>single</syllabic>
					<text>Was</text>
				</lyric>
			</note>
			<note>
				<pitch>
					<step>E</step>
					<octave>3</octave>
				</pitch>
				<duration>240</duration>
				<voice>1</voice>
				<type>eighth</type>
				<lyric default-y="-80" number="1">
					<syllabic>begin</syllabic>
					<text>a</text>
				</lyric>
			</note>
			<note>
				<pitch>
					<step>F</step>
					<octave>3</octave>
				</pitch>
				<duration>240</duration>
				<voice>1</voice>
				<type>eighth</type>
				<lyric default-y="-80" number="1">
					<syllabic>end</syllabic>
					<text>ber</text>
				</lyric>
			</note>
			<note>
				<pitch>
					<step>G</step>
					<octave>3</octave>
				</pitch>
				<duration>120</duration>
				<voice>1</voice>
				<type>16th</type>
				<lyric default-y="-80" number="1">
					<syllabic>single</syllabic>
					<text>bring'</text>
				</lyric>
			</note>
			<note>
				<pitch>
					<step>E</step>
					<octave>3</octave>
				</pitch>
				<duration>120</duration>
				<voice>1</voice>
				<type>16th</type>
				<lyric default-y="-80" number="1">
					<syllabic>single</syllabic>
					<text>ich</text>
				</lyric>
			</note>
			<note>
				<pitch>
					<step>C</step>
					<octave>3</octave>
				</pitch>
				<duration>240</duration>
				<voice>1</voice>
				<type>eighth</type>
				<lyric default-y="-80" number="1">
					<syllabic>single</syllabic>
					<text>wohl,</text>
				</lyric>
			</note>
			<note>
				<rest/>
				<duration>120</duration>
				<voice>1</voice>
				<type>16th</type>
			</note>
			<note>
				<pitch>
					<step>G</step>
					<octave>3</octave>
				</pitch>
				<duration>120</duration>
				<voice>1</voice>
				<type>16th</type>
				<lyric default-y="-80" number="1">
					<syllabic>single</syllabic>
					<text>du</text>
				</lyric>
			</note>
			<note>
				<pitch>
					<step>E</step>
					<octave>4</octave>
				</pitch>
				<duration>120</duration>
				<voice>1</voice>
				<type>16th</type>
				<lyric default-y="-80" number="1">
					<syllabic>begin</syllabic>
					<text>Him</text>
				</lyric>
			</note>
			<note>
				<pitch>
					<step>C</step>
					<octave>4</octave>
				</pitch>
				<duration>120</duration>
				<voice>1</voice>
				<type>16th</type>
				<lyric default-y="-80" number="1">
					<syllabic>middle</syllabic>
					<text>mels</text>
				</lyric>
			</note>
		</measure>
		<measure number="23">
			<note>
				<pitch>
					<step>A</step>
					<octave>3</octave>
				</pitch>
				<duration>240</duration>
				<voice>1</voice>
				<type>eighth</type>
				<lyric default-y="-80" number="1">
					<syllabic>middle</syllabic>
					<text>kö</text>
				</lyric>
			</note>
			<note>
				<pitch>
					<step>A</step>
					<octave>3</octave>
				</pitch>
				<duration>240</duration>
				<voice>1</voice>
				<type>eighth</type>
				<lyric default-y="-80" number="1">
					<syllabic>end</syllabic>
					<text>nig?</text>
				</lyric>
			</note>
			<note>
				<rest/>
				<duration>120</duration>
				<voice>1</voice>
				<type>16th</type>
			</note>
			<note>
				<pitch>
					<step>A</step>
					<octave>3</octave>
				</pitch>
				<duration>120</duration>
				<voice>1</voice>
				<type>16th</type>
				<lyric default-y="-80" number="1">
					<syllabic>single</syllabic>
					<text>Ist</text>
				</lyric>
			</note>
			<note>
				<pitch>
					<step>F</step>
					<alter>1</alter>
					<octave>3</octave>
				</pitch>
				<duration>120</duration>
				<voice>1</voice>
				<type>16th</type>
				<accidental>sharp</accidental>
				<lyric default-y="-80" number="1">
					<syllabic>single</syllabic>
					<text>dir</text>
				</lyric>
			</note>
			<note>
				<pitch>
					<step>G</step>
					<octave>3</octave>
				</pitch>
				<duration>120</duration>
				<voice>1</voice>
				<type>16th</type>
				<lyric default-y="-80" number="1">
					<syllabic>single</syllabic>
					<text>mein</text>
				</lyric>
			</note>
		</measure>
		<measure number="24">
			<print new-system="yes">
				<system-layout>
					<system-margins>
						<left-margin>0</left-margin>
						<right-margin>0</right-margin>
					</system-margins>
					<system-distance>90</system-distance>
				</system-layout>
				<staff-layout number="1">
					<staff-distance>40</staff-distance>
				</staff-layout>
			</print>
			<note>
				<pitch>
					<step>A</step>
					<octave>3</octave>
				</pitch>
				<duration>240</duration>
				<voice>1</voice>
				<type>eighth</type>
				<lyric default-y="-80" number="1">
					<syllabic>begin</syllabic>
					<text>Her</text>
				</lyric>
			</note>
			<note>
				<pitch>
					<step>D</step>
					<octave>3</octave>
				</pitch>
				<duration>240</duration>
				<voice>1</voice>
				<type>eighth</type>
				<lyric default-y="-80" number="1">
					<syllabic>end</syllabic>
					<text>ze</text>
				</lyric>
			</note>
			<note>
				<pitch>
					<step>C</step>
					<octave>4</octave>
				</pitch>
				<duration>240</duration>
				<voice>1</voice>
				<type>eighth</type>
				<lyric default-y="-80" number="1">
					<syllabic>single</syllabic>
					<text>nicht</text>
				</lyric>
			</note>
			<note>
				<pitch>
					<step>B</step>
					<octave>3</octave>
				</pitch>
				<duration>240</duration>
				<voice>1</voice>
				<type>eighth</type>
				<lyric default-y="-80" number="1">
					<syllabic>single</syllabic>
					<text>zu</text>
				</lyric>
			</note>
			<note>
				<pitch>
					<step>B</step>
					<octave>3</octave>
				</pitch>
				<duration>240</duration>
				<voice>1</voice>
				<type>eighth</type>
				<lyric default-y="-80" number="1">
					<syllabic>begin</syllabic>
					<text>we</text>
				</lyric>
			</note>
			<note>
				<pitch>
					<step>B</step>
					<octave>3</octave>
				</pitch>
				<duration>240</duration>
				<voice>1</voice>
				<type>eighth</type>
				<lyric default-y="-80" number="1">
					<syllabic>end</syllabic>
					<text>nig,</text>
				</lyric>
			</note>
			<note>
				<rest/>
				<duration>240</duration>
				<voice>1</voice>
				<type>eighth</type>
			</note>
			<note>
				<pitch>
					<step>F</step>
					<alter>1</alter>
					<octave>3</octave>
				</pitch>
				<duration>240</duration>
				<voice>1</voice>
				<type>eighth</type>
				<accidental>sharp</accidental>
				<lyric default-y="-80" number="1">
					<syllabic>single</syllabic>
					<text>so</text>
				</lyric>
			</note>
		</measure>
		<measure number="25">
			<note>
				<pitch>
					<step>G</step>
					<octave>3</octave>
				</pitch>
				<duration>240</duration>
				<voice>1</voice>
				<type>eighth</type>
				<lyric default-y="-80" number="1">
					<syllabic>single</syllabic>
					<text>nimm</text>
				</lyric>
			</note>
			<note>
				<pitch>
					<step>A</step>
					<octave>3</octave>
				</pitch>
				<duration>240</duration>
				<voice>1</voice>
				<type>eighth</type>
				<lyric default-y="-80" number="1">
					<syllabic>single</syllabic>
					<text>es</text>
				</lyric>
			</note>
			<note>
				<pitch>
					<step>B</step>
					<octave>3</octave>
				</pitch>
				<duration>120</duration>
				<voice>1</voice>
				<type>16th</type>
				<beam number="1">begin</beam>
				<beam number="2">begin</beam>
				<notations>
					<slur number="1" placement="above" type="start"/>
				</notations>
				<lyric default-y="-80" number="1">
					<syllabic>single</syllabic>
					<text>gnä</text>
				</lyric>
			</note>
			<note>
				<pitch>
					<step>G</step>
					<octave>3</octave>
				</pitch>
				<duration>120</duration>
				<voice>1</voice>
				<type>16th</type>
				<beam number="1">end</beam>
				<beam number="2">end</beam>
				<notations>
					<slur number="1" type="stop"/>
				</notations>
			</note>
			<note>
				<pitch>
					<step>F</step>
					<alter>1</alter>
					<octave>3</octave>
				</pitch>
				<duration>120</duration>
				<voice>1</voice>
				<type>16th</type>
				<accidental>sharp</accidental>
				<beam number="1">begin</beam>
				<beam number="2">begin</beam>
				<notations>
					<slur number="1" placement="above" type="start"/>
				</notations>
				<lyric default-y="-80" number="1">
					<syllabic>single</syllabic>
					<text>dig</text>
				</lyric>
			</note>
			<note>
				<pitch>
					<step>E</step>
					<octave>3</octave>
				</pitch>
				<duration>120</duration>
				<voice>1</voice>
				<type>16th</type>
				<beam number="1">end</beam>
				<beam number="2">end</beam>
				<notations>
					<slur number="1" type="stop"/>
				</notations>
			</note>
			<note>
				<pitch>
					<step>E</step>
					<octave>4</octave>
				</pitch>
				<duration>480</duration>
				<voice>1</voice>
				<type>quarter</type>
				<lyric default-y="-80" number="1">
					<syllabic>single</syllabic>
					<text>an,</text>
				</lyric>
			</note>
			<note>
				<rest/>
				<duration>240</duration>
				<voice>1</voice>
				<type>eighth</type>
			</note>
			<note>
				<pitch>
					<step>E</step>
					<octave>3</octave>
				</pitch>
				<duration>240</duration>
				<voice>1</voice>
				<type>eighth</type>
				<lyric default-y="-80" number="1">
					<syllabic>single</syllabic>
					<text>weil</text>
				</lyric>
			</note>
		</measure>
		<measure number="26">
			<note>
				<pitch>
					<step>G</step>
					<octave>3</octave>
				</pitch>
				<duration>120</duration>
				<voice>1</voice>
				<type>16th</type>
				<beam number="1">begin</beam>
				<beam number="2">begin</beam>
				<lyric default-y="-80" number="1">
					<syllabic>single</syllabic>
					<text>ich</text>
				</lyric>
			</note>
			<note>
				<pitch>
					<step>F</step>
					<alter>1</alter>
					<octave>3</octave>
				</pitch>
				<duration>120</duration>
				<voice>1</voice>
				<type>16th</type>
				<accidental>sharp</accidental>
				<beam number="1">end</beam>
				<beam number="2">end</beam>
			</note>
			<note>
				<pitch>
					<step>E</step>
					<octave>3</octave>
				</pitch>
				<duration>120</duration>
				<voice>1</voice>
				<type>16th</type>
				<beam number="1">begin</beam>
				<beam number="2">begin</beam>
				<lyric default-y="-80" number="1">
					<syllabic>single</syllabic>
					<text>nichts</text>
				</lyric>
			</note>
			<note>
				<pitch>
					<step>D</step>
					<octave>3</octave>
				</pitch>
				<duration>120</duration>
				<voice>1</voice>
				<type>16th</type>
				<beam number="1">end</beam>
				<beam number="2">end</beam>
			</note>
			<note>
				<pitch>
					<step>D</step>
					<octave>4</octave>
				</pitch>
				<duration>720</duration>
				<voice>1</voice>
				<type>quarter</type>
				<dot/>
				<lyric default-y="-80" number="1">
					<syllabic>begin</syllabic>
					<text>Ed</text>
				</lyric>
			</note>
			<note>
				<pitch>
					<step>E</step>
					<octave>3</octave>
				</pitch>
				<duration>240</duration>
				<voice>1</voice>
				<type>eighth</type>
				<lyric default-y="-80" number="1">
					<syllabic>end</syllabic>
					<text>lers</text>
				</lyric>
			</note>
			<note>
				<pitch>
					<step>F</step>
					<alter>1</alter>
					<octave>3</octave>
				</pitch>
				<duration>360</duration>
				<voice>1</voice>
				<type>eighth</type>
				<dot/>
				<lyric default-y="-80" number="1">
					<syllabic>begin</syllabic>
					<text>brin</text>
				</lyric>
			</note>
			<note>
				<pitch>
					<step>G</step>
					<octave>3</octave>
				</pitch>
				<duration>120</duration>
				<voice>1</voice>
				<type>16th</type>
				<lyric default-y="-80" number="1">
					<syllabic>end</syllabic>
					<text>gen</text>
				</lyric>
			</note>
		</measure>
		<measure number="27">
			<note>
				<pitch>
					<step>D</step>
					<octave>3</octave>
				</pitch>
				<duration>480</duration>
				<voice>1</voice>
				<type>quarter</type>
				<lyric default-y="-80" number="1">
					<syllabic>single</syllabic>
					<text>kann.</text>
				</lyric>
			</note>
			<note>
				<rest/>
				<duration>480</duration>
				<voice>1</voice>
				<type>quarter</type>
			</note>
			<note>
				<rest/>
				<duration>960</duration>
				<voice>1</voice>
				<type>half</type>
				<notations>
					<fermata type="upright"/>
				</notations>
			</note>
			<barline>
				<bar-style>light-heavy</bar-style>
			</barline>
		</measure>
	</part>
	<part id="P2">
		<measure number="1">
			<direction>
				<direction-type>
					<other-direction/>
				</direction-type>
				<sound tempo="60"/>
			</direction>
			<print>
				<system-layout>
					<system-margins>
						<left-margin>114</left-margin>
						<right-margin>0</right-margin>
					</system-margins>
					<top-system-distance>100</top-system-distance>
				</system-layout>
				<staff-layout number="1">
					<staff-distance>90</staff-distance>
				</staff-layout>
			</print>
			<attributes>
				<divisions>480</divisions>
				<key>
					<fifths>0</fifths>
					<mode>major</mode>
				</key>
				<time symbol="common">
					<beats>4</beats>
					<beat-type>4</beat-type>
				</time>
				<clef>
					<sign>F</sign>
					<line>4</line>
				</clef>
			</attributes>
			<direction placement="below">
				<direction-type>
					<words relative-x="-9" default-y="-79" font-family="Times New Roman" font-size="12">(</words>
				</direction-type>
			</direction>
			<note>
				<pitch>
					<step>F</step>
					<octave>2</octave>
				</pitch>
				<duration>1920</duration>
				<tie type="start"/>
				<voice>1</voice>
				<type>whole</type>
				<notations>
					<tied type="start"/>
				</notations>
				<lyric default-y="-70" number="1">
					<syllabic>single</syllabic>
					<text>3              v</text>
				</lyric>
				<lyric default-y="-85" number="2">
					<syllabic>single</syllabic>
					<text>5              6</text>
				</lyric>
			</note>
		</measure>
		<measure number="2">
			<note>
				<pitch>
					<step>F</step>
					<octave>2</octave>
				</pitch>
				<duration>1440</duration>
				<tie type="stop"/>
				<voice>1</voice>
				<type>half</type>
				<dot/>
				<notations>
					<tied type="stop"/>
				</notations>
				<lyric default-y="-70" number="1">
					<syllabic>single</syllabic>
					<text>v                     3</text>
				</lyric>
				<lyric default-y="-85" number="2">
					<syllabic>single</syllabic>
					<text>7                     5</text>
				</lyric>
				<lyric default-y="-100" number="3">
					<syllabic>single</syllabic>
					<text>5</text>
				</lyric>
			</note>
			<direction placement="below">
				<direction-type>
					<words relative-x="-54" default-y="-79" font-family="Times New Roman" font-size="12">)</words>
				</direction-type>
			</direction>
			<note>
				<pitch>
					<step>A</step>
					<octave>2</octave>
				</pitch>
				<duration>480</duration>
				<voice>1</voice>
				<type>quarter</type>
			</note>
		</measure>
		<measure number="3">
			<note>
				<pitch>
					<step>B</step>
					<alter>-1</alter>
					<octave>2</octave>
				</pitch>
				<duration>960</duration>
				<voice>1</voice>
				<type>half</type>
				<accidental>flat</accidental>
			</note>
			<note>
				<rest/>
				<duration>480</duration>
				<voice>1</voice>
				<type>quarter</type>
			</note>
			<note>
				<pitch>
					<step>C</step>
					<octave>3</octave>
				</pitch>
				<duration>480</duration>
				<voice>1</voice>
				<type>quarter</type>
			</note>
		</measure>
		<measure number="4">
			<print new-system="yes">
				<system-layout>
					<system-margins>
						<left-margin>0</left-margin>
						<right-margin>0</right-margin>
					</system-margins>
					<system-distance>90</system-distance>
				</system-layout>
				<staff-layout number="1">
					<staff-distance>90</staff-distance>
				</staff-layout>
			</print>
			<attributes>
				<time>
					<beats>4</beats>
					<beat-type>4</beat-type>
				</time>
			</attributes>
			<note>
				<pitch>
					<step>F</step>
					<octave>2</octave>
				</pitch>
				<duration>1920</duration>
				<voice>1</voice>
				<type>whole</type>
			</note>
		</measure>
		<measure number="5">
			<note>
				<pitch>
					<step>B</step>
					<octave>2</octave>
				</pitch>
				<duration>1920</duration>
				<voice>1</voice>
				<type>whole</type>
				<accidental cautionary="yes">natural</accidental>
			</note>
		</measure>
		<measure number="6">
			<note>
				<pitch>
					<step>C</step>
					<octave>3</octave>
				</pitch>
				<duration>960</duration>
				<voice>1</voice>
				<type>half</type>
			</note>
			<note>
				<pitch>
					<step>E</step>
					<octave>3</octave>
				</pitch>
				<duration>960</duration>
				<voice>1</voice>
				<type>half</type>
			</note>
		</measure>
		<measure number="7">
			<note>
				<pitch>
					<step>F</step>
					<octave>3</octave>
				</pitch>
				<duration>960</duration>
				<voice>1</voice>
				<type>half</type>
			</note>
			<note>
				<rest/>
				<duration>480</duration>
				<voice>1</voice>
				<type>quarter</type>
			</note>
			<note>
				<pitch>
					<step>G</step>
					<octave>3</octave>
				</pitch>
				<duration>480</duration>
				<voice>1</voice>
				<type>quarter</type>
			</note>
		</measure>
		<measure number="8">
			<print new-system="yes">
				<system-layout>
					<system-margins>
						<left-margin>0</left-margin>
						<right-margin>0</right-margin>
					</system-margins>
					<system-distance>90</system-distance>
				</system-layout>
				<staff-layout number="1">
					<staff-distance>90</staff-distance>
				</staff-layout>
			</print>
			<note>
				<pitch>
					<step>C</step>
					<octave>3</octave>
				</pitch>
				<duration>1920</duration>
				<voice>1</voice>
				<type>whole</type>
			</note>
		</measure>
		<measure number="9">
			<note>
				<pitch>
					<step>B</step>
					<octave>2</octave>
				</pitch>
				<duration>960</duration>
				<voice>1</voice>
				<type>half</type>
			</note>
			<note>
				<pitch>
					<step>G</step>
					<alter>1</alter>
					<octave>2</octave>
				</pitch>
				<duration>960</duration>
				<voice>1</voice>
				<type>half</type>
				<accidental>sharp</accidental>
			</note>
		</measure>
		<measure number="10">
			<note>
				<pitch>
					<step>A</step>
					<octave>2</octave>
				</pitch>
				<duration>1920</duration>
				<voice>1</voice>
				<type>whole</type>
			</note>
		</measure>
		<measure number="11">
			<note>
				<pitch>
					<step>B</step>
					<octave>2</octave>
				</pitch>
				<duration>960</duration>
				<voice>1</voice>
				<type>half</type>
			</note>
			<note>
				<pitch>
					<step>C</step>
					<alter>1</alter>
					<octave>3</octave>
				</pitch>
				<duration>960</duration>
				<voice>1</voice>
				<type>half</type>
				<accidental>sharp</accidental>
			</note>
		</measure>
		<measure number="12">
			<print new-system="yes">
				<system-layout>
					<system-margins>
						<left-margin>0</left-margin>
						<right-margin>0</right-margin>
					</system-margins>
					<system-distance>90</system-distance>
				</system-layout>
				<staff-layout number="1">
					<staff-distance>90</staff-distance>
				</staff-layout>
			</print>
			<note>
				<pitch>
					<step>E</step>
					<alter>-1</alter>
					<octave>3</octave>
				</pitch>
				<duration>240</duration>
				<voice>1</voice>
				<type>eighth</type>
				<accidental>flat</accidental>
				<beam number="1">begin</beam>
			</note>
			<note>
				<pitch>
					<step>C</step>
					<alter>1</alter>
					<octave>3</octave>
				</pitch>
				<duration>240</duration>
				<voice>1</voice>
				<type>eighth</type>
				<accidental>sharp</accidental>
				<beam number="1">end</beam>
			</note>
			<note>
				<pitch>
					<step>D</step>
					<octave>3</octave>
				</pitch>
				<duration>480</duration>
				<voice>1</voice>
				<type>quarter</type>
			</note>
			<note>
				<pitch>
					<step>G</step>
					<octave>2</octave>
				</pitch>
				<duration>960</duration>
				<voice>1</voice>
				<type>half</type>
			</note>
		</measure>
		<measure number="13">
			<note>
				<pitch>
					<step>F</step>
					<octave>2</octave>
				</pitch>
				<duration>1920</duration>
				<tie type="start"/>
				<voice>1</voice>
				<type>whole</type>
				<notations>
					<tied type="start"/>
				</notations>
			</note>
		</measure>
		<measure number="14">
			<note>
				<pitch>
					<step>F</step>
					<octave>2</octave>
				</pitch>
				<duration>960</duration>
				<tie type="stop"/>
				<voice>1</voice>
				<type>half</type>
				<notations>
					<tied type="stop"/>
				</notations>
			</note>
			<note>
				<pitch>
					<step>C</step>
					<alter>1</alter>
					<octave>3</octave>
				</pitch>
				<duration>960</duration>
				<tie type="start"/>
				<voice>1</voice>
				<type>half</type>
				<accidental>sharp</accidental>
				<notations>
					<tied type="start"/>
				</notations>
			</note>
		</measure>
		<measure number="15">
			<note>
				<pitch>
					<step>C</step>
					<alter>1</alter>
					<octave>3</octave>
				</pitch>
				<duration>1920</duration>
				<tie type="stop"/>
				<voice>1</voice>
				<type>whole</type>
				<notations>
					<tied type="stop"/>
				</notations>
			</note>
		</measure>
		<measure number="16">
			<print new-system="yes">
				<system-layout>
					<system-margins>
						<left-margin>0</left-margin>
						<right-margin>0</right-margin>
					</system-margins>
					<system-distance>90</system-distance>
				</system-layout>
				<staff-layout number="1">
					<staff-distance>90</staff-distance>
				</staff-layout>
			</print>
			<note>
				<pitch>
					<step>D</step>
					<octave>3</octave>
				</pitch>
				<duration>960</duration>
				<voice>1</voice>
				<type>half</type>
			</note>
			<note>
				<pitch>
					<step>E</step>
					<octave>3</octave>
				</pitch>
				<duration>960</duration>
				<voice>1</voice>
				<type>half</type>
			</note>
		</measure>
		<measure number="17">
			<note>
				<pitch>
					<step>F</step>
					<octave>3</octave>
				</pitch>
				<duration>960</duration>
				<voice>1</voice>
				<type>half</type>
			</note>
			<note>
				<pitch>
					<step>F</step>
					<alter>1</alter>
					<octave>3</octave>
				</pitch>
				<duration>960</duration>
				<tie type="start"/>
				<voice>1</voice>
				<type>half</type>
				<accidental>sharp</accidental>
				<notations>
					<tied type="start"/>
				</notations>
			</note>
		</measure>
		<measure number="18">
			<note>
				<pitch>
					<step>F</step>
					<alter>1</alter>
					<octave>3</octave>
				</pitch>
				<duration>960</duration>
				<tie type="stop"/>
				<voice>1</voice>
				<type>half</type>
				<notations>
					<tied type="stop"/>
				</notations>
			</note>
			<note>
				<pitch>
					<step>G</step>
					<octave>3</octave>
				</pitch>
				<duration>960</duration>
				<tie type="start"/>
				<voice>1</voice>
				<type>half</type>
				<notations>
					<tied type="start"/>
				</notations>
			</note>
		</measure>
		<measure number="19">
			<note>
				<pitch>
					<step>G</step>
					<octave>3</octave>
				</pitch>
				<duration>960</duration>
				<tie type="stop"/>
				<voice>1</voice>
				<type>half</type>
				<notations>
					<tied type="stop"/>
				</notations>
			</note>
		</measure>
		<measure number="20">
			<print new-system="yes">
				<system-layout>
					<system-margins>
						<left-margin>0</left-margin>
						<right-margin>0</right-margin>
					</system-margins>
					<system-distance>90</system-distance>
				</system-layout>
				<staff-layout number="1">
					<staff-distance>90</staff-distance>
				</staff-layout>
			</print>
			<note>
				<pitch>
					<step>G</step>
					<alter>1</alter>
					<octave>3</octave>
				</pitch>
				<duration>960</duration>
				<tie type="start"/>
				<voice>1</voice>
				<type>half</type>
				<accidental>sharp</accidental>
				<notations>
					<tied type="start"/>
				</notations>
			</note>
			<note>
				<pitch>
					<step>G</step>
					<alter>1</alter>
					<octave>3</octave>
				</pitch>
				<duration>960</duration>
				<tie type="stop"/>
				<voice>1</voice>
				<type>half</type>
				<notations>
					<tied type="stop"/>
				</notations>
			</note>
		</measure>
		<measure number="21">
			<note>
				<pitch>
					<step>F</step>
					<octave>3</octave>
				</pitch>
				<duration>480</duration>
				<voice>1</voice>
				<type>quarter</type>
				<accidental cautionary="yes">natural</accidental>
			</note>
			<note>
				<pitch>
					<step>D</step>
					<alter>1</alter>
					<octave>3</octave>
				</pitch>
				<duration>480</duration>
				<voice>1</voice>
				<type>quarter</type>
				<accidental>sharp</accidental>
			</note>
			<note>
				<rest/>
				<duration>480</duration>
				<voice>1</voice>
				<type>quarter</type>
			</note>
			<note>
				<pitch>
					<step>E</step>
					<octave>3</octave>
				</pitch>
				<duration>480</duration>
				<voice>1</voice>
				<type>quarter</type>
			</note>
		</measure>
		<measure number="22">
			<note>
				<pitch>
					<step>A</step>
					<octave>2</octave>
				</pitch>
				<duration>960</duration>
				<voice>1</voice>
				<type>half</type>
			</note>
			<note>
				<pitch>
					<step>E</step>
					<octave>3</octave>
				</pitch>
				<duration>960</duration>
				<voice>1</voice>
				<type>half</type>
			</note>
		</measure>
		<measure number="23">
			<note>
				<pitch>
					<step>F</step>
					<alter>1</alter>
					<octave>3</octave>
				</pitch>
				<duration>960</duration>
				<tie type="start"/>
				<voice>1</voice>
				<type>half</type>
				<accidental>sharp</accidental>
				<notations>
					<tied type="start"/>
				</notations>
			</note>
		</measure>
		<measure number="24">
			<print new-system="yes">
				<system-layout>
					<system-margins>
						<left-margin>0</left-margin>
						<right-margin>0</right-margin>
					</system-margins>
					<system-distance>90</system-distance>
				</system-layout>
				<staff-layout number="1">
					<staff-distance>90</staff-distance>
				</staff-layout>
			</print>
			<note>
				<pitch>
					<step>F</step>
					<alter>1</alter>
					<octave>3</octave>
				</pitch>
				<duration>960</duration>
				<tie type="stop"/>
				<voice>1</voice>
				<type>half</type>
				<notations>
					<tied type="stop"/>
				</notations>
			</note>
			<note>
				<pitch>
					<step>D</step>
					<alter>1</alter>
					<octave>3</octave>
				</pitch>
				<duration>960</duration>
				<voice>1</voice>
				<type>half</type>
				<accidental>sharp</accidental>
			</note>
		</measure>
		<measure number="25">
			<note>
				<pitch>
					<step>E</step>
					<octave>3</octave>
				</pitch>
				<duration>960</duration>
				<voice>1</voice>
				<type>half</type>
			</note>
			<note>
				<pitch>
					<step>C</step>
					<alter>1</alter>
					<octave>3</octave>
				</pitch>
				<duration>960</duration>
				<voice>1</voice>
				<type>half</type>
				<accidental>sharp</accidental>
			</note>
		</measure>
		<measure number="26">
			<note>
				<pitch>
					<step>D</step>
					<octave>3</octave>
				</pitch>
				<duration>240</duration>
				<voice>1</voice>
				<type>eighth</type>
				<beam number="1">begin</beam>
			</note>
			<note>
				<pitch>
					<step>E</step>
					<octave>3</octave>
				</pitch>
				<duration>240</duration>
				<voice>1</voice>
				<type>eighth</type>
				<beam number="1">end</beam>
			</note>
			<note>
				<pitch>
					<step>F</step>
					<alter>1</alter>
					<octave>3</octave>
				</pitch>
				<duration>120</duration>
				<voice>1</voice>
				<type>16th</type>
				<accidental>sharp</accidental>
				<beam number="1">begin</beam>
				<beam number="2">begin</beam>
			</note>
			<note>
				<pitch>
					<step>E</step>
					<octave>3</octave>
				</pitch>
				<duration>120</duration>
				<voice>1</voice>
				<type>16th</type>
				<beam number="1">continue</beam>
				<beam number="2">continue</beam>
			</note>
			<note>
				<pitch>
					<step>D</step>
					<octave>3</octave>
				</pitch>
				<duration>120</duration>
				<voice>1</voice>
				<type>16th</type>
				<beam number="1">continue</beam>
				<beam number="2">continue</beam>
			</note>
			<note>
				<pitch>
					<step>C</step>
					<octave>3</octave>
				</pitch>
				<duration>120</duration>
				<voice>1</voice>
				<type>16th</type>
				<beam number="1">end</beam>
				<beam number="2">end</beam>
			</note>
			<note>
				<pitch>
					<step>B</step>
					<octave>2</octave>
				</pitch>
				<duration>240</duration>
				<voice>1</voice>
				<type>eighth</type>
				<beam number="1">begin</beam>
			</note>
			<note>
				<pitch>
					<step>C</step>
					<octave>3</octave>
				</pitch>
				<duration>120</duration>
				<voice>1</voice>
				<type>16th</type>
				<beam number="1">continue</beam>
				<beam number="2">begin</beam>
			</note>
			<note>
				<pitch>
					<step>D</step>
					<octave>3</octave>
				</pitch>
				<duration>120</duration>
				<voice>1</voice>
				<type>16th</type>
				<beam number="1">end</beam>
				<beam number="2">end</beam>
			</note>
			<note>
				<pitch>
					<step>C</step>
					<octave>3</octave>
				</pitch>
				<duration>120</duration>
				<voice>1</voice>
				<type>16th</type>
				<beam number="1">begin</beam>
				<beam number="2">begin</beam>
			</note>
			<note>
				<pitch>
					<step>B</step>
					<octave>2</octave>
				</pitch>
				<duration>120</duration>
				<voice>1</voice>
				<type>16th</type>
				<beam number="1">continue</beam>
				<beam number="2">continue</beam>
			</note>
			<note>
				<pitch>
					<step>A</step>
					<octave>2</octave>
				</pitch>
				<duration>120</duration>
				<voice>1</voice>
				<type>16th</type>
				<beam number="1">continue</beam>
				<beam number="2">continue</beam>
			</note>
			<note>
				<pitch>
					<step>G</step>
					<octave>2</octave>
				</pitch>
				<duration>120</duration>
				<voice>1</voice>
				<type>16th</type>
				<beam number="1">end</beam>
				<beam number="2">end</beam>
			</note>
		</measure>
		<measure number="27">
			<note>
				<pitch>
					<step>D</step>
					<octave>3</octave>
				</pitch>
				<duration>480</duration>
				<voice>1</voice>
				<type>quarter</type>
			</note>
			<note>
				<pitch>
					<step>D</step>
					<octave>2</octave>
				</pitch>
				<duration>480</duration>
				<voice>1</voice>
				<type>quarter</type>
			</note>
			<note>
				<pitch>
					<step>G</step>
					<octave>2</octave>
				</pitch>
				<duration>960</duration>
				<voice>1</voice>
				<type>half</type>
				<notations>
					<fermata type="upright"/>
				</notations>
			</note>
			<barline>
				<bar-style>light-heavy</bar-style>
			</barline>
		</measure>
	</part>
</score-partwise>
