<?xml version="1.0" encoding="UTF-8" standalone="no"?>
<!--MusicXML 2.0 file created by CapToMusic.py CapXML to MusicXML converter version 2.10-->
<!DOCTYPE score-partwise PUBLIC "-//Recordare//DTD MusicXML 2.0 Partwise//EN" "http://www.musicxml.org/dtds/partwise.dtd">
<score-partwise version="2.0">
	<identification>
		<encoding>
			<encoding-date>2020-12-29</encoding-date>
			<software>CapToMusic.py CapXML to MusicXML converter version 2.10</software>
			<encoding-description>Options: FinaleDolet33=1, ChordCaseMatters=1, ExportToSibelius=0</encoding-description>
		</encoding>
	</identification>
	<defaults>
		<scaling>
			<millimeters>1.4</millimeters>
			<tenths>10.0</tenths>
		</scaling>
		<page-layout>
			<page-height>2121</page-height>
			<page-width>1500</page-width>
			<page-margins type="both">
				<left-margin>85</left-margin>
				<right-margin>85</right-margin>
				<top-margin>85</top-margin>
				<bottom-margin>85</bottom-margin>
			</page-margins>
		</page-layout>
		<system-layout>
			<system-margins>
				<left-margin>0</left-margin>
				<right-margin>0</right-margin>
			</system-margins>
			<system-distance>20</system-distance>
			<top-system-distance>40</top-system-distance>
		</system-layout>
	</defaults>
	<credit>
		<credit-words default-x="748" default-y="85" font-family="Times New Roman" font-size="8" justify="center">BWV 109 - Seite #</credit-words>
	</credit>
	<part-list>
		<part-group type="start" number="1">
			<group-symbol>bracket</group-symbol>
		</part-group>
		<score-part id="P1">
			<part-name>Tenore.</part-name>
			<part-abbreviation></part-abbreviation>
			<score-instrument id="P1-I1">
				<instrument-name>Midi_70</instrument-name>
			</score-instrument>
			<midi-instrument id="P1-I1">
				<midi-channel>1</midi-channel>
				<midi-program>70</midi-program>
			</midi-instrument>
		</score-part>
		<score-part id="P2">
			<part-name>Continuo.</part-name>
			<part-abbreviation></part-abbreviation>
			<score-instrument id="P2-I1">
				<instrument-name>Midi_20</instrument-name>
			</score-instrument>
			<midi-instrument id="P2-I1">
				<midi-channel>2</midi-channel>
				<midi-program>20</midi-program>
			</midi-instrument>
		</score-part>
		<part-group type="stop" number="1"/>
	</part-list>
	<part id="P1">
		<measure number="1">
			<direction>
				<direction-type>
					<other-direction/>
				</direction-type>
				<sound tempo="48"/>
			</direction>
			<print>
				<system-layout>
					<system-margins>
						<left-margin>114</left-margin>
						<right-margin>0</right-margin>
					</system-margins>
					<top-system-distance>160</top-system-distance>
				</system-layout>
				<staff-layout number="1">
					<staff-distance>120</staff-distance>
				</staff-layout>
			</print>
			<attributes>
				<divisions>480</divisions>
				<key>
					<fifths>-1</fifths>
					<mode>major</mode>
				</key>
				<time symbol="common">
					<beats>4</beats>
					<beat-type>4</beat-type>
				</time>
				<clef>
					<sign>G</sign>
					<line>2</line>
					<clef-octave-change>-1</clef-octave-change>
				</clef>
			</attributes>
			<note>
				<rest/>
				<duration>240</duration>
				<voice>1</voice>
				<type>eighth</type>
			</note>
			<direction placement="above">
				<direction-type>
					<words relative-x="-86" default-y="31" font-family="Times New Roman" font-size="12" font-weight="bold">2. Recitativo.</words>
				</direction-type>
			</direction>
			<note>
				<pitch>
					<step>B</step>
					<alter>-1</alter>
					<octave>3</octave>
				</pitch>
				<duration>240</duration>
				<voice>1</voice>
				<type>eighth</type>
				<lyric default-y="-80" number="1">
					<syllabic>single</syllabic>
					<text>Des</text>
				</lyric>
			</note>
			<note>
				<pitch>
					<step>D</step>
					<octave>4</octave>
				</pitch>
				<duration>240</duration>
				<voice>1</voice>
				<type>eighth</type>
				<lyric default-y="-80" number="1">
					<syllabic>begin</syllabic>
					<text>Her</text>
				</lyric>
			</note>
			<note>
				<pitch>
					<step>B</step>
					<alter>-1</alter>
					<octave>3</octave>
				</pitch>
				<duration>240</duration>
				<voice>1</voice>
				<type>eighth</type>
				<lyric default-y="-80" number="1">
					<syllabic>end</syllabic>
					<text>ren</text>
				</lyric>
			</note>
			<note>
				<pitch>
					<step>G</step>
					<octave>4</octave>
				</pitch>
				<duration>480</duration>
				<voice>1</voice>
				<type>quarter</type>
				<lyric default-y="-80" number="1">
					<syllabic>single</syllabic>
					<text>Hand</text>
				</lyric>
			</note>
			<note>
				<rest/>
				<duration>240</duration>
				<voice>1</voice>
				<type>eighth</type>
			</note>
			<note>
				<pitch>
					<step>C</step>
					<octave>4</octave>
				</pitch>
				<duration>240</duration>
				<voice>1</voice>
				<type>eighth</type>
				<lyric default-y="-80" number="1">
					<syllabic>single</syllabic>
					<text>ist</text>
				</lyric>
			</note>
		</measure>
		<measure number="2">
			<note>
				<pitch>
					<step>A</step>
					<octave>3</octave>
				</pitch>
				<duration>240</duration>
				<voice>1</voice>
				<type>eighth</type>
				<lyric default-y="-80" number="1">
					<syllabic>single</syllabic>
					<text>ja</text>
				</lyric>
			</note>
			<note>
				<pitch>
					<step>C</step>
					<octave>4</octave>
				</pitch>
				<duration>240</duration>
				<voice>1</voice>
				<type>eighth</type>
				<lyric default-y="-80" number="1">
					<syllabic>single</syllabic>
					<text>noch</text>
				</lyric>
			</note>
			<note>
				<pitch>
					<step>E</step>
					<alter>-1</alter>
					<octave>4</octave>
				</pitch>
				<duration>240</duration>
				<voice>1</voice>
				<type>eighth</type>
				<accidental>flat</accidental>
				<lyric default-y="-80" number="1">
					<syllabic>single</syllabic>
					<text>nicht</text>
				</lyric>
			</note>
			<note>
				<pitch>
					<step>D</step>
					<octave>4</octave>
				</pitch>
				<duration>240</duration>
				<voice>1</voice>
				<type>eighth</type>
				<lyric default-y="-80" number="1">
					<syllabic>begin</syllabic>
					<text>ver</text>
				</lyric>
			</note>
			<note>
				<pitch>
					<step>D</step>
					<octave>4</octave>
				</pitch>
				<duration>480</duration>
				<voice>1</voice>
				<type>quarter</type>
				<lyric default-y="-80" number="1">
					<syllabic>end</syllabic>
					<text>kürzt,</text>
				</lyric>
			</note>
			<note>
				<rest/>
				<duration>240</duration>
				<voice>1</voice>
				<type>eighth</type>
			</note>
			<note>
				<pitch>
					<step>B</step>
					<alter>-1</alter>
					<octave>3</octave>
				</pitch>
				<duration>240</duration>
				<voice>1</voice>
				<type>eighth</type>
				<lyric default-y="-80" number="1">
					<syllabic>single</syllabic>
					<text>mir</text>
				</lyric>
			</note>
		</measure>
		<measure number="3">
			<note>
				<pitch>
					<step>G</step>
					<octave>3</octave>
				</pitch>
				<duration>240</duration>
				<voice>1</voice>
				<type>eighth</type>
				<lyric default-y="-80" number="1">
					<syllabic>single</syllabic>
					<text>kann</text>
				</lyric>
			</note>
			<note>
				<pitch>
					<step>C</step>
					<octave>4</octave>
				</pitch>
				<duration>240</duration>
				<voice>1</voice>
				<type>eighth</type>
				<lyric default-y="-80" number="1">
					<syllabic>begin</syllabic>
					<text>ge</text>
				</lyric>
			</note>
			<note>
				<pitch>
					<step>A</step>
					<octave>3</octave>
				</pitch>
				<duration>240</duration>
				<voice>1</voice>
				<type>eighth</type>
				<lyric default-y="-80" number="1">
					<syllabic>middle</syllabic>
					<text>hol</text>
				</lyric>
			</note>
			<note>
				<pitch>
					<step>B</step>
					<alter>-1</alter>
					<octave>3</octave>
				</pitch>
				<duration>240</duration>
				<voice>1</voice>
				<type>eighth</type>
				<lyric default-y="-80" number="1">
					<syllabic>end</syllabic>
					<text>fen</text>
				</lyric>
			</note>
			<note>
				<pitch>
					<step>B</step>
					<alter>-1</alter>
					<octave>3</octave>
				</pitch>
				<duration>240</duration>
				<voice>1</voice>
				<type>eighth</type>
				<lyric default-y="-80" number="1">
					<syllabic>begin</syllabic>
					<text>wer</text>
				</lyric>
			</note>
			<note>
				<pitch>
					<step>F</step>
					<octave>3</octave>
				</pitch>
				<duration>240</duration>
				<voice>1</voice>
				<type>eighth</type>
				<lyric default-y="-80" number="1">
					<syllabic>end</syllabic>
					<text>den.</text>
				</lyric>
			</note>
			<note>
				<rest/>
				<duration>480</duration>
				<voice>1</voice>
				<type>quarter</type>
			</note>
		</measure>
		<measure number="4">
			<print new-system="yes">
				<system-layout>
					<system-margins>
						<left-margin>0</left-margin>
						<right-margin>0</right-margin>
					</system-margins>
					<system-distance>120</system-distance>
				</system-layout>
				<staff-layout number="1">
					<staff-distance>70</staff-distance>
				</staff-layout>
			</print>
			<attributes>
				<time>
					<beats>4</beats>
					<beat-type>4</beat-type>
				</time>
				<clef>
					<sign>G</sign>
					<line>2</line>
					<clef-octave-change>-1</clef-octave-change>
				</clef>
			</attributes>
			<note>
				<rest/>
				<duration>480</duration>
				<voice>1</voice>
				<type>quarter</type>
			</note>
			<note>
				<rest/>
				<duration>240</duration>
				<voice>1</voice>
				<type>eighth</type>
			</note>
			<direction placement="above">
				<direction-type>
					<dynamics relative-x="-27" default-y="12" font-size="18">
						<p/>
					</dynamics>
				</direction-type>
				<sound dynamics="78"/>
			</direction>
			<note>
				<pitch>
					<step>F</step>
					<octave>4</octave>
				</pitch>
				<duration>240</duration>
				<voice>1</voice>
				<type>eighth</type>
				<lyric default-y="-80" number="1">
					<syllabic>single</syllabic>
					<text>Ach</text>
				</lyric>
			</note>
			<note>
				<pitch>
					<step>F</step>
					<octave>4</octave>
				</pitch>
				<duration>240</duration>
				<voice>1</voice>
				<type>eighth</type>
				<beam number="1">begin</beam>
				<notations>
					<slur number="1" placement="above" type="start"/>
				</notations>
				<lyric default-y="-80" number="1">
					<syllabic>single</syllabic>
					<text>nein!</text>
				</lyric>
			</note>
			<note>
				<pitch>
					<step>B</step>
					<octave>3</octave>
				</pitch>
				<duration>240</duration>
				<voice>1</voice>
				<type>eighth</type>
				<accidental>natural</accidental>
				<beam number="1">end</beam>
				<notations>
					<slur number="1" type="stop"/>
				</notations>
			</note>
			<note>
				<rest/>
				<duration>240</duration>
				<voice>1</voice>
				<type>eighth</type>
			</note>
			<note>
				<pitch>
					<step>D</step>
					<octave>4</octave>
				</pitch>
				<duration>240</duration>
				<voice>1</voice>
				<type>eighth</type>
				<lyric default-y="-80" number="1">
					<syllabic>single</syllabic>
					<text>ich</text>
				</lyric>
			</note>
		</measure>
		<measure number="5">
			<note>
				<pitch>
					<step>D</step>
					<octave>4</octave>
				</pitch>
				<duration>240</duration>
				<voice>1</voice>
				<type>eighth</type>
				<lyric default-y="-80" number="1">
					<syllabic>begin</syllabic>
					<text>sin</text>
				</lyric>
			</note>
			<note>
				<pitch>
					<step>F</step>
					<octave>3</octave>
				</pitch>
				<duration>240</duration>
				<voice>1</voice>
				<type>eighth</type>
				<lyric default-y="-80" number="1">
					<syllabic>end</syllabic>
					<text>ke</text>
				</lyric>
			</note>
			<note>
				<pitch>
					<step>A</step>
					<alter>-1</alter>
					<octave>3</octave>
				</pitch>
				<duration>240</duration>
				<voice>1</voice>
				<type>eighth</type>
				<accidental>flat</accidental>
				<lyric default-y="-80" number="1">
					<syllabic>single</syllabic>
					<text>schon</text>
				</lyric>
			</note>
			<note>
				<pitch>
					<step>G</step>
					<octave>3</octave>
				</pitch>
				<duration>240</duration>
				<voice>1</voice>
				<type>eighth</type>
				<lyric default-y="-80" number="1">
					<syllabic>single</syllabic>
					<text>zur</text>
				</lyric>
			</note>
			<note>
				<pitch>
					<step>E</step>
					<alter>-1</alter>
					<octave>3</octave>
				</pitch>
				<duration>240</duration>
				<voice>1</voice>
				<type>eighth</type>
				<accidental>flat</accidental>
				<lyric default-y="-80" number="1">
					<syllabic>begin</syllabic>
					<text>Er</text>
				</lyric>
			</note>
			<note>
				<pitch>
					<step>E</step>
					<alter>-1</alter>
					<octave>3</octave>
				</pitch>
				<duration>240</duration>
				<voice>1</voice>
				<type>eighth</type>
				<lyric default-y="-80" number="1">
					<syllabic>end</syllabic>
					<text>de</text>
				</lyric>
			</note>
			<note>
				<rest/>
				<duration>240</duration>
				<voice>1</voice>
				<type>eighth</type>
			</note>
			<note>
				<pitch>
					<step>C</step>
					<octave>4</octave>
				</pitch>
				<duration>240</duration>
				<voice>1</voice>
				<type>eighth</type>
				<lyric default-y="-80" number="1">
					<syllabic>single</syllabic>
					<text>vor</text>
				</lyric>
			</note>
		</measure>
		<measure number="6">
			<note>
				<pitch>
					<step>D</step>
					<alter>-1</alter>
					<octave>4</octave>
				</pitch>
				<duration>240</duration>
				<voice>1</voice>
				<type>eighth</type>
				<accidental>flat</accidental>
				<lyric default-y="-80" number="1">
					<syllabic>begin</syllabic>
					<text>Sor</text>
				</lyric>
			</note>
			<note>
				<pitch>
					<step>D</step>
					<alter>-1</alter>
					<octave>4</octave>
				</pitch>
				<duration>240</duration>
				<voice>1</voice>
				<type>eighth</type>
				<lyric default-y="-80" number="1">
					<syllabic>end</syllabic>
					<text>ge,</text>
				</lyric>
			</note>
			<note>
				<rest/>
				<duration>240</duration>
				<voice>1</voice>
				<type>eighth</type>
			</note>
			<note>
				<pitch>
					<step>F</step>
					<octave>4</octave>
				</pitch>
				<duration>120</duration>
				<voice>1</voice>
				<type>16th</type>
				<lyric default-y="-80" number="1">
					<syllabic>single</syllabic>
					<text>dass</text>
				</lyric>
			</note>
			<note>
				<pitch>
					<step>D</step>
					<alter>-1</alter>
					<octave>4</octave>
				</pitch>
				<duration>120</duration>
				<voice>1</voice>
				<type>16th</type>
				<accidental cautionary="yes">flat</accidental>
				<lyric default-y="-80" number="1">
					<syllabic>single</syllabic>
					<text>sie</text>
				</lyric>
			</note>
			<note>
				<pitch>
					<step>B</step>
					<octave>3</octave>
				</pitch>
				<duration>240</duration>
				<voice>1</voice>
				<type>eighth</type>
				<accidental>natural</accidental>
				<lyric default-y="-80" number="1">
					<syllabic>single</syllabic>
					<text>mich</text>
				</lyric>
			</note>
			<note>
				<pitch>
					<step>C</step>
					<octave>4</octave>
				</pitch>
				<duration>240</duration>
				<voice>1</voice>
				<type>eighth</type>
				<lyric default-y="-80" number="1">
					<syllabic>single</syllabic>
					<text>zu</text>
				</lyric>
			</note>
			<note>
				<pitch>
					<step>F</step>
					<octave>3</octave>
				</pitch>
				<duration>240</duration>
				<voice>1</voice>
				<type>eighth</type>
				<lyric default-y="-80" number="1">
					<syllabic>begin</syllabic>
					<text>Bo</text>
				</lyric>
			</note>
			<note>
				<pitch>
					<step>E</step>
					<alter>-1</alter>
					<octave>3</octave>
				</pitch>
				<duration>240</duration>
				<voice>1</voice>
				<type>eighth</type>
				<accidental>flat</accidental>
				<lyric default-y="-80" number="1">
					<syllabic>end</syllabic>
					<text>den</text>
				</lyric>
			</note>
		</measure>
		<measure number="7">
			<print new-system="yes">
				<system-layout>
					<system-margins>
						<left-margin>0</left-margin>
						<right-margin>0</right-margin>
					</system-margins>
					<system-distance>120</system-distance>
				</system-layout>
				<staff-layout number="1">
					<staff-distance>70</staff-distance>
				</staff-layout>
			</print>
			<attributes>
				<clef>
					<sign>G</sign>
					<line>2</line>
					<clef-octave-change>-1</clef-octave-change>
				</clef>
			</attributes>
			<note>
				<pitch>
					<step>C</step>
					<octave>3</octave>
				</pitch>
				<duration>480</duration>
				<voice>1</voice>
				<type>quarter</type>
				<lyric default-y="-80" number="1">
					<syllabic>single</syllabic>
					<text>stürzt.</text>
				</lyric>
			</note>
			<note>
				<rest/>
				<duration>480</duration>
				<voice>1</voice>
				<type>quarter</type>
			</note>
			<note>
				<rest/>
				<duration>240</duration>
				<voice>1</voice>
				<type>eighth</type>
			</note>
			<direction placement="above">
				<direction-type>
					<dynamics relative-x="-7" default-y="7" font-size="18">
						<f/>
					</dynamics>
				</direction-type>
				<sound dynamics="111"/>
			</direction>
			<note>
				<pitch>
					<step>G</step>
					<octave>3</octave>
				</pitch>
				<duration>240</duration>
				<voice>1</voice>
				<type>eighth</type>
				<lyric default-y="-80" number="1">
					<syllabic>single</syllabic>
					<text>Der</text>
				</lyric>
			</note>
			<note>
				<pitch>
					<step>C</step>
					<octave>4</octave>
				</pitch>
				<duration>240</duration>
				<voice>1</voice>
				<type>eighth</type>
				<lyric default-y="-80" number="1">
					<syllabic>begin</syllabic>
					<text>Höch</text>
				</lyric>
			</note>
			<note>
				<pitch>
					<step>D</step>
					<octave>4</octave>
				</pitch>
				<duration>240</duration>
				<voice>1</voice>
				<type>eighth</type>
				<lyric default-y="-80" number="1">
					<syllabic>end</syllabic>
					<text>ste</text>
				</lyric>
			</note>
		</measure>
		<measure number="8">
			<note>
				<pitch>
					<step>E</step>
					<octave>4</octave>
				</pitch>
				<duration>360</duration>
				<voice>1</voice>
				<type>eighth</type>
				<dot/>
				<accidental cautionary="yes">natural</accidental>
				<lyric default-y="-80" number="1">
					<syllabic>single</syllabic>
					<text>will,</text>
				</lyric>
			</note>
			<note>
				<pitch>
					<step>E</step>
					<octave>4</octave>
				</pitch>
				<duration>120</duration>
				<voice>1</voice>
				<type>16th</type>
				<lyric default-y="-80" number="1">
					<syllabic>single</syllabic>
					<text>sein</text>
				</lyric>
			</note>
			<note>
				<pitch>
					<step>G</step>
					<octave>4</octave>
				</pitch>
				<duration>120</duration>
				<voice>1</voice>
				<type>16th</type>
				<lyric default-y="-80" number="1">
					<syllabic>begin</syllabic>
					<text>Va</text>
				</lyric>
			</note>
			<note>
				<pitch>
					<step>E</step>
					<octave>4</octave>
				</pitch>
				<duration>120</duration>
				<voice>1</voice>
				<type>16th</type>
				<lyric default-y="-80" number="1">
					<syllabic>middle</syllabic>
					<text>ter</text>
				</lyric>
			</note>
			<note>
				<pitch>
					<step>C</step>
					<octave>4</octave>
				</pitch>
				<duration>120</duration>
				<voice>1</voice>
				<type>16th</type>
				<lyric default-y="-80" number="1">
					<syllabic>middle</syllabic>
					<text>her</text>
				</lyric>
			</note>
			<note>
				<pitch>
					<step>E</step>
					<octave>4</octave>
				</pitch>
				<duration>120</duration>
				<voice>1</voice>
				<type>16th</type>
				<lyric default-y="-80" number="1">
					<syllabic>end</syllabic>
					<text>ze</text>
				</lyric>
			</note>
			<note>
				<pitch>
					<step>F</step>
					<octave>4</octave>
				</pitch>
				<duration>480</duration>
				<voice>1</voice>
				<type>quarter</type>
				<lyric default-y="-80" number="1">
					<syllabic>single</syllabic>
					<text>bricht;</text>
				</lyric>
			</note>
			<note>
				<rest/>
				<duration>240</duration>
				<voice>1</voice>
				<type>eighth</type>
			</note>
			<direction placement="above">
				<direction-type>
					<dynamics relative-x="-12" default-y="15" font-size="18">
						<p/>
					</dynamics>
				</direction-type>
				<sound dynamics="78"/>
			</direction>
			<note>
				<pitch>
					<step>F</step>
					<octave>3</octave>
				</pitch>
				<duration>240</duration>
				<voice>1</voice>
				<type>eighth</type>
				<lyric default-y="-80" number="1">
					<syllabic>single</syllabic>
					<text>ach</text>
				</lyric>
			</note>
		</measure>
		<measure number="9">
			<note>
				<pitch>
					<step>D</step>
					<octave>4</octave>
				</pitch>
				<duration>480</duration>
				<voice>1</voice>
				<type>quarter</type>
				<lyric default-y="-80" number="1">
					<syllabic>single</syllabic>
					<text>nein!</text>
				</lyric>
			</note>
			<note>
				<rest/>
				<duration>240</duration>
				<voice>1</voice>
				<type>eighth</type>
			</note>
			<note>
				<pitch>
					<step>F</step>
					<octave>4</octave>
				</pitch>
				<duration>240</duration>
				<voice>1</voice>
				<type>eighth</type>
				<lyric default-y="-80" number="1">
					<syllabic>single</syllabic>
					<text>er</text>
				</lyric>
			</note>
			<note>
				<pitch>
					<step>A</step>
					<alter>-1</alter>
					<octave>4</octave>
				</pitch>
				<duration>240</duration>
				<voice>1</voice>
				<type>eighth</type>
				<accidental>flat</accidental>
				<lyric default-y="-80" number="1">
					<syllabic>single</syllabic>
					<text>hört</text>
				</lyric>
			</note>
			<note>
				<pitch>
					<step>C</step>
					<octave>4</octave>
				</pitch>
				<duration>240</duration>
				<voice>1</voice>
				<type>eighth</type>
				<lyric default-y="-80" number="1">
					<syllabic>single</syllabic>
					<text>die</text>
				</lyric>
			</note>
			<note>
				<pitch>
					<step>D</step>
					<octave>4</octave>
				</pitch>
				<duration>240</duration>
				<voice>1</voice>
				<type>eighth</type>
				<lyric default-y="-80" number="1">
					<syllabic>begin</syllabic>
					<text>Sün</text>
				</lyric>
			</note>
			<note>
				<pitch>
					<step>E</step>
					<alter>-1</alter>
					<octave>4</octave>
				</pitch>
				<duration>240</duration>
				<voice>1</voice>
				<type>eighth</type>
				<accidental>flat</accidental>
				<lyric default-y="-80" number="1">
					<syllabic>end</syllabic>
					<text>der</text>
				</lyric>
			</note>
		</measure>
		<measure number="10">
			<print new-system="yes">
				<system-layout>
					<system-margins>
						<left-margin>0</left-margin>
						<right-margin>0</right-margin>
					</system-margins>
					<system-distance>120</system-distance>
				</system-layout>
				<staff-layout number="1">
					<staff-distance>70</staff-distance>
				</staff-layout>
			</print>
			<attributes>
				<clef>
					<sign>G</sign>
					<line>2</line>
					<clef-octave-change>-1</clef-octave-change>
				</clef>
			</attributes>
			<note>
				<pitch>
					<step>E</step>
					<alter>-1</alter>
					<octave>4</octave>
				</pitch>
				<duration>240</duration>
				<voice>1</voice>
				<type>eighth</type>
				<accidental>flat</accidental>
				<beam number="1">begin</beam>
				<notations>
					<slur number="1" placement="above" type="start"/>
				</notations>
				<lyric default-y="-80" number="1">
					<syllabic>single</syllabic>
					<text>nicht.</text>
				</lyric>
			</note>
			<note>
				<pitch>
					<step>B</step>
					<alter>-1</alter>
					<octave>3</octave>
				</pitch>
				<duration>240</duration>
				<voice>1</voice>
				<type>eighth</type>
				<beam number="1">end</beam>
				<notations>
					<slur number="1" type="stop"/>
				</notations>
			</note>
			<note>
				<rest/>
				<duration>960</duration>
				<voice>1</voice>
				<type>half</type>
			</note>
			<note>
				<rest/>
				<duration>240</duration>
				<voice>1</voice>
				<type>eighth</type>
			</note>
			<direction placement="above">
				<direction-type>
					<dynamics relative-x="-7" default-y="6" font-size="18">
						<f/>
					</dynamics>
				</direction-type>
				<sound dynamics="111"/>
			</direction>
			<note>
				<pitch>
					<step>E</step>
					<alter>-1</alter>
					<octave>3</octave>
				</pitch>
				<duration>240</duration>
				<voice>1</voice>
				<type>eighth</type>
				<accidental>flat</accidental>
				<lyric default-y="-80" number="1">
					<syllabic>single</syllabic>
					<text>Er</text>
				</lyric>
			</note>
		</measure>
		<measure number="11">
			<note>
				<pitch>
					<step>B</step>
					<alter>-1</alter>
					<octave>3</octave>
				</pitch>
				<duration>480</duration>
				<voice>1</voice>
				<type>quarter</type>
				<lyric default-y="-80" number="1">
					<syllabic>single</syllabic>
					<text>wird,</text>
				</lyric>
			</note>
			<note>
				<rest/>
				<duration>240</duration>
				<voice>1</voice>
				<type>eighth</type>
			</note>
			<note>
				<pitch>
					<step>G</step>
					<octave>3</octave>
				</pitch>
				<duration>240</duration>
				<voice>1</voice>
				<type>eighth</type>
				<lyric default-y="-80" number="1">
					<syllabic>single</syllabic>
					<text>er</text>
				</lyric>
			</note>
			<note>
				<grace slash="no"/>
				<pitch>
					<step>D</step>
					<octave>4</octave>
				</pitch>
				<voice>1</voice>
				<type>16th</type>
				<stem>up</stem>
				<notations>
					<slur number="1" placement="below" type="start"/>
				</notations>
			</note>
			<note>
				<pitch>
					<step>C</step>
					<alter>1</alter>
					<octave>4</octave>
				</pitch>
				<duration>240</duration>
				<voice>1</voice>
				<type>eighth</type>
				<accidental>sharp</accidental>
				<notations>
					<slur number="1" type="stop"/>
				</notations>
				<lyric default-y="-80" number="1">
					<syllabic>single</syllabic>
					<text>muss</text>
				</lyric>
			</note>
			<note>
				<rest/>
				<duration>120</duration>
				<voice>1</voice>
				<type>16th</type>
			</note>
			<note>
				<pitch>
					<step>D</step>
					<octave>4</octave>
				</pitch>
				<duration>120</duration>
				<voice>1</voice>
				<type>16th</type>
				<lyric default-y="-80" number="1">
					<syllabic>single</syllabic>
					<text>dir</text>
				</lyric>
			</note>
			<note>
				<pitch>
					<step>E</step>
					<octave>4</octave>
				</pitch>
				<duration>120</duration>
				<voice>1</voice>
				<type>16th</type>
				<accidental cautionary="yes">natural</accidental>
				<lyric default-y="-80" number="1">
					<syllabic>single</syllabic>
					<text>bald</text>
				</lyric>
			</note>
			<note>
				<pitch>
					<step>F</step>
					<octave>4</octave>
				</pitch>
				<duration>120</duration>
				<voice>1</voice>
				<type>16th</type>
				<lyric default-y="-80" number="1">
					<syllabic>single</syllabic>
					<text>zu</text>
				</lyric>
			</note>
			<note>
				<pitch>
					<step>G</step>
					<octave>4</octave>
				</pitch>
				<duration>120</duration>
				<voice>1</voice>
				<type>16th</type>
				<lyric default-y="-80" number="1">
					<syllabic>begin</syllabic>
					<text>hel</text>
				</lyric>
			</note>
			<note>
				<pitch>
					<step>E</step>
					<octave>4</octave>
				</pitch>
				<duration>120</duration>
				<voice>1</voice>
				<type>16th</type>
				<lyric default-y="-80" number="1">
					<syllabic>end</syllabic>
					<text>fen</text>
				</lyric>
			</note>
		</measure>
		<measure number="12">
			<note>
				<pitch>
					<step>A</step>
					<octave>4</octave>
				</pitch>
				<duration>240</duration>
				<voice>1</voice>
				<type>eighth</type>
				<lyric default-y="-80" number="1">
					<syllabic>begin</syllabic>
					<text>ei</text>
				</lyric>
			</note>
			<note>
				<pitch>
					<step>A</step>
					<octave>4</octave>
				</pitch>
				<duration>240</duration>
				<voice>1</voice>
				<type>eighth</type>
				<lyric default-y="-80" number="1">
					<syllabic>end</syllabic>
					<text>len,</text>
				</lyric>
			</note>
			<note>
				<rest/>
				<duration>240</duration>
				<voice>1</voice>
				<type>eighth</type>
			</note>
			<note>
				<pitch>
					<step>A</step>
					<octave>3</octave>
				</pitch>
				<duration>240</duration>
				<voice>1</voice>
				<type>eighth</type>
				<lyric default-y="-80" number="1">
					<syllabic>single</syllabic>
					<text>um</text>
				</lyric>
			</note>
			<note>
				<pitch>
					<step>B</step>
					<alter>-1</alter>
					<octave>3</octave>
				</pitch>
				<duration>240</duration>
				<voice>1</voice>
				<type>eighth</type>
				<lyric default-y="-80" number="1">
					<syllabic>begin</syllabic>
					<text>dei</text>
				</lyric>
			</note>
			<note>
				<pitch>
					<step>G</step>
					<octave>3</octave>
				</pitch>
				<duration>240</duration>
				<voice>1</voice>
				<type>eighth</type>
				<lyric default-y="-80" number="1">
					<syllabic>end</syllabic>
					<text>ne</text>
				</lyric>
			</note>
			<note>
				<pitch>
					<step>E</step>
					<alter>-1</alter>
					<octave>4</octave>
				</pitch>
				<duration>240</duration>
				<voice>1</voice>
				<type>eighth</type>
				<accidental>flat</accidental>
				<lyric default-y="-80" number="1">
					<syllabic>single</syllabic>
					<text>Not</text>
				</lyric>
			</note>
			<note>
				<rest/>
				<duration>120</duration>
				<voice>1</voice>
				<type>16th</type>
			</note>
			<note>
				<pitch>
					<step>D</step>
					<octave>4</octave>
				</pitch>
				<duration>120</duration>
				<voice>1</voice>
				<type>16th</type>
				<lyric default-y="-80" number="1">
					<syllabic>single</syllabic>
					<text>zu</text>
				</lyric>
			</note>
		</measure>
		<measure number="13">
			<print new-system="yes">
				<system-layout>
					<system-margins>
						<left-margin>0</left-margin>
						<right-margin>0</right-margin>
					</system-margins>
					<system-distance>120</system-distance>
				</system-layout>
				<staff-layout number="1">
					<staff-distance>70</staff-distance>
				</staff-layout>
			</print>
			<attributes>
				<clef>
					<sign>G</sign>
					<line>2</line>
					<clef-octave-change>-1</clef-octave-change>
				</clef>
			</attributes>
			<note>
				<pitch>
					<step>D</step>
					<octave>4</octave>
				</pitch>
				<duration>240</duration>
				<voice>1</voice>
				<type>eighth</type>
				<lyric default-y="-80" number="1">
					<syllabic>begin</syllabic>
					<text>hei</text>
				</lyric>
			</note>
			<note>
				<pitch>
					<step>A</step>
					<octave>3</octave>
				</pitch>
				<duration>240</duration>
				<voice>1</voice>
				<type>eighth</type>
				<lyric default-y="-80" number="1">
					<syllabic>end</syllabic>
					<text>len.</text>
				</lyric>
			</note>
			<note>
				<rest/>
				<duration>480</duration>
				<voice>1</voice>
				<type>quarter</type>
			</note>
			<note>
				<rest/>
				<duration>480</duration>
				<voice>1</voice>
				<type>quarter</type>
			</note>
			<note>
				<rest/>
				<duration>240</duration>
				<voice>1</voice>
				<type>eighth</type>
			</note>
			<direction placement="above">
				<direction-type>
					<dynamics relative-x="-8" default-y="15" font-size="18">
						<p/>
					</dynamics>
				</direction-type>
				<sound dynamics="78"/>
			</direction>
			<note>
				<pitch>
					<step>A</step>
					<octave>3</octave>
				</pitch>
				<duration>240</duration>
				<voice>1</voice>
				<type>eighth</type>
				<lyric default-y="-80" number="1">
					<syllabic>single</syllabic>
					<text>Ach</text>
				</lyric>
			</note>
		</measure>
		<measure number="14">
			<note>
				<pitch>
					<step>F</step>
					<alter>1</alter>
					<octave>4</octave>
				</pitch>
				<duration>480</duration>
				<voice>1</voice>
				<type>quarter</type>
				<accidental>sharp</accidental>
				<lyric default-y="-80" number="1">
					<syllabic>single</syllabic>
					<text>nein!</text>
				</lyric>
			</note>
			<note>
				<rest/>
				<duration>240</duration>
				<voice>1</voice>
				<type>eighth</type>
			</note>
			<note>
				<pitch>
					<step>F</step>
					<alter>1</alter>
					<octave>4</octave>
				</pitch>
				<duration>240</duration>
				<voice>1</voice>
				<type>eighth</type>
				<lyric default-y="-80" number="1">
					<syllabic>single</syllabic>
					<text>es</text>
				</lyric>
			</note>
			<note>
				<pitch>
					<step>D</step>
					<alter>1</alter>
					<octave>4</octave>
				</pitch>
				<duration>120</duration>
				<voice>1</voice>
				<type>16th</type>
				<accidental>sharp</accidental>
				<lyric default-y="-80" number="1">
					<syllabic>begin</syllabic>
					<text>blei</text>
				</lyric>
			</note>
			<note>
				<pitch>
					<step>D</step>
					<alter>1</alter>
					<octave>4</octave>
				</pitch>
				<duration>120</duration>
				<voice>1</voice>
				<type>16th</type>
				<lyric default-y="-80" number="1">
					<syllabic>end</syllabic>
					<text>bet</text>
				</lyric>
			</note>
			<note>
				<pitch>
					<step>E</step>
					<octave>4</octave>
				</pitch>
				<duration>120</duration>
				<voice>1</voice>
				<type>16th</type>
				<lyric default-y="-80" number="1">
					<syllabic>single</syllabic>
					<text>mir</text>
				</lyric>
			</note>
			<note>
				<pitch>
					<step>F</step>
					<alter>1</alter>
					<octave>4</octave>
				</pitch>
				<duration>120</duration>
				<voice>1</voice>
				<type>16th</type>
				<lyric default-y="-80" number="1">
					<syllabic>single</syllabic>
					<text>um</text>
				</lyric>
			</note>
			<note>
				<pitch>
					<step>A</step>
					<octave>3</octave>
				</pitch>
				<duration>240</duration>
				<voice>1</voice>
				<type>eighth</type>
				<lyric default-y="-80" number="1">
					<syllabic>single</syllabic>
					<text>Trost</text>
				</lyric>
			</note>
			<note>
				<pitch>
					<step>B</step>
					<octave>3</octave>
				</pitch>
				<duration>240</duration>
				<voice>1</voice>
				<type>eighth</type>
				<accidental>natural</accidental>
				<lyric default-y="-80" number="1">
					<syllabic>single</syllabic>
					<text>sehr</text>
				</lyric>
			</note>
		</measure>
		<measure number="15">
			<print new-system="yes">
				<system-layout>
					<system-margins>
						<left-margin>0</left-margin>
						<right-margin>0</right-margin>
					</system-margins>
					<system-distance>120</system-distance>
				</system-layout>
				<staff-layout number="1">
					<staff-distance>70</staff-distance>
				</staff-layout>
			</print>
			<attributes>
				<clef>
					<sign>G</sign>
					<line>2</line>
					<clef-octave-change>-1</clef-octave-change>
				</clef>
			</attributes>
			<note>
				<pitch>
					<step>C</step>
					<octave>4</octave>
				</pitch>
				<duration>240</duration>
				<voice>1</voice>
				<type>eighth</type>
				<lyric default-y="-80" number="1">
					<syllabic>begin</syllabic>
					<text>ban</text>
				</lyric>
			</note>
			<note>
				<pitch>
					<step>C</step>
					<octave>4</octave>
				</pitch>
				<duration>240</duration>
				<voice>1</voice>
				<type>eighth</type>
				<lyric default-y="-80" number="1">
					<syllabic>end</syllabic>
					<text>ge,</text>
				</lyric>
			</note>
			<note>
				<rest/>
				<duration>240</duration>
				<voice>1</voice>
				<type>eighth</type>
			</note>
			<direction placement="above">
				<direction-type>
					<dynamics relative-x="-2" default-y="12" font-size="18">
						<f/>
					</dynamics>
				</direction-type>
				<sound dynamics="111"/>
			</direction>
			<note>
				<pitch>
					<step>B</step>
					<octave>3</octave>
				</pitch>
				<duration>240</duration>
				<voice>1</voice>
				<type>eighth</type>
				<accidental>natural</accidental>
				<lyric default-y="-80" number="1">
					<syllabic>single</syllabic>
					<text>ach</text>
				</lyric>
			</note>
			<barline>
				<bar-style>light-light</bar-style>
			</barline>
		</measure>
		<measure number="16">
			<note>
				<pitch>
					<step>G</step>
					<octave>4</octave>
				</pitch>
				<duration>480</duration>
				<voice>1</voice>
				<type>quarter</type>
				<lyric default-y="-80" number="1">
					<syllabic>single</syllabic>
					<text>Herr!</text>
				</lyric>
			</note>
			<direction placement="above">
				<direction-type>
					<words relative-x="-105" default-y="27" font-family="Times New Roman" font-size="10" font-weight="bold">Adagio.</words>
				</direction-type>
			</direction>
			<note>
				<rest/>
				<duration>240</duration>
				<voice>1</voice>
				<type>eighth</type>
			</note>
			<note>
				<pitch>
					<step>E</step>
					<octave>4</octave>
				</pitch>
				<duration>240</duration>
				<voice>1</voice>
				<type>eighth</type>
				<lyric default-y="-80" number="1">
					<syllabic>single</syllabic>
					<text>wie</text>
				</lyric>
			</note>
			<barline>
				<bar-style>regular</bar-style>
			</barline>
		</measure>
		<measure number="17">
			<note>
				<pitch>
					<step>F</step>
					<octave>4</octave>
				</pitch>
				<duration>480</duration>
				<tie type="start"/>
				<voice>1</voice>
				<type>quarter</type>
				<notations>
					<tied type="start"/>
				</notations>
				<lyric default-y="-80" number="1">
					<syllabic>begin</syllabic>
					<text>lan</text>
				</lyric>
			</note>
			<note>
				<pitch>
					<step>F</step>
					<octave>4</octave>
				</pitch>
				<duration>120</duration>
				<tie type="stop"/>
				<voice>1</voice>
				<type>16th</type>
				<beam number="1">begin</beam>
				<beam number="2">begin</beam>
				<notations>
					<tied type="stop"/>
				</notations>
			</note>
			<note>
				<pitch>
					<step>E</step>
					<octave>4</octave>
				</pitch>
				<duration>120</duration>
				<voice>1</voice>
				<type>16th</type>
				<beam number="1">continue</beam>
				<beam number="2">continue</beam>
			</note>
			<note>
				<pitch>
					<step>D</step>
					<alter>1</alter>
					<octave>4</octave>
				</pitch>
				<duration>120</duration>
				<voice>1</voice>
				<type>16th</type>
				<accidental>sharp</accidental>
				<beam number="1">continue</beam>
				<beam number="2">continue</beam>
			</note>
			<note>
				<pitch>
					<step>E</step>
					<octave>4</octave>
				</pitch>
				<duration>120</duration>
				<voice>1</voice>
				<type>16th</type>
				<beam number="1">end</beam>
				<beam number="2">end</beam>
			</note>
			<note>
				<pitch>
					<step>E</step>
					<octave>4</octave>
				</pitch>
				<duration>480</duration>
				<tie type="start"/>
				<voice>1</voice>
				<type>quarter</type>
				<notations>
					<tied type="start"/>
				</notations>
			</note>
			<note>
				<pitch>
					<step>E</step>
					<octave>4</octave>
				</pitch>
				<duration>120</duration>
				<tie type="stop"/>
				<voice>1</voice>
				<type>16th</type>
				<beam number="1">begin</beam>
				<beam number="2">begin</beam>
				<notations>
					<tied type="stop"/>
				</notations>
			</note>
			<note>
				<pitch>
					<step>C</step>
					<alter>1</alter>
					<octave>4</octave>
				</pitch>
				<duration>120</duration>
				<voice>1</voice>
				<type>16th</type>
				<accidental>sharp</accidental>
				<beam number="1">continue</beam>
				<beam number="2">continue</beam>
			</note>
			<note>
				<pitch>
					<step>A</step>
					<alter>1</alter>
					<octave>3</octave>
				</pitch>
				<duration>120</duration>
				<voice>1</voice>
				<type>16th</type>
				<accidental>sharp</accidental>
				<beam number="1">continue</beam>
				<beam number="2">continue</beam>
			</note>
			<note>
				<pitch>
					<step>B</step>
					<octave>3</octave>
				</pitch>
				<duration>120</duration>
				<voice>1</voice>
				<type>16th</type>
				<accidental>natural</accidental>
				<beam number="1">end</beam>
				<beam number="2">end</beam>
			</note>
		</measure>
		<measure number="18">
			<note>
				<pitch>
					<step>G</step>
					<octave>4</octave>
				</pitch>
				<duration>120</duration>
				<voice>1</voice>
				<type>16th</type>
				<beam number="1">begin</beam>
				<beam number="2">begin</beam>
			</note>
			<note>
				<pitch>
					<step>F</step>
					<alter>1</alter>
					<octave>4</octave>
				</pitch>
				<duration>120</duration>
				<voice>1</voice>
				<type>16th</type>
				<accidental>sharp</accidental>
				<beam number="1">end</beam>
				<beam number="2">end</beam>
			</note>
			<note>
				<pitch>
					<step>A</step>
					<octave>4</octave>
				</pitch>
				<duration>240</duration>
				<voice>1</voice>
				<type>eighth</type>
				<lyric default-y="-80" number="1">
					<syllabic>end</syllabic>
					<text>ge?</text>
				</lyric>
			</note>
			<note>
				<rest/>
				<duration>480</duration>
				<voice>1</voice>
				<type>quarter</type>
			</note>
			<note>
				<rest/>
				<duration>960</duration>
				<voice>1</voice>
				<type>half</type>
				<notations>
					<fermata type="upright"/>
				</notations>
			</note>
			<barline>
				<bar-style>light-heavy</bar-style>
			</barline>
		</measure>
	</part>
	<part id="P2">
		<measure number="1">
			<direction>
				<direction-type>
					<other-direction/>
				</direction-type>
				<sound tempo="48"/>
			</direction>
			<print>
				<system-layout>
					<system-margins>
						<left-margin>114</left-margin>
						<right-margin>0</right-margin>
					</system-margins>
					<top-system-distance>160</top-system-distance>
				</system-layout>
				<staff-layout number="1">
					<staff-distance>100</staff-distance>
				</staff-layout>
			</print>
			<attributes>
				<divisions>480</divisions>
				<key>
					<fifths>-1</fifths>
					<mode>major</mode>
				</key>
				<time symbol="common">
					<beats>4</beats>
					<beat-type>4</beat-type>
				</time>
				<clef>
					<sign>F</sign>
					<line>4</line>
				</clef>
			</attributes>
			<note>
				<pitch>
					<step>B</step>
					<alter>-1</alter>
					<octave>2</octave>
				</pitch>
				<duration>1920</duration>
				<tie type="start"/>
				<voice>1</voice>
				<type>whole</type>
				<notations>
					<tied type="start"/>
				</notations>
				<lyric default-y="-70" number="1">
					<syllabic>single</syllabic>
					<text>5                6</text>
				</lyric>
				<lyric default-y="-90" number="2">
					<syllabic>single</syllabic>
					<text>                 v</text>
				</lyric>
			</note>
		</measure>
		<measure number="2">
			<note>
				<pitch>
					<step>B</step>
					<alter>-1</alter>
					<octave>2</octave>
				</pitch>
				<duration>1440</duration>
				<tie type="stop"/>
				<voice>1</voice>
				<type>half</type>
				<dot/>
				<notations>
					<tied type="stop"/>
				</notations>
				<lyric default-y="-70" number="1">
					<syllabic>single</syllabic>
					<text>/                   8</text>
				</lyric>
				<lyric default-y="-90" number="2">
					<syllabic>single</syllabic>
					<text>v                   5</text>
				</lyric>
				<lyric default-y="-110" number="3">
					<syllabic>single</syllabic>
					<text>2                   3</text>
				</lyric>
			</note>
			<note>
				<pitch>
					<step>D</step>
					<octave>3</octave>
				</pitch>
				<duration>480</duration>
				<voice>1</voice>
				<type>quarter</type>
				<lyric default-y="-70" number="1">
					<syllabic>single</syllabic>
					<text>6</text>
				</lyric>
			</note>
		</measure>
		<measure number="3">
			<note>
				<pitch>
					<step>E</step>
					<alter>-1</alter>
					<octave>3</octave>
				</pitch>
				<duration>960</duration>
				<voice>1</voice>
				<type>half</type>
				<accidental>flat</accidental>
				<lyric default-y="-70" number="1">
					<syllabic>single</syllabic>
					<text>6</text>
				</lyric>
				<lyric default-y="-90" number="2">
					<syllabic>single</syllabic>
					<text>5</text>
				</lyric>
			</note>
			<note>
				<rest/>
				<duration>480</duration>
				<voice>1</voice>
				<type>quarter</type>
			</note>
			<note>
				<pitch>
					<step>F</step>
					<octave>3</octave>
				</pitch>
				<duration>480</duration>
				<voice>1</voice>
				<type>quarter</type>
			</note>
		</measure>
		<measure number="4">
			<print new-system="yes">
				<system-layout>
					<system-margins>
						<left-margin>0</left-margin>
						<right-margin>0</right-margin>
					</system-margins>
					<system-distance>120</system-distance>
				</system-layout>
				<staff-layout number="1">
					<staff-distance>100</staff-distance>
				</staff-layout>
			</print>
			<attributes>
				<time>
					<beats>4</beats>
					<beat-type>4</beat-type>
				</time>
			</attributes>
			<note>
				<pitch>
					<step>B</step>
					<alter>-1</alter>
					<octave>2</octave>
				</pitch>
				<duration>960</duration>
				<voice>1</voice>
				<type>half</type>
			</note>
			<note>
				<pitch>
					<step>G</step>
					<octave>2</octave>
				</pitch>
				<duration>960</duration>
				<tie type="start"/>
				<voice>1</voice>
				<type>half</type>
				<notations>
					<tied type="start"/>
				</notations>
				<lyric default-y="-70" number="1">
					<syllabic>single</syllabic>
					<text>7</text>
				</lyric>
				<lyric default-y="-90" number="2">
					<syllabic>single</syllabic>
					<text>Q</text>
				</lyric>
			</note>
		</measure>
		<measure number="5">
			<note>
				<pitch>
					<step>G</step>
					<octave>2</octave>
				</pitch>
				<duration>960</duration>
				<tie type="stop"/>
				<voice>1</voice>
				<type>half</type>
				<notations>
					<tied type="stop"/>
				</notations>
			</note>
			<note>
				<pitch>
					<step>C</step>
					<octave>3</octave>
				</pitch>
				<duration>960</duration>
				<voice>1</voice>
				<type>half</type>
				<lyric default-y="-70" number="1">
					<syllabic>single</syllabic>
					<text>Y</text>
				</lyric>
			</note>
		</measure>
		<measure number="6">
			<note>
				<pitch>
					<step>F</step>
					<octave>3</octave>
				</pitch>
				<duration>960</duration>
				<voice>1</voice>
				<type>half</type>
				<lyric default-y="-70" number="1">
					<syllabic>single</syllabic>
					<text>n</text>
				</lyric>
			</note>
			<note>
				<pitch>
					<step>A</step>
					<alter>-1</alter>
					<octave>3</octave>
				</pitch>
				<duration>960</duration>
				<voice>1</voice>
				<type>half</type>
				<accidental>flat</accidental>
				<lyric default-y="-70" number="1">
					<syllabic>single</syllabic>
					<text>6</text>
				</lyric>
				<lyric default-y="-90" number="2">
					<syllabic>single</syllabic>
					<text>$</text>
				</lyric>
				<lyric default-y="-110" number="3">
					<syllabic>single</syllabic>
					<text>&quot;</text>
				</lyric>
			</note>
		</measure>
		<measure number="7">
			<print new-system="yes">
				<system-layout>
					<system-margins>
						<left-margin>0</left-margin>
						<right-margin>0</right-margin>
					</system-margins>
					<system-distance>120</system-distance>
				</system-layout>
				<staff-layout number="1">
					<staff-distance>100</staff-distance>
				</staff-layout>
			</print>
			<note>
				<rest/>
				<duration>480</duration>
				<voice>1</voice>
				<type>quarter</type>
			</note>
			<note>
				<pitch>
					<step>G</step>
					<octave>3</octave>
				</pitch>
				<duration>480</duration>
				<voice>1</voice>
				<type>quarter</type>
				<lyric default-y="-70" number="1">
					<syllabic>single</syllabic>
					<text>7</text>
				</lyric>
				<lyric default-y="-90" number="2">
					<syllabic>single</syllabic>
					<text>Q</text>
				</lyric>
			</note>
			<note>
				<pitch>
					<step>C</step>
					<octave>3</octave>
				</pitch>
				<duration>960</duration>
				<voice>1</voice>
				<type>half</type>
				<lyric default-y="-70" number="1">
					<syllabic>single</syllabic>
					<text>Y</text>
				</lyric>
			</note>
		</measure>
		<measure number="8">
			<note>
				<pitch>
					<step>B</step>
					<alter>-1</alter>
					<octave>2</octave>
				</pitch>
				<duration>960</duration>
				<voice>1</voice>
				<type>half</type>
				<lyric default-y="-70" number="1">
					<syllabic>single</syllabic>
					<text>6</text>
				</lyric>
				<lyric default-y="-90" number="2">
					<syllabic>single</syllabic>
					<text>$</text>
				</lyric>
				<lyric default-y="-110" number="3">
					<syllabic>single</syllabic>
					<text>2</text>
				</lyric>
			</note>
			<note>
				<pitch>
					<step>A</step>
					<octave>2</octave>
				</pitch>
				<duration>960</duration>
				<voice>1</voice>
				<type>half</type>
				<lyric default-y="-70" number="1">
					<syllabic>single</syllabic>
					<text>6</text>
				</lyric>
			</note>
		</measure>
		<measure number="9">
			<note>
				<pitch>
					<step>A</step>
					<alter>-1</alter>
					<octave>2</octave>
				</pitch>
				<duration>1920</duration>
				<voice>1</voice>
				<type>whole</type>
				<accidental>flat</accidental>
				<lyric default-y="-70" number="1">
					<syllabic>single</syllabic>
					<text>6</text>
				</lyric>
				<lyric default-y="-90" number="2">
					<syllabic>single</syllabic>
					<text>4</text>
				</lyric>
				<lyric default-y="-110" number="3">
					<syllabic>single</syllabic>
					<text>2</text>
				</lyric>
			</note>
		</measure>
		<measure number="10">
			<print new-system="yes">
				<system-layout>
					<system-margins>
						<left-margin>0</left-margin>
						<right-margin>0</right-margin>
					</system-margins>
					<system-distance>120</system-distance>
				</system-layout>
				<staff-layout number="1">
					<staff-distance>100</staff-distance>
				</staff-layout>
			</print>
			<note>
				<rest/>
				<duration>480</duration>
				<voice>1</voice>
				<type>quarter</type>
			</note>
			<note>
				<pitch>
					<step>B</step>
					<alter>-1</alter>
					<octave>2</octave>
				</pitch>
				<duration>480</duration>
				<voice>1</voice>
				<type>quarter</type>
				<lyric default-y="-70" number="1">
					<syllabic>single</syllabic>
					<text>m</text>
				</lyric>
			</note>
			<note>
				<pitch>
					<step>E</step>
					<alter>-1</alter>
					<octave>3</octave>
				</pitch>
				<duration>960</duration>
				<tie type="start"/>
				<voice>1</voice>
				<type>half</type>
				<accidental>flat</accidental>
				<notations>
					<tied type="start"/>
				</notations>
			</note>
		</measure>
		<measure number="11">
			<note>
				<pitch>
					<step>E</step>
					<alter>-1</alter>
					<octave>3</octave>
				</pitch>
				<duration>960</duration>
				<tie type="stop"/>
				<voice>1</voice>
				<type>half</type>
				<notations>
					<tied type="stop"/>
				</notations>
			</note>
			<note>
				<pitch>
					<step>E</step>
					<octave>3</octave>
				</pitch>
				<duration>960</duration>
				<voice>1</voice>
				<type>half</type>
				<accidental>natural</accidental>
				<lyric default-y="-70" number="1">
					<syllabic>single</syllabic>
					<text>&amp;</text>
				</lyric>
			</note>
		</measure>
		<measure number="12">
			<note>
				<pitch>
					<step>G</step>
					<octave>3</octave>
				</pitch>
				<duration>480</duration>
				<voice>1</voice>
				<type>quarter</type>
				<lyric default-y="-70" number="1">
					<syllabic>single</syllabic>
					<text>6</text>
				</lyric>
				<lyric default-y="-90" number="2">
					<syllabic>single</syllabic>
					<text>$</text>
				</lyric>
				<lyric default-y="-110" number="3">
					<syllabic>single</syllabic>
					<text>2</text>
				</lyric>
			</note>
			<note>
				<pitch>
					<step>F</step>
					<octave>3</octave>
				</pitch>
				<duration>480</duration>
				<voice>1</voice>
				<type>quarter</type>
				<lyric default-y="-70" number="1">
					<syllabic>single</syllabic>
					<text>6</text>
				</lyric>
			</note>
			<note>
				<pitch>
					<step>G</step>
					<octave>3</octave>
				</pitch>
				<duration>960</duration>
				<voice>1</voice>
				<type>half</type>
				<lyric default-y="-70" number="1">
					<syllabic>single</syllabic>
					<text>7        n  5</text>
				</lyric>
			</note>
		</measure>
		<measure number="13">
			<print new-system="yes">
				<system-layout>
					<system-margins>
						<left-margin>0</left-margin>
						<right-margin>0</right-margin>
					</system-margins>
					<system-distance>120</system-distance>
				</system-layout>
				<staff-layout number="1">
					<staff-distance>100</staff-distance>
				</staff-layout>
			</print>
			<note>
				<rest/>
				<duration>480</duration>
				<voice>1</voice>
				<type>quarter</type>
			</note>
			<note>
				<pitch>
					<step>A</step>
					<octave>3</octave>
				</pitch>
				<duration>480</duration>
				<voice>1</voice>
				<type>quarter</type>
				<lyric default-y="-70" number="1">
					<syllabic>single</syllabic>
					<text>7</text>
				</lyric>
				<lyric default-y="-90" number="2">
					<syllabic>single</syllabic>
					<text>#</text>
				</lyric>
			</note>
			<note>
				<pitch>
					<step>D</step>
					<octave>3</octave>
				</pitch>
				<duration>960</duration>
				<voice>1</voice>
				<type>half</type>
			</note>
		</measure>
		<measure number="14">
			<note>
				<pitch>
					<step>A</step>
					<octave>2</octave>
				</pitch>
				<duration>1920</duration>
				<voice>1</voice>
				<type>whole</type>
				<lyric default-y="-70" number="1">
					<syllabic>single</syllabic>
					<text>&amp;</text>
				</lyric>
			</note>
		</measure>
		<measure number="15">
			<print new-system="yes">
				<system-layout>
					<system-margins>
						<left-margin>0</left-margin>
						<right-margin>0</right-margin>
					</system-margins>
					<system-distance>120</system-distance>
				</system-layout>
				<staff-layout number="1">
					<staff-distance>100</staff-distance>
				</staff-layout>
			</print>
			<note>
				<pitch>
					<step>D</step>
					<alter>1</alter>
					<octave>3</octave>
				</pitch>
				<duration>960</duration>
				<voice>1</voice>
				<type>half</type>
				<accidental>sharp</accidental>
				<lyric default-y="-70" number="1">
					<syllabic>single</syllabic>
					<text>m</text>
				</lyric>
				<lyric default-y="-90" number="2">
					<syllabic>single</syllabic>
					<text>5</text>
				</lyric>
			</note>
			<barline>
				<bar-style>light-light</bar-style>
			</barline>
		</measure>
		<measure number="16">
			<note>
				<rest/>
				<duration>240</duration>
				<voice>1</voice>
				<type>eighth</type>
			</note>
			<note>
				<pitch>
					<step>E</step>
					<octave>2</octave>
				</pitch>
				<duration>240</duration>
				<voice>1</voice>
				<type>eighth</type>
				<lyric default-y="-70" number="1">
					<syllabic>single</syllabic>
					<text>%</text>
				</lyric>
			</note>
			<note>
				<pitch>
					<step>E</step>
					<octave>3</octave>
				</pitch>
				<duration>120</duration>
				<voice>1</voice>
				<type>16th</type>
				<beam number="1">begin</beam>
				<beam number="2">begin</beam>
				<notations>
					<slur number="1" placement="above" type="start"/>
				</notations>
			</note>
			<note>
				<pitch>
					<step>D</step>
					<alter>1</alter>
					<octave>3</octave>
				</pitch>
				<duration>120</duration>
				<voice>1</voice>
				<type>16th</type>
				<accidental>sharp</accidental>
				<beam number="1">continue</beam>
				<beam number="2">continue</beam>
			</note>
			<note>
				<pitch>
					<step>E</step>
					<octave>3</octave>
				</pitch>
				<duration>240</duration>
				<voice>1</voice>
				<type>eighth</type>
				<beam number="1">end</beam>
				<beam number="2">end</beam>
				<notations>
					<slur number="1" type="stop"/>
				</notations>
			</note>
			<barline>
				<bar-style>regular</bar-style>
			</barline>
		</measure>
		<measure number="17">
			<note>
				<rest/>
				<duration>240</duration>
				<voice>1</voice>
				<type>eighth</type>
			</note>
			<note>
				<pitch>
					<step>A</step>
					<octave>2</octave>
				</pitch>
				<duration>240</duration>
				<voice>1</voice>
				<type>eighth</type>
				<lyric default-y="-70" number="1">
					<syllabic>single</syllabic>
					<text>n</text>
				</lyric>
			</note>
			<note>
				<pitch>
					<step>A</step>
					<octave>3</octave>
				</pitch>
				<duration>120</duration>
				<voice>1</voice>
				<type>16th</type>
				<beam number="1">begin</beam>
				<beam number="2">begin</beam>
				<notations>
					<slur number="1" placement="above" type="start"/>
				</notations>
			</note>
			<note>
				<pitch>
					<step>G</step>
					<alter>1</alter>
					<octave>3</octave>
				</pitch>
				<duration>120</duration>
				<voice>1</voice>
				<type>16th</type>
				<accidental>sharp</accidental>
				<beam number="1">continue</beam>
				<beam number="2">continue</beam>
			</note>
			<note>
				<pitch>
					<step>A</step>
					<octave>3</octave>
				</pitch>
				<duration>240</duration>
				<voice>1</voice>
				<type>eighth</type>
				<beam number="1">end</beam>
				<beam number="2">end</beam>
				<notations>
					<slur number="1" type="stop"/>
				</notations>
			</note>
			<note>
				<rest/>
				<duration>240</duration>
				<voice>1</voice>
				<type>eighth</type>
			</note>
			<note>
				<pitch>
					<step>A</step>
					<alter>1</alter>
					<octave>2</octave>
				</pitch>
				<duration>240</duration>
				<voice>1</voice>
				<type>eighth</type>
				<accidental>sharp</accidental>
				<lyric default-y="-70" number="1">
					<syllabic>single</syllabic>
					<text>m</text>
				</lyric>
				<lyric default-y="-90" number="2">
					<syllabic>single</syllabic>
					<text>5</text>
				</lyric>
			</note>
			<note>
				<pitch>
					<step>A</step>
					<alter>1</alter>
					<octave>3</octave>
				</pitch>
				<duration>120</duration>
				<voice>1</voice>
				<type>16th</type>
				<accidental>sharp</accidental>
				<beam number="1">begin</beam>
				<beam number="2">begin</beam>
				<notations>
					<slur number="1" placement="above" type="start"/>
				</notations>
			</note>
			<note>
				<pitch>
					<step>G</step>
					<alter>1</alter>
					<octave>3</octave>
				</pitch>
				<duration>120</duration>
				<voice>1</voice>
				<type>16th</type>
				<accidental cautionary="yes">sharp</accidental>
				<beam number="1">continue</beam>
				<beam number="2">continue</beam>
			</note>
			<note>
				<pitch>
					<step>A</step>
					<alter>1</alter>
					<octave>3</octave>
				</pitch>
				<duration>240</duration>
				<voice>1</voice>
				<type>eighth</type>
				<beam number="1">end</beam>
				<beam number="2">end</beam>
				<notations>
					<slur number="1" type="stop"/>
				</notations>
			</note>
		</measure>
		<measure number="18">
			<note>
				<rest/>
				<duration>240</duration>
				<voice>1</voice>
				<type>eighth</type>
			</note>
			<note>
				<pitch>
					<step>B</step>
					<octave>2</octave>
				</pitch>
				<duration>240</duration>
				<voice>1</voice>
				<type>eighth</type>
				<accidental>natural</accidental>
				<lyric default-y="-70" number="1">
					<syllabic>single</syllabic>
					<text>7</text>
				</lyric>
				<lyric default-y="-90" number="2">
					<syllabic>single</syllabic>
					<text>#</text>
				</lyric>
			</note>
			<note>
				<pitch>
					<step>B</step>
					<octave>3</octave>
				</pitch>
				<duration>120</duration>
				<voice>1</voice>
				<type>16th</type>
				<accidental>natural</accidental>
				<beam number="1">begin</beam>
				<beam number="2">begin</beam>
				<notations>
					<slur number="1" placement="above" type="start"/>
				</notations>
			</note>
			<note>
				<pitch>
					<step>A</step>
					<octave>3</octave>
				</pitch>
				<duration>120</duration>
				<voice>1</voice>
				<type>16th</type>
				<beam number="1">continue</beam>
				<beam number="2">continue</beam>
			</note>
			<note>
				<pitch>
					<step>B</step>
					<octave>3</octave>
				</pitch>
				<duration>240</duration>
				<voice>1</voice>
				<type>eighth</type>
				<beam number="1">end</beam>
				<beam number="2">end</beam>
				<notations>
					<slur number="1" type="stop"/>
				</notations>
			</note>
			<note>
				<pitch>
					<step>E</step>
					<octave>2</octave>
				</pitch>
				<duration>960</duration>
				<voice>1</voice>
				<type>half</type>
				<notations>
					<fermata type="upright"/>
				</notations>
			</note>
			<barline>
				<bar-style>light-heavy</bar-style>
			</barline>
		</measure>
	</part>
</score-partwise>
