<?xml version="1.0" encoding="UTF-8" standalone="no"?>
<!--MusicXML 2.0 file created by CapToMusic.py CapXML to MusicXML converter version 2.10-->
<!DOCTYPE score-partwise PUBLIC "-//Recordare//DTD MusicXML 2.0 Partwise//EN" "http://www.musicxml.org/dtds/partwise.dtd">
<score-partwise version="2.0">
	<identification>
		<encoding>
			<encoding-date>2020-06-03</encoding-date>
			<software>CapToMusic.py CapXML to MusicXML converter version 2.10</software>
			<encoding-description>Options: FinaleDolet33=1, ChordCaseMatters=1, ExportToSibelius=0</encoding-description>
		</encoding>
	</identification>
	<defaults>
		<scaling>
			<millimeters>1.4</millimeters>
			<tenths>10.0</tenths>
		</scaling>
		<page-layout>
			<page-height>2121</page-height>
			<page-width>1500</page-width>
			<page-margins type="both">
				<left-margin>85</left-margin>
				<right-margin>85</right-margin>
				<top-margin>85</top-margin>
				<bottom-margin>85</bottom-margin>
			</page-margins>
		</page-layout>
		<system-layout>
			<system-margins>
				<left-margin>0</left-margin>
				<right-margin>0</right-margin>
			</system-margins>
			<system-distance>20</system-distance>
			<top-system-distance>20</top-system-distance>
		</system-layout>
	</defaults>
	<credit>
		<credit-words default-x="747" default-y="85" font-family="Times New Roman" font-size="8" justify="center">BWV 95 - Seite #</credit-words>
	</credit>
	<part-list>
		<score-part id="P1">
			<part-name>Soprano.</part-name>
			<part-abbreviation></part-abbreviation>
			<score-instrument id="P1-I1">
				<instrument-name>Midi_74</instrument-name>
			</score-instrument>
			<midi-instrument id="P1-I1">
				<midi-channel>1</midi-channel>
				<midi-program>74</midi-program>
			</midi-instrument>
		</score-part>
		<score-part id="P2">
			<part-name>Continuo.</part-name>
			<part-abbreviation></part-abbreviation>
			<score-instrument id="P2-I1">
				<instrument-name>Midi_20</instrument-name>
			</score-instrument>
			<midi-instrument id="P2-I1">
				<midi-channel>2</midi-channel>
				<midi-program>20</midi-program>
			</midi-instrument>
		</score-part>
		<part-group type="stop" number="1"/>
	</part-list>
	<part id="P1">
		<measure number="1">
			<direction>
				<direction-type>
					<other-direction/>
				</direction-type>
				<sound tempo="48"/>
			</direction>
			<print>
				<system-layout>
					<system-margins>
						<left-margin>114</left-margin>
						<right-margin>0</right-margin>
					</system-margins>
					<top-system-distance>130</top-system-distance>
				</system-layout>
				<staff-layout number="1">
					<staff-distance>110</staff-distance>
				</staff-layout>
			</print>
			<attributes>
				<divisions>480</divisions>
				<key>
					<fifths>0</fifths>
					<mode>major</mode>
				</key>
				<time symbol="common">
					<beats>4</beats>
					<beat-type>4</beat-type>
				</time>
				<clef>
					<sign>G</sign>
					<line>2</line>
				</clef>
			</attributes>
			<note>
				<rest>
					<display-step>B</display-step>
					<display-octave>4</display-octave>
				</rest>
				<duration>480</duration>
				<voice>1</voice>
				<type>quarter</type>
			</note>
			<note>
				<rest>
					<display-step>B</display-step>
					<display-octave>4</display-octave>
				</rest>
				<duration>240</duration>
				<voice>1</voice>
				<type>eighth</type>
			</note>
			<direction placement="above">
				<direction-type>
					<words relative-x="-179" default-y="58" font-family="Times New Roman" font-size="12" font-weight="bold">2. Recitativo.</words>
				</direction-type>
			</direction>
			<direction placement="above">
				<direction-type>
					<words relative-x="-11" default-y="57" font-family="Times New Roman" font-size="10">Melodie: &quot;Valet will ich dir geben!&quot; </words>
				</direction-type>
			</direction>
			<note>
				<pitch>
					<step>G</step>
					<octave>5</octave>
				</pitch>
				<duration>240</duration>
				<voice>1</voice>
				<type>eighth</type>
				<lyric default-y="-75" number="1">
					<syllabic>single</syllabic>
					<text>Nun,</text>
				</lyric>
			</note>
			<note>
				<rest>
					<display-step>B</display-step>
					<display-octave>4</display-octave>
				</rest>
				<duration>480</duration>
				<voice>1</voice>
				<type>quarter</type>
			</note>
			<note>
				<pitch>
					<step>B</step>
					<alter>-1</alter>
					<octave>4</octave>
				</pitch>
				<duration>120</duration>
				<voice>1</voice>
				<type>16th</type>
				<accidental>flat</accidental>
				<beam number="1">begin</beam>
				<beam number="2">begin</beam>
				<lyric default-y="-75" number="1">
					<syllabic>begin</syllabic>
					<text>fal</text>
				</lyric>
			</note>
			<note>
				<pitch>
					<step>A</step>
					<octave>4</octave>
				</pitch>
				<duration>120</duration>
				<voice>1</voice>
				<type>16th</type>
				<beam number="1">end</beam>
				<beam number="2">end</beam>
			</note>
			<note>
				<pitch>
					<step>B</step>
					<alter>-1</alter>
					<octave>4</octave>
				</pitch>
				<duration>240</duration>
				<voice>1</voice>
				<type>eighth</type>
				<lyric default-y="-75" number="1">
					<syllabic>end</syllabic>
					<text>sche</text>
				</lyric>
			</note>
		</measure>
		<measure number="2">
			<note>
				<pitch>
					<step>A</step>
					<octave>4</octave>
				</pitch>
				<duration>480</duration>
				<voice>1</voice>
				<type>quarter</type>
				<lyric default-y="-75" number="1">
					<syllabic>single</syllabic>
					<text>Welt!</text>
				</lyric>
			</note>
			<note>
				<rest>
					<display-step>B</display-step>
					<display-octave>4</display-octave>
				</rest>
				<duration>120</duration>
				<voice>1</voice>
				<type>16th</type>
			</note>
			<note>
				<pitch>
					<step>A</step>
					<octave>4</octave>
				</pitch>
				<duration>120</duration>
				<voice>1</voice>
				<type>16th</type>
				<lyric default-y="-75" number="1">
					<syllabic>single</syllabic>
					<text>nun</text>
				</lyric>
			</note>
			<note>
				<pitch>
					<step>C</step>
					<alter>1</alter>
					<octave>5</octave>
				</pitch>
				<duration>120</duration>
				<voice>1</voice>
				<type>16th</type>
				<accidental>sharp</accidental>
				<lyric default-y="-75" number="1">
					<syllabic>single</syllabic>
					<text>hab'</text>
				</lyric>
			</note>
			<note>
				<pitch>
					<step>D</step>
					<octave>5</octave>
				</pitch>
				<duration>120</duration>
				<voice>1</voice>
				<type>16th</type>
				<lyric default-y="-75" number="1">
					<syllabic>single</syllabic>
					<text>ich</text>
				</lyric>
			</note>
			<note>
				<pitch>
					<step>E</step>
					<octave>5</octave>
				</pitch>
				<duration>240</duration>
				<voice>1</voice>
				<type>eighth</type>
				<lyric default-y="-75" number="1">
					<syllabic>begin</syllabic>
					<text>wei</text>
				</lyric>
			</note>
			<note>
				<pitch>
					<step>A</step>
					<octave>4</octave>
				</pitch>
				<duration>240</duration>
				<voice>1</voice>
				<type>eighth</type>
				<lyric default-y="-75" number="1">
					<syllabic>end</syllabic>
					<text>ter</text>
				</lyric>
			</note>
			<note>
				<pitch>
					<step>B</step>
					<alter>-1</alter>
					<octave>4</octave>
				</pitch>
				<duration>120</duration>
				<voice>1</voice>
				<type>16th</type>
				<accidental>flat</accidental>
				<lyric default-y="-75" number="1">
					<syllabic>single</syllabic>
					<text>nichts</text>
				</lyric>
			</note>
			<note>
				<pitch>
					<step>G</step>
					<octave>4</octave>
				</pitch>
				<duration>120</duration>
				<voice>1</voice>
				<type>16th</type>
				<lyric default-y="-75" number="1">
					<syllabic>single</syllabic>
					<text>mit</text>
				</lyric>
			</note>
			<note>
				<pitch>
					<step>E</step>
					<octave>4</octave>
				</pitch>
				<duration>120</duration>
				<voice>1</voice>
				<type>16th</type>
				<lyric default-y="-75" number="1">
					<syllabic>single</syllabic>
					<text>dir</text>
				</lyric>
			</note>
			<note>
				<pitch>
					<step>A</step>
					<octave>4</octave>
				</pitch>
				<duration>120</duration>
				<voice>1</voice>
				<type>16th</type>
				<lyric default-y="-75" number="1">
					<syllabic>single</syllabic>
					<text>zu</text>
				</lyric>
			</note>
		</measure>
		<measure number="3">
			<print new-system="yes">
				<system-layout>
					<system-margins>
						<left-margin>0</left-margin>
						<right-margin>0</right-margin>
					</system-margins>
					<system-distance>120</system-distance>
				</system-layout>
				<staff-layout number="1">
					<staff-distance>50</staff-distance>
				</staff-layout>
			</print>
			<attributes>
				<time symbol="common">
					<beats>4</beats>
					<beat-type>4</beat-type>
				</time>
			</attributes>
			<note>
				<pitch>
					<step>F</step>
					<octave>4</octave>
				</pitch>
				<duration>480</duration>
				<voice>1</voice>
				<type>quarter</type>
				<lyric default-y="-75" number="1">
					<syllabic>single</syllabic>
					<text>tun!</text>
				</lyric>
			</note>
			<note>
				<rest>
					<display-step>B</display-step>
					<display-octave>4</display-octave>
				</rest>
				<duration>240</duration>
				<voice>1</voice>
				<type>eighth</type>
			</note>
			<note>
				<pitch>
					<step>A</step>
					<octave>4</octave>
				</pitch>
				<duration>240</duration>
				<voice>1</voice>
				<type>eighth</type>
				<lyric default-y="-75" number="1">
					<syllabic>single</syllabic>
					<text>Mein</text>
				</lyric>
			</note>
			<note>
				<pitch>
					<step>D</step>
					<octave>5</octave>
				</pitch>
				<duration>240</duration>
				<voice>1</voice>
				<type>eighth</type>
				<lyric default-y="-75" number="1">
					<syllabic>single</syllabic>
					<text>Haus</text>
				</lyric>
			</note>
			<note>
				<pitch>
					<step>D</step>
					<octave>5</octave>
				</pitch>
				<duration>240</duration>
				<voice>1</voice>
				<type>eighth</type>
				<lyric default-y="-75" number="1">
					<syllabic>single</syllabic>
					<text>ist</text>
				</lyric>
			</note>
			<note>
				<pitch>
					<step>F</step>
					<octave>5</octave>
				</pitch>
				<duration>240</duration>
				<voice>1</voice>
				<type>eighth</type>
				<lyric default-y="-75" number="1">
					<syllabic>single</syllabic>
					<text>schon</text>
				</lyric>
			</note>
			<note>
				<pitch>
					<step>D</step>
					<octave>5</octave>
				</pitch>
				<duration>240</duration>
				<voice>1</voice>
				<type>eighth</type>
				<lyric default-y="-75" number="1">
					<syllabic>begin</syllabic>
					<text>be</text>
				</lyric>
			</note>
		</measure>
		<measure number="4">
			<note>
				<pitch>
					<step>B</step>
					<octave>4</octave>
				</pitch>
				<duration>480</duration>
				<voice>1</voice>
				<type>quarter</type>
				<lyric default-y="-75" number="1">
					<syllabic>end</syllabic>
					<text>stellt,</text>
				</lyric>
			</note>
			<note>
				<rest>
					<display-step>B</display-step>
					<display-octave>4</display-octave>
				</rest>
				<duration>240</duration>
				<voice>1</voice>
				<type>eighth</type>
			</note>
			<note>
				<pitch>
					<step>D</step>
					<octave>5</octave>
				</pitch>
				<duration>240</duration>
				<voice>1</voice>
				<type>eighth</type>
				<lyric default-y="-75" number="1">
					<syllabic>single</syllabic>
					<text>ich</text>
				</lyric>
			</note>
			<note>
				<pitch>
					<step>D</step>
					<octave>5</octave>
				</pitch>
				<duration>240</duration>
				<voice>1</voice>
				<type>eighth</type>
				<lyric default-y="-75" number="1">
					<syllabic>single</syllabic>
					<text>kann</text>
				</lyric>
			</note>
			<note>
				<pitch>
					<step>F</step>
					<octave>4</octave>
				</pitch>
				<duration>240</duration>
				<voice>1</voice>
				<type>eighth</type>
				<lyric default-y="-75" number="1">
					<syllabic>single</syllabic>
					<text>weit</text>
				</lyric>
			</note>
			<note>
				<pitch>
					<step>A</step>
					<octave>4</octave>
				</pitch>
				<duration>240</duration>
				<voice>1</voice>
				<type>eighth</type>
				<lyric default-y="-75" number="1">
					<syllabic>begin</syllabic>
					<text>sanf</text>
				</lyric>
			</note>
			<note>
				<pitch>
					<step>G</step>
					<octave>4</octave>
				</pitch>
				<duration>240</duration>
				<voice>1</voice>
				<type>eighth</type>
				<lyric default-y="-75" number="1">
					<syllabic>end</syllabic>
					<text>ter</text>
				</lyric>
			</note>
		</measure>
		<measure number="5">
			<print new-system="yes">
				<system-layout>
					<system-margins>
						<left-margin>0</left-margin>
						<right-margin>0</right-margin>
					</system-margins>
					<system-distance>120</system-distance>
				</system-layout>
				<staff-layout number="1">
					<staff-distance>50</staff-distance>
				</staff-layout>
			</print>
			<note>
				<pitch>
					<step>E</step>
					<octave>4</octave>
				</pitch>
				<duration>480</duration>
				<voice>1</voice>
				<type>quarter</type>
				<lyric default-y="-75" number="1">
					<syllabic>single</syllabic>
					<text>ruhn,</text>
				</lyric>
			</note>
			<note>
				<rest>
					<display-step>B</display-step>
					<display-octave>4</display-octave>
				</rest>
				<duration>240</duration>
				<voice>1</voice>
				<type>eighth</type>
			</note>
			<note>
				<pitch>
					<step>E</step>
					<octave>4</octave>
				</pitch>
				<duration>240</duration>
				<voice>1</voice>
				<type>eighth</type>
				<lyric default-y="-75" number="1">
					<syllabic>single</syllabic>
					<text>als</text>
				</lyric>
			</note>
			<note>
				<pitch>
					<step>B</step>
					<octave>4</octave>
				</pitch>
				<duration>240</duration>
				<voice>1</voice>
				<type>eighth</type>
				<lyric default-y="-75" number="1">
					<syllabic>single</syllabic>
					<text>da</text>
				</lyric>
			</note>
			<note>
				<pitch>
					<step>C</step>
					<octave>5</octave>
				</pitch>
				<duration>240</duration>
				<voice>1</voice>
				<type>eighth</type>
				<lyric default-y="-75" number="1">
					<syllabic>single</syllabic>
					<text>ich</text>
				</lyric>
			</note>
			<note>
				<pitch>
					<step>D</step>
					<octave>5</octave>
				</pitch>
				<duration>240</duration>
				<voice>1</voice>
				<type>eighth</type>
				<lyric default-y="-75" number="1">
					<syllabic>single</syllabic>
					<text>sonst</text>
				</lyric>
			</note>
			<note>
				<pitch>
					<step>E</step>
					<octave>5</octave>
				</pitch>
				<duration>240</duration>
				<voice>1</voice>
				<type>eighth</type>
				<lyric default-y="-75" number="1">
					<syllabic>single</syllabic>
					<text>bei</text>
				</lyric>
			</note>
		</measure>
		<measure number="6">
			<note>
				<pitch>
					<step>F</step>
					<octave>5</octave>
				</pitch>
				<duration>240</duration>
				<voice>1</voice>
				<type>eighth</type>
				<lyric default-y="-75" number="1">
					<syllabic>single</syllabic>
					<text>dir,</text>
				</lyric>
			</note>
			<note>
				<rest>
					<display-step>B</display-step>
					<display-octave>4</display-octave>
				</rest>
				<duration>120</duration>
				<voice>1</voice>
				<type>16th</type>
			</note>
			<note>
				<pitch>
					<step>B</step>
					<octave>4</octave>
				</pitch>
				<duration>120</duration>
				<voice>1</voice>
				<type>16th</type>
				<lyric default-y="-75" number="1">
					<syllabic>single</syllabic>
					<text>an</text>
				</lyric>
			</note>
			<note>
				<pitch>
					<step>G</step>
					<alter>1</alter>
					<octave>4</octave>
				</pitch>
				<duration>120</duration>
				<voice>1</voice>
				<type>16th</type>
				<accidental>sharp</accidental>
				<lyric default-y="-75" number="1">
					<syllabic>begin</syllabic>
					<text>dei</text>
				</lyric>
			</note>
			<note>
				<pitch>
					<step>G</step>
					<alter>1</alter>
					<octave>4</octave>
				</pitch>
				<duration>120</duration>
				<voice>1</voice>
				<type>16th</type>
				<lyric default-y="-75" number="1">
					<syllabic>end</syllabic>
					<text>nes</text>
				</lyric>
			</note>
			<note>
				<pitch>
					<step>A</step>
					<octave>4</octave>
				</pitch>
				<duration>120</duration>
				<voice>1</voice>
				<type>16th</type>
				<lyric default-y="-75" number="1">
					<syllabic>begin</syllabic>
					<text>Ba</text>
				</lyric>
			</note>
			<note>
				<pitch>
					<step>B</step>
					<octave>4</octave>
				</pitch>
				<duration>120</duration>
				<voice>1</voice>
				<type>16th</type>
				<lyric default-y="-75" number="1">
					<syllabic>end</syllabic>
					<text>bels</text>
				</lyric>
			</note>
			<note>
				<pitch>
					<step>C</step>
					<octave>5</octave>
				</pitch>
				<duration>240</duration>
				<voice>1</voice>
				<type>eighth</type>
				<lyric default-y="-75" number="1">
					<syllabic>begin</syllabic>
					<text>Flüs</text>
				</lyric>
			</note>
			<note>
				<pitch>
					<step>C</step>
					<octave>5</octave>
				</pitch>
				<duration>240</duration>
				<voice>1</voice>
				<type>eighth</type>
				<lyric default-y="-75" number="1">
					<syllabic>end</syllabic>
					<text>sen,</text>
				</lyric>
			</note>
			<note>
				<rest>
					<display-step>B</display-step>
					<display-octave>4</display-octave>
				</rest>
				<duration>240</duration>
				<voice>1</voice>
				<type>eighth</type>
			</note>
			<note>
				<pitch>
					<step>C</step>
					<octave>5</octave>
				</pitch>
				<duration>240</duration>
				<voice>1</voice>
				<type>eighth</type>
				<lyric default-y="-75" number="1">
					<syllabic>single</syllabic>
					<text>das</text>
				</lyric>
			</note>
		</measure>
		<measure number="7">
			<print new-system="yes">
				<system-layout>
					<system-margins>
						<left-margin>0</left-margin>
						<right-margin>0</right-margin>
					</system-margins>
					<system-distance>120</system-distance>
				</system-layout>
				<staff-layout number="1">
					<staff-distance>50</staff-distance>
				</staff-layout>
			</print>
			<attributes>
				<time>
					<beats>4</beats>
					<beat-type>4</beat-type>
				</time>
			</attributes>
			<note>
				<pitch>
					<step>F</step>
					<octave>5</octave>
				</pitch>
				<duration>240</duration>
				<voice>1</voice>
				<type>eighth</type>
				<lyric default-y="-75" number="1">
					<syllabic>begin</syllabic>
					<text>Wol</text>
				</lyric>
			</note>
			<note>
				<pitch>
					<step>D</step>
					<octave>5</octave>
				</pitch>
				<duration>240</duration>
				<voice>1</voice>
				<type>eighth</type>
				<lyric default-y="-75" number="1">
					<syllabic>middle</syllabic>
					<text>lust</text>
				</lyric>
			</note>
			<note>
				<pitch>
					<step>B</step>
					<alter>-1</alter>
					<octave>4</octave>
				</pitch>
				<duration>240</duration>
				<voice>1</voice>
				<type>eighth</type>
				<accidental>flat</accidental>
				<lyric default-y="-75" number="1">
					<syllabic>end</syllabic>
					<text>salz</text>
				</lyric>
			</note>
			<note>
				<rest>
					<display-step>B</display-step>
					<display-octave>4</display-octave>
				</rest>
				<duration>120</duration>
				<voice>1</voice>
				<type>16th</type>
			</note>
			<note>
				<pitch>
					<step>D</step>
					<octave>5</octave>
				</pitch>
				<duration>120</duration>
				<voice>1</voice>
				<type>16th</type>
				<lyric default-y="-75" number="1">
					<syllabic>begin</syllabic>
					<text>ver</text>
				</lyric>
			</note>
			<note>
				<pitch>
					<step>G</step>
					<alter>1</alter>
					<octave>4</octave>
				</pitch>
				<duration>240</duration>
				<voice>1</voice>
				<type>eighth</type>
				<accidental>sharp</accidental>
				<lyric default-y="-75" number="1">
					<syllabic>middle</syllabic>
					<text>schlu</text>
				</lyric>
			</note>
			<note>
				<pitch>
					<step>A</step>
					<octave>4</octave>
				</pitch>
				<duration>240</duration>
				<voice>1</voice>
				<type>eighth</type>
				<lyric default-y="-75" number="1">
					<syllabic>end</syllabic>
					<text>cken</text>
				</lyric>
			</note>
			<note>
				<pitch>
					<step>A</step>
					<octave>4</octave>
				</pitch>
				<duration>240</duration>
				<voice>1</voice>
				<type>eighth</type>
				<lyric default-y="-75" number="1">
					<syllabic>begin</syllabic>
					<text>müs</text>
				</lyric>
			</note>
			<note>
				<pitch>
					<step>E</step>
					<octave>4</octave>
				</pitch>
				<duration>240</duration>
				<voice>1</voice>
				<type>eighth</type>
				<lyric default-y="-75" number="1">
					<syllabic>end</syllabic>
					<text>sen;</text>
				</lyric>
			</note>
		</measure>
		<measure number="8">
			<note>
				<rest>
					<display-step>B</display-step>
					<display-octave>4</display-octave>
				</rest>
				<duration>240</duration>
				<voice>1</voice>
				<type>eighth</type>
			</note>
			<note>
				<pitch>
					<step>E</step>
					<octave>5</octave>
				</pitch>
				<duration>240</duration>
				<voice>1</voice>
				<type>eighth</type>
				<lyric default-y="-75" number="1">
					<syllabic>single</syllabic>
					<text>wenn</text>
				</lyric>
			</note>
			<note>
				<pitch>
					<step>C</step>
					<octave>5</octave>
				</pitch>
				<duration>240</duration>
				<voice>1</voice>
				<type>eighth</type>
				<lyric default-y="-75" number="1">
					<syllabic>single</syllabic>
					<text>ich</text>
				</lyric>
			</note>
			<note>
				<pitch>
					<step>A</step>
					<octave>4</octave>
				</pitch>
				<duration>240</duration>
				<voice>1</voice>
				<type>eighth</type>
				<lyric default-y="-75" number="1">
					<syllabic>single</syllabic>
					<text>an</text>
				</lyric>
			</note>
			<note>
				<pitch>
					<step>F</step>
					<alter>1</alter>
					<octave>5</octave>
				</pitch>
				<duration>240</duration>
				<voice>1</voice>
				<type>eighth</type>
				<accidental>sharp</accidental>
				<lyric default-y="-75" number="1">
					<syllabic>begin</syllabic>
					<text>dei</text>
				</lyric>
			</note>
			<note>
				<pitch>
					<step>F</step>
					<alter>1</alter>
					<octave>5</octave>
				</pitch>
				<duration>240</duration>
				<voice>1</voice>
				<type>eighth</type>
				<lyric default-y="-75" number="1">
					<syllabic>end</syllabic>
					<text>nem</text>
				</lyric>
			</note>
			<note>
				<pitch>
					<step>A</step>
					<octave>5</octave>
				</pitch>
				<duration>240</duration>
				<voice>1</voice>
				<type>eighth</type>
				<lyric default-y="-75" number="1">
					<syllabic>begin</syllabic>
					<text>Lust</text>
				</lyric>
			</note>
			<note>
				<pitch>
					<step>F</step>
					<alter>1</alter>
					<octave>5</octave>
				</pitch>
				<duration>240</duration>
				<voice>1</voice>
				<type>eighth</type>
				<lyric default-y="-75" number="1">
					<syllabic>middle</syllabic>
					<text>re</text>
				</lyric>
			</note>
		</measure>
		<measure number="9">
			<print new-system="yes">
				<system-layout>
					<system-margins>
						<left-margin>0</left-margin>
						<right-margin>0</right-margin>
					</system-margins>
					<system-distance>120</system-distance>
				</system-layout>
				<staff-layout number="1">
					<staff-distance>50</staff-distance>
				</staff-layout>
			</print>
			<note>
				<pitch>
					<step>D</step>
					<alter>1</alter>
					<octave>5</octave>
				</pitch>
				<duration>480</duration>
				<voice>1</voice>
				<type>quarter</type>
				<accidental>sharp</accidental>
				<lyric default-y="-75" number="1">
					<syllabic>end</syllabic>
					<text>vier</text>
				</lyric>
			</note>
			<note>
				<rest>
					<display-step>B</display-step>
					<display-octave>4</display-octave>
				</rest>
				<duration>240</duration>
				<voice>1</voice>
				<type>eighth</type>
			</note>
			<note>
				<pitch>
					<step>A</step>
					<octave>4</octave>
				</pitch>
				<duration>240</duration>
				<voice>1</voice>
				<type>eighth</type>
				<lyric default-y="-75" number="1">
					<syllabic>single</syllabic>
					<text>nur</text>
				</lyric>
			</note>
			<note>
				<pitch>
					<step>C</step>
					<octave>5</octave>
				</pitch>
				<duration>480</duration>
				<voice>1</voice>
				<type>quarter</type>
				<lyric default-y="-75" number="1">
					<syllabic>begin</syllabic>
					<text>So</text>
				</lyric>
			</note>
			<note>
				<pitch>
					<step>C</step>
					<octave>5</octave>
				</pitch>
				<duration>480</duration>
				<voice>1</voice>
				<type>quarter</type>
				<lyric default-y="-75" number="1">
					<syllabic>middle</syllabic>
					<text>dom's</text>
				</lyric>
			</note>
		</measure>
		<measure number="10">
			<note>
				<pitch>
					<step>B</step>
					<octave>4</octave>
				</pitch>
				<duration>240</duration>
				<voice>1</voice>
				<type>eighth</type>
				<lyric default-y="-75" number="1">
					<syllabic>middle</syllabic>
					<text>Äp</text>
				</lyric>
			</note>
			<note>
				<pitch>
					<step>E</step>
					<octave>4</octave>
				</pitch>
				<duration>240</duration>
				<voice>1</voice>
				<type>eighth</type>
				<lyric default-y="-75" number="1">
					<syllabic>end</syllabic>
					<text>fel</text>
				</lyric>
			</note>
			<note>
				<pitch>
					<step>D</step>
					<alter>1</alter>
					<octave>5</octave>
				</pitch>
				<duration>360</duration>
				<voice>1</voice>
				<type>eighth</type>
				<dot/>
				<accidental>sharp</accidental>
				<lyric default-y="-75" number="1">
					<syllabic>begin</syllabic>
					<text>konn</text>
				</lyric>
			</note>
			<note>
				<pitch>
					<step>E</step>
					<octave>5</octave>
				</pitch>
				<duration>120</duration>
				<voice>1</voice>
				<type>16th</type>
				<lyric default-y="-75" number="1">
					<syllabic>end</syllabic>
					<text>te</text>
				</lyric>
			</note>
			<note>
				<pitch>
					<step>E</step>
					<octave>5</octave>
				</pitch>
				<duration>240</duration>
				<voice>1</voice>
				<type>eighth</type>
				<lyric default-y="-75" number="1">
					<syllabic>begin</syllabic>
					<text>bre</text>
				</lyric>
			</note>
			<note>
				<pitch>
					<step>B</step>
					<octave>4</octave>
				</pitch>
				<duration>240</duration>
				<voice>1</voice>
				<type>eighth</type>
				<lyric default-y="-75" number="1">
					<syllabic>end</syllabic>
					<text>chen.</text>
				</lyric>
			</note>
			<note>
				<rest>
					<display-step>B</display-step>
					<display-octave>4</display-octave>
				</rest>
				<duration>480</duration>
				<voice>1</voice>
				<type>quarter</type>
			</note>
		</measure>
		<measure number="11">
			<print new-system="yes">
				<system-layout>
					<system-margins>
						<left-margin>0</left-margin>
						<right-margin>0</right-margin>
					</system-margins>
					<system-distance>120</system-distance>
				</system-layout>
				<staff-layout number="1">
					<staff-distance>50</staff-distance>
				</staff-layout>
			</print>
			<note>
				<rest>
					<display-step>B</display-step>
					<display-octave>4</display-octave>
				</rest>
				<duration>240</duration>
				<voice>1</voice>
				<type>eighth</type>
			</note>
			<note>
				<pitch>
					<step>E</step>
					<octave>5</octave>
				</pitch>
				<duration>240</duration>
				<voice>1</voice>
				<type>eighth</type>
				<lyric default-y="-75" number="1">
					<syllabic>single</syllabic>
					<text>Nein,</text>
				</lyric>
			</note>
			<note>
				<pitch>
					<step>G</step>
					<octave>5</octave>
				</pitch>
				<duration>240</duration>
				<voice>1</voice>
				<type>eighth</type>
				<lyric default-y="-75" number="1">
					<syllabic>single</syllabic>
					<text>nein!</text>
				</lyric>
			</note>
			<note>
				<rest>
					<display-step>B</display-step>
					<display-octave>4</display-octave>
				</rest>
				<duration>120</duration>
				<voice>1</voice>
				<type>16th</type>
			</note>
			<note>
				<pitch>
					<step>E</step>
					<octave>5</octave>
				</pitch>
				<duration>120</duration>
				<voice>1</voice>
				<type>16th</type>
				<lyric default-y="-75" number="1">
					<syllabic>single</syllabic>
					<text>nun</text>
				</lyric>
			</note>
			<note>
				<pitch>
					<step>C</step>
					<alter>1</alter>
					<octave>5</octave>
				</pitch>
				<duration>240</duration>
				<voice>1</voice>
				<type>eighth</type>
				<accidental>sharp</accidental>
				<lyric default-y="-75" number="1">
					<syllabic>single</syllabic>
					<text>kann</text>
				</lyric>
			</note>
			<note>
				<pitch>
					<step>C</step>
					<alter>1</alter>
					<octave>5</octave>
				</pitch>
				<duration>240</duration>
				<voice>1</voice>
				<type>eighth</type>
				<lyric default-y="-75" number="1">
					<syllabic>single</syllabic>
					<text>ich</text>
				</lyric>
			</note>
			<note>
				<pitch>
					<step>E</step>
					<octave>5</octave>
				</pitch>
				<duration>240</duration>
				<voice>1</voice>
				<type>eighth</type>
				<lyric default-y="-75" number="1">
					<syllabic>single</syllabic>
					<text>mit</text>
				</lyric>
			</note>
			<note>
				<pitch>
					<step>C</step>
					<alter>1</alter>
					<octave>5</octave>
				</pitch>
				<duration>240</duration>
				<voice>1</voice>
				<type>eighth</type>
				<lyric default-y="-75" number="1">
					<syllabic>begin</syllabic>
					<text>ge</text>
				</lyric>
			</note>
		</measure>
		<measure number="12">
			<note>
				<pitch>
					<step>A</step>
					<alter>1</alter>
					<octave>4</octave>
				</pitch>
				<duration>240</duration>
				<voice>1</voice>
				<type>eighth</type>
				<accidental>sharp</accidental>
				<lyric default-y="-75" number="1">
					<syllabic>middle</syllabic>
					<text>lass'</text>
				</lyric>
			</note>
			<note>
				<pitch>
					<step>A</step>
					<alter>1</alter>
					<octave>4</octave>
				</pitch>
				<duration>240</duration>
				<voice>1</voice>
				<type>eighth</type>
				<lyric default-y="-75" number="1">
					<syllabic>end</syllabic>
					<text>ner'm</text>
				</lyric>
			</note>
			<note>
				<pitch>
					<step>G</step>
					<octave>5</octave>
				</pitch>
				<duration>240</duration>
				<voice>1</voice>
				<type>eighth</type>
				<lyric default-y="-75" number="1">
					<syllabic>begin</syllabic>
					<text>Mu</text>
				</lyric>
			</note>
			<note>
				<pitch>
					<step>F</step>
					<alter>1</alter>
					<octave>5</octave>
				</pitch>
				<duration>240</duration>
				<voice>1</voice>
				<type>eighth</type>
				<accidental>sharp</accidental>
				<lyric default-y="-75" number="1">
					<syllabic>end</syllabic>
					<text>te</text>
				</lyric>
			</note>
			<note>
				<pitch>
					<step>D</step>
					<octave>5</octave>
				</pitch>
				<duration>240</duration>
				<voice>1</voice>
				<type>eighth</type>
				<lyric default-y="-75" number="1">
					<syllabic>begin</syllabic>
					<text>spre</text>
				</lyric>
			</note>
			<note>
				<pitch>
					<step>D</step>
					<octave>5</octave>
				</pitch>
				<duration>240</duration>
				<voice>1</voice>
				<type>eighth</type>
				<lyric default-y="-75" number="1">
					<syllabic>end</syllabic>
					<text>chen:</text>
				</lyric>
			</note>
			<barline>
				<bar-style>light-light</bar-style>
			</barline>
			<attributes>
				<key>
					<fifths>2</fifths>
					<mode>major</mode>
				</key>
			</attributes>
		</measure>
	</part>
	<part id="P2">
		<measure number="1">
			<direction>
				<direction-type>
					<other-direction/>
				</direction-type>
				<sound tempo="48"/>
			</direction>
			<print>
				<system-layout>
					<system-margins>
						<left-margin>114</left-margin>
						<right-margin>0</right-margin>
					</system-margins>
					<top-system-distance>130</top-system-distance>
				</system-layout>
				<staff-layout number="1">
					<staff-distance>90</staff-distance>
				</staff-layout>
			</print>
			<attributes>
				<divisions>480</divisions>
				<key>
					<fifths>0</fifths>
					<mode>major</mode>
				</key>
				<time symbol="common">
					<beats>4</beats>
					<beat-type>4</beat-type>
				</time>
				<clef>
					<sign>F</sign>
					<line>4</line>
				</clef>
			</attributes>
			<note>
				<pitch>
					<step>C</step>
					<alter>1</alter>
					<octave>3</octave>
				</pitch>
				<duration>480</duration>
				<voice>1</voice>
				<type>quarter</type>
				<accidental>sharp</accidental>
				<lyric default-y="-75" number="1">
					<syllabic>single</syllabic>
					<text>6</text>
				</lyric>
				<lyric default-y="-90" number="2">
					<syllabic>single</syllabic>
					<text>5</text>
				</lyric>
			</note>
			<note>
				<rest>
					<display-step>D</display-step>
					<display-octave>3</display-octave>
				</rest>
				<duration>480</duration>
				<voice>1</voice>
				<type>quarter</type>
			</note>
			<note>
				<rest>
					<display-step>D</display-step>
					<display-octave>3</display-octave>
				</rest>
				<duration>960</duration>
				<voice>1</voice>
				<type>half</type>
			</note>
		</measure>
		<measure number="2">
			<note>
				<rest measure="yes">
					<display-step>D</display-step>
					<display-octave>3</display-octave>
				</rest>
				<duration>1920</duration>
				<voice>1</voice>
				<type>whole</type>
			</note>
		</measure>
		<measure number="3">
			<print new-system="yes">
				<system-layout>
					<system-margins>
						<left-margin>0</left-margin>
						<right-margin>0</right-margin>
					</system-margins>
					<system-distance>120</system-distance>
				</system-layout>
				<staff-layout number="1">
					<staff-distance>90</staff-distance>
				</staff-layout>
			</print>
			<attributes>
				<time symbol="common">
					<beats>4</beats>
					<beat-type>4</beat-type>
				</time>
			</attributes>
			<note>
				<pitch>
					<step>D</step>
					<octave>3</octave>
				</pitch>
				<duration>480</duration>
				<voice>1</voice>
				<type>quarter</type>
			</note>
			<note>
				<rest>
					<display-step>D</display-step>
					<display-octave>3</display-octave>
				</rest>
				<duration>480</duration>
				<voice>1</voice>
				<type>quarter</type>
			</note>
			<note>
				<rest>
					<display-step>D</display-step>
					<display-octave>3</display-octave>
				</rest>
				<duration>960</duration>
				<voice>1</voice>
				<type>half</type>
			</note>
		</measure>
		<measure number="4">
			<note>
				<rest measure="yes">
					<display-step>D</display-step>
					<display-octave>3</display-octave>
				</rest>
				<duration>1920</duration>
				<voice>1</voice>
				<type>whole</type>
			</note>
		</measure>
		<measure number="5">
			<print new-system="yes">
				<system-layout>
					<system-margins>
						<left-margin>0</left-margin>
						<right-margin>0</right-margin>
					</system-margins>
					<system-distance>120</system-distance>
				</system-layout>
				<staff-layout number="1">
					<staff-distance>90</staff-distance>
				</staff-layout>
			</print>
			<note>
				<pitch>
					<step>G</step>
					<alter>1</alter>
					<octave>2</octave>
				</pitch>
				<duration>480</duration>
				<voice>1</voice>
				<type>quarter</type>
				<accidental>sharp</accidental>
			</note>
			<note>
				<rest>
					<display-step>D</display-step>
					<display-octave>3</display-octave>
				</rest>
				<duration>480</duration>
				<voice>1</voice>
				<type>quarter</type>
			</note>
			<note>
				<rest>
					<display-step>D</display-step>
					<display-octave>3</display-octave>
				</rest>
				<duration>960</duration>
				<voice>1</voice>
				<type>half</type>
			</note>
		</measure>
		<measure number="6">
			<note>
				<rest>
					<display-step>D</display-step>
					<display-octave>3</display-octave>
				</rest>
				<duration>960</duration>
				<voice>1</voice>
				<type>half</type>
			</note>
			<note>
				<pitch>
					<step>A</step>
					<octave>2</octave>
				</pitch>
				<duration>480</duration>
				<voice>1</voice>
				<type>quarter</type>
			</note>
			<note>
				<rest>
					<display-step>D</display-step>
					<display-octave>3</display-octave>
				</rest>
				<duration>480</duration>
				<voice>1</voice>
				<type>quarter</type>
			</note>
		</measure>
		<measure number="7">
			<print new-system="yes">
				<system-layout>
					<system-margins>
						<left-margin>0</left-margin>
						<right-margin>0</right-margin>
					</system-margins>
					<system-distance>120</system-distance>
				</system-layout>
				<staff-layout number="1">
					<staff-distance>90</staff-distance>
				</staff-layout>
			</print>
			<attributes>
				<time>
					<beats>4</beats>
					<beat-type>4</beat-type>
				</time>
			</attributes>
			<note>
				<pitch>
					<step>D</step>
					<octave>3</octave>
				</pitch>
				<duration>480</duration>
				<voice>1</voice>
				<type>quarter</type>
			</note>
			<note>
				<rest>
					<display-step>D</display-step>
					<display-octave>3</display-octave>
				</rest>
				<duration>480</duration>
				<voice>1</voice>
				<type>quarter</type>
			</note>
			<note>
				<rest>
					<display-step>D</display-step>
					<display-octave>3</display-octave>
				</rest>
				<duration>480</duration>
				<voice>1</voice>
				<type>quarter</type>
			</note>
			<direction placement="below">
				<direction-type>
					<words relative-x="-10" default-y="-83" font-family="Times New Roman" font-size="12">(</words>
				</direction-type>
			</direction>
			<note>
				<pitch>
					<step>E</step>
					<octave>3</octave>
				</pitch>
				<duration>480</duration>
				<voice>1</voice>
				<type>quarter</type>
				<lyric default-y="-75" number="1">
					<syllabic>single</syllabic>
					<text>6     5</text>
				</lyric>
				<lyric default-y="-90" number="2">
					<syllabic>single</syllabic>
					<text>4     #</text>
				</lyric>
			</note>
		</measure>
		<measure number="8">
			<direction placement="below">
				<direction-type>
					<words relative-x="-59" default-y="-84" font-family="Times New Roman" font-size="12">)</words>
				</direction-type>
			</direction>
			<note>
				<pitch>
					<step>A</step>
					<octave>2</octave>
				</pitch>
				<duration>480</duration>
				<voice>1</voice>
				<type>quarter</type>
			</note>
			<note>
				<rest>
					<display-step>D</display-step>
					<display-octave>3</display-octave>
				</rest>
				<duration>480</duration>
				<voice>1</voice>
				<type>quarter</type>
			</note>
			<note>
				<rest>
					<display-step>D</display-step>
					<display-octave>3</display-octave>
				</rest>
				<duration>960</duration>
				<voice>1</voice>
				<type>half</type>
			</note>
		</measure>
		<measure number="9">
			<print new-system="yes">
				<system-layout>
					<system-margins>
						<left-margin>0</left-margin>
						<right-margin>0</right-margin>
					</system-margins>
					<system-distance>120</system-distance>
				</system-layout>
				<staff-layout number="1">
					<staff-distance>90</staff-distance>
				</staff-layout>
			</print>
			<note>
				<pitch>
					<step>F</step>
					<alter>1</alter>
					<octave>2</octave>
				</pitch>
				<duration>480</duration>
				<voice>1</voice>
				<type>quarter</type>
				<accidental>sharp</accidental>
			</note>
			<note>
				<rest>
					<display-step>D</display-step>
					<display-octave>3</display-octave>
				</rest>
				<duration>480</duration>
				<voice>1</voice>
				<type>quarter</type>
			</note>
			<note>
				<rest>
					<display-step>D</display-step>
					<display-octave>3</display-octave>
				</rest>
				<duration>960</duration>
				<voice>1</voice>
				<type>half</type>
			</note>
		</measure>
		<measure number="10">
			<note>
				<pitch>
					<step>G</step>
					<octave>2</octave>
				</pitch>
				<duration>480</duration>
				<voice>1</voice>
				<type>quarter</type>
			</note>
			<note>
				<pitch>
					<step>C</step>
					<octave>3</octave>
				</pitch>
				<duration>480</duration>
				<voice>1</voice>
				<type>quarter</type>
			</note>
			<note>
				<rest>
					<display-step>D</display-step>
					<display-octave>3</display-octave>
				</rest>
				<duration>480</duration>
				<voice>1</voice>
				<type>quarter</type>
			</note>
			<note>
				<pitch>
					<step>B</step>
					<octave>2</octave>
				</pitch>
				<duration>480</duration>
				<voice>1</voice>
				<type>quarter</type>
			</note>
		</measure>
		<measure number="11">
			<print new-system="yes">
				<system-layout>
					<system-margins>
						<left-margin>0</left-margin>
						<right-margin>0</right-margin>
					</system-margins>
					<system-distance>120</system-distance>
				</system-layout>
				<staff-layout number="1">
					<staff-distance>90</staff-distance>
				</staff-layout>
			</print>
			<note>
				<pitch>
					<step>E</step>
					<octave>3</octave>
				</pitch>
				<duration>480</duration>
				<voice>1</voice>
				<type>quarter</type>
			</note>
			<note>
				<rest>
					<display-step>D</display-step>
					<display-octave>3</display-octave>
				</rest>
				<duration>480</duration>
				<voice>1</voice>
				<type>quarter</type>
			</note>
			<note>
				<rest>
					<display-step>D</display-step>
					<display-octave>3</display-octave>
				</rest>
				<duration>960</duration>
				<voice>1</voice>
				<type>half</type>
			</note>
		</measure>
		<measure number="12">
			<note>
				<pitch>
					<step>C</step>
					<alter>1</alter>
					<octave>3</octave>
				</pitch>
				<duration>480</duration>
				<voice>1</voice>
				<type>quarter</type>
				<accidental>sharp</accidental>
			</note>
			<note>
				<rest>
					<display-step>D</display-step>
					<display-octave>3</display-octave>
				</rest>
				<duration>480</duration>
				<voice>1</voice>
				<type>quarter</type>
			</note>
			<note>
				<pitch>
					<step>B</step>
					<octave>2</octave>
				</pitch>
				<duration>480</duration>
				<voice>1</voice>
				<type>quarter</type>
			</note>
			<barline>
				<bar-style>light-light</bar-style>
			</barline>
			<attributes>
				<key>
					<fifths>2</fifths>
					<mode>major</mode>
				</key>
			</attributes>
		</measure>
	</part>
</score-partwise>
