<?xml version="1.0" encoding="UTF-8" standalone="no"?>
<!--MusicXML 2.0 file created by CapToMusic.py CapXML to MusicXML converter version 1.40-->
<!DOCTYPE score-partwise PUBLIC "-//Recordare//DTD MusicXML 2.0 Partwise//EN" "http://www.musicxml.org/dtds/partwise.dtd">
<score-partwise version="2.0">
	<identification>
		<encoding>
			<encoding-date>2017-01-10</encoding-date>
			<software>CapToMusic.py CapXML to MusicXML converter version 1.40</software>
			<encoding-description>Options: FinaleDolet33=1, ChordCaseMatters=1, ExportToSibelius=0</encoding-description>
		</encoding>
	</identification>
	<defaults>
		<scaling>
			<millimeters>1.52</millimeters>
			<tenths>10.0</tenths>
		</scaling>
		<page-layout>
			<page-height>1953</page-height>
			<page-width>1381</page-width>
			<page-margins type="both">
				<left-margin>131</left-margin>
				<right-margin>131</right-margin>
				<top-margin>131</top-margin>
				<bottom-margin>131</bottom-margin>
			</page-margins>
		</page-layout>
		<system-layout>
			<system-margins>
				<left-margin>84</left-margin>
				<right-margin>0</right-margin>
			</system-margins>
			<system-distance>60</system-distance>
			<top-system-distance>40</top-system-distance>
		</system-layout>
	</defaults>
	<credit>
		<credit-words></credit-words>
	</credit>
	<part-list>
		<part-group type="start" number="2">
			<group-symbol>bracket</group-symbol>
		</part-group>
		<score-part id="P1">
			<part-name>Thema</part-name>
			<part-abbreviation>Thema</part-abbreviation>
			<score-instrument id="P1-I1">
				<instrument-name>Midi_7</instrument-name>
			</score-instrument>
			<midi-instrument id="P1-I1">
				<midi-channel>1</midi-channel>
				<midi-program>7</midi-program>
			</midi-instrument>
		</score-part>
		<score-part id="P2">
			<part-name>Krebs </part-name>
			<part-abbreviation>Krebs</part-abbreviation>
			<score-instrument id="P2-I1">
				<instrument-name>Midi_71</instrument-name>
			</score-instrument>
			<midi-instrument id="P2-I1">
				<midi-channel>2</midi-channel>
				<midi-program>71</midi-program>
			</midi-instrument>
		</score-part>
		<score-part id="P3">
			<part-name>Spiegel</part-name>
			<part-abbreviation>Spiegel</part-abbreviation>
			<score-instrument id="P3-I1">
				<instrument-name>Midi_20</instrument-name>
			</score-instrument>
			<midi-instrument id="P3-I1">
				<midi-channel>3</midi-channel>
				<midi-program>20</midi-program>
			</midi-instrument>
		</score-part>
		<score-part id="P4">
			<part-name>Spiegelkrebs</part-name>
			<part-abbreviation>Spiegelkrebs</part-abbreviation>
			<score-instrument id="P4-I1">
				<instrument-name>Midi_25</instrument-name>
			</score-instrument>
			<midi-instrument id="P4-I1">
				<midi-channel>4</midi-channel>
				<midi-program>25</midi-program>
			</midi-instrument>
		</score-part>
		<score-part id="P5">
			<part-name>Thema</part-name>
			<part-abbreviation>Thema</part-abbreviation>
			<score-instrument id="P5-I1">
				<instrument-name>Midi_7</instrument-name>
			</score-instrument>
			<midi-instrument id="P5-I1">
				<midi-channel>5</midi-channel>
				<midi-program>7</midi-program>
			</midi-instrument>
		</score-part>
		<part-group type="stop" number="2"/>
	</part-list>
	<part id="P1">
		<measure number="0">
			<direction>
				<direction-type>
					<other-direction/>
				</direction-type>
				<sound tempo="55"/>
			</direction>
			<print>
				<system-layout>
					<system-margins>
						<left-margin>84</left-margin>
						<right-margin>0</right-margin>
					</system-margins>
					<top-system-distance>260</top-system-distance>
				</system-layout>
			</print>
			<attributes>
				<divisions>480</divisions>
				<key>
					<fifths>1</fifths>
					<mode>major</mode>
				</key>
				<time>
					<beats>4</beats>
					<beat-type>2</beat-type>
				</time>
				<clef>
					<sign>F</sign>
					<line>4</line>
				</clef>
			</attributes>
			<note>
				<pitch>
					<step>G</step>
					<octave>3</octave>
				</pitch>
				<duration>480</duration>
				<voice>1</voice>
				<type>quarter</type>
			</note>
			<note>
				<pitch>
					<step>F</step>
					<alter>1</alter>
					<octave>3</octave>
				</pitch>
				<duration>480</duration>
				<voice>1</voice>
				<type>quarter</type>
			</note>
			<note>
				<pitch>
					<step>E</step>
					<octave>3</octave>
				</pitch>
				<duration>480</duration>
				<voice>1</voice>
				<type>quarter</type>
			</note>
			<note>
				<pitch>
					<step>D</step>
					<octave>3</octave>
				</pitch>
				<duration>480</duration>
				<voice>1</voice>
				<type>quarter</type>
			</note>
			<direction placement="above">
				<direction-type>
					<words relative-x="-94" default-y="226" font-family="Times New Roman" font-size="17" font-weight="bold" justify="center">Vierzehn Kanons</words>
				</direction-type>
			</direction>
			<direction placement="above">
				<direction-type>
					<words relative-x="-94" default-y="187" font-family="Times New Roman" font-size="12" justify="center">über die ersten acht Fundamentalnoten der Aria aus den &quot;Goldberg-Variationen&quot;.</words>
				</direction-type>
			</direction>
			<note>
				<pitch>
					<step>B</step>
					<octave>2</octave>
				</pitch>
				<duration>480</duration>
				<voice>1</voice>
				<type>quarter</type>
			</note>
			<note>
				<pitch>
					<step>C</step>
					<octave>3</octave>
				</pitch>
				<duration>480</duration>
				<voice>1</voice>
				<type>quarter</type>
			</note>
			<direction placement="above">
				<direction-type>
					<words relative-x="236" default-y="58" font-family="Times New Roman" font-size="10" justify="right">Johann Sebastian Bach
BWV 1087</words>
				</direction-type>
			</direction>
			<note>
				<pitch>
					<step>D</step>
					<octave>3</octave>
				</pitch>
				<duration>480</duration>
				<voice>1</voice>
				<type>quarter</type>
			</note>
			<note>
				<pitch>
					<step>G</step>
					<octave>2</octave>
				</pitch>
				<duration>480</duration>
				<voice>1</voice>
				<type>quarter</type>
			</note>
			<barline>
				<bar-style>light-heavy</bar-style>
			</barline>
		</measure>
		<measure number="1">
			<print new-system="yes">
				<system-layout>
					<system-margins>
						<left-margin>84</left-margin>
						<right-margin>0</right-margin>
					</system-margins>
					<system-distance>350</system-distance>
				</system-layout>
				<staff-layout number="1">
					<staff-distance>70</staff-distance>
				</staff-layout>
			</print>
			<direction>
				<direction-type>
					<other-direction/>
				</direction-type>
				<sound tempo="80"/>
			</direction>
			<attributes>
				<time>
					<beats>2</beats>
					<beat-type>4</beat-type>
				</time>
			</attributes>
			<note>
				<rest/>
				<duration>480</duration>
				<voice>1</voice>
				<type>quarter</type>
			</note>
			<direction placement="above">
				<direction-type>
					<words relative-x="-156" default-y="47" font-family="Arial" font-size="14" font-weight="bold">1. Canon simplex </words>
				</direction-type>
			</direction>
			<note>
				<pitch>
					<step>G</step>
					<octave>3</octave>
				</pitch>
				<duration>480</duration>
				<voice>1</voice>
				<type>quarter</type>
			</note>
		</measure>
		<measure number="2">
			<direction placement="above">
				<direction-type>
					<words relative-x="-210" default-y="266" font-family="Times New Roman" font-size="12">In den ersten vier Kanons verwendet Bach das unveränderte Thema und demonstriert 
vier Möglichkeiten, es mit sich selbst kanonisch zu kombinieren:</words>
				</direction-type>
			</direction>
			<note>
				<pitch>
					<step>F</step>
					<alter>1</alter>
					<octave>3</octave>
				</pitch>
				<duration>480</duration>
				<voice>1</voice>
				<type>quarter</type>
			</note>
			<note>
				<pitch>
					<step>E</step>
					<octave>3</octave>
				</pitch>
				<duration>480</duration>
				<voice>1</voice>
				<type>quarter</type>
			</note>
		</measure>
		<measure number="3">
			<note>
				<pitch>
					<step>D</step>
					<octave>3</octave>
				</pitch>
				<duration>480</duration>
				<voice>1</voice>
				<type>quarter</type>
			</note>
			<note>
				<pitch>
					<step>B</step>
					<octave>2</octave>
				</pitch>
				<duration>480</duration>
				<voice>1</voice>
				<type>quarter</type>
			</note>
		</measure>
		<measure number="4">
			<note>
				<pitch>
					<step>C</step>
					<octave>3</octave>
				</pitch>
				<duration>480</duration>
				<voice>1</voice>
				<type>quarter</type>
			</note>
			<note>
				<pitch>
					<step>D</step>
					<octave>3</octave>
				</pitch>
				<duration>480</duration>
				<voice>1</voice>
				<type>quarter</type>
			</note>
		</measure>
		<measure number="5">
			<note>
				<pitch>
					<step>G</step>
					<octave>2</octave>
				</pitch>
				<duration>480</duration>
				<voice>1</voice>
				<type>quarter</type>
			</note>
			<note>
				<rest/>
				<duration>480</duration>
				<voice>1</voice>
				<type>quarter</type>
			</note>
		</measure>
		<measure number="6">
			<note>
				<rest/>
				<duration>960</duration>
				<voice>1</voice>
				<type>half</type>
			</note>
		</measure>
		<measure number="7">
			<note>
				<rest/>
				<duration>960</duration>
				<voice>1</voice>
				<type>half</type>
			</note>
		</measure>
		<measure number="8">
			<note>
				<rest/>
				<duration>960</duration>
				<voice>1</voice>
				<type>half</type>
			</note>
		</measure>
		<measure number="9">
			<direction placement="above">
				<direction-type>
					<words relative-x="-458" default-y="59" font-family="Times New Roman" font-size="12">Das Thema wird in der Gegenstimme rückwärts 
gespielt. Es entsteht ein Krebskanon.</words>
				</direction-type>
			</direction>
			<note>
				<rest/>
				<duration>480</duration>
				<voice>1</voice>
				<type>quarter</type>
			</note>
		</measure>
		<measure number="10">
			<print new-system="yes">
				<system-layout>
					<system-margins>
						<left-margin>84</left-margin>
						<right-margin>0</right-margin>
					</system-margins>
					<system-distance>100</system-distance>
				</system-layout>
				<staff-layout number="1">
					<staff-distance>20</staff-distance>
				</staff-layout>
			</print>
			<note>
				<pitch>
					<step>G</step>
					<octave>3</octave>
				</pitch>
				<duration>480</duration>
				<voice>1</voice>
				<type>quarter</type>
			</note>
			<barline>
				<bar-style>regular</bar-style>
			</barline>
		</measure>
		<measure number="11">
			<note>
				<pitch>
					<step>F</step>
					<alter>1</alter>
					<octave>3</octave>
				</pitch>
				<duration>480</duration>
				<voice>1</voice>
				<type>quarter</type>
			</note>
			<note>
				<pitch>
					<step>E</step>
					<octave>3</octave>
				</pitch>
				<duration>480</duration>
				<voice>1</voice>
				<type>quarter</type>
			</note>
		</measure>
		<measure number="12">
			<note>
				<pitch>
					<step>D</step>
					<octave>3</octave>
				</pitch>
				<duration>480</duration>
				<voice>1</voice>
				<type>quarter</type>
			</note>
			<note>
				<pitch>
					<step>B</step>
					<octave>2</octave>
				</pitch>
				<duration>480</duration>
				<voice>1</voice>
				<type>quarter</type>
			</note>
		</measure>
		<measure number="13">
			<note>
				<pitch>
					<step>C</step>
					<octave>3</octave>
				</pitch>
				<duration>480</duration>
				<voice>1</voice>
				<type>quarter</type>
			</note>
			<note>
				<pitch>
					<step>D</step>
					<octave>3</octave>
				</pitch>
				<duration>480</duration>
				<voice>1</voice>
				<type>quarter</type>
			</note>
		</measure>
		<measure number="14">
			<note>
				<pitch>
					<step>G</step>
					<octave>2</octave>
				</pitch>
				<duration>480</duration>
				<voice>1</voice>
				<type>quarter</type>
			</note>
			<note>
				<pitch>
					<step>G</step>
					<octave>3</octave>
				</pitch>
				<duration>480</duration>
				<voice>1</voice>
				<type>quarter</type>
			</note>
		</measure>
		<measure number="15">
			<note>
				<pitch>
					<step>F</step>
					<alter>1</alter>
					<octave>3</octave>
				</pitch>
				<duration>480</duration>
				<voice>1</voice>
				<type>quarter</type>
			</note>
			<note>
				<pitch>
					<step>E</step>
					<octave>3</octave>
				</pitch>
				<duration>480</duration>
				<voice>1</voice>
				<type>quarter</type>
			</note>
		</measure>
		<measure number="16">
			<note>
				<pitch>
					<step>D</step>
					<octave>3</octave>
				</pitch>
				<duration>480</duration>
				<voice>1</voice>
				<type>quarter</type>
			</note>
			<note>
				<pitch>
					<step>B</step>
					<octave>2</octave>
				</pitch>
				<duration>480</duration>
				<voice>1</voice>
				<type>quarter</type>
			</note>
		</measure>
		<measure number="17">
			<note>
				<pitch>
					<step>C</step>
					<octave>3</octave>
				</pitch>
				<duration>480</duration>
				<voice>1</voice>
				<type>quarter</type>
			</note>
			<note>
				<pitch>
					<step>D</step>
					<octave>3</octave>
				</pitch>
				<duration>480</duration>
				<voice>1</voice>
				<type>quarter</type>
			</note>
		</measure>
		<measure number="18">
			<note>
				<pitch>
					<step>G</step>
					<octave>2</octave>
				</pitch>
				<duration>960</duration>
				<voice>1</voice>
				<type>half</type>
			</note>
			<barline>
				<bar-style>light-heavy</bar-style>
			</barline>
		</measure>
		<measure number="19">
			<print new-system="yes">
				<system-layout>
					<system-margins>
						<left-margin>84</left-margin>
						<right-margin>0</right-margin>
					</system-margins>
					<system-distance>220</system-distance>
				</system-layout>
			</print>
			<attributes>
				<divisions>480</divisions>
				<time>
					<beats>2</beats>
					<beat-type>4</beat-type>
				</time>
				<staff-details number="1" print-object="no"/>
			</attributes>
			<note>
				<rest/>
				<duration>960</duration>
			</note>
		</measure>
		<measure number="20">
			<note>
				<rest/>
				<duration>960</duration>
			</note>
		</measure>
		<measure number="21">
			<note>
				<rest/>
				<duration>960</duration>
			</note>
		</measure>
		<measure number="22">
			<note>
				<rest/>
				<duration>960</duration>
			</note>
		</measure>
		<measure number="23">
			<note>
				<rest/>
				<duration>960</duration>
			</note>
		</measure>
		<measure number="24">
			<note>
				<rest/>
				<duration>960</duration>
			</note>
		</measure>
		<measure number="25">
			<note>
				<rest/>
				<duration>960</duration>
			</note>
		</measure>
		<measure number="26">
			<note>
				<rest/>
				<duration>960</duration>
			</note>
		</measure>
		<measure number="27">
			<note>
				<rest/>
				<duration>480</duration>
			</note>
		</measure>
		<measure number="28">
			<print new-system="yes">
				<system-layout>
					<system-margins>
						<left-margin>84</left-margin>
						<right-margin>0</right-margin>
					</system-margins>
					<system-distance>100</system-distance>
				</system-layout>
			</print>
			<attributes>
				<divisions>480</divisions>
				<time>
					<beats>2</beats>
					<beat-type>4</beat-type>
				</time>
				<staff-details number="1" print-object="no"/>
			</attributes>
			<note>
				<rest/>
				<duration>480</duration>
			</note>
			<barline>
				<bar-style>regular</bar-style>
			</barline>
		</measure>
		<measure number="29">
			<note>
				<rest/>
				<duration>960</duration>
			</note>
		</measure>
		<measure number="30">
			<note>
				<rest/>
				<duration>960</duration>
			</note>
		</measure>
		<measure number="31">
			<note>
				<rest/>
				<duration>960</duration>
			</note>
		</measure>
		<measure number="32">
			<note>
				<rest/>
				<duration>960</duration>
			</note>
		</measure>
		<measure number="33">
			<note>
				<rest/>
				<duration>960</duration>
			</note>
		</measure>
		<measure number="34">
			<note>
				<rest/>
				<duration>960</duration>
			</note>
		</measure>
		<measure number="35">
			<note>
				<rest/>
				<duration>960</duration>
			</note>
		</measure>
		<measure number="36">
			<note>
				<rest/>
				<duration>960</duration>
			</note>
		</measure>
		<measure number="37">
			<print new-system="yes">
				<system-layout>
					<system-margins>
						<left-margin>84</left-margin>
						<right-margin>0</right-margin>
					</system-margins>
					<system-distance>300</system-distance>
				</system-layout>
			</print>
			<direction>
				<direction-type>
					<other-direction/>
				</direction-type>
				<sound tempo="88"/>
			</direction>
			<attributes>
				<divisions>480</divisions>
				<time>
					<beats>2</beats>
					<beat-type>4</beat-type>
				</time>
				<staff-details number="1" print-object="no"/>
			</attributes>
			<note>
				<rest/>
				<duration>960</duration>
			</note>
		</measure>
		<measure number="38">
			<note>
				<rest/>
				<duration>960</duration>
			</note>
		</measure>
		<measure number="39">
			<note>
				<rest/>
				<duration>960</duration>
			</note>
		</measure>
		<measure number="40">
			<note>
				<rest/>
				<duration>960</duration>
			</note>
		</measure>
		<measure number="41">
			<note>
				<rest/>
				<duration>960</duration>
			</note>
		</measure>
		<measure number="42">
			<note>
				<rest/>
				<duration>960</duration>
			</note>
		</measure>
		<measure number="43">
			<note>
				<rest/>
				<duration>480</duration>
			</note>
		</measure>
		<measure number="44">
			<print new-system="yes">
				<system-layout>
					<system-margins>
						<left-margin>84</left-margin>
						<right-margin>0</right-margin>
					</system-margins>
					<system-distance>100</system-distance>
				</system-layout>
			</print>
			<attributes>
				<divisions>480</divisions>
				<time>
					<beats>2</beats>
					<beat-type>4</beat-type>
				</time>
				<staff-details number="1" print-object="no"/>
			</attributes>
			<note>
				<rest/>
				<duration>480</duration>
			</note>
			<barline>
				<bar-style>regular</bar-style>
			</barline>
		</measure>
		<measure number="45">
			<note>
				<rest/>
				<duration>960</duration>
			</note>
		</measure>
		<measure number="46">
			<note>
				<rest/>
				<duration>960</duration>
			</note>
		</measure>
		<measure number="47">
			<note>
				<rest/>
				<duration>960</duration>
			</note>
		</measure>
		<measure number="48">
			<note>
				<rest/>
				<duration>960</duration>
			</note>
		</measure>
		<measure number="49">
			<note>
				<rest/>
				<duration>960</duration>
			</note>
		</measure>
		<measure number="50">
			<note>
				<rest/>
				<duration>960</duration>
			</note>
		</measure>
		<measure number="51">
			<print new-system="yes">
				<system-layout>
					<system-margins>
						<left-margin>84</left-margin>
						<right-margin>0</right-margin>
					</system-margins>
					<system-distance>300</system-distance>
				</system-layout>
				<staff-layout number="1">
					<staff-distance>220</staff-distance>
				</staff-layout>
			</print>
			<direction>
				<direction-type>
					<other-direction/>
				</direction-type>
				<sound tempo="83"/>
			</direction>
			<attributes>
				<divisions>480</divisions>
				<key>
					<fifths>1</fifths>
					<mode>major</mode>
				</key>
				<time>
					<beats>2</beats>
					<beat-type>4</beat-type>
				</time>
				<clef>
					<sign>G</sign>
					<line>2</line>
				</clef>
				<staff-details number="1" print-object="yes"/>
			</attributes>
			<direction placement="above">
				<direction-type>
					<words relative-x="-83" default-y="65" font-family="Arial" font-size="14" font-weight="bold">4. motu contrario e recto</words>
				</direction-type>
			</direction>
			<note>
				<rest/>
				<duration>960</duration>
				<voice>1</voice>
				<type>half</type>
			</note>
		</measure>
		<measure number="52">
			<note>
				<rest/>
				<duration>960</duration>
				<voice>1</voice>
				<type>half</type>
			</note>
		</measure>
		<measure number="53">
			<note>
				<rest/>
				<duration>480</duration>
				<voice>1</voice>
				<type>quarter</type>
			</note>
			<note>
				<pitch>
					<step>G</step>
					<octave>4</octave>
				</pitch>
				<duration>480</duration>
				<voice>1</voice>
				<type>quarter</type>
			</note>
		</measure>
		<measure number="54">
			<note>
				<pitch>
					<step>F</step>
					<alter>1</alter>
					<octave>4</octave>
				</pitch>
				<duration>480</duration>
				<voice>1</voice>
				<type>quarter</type>
			</note>
			<note>
				<pitch>
					<step>E</step>
					<octave>4</octave>
				</pitch>
				<duration>480</duration>
				<voice>1</voice>
				<type>quarter</type>
			</note>
		</measure>
		<measure number="55">
			<note>
				<pitch>
					<step>D</step>
					<octave>4</octave>
				</pitch>
				<duration>480</duration>
				<voice>1</voice>
				<type>quarter</type>
			</note>
			<note>
				<pitch>
					<step>B</step>
					<octave>3</octave>
				</pitch>
				<duration>480</duration>
				<voice>1</voice>
				<type>quarter</type>
			</note>
		</measure>
		<measure number="56">
			<note>
				<pitch>
					<step>C</step>
					<octave>4</octave>
				</pitch>
				<duration>480</duration>
				<voice>1</voice>
				<type>quarter</type>
			</note>
			<note>
				<pitch>
					<step>D</step>
					<octave>4</octave>
				</pitch>
				<duration>480</duration>
				<voice>1</voice>
				<type>quarter</type>
			</note>
		</measure>
		<measure number="57">
			<direction placement="above">
				<direction-type>
					<words relative-x="-286" default-y="70" font-family="Times New Roman" font-size="12">Dem Spiegel wird das Thema als
zweite Kanonstimme beigefügt.</words>
				</direction-type>
			</direction>
			<note>
				<pitch>
					<step>G</step>
					<octave>3</octave>
				</pitch>
				<duration>480</duration>
				<voice>1</voice>
				<type>quarter</type>
			</note>
		</measure>
		<measure number="58">
			<print new-system="yes">
				<system-layout>
					<system-margins>
						<left-margin>84</left-margin>
						<right-margin>0</right-margin>
					</system-margins>
					<system-distance>100</system-distance>
				</system-layout>
				<staff-layout number="1">
					<staff-distance>20</staff-distance>
				</staff-layout>
			</print>
			<note>
				<pitch>
					<step>G</step>
					<octave>4</octave>
				</pitch>
				<duration>480</duration>
				<voice>1</voice>
				<type>quarter</type>
			</note>
			<barline>
				<bar-style>regular</bar-style>
			</barline>
		</measure>
		<measure number="59">
			<note>
				<pitch>
					<step>F</step>
					<alter>1</alter>
					<octave>4</octave>
				</pitch>
				<duration>480</duration>
				<voice>1</voice>
				<type>quarter</type>
			</note>
			<note>
				<pitch>
					<step>E</step>
					<octave>4</octave>
				</pitch>
				<duration>480</duration>
				<voice>1</voice>
				<type>quarter</type>
			</note>
		</measure>
		<measure number="60">
			<note>
				<pitch>
					<step>D</step>
					<octave>4</octave>
				</pitch>
				<duration>480</duration>
				<voice>1</voice>
				<type>quarter</type>
			</note>
			<note>
				<pitch>
					<step>B</step>
					<octave>3</octave>
				</pitch>
				<duration>480</duration>
				<voice>1</voice>
				<type>quarter</type>
			</note>
		</measure>
		<measure number="61">
			<note>
				<pitch>
					<step>C</step>
					<octave>4</octave>
				</pitch>
				<duration>480</duration>
				<voice>1</voice>
				<type>quarter</type>
			</note>
			<note>
				<pitch>
					<step>D</step>
					<octave>4</octave>
				</pitch>
				<duration>480</duration>
				<voice>1</voice>
				<type>quarter</type>
			</note>
		</measure>
		<measure number="62">
			<note>
				<pitch>
					<step>G</step>
					<octave>3</octave>
				</pitch>
				<duration>960</duration>
				<voice>1</voice>
				<type>half</type>
			</note>
			<barline>
				<bar-style>light-heavy</bar-style>
			</barline>
		</measure>
	</part>
	<part id="P2">
		<measure number="0">
			<direction>
				<direction-type>
					<other-direction/>
				</direction-type>
				<sound tempo="55"/>
			</direction>
			<attributes>
				<divisions>480</divisions>
				<time>
					<beats>4</beats>
					<beat-type>2</beat-type>
				</time>
				<staff-details number="1" print-object="no"/>
			</attributes>
			<note>
				<rest/>
				<duration>3840</duration>
			</note>
		</measure>
		<measure number="1">
			<print new-system="yes">
				<system-layout>
					<system-margins>
						<left-margin>84</left-margin>
						<right-margin>0</right-margin>
					</system-margins>
					<system-distance>350</system-distance>
				</system-layout>
				<staff-layout number="1">
					<staff-distance>40</staff-distance>
				</staff-layout>
			</print>
			<direction>
				<direction-type>
					<other-direction/>
				</direction-type>
				<sound tempo="80"/>
			</direction>
			<print>
				<system-layout>
					<system-margins>
						<left-margin>84</left-margin>
						<right-margin>0</right-margin>
					</system-margins>
					<top-system-distance>110</top-system-distance>
				</system-layout>
				<staff-layout number="1">
					<staff-distance>40</staff-distance>
				</staff-layout>
			</print>
			<attributes>
				<divisions>480</divisions>
				<key>
					<fifths>1</fifths>
					<mode>major</mode>
				</key>
				<time>
					<beats>2</beats>
					<beat-type>4</beat-type>
				</time>
				<clef>
					<sign>F</sign>
					<line>4</line>
				</clef>
				<staff-details number="1" print-object="yes"/>
			</attributes>
			<note>
				<rest/>
				<duration>960</duration>
				<voice>1</voice>
				<type>half</type>
			</note>
		</measure>
		<measure number="2">
			<note>
				<rest/>
				<duration>960</duration>
				<voice>1</voice>
				<type>half</type>
			</note>
		</measure>
		<measure number="3">
			<note>
				<rest/>
				<duration>960</duration>
				<voice>1</voice>
				<type>half</type>
			</note>
		</measure>
		<measure number="4">
			<note>
				<rest/>
				<duration>960</duration>
				<voice>1</voice>
				<type>half</type>
			</note>
		</measure>
		<measure number="5">
			<note>
				<rest/>
				<duration>480</duration>
				<voice>1</voice>
				<type>quarter</type>
			</note>
			<note>
				<pitch>
					<step>G</step>
					<octave>2</octave>
				</pitch>
				<duration>480</duration>
				<voice>1</voice>
				<type>quarter</type>
			</note>
		</measure>
		<measure number="6">
			<note>
				<pitch>
					<step>D</step>
					<octave>3</octave>
				</pitch>
				<duration>480</duration>
				<voice>1</voice>
				<type>quarter</type>
			</note>
			<note>
				<pitch>
					<step>C</step>
					<octave>3</octave>
				</pitch>
				<duration>480</duration>
				<voice>1</voice>
				<type>quarter</type>
			</note>
		</measure>
		<measure number="7">
			<note>
				<pitch>
					<step>B</step>
					<octave>2</octave>
				</pitch>
				<duration>480</duration>
				<voice>1</voice>
				<type>quarter</type>
			</note>
			<note>
				<pitch>
					<step>D</step>
					<octave>3</octave>
				</pitch>
				<duration>480</duration>
				<voice>1</voice>
				<type>quarter</type>
			</note>
		</measure>
		<measure number="8">
			<note>
				<pitch>
					<step>E</step>
					<octave>3</octave>
				</pitch>
				<duration>480</duration>
				<voice>1</voice>
				<type>quarter</type>
			</note>
			<note>
				<pitch>
					<step>F</step>
					<alter>1</alter>
					<octave>3</octave>
				</pitch>
				<duration>480</duration>
				<voice>1</voice>
				<type>quarter</type>
			</note>
		</measure>
		<measure number="9">
			<note>
				<pitch>
					<step>G</step>
					<octave>3</octave>
				</pitch>
				<duration>480</duration>
				<voice>1</voice>
				<type>quarter</type>
			</note>
		</measure>
		<measure number="10">
			<print new-system="yes">
				<system-layout>
					<system-margins>
						<left-margin>84</left-margin>
						<right-margin>0</right-margin>
					</system-margins>
					<system-distance>100</system-distance>
				</system-layout>
				<staff-layout number="1">
					<staff-distance>40</staff-distance>
				</staff-layout>
			</print>
			<note>
				<pitch>
					<step>G</step>
					<octave>2</octave>
				</pitch>
				<duration>480</duration>
				<voice>1</voice>
				<type>quarter</type>
			</note>
			<barline>
				<bar-style>regular</bar-style>
			</barline>
		</measure>
		<measure number="11">
			<note>
				<pitch>
					<step>D</step>
					<octave>3</octave>
				</pitch>
				<duration>480</duration>
				<voice>1</voice>
				<type>quarter</type>
			</note>
			<note>
				<pitch>
					<step>C</step>
					<octave>3</octave>
				</pitch>
				<duration>480</duration>
				<voice>1</voice>
				<type>quarter</type>
			</note>
		</measure>
		<measure number="12">
			<note>
				<pitch>
					<step>B</step>
					<octave>2</octave>
				</pitch>
				<duration>480</duration>
				<voice>1</voice>
				<type>quarter</type>
			</note>
			<note>
				<pitch>
					<step>D</step>
					<octave>3</octave>
				</pitch>
				<duration>480</duration>
				<voice>1</voice>
				<type>quarter</type>
			</note>
		</measure>
		<measure number="13">
			<note>
				<pitch>
					<step>E</step>
					<octave>3</octave>
				</pitch>
				<duration>480</duration>
				<voice>1</voice>
				<type>quarter</type>
			</note>
			<note>
				<pitch>
					<step>F</step>
					<alter>1</alter>
					<octave>3</octave>
				</pitch>
				<duration>480</duration>
				<voice>1</voice>
				<type>quarter</type>
			</note>
		</measure>
		<measure number="14">
			<note>
				<pitch>
					<step>G</step>
					<octave>3</octave>
				</pitch>
				<duration>480</duration>
				<voice>1</voice>
				<type>quarter</type>
			</note>
			<note>
				<pitch>
					<step>G</step>
					<octave>2</octave>
				</pitch>
				<duration>480</duration>
				<voice>1</voice>
				<type>quarter</type>
			</note>
		</measure>
		<measure number="15">
			<note>
				<pitch>
					<step>D</step>
					<octave>3</octave>
				</pitch>
				<duration>480</duration>
				<voice>1</voice>
				<type>quarter</type>
			</note>
			<note>
				<pitch>
					<step>C</step>
					<octave>3</octave>
				</pitch>
				<duration>480</duration>
				<voice>1</voice>
				<type>quarter</type>
			</note>
		</measure>
		<measure number="16">
			<note>
				<pitch>
					<step>B</step>
					<octave>2</octave>
				</pitch>
				<duration>480</duration>
				<voice>1</voice>
				<type>quarter</type>
			</note>
			<note>
				<pitch>
					<step>D</step>
					<octave>3</octave>
				</pitch>
				<duration>480</duration>
				<voice>1</voice>
				<type>quarter</type>
			</note>
		</measure>
		<measure number="17">
			<note>
				<pitch>
					<step>E</step>
					<octave>3</octave>
				</pitch>
				<duration>480</duration>
				<voice>1</voice>
				<type>quarter</type>
			</note>
			<note>
				<pitch>
					<step>F</step>
					<alter>1</alter>
					<octave>3</octave>
				</pitch>
				<duration>480</duration>
				<voice>1</voice>
				<type>quarter</type>
			</note>
		</measure>
		<measure number="18">
			<note>
				<pitch>
					<step>G</step>
					<octave>3</octave>
				</pitch>
				<duration>960</duration>
				<voice>1</voice>
				<type>half</type>
			</note>
			<barline>
				<bar-style>light-heavy</bar-style>
			</barline>
		</measure>
		<measure number="19">
			<print new-system="yes">
				<system-layout>
					<system-margins>
						<left-margin>84</left-margin>
						<right-margin>0</right-margin>
					</system-margins>
					<system-distance>220</system-distance>
				</system-layout>
			</print>
			<attributes>
				<divisions>480</divisions>
				<time>
					<beats>2</beats>
					<beat-type>4</beat-type>
				</time>
				<staff-details number="1" print-object="no"/>
			</attributes>
			<note>
				<rest/>
				<duration>960</duration>
			</note>
		</measure>
		<measure number="20">
			<note>
				<rest/>
				<duration>960</duration>
			</note>
		</measure>
		<measure number="21">
			<note>
				<rest/>
				<duration>960</duration>
			</note>
		</measure>
		<measure number="22">
			<note>
				<rest/>
				<duration>960</duration>
			</note>
		</measure>
		<measure number="23">
			<note>
				<rest/>
				<duration>960</duration>
			</note>
		</measure>
		<measure number="24">
			<note>
				<rest/>
				<duration>960</duration>
			</note>
		</measure>
		<measure number="25">
			<note>
				<rest/>
				<duration>960</duration>
			</note>
		</measure>
		<measure number="26">
			<note>
				<rest/>
				<duration>960</duration>
			</note>
		</measure>
		<measure number="27">
			<note>
				<rest/>
				<duration>480</duration>
			</note>
		</measure>
		<measure number="28">
			<print new-system="yes">
				<system-layout>
					<system-margins>
						<left-margin>84</left-margin>
						<right-margin>0</right-margin>
					</system-margins>
					<system-distance>100</system-distance>
				</system-layout>
			</print>
			<attributes>
				<divisions>480</divisions>
				<time>
					<beats>2</beats>
					<beat-type>4</beat-type>
				</time>
				<staff-details number="1" print-object="no"/>
			</attributes>
			<note>
				<rest/>
				<duration>480</duration>
			</note>
			<barline>
				<bar-style>regular</bar-style>
			</barline>
		</measure>
		<measure number="29">
			<note>
				<rest/>
				<duration>960</duration>
			</note>
		</measure>
		<measure number="30">
			<note>
				<rest/>
				<duration>960</duration>
			</note>
		</measure>
		<measure number="31">
			<note>
				<rest/>
				<duration>960</duration>
			</note>
		</measure>
		<measure number="32">
			<note>
				<rest/>
				<duration>960</duration>
			</note>
		</measure>
		<measure number="33">
			<note>
				<rest/>
				<duration>960</duration>
			</note>
		</measure>
		<measure number="34">
			<note>
				<rest/>
				<duration>960</duration>
			</note>
		</measure>
		<measure number="35">
			<note>
				<rest/>
				<duration>960</duration>
			</note>
		</measure>
		<measure number="36">
			<note>
				<rest/>
				<duration>960</duration>
			</note>
		</measure>
		<measure number="37">
			<print new-system="yes">
				<system-layout>
					<system-margins>
						<left-margin>84</left-margin>
						<right-margin>0</right-margin>
					</system-margins>
					<system-distance>300</system-distance>
				</system-layout>
			</print>
			<direction>
				<direction-type>
					<other-direction/>
				</direction-type>
				<sound tempo="88"/>
			</direction>
			<attributes>
				<divisions>480</divisions>
				<time>
					<beats>2</beats>
					<beat-type>4</beat-type>
				</time>
				<staff-details number="1" print-object="no"/>
			</attributes>
			<note>
				<rest/>
				<duration>960</duration>
			</note>
		</measure>
		<measure number="38">
			<note>
				<rest/>
				<duration>960</duration>
			</note>
		</measure>
		<measure number="39">
			<note>
				<rest/>
				<duration>960</duration>
			</note>
		</measure>
		<measure number="40">
			<note>
				<rest/>
				<duration>960</duration>
			</note>
		</measure>
		<measure number="41">
			<note>
				<rest/>
				<duration>960</duration>
			</note>
		</measure>
		<measure number="42">
			<note>
				<rest/>
				<duration>960</duration>
			</note>
		</measure>
		<measure number="43">
			<note>
				<rest/>
				<duration>480</duration>
			</note>
		</measure>
		<measure number="44">
			<print new-system="yes">
				<system-layout>
					<system-margins>
						<left-margin>84</left-margin>
						<right-margin>0</right-margin>
					</system-margins>
					<system-distance>100</system-distance>
				</system-layout>
			</print>
			<attributes>
				<divisions>480</divisions>
				<time>
					<beats>2</beats>
					<beat-type>4</beat-type>
				</time>
				<staff-details number="1" print-object="no"/>
			</attributes>
			<note>
				<rest/>
				<duration>480</duration>
			</note>
			<barline>
				<bar-style>regular</bar-style>
			</barline>
		</measure>
		<measure number="45">
			<note>
				<rest/>
				<duration>960</duration>
			</note>
		</measure>
		<measure number="46">
			<note>
				<rest/>
				<duration>960</duration>
			</note>
		</measure>
		<measure number="47">
			<note>
				<rest/>
				<duration>960</duration>
			</note>
		</measure>
		<measure number="48">
			<note>
				<rest/>
				<duration>960</duration>
			</note>
		</measure>
		<measure number="49">
			<note>
				<rest/>
				<duration>960</duration>
			</note>
		</measure>
		<measure number="50">
			<note>
				<rest/>
				<duration>960</duration>
			</note>
		</measure>
		<measure number="51">
			<print new-system="yes">
				<system-layout>
					<system-margins>
						<left-margin>84</left-margin>
						<right-margin>0</right-margin>
					</system-margins>
					<system-distance>300</system-distance>
				</system-layout>
			</print>
			<direction>
				<direction-type>
					<other-direction/>
				</direction-type>
				<sound tempo="83"/>
			</direction>
			<attributes>
				<divisions>480</divisions>
				<time>
					<beats>2</beats>
					<beat-type>4</beat-type>
				</time>
				<staff-details number="1" print-object="no"/>
			</attributes>
			<note>
				<rest/>
				<duration>960</duration>
			</note>
		</measure>
		<measure number="52">
			<note>
				<rest/>
				<duration>960</duration>
			</note>
		</measure>
		<measure number="53">
			<note>
				<rest/>
				<duration>960</duration>
			</note>
		</measure>
		<measure number="54">
			<note>
				<rest/>
				<duration>960</duration>
			</note>
		</measure>
		<measure number="55">
			<note>
				<rest/>
				<duration>960</duration>
			</note>
		</measure>
		<measure number="56">
			<note>
				<rest/>
				<duration>960</duration>
			</note>
		</measure>
		<measure number="57">
			<note>
				<rest/>
				<duration>480</duration>
			</note>
		</measure>
		<measure number="58">
			<print new-system="yes">
				<system-layout>
					<system-margins>
						<left-margin>84</left-margin>
						<right-margin>0</right-margin>
					</system-margins>
					<system-distance>100</system-distance>
				</system-layout>
			</print>
			<attributes>
				<divisions>480</divisions>
				<time>
					<beats>2</beats>
					<beat-type>4</beat-type>
				</time>
				<staff-details number="1" print-object="no"/>
			</attributes>
			<note>
				<rest/>
				<duration>480</duration>
			</note>
			<barline>
				<bar-style>regular</bar-style>
			</barline>
		</measure>
		<measure number="59">
			<note>
				<rest/>
				<duration>960</duration>
			</note>
		</measure>
		<measure number="60">
			<note>
				<rest/>
				<duration>960</duration>
			</note>
		</measure>
		<measure number="61">
			<note>
				<rest/>
				<duration>960</duration>
			</note>
		</measure>
		<measure number="62">
			<note>
				<rest/>
				<duration>960</duration>
			</note>
		</measure>
	</part>
	<part id="P3">
		<measure number="0">
			<direction>
				<direction-type>
					<other-direction/>
				</direction-type>
				<sound tempo="55"/>
			</direction>
			<attributes>
				<divisions>480</divisions>
				<time>
					<beats>4</beats>
					<beat-type>2</beat-type>
				</time>
				<staff-details number="1" print-object="no"/>
			</attributes>
			<note>
				<rest/>
				<duration>3840</duration>
			</note>
		</measure>
		<measure number="1">
			<print new-system="yes">
				<system-layout>
					<system-margins>
						<left-margin>84</left-margin>
						<right-margin>0</right-margin>
					</system-margins>
					<system-distance>350</system-distance>
				</system-layout>
			</print>
			<direction>
				<direction-type>
					<other-direction/>
				</direction-type>
				<sound tempo="80"/>
			</direction>
			<attributes>
				<divisions>480</divisions>
				<time>
					<beats>2</beats>
					<beat-type>4</beat-type>
				</time>
				<staff-details number="1" print-object="no"/>
			</attributes>
			<note>
				<rest/>
				<duration>960</duration>
			</note>
		</measure>
		<measure number="2">
			<note>
				<rest/>
				<duration>960</duration>
			</note>
		</measure>
		<measure number="3">
			<note>
				<rest/>
				<duration>960</duration>
			</note>
		</measure>
		<measure number="4">
			<note>
				<rest/>
				<duration>960</duration>
			</note>
		</measure>
		<measure number="5">
			<note>
				<rest/>
				<duration>960</duration>
			</note>
		</measure>
		<measure number="6">
			<note>
				<rest/>
				<duration>960</duration>
			</note>
		</measure>
		<measure number="7">
			<note>
				<rest/>
				<duration>960</duration>
			</note>
		</measure>
		<measure number="8">
			<note>
				<rest/>
				<duration>960</duration>
			</note>
		</measure>
		<measure number="9">
			<note>
				<rest/>
				<duration>480</duration>
			</note>
		</measure>
		<measure number="10">
			<print new-system="yes">
				<system-layout>
					<system-margins>
						<left-margin>84</left-margin>
						<right-margin>0</right-margin>
					</system-margins>
					<system-distance>100</system-distance>
				</system-layout>
			</print>
			<attributes>
				<divisions>480</divisions>
				<time>
					<beats>2</beats>
					<beat-type>4</beat-type>
				</time>
				<staff-details number="1" print-object="no"/>
			</attributes>
			<note>
				<rest/>
				<duration>480</duration>
			</note>
			<barline>
				<bar-style>regular</bar-style>
			</barline>
		</measure>
		<measure number="11">
			<note>
				<rest/>
				<duration>960</duration>
			</note>
		</measure>
		<measure number="12">
			<note>
				<rest/>
				<duration>960</duration>
			</note>
		</measure>
		<measure number="13">
			<note>
				<rest/>
				<duration>960</duration>
			</note>
		</measure>
		<measure number="14">
			<note>
				<rest/>
				<duration>960</duration>
			</note>
		</measure>
		<measure number="15">
			<note>
				<rest/>
				<duration>960</duration>
			</note>
		</measure>
		<measure number="16">
			<note>
				<rest/>
				<duration>960</duration>
			</note>
		</measure>
		<measure number="17">
			<note>
				<rest/>
				<duration>960</duration>
			</note>
		</measure>
		<measure number="18">
			<note>
				<rest/>
				<duration>960</duration>
			</note>
		</measure>
		<measure number="19">
			<print new-system="yes">
				<system-layout>
					<system-margins>
						<left-margin>84</left-margin>
						<right-margin>0</right-margin>
					</system-margins>
					<system-distance>220</system-distance>
				</system-layout>
				<staff-layout number="1">
					<staff-distance>140</staff-distance>
				</staff-layout>
			</print>
			<print>
				<system-layout>
					<system-margins>
						<left-margin>84</left-margin>
						<right-margin>0</right-margin>
					</system-margins>
					<top-system-distance>180</top-system-distance>
				</system-layout>
				<staff-layout number="1">
					<staff-distance>140</staff-distance>
				</staff-layout>
			</print>
			<attributes>
				<divisions>480</divisions>
				<key>
					<fifths>1</fifths>
					<mode>major</mode>
				</key>
				<time>
					<beats>2</beats>
					<beat-type>4</beat-type>
				</time>
				<clef>
					<sign>F</sign>
					<line>4</line>
				</clef>
				<staff-details number="1" print-object="yes"/>
			</attributes>
			<note>
				<rest/>
				<duration>480</duration>
				<voice>1</voice>
				<type>quarter</type>
			</note>
			<direction placement="above">
				<direction-type>
					<words relative-x="-152" default-y="55" font-family="Arial" font-size="14" font-weight="bold">2. all' roverscio</words>
				</direction-type>
			</direction>
			<note>
				<pitch>
					<step>D</step>
					<octave>3</octave>
				</pitch>
				<duration>480</duration>
				<voice>1</voice>
				<type>quarter</type>
			</note>
		</measure>
		<measure number="20">
			<note>
				<pitch>
					<step>E</step>
					<octave>3</octave>
				</pitch>
				<duration>480</duration>
				<voice>1</voice>
				<type>quarter</type>
			</note>
			<note>
				<pitch>
					<step>F</step>
					<alter>1</alter>
					<octave>3</octave>
				</pitch>
				<duration>480</duration>
				<voice>1</voice>
				<type>quarter</type>
			</note>
		</measure>
		<measure number="21">
			<note>
				<pitch>
					<step>G</step>
					<octave>3</octave>
				</pitch>
				<duration>480</duration>
				<voice>1</voice>
				<type>quarter</type>
			</note>
			<note>
				<pitch>
					<step>B</step>
					<octave>3</octave>
				</pitch>
				<duration>480</duration>
				<voice>1</voice>
				<type>quarter</type>
			</note>
		</measure>
		<measure number="22">
			<note>
				<pitch>
					<step>A</step>
					<octave>3</octave>
				</pitch>
				<duration>480</duration>
				<voice>1</voice>
				<type>quarter</type>
			</note>
			<note>
				<pitch>
					<step>G</step>
					<octave>3</octave>
				</pitch>
				<duration>480</duration>
				<voice>1</voice>
				<type>quarter</type>
			</note>
		</measure>
		<measure number="23">
			<note>
				<pitch>
					<step>D</step>
					<octave>4</octave>
				</pitch>
				<duration>480</duration>
				<voice>1</voice>
				<type>quarter</type>
			</note>
			<note>
				<rest/>
				<duration>480</duration>
				<voice>1</voice>
				<type>quarter</type>
			</note>
		</measure>
		<measure number="24">
			<note>
				<rest/>
				<duration>960</duration>
				<voice>1</voice>
				<type>half</type>
			</note>
		</measure>
		<measure number="25">
			<note>
				<rest/>
				<duration>960</duration>
				<voice>1</voice>
				<type>half</type>
			</note>
		</measure>
		<measure number="26">
			<note>
				<rest/>
				<duration>960</duration>
				<voice>1</voice>
				<type>half</type>
			</note>
		</measure>
		<measure number="27">
			<direction placement="above">
				<direction-type>
					<words relative-x="-436" default-y="77" font-family="Times New Roman" font-size="12">Beide Stimmen werden horizontal gespiegelt: 
Ein Krebskanon zum Spiegel des Themas.</words>
				</direction-type>
			</direction>
			<note>
				<rest/>
				<duration>480</duration>
				<voice>1</voice>
				<type>quarter</type>
			</note>
		</measure>
		<measure number="28">
			<print new-system="yes">
				<system-layout>
					<system-margins>
						<left-margin>84</left-margin>
						<right-margin>0</right-margin>
					</system-margins>
					<system-distance>100</system-distance>
				</system-layout>
				<staff-layout number="1">
					<staff-distance>20</staff-distance>
				</staff-layout>
			</print>
			<note>
				<pitch>
					<step>D</step>
					<octave>3</octave>
				</pitch>
				<duration>480</duration>
				<voice>1</voice>
				<type>quarter</type>
			</note>
			<barline>
				<bar-style>regular</bar-style>
			</barline>
		</measure>
		<measure number="29">
			<note>
				<pitch>
					<step>E</step>
					<octave>3</octave>
				</pitch>
				<duration>480</duration>
				<voice>1</voice>
				<type>quarter</type>
			</note>
			<note>
				<pitch>
					<step>F</step>
					<alter>1</alter>
					<octave>3</octave>
				</pitch>
				<duration>480</duration>
				<voice>1</voice>
				<type>quarter</type>
			</note>
		</measure>
		<measure number="30">
			<note>
				<pitch>
					<step>G</step>
					<octave>3</octave>
				</pitch>
				<duration>480</duration>
				<voice>1</voice>
				<type>quarter</type>
			</note>
			<note>
				<pitch>
					<step>B</step>
					<octave>3</octave>
				</pitch>
				<duration>480</duration>
				<voice>1</voice>
				<type>quarter</type>
			</note>
		</measure>
		<measure number="31">
			<note>
				<pitch>
					<step>A</step>
					<octave>3</octave>
				</pitch>
				<duration>480</duration>
				<voice>1</voice>
				<type>quarter</type>
			</note>
			<note>
				<pitch>
					<step>G</step>
					<octave>3</octave>
				</pitch>
				<duration>480</duration>
				<voice>1</voice>
				<type>quarter</type>
			</note>
		</measure>
		<measure number="32">
			<note>
				<pitch>
					<step>D</step>
					<octave>4</octave>
				</pitch>
				<duration>480</duration>
				<voice>1</voice>
				<type>quarter</type>
			</note>
			<note>
				<pitch>
					<step>D</step>
					<octave>3</octave>
				</pitch>
				<duration>480</duration>
				<voice>1</voice>
				<type>quarter</type>
			</note>
		</measure>
		<measure number="33">
			<note>
				<pitch>
					<step>E</step>
					<octave>3</octave>
				</pitch>
				<duration>480</duration>
				<voice>1</voice>
				<type>quarter</type>
			</note>
			<note>
				<pitch>
					<step>F</step>
					<alter>1</alter>
					<octave>3</octave>
				</pitch>
				<duration>480</duration>
				<voice>1</voice>
				<type>quarter</type>
			</note>
		</measure>
		<measure number="34">
			<note>
				<pitch>
					<step>G</step>
					<octave>3</octave>
				</pitch>
				<duration>480</duration>
				<voice>1</voice>
				<type>quarter</type>
			</note>
			<note>
				<pitch>
					<step>B</step>
					<octave>3</octave>
				</pitch>
				<duration>480</duration>
				<voice>1</voice>
				<type>quarter</type>
			</note>
		</measure>
		<measure number="35">
			<note>
				<pitch>
					<step>A</step>
					<octave>3</octave>
				</pitch>
				<duration>480</duration>
				<voice>1</voice>
				<type>quarter</type>
			</note>
			<note>
				<pitch>
					<step>G</step>
					<octave>3</octave>
				</pitch>
				<duration>480</duration>
				<voice>1</voice>
				<type>quarter</type>
			</note>
		</measure>
		<measure number="36">
			<note>
				<pitch>
					<step>D</step>
					<octave>4</octave>
				</pitch>
				<duration>960</duration>
				<voice>1</voice>
				<type>half</type>
			</note>
			<barline>
				<bar-style>light-heavy</bar-style>
			</barline>
		</measure>
		<measure number="37">
			<print new-system="yes">
				<system-layout>
					<system-margins>
						<left-margin>84</left-margin>
						<right-margin>0</right-margin>
					</system-margins>
					<system-distance>300</system-distance>
				</system-layout>
				<staff-layout number="1">
					<staff-distance>220</staff-distance>
				</staff-layout>
			</print>
			<direction>
				<direction-type>
					<other-direction/>
				</direction-type>
				<sound tempo="88"/>
			</direction>
			<attributes>
				<clef>
					<sign>G</sign>
					<line>2</line>
				</clef>
			</attributes>
			<direction placement="above">
				<direction-type>
					<words relative-x="-90" default-y="101" font-family="Arial" font-size="14" font-weight="bold">3. Beede vorige Canones zugleich,
    motu recto e contrario</words>
				</direction-type>
			</direction>
			<note>
				<rest/>
				<duration>960</duration>
				<voice>1</voice>
				<type>half</type>
			</note>
		</measure>
		<measure number="38">
			<note>
				<rest/>
				<duration>960</duration>
				<voice>1</voice>
				<type>half</type>
			</note>
		</measure>
		<measure number="39">
			<note>
				<rest/>
				<duration>480</duration>
				<voice>1</voice>
				<type>quarter</type>
			</note>
			<note>
				<pitch>
					<step>D</step>
					<octave>4</octave>
				</pitch>
				<duration>480</duration>
				<voice>1</voice>
				<type>quarter</type>
			</note>
		</measure>
		<measure number="40">
			<note>
				<pitch>
					<step>E</step>
					<octave>4</octave>
				</pitch>
				<duration>480</duration>
				<voice>1</voice>
				<type>quarter</type>
			</note>
			<note>
				<pitch>
					<step>F</step>
					<alter>1</alter>
					<octave>4</octave>
				</pitch>
				<duration>480</duration>
				<voice>1</voice>
				<type>quarter</type>
			</note>
		</measure>
		<measure number="41">
			<note>
				<pitch>
					<step>G</step>
					<octave>4</octave>
				</pitch>
				<duration>480</duration>
				<voice>1</voice>
				<type>quarter</type>
			</note>
			<note>
				<pitch>
					<step>B</step>
					<octave>4</octave>
				</pitch>
				<duration>480</duration>
				<voice>1</voice>
				<type>quarter</type>
			</note>
		</measure>
		<measure number="42">
			<note>
				<pitch>
					<step>A</step>
					<octave>4</octave>
				</pitch>
				<duration>480</duration>
				<voice>1</voice>
				<type>quarter</type>
			</note>
			<note>
				<pitch>
					<step>G</step>
					<octave>4</octave>
				</pitch>
				<duration>480</duration>
				<voice>1</voice>
				<type>quarter</type>
			</note>
		</measure>
		<measure number="43">
			<direction placement="above">
				<direction-type>
					<words relative-x="-236" default-y="95" font-family="Times New Roman" font-size="12">Das Thema wird mit seinem 
Spiegel zum Kanon.</words>
				</direction-type>
			</direction>
			<note>
				<pitch>
					<step>D</step>
					<octave>5</octave>
				</pitch>
				<duration>480</duration>
				<voice>1</voice>
				<type>quarter</type>
			</note>
		</measure>
		<measure number="44">
			<print new-system="yes">
				<system-layout>
					<system-margins>
						<left-margin>84</left-margin>
						<right-margin>0</right-margin>
					</system-margins>
					<system-distance>100</system-distance>
				</system-layout>
				<staff-layout number="1">
					<staff-distance>20</staff-distance>
				</staff-layout>
			</print>
			<note>
				<pitch>
					<step>D</step>
					<octave>4</octave>
				</pitch>
				<duration>480</duration>
				<voice>1</voice>
				<type>quarter</type>
			</note>
			<barline>
				<bar-style>regular</bar-style>
			</barline>
		</measure>
		<measure number="45">
			<note>
				<pitch>
					<step>E</step>
					<octave>4</octave>
				</pitch>
				<duration>480</duration>
				<voice>1</voice>
				<type>quarter</type>
			</note>
			<note>
				<pitch>
					<step>F</step>
					<alter>1</alter>
					<octave>4</octave>
				</pitch>
				<duration>480</duration>
				<voice>1</voice>
				<type>quarter</type>
			</note>
		</measure>
		<measure number="46">
			<note>
				<pitch>
					<step>G</step>
					<octave>4</octave>
				</pitch>
				<duration>480</duration>
				<voice>1</voice>
				<type>quarter</type>
			</note>
			<note>
				<pitch>
					<step>B</step>
					<octave>4</octave>
				</pitch>
				<duration>480</duration>
				<voice>1</voice>
				<type>quarter</type>
			</note>
		</measure>
		<measure number="47">
			<note>
				<pitch>
					<step>A</step>
					<octave>4</octave>
				</pitch>
				<duration>480</duration>
				<voice>1</voice>
				<type>quarter</type>
			</note>
			<note>
				<pitch>
					<step>G</step>
					<octave>4</octave>
				</pitch>
				<duration>480</duration>
				<voice>1</voice>
				<type>quarter</type>
			</note>
		</measure>
		<measure number="48">
			<note>
				<pitch>
					<step>D</step>
					<octave>5</octave>
				</pitch>
				<duration>480</duration>
				<voice>1</voice>
				<type>quarter</type>
			</note>
			<note>
				<pitch>
					<step>D</step>
					<octave>4</octave>
				</pitch>
				<duration>480</duration>
				<voice>1</voice>
				<type>quarter</type>
			</note>
		</measure>
		<measure number="49">
			<note>
				<pitch>
					<step>E</step>
					<octave>4</octave>
				</pitch>
				<duration>480</duration>
				<voice>1</voice>
				<type>quarter</type>
			</note>
			<note>
				<pitch>
					<step>F</step>
					<alter>1</alter>
					<octave>4</octave>
				</pitch>
				<duration>480</duration>
				<voice>1</voice>
				<type>quarter</type>
			</note>
		</measure>
		<measure number="50">
			<note>
				<pitch>
					<step>G</step>
					<octave>4</octave>
				</pitch>
				<duration>960</duration>
				<voice>1</voice>
				<type>half</type>
			</note>
			<barline>
				<bar-style>light-heavy</bar-style>
			</barline>
		</measure>
		<measure number="51">
			<print new-system="yes">
				<system-layout>
					<system-margins>
						<left-margin>84</left-margin>
						<right-margin>0</right-margin>
					</system-margins>
					<system-distance>300</system-distance>
				</system-layout>
				<staff-layout number="1">
					<staff-distance>90</staff-distance>
				</staff-layout>
			</print>
			<direction>
				<direction-type>
					<other-direction/>
				</direction-type>
				<sound tempo="83"/>
			</direction>
			<attributes>
				<clef>
					<sign>F</sign>
					<line>4</line>
				</clef>
			</attributes>
			<note>
				<rest/>
				<duration>480</duration>
				<voice>1</voice>
				<type>quarter</type>
			</note>
			<note>
				<pitch>
					<step>D</step>
					<octave>3</octave>
				</pitch>
				<duration>480</duration>
				<voice>1</voice>
				<type>quarter</type>
			</note>
		</measure>
		<measure number="52">
			<note>
				<pitch>
					<step>E</step>
					<octave>3</octave>
				</pitch>
				<duration>480</duration>
				<voice>1</voice>
				<type>quarter</type>
			</note>
			<note>
				<pitch>
					<step>F</step>
					<alter>1</alter>
					<octave>3</octave>
				</pitch>
				<duration>480</duration>
				<voice>1</voice>
				<type>quarter</type>
			</note>
		</measure>
		<measure number="53">
			<note>
				<pitch>
					<step>G</step>
					<octave>3</octave>
				</pitch>
				<duration>480</duration>
				<voice>1</voice>
				<type>quarter</type>
			</note>
			<note>
				<pitch>
					<step>B</step>
					<octave>3</octave>
				</pitch>
				<duration>480</duration>
				<voice>1</voice>
				<type>quarter</type>
			</note>
		</measure>
		<measure number="54">
			<note>
				<pitch>
					<step>A</step>
					<octave>3</octave>
				</pitch>
				<duration>480</duration>
				<voice>1</voice>
				<type>quarter</type>
			</note>
			<note>
				<pitch>
					<step>G</step>
					<octave>3</octave>
				</pitch>
				<duration>480</duration>
				<voice>1</voice>
				<type>quarter</type>
			</note>
		</measure>
		<measure number="55">
			<note>
				<pitch>
					<step>D</step>
					<octave>4</octave>
				</pitch>
				<duration>480</duration>
				<voice>1</voice>
				<type>quarter</type>
			</note>
			<note>
				<pitch>
					<step>D</step>
					<octave>3</octave>
				</pitch>
				<duration>480</duration>
				<voice>1</voice>
				<type>quarter</type>
			</note>
		</measure>
		<measure number="56">
			<note>
				<pitch>
					<step>E</step>
					<octave>3</octave>
				</pitch>
				<duration>480</duration>
				<voice>1</voice>
				<type>quarter</type>
			</note>
			<note>
				<pitch>
					<step>F</step>
					<alter>1</alter>
					<octave>3</octave>
				</pitch>
				<duration>480</duration>
				<voice>1</voice>
				<type>quarter</type>
			</note>
		</measure>
		<measure number="57">
			<note>
				<pitch>
					<step>G</step>
					<octave>3</octave>
				</pitch>
				<duration>480</duration>
				<voice>1</voice>
				<type>quarter</type>
			</note>
		</measure>
		<measure number="58">
			<print new-system="yes">
				<system-layout>
					<system-margins>
						<left-margin>84</left-margin>
						<right-margin>0</right-margin>
					</system-margins>
					<system-distance>100</system-distance>
				</system-layout>
				<staff-layout number="1">
					<staff-distance>90</staff-distance>
				</staff-layout>
			</print>
			<note>
				<pitch>
					<step>B</step>
					<octave>3</octave>
				</pitch>
				<duration>480</duration>
				<voice>1</voice>
				<type>quarter</type>
			</note>
			<barline>
				<bar-style>regular</bar-style>
			</barline>
		</measure>
		<measure number="59">
			<note>
				<pitch>
					<step>A</step>
					<octave>3</octave>
				</pitch>
				<duration>480</duration>
				<voice>1</voice>
				<type>quarter</type>
			</note>
			<note>
				<pitch>
					<step>G</step>
					<octave>3</octave>
				</pitch>
				<duration>480</duration>
				<voice>1</voice>
				<type>quarter</type>
			</note>
		</measure>
		<measure number="60">
			<note>
				<pitch>
					<step>D</step>
					<octave>4</octave>
				</pitch>
				<duration>480</duration>
				<voice>1</voice>
				<type>quarter</type>
			</note>
			<note>
				<pitch>
					<step>D</step>
					<octave>3</octave>
				</pitch>
				<duration>480</duration>
				<voice>1</voice>
				<type>quarter</type>
			</note>
		</measure>
		<measure number="61">
			<note>
				<pitch>
					<step>E</step>
					<octave>3</octave>
				</pitch>
				<duration>480</duration>
				<voice>1</voice>
				<type>quarter</type>
			</note>
			<note>
				<pitch>
					<step>F</step>
					<alter>1</alter>
					<octave>3</octave>
				</pitch>
				<duration>480</duration>
				<voice>1</voice>
				<type>quarter</type>
			</note>
		</measure>
		<measure number="62">
			<note>
				<pitch>
					<step>G</step>
					<octave>3</octave>
				</pitch>
				<duration>960</duration>
				<voice>1</voice>
				<type>half</type>
			</note>
			<barline>
				<bar-style>light-heavy</bar-style>
			</barline>
		</measure>
	</part>
	<part id="P4">
		<measure number="0">
			<direction>
				<direction-type>
					<other-direction/>
				</direction-type>
				<sound tempo="55"/>
			</direction>
			<attributes>
				<divisions>480</divisions>
				<time>
					<beats>4</beats>
					<beat-type>2</beat-type>
				</time>
				<staff-details number="1" print-object="no"/>
			</attributes>
			<note>
				<rest/>
				<duration>3840</duration>
			</note>
		</measure>
		<measure number="1">
			<print new-system="yes">
				<system-layout>
					<system-margins>
						<left-margin>84</left-margin>
						<right-margin>0</right-margin>
					</system-margins>
					<system-distance>350</system-distance>
				</system-layout>
			</print>
			<direction>
				<direction-type>
					<other-direction/>
				</direction-type>
				<sound tempo="80"/>
			</direction>
			<attributes>
				<divisions>480</divisions>
				<time>
					<beats>2</beats>
					<beat-type>4</beat-type>
				</time>
				<staff-details number="1" print-object="no"/>
			</attributes>
			<note>
				<rest/>
				<duration>960</duration>
			</note>
		</measure>
		<measure number="2">
			<note>
				<rest/>
				<duration>960</duration>
			</note>
		</measure>
		<measure number="3">
			<note>
				<rest/>
				<duration>960</duration>
			</note>
		</measure>
		<measure number="4">
			<note>
				<rest/>
				<duration>960</duration>
			</note>
		</measure>
		<measure number="5">
			<note>
				<rest/>
				<duration>960</duration>
			</note>
		</measure>
		<measure number="6">
			<note>
				<rest/>
				<duration>960</duration>
			</note>
		</measure>
		<measure number="7">
			<note>
				<rest/>
				<duration>960</duration>
			</note>
		</measure>
		<measure number="8">
			<note>
				<rest/>
				<duration>960</duration>
			</note>
		</measure>
		<measure number="9">
			<note>
				<rest/>
				<duration>480</duration>
			</note>
		</measure>
		<measure number="10">
			<print new-system="yes">
				<system-layout>
					<system-margins>
						<left-margin>84</left-margin>
						<right-margin>0</right-margin>
					</system-margins>
					<system-distance>100</system-distance>
				</system-layout>
			</print>
			<attributes>
				<divisions>480</divisions>
				<time>
					<beats>2</beats>
					<beat-type>4</beat-type>
				</time>
				<staff-details number="1" print-object="no"/>
			</attributes>
			<note>
				<rest/>
				<duration>480</duration>
			</note>
			<barline>
				<bar-style>regular</bar-style>
			</barline>
		</measure>
		<measure number="11">
			<note>
				<rest/>
				<duration>960</duration>
			</note>
		</measure>
		<measure number="12">
			<note>
				<rest/>
				<duration>960</duration>
			</note>
		</measure>
		<measure number="13">
			<note>
				<rest/>
				<duration>960</duration>
			</note>
		</measure>
		<measure number="14">
			<note>
				<rest/>
				<duration>960</duration>
			</note>
		</measure>
		<measure number="15">
			<note>
				<rest/>
				<duration>960</duration>
			</note>
		</measure>
		<measure number="16">
			<note>
				<rest/>
				<duration>960</duration>
			</note>
		</measure>
		<measure number="17">
			<note>
				<rest/>
				<duration>960</duration>
			</note>
		</measure>
		<measure number="18">
			<note>
				<rest/>
				<duration>960</duration>
			</note>
		</measure>
		<measure number="19">
			<print new-system="yes">
				<system-layout>
					<system-margins>
						<left-margin>84</left-margin>
						<right-margin>0</right-margin>
					</system-margins>
					<system-distance>220</system-distance>
				</system-layout>
				<staff-layout number="1">
					<staff-distance>40</staff-distance>
				</staff-layout>
			</print>
			<print>
				<system-layout>
					<system-margins>
						<left-margin>84</left-margin>
						<right-margin>0</right-margin>
					</system-margins>
					<top-system-distance>180</top-system-distance>
				</system-layout>
				<staff-layout number="1">
					<staff-distance>40</staff-distance>
				</staff-layout>
			</print>
			<attributes>
				<divisions>480</divisions>
				<key>
					<fifths>1</fifths>
					<mode>major</mode>
				</key>
				<time>
					<beats>2</beats>
					<beat-type>4</beat-type>
				</time>
				<clef>
					<sign>F</sign>
					<line>4</line>
				</clef>
				<staff-details number="1" print-object="yes"/>
			</attributes>
			<note>
				<rest/>
				<duration>960</duration>
				<voice>1</voice>
				<type>half</type>
			</note>
		</measure>
		<measure number="20">
			<note>
				<rest/>
				<duration>960</duration>
				<voice>1</voice>
				<type>half</type>
			</note>
		</measure>
		<measure number="21">
			<note>
				<rest/>
				<duration>960</duration>
				<voice>1</voice>
				<type>half</type>
			</note>
		</measure>
		<measure number="22">
			<note>
				<rest/>
				<duration>960</duration>
				<voice>1</voice>
				<type>half</type>
			</note>
		</measure>
		<measure number="23">
			<note>
				<rest/>
				<duration>480</duration>
				<voice>1</voice>
				<type>quarter</type>
			</note>
			<note>
				<pitch>
					<step>D</step>
					<octave>4</octave>
				</pitch>
				<duration>480</duration>
				<voice>1</voice>
				<type>quarter</type>
			</note>
		</measure>
		<measure number="24">
			<note>
				<pitch>
					<step>G</step>
					<octave>3</octave>
				</pitch>
				<duration>480</duration>
				<voice>1</voice>
				<type>quarter</type>
			</note>
			<note>
				<pitch>
					<step>A</step>
					<octave>3</octave>
				</pitch>
				<duration>480</duration>
				<voice>1</voice>
				<type>quarter</type>
			</note>
		</measure>
		<measure number="25">
			<note>
				<pitch>
					<step>B</step>
					<octave>3</octave>
				</pitch>
				<duration>480</duration>
				<voice>1</voice>
				<type>quarter</type>
			</note>
			<note>
				<pitch>
					<step>G</step>
					<octave>3</octave>
				</pitch>
				<duration>480</duration>
				<voice>1</voice>
				<type>quarter</type>
			</note>
		</measure>
		<measure number="26">
			<note>
				<pitch>
					<step>F</step>
					<alter>1</alter>
					<octave>3</octave>
				</pitch>
				<duration>480</duration>
				<voice>1</voice>
				<type>quarter</type>
			</note>
			<note>
				<pitch>
					<step>E</step>
					<octave>3</octave>
				</pitch>
				<duration>480</duration>
				<voice>1</voice>
				<type>quarter</type>
			</note>
		</measure>
		<measure number="27">
			<note>
				<pitch>
					<step>D</step>
					<octave>3</octave>
				</pitch>
				<duration>480</duration>
				<voice>1</voice>
				<type>quarter</type>
			</note>
		</measure>
		<measure number="28">
			<print new-system="yes">
				<system-layout>
					<system-margins>
						<left-margin>84</left-margin>
						<right-margin>0</right-margin>
					</system-margins>
					<system-distance>100</system-distance>
				</system-layout>
				<staff-layout number="1">
					<staff-distance>40</staff-distance>
				</staff-layout>
			</print>
			<note>
				<pitch>
					<step>D</step>
					<octave>4</octave>
				</pitch>
				<duration>480</duration>
				<voice>1</voice>
				<type>quarter</type>
			</note>
			<barline>
				<bar-style>regular</bar-style>
			</barline>
		</measure>
		<measure number="29">
			<note>
				<pitch>
					<step>G</step>
					<octave>3</octave>
				</pitch>
				<duration>480</duration>
				<voice>1</voice>
				<type>quarter</type>
			</note>
			<note>
				<pitch>
					<step>A</step>
					<octave>3</octave>
				</pitch>
				<duration>480</duration>
				<voice>1</voice>
				<type>quarter</type>
			</note>
		</measure>
		<measure number="30">
			<note>
				<pitch>
					<step>B</step>
					<octave>3</octave>
				</pitch>
				<duration>480</duration>
				<voice>1</voice>
				<type>quarter</type>
			</note>
			<note>
				<pitch>
					<step>G</step>
					<octave>3</octave>
				</pitch>
				<duration>480</duration>
				<voice>1</voice>
				<type>quarter</type>
			</note>
		</measure>
		<measure number="31">
			<note>
				<pitch>
					<step>F</step>
					<alter>1</alter>
					<octave>3</octave>
				</pitch>
				<duration>480</duration>
				<voice>1</voice>
				<type>quarter</type>
			</note>
			<note>
				<pitch>
					<step>E</step>
					<octave>3</octave>
				</pitch>
				<duration>480</duration>
				<voice>1</voice>
				<type>quarter</type>
			</note>
		</measure>
		<measure number="32">
			<note>
				<pitch>
					<step>D</step>
					<octave>3</octave>
				</pitch>
				<duration>480</duration>
				<voice>1</voice>
				<type>quarter</type>
			</note>
			<note>
				<pitch>
					<step>D</step>
					<octave>4</octave>
				</pitch>
				<duration>480</duration>
				<voice>1</voice>
				<type>quarter</type>
			</note>
		</measure>
		<measure number="33">
			<note>
				<pitch>
					<step>G</step>
					<octave>3</octave>
				</pitch>
				<duration>480</duration>
				<voice>1</voice>
				<type>quarter</type>
			</note>
			<note>
				<pitch>
					<step>A</step>
					<octave>3</octave>
				</pitch>
				<duration>480</duration>
				<voice>1</voice>
				<type>quarter</type>
			</note>
		</measure>
		<measure number="34">
			<note>
				<pitch>
					<step>B</step>
					<octave>3</octave>
				</pitch>
				<duration>480</duration>
				<voice>1</voice>
				<type>quarter</type>
			</note>
			<note>
				<pitch>
					<step>G</step>
					<octave>3</octave>
				</pitch>
				<duration>480</duration>
				<voice>1</voice>
				<type>quarter</type>
			</note>
		</measure>
		<measure number="35">
			<note>
				<pitch>
					<step>F</step>
					<alter>1</alter>
					<octave>3</octave>
				</pitch>
				<duration>480</duration>
				<voice>1</voice>
				<type>quarter</type>
			</note>
			<note>
				<pitch>
					<step>E</step>
					<octave>3</octave>
				</pitch>
				<duration>480</duration>
				<voice>1</voice>
				<type>quarter</type>
			</note>
		</measure>
		<measure number="36">
			<note>
				<pitch>
					<step>D</step>
					<octave>3</octave>
				</pitch>
				<duration>960</duration>
				<voice>1</voice>
				<type>half</type>
			</note>
			<barline>
				<bar-style>light-heavy</bar-style>
			</barline>
		</measure>
		<measure number="37">
			<print new-system="yes">
				<system-layout>
					<system-margins>
						<left-margin>84</left-margin>
						<right-margin>0</right-margin>
					</system-margins>
					<system-distance>300</system-distance>
				</system-layout>
			</print>
			<direction>
				<direction-type>
					<other-direction/>
				</direction-type>
				<sound tempo="88"/>
			</direction>
			<attributes>
				<divisions>480</divisions>
				<time>
					<beats>2</beats>
					<beat-type>4</beat-type>
				</time>
				<staff-details number="1" print-object="no"/>
			</attributes>
			<note>
				<rest/>
				<duration>960</duration>
			</note>
		</measure>
		<measure number="38">
			<note>
				<rest/>
				<duration>960</duration>
			</note>
		</measure>
		<measure number="39">
			<note>
				<rest/>
				<duration>960</duration>
			</note>
		</measure>
		<measure number="40">
			<note>
				<rest/>
				<duration>960</duration>
			</note>
		</measure>
		<measure number="41">
			<note>
				<rest/>
				<duration>960</duration>
			</note>
		</measure>
		<measure number="42">
			<note>
				<rest/>
				<duration>960</duration>
			</note>
		</measure>
		<measure number="43">
			<note>
				<rest/>
				<duration>480</duration>
			</note>
		</measure>
		<measure number="44">
			<print new-system="yes">
				<system-layout>
					<system-margins>
						<left-margin>84</left-margin>
						<right-margin>0</right-margin>
					</system-margins>
					<system-distance>100</system-distance>
				</system-layout>
			</print>
			<attributes>
				<divisions>480</divisions>
				<time>
					<beats>2</beats>
					<beat-type>4</beat-type>
				</time>
				<staff-details number="1" print-object="no"/>
			</attributes>
			<note>
				<rest/>
				<duration>480</duration>
			</note>
			<barline>
				<bar-style>regular</bar-style>
			</barline>
		</measure>
		<measure number="45">
			<note>
				<rest/>
				<duration>960</duration>
			</note>
		</measure>
		<measure number="46">
			<note>
				<rest/>
				<duration>960</duration>
			</note>
		</measure>
		<measure number="47">
			<note>
				<rest/>
				<duration>960</duration>
			</note>
		</measure>
		<measure number="48">
			<note>
				<rest/>
				<duration>960</duration>
			</note>
		</measure>
		<measure number="49">
			<note>
				<rest/>
				<duration>960</duration>
			</note>
		</measure>
		<measure number="50">
			<note>
				<rest/>
				<duration>960</duration>
			</note>
		</measure>
		<measure number="51">
			<print new-system="yes">
				<system-layout>
					<system-margins>
						<left-margin>84</left-margin>
						<right-margin>0</right-margin>
					</system-margins>
					<system-distance>300</system-distance>
				</system-layout>
			</print>
			<direction>
				<direction-type>
					<other-direction/>
				</direction-type>
				<sound tempo="83"/>
			</direction>
			<attributes>
				<divisions>480</divisions>
				<time>
					<beats>2</beats>
					<beat-type>4</beat-type>
				</time>
				<staff-details number="1" print-object="no"/>
			</attributes>
			<note>
				<rest/>
				<duration>960</duration>
			</note>
		</measure>
		<measure number="52">
			<note>
				<rest/>
				<duration>960</duration>
			</note>
		</measure>
		<measure number="53">
			<note>
				<rest/>
				<duration>960</duration>
			</note>
		</measure>
		<measure number="54">
			<note>
				<rest/>
				<duration>960</duration>
			</note>
		</measure>
		<measure number="55">
			<note>
				<rest/>
				<duration>960</duration>
			</note>
		</measure>
		<measure number="56">
			<note>
				<rest/>
				<duration>960</duration>
			</note>
		</measure>
		<measure number="57">
			<note>
				<rest/>
				<duration>480</duration>
			</note>
		</measure>
		<measure number="58">
			<print new-system="yes">
				<system-layout>
					<system-margins>
						<left-margin>84</left-margin>
						<right-margin>0</right-margin>
					</system-margins>
					<system-distance>100</system-distance>
				</system-layout>
			</print>
			<attributes>
				<divisions>480</divisions>
				<time>
					<beats>2</beats>
					<beat-type>4</beat-type>
				</time>
				<staff-details number="1" print-object="no"/>
			</attributes>
			<note>
				<rest/>
				<duration>480</duration>
			</note>
			<barline>
				<bar-style>regular</bar-style>
			</barline>
		</measure>
		<measure number="59">
			<note>
				<rest/>
				<duration>960</duration>
			</note>
		</measure>
		<measure number="60">
			<note>
				<rest/>
				<duration>960</duration>
			</note>
		</measure>
		<measure number="61">
			<note>
				<rest/>
				<duration>960</duration>
			</note>
		</measure>
		<measure number="62">
			<note>
				<rest/>
				<duration>960</duration>
			</note>
		</measure>
	</part>
	<part id="P5">
		<measure number="0">
			<direction>
				<direction-type>
					<other-direction/>
				</direction-type>
				<sound tempo="55"/>
			</direction>
			<attributes>
				<divisions>480</divisions>
				<time>
					<beats>4</beats>
					<beat-type>2</beat-type>
				</time>
				<staff-details number="1" print-object="no"/>
			</attributes>
			<note>
				<rest/>
				<duration>3840</duration>
			</note>
		</measure>
		<measure number="1">
			<print new-system="yes">
				<system-layout>
					<system-margins>
						<left-margin>84</left-margin>
						<right-margin>0</right-margin>
					</system-margins>
					<system-distance>350</system-distance>
				</system-layout>
			</print>
			<direction>
				<direction-type>
					<other-direction/>
				</direction-type>
				<sound tempo="80"/>
			</direction>
			<attributes>
				<divisions>480</divisions>
				<time>
					<beats>2</beats>
					<beat-type>4</beat-type>
				</time>
				<staff-details number="1" print-object="no"/>
			</attributes>
			<note>
				<rest/>
				<duration>960</duration>
			</note>
		</measure>
		<measure number="2">
			<note>
				<rest/>
				<duration>960</duration>
			</note>
		</measure>
		<measure number="3">
			<note>
				<rest/>
				<duration>960</duration>
			</note>
		</measure>
		<measure number="4">
			<note>
				<rest/>
				<duration>960</duration>
			</note>
		</measure>
		<measure number="5">
			<note>
				<rest/>
				<duration>960</duration>
			</note>
		</measure>
		<measure number="6">
			<note>
				<rest/>
				<duration>960</duration>
			</note>
		</measure>
		<measure number="7">
			<note>
				<rest/>
				<duration>960</duration>
			</note>
		</measure>
		<measure number="8">
			<note>
				<rest/>
				<duration>960</duration>
			</note>
		</measure>
		<measure number="9">
			<note>
				<rest/>
				<duration>480</duration>
			</note>
		</measure>
		<measure number="10">
			<print new-system="yes">
				<system-layout>
					<system-margins>
						<left-margin>84</left-margin>
						<right-margin>0</right-margin>
					</system-margins>
					<system-distance>100</system-distance>
				</system-layout>
			</print>
			<attributes>
				<divisions>480</divisions>
				<time>
					<beats>2</beats>
					<beat-type>4</beat-type>
				</time>
				<staff-details number="1" print-object="no"/>
			</attributes>
			<note>
				<rest/>
				<duration>480</duration>
			</note>
			<barline>
				<bar-style>regular</bar-style>
			</barline>
		</measure>
		<measure number="11">
			<note>
				<rest/>
				<duration>960</duration>
			</note>
		</measure>
		<measure number="12">
			<note>
				<rest/>
				<duration>960</duration>
			</note>
		</measure>
		<measure number="13">
			<note>
				<rest/>
				<duration>960</duration>
			</note>
		</measure>
		<measure number="14">
			<note>
				<rest/>
				<duration>960</duration>
			</note>
		</measure>
		<measure number="15">
			<note>
				<rest/>
				<duration>960</duration>
			</note>
		</measure>
		<measure number="16">
			<note>
				<rest/>
				<duration>960</duration>
			</note>
		</measure>
		<measure number="17">
			<note>
				<rest/>
				<duration>960</duration>
			</note>
		</measure>
		<measure number="18">
			<note>
				<rest/>
				<duration>960</duration>
			</note>
		</measure>
		<measure number="19">
			<print new-system="yes">
				<system-layout>
					<system-margins>
						<left-margin>84</left-margin>
						<right-margin>0</right-margin>
					</system-margins>
					<system-distance>220</system-distance>
				</system-layout>
			</print>
			<attributes>
				<divisions>480</divisions>
				<time>
					<beats>2</beats>
					<beat-type>4</beat-type>
				</time>
				<staff-details number="1" print-object="no"/>
			</attributes>
			<note>
				<rest/>
				<duration>960</duration>
			</note>
		</measure>
		<measure number="20">
			<note>
				<rest/>
				<duration>960</duration>
			</note>
		</measure>
		<measure number="21">
			<note>
				<rest/>
				<duration>960</duration>
			</note>
		</measure>
		<measure number="22">
			<note>
				<rest/>
				<duration>960</duration>
			</note>
		</measure>
		<measure number="23">
			<note>
				<rest/>
				<duration>960</duration>
			</note>
		</measure>
		<measure number="24">
			<note>
				<rest/>
				<duration>960</duration>
			</note>
		</measure>
		<measure number="25">
			<note>
				<rest/>
				<duration>960</duration>
			</note>
		</measure>
		<measure number="26">
			<note>
				<rest/>
				<duration>960</duration>
			</note>
		</measure>
		<measure number="27">
			<note>
				<rest/>
				<duration>480</duration>
			</note>
		</measure>
		<measure number="28">
			<print new-system="yes">
				<system-layout>
					<system-margins>
						<left-margin>84</left-margin>
						<right-margin>0</right-margin>
					</system-margins>
					<system-distance>100</system-distance>
				</system-layout>
			</print>
			<attributes>
				<divisions>480</divisions>
				<time>
					<beats>2</beats>
					<beat-type>4</beat-type>
				</time>
				<staff-details number="1" print-object="no"/>
			</attributes>
			<note>
				<rest/>
				<duration>480</duration>
			</note>
			<barline>
				<bar-style>regular</bar-style>
			</barline>
		</measure>
		<measure number="29">
			<note>
				<rest/>
				<duration>960</duration>
			</note>
		</measure>
		<measure number="30">
			<note>
				<rest/>
				<duration>960</duration>
			</note>
		</measure>
		<measure number="31">
			<note>
				<rest/>
				<duration>960</duration>
			</note>
		</measure>
		<measure number="32">
			<note>
				<rest/>
				<duration>960</duration>
			</note>
		</measure>
		<measure number="33">
			<note>
				<rest/>
				<duration>960</duration>
			</note>
		</measure>
		<measure number="34">
			<note>
				<rest/>
				<duration>960</duration>
			</note>
		</measure>
		<measure number="35">
			<note>
				<rest/>
				<duration>960</duration>
			</note>
		</measure>
		<measure number="36">
			<note>
				<rest/>
				<duration>960</duration>
			</note>
		</measure>
		<measure number="37">
			<print new-system="yes">
				<system-layout>
					<system-margins>
						<left-margin>84</left-margin>
						<right-margin>0</right-margin>
					</system-margins>
					<system-distance>300</system-distance>
				</system-layout>
				<staff-layout number="1">
					<staff-distance>90</staff-distance>
				</staff-layout>
			</print>
			<direction>
				<direction-type>
					<other-direction/>
				</direction-type>
				<sound tempo="88"/>
			</direction>
			<print>
				<system-layout>
					<system-margins>
						<left-margin>84</left-margin>
						<right-margin>0</right-margin>
					</system-margins>
					<top-system-distance>260</top-system-distance>
				</system-layout>
				<staff-layout number="1">
					<staff-distance>90</staff-distance>
				</staff-layout>
			</print>
			<attributes>
				<divisions>480</divisions>
				<key>
					<fifths>1</fifths>
					<mode>major</mode>
				</key>
				<time>
					<beats>2</beats>
					<beat-type>4</beat-type>
				</time>
				<clef>
					<sign>F</sign>
					<line>4</line>
				</clef>
				<staff-details number="1" print-object="yes"/>
			</attributes>
			<note>
				<rest/>
				<duration>480</duration>
				<voice>1</voice>
				<type>quarter</type>
			</note>
			<note>
				<pitch>
					<step>G</step>
					<octave>3</octave>
				</pitch>
				<duration>480</duration>
				<voice>1</voice>
				<type>quarter</type>
			</note>
		</measure>
		<measure number="38">
			<note>
				<pitch>
					<step>F</step>
					<alter>1</alter>
					<octave>3</octave>
				</pitch>
				<duration>480</duration>
				<voice>1</voice>
				<type>quarter</type>
			</note>
			<note>
				<pitch>
					<step>E</step>
					<octave>3</octave>
				</pitch>
				<duration>480</duration>
				<voice>1</voice>
				<type>quarter</type>
			</note>
		</measure>
		<measure number="39">
			<note>
				<pitch>
					<step>D</step>
					<octave>3</octave>
				</pitch>
				<duration>480</duration>
				<voice>1</voice>
				<type>quarter</type>
			</note>
			<note>
				<pitch>
					<step>B</step>
					<octave>2</octave>
				</pitch>
				<duration>480</duration>
				<voice>1</voice>
				<type>quarter</type>
			</note>
		</measure>
		<measure number="40">
			<note>
				<pitch>
					<step>C</step>
					<octave>3</octave>
				</pitch>
				<duration>480</duration>
				<voice>1</voice>
				<type>quarter</type>
			</note>
			<note>
				<pitch>
					<step>D</step>
					<octave>3</octave>
				</pitch>
				<duration>480</duration>
				<voice>1</voice>
				<type>quarter</type>
			</note>
		</measure>
		<measure number="41">
			<note>
				<pitch>
					<step>G</step>
					<octave>2</octave>
				</pitch>
				<duration>480</duration>
				<voice>1</voice>
				<type>quarter</type>
			</note>
			<note>
				<pitch>
					<step>G</step>
					<octave>3</octave>
				</pitch>
				<duration>480</duration>
				<voice>1</voice>
				<type>quarter</type>
			</note>
		</measure>
		<measure number="42">
			<note>
				<pitch>
					<step>F</step>
					<alter>1</alter>
					<octave>3</octave>
				</pitch>
				<duration>480</duration>
				<voice>1</voice>
				<type>quarter</type>
			</note>
			<note>
				<pitch>
					<step>E</step>
					<octave>3</octave>
				</pitch>
				<duration>480</duration>
				<voice>1</voice>
				<type>quarter</type>
			</note>
		</measure>
		<measure number="43">
			<note>
				<pitch>
					<step>D</step>
					<octave>3</octave>
				</pitch>
				<duration>480</duration>
				<voice>1</voice>
				<type>quarter</type>
			</note>
		</measure>
		<measure number="44">
			<print new-system="yes">
				<system-layout>
					<system-margins>
						<left-margin>84</left-margin>
						<right-margin>0</right-margin>
					</system-margins>
					<system-distance>100</system-distance>
				</system-layout>
				<staff-layout number="1">
					<staff-distance>90</staff-distance>
				</staff-layout>
			</print>
			<note>
				<pitch>
					<step>B</step>
					<octave>2</octave>
				</pitch>
				<duration>480</duration>
				<voice>1</voice>
				<type>quarter</type>
			</note>
			<barline>
				<bar-style>regular</bar-style>
			</barline>
		</measure>
		<measure number="45">
			<note>
				<pitch>
					<step>C</step>
					<octave>3</octave>
				</pitch>
				<duration>480</duration>
				<voice>1</voice>
				<type>quarter</type>
			</note>
			<note>
				<pitch>
					<step>D</step>
					<octave>3</octave>
				</pitch>
				<duration>480</duration>
				<voice>1</voice>
				<type>quarter</type>
			</note>
		</measure>
		<measure number="46">
			<note>
				<pitch>
					<step>G</step>
					<octave>2</octave>
				</pitch>
				<duration>480</duration>
				<voice>1</voice>
				<type>quarter</type>
			</note>
			<note>
				<pitch>
					<step>G</step>
					<octave>3</octave>
				</pitch>
				<duration>480</duration>
				<voice>1</voice>
				<type>quarter</type>
			</note>
		</measure>
		<measure number="47">
			<note>
				<pitch>
					<step>F</step>
					<alter>1</alter>
					<octave>3</octave>
				</pitch>
				<duration>480</duration>
				<voice>1</voice>
				<type>quarter</type>
			</note>
			<note>
				<pitch>
					<step>E</step>
					<octave>3</octave>
				</pitch>
				<duration>480</duration>
				<voice>1</voice>
				<type>quarter</type>
			</note>
		</measure>
		<measure number="48">
			<note>
				<pitch>
					<step>D</step>
					<octave>3</octave>
				</pitch>
				<duration>480</duration>
				<voice>1</voice>
				<type>quarter</type>
			</note>
			<note>
				<pitch>
					<step>B</step>
					<octave>2</octave>
				</pitch>
				<duration>480</duration>
				<voice>1</voice>
				<type>quarter</type>
			</note>
		</measure>
		<measure number="49">
			<note>
				<pitch>
					<step>C</step>
					<octave>3</octave>
				</pitch>
				<duration>480</duration>
				<voice>1</voice>
				<type>quarter</type>
			</note>
			<note>
				<pitch>
					<step>D</step>
					<octave>3</octave>
				</pitch>
				<duration>480</duration>
				<voice>1</voice>
				<type>quarter</type>
			</note>
		</measure>
		<measure number="50">
			<note>
				<pitch>
					<step>G</step>
					<octave>2</octave>
				</pitch>
				<duration>960</duration>
				<voice>1</voice>
				<type>half</type>
			</note>
			<barline>
				<bar-style>light-heavy</bar-style>
			</barline>
		</measure>
		<measure number="51">
			<print new-system="yes">
				<system-layout>
					<system-margins>
						<left-margin>84</left-margin>
						<right-margin>0</right-margin>
					</system-margins>
					<system-distance>300</system-distance>
				</system-layout>
			</print>
			<direction>
				<direction-type>
					<other-direction/>
				</direction-type>
				<sound tempo="83"/>
			</direction>
			<attributes>
				<divisions>480</divisions>
				<time>
					<beats>2</beats>
					<beat-type>4</beat-type>
				</time>
				<staff-details number="1" print-object="no"/>
			</attributes>
			<note>
				<rest/>
				<duration>960</duration>
			</note>
		</measure>
		<measure number="52">
			<note>
				<rest/>
				<duration>960</duration>
			</note>
		</measure>
		<measure number="53">
			<note>
				<rest/>
				<duration>960</duration>
			</note>
		</measure>
		<measure number="54">
			<note>
				<rest/>
				<duration>960</duration>
			</note>
		</measure>
		<measure number="55">
			<note>
				<rest/>
				<duration>960</duration>
			</note>
		</measure>
		<measure number="56">
			<note>
				<rest/>
				<duration>960</duration>
			</note>
		</measure>
		<measure number="57">
			<note>
				<rest/>
				<duration>480</duration>
			</note>
		</measure>
		<measure number="58">
			<print new-system="yes">
				<system-layout>
					<system-margins>
						<left-margin>84</left-margin>
						<right-margin>0</right-margin>
					</system-margins>
					<system-distance>100</system-distance>
				</system-layout>
			</print>
			<attributes>
				<divisions>480</divisions>
				<time>
					<beats>2</beats>
					<beat-type>4</beat-type>
				</time>
				<staff-details number="1" print-object="no"/>
			</attributes>
			<note>
				<rest/>
				<duration>480</duration>
			</note>
			<barline>
				<bar-style>regular</bar-style>
			</barline>
		</measure>
		<measure number="59">
			<note>
				<rest/>
				<duration>960</duration>
			</note>
		</measure>
		<measure number="60">
			<note>
				<rest/>
				<duration>960</duration>
			</note>
		</measure>
		<measure number="61">
			<note>
				<rest/>
				<duration>960</duration>
			</note>
		</measure>
		<measure number="62">
			<note>
				<rest/>
				<duration>960</duration>
			</note>
		</measure>
	</part>
</score-partwise>
