<?xml version="1.0" encoding="utf-8"?>
<!DOCTYPE score-partwise  PUBLIC "-//Recordare//DTD MusicXML 3.0 Partwise//EN" "http://www.musicxml.org/dtds/partwise.dtd">
<score-partwise version="3.0">
  <work>
    <work-title>VI. D. Mart. Luther.</work-title>
  </work>
  <movement-title>CaSe_6_UNSP_UNSP_Gelobetsei_005_00006.mxl</movement-title>
  <identification>
    <creator type="composer">(Seth Calvisius)</creator>
    <rights>Copyright ©</rights>
    <encoding>
      <encoding-date>2021-05-03</encoding-date>
      <software>music21 v.6.7.1</software>
      <software>Sibelius 20.3.0</software>
      <software>Direct export, not from Dolet</software>
      <supports attribute="new-system" element="print" type="yes" value="yes" />
      <supports attribute="new-page" element="print" type="yes" value="yes" />
    </encoding>
  </identification>
  <defaults>
    <scaling>
      <millimeters>210</millimeters>
      <tenths>2100</tenths>
    </scaling>
    <page-layout>
      <page-height>2970</page-height>
      <page-width>2100</page-width>
      <page-margins>
        <left-margin>150</left-margin>
        <right-margin>150</right-margin>
        <top-margin>150</top-margin>
        <bottom-margin>150</bottom-margin>
      </page-margins>
    </page-layout>
    <system-layout>
      <system-margins>
        <left-margin>45</left-margin>
        <right-margin>0</right-margin>
      </system-margins>
      <system-distance>92</system-distance>
    </system-layout>
    <appearance>
      <line-width type="stem">0.9375</line-width>
      <line-width type="beam">5</line-width>
      <line-width type="staff">0.9375</line-width>
      <line-width type="light barline">1.5625</line-width>
      <line-width type="heavy barline">5</line-width>
      <line-width type="leger">1.5625</line-width>
      <line-width type="ending">1.5625</line-width>
      <line-width type="wedge">1.25</line-width>
      <line-width type="enclosure">0.9375</line-width>
      <line-width type="tuplet bracket">1.25</line-width>
      <line-width type="bracket">5</line-width>
      <line-width type="dashes">1.5625</line-width>
      <line-width type="extend">0.9375</line-width>
      <line-width type="octave shift">1.5625</line-width>
      <line-width type="pedal">1.5625</line-width>
      <line-width type="slur middle">1.5625</line-width>
      <line-width type="slur tip">0.625</line-width>
      <line-width type="tie middle">1.5625</line-width>
      <line-width type="tie tip">0.625</line-width>
      <note-size type="cue">75</note-size>
      <note-size type="grace">60</note-size>
    </appearance>
    <music-font font-family="Opus Std" font-size="11.3386" />
    <word-font font-family="Times New Roman" font-size="6.8209" />
    <lyric-font font-family="Junicode" font-size="7.9724" />
    <lyric-language xml:lang="de" />
  </defaults>
  <credit page="1">
    <credit-words default-x="1050" default-y="75" font-family="Junicode" font-size="12.5787" font-style="normal" font-weight="normal" justify="center" valign="middle">VI. D. Mart. Luther.</credit-words>
  </credit>
  <credit page="1">
    <credit-words default-x="1050" default-y="38" font-family="Junicode" font-size="7.9724" font-style="italic" font-weight="normal" justify="center" valign="middle">Gelobet seist du, Jesu Christ</credit-words>
  </credit>
  <credit page="1">
    <credit-words default-x="1950" default-y="64" font-family="Junicode" font-size="6.2894" font-style="normal" font-weight="normal" justify="right" valign="middle">(Seth Calvisius)</credit-words>
  </credit>
  <part-list>
    <part-group number="1" type="start">
      <group-symbol>bracket</group-symbol>
      <group-barline>yes</group-barline>
    </part-group>
    <score-part id="P1">
      <part-name>P1</part-name>
      <part-abbreviation>S.</part-abbreviation>
      <score-instrument id="I73c19f1c207b2f4c23a0f4a19f536cfb">
        <instrument-name>Soprano</instrument-name>
      </score-instrument>
    </score-part>
    <score-part id="P2">
      <part-name>P2</part-name>
      <part-abbreviation>A.</part-abbreviation>
      <score-instrument id="Icf90c37d0b28d378d5c5a2e9b26680ef">
        <instrument-name>Alto</instrument-name>
      </score-instrument>
    </score-part>
    <score-part id="P3">
      <part-name>P3</part-name>
      <part-abbreviation>T.</part-abbreviation>
      <score-instrument id="Ie06c1e05f7db22e3b8b1c5610b3149ce">
        <instrument-name>Tenor</instrument-name>
      </score-instrument>
    </score-part>
    <score-part id="P4">
      <part-name>P4</part-name>
      <part-abbreviation>B.</part-abbreviation>
      <score-instrument id="I0be8bec0ddda78720dd535747b31544b">
        <instrument-name>Bass (2)</instrument-name>
      </score-instrument>
    </score-part>
    <part-group number="1" type="stop" />
  </part-list>
  <!--=========================== Part 1 ===========================-->
  <part id="P1">
    <!--========================= Measure 1 ==========================-->
    <measure number="1" width="203">
      <print new-page="yes">
        <system-layout>
          <system-margins>
            <left-margin>177</left-margin>
            <right-margin>0</right-margin>
          </system-margins>
          <top-system-distance>140</top-system-distance>
        </system-layout>
        <staff-layout number="1" />
      </print>
      <attributes>
        <divisions>10080</divisions>
        <key color="#000000">
          <fifths>0</fifths>
          <mode>major</mode>
        </key>
        <time color="#000000" symbol="cut">
          <beats>2</beats>
          <beat-type>2</beat-type>
        </time>
        <clef color="#000000">
          <sign>G</sign>
          <line>2</line>
        </clef>
        <staff-details print-object="yes" />
      </attributes>
      <direction>
        <direction-type>
          <words default-x="-145" default-y="-40" enclosure="none" font-family="capella-Renaissance" font-size="12.5787" font-style="normal" font-weight="normal" justify="left" valign="middle"></words>
        </direction-type>
      </direction>
      <direction>
        <direction-type>
          <words default-x="-117" default-y="-20" enclosure="none" font-family="capellaMittelalter" font-size="12.5787" font-style="normal" font-weight="normal" justify="left" valign="middle"></words>
        </direction-type>
      </direction>
      <note color="#000000" default-x="77">
        <pitch>
          <step>G</step>
          <octave>4</octave>
        </pitch>
        <duration>40320</duration>
        <type>whole</type>
        <notehead color="#000000" parentheses="no">normal</notehead>
        <lyric color="#000000" default-y="-80" name="part1verse1" number="1">
          <syllabic>begin</syllabic>
          <text>Ge</text>
        </lyric>
      </note>
    </measure>
    <!--========================= Measure 2 ==========================-->
    <measure number="2" width="198">
      <note color="#000000" default-x="15" default-y="5">
        <pitch>
          <step>G</step>
          <octave>4</octave>
        </pitch>
        <duration>20160</duration>
        <type>half</type>
        <stem>up</stem>
        <notehead color="#000000" parentheses="no">normal</notehead>
        <lyric color="#000000" default-y="-80" name="part1verse1" number="1">
          <syllabic>middle</syllabic>
          <text>lo</text>
        </lyric>
      </note>
      <note color="#000000" default-x="106" default-y="5">
        <pitch>
          <step>G</step>
          <octave>4</octave>
        </pitch>
        <duration>20160</duration>
        <type>half</type>
        <stem>up</stem>
        <notehead color="#000000" parentheses="no">normal</notehead>
        <lyric color="#000000" default-y="-80" name="part1verse1" number="1">
          <syllabic>end</syllabic>
          <text>bet</text>
        </lyric>
      </note>
    </measure>
    <!--========================= Measure 3 ==========================-->
    <measure number="3" width="186">
      <note color="#000000" default-x="3" default-y="10">
        <pitch>
          <step>A</step>
          <octave>4</octave>
        </pitch>
        <duration>20160</duration>
        <type>half</type>
        <stem>up</stem>
        <notehead color="#000000" parentheses="no">normal</notehead>
        <lyric color="#000000" default-y="-80" name="part1verse1" number="1">
          <syllabic>begin</syllabic>
          <text>seys</text>
        </lyric>
      </note>
      <note color="#000000" default-x="95" default-y="5">
        <pitch>
          <step>G</step>
          <octave>4</octave>
        </pitch>
        <duration>20160</duration>
        <type>half</type>
        <stem>up</stem>
        <notehead color="#000000" parentheses="no">normal</notehead>
        <lyric color="#000000" default-y="-80" name="part1verse1" number="1">
          <syllabic>end</syllabic>
          <text>tu</text>
        </lyric>
      </note>
    </measure>
    <!--========================= Measure 4 ==========================-->
    <measure number="4" width="186">
      <note color="#000000" default-x="3" default-y="-50">
        <pitch>
          <step>C</step>
          <octave>5</octave>
        </pitch>
        <duration>20160</duration>
        <type>half</type>
        <stem>down</stem>
        <notehead color="#000000" parentheses="no">normal</notehead>
        <lyric color="#000000" default-y="-80" name="part1verse1" number="1">
          <syllabic>begin</syllabic>
          <text>Je</text>
        </lyric>
      </note>
      <note color="#000000" default-x="95" default-y="-45">
        <pitch>
          <step>D</step>
          <octave>5</octave>
        </pitch>
        <duration>20160</duration>
        <type>half</type>
        <stem>down</stem>
        <notehead color="#000000" parentheses="no">normal</notehead>
        <lyric color="#000000" default-y="-80" name="part1verse1" number="1">
          <syllabic>end</syllabic>
          <text>su</text>
        </lyric>
      </note>
    </measure>
    <!--========================= Measure 5 ==========================-->
    <measure number="5" width="136">
      <note color="#000000" default-x="3">
        <pitch>
          <step>C</step>
          <octave>5</octave>
        </pitch>
        <duration>40320</duration>
        <type>whole</type>
        <notehead color="#000000" parentheses="no">normal</notehead>
        <lyric color="#000000" default-y="-80" name="part1verse1" number="1">
          <syllabic>single</syllabic>
          <text>Christ/</text>
        </lyric>
      </note>
    </measure>
    <!--========================= Measure 6 ==========================-->
    <measure number="6" width="214">
      <note color="#000000" default-x="15" default-y="15">
        <pitch>
          <step>B</step>
          <octave>4</octave>
        </pitch>
        <duration>20160</duration>
        <type>half</type>
        <stem>up</stem>
        <notehead color="#000000" parentheses="no">normal</notehead>
        <lyric color="#000000" default-y="-80" name="part1verse1" number="1">
          <syllabic>single</syllabic>
          <text>Das</text>
        </lyric>
      </note>
      <note color="#000000" default-x="106" default-y="-45">
        <pitch>
          <step>D</step>
          <octave>5</octave>
        </pitch>
        <duration>20160</duration>
        <type>half</type>
        <stem>down</stem>
        <notehead color="#000000" parentheses="no">normal</notehead>
        <lyric color="#000000" default-y="-80" name="part1verse1" number="1">
          <syllabic>single</syllabic>
          <text>du</text>
        </lyric>
      </note>
    </measure>
    <!--========================= Measure 7 ==========================-->
    <measure number="7" width="190">
      <note color="#000000" default-x="7" default-y="-40">
        <pitch>
          <step>E</step>
          <octave>5</octave>
        </pitch>
        <duration>20160</duration>
        <type>half</type>
        <stem>down</stem>
        <notehead color="#000000" parentheses="no">normal</notehead>
        <lyric color="#000000" default-y="-80" name="part1verse1" number="1">
          <syllabic>single</syllabic>
          <text>Mensch</text>
        </lyric>
      </note>
      <note color="#000000" default-x="99" default-y="-45">
        <pitch>
          <step>D</step>
          <octave>5</octave>
        </pitch>
        <duration>20160</duration>
        <type>half</type>
        <stem>down</stem>
        <notehead color="#000000" parentheses="no">normal</notehead>
        <lyric color="#000000" default-y="-80" name="part1verse1" number="1">
          <syllabic>begin</syllabic>
          <text>ge</text>
        </lyric>
      </note>
    </measure>
    <!--========================= Measure 8 ==========================-->
    <measure number="8" width="203">
      <note color="#000000" default-x="3" default-y="-50">
        <pitch>
          <step>C</step>
          <octave>5</octave>
        </pitch>
        <duration>10080</duration>
        <type>quarter</type>
        <stem>down</stem>
        <notehead color="#000000" parentheses="no">normal</notehead>
        <lyric color="#000000" default-y="-80" name="part1verse1" number="1">
          <syllabic>middle</syllabic>
          <text>bo</text>
        </lyric>
      </note>
      <note color="#000000" default-x="57" default-y="15">
        <pitch>
          <step>B</step>
          <octave>4</octave>
        </pitch>
        <duration>10080</duration>
        <type>quarter</type>
        <stem>up</stem>
        <notehead color="#000000" parentheses="no">normal</notehead>
      </note>
      <note color="#000000" default-x="111" default-y="10">
        <pitch>
          <step>A</step>
          <octave>4</octave>
        </pitch>
        <duration>20160</duration>
        <type>half</type>
        <stem>up</stem>
        <notehead color="#000000" parentheses="no">normal</notehead>
        <lyric color="#000000" default-y="-80" name="part1verse1" number="1">
          <syllabic>end</syllabic>
          <text>ren</text>
        </lyric>
      </note>
    </measure>
    <!--========================= Measure 9 ==========================-->
    <measure number="9" width="101">
      <note color="#000000" default-x="3" default-y="5">
        <pitch>
          <step>G</step>
          <octave>4</octave>
        </pitch>
        <duration>20160</duration>
        <type>half</type>
        <stem>up</stem>
        <notehead color="#000000" parentheses="no">normal</notehead>
        <lyric color="#000000" default-y="-80" name="part1verse1" number="1">
          <syllabic>single</syllabic>
          <text>bist/</text>
        </lyric>
      </note>
    </measure>
    <!--========================= Measure 10 =========================-->
    <measure number="10" width="224">
      <print new-system="yes">
        <system-layout>
          <system-margins>
            <left-margin>21</left-margin>
            <right-margin>0</right-margin>
          </system-margins>
          <system-distance>133</system-distance>
        </system-layout>
        <staff-layout number="1" />
      </print>
      <attributes>
        <staff-details print-object="yes" />
      </attributes>
      <note default-x="57">
        <rest />
        <duration>10080</duration>
        <type>quarter</type>
      </note>
      <note color="#000000" default-x="102" default-y="5">
        <pitch>
          <step>G</step>
          <octave>4</octave>
        </pitch>
        <duration>10080</duration>
        <type>quarter</type>
        <stem>up</stem>
        <notehead color="#000000" parentheses="no">normal</notehead>
        <lyric color="#000000" default-y="-80" name="part1verse1" number="1">
          <syllabic>single</syllabic>
          <text>von</text>
        </lyric>
      </note>
      <note color="#000000" default-x="147" default-y="-50">
        <pitch>
          <step>C</step>
          <octave>5</octave>
        </pitch>
        <duration>20160</duration>
        <type>half</type>
        <stem>down</stem>
        <notehead color="#000000" parentheses="no">normal</notehead>
        <lyric color="#000000" default-y="-80" name="part1verse1" number="1">
          <syllabic>begin</syllabic>
          <text>ei</text>
        </lyric>
      </note>
    </measure>
    <!--========================= Measure 11 =========================-->
    <measure number="11" width="156">
      <note color="#000000" default-x="3" default-y="15">
        <pitch>
          <step>B</step>
          <octave>4</octave>
        </pitch>
        <duration>20160</duration>
        <type>half</type>
        <stem>up</stem>
        <notehead color="#000000" parentheses="no">normal</notehead>
        <lyric color="#000000" default-y="-80" name="part1verse1" number="1">
          <syllabic>end</syllabic>
          <text>ner</text>
        </lyric>
      </note>
      <note color="#000000" default-x="80" default-y="-45">
        <pitch>
          <step>D</step>
          <octave>5</octave>
        </pitch>
        <duration>20160</duration>
        <type>half</type>
        <stem>down</stem>
        <notehead color="#000000" parentheses="no">normal</notehead>
        <lyric color="#000000" default-y="-80" name="part1verse1" number="1">
          <syllabic>begin</syllabic>
          <text>Jung</text>
        </lyric>
      </note>
    </measure>
    <!--========================= Measure 12 =========================-->
    <measure number="12" width="139">
      <note color="#000000" default-x="3" default-y="10">
        <pitch>
          <step>A</step>
          <octave>4</octave>
        </pitch>
        <duration>20160</duration>
        <type>half</type>
        <stem>up</stem>
        <notehead color="#000000" parentheses="no">normal</notehead>
        <lyric color="#000000" default-y="-80" name="part1verse1" number="1">
          <syllabic>end</syllabic>
          <text>fraw/</text>
        </lyric>
      </note>
      <note color="#000000" default-x="79" default-y="5">
        <pitch>
          <step>G</step>
          <octave>4</octave>
        </pitch>
        <duration>20160</duration>
        <type>half</type>
        <stem>up</stem>
        <notehead color="#000000" parentheses="no">normal</notehead>
        <lyric color="#000000" default-y="-80" name="part1verse1" number="1">
          <syllabic>single</syllabic>
          <text>das</text>
        </lyric>
      </note>
    </measure>
    <!--========================= Measure 13 =========================-->
    <measure number="13" width="179">
      <note color="#000000" default-x="19" default-y="-5">
        <pitch>
          <step>E</step>
          <octave>4</octave>
        </pitch>
        <duration>20160</duration>
        <type>half</type>
        <stem>up</stem>
        <notehead color="#000000" parentheses="no">normal</notehead>
        <lyric color="#000000" default-y="-80" name="part1verse1" number="1">
          <syllabic>single</syllabic>
          <text>ist</text>
        </lyric>
      </note>
      <note color="#000000" default-x="96" default-y="-10">
        <pitch>
          <step>D</step>
          <octave>4</octave>
        </pitch>
        <duration>20160</duration>
        <type>half</type>
        <stem>up</stem>
        <notehead color="#000000" parentheses="no">normal</notehead>
        <lyric color="#000000" default-y="-80" name="part1verse1" number="1">
          <syllabic>single</syllabic>
          <text>war/</text>
        </lyric>
      </note>
    </measure>
    <!--========================= Measure 14 =========================-->
    <measure number="14" width="181">
      <note default-x="15">
        <rest />
        <duration>10080</duration>
        <type>quarter</type>
      </note>
      <note color="#000000" default-x="60" default-y="-10">
        <pitch>
          <step>D</step>
          <octave>4</octave>
        </pitch>
        <duration>10080</duration>
        <type>quarter</type>
        <stem>up</stem>
        <notehead color="#000000" parentheses="no">normal</notehead>
        <lyric color="#000000" default-y="-80" name="part1verse1" number="1">
          <syllabic>single</syllabic>
          <text>des</text>
        </lyric>
      </note>
      <note color="#000000" default-x="105" default-y="10">
        <pitch>
          <step>A</step>
          <octave>4</octave>
        </pitch>
        <duration>20160</duration>
        <type>half</type>
        <stem>up</stem>
        <notehead color="#000000" parentheses="no">normal</notehead>
        <lyric color="#000000" default-y="-80" name="part1verse1" number="1">
          <syllabic>begin</syllabic>
          <text>fre</text>
        </lyric>
      </note>
    </measure>
    <!--========================= Measure 15 =========================-->
    <measure number="15" width="156">
      <note color="#000000" default-x="3" default-y="10">
        <pitch>
          <step>A</step>
          <octave>4</octave>
        </pitch>
        <duration>20160</duration>
        <type>half</type>
        <stem>up</stem>
        <notehead color="#000000" parentheses="no">normal</notehead>
        <lyric color="#000000" default-y="-80" name="part1verse1" number="1">
          <syllabic>end</syllabic>
          <text>wet</text>
        </lyric>
      </note>
      <note color="#000000" default-x="79" default-y="10">
        <pitch>
          <step>A</step>
          <octave>4</octave>
        </pitch>
        <duration>20160</duration>
        <type>half</type>
        <stem>up</stem>
        <notehead color="#000000" parentheses="no">normal</notehead>
        <lyric color="#000000" default-y="-80" name="part1verse1" number="1">
          <syllabic>single</syllabic>
          <text>sich</text>
        </lyric>
      </note>
    </measure>
    <!--========================= Measure 16 =========================-->
    <measure number="16" width="156">
      <note color="#000000" default-x="3" default-y="15">
        <pitch>
          <step>B</step>
          <octave>4</octave>
        </pitch>
        <duration>20160</duration>
        <type>half</type>
        <stem>up</stem>
        <notehead color="#000000" parentheses="no">normal</notehead>
        <lyric color="#000000" default-y="-80" name="part1verse1" number="1">
          <syllabic>single</syllabic>
          <text>der</text>
        </lyric>
      </note>
      <note color="#000000" default-x="80" default-y="-50">
        <pitch>
          <step>C</step>
          <octave>5</octave>
        </pitch>
        <duration>20160</duration>
        <type>half</type>
        <stem>down</stem>
        <notehead color="#000000" parentheses="no">normal</notehead>
        <lyric color="#000000" default-y="-80" name="part1verse1" number="1">
          <syllabic>begin</syllabic>
          <text>En</text>
        </lyric>
      </note>
    </measure>
    <!--========================= Measure 17 =========================-->
    <measure number="17" width="156">
      <note color="#000000" default-x="3" default-y="10">
        <pitch>
          <step>A</step>
          <octave>4</octave>
        </pitch>
        <duration>20160</duration>
        <type>half</type>
        <stem>up</stem>
        <notehead color="#000000" parentheses="no">normal</notehead>
        <lyric color="#000000" default-y="-80" name="part1verse1" number="1">
          <syllabic>end</syllabic>
          <text>gel</text>
        </lyric>
      </note>
      <note color="#000000" default-x="80" default-y="5">
        <pitch>
          <step>G</step>
          <octave>4</octave>
        </pitch>
        <duration>20160</duration>
        <type>half</type>
        <stem>up</stem>
        <notehead color="#000000" parentheses="no">normal</notehead>
        <lyric color="#000000" default-y="-80" name="part1verse1" number="1">
          <syllabic>single</syllabic>
          <text>schar/</text>
        </lyric>
      </note>
    </measure>
    <!--========================= Measure 18 =========================-->
    <measure number="18" width="170">
      <note color="#000000" default-x="3" default-y="10">
        <pitch>
          <step>A</step>
          <octave>4</octave>
        </pitch>
        <duration>30240</duration>
        <type>half</type>
        <dot />
        <stem>up</stem>
        <notehead color="#000000" parentheses="no">normal</notehead>
        <lyric color="#000000" default-y="-80" name="part1verse1" number="1">
          <syllabic>begin</syllabic>
          <text>Ky</text>
        </lyric>
      </note>
      <note color="#000000" default-x="125">
        <pitch>
          <step>F</step>
          <alter>1</alter>
          <octave>4</octave>
        </pitch>
        <duration>10080</duration>
        <type>quarter</type>
        <accidental>sharp</accidental>
        <stem>up</stem>
        <notehead color="#000000" parentheses="no">normal</notehead>
        <lyric color="#000000" default-y="-80" name="part1verse1" number="1">
          <syllabic>middle</syllabic>
          <text>ri</text>
        </lyric>
      </note>
    </measure>
    <!--========================= Measure 19 =========================-->
    <measure number="19" width="91">
      <note color="#000000" default-x="15" default-y="5">
        <pitch>
          <step>G</step>
          <octave>4</octave>
        </pitch>
        <duration>20160</duration>
        <type>half</type>
        <stem>up</stem>
        <notehead color="#000000" parentheses="no">normal</notehead>
        <lyric color="#000000" default-y="-80" name="part1verse1" number="1">
          <syllabic>middle</syllabic>
          <text>o</text>
        </lyric>
      </note>
    </measure>
    <!--========================= Measure 20 =========================-->
    <measure number="20" width="165">
      <note color="#000000" default-x="15">
        <pitch>
          <step>G</step>
          <octave>4</octave>
        </pitch>
        <duration>40320</duration>
        <tie type="start" />
        <type>whole</type>
        <notehead color="#000000" parentheses="no">normal</notehead>
        <notations>
          <tied type="start" />
        </notations>
        <lyric color="#000000" default-y="-80" name="part1verse1" number="1">
          <syllabic>end</syllabic>
          <text>leis.</text>
        </lyric>
      </note>
      <barline location="right">
        <bar-style>light-heavy</bar-style>
      </barline>
    </measure>
  </part>
  <!--=========================== Part 2 ===========================-->
  <part id="P2">
    <!--========================= Measure 1 ==========================-->
    <measure number="1" width="203">
      <print new-page="yes">
        <system-layout>
          <system-margins>
            <left-margin>177</left-margin>
            <right-margin>0</right-margin>
          </system-margins>
        </system-layout>
        <staff-layout number="1">
          <staff-distance>80</staff-distance>
        </staff-layout>
      </print>
      <attributes>
        <divisions>10080</divisions>
        <key color="#000000">
          <fifths>0</fifths>
          <mode>major</mode>
        </key>
        <time color="#000000" symbol="cut">
          <beats>2</beats>
          <beat-type>2</beat-type>
        </time>
        <clef color="#000000">
          <sign>G</sign>
          <line>2</line>
        </clef>
        <staff-details print-object="yes" />
      </attributes>
      <direction>
        <direction-type>
          <words default-x="-145" default-y="-30" enclosure="none" font-family="capella-Renaissance" font-size="12.5787" font-style="normal" font-weight="normal" justify="left" valign="middle"></words>
        </direction-type>
      </direction>
      <direction>
        <direction-type>
          <words default-x="-117" default-y="-20" enclosure="none" font-family="capellaMittelalter" font-size="12.5787" font-style="normal" font-weight="normal" justify="left" valign="middle"></words>
        </direction-type>
      </direction>
      <note color="#000000" default-x="77">
        <pitch>
          <step>D</step>
          <octave>4</octave>
        </pitch>
        <duration>40320</duration>
        <type>whole</type>
        <notehead color="#000000" parentheses="no">normal</notehead>
        <lyric color="#000000" default-y="-80" name="part2verse1" number="1">
          <syllabic>begin</syllabic>
          <text>Ge</text>
        </lyric>
      </note>
    </measure>
    <!--========================= Measure 2 ==========================-->
    <measure number="2" width="198">
      <note color="#000000" default-x="15" default-y="-10">
        <pitch>
          <step>D</step>
          <octave>4</octave>
        </pitch>
        <duration>20160</duration>
        <type>half</type>
        <stem>up</stem>
        <notehead color="#000000" parentheses="no">normal</notehead>
        <lyric color="#000000" default-y="-80" name="part2verse1" number="1">
          <syllabic>middle</syllabic>
          <text>lo</text>
        </lyric>
      </note>
      <note color="#000000" default-x="106" default-y="-10">
        <pitch>
          <step>D</step>
          <octave>4</octave>
        </pitch>
        <duration>20160</duration>
        <type>half</type>
        <stem>up</stem>
        <notehead color="#000000" parentheses="no">normal</notehead>
        <lyric color="#000000" default-y="-80" name="part2verse1" number="1">
          <syllabic>end</syllabic>
          <text>bet</text>
        </lyric>
      </note>
    </measure>
    <!--========================= Measure 3 ==========================-->
    <measure number="3" width="186">
      <note color="#000000" default-x="3">
        <pitch>
          <step>F</step>
          <octave>4</octave>
        </pitch>
        <duration>20160</duration>
        <type>half</type>
        <stem>up</stem>
        <notehead color="#000000" parentheses="no">normal</notehead>
        <lyric color="#000000" default-y="-80" name="part2verse1" number="1">
          <syllabic>begin</syllabic>
          <text>seys</text>
        </lyric>
      </note>
      <note color="#000000" default-x="95" default-y="-5">
        <pitch>
          <step>E</step>
          <octave>4</octave>
        </pitch>
        <duration>20160</duration>
        <type>half</type>
        <stem>up</stem>
        <notehead color="#000000" parentheses="no">normal</notehead>
        <lyric color="#000000" default-y="-80" name="part2verse1" number="1">
          <syllabic>end</syllabic>
          <text>tu</text>
        </lyric>
      </note>
    </measure>
    <!--========================= Measure 4 ==========================-->
    <measure number="4" width="186">
      <note color="#000000" default-x="3" default-y="5">
        <pitch>
          <step>G</step>
          <octave>4</octave>
        </pitch>
        <duration>20160</duration>
        <type>half</type>
        <stem>up</stem>
        <notehead color="#000000" parentheses="no">normal</notehead>
        <lyric color="#000000" default-y="-80" name="part2verse1" number="1">
          <syllabic>begin</syllabic>
          <text>Je</text>
        </lyric>
      </note>
      <note color="#000000" default-x="95" default-y="5">
        <pitch>
          <step>G</step>
          <octave>4</octave>
        </pitch>
        <duration>20160</duration>
        <type>half</type>
        <stem>up</stem>
        <notehead color="#000000" parentheses="no">normal</notehead>
        <lyric color="#000000" default-y="-80" name="part2verse1" number="1">
          <syllabic>end</syllabic>
          <text>su</text>
        </lyric>
      </note>
    </measure>
    <!--========================= Measure 5 ==========================-->
    <measure number="5" width="136">
      <note color="#000000" default-x="3">
        <pitch>
          <step>G</step>
          <octave>4</octave>
        </pitch>
        <duration>40320</duration>
        <type>whole</type>
        <notehead color="#000000" parentheses="no">normal</notehead>
        <lyric color="#000000" default-y="-80" name="part2verse1" number="1">
          <syllabic>single</syllabic>
          <text>Christ/</text>
        </lyric>
      </note>
    </measure>
    <!--========================= Measure 6 ==========================-->
    <measure number="6" width="214">
      <note color="#000000" default-x="15" default-y="5">
        <pitch>
          <step>G</step>
          <octave>4</octave>
        </pitch>
        <duration>20160</duration>
        <voice>1</voice>
        <type>half</type>
        <stem>up</stem>
        <notehead color="#000000" parentheses="no">normal</notehead>
        <lyric color="#000000" default-y="-80" name="part2verse1" number="1">
          <syllabic>single</syllabic>
          <text>Das</text>
        </lyric>
      </note>
      <note color="#000000" default-x="106" default-y="10">
        <pitch>
          <step>A</step>
          <octave>4</octave>
        </pitch>
        <duration>10080</duration>
        <voice>1</voice>
        <type>quarter</type>
        <stem>up</stem>
        <notehead color="#000000" parentheses="no">normal</notehead>
        <lyric color="#000000" default-y="-80" name="part2verse1" number="1">
          <syllabic>single</syllabic>
          <text>du</text>
        </lyric>
      </note>
      <note color="#000000" default-x="160" default-y="15">
        <pitch>
          <step>B</step>
          <octave>4</octave>
        </pitch>
        <duration>10080</duration>
        <voice>1</voice>
        <type>quarter</type>
        <stem>up</stem>
        <notehead color="#000000" parentheses="no">normal</notehead>
      </note>
      <backup>
        <duration>40320</duration>
      </backup>
      <note default-x="15" print-object="no" print-spacing="yes">
        <rest />
        <duration>20160</duration>
        <voice>2</voice>
        <type>half</type>
      </note>
      <note color="#000000" default-x="106" default-y="-49">
        <pitch>
          <step>A</step>
          <octave>4</octave>
        </pitch>
        <duration>20160</duration>
        <voice>2</voice>
        <type>half</type>
        <stem>down</stem>
        <notehead color="#000000" parentheses="no">normal</notehead>
      </note>
    </measure>
    <!--========================= Measure 7 ==========================-->
    <measure number="7" width="190">
      <note color="#000000" default-x="7" default-y="-50">
        <pitch>
          <step>C</step>
          <octave>5</octave>
        </pitch>
        <duration>20160</duration>
        <type>half</type>
        <stem>down</stem>
        <notehead color="#000000" parentheses="no">normal</notehead>
        <lyric color="#000000" default-y="-80" name="part2verse1" number="1">
          <syllabic>single</syllabic>
          <text>Mensch</text>
        </lyric>
      </note>
      <note color="#000000" default-x="99" default-y="10">
        <pitch>
          <step>A</step>
          <octave>4</octave>
        </pitch>
        <duration>20160</duration>
        <type>half</type>
        <stem>up</stem>
        <notehead color="#000000" parentheses="no">normal</notehead>
        <lyric color="#000000" default-y="-80" name="part2verse1" number="1">
          <syllabic>begin</syllabic>
          <text>ge</text>
        </lyric>
      </note>
    </measure>
    <!--========================= Measure 8 ==========================-->
    <measure number="8" width="203">
      <note color="#000000" default-x="3" default-y="10">
        <pitch>
          <step>A</step>
          <octave>4</octave>
        </pitch>
        <duration>10080</duration>
        <type>quarter</type>
        <stem>up</stem>
        <notehead color="#000000" parentheses="no">normal</notehead>
        <lyric color="#000000" default-y="-80" name="part2verse1" number="1">
          <syllabic>middle</syllabic>
          <text>bo</text>
        </lyric>
      </note>
      <note color="#000000" default-x="57" default-y="5">
        <pitch>
          <step>G</step>
          <octave>4</octave>
        </pitch>
        <duration>10080</duration>
        <type>quarter</type>
        <stem>up</stem>
        <notehead color="#000000" parentheses="no">normal</notehead>
      </note>
      <note color="#000000" default-x="111">
        <pitch>
          <step>F</step>
          <alter>1</alter>
          <octave>4</octave>
        </pitch>
        <duration>20160</duration>
        <type>half</type>
        <accidental>sharp</accidental>
        <stem>up</stem>
        <notehead color="#000000" parentheses="no">normal</notehead>
        <lyric color="#000000" default-y="-80" name="part2verse1" number="1">
          <syllabic>end</syllabic>
          <text>ren</text>
        </lyric>
      </note>
    </measure>
    <!--========================= Measure 9 ==========================-->
    <measure number="9" width="101">
      <note color="#000000" default-x="3" default-y="5">
        <pitch>
          <step>G</step>
          <octave>4</octave>
        </pitch>
        <duration>20160</duration>
        <type>half</type>
        <stem>up</stem>
        <notehead color="#000000" parentheses="no">normal</notehead>
        <lyric color="#000000" default-y="-80" name="part2verse1" number="1">
          <syllabic>single</syllabic>
          <text>bist/</text>
        </lyric>
      </note>
    </measure>
    <!--========================= Measure 10 =========================-->
    <measure number="10" width="224">
      <print new-system="yes">
        <system-layout>
          <system-margins>
            <left-margin>21</left-margin>
            <right-margin>0</right-margin>
          </system-margins>
        </system-layout>
        <staff-layout number="1">
          <staff-distance>80</staff-distance>
        </staff-layout>
      </print>
      <attributes>
        <staff-details print-object="yes" />
      </attributes>
      <note default-x="57">
        <rest />
        <duration>10080</duration>
        <type>quarter</type>
      </note>
      <note color="#000000" default-x="102" default-y="5">
        <pitch>
          <step>G</step>
          <octave>4</octave>
        </pitch>
        <duration>10080</duration>
        <type>quarter</type>
        <stem>up</stem>
        <notehead color="#000000" parentheses="no">normal</notehead>
        <lyric color="#000000" default-y="-80" name="part2verse1" number="1">
          <syllabic>single</syllabic>
          <text>von</text>
        </lyric>
      </note>
      <note color="#000000" default-x="147" default-y="10">
        <pitch>
          <step>A</step>
          <octave>4</octave>
        </pitch>
        <duration>20160</duration>
        <type>half</type>
        <stem>up</stem>
        <notehead color="#000000" parentheses="no">normal</notehead>
        <lyric color="#000000" default-y="-80" name="part2verse1" number="1">
          <syllabic>begin</syllabic>
          <text>ei</text>
        </lyric>
      </note>
    </measure>
    <!--========================= Measure 11 =========================-->
    <measure number="11" width="156">
      <note color="#000000" default-x="3" default-y="5">
        <pitch>
          <step>G</step>
          <octave>4</octave>
        </pitch>
        <duration>20160</duration>
        <type>half</type>
        <stem>up</stem>
        <notehead color="#000000" parentheses="no">normal</notehead>
        <lyric color="#000000" default-y="-80" name="part2verse1" number="1">
          <syllabic>end</syllabic>
          <text>ner</text>
        </lyric>
      </note>
      <note color="#000000" default-x="80">
        <pitch>
          <step>F</step>
          <octave>4</octave>
        </pitch>
        <duration>20160</duration>
        <type>half</type>
        <stem>up</stem>
        <notehead color="#000000" parentheses="no">normal</notehead>
        <lyric color="#000000" default-y="-80" name="part2verse1" number="1">
          <syllabic>begin</syllabic>
          <text>Jung</text>
        </lyric>
      </note>
    </measure>
    <!--========================= Measure 12 =========================-->
    <measure number="12" width="139">
      <note color="#000000" default-x="3">
        <pitch>
          <step>F</step>
          <octave>4</octave>
        </pitch>
        <duration>20160</duration>
        <type>half</type>
        <stem>up</stem>
        <notehead color="#000000" parentheses="no">normal</notehead>
        <lyric color="#000000" default-y="-80" name="part2verse1" number="1">
          <syllabic>end</syllabic>
          <text>fraw/</text>
        </lyric>
      </note>
      <note color="#000000" default-x="79" default-y="-10">
        <pitch>
          <step>D</step>
          <octave>4</octave>
        </pitch>
        <duration>20160</duration>
        <type>half</type>
        <stem>up</stem>
        <notehead color="#000000" parentheses="no">normal</notehead>
        <lyric color="#000000" default-y="-80" name="part2verse1" number="1">
          <syllabic>single</syllabic>
          <text>das</text>
        </lyric>
      </note>
    </measure>
    <!--========================= Measure 13 =========================-->
    <measure number="13" width="179">
      <note color="#000000" default-x="19" default-y="-15">
        <pitch>
          <step>C</step>
          <alter>1</alter>
          <octave>4</octave>
        </pitch>
        <duration>20160</duration>
        <type>half</type>
        <accidental>sharp</accidental>
        <stem>up</stem>
        <notehead color="#000000" parentheses="no">normal</notehead>
        <lyric color="#000000" default-y="-80" name="part2verse1" number="1">
          <syllabic>single</syllabic>
          <text>ist</text>
        </lyric>
      </note>
      <note color="#000000" default-x="96" default-y="-10">
        <pitch>
          <step>D</step>
          <octave>4</octave>
        </pitch>
        <duration>20160</duration>
        <type>half</type>
        <stem>up</stem>
        <notehead color="#000000" parentheses="no">normal</notehead>
        <lyric color="#000000" default-y="-80" name="part2verse1" number="1">
          <syllabic>single</syllabic>
          <text>war/</text>
        </lyric>
      </note>
    </measure>
    <!--========================= Measure 14 =========================-->
    <measure number="14" width="181">
      <note default-x="15">
        <rest />
        <duration>10080</duration>
        <type>quarter</type>
      </note>
      <note color="#000000" default-x="60">
        <pitch>
          <step>F</step>
          <octave>4</octave>
        </pitch>
        <duration>10080</duration>
        <type>quarter</type>
        <stem>up</stem>
        <notehead color="#000000" parentheses="no">normal</notehead>
        <lyric color="#000000" default-y="-80" name="part2verse1" number="1">
          <syllabic>single</syllabic>
          <text>des</text>
        </lyric>
      </note>
      <note color="#000000" default-x="105">
        <pitch>
          <step>F</step>
          <octave>4</octave>
        </pitch>
        <duration>20160</duration>
        <type>half</type>
        <stem>up</stem>
        <notehead color="#000000" parentheses="no">normal</notehead>
        <lyric color="#000000" default-y="-80" name="part2verse1" number="1">
          <syllabic>begin</syllabic>
          <text>fre</text>
        </lyric>
      </note>
    </measure>
    <!--========================= Measure 15 =========================-->
    <measure number="15" width="156">
      <note color="#000000" default-x="3">
        <pitch>
          <step>F</step>
          <octave>4</octave>
        </pitch>
        <duration>20160</duration>
        <type>half</type>
        <stem>up</stem>
        <notehead color="#000000" parentheses="no">normal</notehead>
        <lyric color="#000000" default-y="-80" name="part2verse1" number="1">
          <syllabic>end</syllabic>
          <text>wet</text>
        </lyric>
      </note>
      <note color="#000000" default-x="79" default-y="-5">
        <pitch>
          <step>E</step>
          <octave>4</octave>
        </pitch>
        <duration>20160</duration>
        <type>half</type>
        <stem>up</stem>
        <notehead color="#000000" parentheses="no">normal</notehead>
        <lyric color="#000000" default-y="-80" name="part2verse1" number="1">
          <syllabic>single</syllabic>
          <text>sich</text>
        </lyric>
      </note>
    </measure>
    <!--========================= Measure 16 =========================-->
    <measure number="16" width="156">
      <note color="#000000" default-x="3" default-y="5">
        <pitch>
          <step>G</step>
          <octave>4</octave>
        </pitch>
        <duration>20160</duration>
        <type>half</type>
        <stem>up</stem>
        <notehead color="#000000" parentheses="no">normal</notehead>
        <lyric color="#000000" default-y="-80" name="part2verse1" number="1">
          <syllabic>single</syllabic>
          <text>der</text>
        </lyric>
      </note>
      <note color="#000000" default-x="80" default-y="5">
        <pitch>
          <step>G</step>
          <octave>4</octave>
        </pitch>
        <duration>20160</duration>
        <type>half</type>
        <stem>up</stem>
        <notehead color="#000000" parentheses="no">normal</notehead>
        <lyric color="#000000" default-y="-80" name="part2verse1" number="1">
          <syllabic>begin</syllabic>
          <text>En</text>
        </lyric>
      </note>
    </measure>
    <!--========================= Measure 17 =========================-->
    <measure number="17" width="156">
      <note color="#000000" default-x="3">
        <pitch>
          <step>F</step>
          <octave>4</octave>
        </pitch>
        <duration>20160</duration>
        <type>half</type>
        <stem>up</stem>
        <notehead color="#000000" parentheses="no">normal</notehead>
        <lyric color="#000000" default-y="-80" name="part2verse1" number="1">
          <syllabic>end</syllabic>
          <text>gel</text>
        </lyric>
      </note>
      <note color="#000000" default-x="80" default-y="-5">
        <pitch>
          <step>E</step>
          <octave>4</octave>
        </pitch>
        <duration>20160</duration>
        <type>half</type>
        <stem>up</stem>
        <notehead color="#000000" parentheses="no">normal</notehead>
        <lyric color="#000000" default-y="-80" name="part2verse1" number="1">
          <syllabic>single</syllabic>
          <text>schar/</text>
        </lyric>
      </note>
    </measure>
    <!--========================= Measure 18 =========================-->
    <measure number="18" width="170">
      <note color="#000000" default-x="3">
        <pitch>
          <step>F</step>
          <octave>4</octave>
        </pitch>
        <duration>20160</duration>
        <type>half</type>
        <stem>up</stem>
        <notehead color="#000000" parentheses="no">normal</notehead>
      </note>
      <note color="#000000" default-x="80" default-y="-10">
        <pitch>
          <step>D</step>
          <octave>4</octave>
        </pitch>
        <duration>10080</duration>
        <type>quarter</type>
        <stem>up</stem>
        <notehead color="#000000" parentheses="no">normal</notehead>
        <lyric color="#000000" default-y="-80" name="part2verse1" number="1">
          <syllabic>begin</syllabic>
          <text>Ky</text>
        </lyric>
      </note>
      <note color="#000000" default-x="125" default-y="-10">
        <pitch>
          <step>D</step>
          <octave>4</octave>
        </pitch>
        <duration>10080</duration>
        <type>quarter</type>
        <stem>up</stem>
        <notehead color="#000000" parentheses="no">normal</notehead>
        <lyric color="#000000" default-y="-80" name="part2verse1" number="1">
          <syllabic>middle</syllabic>
          <text>ri</text>
        </lyric>
      </note>
    </measure>
    <!--========================= Measure 19 =========================-->
    <measure number="19" width="91">
      <note color="#000000" default-x="15" default-y="-10">
        <pitch>
          <step>D</step>
          <octave>4</octave>
        </pitch>
        <duration>20160</duration>
        <type>half</type>
        <stem>up</stem>
        <notehead color="#000000" parentheses="no">normal</notehead>
        <lyric color="#000000" default-y="-80" name="part2verse1" number="1">
          <syllabic>middle</syllabic>
          <text>o</text>
        </lyric>
      </note>
    </measure>
    <!--========================= Measure 20 =========================-->
    <measure number="20" width="165">
      <note color="#000000" default-x="15">
        <pitch>
          <step>D</step>
          <octave>4</octave>
        </pitch>
        <duration>40320</duration>
        <tie type="start" />
        <type>whole</type>
        <notehead color="#000000" parentheses="no">normal</notehead>
        <notations>
          <tied type="start" />
        </notations>
        <lyric color="#000000" default-y="-80" name="part2verse1" number="1">
          <syllabic>end</syllabic>
          <text>leis.</text>
        </lyric>
      </note>
      <barline location="right">
        <bar-style>light-heavy</bar-style>
      </barline>
    </measure>
  </part>
  <!--=========================== Part 3 ===========================-->
  <part id="P3">
    <!--========================= Measure 1 ==========================-->
    <measure number="1" width="203">
      <print new-page="yes">
        <system-layout>
          <system-margins>
            <left-margin>177</left-margin>
            <right-margin>0</right-margin>
          </system-margins>
        </system-layout>
        <staff-layout number="1">
          <staff-distance>80</staff-distance>
        </staff-layout>
      </print>
      <attributes>
        <divisions>10080</divisions>
        <key color="#000000">
          <fifths>0</fifths>
          <mode>major</mode>
        </key>
        <time color="#000000" symbol="cut">
          <beats>2</beats>
          <beat-type>2</beat-type>
        </time>
        <clef color="#000000">
          <sign>G</sign>
          <line>2</line>
          <clef-octave-change>-1</clef-octave-change>
        </clef>
        <staff-details print-object="yes" />
        <transpose>
          <diatonic>0</diatonic>
          <chromatic>0</chromatic>
          <octave-change>-1</octave-change>
        </transpose>
      </attributes>
      <direction>
        <direction-type>
          <words default-x="-145" default-y="-20" enclosure="none" font-family="capella-Renaissance" font-size="12.5787" font-style="normal" font-weight="normal" justify="left" valign="middle"></words>
        </direction-type>
      </direction>
      <direction>
        <direction-type>
          <words default-x="-117" default-y="-20" enclosure="none" font-family="capellaMittelalter" font-size="12.5787" font-style="normal" font-weight="normal" justify="left" valign="middle"></words>
        </direction-type>
      </direction>
      <note color="#000000" default-x="77">
        <pitch>
          <step>G</step>
          <octave>3</octave>
        </pitch>
        <duration>40320</duration>
        <type>whole</type>
        <notehead color="#000000" parentheses="no">normal</notehead>
        <lyric color="#000000" default-y="-80" name="part3verse1" number="1">
          <syllabic>begin</syllabic>
          <text>Ge</text>
        </lyric>
      </note>
    </measure>
    <!--========================= Measure 2 ==========================-->
    <measure number="2" width="198">
      <note color="#000000" default-x="15" default-y="15">
        <pitch>
          <step>B</step>
          <octave>3</octave>
        </pitch>
        <duration>20160</duration>
        <type>half</type>
        <stem>up</stem>
        <notehead color="#000000" parentheses="no">normal</notehead>
        <lyric color="#000000" default-y="-80" name="part3verse1" number="1">
          <syllabic>middle</syllabic>
          <text>lo</text>
        </lyric>
      </note>
      <note color="#000000" default-x="106" default-y="15">
        <pitch>
          <step>B</step>
          <octave>3</octave>
        </pitch>
        <duration>20160</duration>
        <type>half</type>
        <stem>up</stem>
        <notehead color="#000000" parentheses="no">normal</notehead>
        <lyric color="#000000" default-y="-80" name="part3verse1" number="1">
          <syllabic>end</syllabic>
          <text>bet</text>
        </lyric>
      </note>
    </measure>
    <!--========================= Measure 3 ==========================-->
    <measure number="3" width="186">
      <note color="#000000" default-x="3" default-y="-45">
        <pitch>
          <step>D</step>
          <octave>4</octave>
        </pitch>
        <duration>20160</duration>
        <type>half</type>
        <stem>down</stem>
        <notehead color="#000000" parentheses="no">normal</notehead>
        <lyric color="#000000" default-y="-80" name="part3verse1" number="1">
          <syllabic>begin</syllabic>
          <text>seys</text>
        </lyric>
      </note>
      <note color="#000000" default-x="95" default-y="15">
        <pitch>
          <step>B</step>
          <octave>3</octave>
        </pitch>
        <duration>20160</duration>
        <type>half</type>
        <stem>up</stem>
        <notehead color="#000000" parentheses="no">normal</notehead>
        <lyric color="#000000" default-y="-80" name="part3verse1" number="1">
          <syllabic>end</syllabic>
          <text>tu</text>
        </lyric>
      </note>
    </measure>
    <!--========================= Measure 4 ==========================-->
    <measure number="4" width="186">
      <note color="#000000" default-x="3" default-y="-50">
        <pitch>
          <step>C</step>
          <octave>4</octave>
        </pitch>
        <duration>20160</duration>
        <type>half</type>
        <stem>down</stem>
        <notehead color="#000000" parentheses="no">normal</notehead>
        <lyric color="#000000" default-y="-80" name="part3verse1" number="1">
          <syllabic>begin</syllabic>
          <text>Je</text>
        </lyric>
      </note>
      <note color="#000000" default-x="95" default-y="15">
        <pitch>
          <step>B</step>
          <octave>3</octave>
        </pitch>
        <duration>20160</duration>
        <type>half</type>
        <stem>up</stem>
        <notehead color="#000000" parentheses="no">normal</notehead>
        <lyric color="#000000" default-y="-80" name="part3verse1" number="1">
          <syllabic>end</syllabic>
          <text>su</text>
        </lyric>
      </note>
    </measure>
    <!--========================= Measure 5 ==========================-->
    <measure number="5" width="136">
      <note color="#000000" default-x="3">
        <pitch>
          <step>C</step>
          <octave>4</octave>
        </pitch>
        <duration>40320</duration>
        <type>whole</type>
        <notehead color="#000000" parentheses="no">normal</notehead>
        <lyric color="#000000" default-y="-80" name="part3verse1" number="1">
          <syllabic>single</syllabic>
          <text>Christ/</text>
        </lyric>
      </note>
    </measure>
    <!--========================= Measure 6 ==========================-->
    <measure number="6" width="214">
      <note color="#000000" default-x="15" default-y="-45">
        <pitch>
          <step>D</step>
          <octave>4</octave>
        </pitch>
        <duration>20160</duration>
        <type>half</type>
        <stem>down</stem>
        <notehead color="#000000" parentheses="no">normal</notehead>
        <lyric color="#000000" default-y="-80" name="part3verse1" number="1">
          <syllabic>single</syllabic>
          <text>Das</text>
        </lyric>
      </note>
      <note color="#000000" default-x="106" default-y="-35">
        <pitch>
          <step>F</step>
          <octave>4</octave>
        </pitch>
        <duration>20160</duration>
        <type>half</type>
        <stem>down</stem>
        <notehead color="#000000" parentheses="no">normal</notehead>
        <lyric color="#000000" default-y="-80" name="part3verse1" number="1">
          <syllabic>single</syllabic>
          <text>du</text>
        </lyric>
      </note>
    </measure>
    <!--========================= Measure 7 ==========================-->
    <measure number="7" width="190">
      <note color="#000000" default-x="7" default-y="-30">
        <pitch>
          <step>G</step>
          <octave>4</octave>
        </pitch>
        <duration>20160</duration>
        <type>half</type>
        <stem>down</stem>
        <notehead color="#000000" parentheses="no">normal</notehead>
        <lyric color="#000000" default-y="-80" name="part3verse1" number="1">
          <syllabic>single</syllabic>
          <text>Mensch</text>
        </lyric>
      </note>
      <note color="#000000" default-x="99" default-y="-35">
        <pitch>
          <step>F</step>
          <octave>4</octave>
        </pitch>
        <duration>20160</duration>
        <type>half</type>
        <stem>down</stem>
        <notehead color="#000000" parentheses="no">normal</notehead>
        <lyric color="#000000" default-y="-80" name="part3verse1" number="1">
          <syllabic>begin</syllabic>
          <text>ge</text>
        </lyric>
      </note>
    </measure>
    <!--========================= Measure 8 ==========================-->
    <measure number="8" width="203">
      <note color="#000000" default-x="3" default-y="-35">
        <pitch>
          <step>F</step>
          <octave>4</octave>
        </pitch>
        <duration>10080</duration>
        <type>quarter</type>
        <stem>down</stem>
        <notehead color="#000000" parentheses="no">normal</notehead>
        <lyric color="#000000" default-y="-80" name="part3verse1" number="1">
          <syllabic>middle</syllabic>
          <text>bo</text>
        </lyric>
      </note>
      <note color="#000000" default-x="57" default-y="-45">
        <pitch>
          <step>D</step>
          <octave>4</octave>
        </pitch>
        <duration>10080</duration>
        <type>quarter</type>
        <stem>down</stem>
        <notehead color="#000000" parentheses="no">normal</notehead>
      </note>
      <note color="#000000" default-x="111" default-y="-45">
        <pitch>
          <step>D</step>
          <octave>4</octave>
        </pitch>
        <duration>20160</duration>
        <type>half</type>
        <stem>down</stem>
        <notehead color="#000000" parentheses="no">normal</notehead>
        <lyric color="#000000" default-y="-80" name="part3verse1" number="1">
          <syllabic>end</syllabic>
          <text>ren</text>
        </lyric>
      </note>
    </measure>
    <!--========================= Measure 9 ==========================-->
    <measure number="9" width="101">
      <note color="#000000" default-x="3" default-y="-45">
        <pitch>
          <step>D</step>
          <octave>4</octave>
        </pitch>
        <duration>20160</duration>
        <type>half</type>
        <stem>down</stem>
        <notehead color="#000000" parentheses="no">normal</notehead>
        <lyric color="#000000" default-y="-80" name="part3verse1" number="1">
          <syllabic>single</syllabic>
          <text>bist/</text>
        </lyric>
      </note>
    </measure>
    <!--========================= Measure 10 =========================-->
    <measure number="10" width="224">
      <print new-system="yes">
        <system-layout>
          <system-margins>
            <left-margin>21</left-margin>
            <right-margin>0</right-margin>
          </system-margins>
        </system-layout>
        <staff-layout number="1">
          <staff-distance>80</staff-distance>
        </staff-layout>
      </print>
      <attributes>
        <staff-details print-object="yes" />
      </attributes>
      <note default-x="57">
        <rest />
        <duration>10080</duration>
        <type>quarter</type>
      </note>
      <note color="#000000" default-x="102" default-y="-45">
        <pitch>
          <step>D</step>
          <octave>4</octave>
        </pitch>
        <duration>10080</duration>
        <type>quarter</type>
        <stem>down</stem>
        <notehead color="#000000" parentheses="no">normal</notehead>
        <lyric color="#000000" default-y="-80" name="part3verse1" number="1">
          <syllabic>single</syllabic>
          <text>von</text>
        </lyric>
      </note>
      <note color="#000000" default-x="147" default-y="-35">
        <pitch>
          <step>F</step>
          <octave>4</octave>
        </pitch>
        <duration>20160</duration>
        <type>half</type>
        <stem>down</stem>
        <notehead color="#000000" parentheses="no">normal</notehead>
        <lyric color="#000000" default-y="-80" name="part3verse1" number="1">
          <syllabic>begin</syllabic>
          <text>ei</text>
        </lyric>
      </note>
    </measure>
    <!--========================= Measure 11 =========================-->
    <measure number="11" width="156">
      <note color="#000000" default-x="3" default-y="-45">
        <pitch>
          <step>D</step>
          <octave>4</octave>
        </pitch>
        <duration>20160</duration>
        <type>half</type>
        <stem>down</stem>
        <notehead color="#000000" parentheses="no">normal</notehead>
        <lyric color="#000000" default-y="-80" name="part3verse1" number="1">
          <syllabic>end</syllabic>
          <text>ner</text>
        </lyric>
      </note>
      <note color="#000000" default-x="80" default-y="-45">
        <pitch>
          <step>D</step>
          <octave>4</octave>
        </pitch>
        <duration>20160</duration>
        <type>half</type>
        <stem>down</stem>
        <notehead color="#000000" parentheses="no">normal</notehead>
        <lyric color="#000000" default-y="-80" name="part3verse1" number="1">
          <syllabic>begin</syllabic>
          <text>Jung</text>
        </lyric>
      </note>
    </measure>
    <!--========================= Measure 12 =========================-->
    <measure number="12" width="139">
      <note color="#000000" default-x="3" default-y="-45">
        <pitch>
          <step>D</step>
          <octave>4</octave>
        </pitch>
        <duration>20160</duration>
        <type>half</type>
        <stem>down</stem>
        <notehead color="#000000" parentheses="no">normal</notehead>
        <lyric color="#000000" default-y="-80" name="part3verse1" number="1">
          <syllabic>end</syllabic>
          <text>fraw/</text>
        </lyric>
      </note>
      <note color="#000000" default-x="79" default-y="15">
        <pitch>
          <step>B</step>
          <octave>3</octave>
        </pitch>
        <duration>20160</duration>
        <type>half</type>
        <stem>up</stem>
        <notehead color="#000000" parentheses="no">normal</notehead>
        <lyric color="#000000" default-y="-80" name="part3verse1" number="1">
          <syllabic>single</syllabic>
          <text>das</text>
        </lyric>
      </note>
    </measure>
    <!--========================= Measure 13 =========================-->
    <measure number="13" width="179">
      <note color="#000000" default-x="19" default-y="10">
        <pitch>
          <step>A</step>
          <octave>3</octave>
        </pitch>
        <duration>20160</duration>
        <type>half</type>
        <stem>up</stem>
        <notehead color="#000000" parentheses="no">normal</notehead>
        <lyric color="#000000" default-y="-80" name="part3verse1" number="1">
          <syllabic>single</syllabic>
          <text>ist</text>
        </lyric>
      </note>
      <note color="#000000" default-x="96" default-y="10">
        <pitch>
          <step>A</step>
          <octave>3</octave>
        </pitch>
        <duration>20160</duration>
        <type>half</type>
        <stem>up</stem>
        <notehead color="#000000" parentheses="no">normal</notehead>
        <lyric color="#000000" default-y="-80" name="part3verse1" number="1">
          <syllabic>single</syllabic>
          <text>war/</text>
        </lyric>
      </note>
    </measure>
    <!--========================= Measure 14 =========================-->
    <measure number="14" width="181">
      <note default-x="15">
        <rest />
        <duration>10080</duration>
        <type>quarter</type>
      </note>
      <note color="#000000" default-x="60" default-y="10">
        <pitch>
          <step>A</step>
          <octave>3</octave>
        </pitch>
        <duration>10080</duration>
        <type>quarter</type>
        <stem>up</stem>
        <notehead color="#000000" parentheses="no">normal</notehead>
        <lyric color="#000000" default-y="-80" name="part3verse1" number="1">
          <syllabic>single</syllabic>
          <text>des</text>
        </lyric>
      </note>
      <note color="#000000" default-x="105" default-y="-45">
        <pitch>
          <step>D</step>
          <octave>4</octave>
        </pitch>
        <duration>20160</duration>
        <type>half</type>
        <stem>down</stem>
        <notehead color="#000000" parentheses="no">normal</notehead>
        <lyric color="#000000" default-y="-80" name="part3verse1" number="1">
          <syllabic>begin</syllabic>
          <text>fre</text>
        </lyric>
      </note>
    </measure>
    <!--========================= Measure 15 =========================-->
    <measure number="15" width="156">
      <note color="#000000" default-x="3" default-y="-45">
        <pitch>
          <step>D</step>
          <octave>4</octave>
        </pitch>
        <duration>20160</duration>
        <type>half</type>
        <stem>down</stem>
        <notehead color="#000000" parentheses="no">normal</notehead>
        <lyric color="#000000" default-y="-80" name="part3verse1" number="1">
          <syllabic>end</syllabic>
          <text>wet</text>
        </lyric>
      </note>
      <note color="#000000" default-x="79" default-y="-50">
        <pitch>
          <step>C</step>
          <alter>1</alter>
          <octave>4</octave>
        </pitch>
        <duration>20160</duration>
        <type>half</type>
        <accidental>sharp</accidental>
        <stem>down</stem>
        <notehead color="#000000" parentheses="no">normal</notehead>
        <lyric color="#000000" default-y="-80" name="part3verse1" number="1">
          <syllabic>single</syllabic>
          <text>sich</text>
        </lyric>
      </note>
    </measure>
    <!--========================= Measure 16 =========================-->
    <measure number="16" width="156">
      <note color="#000000" default-x="3" default-y="-45">
        <pitch>
          <step>D</step>
          <octave>4</octave>
        </pitch>
        <duration>20160</duration>
        <type>half</type>
        <stem>down</stem>
        <notehead color="#000000" parentheses="no">normal</notehead>
        <lyric color="#000000" default-y="-80" name="part3verse1" number="1">
          <syllabic>single</syllabic>
          <text>der</text>
        </lyric>
      </note>
      <note color="#000000" default-x="80" default-y="-40">
        <pitch>
          <step>E</step>
          <octave>4</octave>
        </pitch>
        <duration>20160</duration>
        <type>half</type>
        <stem>down</stem>
        <notehead color="#000000" parentheses="no">normal</notehead>
        <lyric color="#000000" default-y="-80" name="part3verse1" number="1">
          <syllabic>begin</syllabic>
          <text>En</text>
        </lyric>
      </note>
    </measure>
    <!--========================= Measure 17 =========================-->
    <measure number="17" width="156">
      <note color="#000000" default-x="3" default-y="-45">
        <pitch>
          <step>D</step>
          <octave>4</octave>
        </pitch>
        <duration>20160</duration>
        <type>half</type>
        <stem>down</stem>
        <notehead color="#000000" parentheses="no">normal</notehead>
        <lyric color="#000000" default-y="-80" name="part3verse1" number="1">
          <syllabic>end</syllabic>
          <text>gel</text>
        </lyric>
      </note>
      <note color="#000000" default-x="80" default-y="15">
        <pitch>
          <step>B</step>
          <octave>3</octave>
        </pitch>
        <duration>20160</duration>
        <type>half</type>
        <stem>up</stem>
        <notehead color="#000000" parentheses="no">normal</notehead>
        <lyric color="#000000" default-y="-80" name="part3verse1" number="1">
          <syllabic>single</syllabic>
          <text>schar/</text>
        </lyric>
      </note>
    </measure>
    <!--========================= Measure 18 =========================-->
    <measure number="18" width="170">
      <note color="#000000" default-x="3" default-y="-45">
        <pitch>
          <step>D</step>
          <octave>4</octave>
        </pitch>
        <duration>30240</duration>
        <type>half</type>
        <dot />
        <stem>down</stem>
        <notehead color="#000000" parentheses="no">normal</notehead>
        <lyric color="#000000" default-y="-80" name="part3verse1" number="1">
          <syllabic>begin</syllabic>
          <text>Ky</text>
        </lyric>
      </note>
      <note color="#000000" default-x="125" default-y="10">
        <pitch>
          <step>A</step>
          <octave>3</octave>
        </pitch>
        <duration>10080</duration>
        <type>quarter</type>
        <stem>up</stem>
        <notehead color="#000000" parentheses="no">normal</notehead>
        <lyric color="#000000" default-y="-80" name="part3verse1" number="1">
          <syllabic>middle</syllabic>
          <text>ri</text>
        </lyric>
      </note>
    </measure>
    <!--========================= Measure 19 =========================-->
    <measure number="19" width="91">
      <note color="#000000" default-x="15" default-y="15">
        <pitch>
          <step>B</step>
          <octave>3</octave>
        </pitch>
        <duration>20160</duration>
        <type>half</type>
        <stem>up</stem>
        <notehead color="#000000" parentheses="no">normal</notehead>
        <lyric color="#000000" default-y="-80" name="part3verse1" number="1">
          <syllabic>middle</syllabic>
          <text>o</text>
        </lyric>
      </note>
    </measure>
    <!--========================= Measure 20 =========================-->
    <measure number="20" width="165">
      <note color="#000000" default-x="15">
        <pitch>
          <step>B</step>
          <octave>3</octave>
        </pitch>
        <duration>40320</duration>
        <tie type="start" />
        <type>whole</type>
        <notehead color="#000000" parentheses="no">normal</notehead>
        <notations>
          <tied type="start" />
        </notations>
        <lyric color="#000000" default-y="-80" name="part3verse1" number="1">
          <syllabic>end</syllabic>
          <text>leis.</text>
        </lyric>
      </note>
      <barline location="right">
        <bar-style>light-heavy</bar-style>
      </barline>
    </measure>
  </part>
  <!--=========================== Part 4 ===========================-->
  <part id="P4">
    <!--========================= Measure 1 ==========================-->
    <measure number="1" width="203">
      <print new-page="yes">
        <system-layout>
          <system-margins>
            <left-margin>177</left-margin>
            <right-margin>0</right-margin>
          </system-margins>
        </system-layout>
        <staff-layout number="1">
          <staff-distance>80</staff-distance>
        </staff-layout>
      </print>
      <attributes>
        <divisions>10080</divisions>
        <key color="#000000">
          <fifths>0</fifths>
          <mode>major</mode>
        </key>
        <time color="#000000" symbol="cut">
          <beats>2</beats>
          <beat-type>2</beat-type>
        </time>
        <clef color="#000000">
          <sign>F</sign>
          <line>4</line>
        </clef>
        <staff-details print-object="yes" />
      </attributes>
      <direction>
        <direction-type>
          <words default-x="-152" default-y="-9" enclosure="none" font-family="capella-Renaissance" font-size="12.5787" font-style="normal" font-weight="normal" justify="left" valign="middle"></words>
        </direction-type>
      </direction>
      <direction>
        <direction-type>
          <words default-x="-117" default-y="-20" enclosure="none" font-family="capellaMittelalter" font-size="12.5787" font-style="normal" font-weight="normal" justify="left" valign="middle"></words>
        </direction-type>
      </direction>
      <note color="#000000" default-x="77">
        <pitch>
          <step>G</step>
          <octave>3</octave>
        </pitch>
        <duration>40320</duration>
        <type>whole</type>
        <notehead color="#000000" parentheses="no">normal</notehead>
        <lyric color="#000000" default-y="-80" name="part4verse1" number="1">
          <syllabic>begin</syllabic>
          <text>Ge</text>
        </lyric>
      </note>
    </measure>
    <!--========================= Measure 2 ==========================-->
    <measure number="2" width="198">
      <note color="#000000" default-x="15" default-y="-40">
        <pitch>
          <step>G</step>
          <octave>3</octave>
        </pitch>
        <duration>20160</duration>
        <type>half</type>
        <stem>down</stem>
        <notehead color="#000000" parentheses="no">normal</notehead>
        <lyric color="#000000" default-y="-80" name="part4verse1" number="1">
          <syllabic>middle</syllabic>
          <text>lo</text>
        </lyric>
      </note>
      <note color="#000000" default-x="106" default-y="-40">
        <pitch>
          <step>G</step>
          <octave>3</octave>
        </pitch>
        <duration>20160</duration>
        <type>half</type>
        <stem>down</stem>
        <notehead color="#000000" parentheses="no">normal</notehead>
        <lyric color="#000000" default-y="-80" name="part4verse1" number="1">
          <syllabic>end</syllabic>
          <text>bet</text>
        </lyric>
      </note>
    </measure>
    <!--========================= Measure 3 ==========================-->
    <measure number="3" width="186">
      <note color="#000000" default-x="3" default-y="15">
        <pitch>
          <step>D</step>
          <octave>3</octave>
        </pitch>
        <duration>20160</duration>
        <type>half</type>
        <stem>up</stem>
        <notehead color="#000000" parentheses="no">normal</notehead>
        <lyric color="#000000" default-y="-80" name="part4verse1" number="1">
          <syllabic>begin</syllabic>
          <text>seys</text>
        </lyric>
      </note>
      <note color="#000000" default-x="95" default-y="-50">
        <pitch>
          <step>E</step>
          <octave>3</octave>
        </pitch>
        <duration>20160</duration>
        <type>half</type>
        <stem>down</stem>
        <notehead color="#000000" parentheses="no">normal</notehead>
        <lyric color="#000000" default-y="-80" name="part4verse1" number="1">
          <syllabic>end</syllabic>
          <text>tu</text>
        </lyric>
      </note>
    </measure>
    <!--========================= Measure 4 ==========================-->
    <measure number="4" width="186">
      <note color="#000000" default-x="3" default-y="10">
        <pitch>
          <step>C</step>
          <octave>3</octave>
        </pitch>
        <duration>20160</duration>
        <type>half</type>
        <stem>up</stem>
        <notehead color="#000000" parentheses="no">normal</notehead>
        <lyric color="#000000" default-y="-80" name="part4verse1" number="1">
          <syllabic>begin</syllabic>
          <text>Je</text>
        </lyric>
      </note>
      <note color="#000000" default-x="95" default-y="-40">
        <pitch>
          <step>G</step>
          <octave>3</octave>
        </pitch>
        <duration>20160</duration>
        <type>half</type>
        <stem>down</stem>
        <notehead color="#000000" parentheses="no">normal</notehead>
        <lyric color="#000000" default-y="-80" name="part4verse1" number="1">
          <syllabic>end</syllabic>
          <text>su</text>
        </lyric>
      </note>
    </measure>
    <!--========================= Measure 5 ==========================-->
    <measure number="5" width="136">
      <note color="#000000" default-x="3">
        <pitch>
          <step>C</step>
          <octave>3</octave>
        </pitch>
        <duration>40320</duration>
        <type>whole</type>
        <notehead color="#000000" parentheses="no">normal</notehead>
        <lyric color="#000000" default-y="-80" name="part4verse1" number="1">
          <syllabic>single</syllabic>
          <text>Christ/</text>
        </lyric>
      </note>
    </measure>
    <!--========================= Measure 6 ==========================-->
    <measure number="6" width="214">
      <note color="#000000" default-x="15" default-y="-40">
        <pitch>
          <step>G</step>
          <octave>3</octave>
        </pitch>
        <duration>20160</duration>
        <type>half</type>
        <stem>down</stem>
        <notehead color="#000000" parentheses="no">normal</notehead>
        <lyric color="#000000" default-y="-80" name="part4verse1" number="1">
          <syllabic>single</syllabic>
          <text>Das</text>
        </lyric>
      </note>
      <note color="#000000" default-x="106" default-y="15">
        <pitch>
          <step>D</step>
          <octave>3</octave>
        </pitch>
        <duration>20160</duration>
        <type>half</type>
        <stem>up</stem>
        <notehead color="#000000" parentheses="no">normal</notehead>
        <lyric color="#000000" default-y="-80" name="part4verse1" number="1">
          <syllabic>single</syllabic>
          <text>du</text>
        </lyric>
      </note>
    </measure>
    <!--========================= Measure 7 ==========================-->
    <measure number="7" width="190">
      <note color="#000000" default-x="7" default-y="10">
        <pitch>
          <step>C</step>
          <octave>3</octave>
        </pitch>
        <duration>20160</duration>
        <type>half</type>
        <stem>up</stem>
        <notehead color="#000000" parentheses="no">normal</notehead>
        <lyric color="#000000" default-y="-80" name="part4verse1" number="1">
          <syllabic>single</syllabic>
          <text>Mensch</text>
        </lyric>
      </note>
      <note color="#000000" default-x="99" default-y="15">
        <pitch>
          <step>D</step>
          <octave>3</octave>
        </pitch>
        <duration>20160</duration>
        <type>half</type>
        <stem>up</stem>
        <notehead color="#000000" parentheses="no">normal</notehead>
        <lyric color="#000000" default-y="-80" name="part4verse1" number="1">
          <syllabic>begin</syllabic>
          <text>ge</text>
        </lyric>
      </note>
    </measure>
    <!--========================= Measure 8 ==========================-->
    <measure number="8" width="203">
      <note color="#000000" default-x="3" default-y="-45">
        <pitch>
          <step>F</step>
          <octave>3</octave>
        </pitch>
        <duration>10080</duration>
        <type>quarter</type>
        <stem>down</stem>
        <notehead color="#000000" parentheses="no">normal</notehead>
        <lyric color="#000000" default-y="-80" name="part4verse1" number="1">
          <syllabic>middle</syllabic>
          <text>bo</text>
        </lyric>
      </note>
      <note color="#000000" default-x="57" default-y="-40">
        <pitch>
          <step>G</step>
          <octave>3</octave>
        </pitch>
        <duration>10080</duration>
        <type>quarter</type>
        <stem>down</stem>
        <notehead color="#000000" parentheses="no">normal</notehead>
      </note>
      <note color="#000000" default-x="111" default-y="15">
        <pitch>
          <step>D</step>
          <octave>3</octave>
        </pitch>
        <duration>20160</duration>
        <type>half</type>
        <stem>up</stem>
        <notehead color="#000000" parentheses="no">normal</notehead>
        <lyric color="#000000" default-y="-80" name="part4verse1" number="1">
          <syllabic>end</syllabic>
          <text>ren</text>
        </lyric>
      </note>
    </measure>
    <!--========================= Measure 9 ==========================-->
    <measure number="9" width="101">
      <note color="#000000" default-x="3" default-y="-5">
        <pitch>
          <step>G</step>
          <octave>2</octave>
        </pitch>
        <duration>20160</duration>
        <type>half</type>
        <stem>up</stem>
        <notehead color="#000000" parentheses="no">normal</notehead>
        <lyric color="#000000" default-y="-80" name="part4verse1" number="1">
          <syllabic>single</syllabic>
          <text>bist/</text>
        </lyric>
      </note>
    </measure>
    <!--========================= Measure 10 =========================-->
    <measure number="10" width="224">
      <print new-system="yes">
        <system-layout>
          <system-margins>
            <left-margin>21</left-margin>
            <right-margin>0</right-margin>
          </system-margins>
        </system-layout>
        <staff-layout number="1">
          <staff-distance>80</staff-distance>
        </staff-layout>
      </print>
      <attributes>
        <staff-details print-object="yes" />
      </attributes>
      <note default-x="57">
        <rest />
        <duration>10080</duration>
        <type>quarter</type>
      </note>
      <note color="#000000" default-x="102" default-y="-40">
        <pitch>
          <step>G</step>
          <octave>3</octave>
        </pitch>
        <duration>10080</duration>
        <type>quarter</type>
        <stem>down</stem>
        <notehead color="#000000" parentheses="no">normal</notehead>
        <lyric color="#000000" default-y="-80" name="part4verse1" number="1">
          <syllabic>single</syllabic>
          <text>von</text>
        </lyric>
      </note>
      <note color="#000000" default-x="147" default-y="-45">
        <pitch>
          <step>F</step>
          <octave>3</octave>
        </pitch>
        <duration>20160</duration>
        <type>half</type>
        <stem>down</stem>
        <notehead color="#000000" parentheses="no">normal</notehead>
        <lyric color="#000000" default-y="-80" name="part4verse1" number="1">
          <syllabic>begin</syllabic>
          <text>ei</text>
        </lyric>
      </note>
    </measure>
    <!--========================= Measure 11 =========================-->
    <measure number="11" width="156">
      <note color="#000000" default-x="3" default-y="-40">
        <pitch>
          <step>G</step>
          <octave>3</octave>
        </pitch>
        <duration>20160</duration>
        <type>half</type>
        <stem>down</stem>
        <notehead color="#000000" parentheses="no">normal</notehead>
        <lyric color="#000000" default-y="-80" name="part4verse1" number="1">
          <syllabic>end</syllabic>
          <text>ner</text>
        </lyric>
      </note>
      <note color="#000000" default-x="80" default-y="15">
        <pitch>
          <step>D</step>
          <octave>3</octave>
        </pitch>
        <duration>20160</duration>
        <type>half</type>
        <stem>up</stem>
        <notehead color="#000000" parentheses="no">normal</notehead>
        <lyric color="#000000" default-y="-80" name="part4verse1" number="1">
          <syllabic>begin</syllabic>
          <text>Jung</text>
        </lyric>
      </note>
    </measure>
    <!--========================= Measure 12 =========================-->
    <measure number="12" width="139">
      <note color="#000000" default-x="3" default-y="15">
        <pitch>
          <step>D</step>
          <octave>3</octave>
        </pitch>
        <duration>20160</duration>
        <type>half</type>
        <stem>up</stem>
        <notehead color="#000000" parentheses="no">normal</notehead>
        <lyric color="#000000" default-y="-80" name="part4verse1" number="1">
          <syllabic>end</syllabic>
          <text>fraw/</text>
        </lyric>
      </note>
      <note color="#000000" default-x="79" default-y="-5">
        <pitch>
          <step>G</step>
          <octave>2</octave>
        </pitch>
        <duration>20160</duration>
        <type>half</type>
        <stem>up</stem>
        <notehead color="#000000" parentheses="no">normal</notehead>
        <lyric color="#000000" default-y="-80" name="part4verse1" number="1">
          <syllabic>single</syllabic>
          <text>das</text>
        </lyric>
      </note>
    </measure>
    <!--========================= Measure 13 =========================-->
    <measure number="13" width="179">
      <note color="#000000" default-x="19">
        <pitch>
          <step>A</step>
          <octave>2</octave>
        </pitch>
        <duration>20160</duration>
        <type>half</type>
        <stem>up</stem>
        <notehead color="#000000" parentheses="no">normal</notehead>
        <lyric color="#000000" default-y="-80" name="part4verse1" number="1">
          <syllabic>single</syllabic>
          <text>ist</text>
        </lyric>
      </note>
      <note color="#000000" default-x="96" default-y="15">
        <pitch>
          <step>D</step>
          <octave>3</octave>
        </pitch>
        <duration>20160</duration>
        <type>half</type>
        <stem>up</stem>
        <notehead color="#000000" parentheses="no">normal</notehead>
        <lyric color="#000000" default-y="-80" name="part4verse1" number="1">
          <syllabic>single</syllabic>
          <text>war/</text>
        </lyric>
      </note>
    </measure>
    <!--========================= Measure 14 =========================-->
    <measure number="14" width="181">
      <note default-x="15">
        <rest />
        <duration>10080</duration>
        <type>quarter</type>
      </note>
      <note color="#000000" default-x="60" default-y="15">
        <pitch>
          <step>D</step>
          <octave>3</octave>
        </pitch>
        <duration>10080</duration>
        <type>quarter</type>
        <stem>up</stem>
        <notehead color="#000000" parentheses="no">normal</notehead>
        <lyric color="#000000" default-y="-80" name="part4verse1" number="1">
          <syllabic>single</syllabic>
          <text>des</text>
        </lyric>
      </note>
      <note color="#000000" default-x="105" default-y="15">
        <pitch>
          <step>D</step>
          <octave>3</octave>
        </pitch>
        <duration>20160</duration>
        <type>half</type>
        <stem>up</stem>
        <notehead color="#000000" parentheses="no">normal</notehead>
        <lyric color="#000000" default-y="-80" name="part4verse1" number="1">
          <syllabic>begin</syllabic>
          <text>fre</text>
        </lyric>
      </note>
    </measure>
    <!--========================= Measure 15 =========================-->
    <measure number="15" width="156">
      <note color="#000000" default-x="3" default-y="15">
        <pitch>
          <step>D</step>
          <octave>3</octave>
        </pitch>
        <duration>20160</duration>
        <type>half</type>
        <stem>up</stem>
        <notehead color="#000000" parentheses="no">normal</notehead>
        <lyric color="#000000" default-y="-80" name="part4verse1" number="1">
          <syllabic>end</syllabic>
          <text>wet</text>
        </lyric>
      </note>
      <note color="#000000" default-x="79">
        <pitch>
          <step>A</step>
          <octave>2</octave>
        </pitch>
        <duration>20160</duration>
        <type>half</type>
        <stem>up</stem>
        <notehead color="#000000" parentheses="no">normal</notehead>
        <lyric color="#000000" default-y="-80" name="part4verse1" number="1">
          <syllabic>single</syllabic>
          <text>sich</text>
        </lyric>
      </note>
    </measure>
    <!--========================= Measure 16 =========================-->
    <measure number="16" width="156">
      <note color="#000000" default-x="3" default-y="-5">
        <pitch>
          <step>G</step>
          <octave>2</octave>
        </pitch>
        <duration>20160</duration>
        <type>half</type>
        <stem>up</stem>
        <notehead color="#000000" parentheses="no">normal</notehead>
        <lyric color="#000000" default-y="-80" name="part4verse1" number="1">
          <syllabic>single</syllabic>
          <text>der</text>
        </lyric>
      </note>
      <note color="#000000" default-x="80" default-y="10">
        <pitch>
          <step>C</step>
          <octave>3</octave>
        </pitch>
        <duration>20160</duration>
        <type>half</type>
        <stem>up</stem>
        <notehead color="#000000" parentheses="no">normal</notehead>
        <lyric color="#000000" default-y="-80" name="part4verse1" number="1">
          <syllabic>begin</syllabic>
          <text>En</text>
        </lyric>
      </note>
    </measure>
    <!--========================= Measure 17 =========================-->
    <measure number="17" width="156">
      <note color="#000000" default-x="3" default-y="15">
        <pitch>
          <step>D</step>
          <octave>3</octave>
        </pitch>
        <duration>20160</duration>
        <type>half</type>
        <stem>up</stem>
        <notehead color="#000000" parentheses="no">normal</notehead>
        <lyric color="#000000" default-y="-80" name="part4verse1" number="1">
          <syllabic>end</syllabic>
          <text>gel</text>
        </lyric>
      </note>
      <note color="#000000" default-x="80" default-y="-50">
        <pitch>
          <step>E</step>
          <octave>3</octave>
        </pitch>
        <duration>20160</duration>
        <type>half</type>
        <stem>down</stem>
        <notehead color="#000000" parentheses="no">normal</notehead>
        <lyric color="#000000" default-y="-80" name="part4verse1" number="1">
          <syllabic>single</syllabic>
          <text>schar/</text>
        </lyric>
      </note>
    </measure>
    <!--========================= Measure 18 =========================-->
    <measure number="18" width="170">
      <note color="#000000" default-x="3" default-y="15">
        <pitch>
          <step>D</step>
          <octave>3</octave>
        </pitch>
        <duration>30240</duration>
        <type>half</type>
        <dot />
        <stem>up</stem>
        <notehead color="#000000" parentheses="no">normal</notehead>
        <lyric color="#000000" default-y="-80" name="part4verse1" number="1">
          <syllabic>begin</syllabic>
          <text>Ky</text>
        </lyric>
      </note>
      <note color="#000000" default-x="125" default-y="15">
        <pitch>
          <step>D</step>
          <octave>3</octave>
        </pitch>
        <duration>10080</duration>
        <type>quarter</type>
        <stem>up</stem>
        <notehead color="#000000" parentheses="no">normal</notehead>
        <lyric color="#000000" default-y="-80" name="part4verse1" number="1">
          <syllabic>middle</syllabic>
          <text>ri</text>
        </lyric>
      </note>
    </measure>
    <!--========================= Measure 19 =========================-->
    <measure number="19" width="91">
      <note color="#000000" default-x="15" default-y="-5">
        <pitch>
          <step>G</step>
          <octave>2</octave>
        </pitch>
        <duration>20160</duration>
        <type>half</type>
        <stem>up</stem>
        <notehead color="#000000" parentheses="no">normal</notehead>
        <lyric color="#000000" default-y="-80" name="part4verse1" number="1">
          <syllabic>middle</syllabic>
          <text>o</text>
        </lyric>
      </note>
    </measure>
    <!--========================= Measure 20 =========================-->
    <measure number="20" width="165">
      <note color="#000000" default-x="15">
        <pitch>
          <step>G</step>
          <octave>2</octave>
        </pitch>
        <duration>40320</duration>
        <tie type="start" />
        <type>whole</type>
        <notehead color="#000000" parentheses="no">normal</notehead>
        <notations>
          <tied type="start" />
        </notations>
        <lyric color="#000000" default-y="-80" name="part4verse1" number="1">
          <syllabic>end</syllabic>
          <text>leis.</text>
        </lyric>
      </note>
      <barline location="right">
        <bar-style>light-heavy</bar-style>
      </barline>
    </measure>
  </part>
</score-partwise>