<?xml version="1.0" encoding="utf-8"?>
<!DOCTYPE score-partwise  PUBLIC "-//Recordare//DTD MusicXML 3.0 Partwise//EN" "http://www.musicxml.org/dtds/partwise.dtd">
<score-partwise version="3.0">
  <work>
    <work-title>[LIII. b][Ohne Titel und Nummer]</work-title>
  </work>
  <movement-title>CaSe_53c_UNSP_UNSP_GibunsermF_005_00055.mxl</movement-title>
  <identification>
    <creator type="composer">(Sethus Calvisius)</creator>
    <rights>Copyright ©</rights>
    <encoding>
      <encoding-date>2021-05-03</encoding-date>
      <software>music21 v.6.7.1</software>
      <software>Sibelius 20.3.0</software>
      <software>Direct export, not from Dolet</software>
      <supports attribute="new-system" element="print" type="yes" value="yes" />
      <supports attribute="new-page" element="print" type="yes" value="yes" />
    </encoding>
  </identification>
  <defaults>
    <scaling>
      <millimeters>210</millimeters>
      <tenths>2100</tenths>
    </scaling>
    <page-layout>
      <page-height>2970</page-height>
      <page-width>2100</page-width>
      <page-margins>
        <left-margin>150</left-margin>
        <right-margin>150</right-margin>
        <top-margin>150</top-margin>
        <bottom-margin>150</bottom-margin>
      </page-margins>
    </page-layout>
    <system-layout>
      <system-margins>
        <left-margin>40</left-margin>
        <right-margin>0</right-margin>
      </system-margins>
      <system-distance>92</system-distance>
    </system-layout>
    <appearance>
      <line-width type="stem">0.9375</line-width>
      <line-width type="beam">5</line-width>
      <line-width type="staff">0.9375</line-width>
      <line-width type="light barline">1.5625</line-width>
      <line-width type="heavy barline">5</line-width>
      <line-width type="leger">1.5625</line-width>
      <line-width type="ending">1.5625</line-width>
      <line-width type="wedge">1.25</line-width>
      <line-width type="enclosure">0.9375</line-width>
      <line-width type="tuplet bracket">1.25</line-width>
      <line-width type="bracket">5</line-width>
      <line-width type="dashes">1.5625</line-width>
      <line-width type="extend">0.9375</line-width>
      <line-width type="octave shift">1.5625</line-width>
      <line-width type="pedal">1.5625</line-width>
      <line-width type="slur middle">1.5625</line-width>
      <line-width type="slur tip">0.625</line-width>
      <line-width type="tie middle">1.5625</line-width>
      <line-width type="tie tip">0.625</line-width>
      <note-size type="cue">75</note-size>
      <note-size type="grace">60</note-size>
    </appearance>
    <music-font font-family="Opus Std" font-size="11.3386" />
    <word-font font-family="Junicode" font-size="11.4272" />
    <lyric-font font-family="Junicode" font-size="7.9724" />
    <lyric-language xml:lang="de" />
  </defaults>
  <credit page="1">
    <credit-words default-x="1050" default-y="102" font-family="Junicode" font-size="12.5787" font-style="normal" font-weight="normal" justify="center" valign="middle">[LIII. b][Ohne Titel und Nummer]</credit-words>
  </credit>
  <credit page="1">
    <credit-words default-x="1050" default-y="60" font-family="Junicode" font-size="7.9724" font-style="italic" font-weight="normal" justify="center" valign="middle">Gib unserm Fürsten und aller Obrigkeit</credit-words>
  </credit>
  <credit page="1">
    <credit-words default-x="1950" default-y="64" font-family="Junicode" font-size="6.2894" font-style="normal" font-weight="normal" justify="right" valign="middle">(Sethus Calvisius)</credit-words>
  </credit>
  <part-list>
    <part-group number="1" type="start">
      <group-symbol>bracket</group-symbol>
      <group-barline>yes</group-barline>
    </part-group>
    <score-part id="P1">
      <part-name>P1</part-name>
      <part-abbreviation>S.</part-abbreviation>
      <score-instrument id="I014fd2f797386cac5a3a5c7de2032e15">
        <instrument-name>Soprano</instrument-name>
      </score-instrument>
    </score-part>
    <part-group number="1" type="stop" />
  </part-list>
  <!--=========================== Part 1 ===========================-->
  <part id="P1">
    <!--========================= Measure 1 ==========================-->
    <measure number="1" width="158">
      <print new-page="yes">
        <system-layout>
          <system-margins>
            <left-margin>175</left-margin>
            <right-margin>0</right-margin>
          </system-margins>
          <top-system-distance>140</top-system-distance>
        </system-layout>
        <staff-layout number="1" />
      </print>
      <attributes>
        <divisions>10080</divisions>
        <key color="#000000">
          <fifths>0</fifths>
          <mode>major</mode>
        </key>
        <time color="#000000" symbol="cut">
          <beats>2</beats>
          <beat-type>2</beat-type>
        </time>
        <clef color="#000000">
          <sign>G</sign>
          <line>2</line>
        </clef>
        <staff-details print-object="yes" />
      </attributes>
      <direction>
        <direction-type>
          <words default-x="-145" default-y="-33" enclosure="none" font-family="capella-Renaissance" font-size="12.5787" font-style="normal" font-weight="normal" justify="left" valign="middle"></words>
        </direction-type>
      </direction>
      <direction>
        <direction-type>
          <words default-x="-111" default-y="-20" enclosure="none" font-family="capellaMittelalter" font-size="12.5787" font-style="normal" font-weight="normal" justify="left" valign="middle"></words>
        </direction-type>
      </direction>
      <direction>
        <direction-type>
          <words default-x="-94" default-y="-28" enclosure="none" font-family="Junicode" font-size="11.4272" font-style="normal" font-weight="normal" justify="left" valign="middle"></words>
        </direction-type>
      </direction>
      <direction>
        <direction-type>
          <words default-x="75" default-y="-20" enclosure="none" font-family="Opus Std" font-size="11.4272" font-style="normal" font-weight="normal" justify="center" valign="middle"></words>
        </direction-type>
      </direction>
      <note color="#000000" default-x="92">
        <pitch>
          <step>A</step>
          <octave>4</octave>
        </pitch>
        <duration>40320</duration>
        <type>whole</type>
        <notehead color="#000000" parentheses="no">normal</notehead>
        <lyric color="#000000" default-y="-80" name="part1verse1" number="1">
          <syllabic>single</syllabic>
          <text>Gib</text>
        </lyric>
      </note>
    </measure>
    <!--========================= Measure 2 ==========================-->
    <measure number="2" width="84">
      <note color="#000000" default-x="15">
        <pitch>
          <step>A</step>
          <octave>4</octave>
        </pitch>
        <duration>40320</duration>
        <type>whole</type>
        <notehead color="#000000" parentheses="no">normal</notehead>
        <lyric color="#000000" default-y="-80" name="part1verse1" number="1">
          <syllabic>begin</syllabic>
          <text>vn</text>
        </lyric>
      </note>
    </measure>
    <!--========================= Measure 3 ==========================-->
    <measure number="3" width="84">
      <note color="#000000" default-x="15">
        <pitch>
          <step>G</step>
          <octave>4</octave>
        </pitch>
        <duration>40320</duration>
        <type>whole</type>
        <notehead color="#000000" parentheses="no">normal</notehead>
        <lyric color="#000000" default-y="-80" name="part1verse1" number="1">
          <syllabic>end</syllabic>
          <text>serm</text>
        </lyric>
      </note>
    </measure>
    <!--========================= Measure 4 ==========================-->
    <measure number="4" width="90">
      <note color="#000000" default-x="15">
        <pitch>
          <step>C</step>
          <octave>5</octave>
        </pitch>
        <duration>40320</duration>
        <type>whole</type>
        <notehead color="#000000" parentheses="no">normal</notehead>
        <lyric color="#000000" default-y="-80" name="part1verse1" number="1">
          <syllabic>begin</syllabic>
          <text>Fr</text>
        </lyric>
      </note>
    </measure>
    <!--========================= Measure 5 ==========================-->
    <measure number="5" width="84">
      <note color="#000000" default-x="15">
        <pitch>
          <step>C</step>
          <octave>5</octave>
        </pitch>
        <duration>40320</duration>
        <type>whole</type>
        <notehead color="#000000" parentheses="no">normal</notehead>
        <lyric color="#000000" default-y="-80" name="part1verse1" number="1">
          <syllabic>end</syllabic>
          <text>sten/</text>
        </lyric>
      </note>
    </measure>
    <!--========================= Measure 6 ==========================-->
    <measure number="6" width="84">
      <note color="#000000" default-x="15">
        <pitch>
          <step>D</step>
          <octave>5</octave>
        </pitch>
        <duration>40320</duration>
        <type>whole</type>
        <notehead color="#000000" parentheses="no">normal</notehead>
        <lyric color="#000000" default-y="-80" name="part1verse1" number="1">
          <syllabic>single</syllabic>
          <text>vnnd</text>
        </lyric>
      </note>
    </measure>
    <!--========================= Measure 7 ==========================-->
    <measure number="7" width="78">
      <note color="#000000" default-x="15">
        <pitch>
          <step>E</step>
          <octave>5</octave>
        </pitch>
        <duration>40320</duration>
        <type>whole</type>
        <notehead color="#000000" parentheses="no">normal</notehead>
        <lyric color="#000000" default-y="-80" name="part1verse1" number="1">
          <syllabic>begin</syllabic>
          <text>al</text>
        </lyric>
      </note>
    </measure>
    <!--========================= Measure 8 ==========================-->
    <measure number="8" width="90">
      <note color="#000000" default-x="15">
        <pitch>
          <step>C</step>
          <octave>5</octave>
        </pitch>
        <duration>40320</duration>
        <type>whole</type>
        <notehead color="#000000" parentheses="no">normal</notehead>
        <lyric color="#000000" default-y="-80" name="part1verse1" number="1">
          <syllabic>end</syllabic>
          <text>ler</text>
        </lyric>
      </note>
    </measure>
    <!--========================= Measure 9 ==========================-->
    <measure number="9" width="81">
      <note color="#000000" default-x="15">
        <pitch>
          <step>D</step>
          <octave>5</octave>
        </pitch>
        <duration>40320</duration>
        <type>whole</type>
        <notehead color="#000000" parentheses="no">normal</notehead>
        <lyric color="#000000" default-y="-80" name="part1verse1" number="1">
          <syllabic>begin</syllabic>
          <text>O</text>
        </lyric>
      </note>
    </measure>
    <!--========================= Measure 10 =========================-->
    <measure number="10" width="87">
      <note color="#000000" default-x="15">
        <pitch>
          <step>D</step>
          <octave>5</octave>
        </pitch>
        <duration>40320</duration>
        <type>whole</type>
        <notehead color="#000000" parentheses="no">normal</notehead>
        <lyric color="#000000" default-y="-80" name="part1verse1" number="1">
          <syllabic>middle</syllabic>
          <text>brig</text>
        </lyric>
      </note>
    </measure>
    <!--========================= Measure 11 =========================-->
    <measure number="11" width="129">
      <note color="#000000" default-x="15">
        <pitch>
          <step>E</step>
          <octave>5</octave>
        </pitch>
        <duration>40320</duration>
        <type>whole</type>
        <notehead color="#000000" parentheses="no">normal</notehead>
        <lyric color="#000000" default-y="-80" name="part1verse1" number="1">
          <syllabic>end</syllabic>
          <text>keit/</text>
        </lyric>
      </note>
    </measure>
    <!--========================= Measure 12 =========================-->
    <measure number="12" width="92">
      <note color="#000000" default-x="15">
        <pitch>
          <step>E</step>
          <octave>5</octave>
        </pitch>
        <duration>40320</duration>
        <type>whole</type>
        <notehead color="#000000" parentheses="no">normal</notehead>
        <lyric color="#000000" default-y="-80" name="part1verse1" number="1">
          <syllabic>single</syllabic>
          <text>Fried</text>
        </lyric>
      </note>
    </measure>
    <!--========================= Measure 13 =========================-->
    <measure number="13" width="92">
      <note color="#000000" default-x="15">
        <pitch>
          <step>F</step>
          <octave>5</octave>
        </pitch>
        <duration>40320</duration>
        <type>whole</type>
        <notehead color="#000000" parentheses="no">normal</notehead>
        <lyric color="#000000" default-y="-80" name="part1verse1" number="1">
          <syllabic>single</syllabic>
          <text>vnd</text>
        </lyric>
      </note>
    </measure>
    <!--========================= Measure 14 =========================-->
    <measure number="14" width="92">
      <note color="#000000" default-x="15">
        <pitch>
          <step>E</step>
          <octave>5</octave>
        </pitch>
        <duration>40320</duration>
        <type>whole</type>
        <notehead color="#000000" parentheses="no">normal</notehead>
        <lyric color="#000000" default-y="-80" name="part1verse1" number="1">
          <syllabic>single</syllabic>
          <text>gut</text>
        </lyric>
      </note>
    </measure>
    <!--========================= Measure 15 =========================-->
    <measure number="15" width="89">
      <note color="#000000" default-x="15">
        <pitch>
          <step>D</step>
          <octave>5</octave>
        </pitch>
        <duration>40320</duration>
        <type>whole</type>
        <notehead color="#000000" parentheses="no">normal</notehead>
        <lyric color="#000000" default-y="-80" name="part1verse1" number="1">
          <syllabic>begin</syllabic>
          <text>Re</text>
        </lyric>
      </note>
    </measure>
    <!--========================= Measure 16 =========================-->
    <measure number="16" width="84">
      <note color="#000000" default-x="15">
        <pitch>
          <step>D</step>
          <octave>5</octave>
        </pitch>
        <duration>40320</duration>
        <type>whole</type>
        <notehead color="#000000" parentheses="no">normal</notehead>
        <lyric color="#000000" default-y="-80" name="part1verse1" number="1">
          <syllabic>middle</syllabic>
          <text>gi</text>
        </lyric>
      </note>
    </measure>
    <!--========================= Measure 17 =========================-->
    <measure number="17" width="121">
      <note color="#000000" default-x="15">
        <pitch>
          <step>C</step>
          <octave>5</octave>
        </pitch>
        <duration>40320</duration>
        <type>whole</type>
        <notehead color="#000000" parentheses="no">normal</notehead>
        <lyric color="#000000" default-y="-80" name="part1verse1" number="1">
          <syllabic>end</syllabic>
          <text>ment/</text>
        </lyric>
      </note>
    </measure>
    <!--========================= Measure 18 =========================-->
    <measure number="18" width="138">
      <print new-system="yes">
        <system-layout>
          <system-margins>
            <left-margin>21</left-margin>
            <right-margin>0</right-margin>
          </system-margins>
          <system-distance>145</system-distance>
        </system-layout>
        <staff-layout number="1" />
      </print>
      <attributes>
        <staff-details print-object="yes" />
      </attributes>
      <note color="#000000" default-x="57">
        <pitch>
          <step>E</step>
          <octave>5</octave>
        </pitch>
        <duration>40320</duration>
        <type>whole</type>
        <notehead color="#000000" parentheses="no">normal</notehead>
        <lyric color="#000000" default-y="-80" name="part1verse1" number="1">
          <syllabic>single</syllabic>
          <text>daß</text>
        </lyric>
      </note>
    </measure>
    <!--========================= Measure 19 =========================-->
    <measure number="19" width="91">
      <note color="#000000" default-x="15">
        <pitch>
          <step>E</step>
          <octave>5</octave>
        </pitch>
        <duration>40320</duration>
        <type>whole</type>
        <notehead color="#000000" parentheses="no">normal</notehead>
        <lyric color="#000000" default-y="-80" name="part1verse1" number="1">
          <syllabic>single</syllabic>
          <text>wir</text>
        </lyric>
      </note>
    </measure>
    <!--========================= Measure 20 =========================-->
    <measure number="20" width="96">
      <note color="#000000" default-x="15">
        <pitch>
          <step>C</step>
          <alter>1</alter>
          <octave>5</octave>
        </pitch>
        <duration>40320</duration>
        <type>whole</type>
        <accidental>sharp</accidental>
        <notehead color="#000000" parentheses="no">normal</notehead>
        <lyric color="#000000" default-y="-80" name="part1verse1" number="1">
          <syllabic>begin</syllabic>
          <text>vn</text>
        </lyric>
      </note>
    </measure>
    <!--========================= Measure 21 =========================-->
    <measure number="21" width="95">
      <note color="#000000" default-x="15">
        <pitch>
          <step>D</step>
          <octave>5</octave>
        </pitch>
        <duration>40320</duration>
        <type>whole</type>
        <notehead color="#000000" parentheses="no">normal</notehead>
        <lyric color="#000000" default-y="-80" name="part1verse1" number="1">
          <syllabic>end</syllabic>
          <text>ter</text>
        </lyric>
      </note>
    </measure>
    <!--========================= Measure 22 =========================-->
    <measure number="22" width="95">
      <note color="#000000" default-x="15">
        <pitch>
          <step>F</step>
          <octave>5</octave>
        </pitch>
        <duration>40320</duration>
        <type>whole</type>
        <notehead color="#000000" parentheses="no">normal</notehead>
        <lyric color="#000000" default-y="-80" name="part1verse1" number="1">
          <syllabic>begin</syllabic>
          <text>jh</text>
        </lyric>
      </note>
    </measure>
    <!--========================= Measure 23 =========================-->
    <measure number="23" width="97">
      <note color="#000000" default-x="15">
        <pitch>
          <step>E</step>
          <octave>5</octave>
        </pitch>
        <duration>40320</duration>
        <type>whole</type>
        <notehead color="#000000" parentheses="no">normal</notehead>
        <lyric color="#000000" default-y="-80" name="part1verse1" number="1">
          <syllabic>end</syllabic>
          <text>nen/</text>
        </lyric>
      </note>
    </measure>
    <!--========================= Measure 24 =========================-->
    <measure number="24" width="86">
      <note color="#000000" default-x="15">
        <pitch>
          <step>G</step>
          <octave>5</octave>
        </pitch>
        <duration>40320</duration>
        <type>whole</type>
        <notehead color="#000000" parentheses="no">normal</notehead>
        <lyric color="#000000" default-y="-80" name="part1verse1" number="1">
          <syllabic>single</syllabic>
          <text>ein</text>
        </lyric>
      </note>
    </measure>
    <!--========================= Measure 25 =========================-->
    <measure number="25" width="87">
      <note color="#000000" default-x="15">
        <pitch>
          <step>E</step>
          <octave>5</octave>
        </pitch>
        <duration>40320</duration>
        <type>whole</type>
        <notehead color="#000000" parentheses="no">normal</notehead>
        <lyric color="#000000" default-y="-80" name="part1verse1" number="1">
          <syllabic>begin</syllabic>
          <text>ge</text>
        </lyric>
      </note>
    </measure>
    <!--========================= Measure 26 =========================-->
    <measure number="26" width="88">
      <note color="#000000" default-x="15">
        <pitch>
          <step>F</step>
          <octave>5</octave>
        </pitch>
        <duration>40320</duration>
        <type>whole</type>
        <notehead color="#000000" parentheses="no">normal</notehead>
        <lyric color="#000000" default-y="-80" name="part1verse1" number="1">
          <syllabic>middle</syllabic>
          <text>rg</text>
        </lyric>
      </note>
    </measure>
    <!--========================= Measure 27 =========================-->
    <measure number="27" width="87">
      <note color="#000000" default-x="15">
        <pitch>
          <step>E</step>
          <octave>5</octave>
        </pitch>
        <duration>40320</duration>
        <type>whole</type>
        <notehead color="#000000" parentheses="no">normal</notehead>
        <lyric color="#000000" default-y="-80" name="part1verse1" number="1">
          <syllabic>end</syllabic>
          <text>lich</text>
        </lyric>
      </note>
    </measure>
    <!--========================= Measure 28 =========================-->
    <measure number="28" width="93">
      <note color="#000000" default-x="15">
        <pitch>
          <step>D</step>
          <octave>5</octave>
        </pitch>
        <duration>40320</duration>
        <type>whole</type>
        <notehead color="#000000" parentheses="no">normal</notehead>
        <lyric color="#000000" default-y="-80" name="part1verse1" number="1">
          <syllabic>single</syllabic>
          <text>vnnd</text>
        </lyric>
      </note>
    </measure>
    <!--========================= Measure 29 =========================-->
    <measure number="29" width="87">
      <note color="#000000" default-x="15">
        <pitch>
          <step>E</step>
          <octave>5</octave>
        </pitch>
        <duration>40320</duration>
        <type>whole</type>
        <notehead color="#000000" parentheses="no">normal</notehead>
        <lyric color="#000000" default-y="-80" name="part1verse1" number="1">
          <syllabic>begin</syllabic>
          <text>stil</text>
        </lyric>
      </note>
    </measure>
    <!--========================= Measure 30 =========================-->
    <measure number="30" width="89">
      <note color="#000000" default-x="17">
        <pitch>
          <step>E</step>
          <octave>5</octave>
        </pitch>
        <duration>40320</duration>
        <type>whole</type>
        <notehead color="#000000" parentheses="no">normal</notehead>
        <lyric color="#000000" default-y="-80" name="part1verse1" number="1">
          <syllabic>end</syllabic>
          <text>les</text>
        </lyric>
      </note>
    </measure>
    <!--========================= Measure 31 =========================-->
    <measure number="31" width="78">
      <note color="#000000" default-x="15">
        <pitch>
          <step>F</step>
          <octave>5</octave>
        </pitch>
        <duration>40320</duration>
        <type>whole</type>
        <notehead color="#000000" parentheses="no">normal</notehead>
        <lyric color="#000000" default-y="-80" name="part1verse1" number="1">
          <syllabic>begin</syllabic>
          <text>Le</text>
        </lyric>
      </note>
    </measure>
    <!--========================= Measure 32 =========================-->
    <measure number="32" width="80">
      <note color="#000000" default-x="17">
        <pitch>
          <step>E</step>
          <octave>5</octave>
        </pitch>
        <duration>40320</duration>
        <type>whole</type>
        <notehead color="#000000" parentheses="no">normal</notehead>
        <lyric color="#000000" default-y="-80" name="part1verse1" number="1">
          <syllabic>end</syllabic>
          <text>ben</text>
        </lyric>
      </note>
    </measure>
    <!--========================= Measure 33 =========================-->
    <measure number="33" width="85">
      <note color="#000000" default-x="15">
        <pitch>
          <step>G</step>
          <octave>5</octave>
        </pitch>
        <duration>40320</duration>
        <type>whole</type>
        <notehead color="#000000" parentheses="no">normal</notehead>
        <lyric color="#000000" default-y="-80" name="part1verse1" number="1">
          <syllabic>begin</syllabic>
          <text>fh</text>
        </lyric>
      </note>
    </measure>
    <!--========================= Measure 34 =========================-->
    <measure number="34" width="82">
      <note color="#000000" default-x="15">
        <pitch>
          <step>E</step>
          <octave>5</octave>
        </pitch>
        <duration>40320</duration>
        <type>whole</type>
        <notehead color="#000000" parentheses="no">normal</notehead>
        <lyric color="#000000" default-y="-80" name="part1verse1" number="1">
          <syllabic>end</syllabic>
          <text>ren</text>
        </lyric>
      </note>
    </measure>
    <!--========================= Measure 35 =========================-->
    <measure number="35" width="82">
      <note color="#000000" default-x="15">
        <pitch>
          <step>D</step>
          <octave>5</octave>
        </pitch>
        <duration>40320</duration>
        <type>whole</type>
        <notehead color="#000000" parentheses="no">normal</notehead>
        <lyric color="#000000" default-y="-80" name="part1verse1" number="1">
          <syllabic>begin</syllabic>
          <text>m</text>
        </lyric>
      </note>
    </measure>
    <!--========================= Measure 36 =========================-->
    <measure number="36" width="133">
      <note color="#000000" default-x="15">
        <pitch>
          <step>C</step>
          <octave>5</octave>
        </pitch>
        <duration>40320</duration>
        <type>whole</type>
        <notehead color="#000000" parentheses="no">normal</notehead>
        <lyric color="#000000" default-y="-80" name="part1verse1" number="1">
          <syllabic>end</syllabic>
          <text>gen/</text>
        </lyric>
      </note>
    </measure>
    <!--========================= Measure 37 =========================-->
    <measure number="37" width="145">
      <print new-system="yes">
        <system-layout>
          <system-margins>
            <left-margin>21</left-margin>
            <right-margin>0</right-margin>
          </system-margins>
          <system-distance>145</system-distance>
        </system-layout>
        <staff-layout number="1" />
      </print>
      <attributes>
        <staff-details print-object="yes" />
      </attributes>
      <note color="#000000" default-x="57">
        <pitch>
          <step>E</step>
          <octave>5</octave>
        </pitch>
        <duration>40320</duration>
        <type>whole</type>
        <notehead color="#000000" parentheses="no">normal</notehead>
        <lyric color="#000000" default-y="-80" name="part1verse1" number="1">
          <syllabic>single</syllabic>
          <text>Jn</text>
        </lyric>
      </note>
    </measure>
    <!--========================= Measure 38 =========================-->
    <measure number="38" width="96">
      <note color="#000000" default-x="15">
        <pitch>
          <step>E</step>
          <octave>5</octave>
        </pitch>
        <duration>40320</duration>
        <type>whole</type>
        <notehead color="#000000" parentheses="no">normal</notehead>
        <lyric color="#000000" default-y="-80" name="part1verse1" number="1">
          <syllabic>begin</syllabic>
          <text>al</text>
        </lyric>
      </note>
    </measure>
    <!--========================= Measure 39 =========================-->
    <measure number="39" width="88">
      <note color="#000000" default-x="15">
        <pitch>
          <step>C</step>
          <octave>5</octave>
        </pitch>
        <duration>40320</duration>
        <type>whole</type>
        <notehead color="#000000" parentheses="no">normal</notehead>
        <lyric color="#000000" default-y="-80" name="part1verse1" number="1">
          <syllabic>end</syllabic>
          <text>ler</text>
        </lyric>
      </note>
    </measure>
    <!--========================= Measure 40 =========================-->
    <measure number="40" width="96">
      <note color="#000000" default-x="15">
        <pitch>
          <step>D</step>
          <octave>5</octave>
        </pitch>
        <duration>40320</duration>
        <type>whole</type>
        <notehead color="#000000" parentheses="no">normal</notehead>
        <lyric color="#000000" default-y="-80" name="part1verse1" number="1">
          <syllabic>begin</syllabic>
          <text>Gott</text>
        </lyric>
      </note>
    </measure>
    <!--========================= Measure 41 =========================-->
    <measure number="41" width="88">
      <note color="#000000" default-x="15">
        <pitch>
          <step>C</step>
          <octave>5</octave>
        </pitch>
        <duration>40320</duration>
        <type>whole</type>
        <notehead color="#000000" parentheses="no">normal</notehead>
        <lyric color="#000000" default-y="-80" name="part1verse1" number="1">
          <syllabic>middle</syllabic>
          <text>se</text>
        </lyric>
      </note>
    </measure>
    <!--========================= Measure 42 =========================-->
    <measure number="42" width="90">
      <note color="#000000" default-x="17">
        <pitch>
          <step>B</step>
          <octave>4</octave>
        </pitch>
        <duration>40320</duration>
        <type>whole</type>
        <notehead color="#000000" parentheses="no">normal</notehead>
        <lyric color="#000000" default-y="-80" name="part1verse1" number="1">
          <syllabic>middle</syllabic>
          <text>lig</text>
        </lyric>
      </note>
    </measure>
    <!--========================= Measure 43 =========================-->
    <measure number="43" width="96">
      <note color="#000000" default-x="15">
        <pitch>
          <step>A</step>
          <octave>4</octave>
        </pitch>
        <duration>40320</duration>
        <type>whole</type>
        <notehead color="#000000" parentheses="no">normal</notehead>
        <lyric color="#000000" default-y="-80" name="part1verse1" number="1">
          <syllabic>end</syllabic>
          <text>keit</text>
        </lyric>
      </note>
    </measure>
    <!--========================= Measure 44 =========================-->
    <measure number="44" width="110">
      <note color="#000000" default-x="15">
        <pitch>
          <step>G</step>
          <octave>4</octave>
        </pitch>
        <duration>40320</duration>
        <type>whole</type>
        <notehead color="#000000" parentheses="no">normal</notehead>
        <lyric color="#000000" default-y="-80" name="part1verse1" number="1">
          <syllabic>single</syllabic>
          <text>vnd</text>
        </lyric>
      </note>
    </measure>
    <!--========================= Measure 45 =========================-->
    <measure number="45" width="175">
      <note color="#000000" default-x="15">
        <pitch>
          <step>A</step>
          <octave>4</octave>
        </pitch>
        <duration>40320</duration>
        <type>whole</type>
        <notehead color="#000000" parentheses="no">normal</notehead>
        <lyric color="#000000" default-y="-80" name="part1verse1" number="1">
          <syllabic>begin</syllabic>
          <text>Er</text>
        </lyric>
      </note>
      <note color="#000000" default-x="102">
        <pitch>
          <step>B</step>
          <octave>4</octave>
        </pitch>
        <duration>40320</duration>
        <type>whole</type>
        <notehead color="#000000" parentheses="no">normal</notehead>
      </note>
    </measure>
    <!--========================= Measure 46 =========================-->
    <measure number="46" width="170">
      <note color="#000000" default-x="15">
        <pitch>
          <step>C</step>
          <octave>5</octave>
        </pitch>
        <duration>40320</duration>
        <type>whole</type>
        <notehead color="#000000" parentheses="no">normal</notehead>
      </note>
      <note color="#000000" default-x="96">
        <pitch>
          <step>A</step>
          <octave>4</octave>
        </pitch>
        <duration>40320</duration>
        <type>whole</type>
        <notehead color="#000000" parentheses="no">normal</notehead>
        <lyric color="#000000" default-y="-80" name="part1verse1" number="1">
          <syllabic>middle</syllabic>
          <text>bar</text>
        </lyric>
      </note>
    </measure>
    <!--========================= Measure 47 =========================-->
    <measure number="47" width="255">
      <note color="#000000" default-x="15">
        <pitch>
          <step>A</step>
          <octave>4</octave>
        </pitch>
        <duration>40320</duration>
        <tie type="start" />
        <type>whole</type>
        <notehead color="#000000" parentheses="no">normal</notehead>
        <notations>
          <tied type="start" />
        </notations>
        <lyric color="#000000" default-y="-80" name="part1verse1" number="1">
          <syllabic>end</syllabic>
          <text>keit.</text>
        </lyric>
      </note>
      <barline location="right">
        <bar-style>light-heavy</bar-style>
      </barline>
    </measure>
  </part>
</score-partwise>