<?xml version="1.0" encoding="utf-8"?>
<!DOCTYPE score-partwise  PUBLIC "-//Recordare//DTD MusicXML 3.0 Partwise//EN" "http://www.musicxml.org/dtds/partwise.dtd">
<score-partwise version="3.0">
  <work>
    <work-title>XCV. [ohne Titel]</work-title>
  </work>
  <movement-title>CaSe_95_UNSP_UNSP_DanketdemH_005_00100.mxl</movement-title>
  <identification>
    <creator type="composer">(Seth Calvisius)
Nach einem Tenor-C. f.-Satz
von Petrus Tritonius [?] 1532</creator>
    <rights>Copyright ©</rights>
    <encoding>
      <encoding-date>2021-05-03</encoding-date>
      <software>music21 v.6.7.1</software>
      <software>Sibelius 20.3.0</software>
      <software>Direct export, not from Dolet</software>
      <supports attribute="new-system" element="print" type="yes" value="yes" />
      <supports attribute="new-page" element="print" type="yes" value="yes" />
    </encoding>
  </identification>
  <defaults>
    <scaling>
      <millimeters>210</millimeters>
      <tenths>2100</tenths>
    </scaling>
    <page-layout>
      <page-height>2970</page-height>
      <page-width>2100</page-width>
      <page-margins>
        <left-margin>150</left-margin>
        <right-margin>150</right-margin>
        <top-margin>150</top-margin>
        <bottom-margin>150</bottom-margin>
      </page-margins>
    </page-layout>
    <system-layout>
      <system-margins>
        <left-margin>45</left-margin>
        <right-margin>0</right-margin>
      </system-margins>
      <system-distance>92</system-distance>
    </system-layout>
    <appearance>
      <line-width type="stem">0.9375</line-width>
      <line-width type="beam">5</line-width>
      <line-width type="staff">0.9375</line-width>
      <line-width type="light barline">1.5625</line-width>
      <line-width type="heavy barline">5</line-width>
      <line-width type="leger">1.5625</line-width>
      <line-width type="ending">1.5625</line-width>
      <line-width type="wedge">1.25</line-width>
      <line-width type="enclosure">0.9375</line-width>
      <line-width type="tuplet bracket">1.25</line-width>
      <line-width type="bracket">5</line-width>
      <line-width type="dashes">1.5625</line-width>
      <line-width type="extend">0.9375</line-width>
      <line-width type="octave shift">1.5625</line-width>
      <line-width type="pedal">1.5625</line-width>
      <line-width type="slur middle">1.5625</line-width>
      <line-width type="slur tip">0.625</line-width>
      <line-width type="tie middle">1.5625</line-width>
      <line-width type="tie tip">0.625</line-width>
      <note-size type="cue">75</note-size>
      <note-size type="grace">60</note-size>
    </appearance>
    <music-font font-family="Opus Std" font-size="11.3386" />
    <word-font font-family="Times New Roman" font-size="6.8209" />
    <lyric-font font-family="Junicode" font-size="7.9724" />
    <lyric-language xml:lang="de" />
  </defaults>
  <credit page="1">
    <credit-words default-x="1050" default-y="165" font-family="Junicode" font-size="12.5787" font-style="normal" font-weight="normal" justify="center" valign="middle">XCV. [ohne Titel]</credit-words>
  </credit>
  <credit page="1">
    <credit-words default-x="1050" default-y="123" font-family="Junicode" font-size="7.9724" font-style="italic" font-weight="normal" justify="center" valign="middle">Danket dem HErren, denn er ist sehr freundlich</credit-words>
  </credit>
  <credit page="1">
    <credit-words default-x="1950" default-y="168" font-family="Junicode" font-size="6.2894" font-style="normal" font-weight="normal" justify="right" valign="middle">(Seth Calvisius)</credit-words>
    <credit-words>Nach einem Tenor-C. f.-Satz</credit-words>
    <credit-words>von Petrus Tritonius [?] 1532</credit-words>
  </credit>
  <part-list>
    <part-group number="1" type="start">
      <group-symbol>bracket</group-symbol>
      <group-barline>yes</group-barline>
    </part-group>
    <score-part id="P1">
      <part-name>P1</part-name>
      <part-abbreviation>S.</part-abbreviation>
      <score-instrument id="Ib271b53c92d2605c912a66d58ff2f604">
        <instrument-name>Soprano</instrument-name>
      </score-instrument>
    </score-part>
    <score-part id="P2">
      <part-name>P2</part-name>
      <part-abbreviation>A.</part-abbreviation>
      <score-instrument id="I3676e0e7a6e2909b615b87b79312bf9a">
        <instrument-name>Alto</instrument-name>
      </score-instrument>
    </score-part>
    <score-part id="P3">
      <part-name>P3</part-name>
      <part-abbreviation>T.</part-abbreviation>
      <score-instrument id="I82afeface1a6bae4aaf653416537f65a">
        <instrument-name>Tenor</instrument-name>
      </score-instrument>
    </score-part>
    <score-part id="P4">
      <part-name>P4</part-name>
      <part-abbreviation>B.</part-abbreviation>
      <score-instrument id="I02aeec3740aba8185c9b21a227e73cd2">
        <instrument-name>Bass (2)</instrument-name>
      </score-instrument>
    </score-part>
    <part-group number="1" type="stop" />
  </part-list>
  <!--=========================== Part 1 ===========================-->
  <part id="P1">
    <!--========================= Measure 1 ==========================-->
    <measure number="1" width="146">
      <print new-page="yes">
        <system-layout>
          <system-margins>
            <left-margin>164</left-margin>
            <right-margin>0</right-margin>
          </system-margins>
          <top-system-distance>176</top-system-distance>
        </system-layout>
        <staff-layout number="1" />
      </print>
      <attributes>
        <divisions>10080</divisions>
        <key color="#000000">
          <fifths>-1</fifths>
          <mode>major</mode>
        </key>
        <time color="#000000" symbol="cut">
          <beats>2</beats>
          <beat-type>2</beat-type>
        </time>
        <clef color="#000000">
          <sign>G</sign>
          <line>2</line>
        </clef>
        <staff-details print-object="yes" />
      </attributes>
      <direction>
        <direction-type>
          <words default-x="-135" default-y="-40" enclosure="none" font-family="capella-Renaissance" font-size="12.5787" font-style="normal" font-weight="normal" justify="left" valign="middle"></words>
        </direction-type>
      </direction>
      <direction>
        <direction-type>
          <words default-x="-112" default-y="-10" enclosure="none" font-family="capellaMittelalter" font-size="12.5787" font-style="normal" font-weight="normal" justify="left" valign="middle"></words>
        </direction-type>
      </direction>
      <direction>
        <direction-type>
          <words default-x="-87" default-y="-20" enclosure="none" font-family="capellaMittelalter" font-size="12.5787" font-style="normal" font-weight="normal" justify="left" valign="middle"></words>
        </direction-type>
      </direction>
      <note color="#000000" default-x="93">
        <pitch>
          <step>G</step>
          <octave>4</octave>
        </pitch>
        <duration>40320</duration>
        <type>whole</type>
        <notehead color="#000000" parentheses="no">normal</notehead>
        <lyric color="#000000" default-y="-80" name="part1verse1" number="1">
          <syllabic>begin</syllabic>
          <text>Dan</text>
        </lyric>
      </note>
    </measure>
    <!--========================= Measure 2 ==========================-->
    <measure number="2" width="70">
      <note color="#000000" default-x="15">
        <pitch>
          <step>B</step>
          <alter>-1</alter>
          <octave>4</octave>
        </pitch>
        <duration>40320</duration>
        <type>whole</type>
        <notehead color="#000000" parentheses="no">normal</notehead>
        <lyric color="#000000" default-y="-80" name="part1verse1" number="1">
          <syllabic>end</syllabic>
          <text>cket</text>
        </lyric>
      </note>
    </measure>
    <!--========================= Measure 3 ==========================-->
    <measure number="3" width="66">
      <note color="#000000" default-x="13">
        <pitch>
          <step>A</step>
          <octave>4</octave>
        </pitch>
        <duration>40320</duration>
        <type>whole</type>
        <notehead color="#000000" parentheses="no">normal</notehead>
        <lyric color="#000000" default-y="-80" name="part1verse1" number="1">
          <syllabic>single</syllabic>
          <text>dem</text>
        </lyric>
      </note>
    </measure>
    <!--========================= Measure 4 ==========================-->
    <measure number="4" width="110">
      <note color="#000000" default-x="15" default-y="15">
        <pitch>
          <step>B</step>
          <alter>-1</alter>
          <octave>4</octave>
        </pitch>
        <duration>20160</duration>
        <type>half</type>
        <stem>up</stem>
        <notehead color="#000000" parentheses="no">normal</notehead>
        <lyric color="#000000" default-y="-80" name="part1verse1" number="1">
          <syllabic>begin</syllabic>
          <text>HEr</text>
        </lyric>
      </note>
      <note color="#000000" default-x="70" default-y="-50">
        <pitch>
          <step>C</step>
          <octave>5</octave>
        </pitch>
        <duration>20160</duration>
        <type>half</type>
        <stem>down</stem>
        <notehead color="#000000" parentheses="no">normal</notehead>
        <lyric color="#000000" default-y="-80" name="part1verse1" number="1">
          <syllabic>end</syllabic>
          <text>ren/</text>
        </lyric>
      </note>
    </measure>
    <!--========================= Measure 5 ==========================-->
    <measure number="5" width="133">
      <note color="#000000" default-x="15">
        <pitch>
          <step>D</step>
          <octave>5</octave>
        </pitch>
        <duration>40320</duration>
        <type>whole</type>
        <notehead color="#000000" parentheses="no">normal</notehead>
        <lyric color="#000000" default-y="-80" name="part1verse1" number="1">
          <syllabic>single</syllabic>
          <text>denn</text>
        </lyric>
      </note>
      <note color="#000000" default-x="93" default-y="-45">
        <pitch>
          <step>D</step>
          <octave>5</octave>
        </pitch>
        <duration>20160</duration>
        <type>half</type>
        <stem>down</stem>
        <notehead color="#000000" parentheses="no">normal</notehead>
        <lyric color="#000000" default-y="-80" name="part1verse1" number="1">
          <syllabic>single</syllabic>
          <text>er</text>
        </lyric>
      </note>
    </measure>
    <!--========================= Measure 6 ==========================-->
    <measure number="6" width="123">
      <note color="#000000" default-x="13">
        <pitch>
          <step>C</step>
          <octave>5</octave>
        </pitch>
        <duration>40320</duration>
        <type>whole</type>
        <notehead color="#000000" parentheses="no">normal</notehead>
        <lyric color="#000000" default-y="-80" name="part1verse1" number="1">
          <syllabic>single</syllabic>
          <text>ist</text>
        </lyric>
      </note>
      <note color="#000000" default-x="79" default-y="15">
        <pitch>
          <step>B</step>
          <alter>-1</alter>
          <octave>4</octave>
        </pitch>
        <duration>20160</duration>
        <type>half</type>
        <stem>up</stem>
        <notehead color="#000000" parentheses="no">normal</notehead>
        <lyric color="#000000" default-y="-80" name="part1verse1" number="1">
          <syllabic>single</syllabic>
          <text>sehr</text>
        </lyric>
      </note>
    </measure>
    <!--========================= Measure 7 ==========================-->
    <measure number="7" width="85">
      <note color="#000000" default-x="15">
        <pitch>
          <step>A</step>
          <octave>4</octave>
        </pitch>
        <duration>40320</duration>
        <type>whole</type>
        <notehead color="#000000" parentheses="no">normal</notehead>
        <lyric color="#000000" default-y="-80" name="part1verse1" number="1">
          <syllabic>begin</syllabic>
          <text>freund</text>
        </lyric>
      </note>
    </measure>
    <!--========================= Measure 8 ==========================-->
    <measure number="8" width="88">
      <note color="#000000" default-x="15">
        <pitch>
          <step>A</step>
          <octave>4</octave>
        </pitch>
        <duration>40320</duration>
        <type>whole</type>
        <notehead color="#000000" parentheses="no">normal</notehead>
        <lyric color="#000000" default-y="-80" name="part1verse1" number="1">
          <syllabic>end</syllabic>
          <text>lich/</text>
        </lyric>
      </note>
    </measure>
    <!--========================= Measure 9 ==========================-->
    <measure number="9" width="76">
      <note color="#000000" default-x="15">
        <pitch>
          <step>A</step>
          <octave>4</octave>
        </pitch>
        <duration>40320</duration>
        <type>whole</type>
        <notehead color="#000000" parentheses="no">normal</notehead>
        <lyric color="#000000" default-y="-80" name="part1verse1" number="1">
          <syllabic>single</syllabic>
          <text>Vnd</text>
        </lyric>
      </note>
    </measure>
    <!--========================= Measure 10 =========================-->
    <measure number="10" width="72">
      <note color="#000000" default-x="15">
        <pitch>
          <step>B</step>
          <alter>-1</alter>
          <octave>4</octave>
        </pitch>
        <duration>40320</duration>
        <type>whole</type>
        <notehead color="#000000" parentheses="no">normal</notehead>
        <lyric color="#000000" default-y="-80" name="part1verse1" number="1">
          <syllabic>begin</syllabic>
          <text>sei</text>
        </lyric>
      </note>
    </measure>
    <!--========================= Measure 11 =========================-->
    <measure number="11" width="70">
      <note color="#000000" default-x="15">
        <pitch>
          <step>C</step>
          <octave>5</octave>
        </pitch>
        <duration>40320</duration>
        <type>whole</type>
        <notehead color="#000000" parentheses="no">normal</notehead>
        <lyric color="#000000" default-y="-80" name="part1verse1" number="1">
          <syllabic>end</syllabic>
          <text>ne</text>
        </lyric>
      </note>
    </measure>
    <!--========================= Measure 12 =========================-->
    <measure number="12" width="104">
      <note color="#000000" default-x="15" default-y="-50">
        <pitch>
          <step>C</step>
          <octave>5</octave>
        </pitch>
        <duration>20160</duration>
        <type>half</type>
        <stem>down</stem>
        <notehead color="#000000" parentheses="no">normal</notehead>
        <lyric color="#000000" default-y="-80" name="part1verse1" number="1">
          <syllabic>single</syllabic>
          <text>Gt</text>
        </lyric>
      </note>
      <note color="#000000" default-x="68" default-y="15">
        <pitch>
          <step>B</step>
          <alter>-1</alter>
          <octave>4</octave>
        </pitch>
        <duration>20160</duration>
        <type>half</type>
        <stem>up</stem>
        <notehead color="#000000" parentheses="no">normal</notehead>
        <lyric color="#000000" default-y="-80" name="part1verse1" number="1">
          <syllabic>single</syllabic>
          <text>vnd</text>
        </lyric>
      </note>
    </measure>
    <!--========================= Measure 13 =========================-->
    <measure number="13" width="124">
      <note color="#000000" default-x="18">
        <pitch>
          <step>A</step>
          <octave>4</octave>
        </pitch>
        <duration>40320</duration>
        <type>whole</type>
        <notehead color="#000000" parentheses="no">normal</notehead>
        <lyric color="#000000" default-y="-80" name="part1verse1" number="1">
          <syllabic>begin</syllabic>
          <text>War</text>
        </lyric>
      </note>
      <note color="#000000" default-x="88" default-y="5">
        <pitch>
          <step>G</step>
          <octave>4</octave>
        </pitch>
        <duration>20160</duration>
        <type>half</type>
        <stem>up</stem>
        <notehead color="#000000" parentheses="no">normal</notehead>
        <lyric color="#000000" default-y="-80" name="part1verse1" number="1">
          <syllabic>end</syllabic>
          <text>heit</text>
        </lyric>
      </note>
    </measure>
    <!--========================= Measure 14 =========================-->
    <measure number="14" width="99">
      <note color="#000000" default-x="15">
        <pitch>
          <step>F</step>
          <octave>4</octave>
        </pitch>
        <duration>40320</duration>
        <type>whole</type>
        <notehead color="#000000" parentheses="no">normal</notehead>
        <lyric color="#000000" default-y="-80" name="part1verse1" number="1">
          <syllabic>begin</syllabic>
          <text>blei</text>
        </lyric>
      </note>
    </measure>
    <!--========================= Measure 15 =========================-->
    <measure number="15" width="161">
      <direction>
        <direction-type>
          <words default-x="27" default-y="55" enclosure="none" font-family="Times New Roman" font-size="5.7579" font-style="normal" font-weight="normal" justify="left" valign="middle">(4.,6.+7. Str.)</words>
        </direction-type>
      </direction>
      <note color="#000000" default-x="16" default-y="5">
        <pitch>
          <step>G</step>
          <octave>4</octave>
        </pitch>
        <duration>20160</duration>
        <type>half</type>
        <stem>up</stem>
        <notehead color="#000000" parentheses="no">normal</notehead>
        <lyric color="#000000" default-y="-80" name="part1verse1" number="1">
          <syllabic>end</syllabic>
          <text>bet</text>
        </lyric>
      </note>
      <note color="#000000" default-x="64" default-y="10">
        <pitch>
          <step>A</step>
          <octave>4</octave>
        </pitch>
        <duration>20160</duration>
        <type>half</type>
        <stem>up</stem>
        <notehead color="#000000" parentheses="no">normal</notehead>
        <lyric color="#000000" default-y="-80" name="part1verse1" number="1">
          <syllabic>begin</syllabic>
          <text>E</text>
        </lyric>
      </note>
      <note color="#000000" default-x="117" default-y="10">
        <pitch>
          <step>A</step>
          <octave>4</octave>
        </pitch>
        <duration>20160</duration>
        <type>half</type>
        <stem>up</stem>
        <notehead color="#000000" parentheses="no">normal</notehead>
        <lyric color="#000000" default-y="-80" name="part1verse1" number="1">
          <syllabic>middle</syllabic>
          <text>wig</text>
        </lyric>
      </note>
    </measure>
    <!--========================= Measure 16 =========================-->
    <measure number="16" width="102">
      <note color="#000000" default-x="15">
        <pitch>
          <step>G</step>
          <octave>4</octave>
        </pitch>
        <duration>40320</duration>
        <tie type="start" />
        <type>whole</type>
        <notehead color="#000000" parentheses="no">normal</notehead>
        <notations>
          <tied type="start" />
        </notations>
        <lyric color="#000000" default-y="-80" name="part1verse1" number="1">
          <syllabic>end</syllabic>
          <text>lich.</text>
        </lyric>
      </note>
      <barline location="right">
        <bar-style>light-heavy</bar-style>
      </barline>
    </measure>
  </part>
  <!--=========================== Part 2 ===========================-->
  <part id="P2">
    <!--========================= Measure 1 ==========================-->
    <measure number="1" width="146">
      <print new-page="yes">
        <system-layout>
          <system-margins>
            <left-margin>164</left-margin>
            <right-margin>0</right-margin>
          </system-margins>
        </system-layout>
        <staff-layout number="1">
          <staff-distance>80</staff-distance>
        </staff-layout>
      </print>
      <attributes>
        <divisions>10080</divisions>
        <key color="#000000">
          <fifths>-1</fifths>
          <mode>major</mode>
        </key>
        <time color="#000000" symbol="cut">
          <beats>2</beats>
          <beat-type>2</beat-type>
        </time>
        <clef color="#000000">
          <sign>G</sign>
          <line>2</line>
        </clef>
        <staff-details print-object="yes" />
      </attributes>
      <direction>
        <direction-type>
          <words default-x="-135" default-y="-30" enclosure="none" font-family="capella-Renaissance" font-size="12.5787" font-style="normal" font-weight="normal" justify="left" valign="middle"></words>
        </direction-type>
      </direction>
      <direction>
        <direction-type>
          <words default-x="-112" enclosure="none" font-family="capellaMittelalter" font-size="12.5787" font-style="normal" font-weight="normal" justify="left" valign="middle"></words>
        </direction-type>
      </direction>
      <direction>
        <direction-type>
          <words default-x="-112" default-y="-35" enclosure="none" font-family="capellaMittelalter" font-size="12.5787" font-style="normal" font-weight="normal" justify="left" valign="middle"></words>
        </direction-type>
      </direction>
      <direction>
        <direction-type>
          <words default-x="-87" default-y="-20" enclosure="none" font-family="capellaMittelalter" font-size="12.5787" font-style="normal" font-weight="normal" justify="left" valign="middle"></words>
        </direction-type>
      </direction>
      <note color="#000000" default-x="93">
        <pitch>
          <step>G</step>
          <octave>4</octave>
        </pitch>
        <duration>40320</duration>
        <type>whole</type>
        <notehead color="#000000" parentheses="no">normal</notehead>
        <lyric color="#000000" default-y="-80" name="part2verse1" number="1">
          <syllabic>begin</syllabic>
          <text>Dan</text>
        </lyric>
      </note>
    </measure>
    <!--========================= Measure 2 ==========================-->
    <measure number="2" width="70">
      <note color="#000000" default-x="15">
        <pitch>
          <step>G</step>
          <octave>4</octave>
        </pitch>
        <duration>40320</duration>
        <type>whole</type>
        <notehead color="#000000" parentheses="no">normal</notehead>
        <lyric color="#000000" default-y="-80" name="part2verse1" number="1">
          <syllabic>end</syllabic>
          <text>cket</text>
        </lyric>
      </note>
    </measure>
    <!--========================= Measure 3 ==========================-->
    <measure number="3" width="66">
      <note color="#000000" default-x="13">
        <pitch>
          <step>F</step>
          <alter>1</alter>
          <octave>4</octave>
        </pitch>
        <duration>40320</duration>
        <type>whole</type>
        <accidental>sharp</accidental>
        <notehead color="#000000" parentheses="no">normal</notehead>
        <lyric color="#000000" default-y="-80" name="part2verse1" number="1">
          <syllabic>single</syllabic>
          <text>dem</text>
        </lyric>
      </note>
    </measure>
    <!--========================= Measure 4 ==========================-->
    <measure number="4" width="110">
      <note color="#000000" default-x="15" default-y="5">
        <pitch>
          <step>G</step>
          <octave>4</octave>
        </pitch>
        <duration>20160</duration>
        <type>half</type>
        <stem>up</stem>
        <notehead color="#000000" parentheses="no">normal</notehead>
        <lyric color="#000000" default-y="-80" name="part2verse1" number="1">
          <syllabic>begin</syllabic>
          <text>HEr</text>
        </lyric>
      </note>
      <note color="#000000" default-x="70" default-y="10">
        <pitch>
          <step>A</step>
          <octave>4</octave>
        </pitch>
        <duration>20160</duration>
        <type>half</type>
        <stem>up</stem>
        <notehead color="#000000" parentheses="no">normal</notehead>
        <lyric color="#000000" default-y="-80" name="part2verse1" number="1">
          <syllabic>end</syllabic>
          <text>ren/</text>
        </lyric>
      </note>
    </measure>
    <!--========================= Measure 5 ==========================-->
    <measure number="5" width="133">
      <note color="#000000" default-x="15">
        <pitch>
          <step>B</step>
          <alter>-1</alter>
          <octave>4</octave>
        </pitch>
        <duration>40320</duration>
        <type>whole</type>
        <notehead color="#000000" parentheses="no">normal</notehead>
        <lyric color="#000000" default-y="-80" name="part2verse1" number="1">
          <syllabic>single</syllabic>
          <text>denn</text>
        </lyric>
      </note>
      <note color="#000000" default-x="93" default-y="15">
        <pitch>
          <step>B</step>
          <alter>-1</alter>
          <octave>4</octave>
        </pitch>
        <duration>20160</duration>
        <type>half</type>
        <stem>up</stem>
        <notehead color="#000000" parentheses="no">normal</notehead>
        <lyric color="#000000" default-y="-80" name="part2verse1" number="1">
          <syllabic>single</syllabic>
          <text>er</text>
        </lyric>
      </note>
    </measure>
    <!--========================= Measure 6 ==========================-->
    <measure number="6" width="123">
      <note color="#000000" default-x="13">
        <pitch>
          <step>A</step>
          <octave>4</octave>
        </pitch>
        <duration>40320</duration>
        <type>whole</type>
        <notehead color="#000000" parentheses="no">normal</notehead>
        <lyric color="#000000" default-y="-80" name="part2verse1" number="1">
          <syllabic>single</syllabic>
          <text>ist</text>
        </lyric>
      </note>
      <note color="#000000" default-x="79" default-y="5">
        <pitch>
          <step>G</step>
          <octave>4</octave>
        </pitch>
        <duration>20160</duration>
        <type>half</type>
        <stem>up</stem>
        <notehead color="#000000" parentheses="no">normal</notehead>
        <lyric color="#000000" default-y="-80" name="part2verse1" number="1">
          <syllabic>single</syllabic>
          <text>sehr</text>
        </lyric>
      </note>
    </measure>
    <!--========================= Measure 7 ==========================-->
    <measure number="7" width="85">
      <note color="#000000" default-x="15">
        <pitch>
          <step>F</step>
          <alter>1</alter>
          <octave>4</octave>
        </pitch>
        <duration>40320</duration>
        <type>whole</type>
        <accidental>sharp</accidental>
        <notehead color="#000000" parentheses="no">normal</notehead>
        <lyric color="#000000" default-y="-80" name="part2verse1" number="1">
          <syllabic>begin</syllabic>
          <text>freund</text>
        </lyric>
      </note>
    </measure>
    <!--========================= Measure 8 ==========================-->
    <measure number="8" width="88">
      <note color="#000000" default-x="15">
        <pitch>
          <step>F</step>
          <octave>4</octave>
        </pitch>
        <duration>40320</duration>
        <type>whole</type>
        <notehead color="#000000" parentheses="no">normal</notehead>
        <lyric color="#000000" default-y="-80" name="part2verse1" number="1">
          <syllabic>end</syllabic>
          <text>lich/</text>
        </lyric>
      </note>
    </measure>
    <!--========================= Measure 9 ==========================-->
    <measure number="9" width="76">
      <note color="#000000" default-x="15">
        <pitch>
          <step>F</step>
          <octave>4</octave>
        </pitch>
        <duration>40320</duration>
        <type>whole</type>
        <notehead color="#000000" parentheses="no">normal</notehead>
        <lyric color="#000000" default-y="-80" name="part2verse1" number="1">
          <syllabic>single</syllabic>
          <text>Vnd</text>
        </lyric>
      </note>
    </measure>
    <!--========================= Measure 10 =========================-->
    <measure number="10" width="72">
      <note color="#000000" default-x="15">
        <pitch>
          <step>G</step>
          <octave>4</octave>
        </pitch>
        <duration>40320</duration>
        <type>whole</type>
        <notehead color="#000000" parentheses="no">normal</notehead>
        <lyric color="#000000" default-y="-80" name="part2verse1" number="1">
          <syllabic>begin</syllabic>
          <text>sei</text>
        </lyric>
      </note>
    </measure>
    <!--========================= Measure 11 =========================-->
    <measure number="11" width="70">
      <note color="#000000" default-x="15">
        <pitch>
          <step>A</step>
          <octave>4</octave>
        </pitch>
        <duration>40320</duration>
        <type>whole</type>
        <notehead color="#000000" parentheses="no">normal</notehead>
        <lyric color="#000000" default-y="-80" name="part2verse1" number="1">
          <syllabic>end</syllabic>
          <text>ne</text>
        </lyric>
      </note>
    </measure>
    <!--========================= Measure 12 =========================-->
    <measure number="12" width="104">
      <note color="#000000" default-x="15" default-y="10">
        <pitch>
          <step>A</step>
          <octave>4</octave>
        </pitch>
        <duration>20160</duration>
        <type>half</type>
        <stem>up</stem>
        <notehead color="#000000" parentheses="no">normal</notehead>
        <lyric color="#000000" default-y="-80" name="part2verse1" number="1">
          <syllabic>single</syllabic>
          <text>Gt</text>
        </lyric>
      </note>
      <note color="#000000" default-x="68" default-y="5">
        <pitch>
          <step>G</step>
          <octave>4</octave>
        </pitch>
        <duration>20160</duration>
        <type>half</type>
        <stem>up</stem>
        <notehead color="#000000" parentheses="no">normal</notehead>
        <lyric color="#000000" default-y="-80" name="part2verse1" number="1">
          <syllabic>single</syllabic>
          <text>vnd</text>
        </lyric>
      </note>
    </measure>
    <!--========================= Measure 13 =========================-->
    <measure number="13" width="124">
      <note color="#000000" default-x="18">
        <pitch>
          <step>F</step>
          <octave>4</octave>
        </pitch>
        <duration>40320</duration>
        <type>whole</type>
        <notehead color="#000000" parentheses="no">normal</notehead>
        <lyric color="#000000" default-y="-80" name="part2verse1" number="1">
          <syllabic>begin</syllabic>
          <text>War</text>
        </lyric>
      </note>
      <note color="#000000" default-x="88" default-y="-5">
        <pitch>
          <step>E</step>
          <alter>-1</alter>
          <octave>4</octave>
        </pitch>
        <duration>20160</duration>
        <type>half</type>
        <accidental>flat</accidental>
        <stem>up</stem>
        <notehead color="#000000" parentheses="no">normal</notehead>
        <lyric color="#000000" default-y="-80" name="part2verse1" number="1">
          <syllabic>end</syllabic>
          <text>heit</text>
        </lyric>
      </note>
    </measure>
    <!--========================= Measure 14 =========================-->
    <measure number="14" width="99">
      <note color="#000000" default-x="15" default-y="-10">
        <pitch>
          <step>D</step>
          <octave>4</octave>
        </pitch>
        <duration>20160</duration>
        <type>half</type>
        <stem>up</stem>
        <notehead color="#000000" parentheses="no">normal</notehead>
        <lyric color="#000000" default-y="-80" name="part2verse1" number="1">
          <syllabic>begin</syllabic>
          <text>blei</text>
        </lyric>
      </note>
      <note color="#000000" default-x="70" default-y="-15">
        <pitch>
          <step>C</step>
          <octave>4</octave>
        </pitch>
        <duration>20160</duration>
        <type>half</type>
        <stem>up</stem>
        <notehead color="#000000" parentheses="no">normal</notehead>
        <lyric color="#000000" default-y="-80" name="part2verse1" number="1">
          <syllabic>end</syllabic>
          <text>bet</text>
        </lyric>
      </note>
    </measure>
    <!--========================= Measure 15 =========================-->
    <measure number="15" width="161">
      <note color="#000000" default-x="16">
        <pitch>
          <step>G</step>
          <octave>4</octave>
        </pitch>
        <duration>40320</duration>
        <type>whole</type>
        <notehead color="#000000" parentheses="no">normal</notehead>
        <lyric color="#000000" default-y="-80" name="part2verse1" number="1">
          <syllabic>begin</syllabic>
          <text>E</text>
        </lyric>
      </note>
      <note color="#000000" default-x="117">
        <pitch>
          <step>F</step>
          <alter>1</alter>
          <octave>4</octave>
        </pitch>
        <duration>20160</duration>
        <type>half</type>
        <accidental>sharp</accidental>
        <stem>up</stem>
        <notehead color="#000000" parentheses="no">normal</notehead>
        <lyric color="#000000" default-y="-80" name="part2verse1" number="1">
          <syllabic>middle</syllabic>
          <text>wig</text>
        </lyric>
      </note>
    </measure>
    <!--========================= Measure 16 =========================-->
    <measure number="16" width="102">
      <note color="#000000" default-x="15">
        <pitch>
          <step>G</step>
          <octave>4</octave>
        </pitch>
        <duration>40320</duration>
        <tie type="start" />
        <type>whole</type>
        <notehead color="#000000" parentheses="no">normal</notehead>
        <notations>
          <tied type="start" />
        </notations>
        <lyric color="#000000" default-y="-80" name="part2verse1" number="1">
          <syllabic>end</syllabic>
          <text>lich.</text>
        </lyric>
      </note>
      <barline location="right">
        <bar-style>light-heavy</bar-style>
      </barline>
    </measure>
  </part>
  <!--=========================== Part 3 ===========================-->
  <part id="P3">
    <!--========================= Measure 1 ==========================-->
    <measure number="1" width="146">
      <print new-page="yes">
        <system-layout>
          <system-margins>
            <left-margin>164</left-margin>
            <right-margin>0</right-margin>
          </system-margins>
        </system-layout>
        <staff-layout number="1">
          <staff-distance>80</staff-distance>
        </staff-layout>
      </print>
      <attributes>
        <divisions>10080</divisions>
        <key color="#000000">
          <fifths>-1</fifths>
          <mode>major</mode>
        </key>
        <time color="#000000" symbol="cut">
          <beats>2</beats>
          <beat-type>2</beat-type>
        </time>
        <clef color="#000000">
          <sign>G</sign>
          <line>2</line>
          <clef-octave-change>-1</clef-octave-change>
        </clef>
        <staff-details print-object="yes" />
        <transpose>
          <diatonic>0</diatonic>
          <chromatic>0</chromatic>
          <octave-change>-1</octave-change>
        </transpose>
      </attributes>
      <direction>
        <direction-type>
          <words default-x="-135" default-y="-20" enclosure="none" font-family="capella-Renaissance" font-size="12.5787" font-style="normal" font-weight="normal" justify="left" valign="middle"></words>
        </direction-type>
      </direction>
      <direction>
        <direction-type>
          <words default-x="-112" default-y="-25" enclosure="none" font-family="capellaMittelalter" font-size="12.5787" font-style="normal" font-weight="normal" justify="left" valign="middle"></words>
        </direction-type>
      </direction>
      <direction>
        <direction-type>
          <words default-x="-87" default-y="-20" enclosure="none" font-family="capellaMittelalter" font-size="12.5787" font-style="normal" font-weight="normal" justify="left" valign="middle"></words>
        </direction-type>
      </direction>
      <note color="#000000" default-x="93">
        <pitch>
          <step>D</step>
          <octave>4</octave>
        </pitch>
        <duration>40320</duration>
        <type>whole</type>
        <notehead color="#000000" parentheses="no">normal</notehead>
        <lyric color="#000000" default-y="-80" name="part3verse1" number="1">
          <syllabic>begin</syllabic>
          <text>Dan</text>
        </lyric>
      </note>
    </measure>
    <!--========================= Measure 2 ==========================-->
    <measure number="2" width="70">
      <note color="#000000" default-x="15">
        <pitch>
          <step>D</step>
          <octave>4</octave>
        </pitch>
        <duration>40320</duration>
        <type>whole</type>
        <notehead color="#000000" parentheses="no">normal</notehead>
        <lyric color="#000000" default-y="-80" name="part3verse1" number="1">
          <syllabic>end</syllabic>
          <text>cket</text>
        </lyric>
      </note>
    </measure>
    <!--========================= Measure 3 ==========================-->
    <measure number="3" width="66">
      <note color="#000000" default-x="13">
        <pitch>
          <step>D</step>
          <octave>4</octave>
        </pitch>
        <duration>40320</duration>
        <type>whole</type>
        <notehead color="#000000" parentheses="no">normal</notehead>
        <lyric color="#000000" default-y="-80" name="part3verse1" number="1">
          <syllabic>single</syllabic>
          <text>dem</text>
        </lyric>
      </note>
    </measure>
    <!--========================= Measure 4 ==========================-->
    <measure number="4" width="110">
      <note color="#000000" default-x="15" default-y="-45">
        <pitch>
          <step>D</step>
          <octave>4</octave>
        </pitch>
        <duration>20160</duration>
        <type>half</type>
        <stem>down</stem>
        <notehead color="#000000" parentheses="no">normal</notehead>
        <lyric color="#000000" default-y="-80" name="part3verse1" number="1">
          <syllabic>begin</syllabic>
          <text>HEr</text>
        </lyric>
      </note>
      <note color="#000000" default-x="70" default-y="-35">
        <pitch>
          <step>F</step>
          <octave>4</octave>
        </pitch>
        <duration>20160</duration>
        <type>half</type>
        <stem>down</stem>
        <notehead color="#000000" parentheses="no">normal</notehead>
        <lyric color="#000000" default-y="-80" name="part3verse1" number="1">
          <syllabic>end</syllabic>
          <text>ren/</text>
        </lyric>
      </note>
    </measure>
    <!--========================= Measure 5 ==========================-->
    <measure number="5" width="133">
      <note color="#000000" default-x="15">
        <pitch>
          <step>F</step>
          <octave>4</octave>
        </pitch>
        <duration>40320</duration>
        <type>whole</type>
        <notehead color="#000000" parentheses="no">normal</notehead>
        <lyric color="#000000" default-y="-80" name="part3verse1" number="1">
          <syllabic>single</syllabic>
          <text>denn</text>
        </lyric>
      </note>
      <note color="#000000" default-x="93" default-y="-35">
        <pitch>
          <step>F</step>
          <octave>4</octave>
        </pitch>
        <duration>20160</duration>
        <type>half</type>
        <stem>down</stem>
        <notehead color="#000000" parentheses="no">normal</notehead>
        <lyric color="#000000" default-y="-80" name="part3verse1" number="1">
          <syllabic>single</syllabic>
          <text>er</text>
        </lyric>
      </note>
    </measure>
    <!--========================= Measure 6 ==========================-->
    <measure number="6" width="123">
      <note color="#000000" default-x="13">
        <pitch>
          <step>F</step>
          <octave>4</octave>
        </pitch>
        <duration>40320</duration>
        <type>whole</type>
        <notehead color="#000000" parentheses="no">normal</notehead>
        <lyric color="#000000" default-y="-80" name="part3verse1" number="1">
          <syllabic>single</syllabic>
          <text>ist</text>
        </lyric>
      </note>
      <note color="#000000" default-x="79" default-y="-45">
        <pitch>
          <step>D</step>
          <octave>4</octave>
        </pitch>
        <duration>20160</duration>
        <type>half</type>
        <stem>down</stem>
        <notehead color="#000000" parentheses="no">normal</notehead>
        <lyric color="#000000" default-y="-80" name="part3verse1" number="1">
          <syllabic>single</syllabic>
          <text>sehr</text>
        </lyric>
      </note>
    </measure>
    <!--========================= Measure 7 ==========================-->
    <measure number="7" width="85">
      <note color="#000000" default-x="15">
        <pitch>
          <step>D</step>
          <octave>4</octave>
        </pitch>
        <duration>40320</duration>
        <type>whole</type>
        <notehead color="#000000" parentheses="no">normal</notehead>
        <lyric color="#000000" default-y="-80" name="part3verse1" number="1">
          <syllabic>begin</syllabic>
          <text>freund</text>
        </lyric>
      </note>
    </measure>
    <!--========================= Measure 8 ==========================-->
    <measure number="8" width="88">
      <note color="#000000" default-x="15">
        <pitch>
          <step>D</step>
          <octave>4</octave>
        </pitch>
        <duration>40320</duration>
        <type>whole</type>
        <notehead color="#000000" parentheses="no">normal</notehead>
        <lyric color="#000000" default-y="-80" name="part3verse1" number="1">
          <syllabic>end</syllabic>
          <text>lich/</text>
        </lyric>
      </note>
    </measure>
    <!--========================= Measure 9 ==========================-->
    <measure number="9" width="76">
      <note color="#000000" default-x="15">
        <pitch>
          <step>D</step>
          <octave>4</octave>
        </pitch>
        <duration>40320</duration>
        <type>whole</type>
        <notehead color="#000000" parentheses="no">normal</notehead>
        <lyric color="#000000" default-y="-80" name="part3verse1" number="1">
          <syllabic>single</syllabic>
          <text>Vnd</text>
        </lyric>
      </note>
    </measure>
    <!--========================= Measure 10 =========================-->
    <measure number="10" width="72">
      <note color="#000000" default-x="15">
        <pitch>
          <step>D</step>
          <octave>4</octave>
        </pitch>
        <duration>40320</duration>
        <type>whole</type>
        <notehead color="#000000" parentheses="no">normal</notehead>
        <lyric color="#000000" default-y="-80" name="part3verse1" number="1">
          <syllabic>begin</syllabic>
          <text>sei</text>
        </lyric>
      </note>
    </measure>
    <!--========================= Measure 11 =========================-->
    <measure number="11" width="70">
      <note color="#000000" default-x="15">
        <pitch>
          <step>F</step>
          <octave>4</octave>
        </pitch>
        <duration>40320</duration>
        <type>whole</type>
        <notehead color="#000000" parentheses="no">normal</notehead>
        <lyric color="#000000" default-y="-80" name="part3verse1" number="1">
          <syllabic>end</syllabic>
          <text>ne</text>
        </lyric>
      </note>
    </measure>
    <!--========================= Measure 12 =========================-->
    <measure number="12" width="104">
      <note color="#000000" default-x="15" default-y="-35">
        <pitch>
          <step>F</step>
          <octave>4</octave>
        </pitch>
        <duration>20160</duration>
        <type>half</type>
        <stem>down</stem>
        <notehead color="#000000" parentheses="no">normal</notehead>
        <lyric color="#000000" default-y="-80" name="part3verse1" number="1">
          <syllabic>single</syllabic>
          <text>Gt</text>
        </lyric>
      </note>
      <note color="#000000" default-x="68" default-y="-45">
        <pitch>
          <step>D</step>
          <octave>4</octave>
        </pitch>
        <duration>20160</duration>
        <type>half</type>
        <stem>down</stem>
        <notehead color="#000000" parentheses="no">normal</notehead>
        <lyric color="#000000" default-y="-80" name="part3verse1" number="1">
          <syllabic>single</syllabic>
          <text>vnd</text>
        </lyric>
      </note>
    </measure>
    <!--========================= Measure 13 =========================-->
    <measure number="13" width="124">
      <note color="#000000" default-x="18">
        <pitch>
          <step>D</step>
          <octave>4</octave>
        </pitch>
        <duration>40320</duration>
        <type>whole</type>
        <notehead color="#000000" parentheses="no">normal</notehead>
        <lyric color="#000000" default-y="-80" name="part3verse1" number="1">
          <syllabic>begin</syllabic>
          <text>War</text>
        </lyric>
      </note>
      <note color="#000000" default-x="88" default-y="15">
        <pitch>
          <step>B</step>
          <alter>-1</alter>
          <octave>3</octave>
        </pitch>
        <duration>20160</duration>
        <type>half</type>
        <stem>up</stem>
        <notehead color="#000000" parentheses="no">normal</notehead>
        <lyric color="#000000" default-y="-80" name="part3verse1" number="1">
          <syllabic>end</syllabic>
          <text>heit</text>
        </lyric>
      </note>
    </measure>
    <!--========================= Measure 14 =========================-->
    <measure number="14" width="99">
      <note color="#000000" default-x="15">
        <pitch>
          <step>A</step>
          <octave>3</octave>
        </pitch>
        <duration>40320</duration>
        <type>whole</type>
        <notehead color="#000000" parentheses="no">normal</notehead>
        <lyric color="#000000" default-y="-80" name="part3verse1" number="1">
          <syllabic>begin</syllabic>
          <text>blei</text>
        </lyric>
      </note>
    </measure>
    <!--========================= Measure 15 =========================-->
    <measure number="15" width="161">
      <note color="#000000" default-x="16" default-y="15">
        <pitch>
          <step>B</step>
          <alter>-1</alter>
          <octave>3</octave>
        </pitch>
        <duration>20160</duration>
        <type>half</type>
        <stem>up</stem>
        <notehead color="#000000" parentheses="no">normal</notehead>
        <lyric color="#000000" default-y="-80" name="part3verse1" number="1">
          <syllabic>end</syllabic>
          <text>bet</text>
        </lyric>
      </note>
      <note color="#000000" default-x="64" default-y="-45">
        <pitch>
          <step>D</step>
          <octave>4</octave>
        </pitch>
        <duration>20160</duration>
        <type>half</type>
        <stem>down</stem>
        <notehead color="#000000" parentheses="no">normal</notehead>
        <lyric color="#000000" default-y="-80" name="part3verse1" number="1">
          <syllabic>begin</syllabic>
          <text>E</text>
        </lyric>
      </note>
      <note color="#000000" default-x="117" default-y="-45">
        <pitch>
          <step>D</step>
          <octave>4</octave>
        </pitch>
        <duration>20160</duration>
        <type>half</type>
        <stem>down</stem>
        <notehead color="#000000" parentheses="no">normal</notehead>
        <lyric color="#000000" default-y="-80" name="part3verse1" number="1">
          <syllabic>middle</syllabic>
          <text>wig</text>
        </lyric>
      </note>
    </measure>
    <!--========================= Measure 16 =========================-->
    <measure number="16" width="102">
      <note color="#000000" default-x="15">
        <pitch>
          <step>D</step>
          <octave>4</octave>
        </pitch>
        <duration>40320</duration>
        <tie type="start" />
        <type>whole</type>
        <notehead color="#000000" parentheses="no">normal</notehead>
        <notations>
          <tied type="start" />
        </notations>
        <lyric color="#000000" default-y="-80" name="part3verse1" number="1">
          <syllabic>end</syllabic>
          <text>lich.</text>
        </lyric>
      </note>
      <barline location="right">
        <bar-style>light-heavy</bar-style>
      </barline>
    </measure>
  </part>
  <!--=========================== Part 4 ===========================-->
  <part id="P4">
    <!--========================= Measure 1 ==========================-->
    <measure number="1" width="146">
      <print new-page="yes">
        <system-layout>
          <system-margins>
            <left-margin>164</left-margin>
            <right-margin>0</right-margin>
          </system-margins>
        </system-layout>
        <staff-layout number="1">
          <staff-distance>80</staff-distance>
        </staff-layout>
      </print>
      <attributes>
        <divisions>10080</divisions>
        <key color="#000000">
          <fifths>-1</fifths>
          <mode>major</mode>
        </key>
        <time color="#000000" symbol="cut">
          <beats>2</beats>
          <beat-type>2</beat-type>
        </time>
        <clef color="#000000">
          <sign>F</sign>
          <line>4</line>
        </clef>
        <staff-details print-object="yes" />
      </attributes>
      <direction>
        <direction-type>
          <words default-x="-142" default-y="-10" enclosure="none" font-family="capella-Renaissance" font-size="12.5787" font-style="normal" font-weight="normal" justify="left" valign="middle"></words>
        </direction-type>
      </direction>
      <direction>
        <direction-type>
          <words default-x="-108" default-y="-30" enclosure="none" font-family="capellaMittelalter" font-size="12.5787" font-style="normal" font-weight="normal" justify="left" valign="middle"></words>
        </direction-type>
      </direction>
      <direction>
        <direction-type>
          <words default-x="-87" default-y="-20" enclosure="none" font-family="capellaMittelalter" font-size="12.5787" font-style="normal" font-weight="normal" justify="left" valign="middle"></words>
        </direction-type>
      </direction>
      <note color="#000000" default-x="93">
        <pitch>
          <step>G</step>
          <octave>3</octave>
        </pitch>
        <duration>40320</duration>
        <type>whole</type>
        <notehead color="#000000" parentheses="no">normal</notehead>
        <lyric color="#000000" default-y="-80" name="part4verse1" number="1">
          <syllabic>begin</syllabic>
          <text>Dan</text>
        </lyric>
      </note>
    </measure>
    <!--========================= Measure 2 ==========================-->
    <measure number="2" width="70">
      <note color="#000000" default-x="15">
        <pitch>
          <step>G</step>
          <octave>3</octave>
        </pitch>
        <duration>40320</duration>
        <type>whole</type>
        <notehead color="#000000" parentheses="no">normal</notehead>
        <lyric color="#000000" default-y="-80" name="part4verse1" number="1">
          <syllabic>end</syllabic>
          <text>cket</text>
        </lyric>
      </note>
    </measure>
    <!--========================= Measure 3 ==========================-->
    <measure number="3" width="66">
      <note color="#000000" default-x="13">
        <pitch>
          <step>D</step>
          <octave>3</octave>
        </pitch>
        <duration>40320</duration>
        <type>whole</type>
        <notehead color="#000000" parentheses="no">normal</notehead>
        <lyric color="#000000" default-y="-80" name="part4verse1" number="1">
          <syllabic>single</syllabic>
          <text>dem</text>
        </lyric>
      </note>
    </measure>
    <!--========================= Measure 4 ==========================-->
    <measure number="4" width="110">
      <note color="#000000" default-x="15" default-y="-40">
        <pitch>
          <step>G</step>
          <octave>3</octave>
        </pitch>
        <duration>20160</duration>
        <type>half</type>
        <stem>down</stem>
        <notehead color="#000000" parentheses="no">normal</notehead>
        <lyric color="#000000" default-y="-80" name="part4verse1" number="1">
          <syllabic>begin</syllabic>
          <text>HEr</text>
        </lyric>
      </note>
      <note color="#000000" default-x="70" default-y="-45">
        <pitch>
          <step>F</step>
          <octave>3</octave>
        </pitch>
        <duration>20160</duration>
        <type>half</type>
        <stem>down</stem>
        <notehead color="#000000" parentheses="no">normal</notehead>
        <lyric color="#000000" default-y="-80" name="part4verse1" number="1">
          <syllabic>end</syllabic>
          <text>ren/</text>
        </lyric>
      </note>
    </measure>
    <!--========================= Measure 5 ==========================-->
    <measure number="5" width="133">
      <note color="#000000" default-x="15">
        <pitch>
          <step>B</step>
          <alter>-1</alter>
          <octave>2</octave>
        </pitch>
        <duration>40320</duration>
        <type>whole</type>
        <notehead color="#000000" parentheses="no">normal</notehead>
        <lyric color="#000000" default-y="-80" name="part4verse1" number="1">
          <syllabic>single</syllabic>
          <text>denn</text>
        </lyric>
      </note>
      <note color="#000000" default-x="93" default-y="5">
        <pitch>
          <step>B</step>
          <alter>-1</alter>
          <octave>2</octave>
        </pitch>
        <duration>20160</duration>
        <type>half</type>
        <stem>up</stem>
        <notehead color="#000000" parentheses="no">normal</notehead>
        <lyric color="#000000" default-y="-80" name="part4verse1" number="1">
          <syllabic>single</syllabic>
          <text>er</text>
        </lyric>
      </note>
    </measure>
    <!--========================= Measure 6 ==========================-->
    <measure number="6" width="123">
      <note color="#000000" default-x="13">
        <pitch>
          <step>F</step>
          <octave>3</octave>
        </pitch>
        <duration>40320</duration>
        <type>whole</type>
        <notehead color="#000000" parentheses="no">normal</notehead>
        <lyric color="#000000" default-y="-80" name="part4verse1" number="1">
          <syllabic>single</syllabic>
          <text>ist</text>
        </lyric>
      </note>
      <note color="#000000" default-x="79" default-y="-40">
        <pitch>
          <step>G</step>
          <octave>3</octave>
        </pitch>
        <duration>20160</duration>
        <type>half</type>
        <stem>down</stem>
        <notehead color="#000000" parentheses="no">normal</notehead>
        <lyric color="#000000" default-y="-80" name="part4verse1" number="1">
          <syllabic>single</syllabic>
          <text>sehr</text>
        </lyric>
      </note>
    </measure>
    <!--========================= Measure 7 ==========================-->
    <measure number="7" width="85">
      <note color="#000000" default-x="15">
        <pitch>
          <step>D</step>
          <octave>3</octave>
        </pitch>
        <duration>40320</duration>
        <type>whole</type>
        <notehead color="#000000" parentheses="no">normal</notehead>
        <lyric color="#000000" default-y="-80" name="part4verse1" number="1">
          <syllabic>begin</syllabic>
          <text>freund</text>
        </lyric>
      </note>
    </measure>
    <!--========================= Measure 8 ==========================-->
    <measure number="8" width="88">
      <note color="#000000" default-x="15">
        <pitch>
          <step>D</step>
          <octave>3</octave>
        </pitch>
        <duration>40320</duration>
        <type>whole</type>
        <notehead color="#000000" parentheses="no">normal</notehead>
        <lyric color="#000000" default-y="-80" name="part4verse1" number="1">
          <syllabic>end</syllabic>
          <text>lich/</text>
        </lyric>
      </note>
    </measure>
    <!--========================= Measure 9 ==========================-->
    <measure number="9" width="76">
      <note color="#000000" default-x="15">
        <pitch>
          <step>D</step>
          <octave>3</octave>
        </pitch>
        <duration>40320</duration>
        <type>whole</type>
        <notehead color="#000000" parentheses="no">normal</notehead>
        <lyric color="#000000" default-y="-80" name="part4verse1" number="1">
          <syllabic>single</syllabic>
          <text>Vnd</text>
        </lyric>
      </note>
    </measure>
    <!--========================= Measure 10 =========================-->
    <measure number="10" width="72">
      <note color="#000000" default-x="15">
        <pitch>
          <step>G</step>
          <octave>3</octave>
        </pitch>
        <duration>40320</duration>
        <type>whole</type>
        <notehead color="#000000" parentheses="no">normal</notehead>
        <lyric color="#000000" default-y="-80" name="part4verse1" number="1">
          <syllabic>begin</syllabic>
          <text>sei</text>
        </lyric>
      </note>
    </measure>
    <!--========================= Measure 11 =========================-->
    <measure number="11" width="70">
      <note color="#000000" default-x="15">
        <pitch>
          <step>F</step>
          <octave>3</octave>
        </pitch>
        <duration>40320</duration>
        <type>whole</type>
        <notehead color="#000000" parentheses="no">normal</notehead>
        <lyric color="#000000" default-y="-80" name="part4verse1" number="1">
          <syllabic>end</syllabic>
          <text>ne</text>
        </lyric>
      </note>
    </measure>
    <!--========================= Measure 12 =========================-->
    <measure number="12" width="104">
      <note color="#000000" default-x="15" default-y="-45">
        <pitch>
          <step>F</step>
          <octave>3</octave>
        </pitch>
        <duration>20160</duration>
        <type>half</type>
        <stem>down</stem>
        <notehead color="#000000" parentheses="no">normal</notehead>
        <lyric color="#000000" default-y="-80" name="part4verse1" number="1">
          <syllabic>single</syllabic>
          <text>Gt</text>
        </lyric>
      </note>
      <note color="#000000" default-x="68" default-y="-40">
        <pitch>
          <step>G</step>
          <octave>3</octave>
        </pitch>
        <duration>20160</duration>
        <type>half</type>
        <stem>down</stem>
        <notehead color="#000000" parentheses="no">normal</notehead>
        <lyric color="#000000" default-y="-80" name="part4verse1" number="1">
          <syllabic>single</syllabic>
          <text>vnd</text>
        </lyric>
      </note>
    </measure>
    <!--========================= Measure 13 =========================-->
    <measure number="13" width="124">
      <note color="#000000" default-x="18">
        <pitch>
          <step>D</step>
          <octave>3</octave>
        </pitch>
        <duration>40320</duration>
        <type>whole</type>
        <notehead color="#000000" parentheses="no">normal</notehead>
        <lyric color="#000000" default-y="-80" name="part4verse1" number="1">
          <syllabic>begin</syllabic>
          <text>War</text>
        </lyric>
      </note>
      <note color="#000000" default-x="88" default-y="-50">
        <pitch>
          <step>E</step>
          <alter>-1</alter>
          <octave>3</octave>
        </pitch>
        <duration>20160</duration>
        <type>half</type>
        <accidental>flat</accidental>
        <stem>down</stem>
        <notehead color="#000000" parentheses="no">normal</notehead>
        <lyric color="#000000" default-y="-80" name="part4verse1" number="1">
          <syllabic>end</syllabic>
          <text>heit</text>
        </lyric>
      </note>
    </measure>
    <!--========================= Measure 14 =========================-->
    <measure number="14" width="99">
      <note color="#000000" default-x="15">
        <pitch>
          <step>F</step>
          <octave>3</octave>
        </pitch>
        <duration>40320</duration>
        <type>whole</type>
        <notehead color="#000000" parentheses="no">normal</notehead>
        <lyric color="#000000" default-y="-80" name="part4verse1" number="1">
          <syllabic>begin</syllabic>
          <text>blei</text>
        </lyric>
      </note>
    </measure>
    <!--========================= Measure 15 =========================-->
    <measure number="15" width="161">
      <note color="#000000" default-x="16" default-y="-50">
        <pitch>
          <step>E</step>
          <alter>-1</alter>
          <octave>3</octave>
        </pitch>
        <duration>20160</duration>
        <type>half</type>
        <accidental>flat</accidental>
        <stem>down</stem>
        <notehead color="#000000" parentheses="no">normal</notehead>
        <lyric color="#000000" default-y="-80" name="part4verse1" number="1">
          <syllabic>end</syllabic>
          <text>bet</text>
        </lyric>
      </note>
      <note color="#000000" default-x="64" default-y="15">
        <pitch>
          <step>D</step>
          <octave>3</octave>
        </pitch>
        <duration>20160</duration>
        <type>half</type>
        <stem>up</stem>
        <notehead color="#000000" parentheses="no">normal</notehead>
        <lyric color="#000000" default-y="-80" name="part4verse1" number="1">
          <syllabic>begin</syllabic>
          <text>E</text>
        </lyric>
      </note>
      <note color="#000000" default-x="117" default-y="15">
        <pitch>
          <step>D</step>
          <octave>3</octave>
        </pitch>
        <duration>20160</duration>
        <type>half</type>
        <stem>up</stem>
        <notehead color="#000000" parentheses="no">normal</notehead>
        <lyric color="#000000" default-y="-80" name="part4verse1" number="1">
          <syllabic>middle</syllabic>
          <text>wig</text>
        </lyric>
      </note>
    </measure>
    <!--========================= Measure 16 =========================-->
    <measure number="16" width="102">
      <note color="#000000" default-x="15">
        <pitch>
          <step>G</step>
          <octave>2</octave>
        </pitch>
        <duration>40320</duration>
        <tie type="start" />
        <type>whole</type>
        <notehead color="#000000" parentheses="no">normal</notehead>
        <notations>
          <tied type="start" />
        </notations>
        <lyric color="#000000" default-y="-80" name="part4verse1" number="1">
          <syllabic>end</syllabic>
          <text>lich.</text>
        </lyric>
      </note>
      <barline location="right">
        <bar-style>light-heavy</bar-style>
      </barline>
    </measure>
  </part>
</score-partwise>