<?xml version="1.0" encoding="UTF-8" standalone="no"?>
<!--MusicXML 2.0 file created by CapToMusic.py CapXML to MusicXML converter version 2.9-->
<!DOCTYPE score-partwise PUBLIC "-//Recordare//DTD MusicXML 2.0 Partwise//EN" "http://www.musicxml.org/dtds/partwise.dtd">
<score-partwise version="2.0">
	<identification>
		<encoding>
			<encoding-date>2019-12-27</encoding-date>
			<software>CapToMusic.py CapXML to MusicXML converter version 2.9</software>
			<encoding-description>Options: FinaleDolet33=1, ChordCaseMatters=1, ExportToSibelius=0</encoding-description>
		</encoding>
	</identification>
	<defaults>
		<scaling>
			<millimeters>1.4</millimeters>
			<tenths>10.0</tenths>
		</scaling>
		<page-layout>
			<page-height>2121</page-height>
			<page-width>1500</page-width>
			<page-margins type="both">
				<left-margin>85</left-margin>
				<right-margin>85</right-margin>
				<top-margin>85</top-margin>
				<bottom-margin>85</bottom-margin>
			</page-margins>
		</page-layout>
		<system-layout>
			<system-margins>
				<left-margin>0</left-margin>
				<right-margin>0</right-margin>
			</system-margins>
			<system-distance>40</system-distance>
			<top-system-distance>40</top-system-distance>
		</system-layout>
	</defaults>
	<credit>
		<credit-words default-x="748" default-y="88" font-family="Times New Roman" font-size="8" justify="center">BWV 79 - S. #</credit-words>
	</credit>
	<part-list>
		<part-group type="start" number="1">
			<group-symbol>bracket</group-symbol>
		</part-group>
		<score-part id="P1">
			<part-name>Basso.</part-name>
			<part-abbreviation></part-abbreviation>
			<score-instrument id="P1-I1">
				<instrument-name>Midi_53</instrument-name>
			</score-instrument>
			<midi-instrument id="P1-I1">
				<midi-channel>1</midi-channel>
				<midi-program>53</midi-program>
			</midi-instrument>
		</score-part>
		<score-part id="P2">
			<part-name>Continuo.</part-name>
			<part-abbreviation></part-abbreviation>
			<score-instrument id="P2-I1">
				<instrument-name>Midi_20</instrument-name>
			</score-instrument>
			<midi-instrument id="P2-I1">
				<midi-channel>2</midi-channel>
				<midi-program>20</midi-program>
			</midi-instrument>
		</score-part>
		<part-group type="stop" number="1"/>
	</part-list>
	<part id="P1">
		<measure number="1">
			<direction>
				<direction-type>
					<other-direction/>
				</direction-type>
				<sound tempo="62"/>
			</direction>
			<print>
				<system-layout>
					<system-margins>
						<left-margin>114</left-margin>
						<right-margin>0</right-margin>
					</system-margins>
					<top-system-distance>120</top-system-distance>
				</system-layout>
				<staff-layout number="1">
					<staff-distance>80</staff-distance>
				</staff-layout>
			</print>
			<attributes>
				<divisions>480</divisions>
				<key>
					<fifths>1</fifths>
					<mode>major</mode>
				</key>
				<time symbol="common">
					<beats>4</beats>
					<beat-type>4</beat-type>
				</time>
				<clef>
					<sign>F</sign>
					<line>4</line>
				</clef>
			</attributes>
			<direction placement="above">
				<direction-type>
					<words relative-x="-51" default-y="44" font-family="Times New Roman" font-size="12" font-weight="bold">4. Recitativo.</words>
				</direction-type>
			</direction>
			<note>
				<rest>
					<display-step>D</display-step>
					<display-octave>3</display-octave>
				</rest>
				<duration>480</duration>
				<voice>1</voice>
				<type>quarter</type>
			</note>
			<note>
				<rest>
					<display-step>D</display-step>
					<display-octave>3</display-octave>
				</rest>
				<duration>240</duration>
				<voice>1</voice>
				<type>eighth</type>
			</note>
			<note>
				<pitch>
					<step>B</step>
					<octave>3</octave>
				</pitch>
				<duration>240</duration>
				<voice>1</voice>
				<type>eighth</type>
				<lyric default-y="-85" number="1">
					<syllabic>begin</syllabic>
					<text>Gott</text>
				</lyric>
			</note>
			<note>
				<pitch>
					<step>G</step>
					<octave>3</octave>
				</pitch>
				<duration>480</duration>
				<voice>1</voice>
				<type>quarter</type>
				<lyric default-y="-85" number="1">
					<syllabic>end</syllabic>
					<text>lob,</text>
				</lyric>
			</note>
			<note>
				<rest>
					<display-step>D</display-step>
					<display-octave>3</display-octave>
				</rest>
				<duration>240</duration>
				<voice>1</voice>
				<type>eighth</type>
			</note>
			<note>
				<pitch>
					<step>F</step>
					<alter>1</alter>
					<octave>3</octave>
				</pitch>
				<duration>240</duration>
				<voice>1</voice>
				<type>eighth</type>
				<lyric default-y="-85" number="1">
					<syllabic>single</syllabic>
					<text>wir</text>
				</lyric>
			</note>
		</measure>
		<measure number="2">
			<note>
				<pitch>
					<step>D</step>
					<alter>1</alter>
					<octave>3</octave>
				</pitch>
				<duration>240</duration>
				<voice>1</voice>
				<type>eighth</type>
				<accidental>sharp</accidental>
				<lyric default-y="-85" number="1">
					<syllabic>begin</syllabic>
					<text>wis</text>
				</lyric>
			</note>
			<note>
				<pitch>
					<step>D</step>
					<alter>1</alter>
					<octave>3</octave>
				</pitch>
				<duration>120</duration>
				<voice>1</voice>
				<type>16th</type>
				<lyric default-y="-85" number="1">
					<syllabic>end</syllabic>
					<text>sen</text>
				</lyric>
			</note>
			<note>
				<pitch>
					<step>E</step>
					<octave>3</octave>
				</pitch>
				<duration>120</duration>
				<voice>1</voice>
				<type>16th</type>
				<lyric default-y="-85" number="1">
					<syllabic>single</syllabic>
					<text>den</text>
				</lyric>
			</note>
			<note>
				<pitch>
					<step>F</step>
					<alter>1</alter>
					<octave>3</octave>
				</pitch>
				<duration>240</duration>
				<voice>1</voice>
				<type>eighth</type>
				<lyric default-y="-85" number="1">
					<syllabic>begin</syllabic>
					<text>rech</text>
				</lyric>
			</note>
			<note>
				<pitch>
					<step>G</step>
					<octave>3</octave>
				</pitch>
				<duration>240</duration>
				<voice>1</voice>
				<type>eighth</type>
				<lyric default-y="-85" number="1">
					<syllabic>end</syllabic>
					<text>ten</text>
				</lyric>
			</note>
			<note>
				<pitch>
					<step>A</step>
					<octave>3</octave>
				</pitch>
				<duration>240</duration>
				<voice>1</voice>
				<type>eighth</type>
				<lyric default-y="-85" number="1">
					<syllabic>single</syllabic>
					<text>Weg</text>
				</lyric>
			</note>
			<note>
				<pitch>
					<step>B</step>
					<octave>3</octave>
				</pitch>
				<duration>240</duration>
				<voice>1</voice>
				<type>eighth</type>
				<lyric default-y="-85" number="1">
					<syllabic>single</syllabic>
					<text>zur</text>
				</lyric>
			</note>
			<note>
				<pitch>
					<step>C</step>
					<octave>4</octave>
				</pitch>
				<duration>240</duration>
				<voice>1</voice>
				<type>eighth</type>
				<lyric default-y="-85" number="1">
					<syllabic>begin</syllabic>
					<text>Se</text>
				</lyric>
			</note>
			<note>
				<pitch>
					<step>B</step>
					<octave>3</octave>
				</pitch>
				<duration>240</duration>
				<voice>1</voice>
				<type>eighth</type>
				<lyric default-y="-85" number="1">
					<syllabic>middle</syllabic>
					<text>lig</text>
				</lyric>
			</note>
		</measure>
		<measure number="3">
			<print new-system="yes">
				<system-layout>
					<system-margins>
						<left-margin>30</left-margin>
						<right-margin>0</right-margin>
					</system-margins>
					<system-distance>120</system-distance>
				</system-layout>
				<staff-layout number="1">
					<staff-distance>40</staff-distance>
				</staff-layout>
			</print>
			<note>
				<pitch>
					<step>G</step>
					<octave>3</octave>
				</pitch>
				<duration>480</duration>
				<voice>1</voice>
				<type>quarter</type>
				<lyric default-y="-85" number="1">
					<syllabic>end</syllabic>
					<text>keit;</text>
				</lyric>
			</note>
			<note>
				<rest>
					<display-step>D</display-step>
					<display-octave>3</display-octave>
				</rest>
				<duration>240</duration>
				<voice>1</voice>
				<type>eighth</type>
			</note>
			<note>
				<pitch>
					<step>G</step>
					<octave>3</octave>
				</pitch>
				<duration>240</duration>
				<voice>1</voice>
				<type>eighth</type>
				<lyric default-y="-85" number="1">
					<syllabic>single</syllabic>
					<text>denn,</text>
				</lyric>
			</note>
			<note>
				<pitch>
					<step>D</step>
					<octave>4</octave>
				</pitch>
				<duration>480</duration>
				<voice>1</voice>
				<type>quarter</type>
				<lyric default-y="-85" number="1">
					<syllabic>begin</syllabic>
					<text>Je</text>
				</lyric>
			</note>
			<note>
				<pitch>
					<step>D</step>
					<octave>4</octave>
				</pitch>
				<duration>480</duration>
				<voice>1</voice>
				<type>quarter</type>
				<lyric default-y="-85" number="1">
					<syllabic>end</syllabic>
					<text>su,</text>
				</lyric>
			</note>
		</measure>
		<measure number="4">
			<note>
				<rest>
					<display-step>D</display-step>
					<display-octave>3</display-octave>
				</rest>
				<duration>240</duration>
				<voice>1</voice>
				<type>eighth</type>
			</note>
			<note>
				<pitch>
					<step>D</step>
					<octave>3</octave>
				</pitch>
				<duration>240</duration>
				<voice>1</voice>
				<type>eighth</type>
				<lyric default-y="-85" number="1">
					<syllabic>single</syllabic>
					<text>du</text>
				</lyric>
			</note>
			<note>
				<pitch>
					<step>G</step>
					<octave>3</octave>
				</pitch>
				<duration>240</duration>
				<voice>1</voice>
				<type>eighth</type>
				<lyric default-y="-85" number="1">
					<syllabic>single</syllabic>
					<text>hast</text>
				</lyric>
			</note>
			<note>
				<pitch>
					<step>A</step>
					<octave>3</octave>
				</pitch>
				<duration>240</duration>
				<voice>1</voice>
				<type>eighth</type>
				<lyric default-y="-85" number="1">
					<syllabic>single</syllabic>
					<text>ihn</text>
				</lyric>
			</note>
			<note>
				<pitch>
					<step>B</step>
					<octave>3</octave>
				</pitch>
				<duration>240</duration>
				<voice>1</voice>
				<type>eighth</type>
				<lyric default-y="-85" number="1">
					<syllabic>single</syllabic>
					<text>uns</text>
				</lyric>
			</note>
			<note>
				<pitch>
					<step>B</step>
					<octave>3</octave>
				</pitch>
				<duration>120</duration>
				<voice>1</voice>
				<type>16th</type>
				<lyric default-y="-85" number="1">
					<syllabic>single</syllabic>
					<text>durch</text>
				</lyric>
			</note>
			<note>
				<pitch>
					<step>C</step>
					<octave>4</octave>
				</pitch>
				<duration>120</duration>
				<voice>1</voice>
				<type>16th</type>
				<lyric default-y="-85" number="1">
					<syllabic>single</syllabic>
					<text>dein</text>
				</lyric>
			</note>
			<note>
				<pitch>
					<step>D</step>
					<octave>4</octave>
				</pitch>
				<duration>240</duration>
				<voice>1</voice>
				<type>eighth</type>
				<lyric default-y="-85" number="1">
					<syllabic>single</syllabic>
					<text>Wort</text>
				</lyric>
			</note>
			<note>
				<pitch>
					<step>B</step>
					<octave>3</octave>
				</pitch>
				<duration>240</duration>
				<voice>1</voice>
				<type>eighth</type>
				<lyric default-y="-85" number="1">
					<syllabic>begin</syllabic>
					<text>ge</text>
				</lyric>
			</note>
		</measure>
		<measure number="5">
			<note>
				<pitch>
					<step>E</step>
					<octave>4</octave>
				</pitch>
				<duration>240</duration>
				<voice>1</voice>
				<type>eighth</type>
				<lyric default-y="-85" number="1">
					<syllabic>middle</syllabic>
					<text>wie</text>
				</lyric>
			</note>
			<note>
				<pitch>
					<step>E</step>
					<octave>4</octave>
				</pitch>
				<duration>240</duration>
				<voice>1</voice>
				<type>eighth</type>
				<lyric default-y="-85" number="1">
					<syllabic>end</syllabic>
					<text>sen,</text>
				</lyric>
			</note>
			<note>
				<rest>
					<display-step>D</display-step>
					<display-octave>3</display-octave>
				</rest>
				<duration>240</duration>
				<voice>1</voice>
				<type>eighth</type>
			</note>
			<note>
				<pitch>
					<step>B</step>
					<octave>3</octave>
				</pitch>
				<duration>240</duration>
				<voice>1</voice>
				<type>eighth</type>
				<lyric default-y="-85" number="1">
					<syllabic>single</syllabic>
					<text>drum</text>
				</lyric>
			</note>
			<note>
				<pitch>
					<step>G</step>
					<alter>1</alter>
					<octave>3</octave>
				</pitch>
				<duration>240</duration>
				<voice>1</voice>
				<type>eighth</type>
				<accidental>sharp</accidental>
				<lyric default-y="-85" number="1">
					<syllabic>single</syllabic>
					<text>bleibt</text>
				</lyric>
			</note>
			<note>
				<pitch>
					<step>A</step>
					<octave>3</octave>
				</pitch>
				<duration>240</duration>
				<voice>1</voice>
				<type>eighth</type>
				<lyric default-y="-85" number="1">
					<syllabic>single</syllabic>
					<text>dein</text>
				</lyric>
			</note>
			<note>
				<pitch>
					<step>B</step>
					<octave>3</octave>
				</pitch>
				<duration>240</duration>
				<voice>1</voice>
				<type>eighth</type>
				<lyric default-y="-85" number="1">
					<syllabic>begin</syllabic>
					<text>Na</text>
				</lyric>
			</note>
			<note>
				<pitch>
					<step>E</step>
					<octave>3</octave>
				</pitch>
				<duration>240</duration>
				<voice>1</voice>
				<type>eighth</type>
				<lyric default-y="-85" number="1">
					<syllabic>end</syllabic>
					<text>me</text>
				</lyric>
			</note>
		</measure>
		<measure number="6">
			<print new-system="yes">
				<system-layout>
					<system-margins>
						<left-margin>30</left-margin>
						<right-margin>0</right-margin>
					</system-margins>
					<system-distance>120</system-distance>
				</system-layout>
				<staff-layout number="1">
					<staff-distance>40</staff-distance>
				</staff-layout>
			</print>
			<note>
				<pitch>
					<step>C</step>
					<octave>4</octave>
				</pitch>
				<duration>240</duration>
				<voice>1</voice>
				<type>eighth</type>
				<lyric default-y="-85" number="1">
					<syllabic>begin</syllabic>
					<text>je</text>
				</lyric>
			</note>
			<note>
				<pitch>
					<step>B</step>
					<octave>3</octave>
				</pitch>
				<duration>240</duration>
				<voice>1</voice>
				<type>eighth</type>
				<lyric default-y="-85" number="1">
					<syllabic>middle</syllabic>
					<text>der</text>
				</lyric>
			</note>
			<note>
				<pitch>
					<step>D</step>
					<octave>4</octave>
				</pitch>
				<duration>240</duration>
				<voice>1</voice>
				<type>eighth</type>
				<lyric default-y="-85" number="1">
					<syllabic>end</syllabic>
					<text>zeit</text>
				</lyric>
			</note>
			<note>
				<pitch>
					<step>C</step>
					<octave>4</octave>
				</pitch>
				<duration>240</duration>
				<voice>1</voice>
				<type>eighth</type>
				<lyric default-y="-85" number="1">
					<syllabic>begin</syllabic>
					<text>ge</text>
				</lyric>
			</note>
			<note>
				<pitch>
					<step>A</step>
					<octave>3</octave>
				</pitch>
				<duration>240</duration>
				<voice>1</voice>
				<type>eighth</type>
				<lyric default-y="-85" number="1">
					<syllabic>middle</syllabic>
					<text>prie</text>
				</lyric>
			</note>
			<note>
				<pitch>
					<step>A</step>
					<octave>3</octave>
				</pitch>
				<duration>240</duration>
				<voice>1</voice>
				<type>eighth</type>
				<lyric default-y="-85" number="1">
					<syllabic>end</syllabic>
					<text>sen.</text>
				</lyric>
			</note>
			<note>
				<rest>
					<display-step>D</display-step>
					<display-octave>3</display-octave>
				</rest>
				<duration>480</duration>
				<voice>1</voice>
				<type>quarter</type>
			</note>
		</measure>
		<measure number="7">
			<note>
				<rest>
					<display-step>D</display-step>
					<display-octave>3</display-octave>
				</rest>
				<duration>240</duration>
				<voice>1</voice>
				<type>eighth</type>
			</note>
			<note>
				<pitch>
					<step>E</step>
					<octave>3</octave>
				</pitch>
				<duration>240</duration>
				<voice>1</voice>
				<type>eighth</type>
				<lyric default-y="-85" number="1">
					<syllabic>single</syllabic>
					<text>Weil</text>
				</lyric>
			</note>
			<note>
				<pitch>
					<step>A</step>
					<octave>3</octave>
				</pitch>
				<duration>240</duration>
				<voice>1</voice>
				<type>eighth</type>
				<lyric default-y="-85" number="1">
					<syllabic>begin</syllabic>
					<text>a</text>
				</lyric>
			</note>
			<note>
				<pitch>
					<step>B</step>
					<octave>3</octave>
				</pitch>
				<duration>240</duration>
				<voice>1</voice>
				<type>eighth</type>
				<lyric default-y="-85" number="1">
					<syllabic>end</syllabic>
					<text>ber</text>
				</lyric>
			</note>
			<note>
				<pitch>
					<step>C</step>
					<alter>1</alter>
					<octave>4</octave>
				</pitch>
				<duration>240</duration>
				<voice>1</voice>
				<type>eighth</type>
				<accidental>sharp</accidental>
				<lyric default-y="-85" number="1">
					<syllabic>begin</syllabic>
					<text>vie</text>
				</lyric>
			</note>
			<note>
				<pitch>
					<step>D</step>
					<octave>4</octave>
				</pitch>
				<duration>240</duration>
				<voice>1</voice>
				<type>eighth</type>
				<lyric default-y="-85" number="1">
					<syllabic>end</syllabic>
					<text>le</text>
				</lyric>
			</note>
			<note>
				<pitch>
					<step>E</step>
					<octave>4</octave>
				</pitch>
				<duration>240</duration>
				<voice>1</voice>
				<type>eighth</type>
				<lyric default-y="-85" number="1">
					<syllabic>single</syllabic>
					<text>noch</text>
				</lyric>
			</note>
			<note>
				<rest>
					<display-step>D</display-step>
					<display-octave>3</display-octave>
				</rest>
				<duration>120</duration>
				<voice>1</voice>
				<type>16th</type>
			</note>
			<note>
				<pitch>
					<step>A</step>
					<octave>3</octave>
				</pitch>
				<duration>120</duration>
				<voice>1</voice>
				<type>16th</type>
				<lyric default-y="-85" number="1">
					<syllabic>single</syllabic>
					<text>zu</text>
				</lyric>
			</note>
		</measure>
		<measure number="8">
			<print new-system="yes">
				<system-layout>
					<system-margins>
						<left-margin>30</left-margin>
						<right-margin>0</right-margin>
					</system-margins>
					<system-distance>120</system-distance>
				</system-layout>
				<staff-layout number="1">
					<staff-distance>40</staff-distance>
				</staff-layout>
			</print>
			<note>
				<pitch>
					<step>A</step>
					<octave>3</octave>
				</pitch>
				<duration>240</duration>
				<voice>1</voice>
				<type>eighth</type>
				<lyric default-y="-85" number="1">
					<syllabic>begin</syllabic>
					<text>die</text>
				</lyric>
			</note>
			<note>
				<pitch>
					<step>E</step>
					<octave>3</octave>
				</pitch>
				<duration>240</duration>
				<voice>1</voice>
				<type>eighth</type>
				<lyric default-y="-85" number="1">
					<syllabic>end</syllabic>
					<text>ser</text>
				</lyric>
			</note>
			<note>
				<pitch>
					<step>C</step>
					<alter>1</alter>
					<octave>3</octave>
				</pitch>
				<duration>240</duration>
				<voice>1</voice>
				<type>eighth</type>
				<accidental>sharp</accidental>
				<lyric default-y="-85" number="1">
					<syllabic>single</syllabic>
					<text>Zeit</text>
				</lyric>
			</note>
			<note>
				<rest>
					<display-step>D</display-step>
					<display-octave>3</display-octave>
				</rest>
				<duration>120</duration>
				<voice>1</voice>
				<type>16th</type>
			</note>
			<note>
				<pitch>
					<step>E</step>
					<octave>3</octave>
				</pitch>
				<duration>120</duration>
				<voice>1</voice>
				<type>16th</type>
				<lyric default-y="-85" number="1">
					<syllabic>single</syllabic>
					<text>an</text>
				</lyric>
			</note>
			<note>
				<pitch>
					<step>B</step>
					<alter>-1</alter>
					<octave>3</octave>
				</pitch>
				<duration>240</duration>
				<voice>1</voice>
				<type>eighth</type>
				<accidental>flat</accidental>
				<lyric default-y="-85" number="1">
					<syllabic>begin</syllabic>
					<text>frem</text>
				</lyric>
			</note>
			<note>
				<pitch>
					<step>B</step>
					<alter>-1</alter>
					<octave>3</octave>
				</pitch>
				<duration>240</duration>
				<voice>1</voice>
				<type>eighth</type>
				<lyric default-y="-85" number="1">
					<syllabic>end</syllabic>
					<text>dem</text>
				</lyric>
			</note>
			<note>
				<pitch>
					<step>B</step>
					<alter>-1</alter>
					<octave>3</octave>
				</pitch>
				<duration>240</duration>
				<voice>1</voice>
				<type>eighth</type>
				<lyric default-y="-85" number="1">
					<syllabic>single</syllabic>
					<text>Joch</text>
				</lyric>
			</note>
			<note>
				<pitch>
					<step>G</step>
					<octave>3</octave>
				</pitch>
				<duration>240</duration>
				<voice>1</voice>
				<type>eighth</type>
				<lyric default-y="-85" number="1">
					<syllabic>single</syllabic>
					<text>aus</text>
				</lyric>
			</note>
		</measure>
		<measure number="9">
			<note>
				<pitch>
					<step>C</step>
					<alter>1</alter>
					<octave>3</octave>
				</pitch>
				<duration>240</duration>
				<voice>1</voice>
				<type>eighth</type>
				<accidental>sharp</accidental>
				<lyric default-y="-85" number="1">
					<syllabic>begin</syllabic>
					<text>Blind</text>
				</lyric>
			</note>
			<note>
				<pitch>
					<step>D</step>
					<octave>3</octave>
				</pitch>
				<duration>240</duration>
				<voice>1</voice>
				<type>eighth</type>
				<lyric default-y="-85" number="1">
					<syllabic>end</syllabic>
					<text>heit</text>
				</lyric>
			</note>
			<note>
				<pitch>
					<step>E</step>
					<octave>3</octave>
				</pitch>
				<duration>240</duration>
				<voice>1</voice>
				<type>eighth</type>
				<lyric default-y="-85" number="1">
					<syllabic>begin</syllabic>
					<text>zie</text>
				</lyric>
			</note>
			<note>
				<pitch>
					<step>A</step>
					<octave>2</octave>
				</pitch>
				<duration>240</duration>
				<voice>1</voice>
				<type>eighth</type>
				<lyric default-y="-85" number="1">
					<syllabic>end</syllabic>
					<text>hen</text>
				</lyric>
			</note>
			<note>
				<pitch>
					<step>F</step>
					<alter>1</alter>
					<octave>3</octave>
				</pitch>
				<duration>240</duration>
				<voice>1</voice>
				<type>eighth</type>
				<lyric default-y="-85" number="1">
					<syllabic>begin</syllabic>
					<text>müs</text>
				</lyric>
			</note>
			<note>
				<pitch>
					<step>F</step>
					<alter>1</alter>
					<octave>3</octave>
				</pitch>
				<duration>240</duration>
				<voice>1</voice>
				<type>eighth</type>
				<lyric default-y="-85" number="1">
					<syllabic>end</syllabic>
					<text>sen,</text>
				</lyric>
			</note>
			<note>
				<rest>
					<display-step>D</display-step>
					<display-octave>3</display-octave>
				</rest>
				<duration>240</duration>
				<voice>1</voice>
				<type>eighth</type>
			</note>
			<note>
				<pitch>
					<step>E</step>
					<alter>-1</alter>
					<octave>4</octave>
				</pitch>
				<duration>240</duration>
				<voice>1</voice>
				<type>eighth</type>
				<accidental>flat</accidental>
				<lyric default-y="-85" number="1">
					<syllabic>single</syllabic>
					<text>ach!</text>
				</lyric>
			</note>
		</measure>
		<measure number="10">
			<print new-system="yes">
				<system-layout>
					<system-margins>
						<left-margin>30</left-margin>
						<right-margin>0</right-margin>
					</system-margins>
					<system-distance>120</system-distance>
				</system-layout>
				<staff-layout number="1">
					<staff-distance>40</staff-distance>
				</staff-layout>
			</print>
			<note>
				<rest>
					<display-step>D</display-step>
					<display-octave>3</display-octave>
				</rest>
				<duration>240</duration>
				<voice>1</voice>
				<type>eighth</type>
			</note>
			<note>
				<pitch>
					<step>C</step>
					<octave>4</octave>
				</pitch>
				<duration>120</duration>
				<voice>1</voice>
				<type>16th</type>
				<accidental cautionary="yes">natural</accidental>
				<lyric default-y="-85" number="1">
					<syllabic>single</syllabic>
					<text>so</text>
				</lyric>
			</note>
			<note>
				<pitch>
					<step>A</step>
					<octave>3</octave>
				</pitch>
				<duration>120</duration>
				<voice>1</voice>
				<type>16th</type>
				<lyric default-y="-85" number="1">
					<syllabic>begin</syllabic>
					<text>er</text>
				</lyric>
			</note>
			<note>
				<pitch>
					<step>F</step>
					<alter>1</alter>
					<octave>3</octave>
				</pitch>
				<duration>360</duration>
				<voice>1</voice>
				<type>eighth</type>
				<dot/>
				<lyric default-y="-85" number="1">
					<syllabic>middle</syllabic>
					<text>bar</text>
				</lyric>
			</note>
			<note>
				<pitch>
					<step>G</step>
					<octave>3</octave>
				</pitch>
				<duration>120</duration>
				<voice>1</voice>
				<type>16th</type>
				<lyric default-y="-85" number="1">
					<syllabic>end</syllabic>
					<text>me</text>
				</lyric>
			</note>
			<note>
				<pitch>
					<step>A</step>
					<octave>3</octave>
				</pitch>
				<duration>240</duration>
				<voice>1</voice>
				<type>eighth</type>
				<lyric default-y="-85" number="1">
					<syllabic>single</syllabic>
					<text>dich</text>
				</lyric>
			</note>
			<note>
				<pitch>
					<step>D</step>
					<octave>3</octave>
				</pitch>
				<duration>240</duration>
				<voice>1</voice>
				<type>eighth</type>
				<lyric default-y="-85" number="1">
					<syllabic>single</syllabic>
					<text>auch</text>
				</lyric>
			</note>
			<note>
				<pitch>
					<step>D</step>
					<octave>4</octave>
				</pitch>
				<duration>240</duration>
				<voice>1</voice>
				<type>eighth</type>
				<lyric default-y="-85" number="1">
					<syllabic>begin</syllabic>
					<text>ih</text>
				</lyric>
			</note>
			<note>
				<pitch>
					<step>A</step>
					<octave>3</octave>
				</pitch>
				<duration>240</duration>
				<voice>1</voice>
				<type>eighth</type>
				<lyric default-y="-85" number="1">
					<syllabic>end</syllabic>
					<text>rer</text>
				</lyric>
			</note>
		</measure>
		<measure number="11">
			<note>
				<pitch>
					<step>B</step>
					<alter>-1</alter>
					<octave>3</octave>
				</pitch>
				<duration>360</duration>
				<voice>1</voice>
				<type>eighth</type>
				<dot/>
				<accidental>flat</accidental>
				<lyric default-y="-85" number="1">
					<syllabic>begin</syllabic>
					<text>gnä</text>
				</lyric>
			</note>
			<note>
				<pitch>
					<step>B</step>
					<alter>-1</alter>
					<octave>3</octave>
				</pitch>
				<duration>120</duration>
				<voice>1</voice>
				<type>16th</type>
				<lyric default-y="-85" number="1">
					<syllabic>middle</syllabic>
					<text>dig</text>
				</lyric>
			</note>
			<note>
				<pitch>
					<step>B</step>
					<alter>-1</alter>
					<octave>3</octave>
				</pitch>
				<duration>240</duration>
				<voice>1</voice>
				<type>eighth</type>
				<lyric default-y="-85" number="1">
					<syllabic>end</syllabic>
					<text>lich,</text>
				</lyric>
			</note>
			<note>
				<rest>
					<display-step>D</display-step>
					<display-octave>3</display-octave>
				</rest>
				<duration>120</duration>
				<voice>1</voice>
				<type>16th</type>
			</note>
			<note>
				<pitch>
					<step>G</step>
					<octave>3</octave>
				</pitch>
				<duration>120</duration>
				<voice>1</voice>
				<type>16th</type>
				<lyric default-y="-85" number="1">
					<syllabic>single</syllabic>
					<text>dass</text>
				</lyric>
			</note>
			<note>
				<pitch>
					<step>C</step>
					<alter>1</alter>
					<octave>4</octave>
				</pitch>
				<duration>240</duration>
				<voice>1</voice>
				<type>eighth</type>
				<accidental>sharp</accidental>
				<lyric default-y="-85" number="1">
					<syllabic>single</syllabic>
					<text>sie</text>
				</lyric>
			</note>
			<note>
				<pitch>
					<step>C</step>
					<alter>1</alter>
					<octave>4</octave>
				</pitch>
				<duration>240</duration>
				<voice>1</voice>
				<type>eighth</type>
				<lyric default-y="-85" number="1">
					<syllabic>single</syllabic>
					<text>den</text>
				</lyric>
			</note>
			<note>
				<pitch>
					<step>E</step>
					<octave>4</octave>
				</pitch>
				<duration>120</duration>
				<voice>1</voice>
				<type>16th</type>
				<lyric default-y="-85" number="1">
					<syllabic>begin</syllabic>
					<text>rech</text>
				</lyric>
			</note>
			<note>
				<pitch>
					<step>C</step>
					<alter>1</alter>
					<octave>4</octave>
				</pitch>
				<duration>120</duration>
				<voice>1</voice>
				<type>16th</type>
				<lyric default-y="-85" number="1">
					<syllabic>end</syllabic>
					<text>ten</text>
				</lyric>
			</note>
			<note>
				<pitch>
					<step>A</step>
					<alter>1</alter>
					<octave>3</octave>
				</pitch>
				<duration>120</duration>
				<voice>1</voice>
				<type>16th</type>
				<accidental>sharp</accidental>
				<lyric default-y="-85" number="1">
					<syllabic>single</syllabic>
					<text>Weg</text>
				</lyric>
			</note>
			<note>
				<pitch>
					<step>B</step>
					<octave>3</octave>
				</pitch>
				<duration>120</duration>
				<voice>1</voice>
				<type>16th</type>
				<accidental>natural</accidental>
				<lyric default-y="-85" number="1">
					<syllabic>begin</syllabic>
					<text>er</text>
				</lyric>
			</note>
		</measure>
		<measure number="12">
			<print new-system="yes">
				<system-layout>
					<system-margins>
						<left-margin>30</left-margin>
						<right-margin>0</right-margin>
					</system-margins>
					<system-distance>120</system-distance>
				</system-layout>
				<staff-layout number="1">
					<staff-distance>40</staff-distance>
				</staff-layout>
			</print>
			<note>
				<pitch>
					<step>C</step>
					<alter>1</alter>
					<octave>4</octave>
				</pitch>
				<duration>240</duration>
				<voice>1</voice>
				<type>eighth</type>
				<accidental>sharp</accidental>
				<lyric default-y="-85" number="1">
					<syllabic>middle</syllabic>
					<text>ken</text>
				</lyric>
			</note>
			<note>
				<pitch>
					<step>F</step>
					<alter>1</alter>
					<octave>3</octave>
				</pitch>
				<duration>240</duration>
				<voice>1</voice>
				<type>eighth</type>
				<lyric default-y="-85" number="1">
					<syllabic>end</syllabic>
					<text>nen</text>
				</lyric>
			</note>
			<note>
				<rest>
					<display-step>D</display-step>
					<display-octave>3</display-octave>
				</rest>
				<duration>240</duration>
				<voice>1</voice>
				<type>eighth</type>
			</note>
			<note>
				<pitch>
					<step>F</step>
					<alter>1</alter>
					<octave>3</octave>
				</pitch>
				<duration>240</duration>
				<voice>1</voice>
				<type>eighth</type>
				<lyric default-y="-85" number="1">
					<syllabic>single</syllabic>
					<text>und</text>
				</lyric>
			</note>
			<note>
				<pitch>
					<step>D</step>
					<octave>4</octave>
				</pitch>
				<duration>240</duration>
				<voice>1</voice>
				<type>eighth</type>
				<lyric default-y="-85" number="1">
					<syllabic>single</syllabic>
					<text>dich</text>
				</lyric>
			</note>
			<note>
				<pitch>
					<step>B</step>
					<octave>3</octave>
				</pitch>
				<duration>240</duration>
				<voice>1</voice>
				<type>eighth</type>
				<lyric default-y="-85" number="1">
					<syllabic>single</syllabic>
					<text>bloß</text>
				</lyric>
			</note>
			<note>
				<rest>
					<display-step>D</display-step>
					<display-octave>3</display-octave>
				</rest>
				<duration>240</duration>
				<voice>1</voice>
				<type>eighth</type>
			</note>
			<note>
				<pitch>
					<step>A</step>
					<octave>3</octave>
				</pitch>
				<duration>120</duration>
				<voice>1</voice>
				<type>16th</type>
				<accidental cautionary="yes">natural</accidental>
				<lyric default-y="-85" number="1">
					<syllabic>begin</syllabic>
					<text>ih</text>
				</lyric>
			</note>
			<note>
				<pitch>
					<step>F</step>
					<alter>1</alter>
					<octave>3</octave>
				</pitch>
				<duration>120</duration>
				<voice>1</voice>
				<type>16th</type>
				<lyric default-y="-85" number="1">
					<syllabic>end</syllabic>
					<text>ren</text>
				</lyric>
			</note>
		</measure>
		<measure number="13">
			<note>
				<pitch>
					<step>G</step>
					<octave>3</octave>
				</pitch>
				<duration>120</duration>
				<voice>1</voice>
				<type>16th</type>
				<beam number="1">begin</beam>
				<beam number="2">begin</beam>
				<lyric default-y="-85" number="1">
					<syllabic>single</syllabic>
					<text>Mitt</text>
				</lyric>
			</note>
			<note>
				<pitch>
					<step>E</step>
					<octave>3</octave>
				</pitch>
				<duration>120</duration>
				<voice>1</voice>
				<type>16th</type>
				<beam number="1">continue</beam>
				<beam number="2">continue</beam>
			</note>
			<note>
				<pitch>
					<step>A</step>
					<alter>1</alter>
					<octave>3</octave>
				</pitch>
				<duration>240</duration>
				<tie type="start"/>
				<voice>1</voice>
				<type>eighth</type>
				<accidental>sharp</accidental>
				<beam number="1">end</beam>
				<beam number="2">end</beam>
				<notations>
					<tied type="start"/>
				</notations>
			</note>
			<note>
				<pitch>
					<step>A</step>
					<alter>1</alter>
					<octave>3</octave>
				</pitch>
				<duration>240</duration>
				<tie type="stop"/>
				<voice>1</voice>
				<type>eighth</type>
				<notations>
					<tied type="stop"/>
				</notations>
			</note>
			<note>
				<pitch>
					<step>B</step>
					<octave>3</octave>
				</pitch>
				<duration>240</duration>
				<voice>1</voice>
				<type>eighth</type>
				<lyric default-y="-85" number="1">
					<syllabic>single</syllabic>
					<text>ler</text>
				</lyric>
			</note>
			<note>
				<pitch>
					<step>B</step>
					<octave>3</octave>
				</pitch>
				<duration>240</duration>
				<voice>1</voice>
				<type>eighth</type>
				<lyric default-y="-85" number="1">
					<syllabic>begin</syllabic>
					<text>nen</text>
				</lyric>
			</note>
			<note>
				<pitch>
					<step>F</step>
					<alter>1</alter>
					<octave>3</octave>
				</pitch>
				<duration>240</duration>
				<voice>1</voice>
				<type>eighth</type>
				<lyric default-y="-85" number="1">
					<syllabic>end</syllabic>
					<text>nen.</text>
				</lyric>
			</note>
			<note>
				<rest>
					<display-step>D</display-step>
					<display-octave>3</display-octave>
				</rest>
				<duration>480</duration>
				<voice>1</voice>
				<type>quarter</type>
			</note>
		</measure>
		<measure number="14">
			<note>
				<rest measure="yes"/>
				<duration>1920</duration>
				<voice>1</voice>
				<type>whole</type>
				<notations>
					<fermata type="upright"/>
				</notations>
			</note>
			<barline>
				<bar-style>light-heavy</bar-style>
			</barline>
		</measure>
	</part>
	<part id="P2">
		<measure number="1">
			<direction>
				<direction-type>
					<other-direction/>
				</direction-type>
				<sound tempo="62"/>
			</direction>
			<print>
				<system-layout>
					<system-margins>
						<left-margin>114</left-margin>
						<right-margin>0</right-margin>
					</system-margins>
					<top-system-distance>120</top-system-distance>
				</system-layout>
				<staff-layout number="1">
					<staff-distance>80</staff-distance>
				</staff-layout>
			</print>
			<attributes>
				<divisions>480</divisions>
				<key>
					<fifths>1</fifths>
					<mode>major</mode>
				</key>
				<time symbol="common">
					<beats>4</beats>
					<beat-type>4</beat-type>
				</time>
				<clef>
					<sign>F</sign>
					<line>4</line>
				</clef>
			</attributes>
			<note>
				<pitch>
					<step>E</step>
					<octave>3</octave>
				</pitch>
				<duration>1920</duration>
				<tie type="start"/>
				<voice>1</voice>
				<type>whole</type>
				<notations>
					<tied type="start"/>
				</notations>
			</note>
		</measure>
		<measure number="2">
			<note>
				<pitch>
					<step>E</step>
					<octave>3</octave>
				</pitch>
				<duration>1920</duration>
				<tie type="start"/>
				<tie type="stop"/>
				<voice>1</voice>
				<type>whole</type>
				<notations>
					<tied type="start"/>
					<tied type="stop"/>
				</notations>
				<lyric default-y="-70" number="1">
					<syllabic>single</syllabic>
					<text>/</text>
				</lyric>
				<lyric default-y="-85" number="2">
					<syllabic>single</syllabic>
					<text>4</text>
				</lyric>
				<lyric default-y="-100" number="3">
					<syllabic>single</syllabic>
					<text>2</text>
				</lyric>
			</note>
		</measure>
		<measure number="3">
			<print new-system="yes">
				<system-layout>
					<system-margins>
						<left-margin>30</left-margin>
						<right-margin>0</right-margin>
					</system-margins>
					<system-distance>120</system-distance>
				</system-layout>
				<staff-layout number="1">
					<staff-distance>80</staff-distance>
				</staff-layout>
			</print>
			<note>
				<pitch>
					<step>E</step>
					<octave>3</octave>
				</pitch>
				<duration>960</duration>
				<tie type="stop"/>
				<voice>1</voice>
				<type>half</type>
				<notations>
					<tied type="stop"/>
				</notations>
				<lyric default-y="-70" number="1">
					<syllabic>single</syllabic>
					<text>5</text>
				</lyric>
				<lyric default-y="-85" number="2">
					<syllabic>single</syllabic>
					<text>3</text>
				</lyric>
			</note>
			<note>
				<pitch>
					<step>B</step>
					<octave>2</octave>
				</pitch>
				<duration>960</duration>
				<tie type="start"/>
				<voice>1</voice>
				<type>half</type>
				<notations>
					<tied type="start"/>
				</notations>
			</note>
		</measure>
		<measure number="4">
			<note>
				<pitch>
					<step>B</step>
					<octave>2</octave>
				</pitch>
				<duration>1920</duration>
				<tie type="stop"/>
				<voice>1</voice>
				<type>whole</type>
				<notations>
					<tied type="stop"/>
				</notations>
			</note>
		</measure>
		<measure number="5">
			<note>
				<pitch>
					<step>G</step>
					<alter>1</alter>
					<octave>2</octave>
				</pitch>
				<duration>1920</duration>
				<voice>1</voice>
				<type>whole</type>
				<accidental>sharp</accidental>
			</note>
		</measure>
		<measure number="6">
			<print new-system="yes">
				<system-layout>
					<system-margins>
						<left-margin>30</left-margin>
						<right-margin>0</right-margin>
					</system-margins>
					<system-distance>120</system-distance>
				</system-layout>
				<staff-layout number="1">
					<staff-distance>80</staff-distance>
				</staff-layout>
			</print>
			<note>
				<pitch>
					<step>A</step>
					<octave>2</octave>
				</pitch>
				<duration>480</duration>
				<voice>1</voice>
				<type>quarter</type>
			</note>
			<note>
				<pitch>
					<step>F</step>
					<octave>3</octave>
				</pitch>
				<duration>480</duration>
				<voice>1</voice>
				<type>quarter</type>
				<accidental>natural</accidental>
			</note>
			<note>
				<rest>
					<display-step>D</display-step>
					<display-octave>3</display-octave>
				</rest>
				<duration>480</duration>
				<voice>1</voice>
				<type>quarter</type>
			</note>
			<note>
				<pitch>
					<step>E</step>
					<octave>3</octave>
				</pitch>
				<duration>480</duration>
				<voice>1</voice>
				<type>quarter</type>
			</note>
		</measure>
		<measure number="7">
			<note>
				<pitch>
					<step>A</step>
					<octave>2</octave>
				</pitch>
				<duration>960</duration>
				<voice>1</voice>
				<type>half</type>
			</note>
			<note>
				<pitch>
					<step>G</step>
					<octave>2</octave>
				</pitch>
				<duration>960</duration>
				<tie type="start"/>
				<voice>1</voice>
				<type>half</type>
				<notations>
					<tied type="start"/>
				</notations>
			</note>
		</measure>
		<measure number="8">
			<print new-system="yes">
				<system-layout>
					<system-margins>
						<left-margin>30</left-margin>
						<right-margin>0</right-margin>
					</system-margins>
					<system-distance>120</system-distance>
				</system-layout>
				<staff-layout number="1">
					<staff-distance>80</staff-distance>
				</staff-layout>
			</print>
			<note>
				<pitch>
					<step>G</step>
					<octave>2</octave>
				</pitch>
				<duration>960</duration>
				<tie type="stop"/>
				<voice>1</voice>
				<type>half</type>
				<notations>
					<tied type="stop"/>
				</notations>
			</note>
			<note>
				<pitch>
					<step>C</step>
					<alter>1</alter>
					<octave>3</octave>
				</pitch>
				<duration>960</duration>
				<tie type="start"/>
				<voice>1</voice>
				<type>half</type>
				<accidental>sharp</accidental>
				<notations>
					<tied type="start"/>
				</notations>
			</note>
		</measure>
		<measure number="9">
			<note>
				<pitch>
					<step>C</step>
					<alter>1</alter>
					<octave>3</octave>
				</pitch>
				<duration>960</duration>
				<tie type="stop"/>
				<voice>1</voice>
				<type>half</type>
				<notations>
					<tied type="stop"/>
				</notations>
			</note>
			<note>
				<pitch>
					<step>C</step>
					<octave>3</octave>
				</pitch>
				<duration>960</duration>
				<tie type="start"/>
				<voice>1</voice>
				<type>half</type>
				<accidental>natural</accidental>
				<notations>
					<tied type="start"/>
				</notations>
				<lyric default-y="-70" number="1">
					<syllabic>single</syllabic>
					<text>$            c</text>
				</lyric>
				<lyric default-y="-85" number="2">
					<syllabic>single</syllabic>
					<text>2</text>
				</lyric>
			</note>
		</measure>
		<measure number="10">
			<print new-system="yes">
				<system-layout>
					<system-margins>
						<left-margin>30</left-margin>
						<right-margin>0</right-margin>
					</system-margins>
					<system-distance>120</system-distance>
				</system-layout>
				<staff-layout number="1">
					<staff-distance>80</staff-distance>
				</staff-layout>
			</print>
			<note>
				<pitch>
					<step>C</step>
					<octave>3</octave>
				</pitch>
				<duration>1920</duration>
				<tie type="stop"/>
				<voice>1</voice>
				<type>whole</type>
				<notations>
					<tied type="stop"/>
				</notations>
			</note>
		</measure>
		<measure number="11">
			<note>
				<pitch>
					<step>G</step>
					<octave>2</octave>
				</pitch>
				<duration>1920</duration>
				<voice>1</voice>
				<type>whole</type>
				<lyric default-y="-70" number="1">
					<syllabic>single</syllabic>
					<text>Y                            6</text>
				</lyric>
				<lyric default-y="-85" number="2">
					<syllabic>single</syllabic>
					<text>                             $</text>
				</lyric>
				<lyric default-y="-100" number="3">
					<syllabic>single</syllabic>
					<text>                             &quot;</text>
				</lyric>
			</note>
		</measure>
		<measure number="12">
			<print new-system="yes">
				<system-layout>
					<system-margins>
						<left-margin>30</left-margin>
						<right-margin>0</right-margin>
					</system-margins>
					<system-distance>120</system-distance>
				</system-layout>
				<staff-layout number="1">
					<staff-distance>80</staff-distance>
				</staff-layout>
			</print>
			<note>
				<pitch>
					<step>A</step>
					<alter>1</alter>
					<octave>2</octave>
				</pitch>
				<duration>960</duration>
				<voice>1</voice>
				<type>half</type>
				<accidental>sharp</accidental>
				<lyric default-y="-70" number="1">
					<syllabic>single</syllabic>
					<text>6</text>
				</lyric>
				<lyric default-y="-85" number="2">
					<syllabic>single</syllabic>
					<text>5</text>
				</lyric>
			</note>
			<note>
				<pitch>
					<step>B</step>
					<octave>2</octave>
				</pitch>
				<duration>960</duration>
				<voice>1</voice>
				<type>half</type>
				<lyric default-y="-70" number="1">
					<syllabic>single</syllabic>
					<text>Q</text>
				</lyric>
			</note>
		</measure>
		<measure number="13">
			<note>
				<pitch>
					<step>E</step>
					<octave>3</octave>
				</pitch>
				<duration>960</duration>
				<voice>1</voice>
				<type>half</type>
				<lyric default-y="-70" number="1">
					<syllabic>single</syllabic>
					<text>6         $</text>
				</lyric>
				<lyric default-y="-85" number="2">
					<syllabic>single</syllabic>
					<text>5</text>
				</lyric>
			</note>
			<note>
				<rest>
					<display-step>D</display-step>
					<display-octave>3</display-octave>
				</rest>
				<duration>480</duration>
				<voice>1</voice>
				<type>quarter</type>
			</note>
			<note>
				<pitch>
					<step>F</step>
					<alter>1</alter>
					<octave>3</octave>
				</pitch>
				<duration>480</duration>
				<voice>1</voice>
				<type>quarter</type>
				<lyric default-y="-70" number="1">
					<syllabic>single</syllabic>
					<text>#</text>
				</lyric>
			</note>
		</measure>
		<measure number="14">
			<note>
				<pitch>
					<step>B</step>
					<octave>2</octave>
				</pitch>
				<duration>1920</duration>
				<voice>1</voice>
				<type>whole</type>
				<notations>
					<fermata type="upright"/>
				</notations>
			</note>
			<barline>
				<bar-style>light-heavy</bar-style>
			</barline>
		</measure>
	</part>
</score-partwise>
