<?xml version="1.0" encoding="UTF-8" standalone="no"?>
<!--MusicXML 2.0 file created by CapToMusic.py CapXML to MusicXML converter version 1.37-->
<!DOCTYPE score-partwise PUBLIC "-//Recordare//DTD MusicXML 2.0 Partwise//EN" "http://www.musicxml.org/dtds/partwise.dtd">
<score-partwise version="2.0">
	<identification>
		<encoding>
			<encoding-date>2016-05-25</encoding-date>
			<software>CapToMusic.py CapXML to MusicXML converter version 1.37</software>
			<encoding-description>Options: FinaleDolet33=1, ChordCaseMatters=1, ExportToSibelius=0</encoding-description>
		</encoding>
	</identification>
	<defaults>
		<scaling>
			<millimeters>1.4</millimeters>
			<tenths>10.0</tenths>
		</scaling>
		<page-layout>
			<page-height>2121</page-height>
			<page-width>1500</page-width>
			<page-margins type="both">
				<left-margin>85</left-margin>
				<right-margin>85</right-margin>
				<top-margin>85</top-margin>
				<bottom-margin>85</bottom-margin>
			</page-margins>
		</page-layout>
		<system-layout>
			<system-margins>
				<left-margin>0</left-margin>
				<right-margin>0</right-margin>
			</system-margins>
			<system-distance>20</system-distance>
			<top-system-distance>40</top-system-distance>
		</system-layout>
	</defaults>
	<credit>
		<credit-words default-x="748" default-y="83" font-family="Times New Roman" font-size="8" justify="center">BWV 10 - S. #</credit-words>
	</credit>
	<part-list>
		<part-group type="start" number="1">
			<group-symbol>bracket</group-symbol>
		</part-group>
		<score-part id="P1">
			<part-name>Tenore.</part-name>
			<part-abbreviation></part-abbreviation>
			<score-instrument id="P1-I1">
				<instrument-name>Midi_54</instrument-name>
			</score-instrument>
			<midi-instrument id="P1-I1">
				<midi-channel>1</midi-channel>
				<midi-program>54</midi-program>
			</midi-instrument>
		</score-part>
		<score-part id="P2">
			<part-name>Continuo.</part-name>
			<part-abbreviation></part-abbreviation>
			<score-instrument id="P2-I1">
				<instrument-name>Midi_43</instrument-name>
			</score-instrument>
			<midi-instrument id="P2-I1">
				<midi-channel>2</midi-channel>
				<midi-program>43</midi-program>
			</midi-instrument>
		</score-part>
		<part-group type="stop" number="1"/>
	</part-list>
	<part id="P1">
		<measure number="1">
			<print>
				<system-layout>
					<system-margins>
						<left-margin>160</left-margin>
						<right-margin>0</right-margin>
					</system-margins>
					<top-system-distance>160</top-system-distance>
				</system-layout>
				<staff-layout number="1">
					<staff-distance>120</staff-distance>
				</staff-layout>
			</print>
			<attributes>
				<divisions>480</divisions>
				<key>
					<fifths>-2</fifths>
					<mode>major</mode>
				</key>
				<time symbol="common">
					<beats>4</beats>
					<beat-type>4</beat-type>
				</time>
				<clef>
					<sign>G</sign>
					<line>2</line>
					<clef-octave-change>-1</clef-octave-change>
				</clef>
			</attributes>
			<direction placement="above">
				<direction-type>
					<words relative-x="-131" default-y="62" font-family="Times New Roman" font-size="13" font-weight="bold">3. Recitativo.</words>
				</direction-type>
			</direction>
			<note>
				<rest>
					<display-step>B</display-step>
					<display-octave>3</display-octave>
				</rest>
				<duration>240</duration>
				<voice>1</voice>
				<type>eighth</type>
			</note>
			<note>
				<pitch>
					<step>D</step>
					<octave>4</octave>
				</pitch>
				<duration>240</duration>
				<voice>1</voice>
				<type>eighth</type>
				<lyric default-y="-85" number="1">
					<syllabic>single</syllabic>
					<text>Des</text>
				</lyric>
			</note>
			<note>
				<pitch>
					<step>G</step>
					<octave>4</octave>
				</pitch>
				<duration>240</duration>
				<voice>1</voice>
				<type>eighth</type>
				<lyric default-y="-85" number="1">
					<syllabic>begin</syllabic>
					<text>Höch</text>
				</lyric>
			</note>
			<note>
				<pitch>
					<step>D</step>
					<octave>4</octave>
				</pitch>
				<duration>240</duration>
				<voice>1</voice>
				<type>eighth</type>
				<lyric default-y="-85" number="1">
					<syllabic>end</syllabic>
					<text>sten</text>
				</lyric>
			</note>
			<note>
				<pitch>
					<step>E</step>
					<alter>-1</alter>
					<octave>4</octave>
				</pitch>
				<duration>240</duration>
				<voice>1</voice>
				<type>eighth</type>
				<lyric default-y="-85" number="1">
					<syllabic>single</syllabic>
					<text>Güt'</text>
				</lyric>
			</note>
			<note>
				<pitch>
					<step>C</step>
					<octave>4</octave>
				</pitch>
				<duration>240</duration>
				<voice>1</voice>
				<type>eighth</type>
				<lyric default-y="-85" number="1">
					<syllabic>single</syllabic>
					<text>und</text>
				</lyric>
			</note>
			<note>
				<pitch>
					<step>A</step>
					<octave>3</octave>
				</pitch>
				<duration>240</duration>
				<voice>1</voice>
				<type>eighth</type>
				<lyric default-y="-85" number="1">
					<syllabic>single</syllabic>
					<text>Treu'</text>
				</lyric>
			</note>
			<note>
				<rest>
					<display-step>B</display-step>
					<display-octave>3</display-octave>
				</rest>
				<duration>120</duration>
				<voice>1</voice>
				<type>16th</type>
			</note>
			<note>
				<pitch>
					<step>B</step>
					<alter>-1</alter>
					<octave>3</octave>
				</pitch>
				<duration>120</duration>
				<voice>1</voice>
				<type>16th</type>
				<lyric default-y="-85" number="1">
					<syllabic>single</syllabic>
					<text>wird</text>
				</lyric>
			</note>
		</measure>
		<measure number="2">
			<note>
				<pitch>
					<step>C</step>
					<octave>4</octave>
				</pitch>
				<duration>240</duration>
				<voice>1</voice>
				<type>eighth</type>
				<lyric default-y="-85" number="1">
					<syllabic>begin</syllabic>
					<text>al</text>
				</lyric>
			</note>
			<note>
				<pitch>
					<step>A</step>
					<octave>3</octave>
				</pitch>
				<duration>240</duration>
				<voice>1</voice>
				<type>eighth</type>
				<lyric default-y="-85" number="1">
					<syllabic>end</syllabic>
					<text>le</text>
				</lyric>
			</note>
			<note>
				<pitch>
					<step>F</step>
					<alter>1</alter>
					<octave>4</octave>
				</pitch>
				<duration>360</duration>
				<voice>1</voice>
				<type>eighth</type>
				<dot/>
				<accidental>sharp</accidental>
				<lyric default-y="-85" number="1">
					<syllabic>begin</syllabic>
					<text>Mor</text>
				</lyric>
			</note>
			<note>
				<pitch>
					<step>G</step>
					<octave>4</octave>
				</pitch>
				<duration>120</duration>
				<voice>1</voice>
				<type>16th</type>
				<lyric default-y="-85" number="1">
					<syllabic>end</syllabic>
					<text>gen</text>
				</lyric>
			</note>
			<note>
				<pitch>
					<step>G</step>
					<octave>4</octave>
				</pitch>
				<duration>480</duration>
				<voice>1</voice>
				<type>quarter</type>
				<lyric default-y="-85" number="1">
					<syllabic>single</syllabic>
					<text>neu,</text>
				</lyric>
			</note>
			<note>
				<rest>
					<display-step>B</display-step>
					<display-octave>3</display-octave>
				</rest>
				<duration>240</duration>
				<voice>1</voice>
				<type>eighth</type>
			</note>
			<note>
				<pitch>
					<step>G</step>
					<octave>3</octave>
				</pitch>
				<duration>240</duration>
				<voice>1</voice>
				<type>eighth</type>
				<lyric default-y="-85" number="1">
					<syllabic>single</syllabic>
					<text>und</text>
				</lyric>
			</note>
		</measure>
		<measure number="3">
			<note>
				<pitch>
					<step>D</step>
					<octave>4</octave>
				</pitch>
				<duration>120</duration>
				<voice>1</voice>
				<type>16th</type>
				<lyric default-y="-85" number="1">
					<syllabic>begin</syllabic>
					<text>wäh</text>
				</lyric>
			</note>
			<note>
				<pitch>
					<step>D</step>
					<octave>4</octave>
				</pitch>
				<duration>120</duration>
				<voice>1</voice>
				<type>16th</type>
				<lyric default-y="-85" number="1">
					<syllabic>end</syllabic>
					<text>ret</text>
				</lyric>
			</note>
			<note>
				<pitch>
					<step>D</step>
					<octave>4</octave>
				</pitch>
				<duration>120</duration>
				<voice>1</voice>
				<type>16th</type>
				<lyric default-y="-85" number="1">
					<syllabic>begin</syllabic>
					<text>im</text>
				</lyric>
			</note>
			<note>
				<pitch>
					<step>D</step>
					<octave>4</octave>
				</pitch>
				<duration>120</duration>
				<voice>1</voice>
				<type>16th</type>
				<lyric default-y="-85" number="1">
					<syllabic>end</syllabic>
					<text>mer</text>
				</lyric>
			</note>
			<note>
				<pitch>
					<step>D</step>
					<octave>4</octave>
				</pitch>
				<duration>240</duration>
				<voice>1</voice>
				<type>eighth</type>
				<lyric default-y="-85" number="1">
					<syllabic>single</syllabic>
					<text>für</text>
				</lyric>
			</note>
			<note>
				<pitch>
					<step>E</step>
					<alter>-1</alter>
					<octave>4</octave>
				</pitch>
				<duration>240</duration>
				<voice>1</voice>
				<type>eighth</type>
				<lyric default-y="-85" number="1">
					<syllabic>single</syllabic>
					<text>und</text>
				</lyric>
			</note>
			<note>
				<pitch>
					<step>F</step>
					<octave>4</octave>
				</pitch>
				<duration>480</duration>
				<voice>1</voice>
				<type>quarter</type>
				<lyric default-y="-85" number="1">
					<syllabic>single</syllabic>
					<text>für</text>
				</lyric>
			</note>
			<note>
				<rest>
					<display-step>B</display-step>
					<display-octave>3</display-octave>
				</rest>
				<duration>240</duration>
				<voice>1</voice>
				<type>eighth</type>
			</note>
			<note>
				<pitch>
					<step>D</step>
					<octave>4</octave>
				</pitch>
				<duration>240</duration>
				<voice>1</voice>
				<type>eighth</type>
				<lyric default-y="-85" number="1">
					<syllabic>single</syllabic>
					<text>bei</text>
				</lyric>
			</note>
		</measure>
		<measure number="4">
			<print new-system="yes">
				<system-layout>
					<system-margins>
						<left-margin>30</left-margin>
						<right-margin>0</right-margin>
					</system-margins>
					<system-distance>110</system-distance>
				</system-layout>
				<staff-layout number="1">
					<staff-distance>50</staff-distance>
				</staff-layout>
			</print>
			<attributes>
				<time>
					<beats>4</beats>
					<beat-type>4</beat-type>
				</time>
				<clef>
					<sign>G</sign>
					<line>2</line>
					<clef-octave-change>-1</clef-octave-change>
				</clef>
			</attributes>
			<note>
				<pitch>
					<step>B</step>
					<octave>3</octave>
				</pitch>
				<duration>240</duration>
				<voice>1</voice>
				<type>eighth</type>
				<accidental>natural</accidental>
				<lyric default-y="-85" number="1">
					<syllabic>begin</syllabic>
					<text>de</text>
				</lyric>
			</note>
			<note>
				<pitch>
					<step>B</step>
					<octave>3</octave>
				</pitch>
				<duration>240</duration>
				<voice>1</voice>
				<type>eighth</type>
				<lyric default-y="-85" number="1">
					<syllabic>end</syllabic>
					<text>nen</text>
				</lyric>
			</note>
			<note>
				<pitch>
					<step>D</step>
					<octave>4</octave>
				</pitch>
				<duration>240</duration>
				<voice>1</voice>
				<type>eighth</type>
				<lyric default-y="-85" number="1">
					<syllabic>single</syllabic>
					<text>die</text>
				</lyric>
			</note>
			<note>
				<pitch>
					<step>G</step>
					<octave>3</octave>
				</pitch>
				<duration>240</duration>
				<voice>1</voice>
				<type>eighth</type>
				<lyric default-y="-85" number="1">
					<syllabic>begin</syllabic>
					<text>all</text>
				</lyric>
			</note>
			<note>
				<pitch>
					<step>E</step>
					<alter>-1</alter>
					<octave>4</octave>
				</pitch>
				<duration>480</duration>
				<voice>1</voice>
				<type>quarter</type>
				<lyric default-y="-85" number="1">
					<syllabic>end</syllabic>
					<text>hier</text>
				</lyric>
			</note>
			<note>
				<rest>
					<display-step>B</display-step>
					<display-octave>3</display-octave>
				</rest>
				<duration>240</duration>
				<voice>1</voice>
				<type>eighth</type>
			</note>
			<note>
				<pitch>
					<step>C</step>
					<octave>4</octave>
				</pitch>
				<duration>240</duration>
				<voice>1</voice>
				<type>eighth</type>
				<lyric default-y="-85" number="1">
					<syllabic>single</syllabic>
					<text>auf</text>
				</lyric>
			</note>
		</measure>
		<measure number="5">
			<note>
				<pitch>
					<step>F</step>
					<alter>1</alter>
					<octave>3</octave>
				</pitch>
				<duration>240</duration>
				<voice>1</voice>
				<type>eighth</type>
				<accidental>sharp</accidental>
				<lyric default-y="-85" number="1">
					<syllabic>begin</syllabic>
					<text>sei</text>
				</lyric>
			</note>
			<note>
				<pitch>
					<step>A</step>
					<octave>3</octave>
				</pitch>
				<duration>240</duration>
				<voice>1</voice>
				<type>eighth</type>
				<lyric default-y="-85" number="1">
					<syllabic>end</syllabic>
					<text>ne</text>
				</lyric>
			</note>
			<note>
				<pitch>
					<step>C</step>
					<octave>4</octave>
				</pitch>
				<duration>240</duration>
				<voice>1</voice>
				<type>eighth</type>
				<lyric default-y="-85" number="1">
					<syllabic>begin</syllabic>
					<text>Hül</text>
				</lyric>
			</note>
			<note>
				<pitch>
					<step>B</step>
					<alter>-1</alter>
					<octave>3</octave>
				</pitch>
				<duration>240</duration>
				<voice>1</voice>
				<type>eighth</type>
				<accidental cautionary="yes">flat</accidental>
				<lyric default-y="-85" number="1">
					<syllabic>end</syllabic>
					<text>fe</text>
				</lyric>
			</note>
			<note>
				<pitch>
					<step>B</step>
					<alter>-1</alter>
					<octave>3</octave>
				</pitch>
				<duration>240</duration>
				<voice>1</voice>
				<type>eighth</type>
				<lyric default-y="-85" number="1">
					<syllabic>single</syllabic>
					<text>schau'n</text>
				</lyric>
			</note>
			<note>
				<rest>
					<display-step>B</display-step>
					<display-octave>3</display-octave>
				</rest>
				<duration>120</duration>
				<voice>1</voice>
				<type>16th</type>
			</note>
			<note>
				<pitch>
					<step>D</step>
					<octave>4</octave>
				</pitch>
				<duration>120</duration>
				<voice>1</voice>
				<type>16th</type>
				<lyric default-y="-85" number="1">
					<syllabic>single</syllabic>
					<text>und</text>
				</lyric>
			</note>
			<note>
				<pitch>
					<step>E</step>
					<alter>-1</alter>
					<octave>4</octave>
				</pitch>
				<duration>240</duration>
				<voice>1</voice>
				<type>eighth</type>
				<lyric default-y="-85" number="1">
					<syllabic>single</syllabic>
					<text>ihm</text>
				</lyric>
			</note>
			<note>
				<pitch>
					<step>F</step>
					<octave>4</octave>
				</pitch>
				<duration>240</duration>
				<voice>1</voice>
				<type>eighth</type>
				<lyric default-y="-85" number="1">
					<syllabic>single</syllabic>
					<text>in</text>
				</lyric>
			</note>
		</measure>
		<measure number="6">
			<note>
				<pitch>
					<step>G</step>
					<octave>4</octave>
				</pitch>
				<duration>240</duration>
				<voice>1</voice>
				<type>eighth</type>
				<lyric default-y="-85" number="1">
					<syllabic>begin</syllabic>
					<text>wah</text>
				</lyric>
			</note>
			<note>
				<pitch>
					<step>B</step>
					<alter>-1</alter>
					<octave>3</octave>
				</pitch>
				<duration>240</duration>
				<voice>1</voice>
				<type>eighth</type>
				<lyric default-y="-85" number="1">
					<syllabic>end</syllabic>
					<text>rer</text>
				</lyric>
			</note>
			<note>
				<pitch>
					<step>E</step>
					<alter>-1</alter>
					<octave>4</octave>
				</pitch>
				<duration>240</duration>
				<voice>1</voice>
				<type>eighth</type>
				<lyric default-y="-85" number="1">
					<syllabic>single</syllabic>
					<text>Furcht</text>
				</lyric>
			</note>
			<note>
				<pitch>
					<step>D</step>
					<octave>4</octave>
				</pitch>
				<duration>240</duration>
				<voice>1</voice>
				<type>eighth</type>
				<lyric default-y="-85" number="1">
					<syllabic>begin</syllabic>
					<text>ver</text>
				</lyric>
			</note>
			<note>
				<pitch>
					<step>B</step>
					<alter>-1</alter>
					<octave>3</octave>
				</pitch>
				<duration>480</duration>
				<voice>1</voice>
				<type>quarter</type>
				<lyric default-y="-85" number="1">
					<syllabic>end</syllabic>
					<text>trau'n;</text>
				</lyric>
			</note>
			<note>
				<rest>
					<display-step>B</display-step>
					<display-octave>3</display-octave>
				</rest>
				<duration>480</duration>
				<voice>1</voice>
				<type>quarter</type>
			</note>
		</measure>
		<measure number="7">
			<print new-system="yes">
				<system-layout>
					<system-margins>
						<left-margin>30</left-margin>
						<right-margin>0</right-margin>
					</system-margins>
					<system-distance>110</system-distance>
				</system-layout>
				<staff-layout number="1">
					<staff-distance>50</staff-distance>
				</staff-layout>
			</print>
			<attributes>
				<clef>
					<sign>G</sign>
					<line>2</line>
					<clef-octave-change>-1</clef-octave-change>
				</clef>
			</attributes>
			<note>
				<rest>
					<display-step>B</display-step>
					<display-octave>3</display-octave>
				</rest>
				<duration>240</duration>
				<voice>1</voice>
				<type>eighth</type>
			</note>
			<note>
				<rest>
					<display-step>B</display-step>
					<display-octave>3</display-octave>
				</rest>
				<duration>120</duration>
				<voice>1</voice>
				<type>16th</type>
			</note>
			<note>
				<pitch>
					<step>B</step>
					<alter>-1</alter>
					<octave>3</octave>
				</pitch>
				<duration>120</duration>
				<voice>1</voice>
				<type>16th</type>
				<lyric default-y="-85" number="1">
					<syllabic>begin</syllabic>
					<text>hin</text>
				</lyric>
			</note>
			<note>
				<pitch>
					<step>F</step>
					<octave>4</octave>
				</pitch>
				<duration>120</duration>
				<voice>1</voice>
				<type>16th</type>
				<lyric default-y="-85" number="1">
					<syllabic>middle</syllabic>
					<text>ge</text>
				</lyric>
			</note>
			<note>
				<pitch>
					<step>F</step>
					<octave>4</octave>
				</pitch>
				<duration>120</duration>
				<voice>1</voice>
				<type>16th</type>
				<lyric default-y="-85" number="1">
					<syllabic>end</syllabic>
					<text>gen</text>
				</lyric>
			</note>
			<note>
				<pitch>
					<step>A</step>
					<alter>-1</alter>
					<octave>4</octave>
				</pitch>
				<duration>120</duration>
				<voice>1</voice>
				<type>16th</type>
				<accidental>flat</accidental>
				<lyric default-y="-85" number="1">
					<syllabic>single</syllabic>
					<text>übt</text>
				</lyric>
			</note>
			<note>
				<pitch>
					<step>F</step>
					<octave>4</octave>
				</pitch>
				<duration>120</duration>
				<voice>1</voice>
				<type>16th</type>
				<lyric default-y="-85" number="1">
					<syllabic>single</syllabic>
					<text>er</text>
				</lyric>
			</note>
			<note>
				<pitch>
					<step>D</step>
					<octave>4</octave>
				</pitch>
				<duration>120</duration>
				<voice>1</voice>
				<type>16th</type>
				<lyric default-y="-85" number="1">
					<syllabic>single</syllabic>
					<text>auch</text>
				</lyric>
			</note>
			<note>
				<pitch>
					<step>E</step>
					<alter>-1</alter>
					<octave>4</octave>
				</pitch>
				<duration>120</duration>
				<voice>1</voice>
				<type>16th</type>
				<lyric default-y="-85" number="1">
					<syllabic>begin</syllabic>
					<text>Ge</text>
				</lyric>
			</note>
			<note>
				<pitch>
					<step>F</step>
					<octave>4</octave>
				</pitch>
				<duration>60</duration>
				<voice>1</voice>
				<type>32nd</type>
				<beam number="1">begin</beam>
				<beam number="2">begin</beam>
				<beam number="3">begin</beam>
				<lyric default-y="-85" number="1">
					<syllabic>end</syllabic>
					<text>walt</text>
				</lyric>
			</note>
			<note>
				<pitch>
					<step>D</step>
					<octave>4</octave>
				</pitch>
				<duration>60</duration>
				<voice>1</voice>
				<type>32nd</type>
				<beam number="1">continue</beam>
				<beam number="2">continue</beam>
				<beam number="3">continue</beam>
			</note>
			<note>
				<pitch>
					<step>E</step>
					<alter>-1</alter>
					<octave>4</octave>
				</pitch>
				<duration>60</duration>
				<voice>1</voice>
				<type>32nd</type>
				<beam number="1">continue</beam>
				<beam number="2">continue</beam>
				<beam number="3">continue</beam>
			</note>
			<note>
				<pitch>
					<step>F</step>
					<octave>4</octave>
				</pitch>
				<duration>60</duration>
				<voice>1</voice>
				<type>32nd</type>
				<beam number="1">continue</beam>
				<beam number="2">continue</beam>
				<beam number="3">continue</beam>
				<beam number="4">end</beam>
				<beam number="5">end</beam>
				<beam number="6">end</beam>
			</note>
			<note>
				<pitch>
					<step>B</step>
					<alter>-1</alter>
					<octave>3</octave>
				</pitch>
				<duration>120</duration>
				<voice>1</voice>
				<type>16th</type>
				<beam number="1">end</beam>
				<beam number="2">end</beam>
				<beam number="3">end</beam>
			</note>
			<note>
				<pitch>
					<step>B</step>
					<alter>-1</alter>
					<octave>3</octave>
				</pitch>
				<duration>120</duration>
				<voice>1</voice>
				<type>16th</type>
				<lyric default-y="-85" number="1">
					<syllabic>single</syllabic>
					<text>mit</text>
				</lyric>
			</note>
			<note>
				<pitch>
					<step>C</step>
					<octave>4</octave>
				</pitch>
				<duration>120</duration>
				<voice>1</voice>
				<type>16th</type>
				<lyric default-y="-85" number="1">
					<syllabic>begin</syllabic>
					<text>sei</text>
				</lyric>
			</note>
			<note>
				<pitch>
					<step>D</step>
					<octave>4</octave>
				</pitch>
				<duration>120</duration>
				<voice>1</voice>
				<type>16th</type>
				<lyric default-y="-85" number="1">
					<syllabic>end</syllabic>
					<text>nem</text>
				</lyric>
			</note>
		</measure>
		<measure number="8">
			<note>
				<pitch>
					<step>E</step>
					<alter>-1</alter>
					<octave>4</octave>
				</pitch>
				<duration>240</duration>
				<voice>1</voice>
				<type>eighth</type>
				<lyric default-y="-85" number="1">
					<syllabic>single</syllabic>
					<text>Arm</text>
				</lyric>
			</note>
			<note>
				<rest>
					<display-step>B</display-step>
					<display-octave>3</display-octave>
				</rest>
				<duration>120</duration>
				<voice>1</voice>
				<type>16th</type>
			</note>
			<note>
				<pitch>
					<step>E</step>
					<alter>-1</alter>
					<octave>3</octave>
				</pitch>
				<duration>120</duration>
				<voice>1</voice>
				<type>16th</type>
				<lyric default-y="-85" number="1">
					<syllabic>single</syllabic>
					<text>an</text>
				</lyric>
			</note>
			<note>
				<pitch>
					<step>D</step>
					<alter>-1</alter>
					<octave>4</octave>
				</pitch>
				<duration>240</duration>
				<voice>1</voice>
				<type>eighth</type>
				<accidental>flat</accidental>
				<lyric default-y="-85" number="1">
					<syllabic>begin</syllabic>
					<text>de</text>
				</lyric>
			</note>
			<note>
				<pitch>
					<step>D</step>
					<alter>-1</alter>
					<octave>4</octave>
				</pitch>
				<duration>240</duration>
				<voice>1</voice>
				<type>eighth</type>
				<lyric default-y="-85" number="1">
					<syllabic>end</syllabic>
					<text>nen,</text>
				</lyric>
			</note>
			<note>
				<rest>
					<display-step>B</display-step>
					<display-octave>3</display-octave>
				</rest>
				<duration>240</duration>
				<voice>1</voice>
				<type>eighth</type>
			</note>
			<note>
				<pitch>
					<step>G</step>
					<octave>3</octave>
				</pitch>
				<duration>120</duration>
				<voice>1</voice>
				<type>16th</type>
				<lyric default-y="-85" number="1">
					<syllabic>begin</syllabic>
					<text>wel</text>
				</lyric>
			</note>
			<note>
				<pitch>
					<step>A</step>
					<alter>-1</alter>
					<octave>3</octave>
				</pitch>
				<duration>120</duration>
				<voice>1</voice>
				<type>16th</type>
				<accidental>flat</accidental>
				<lyric default-y="-85" number="1">
					<syllabic>end</syllabic>
					<text>che</text>
				</lyric>
			</note>
			<note>
				<pitch>
					<step>B</step>
					<alter>-1</alter>
					<octave>3</octave>
				</pitch>
				<duration>120</duration>
				<voice>1</voice>
				<type>16th</type>
				<lyric default-y="-85" number="1">
					<syllabic>begin</syllabic>
					<text>we</text>
				</lyric>
			</note>
			<note>
				<pitch>
					<step>B</step>
					<alter>-1</alter>
					<octave>3</octave>
				</pitch>
				<duration>120</duration>
				<voice>1</voice>
				<type>16th</type>
				<lyric default-y="-85" number="1">
					<syllabic>end</syllabic>
					<text>der</text>
				</lyric>
			</note>
			<note>
				<pitch>
					<step>D</step>
					<alter>-1</alter>
					<octave>4</octave>
				</pitch>
				<duration>120</duration>
				<voice>1</voice>
				<type>16th</type>
				<lyric default-y="-85" number="1">
					<syllabic>single</syllabic>
					<text>kalt</text>
				</lyric>
			</note>
			<note>
				<pitch>
					<step>C</step>
					<octave>4</octave>
				</pitch>
				<duration>120</duration>
				<voice>1</voice>
				<type>16th</type>
				<lyric default-y="-85" number="1">
					<syllabic>single</syllabic>
					<text>noch</text>
				</lyric>
			</note>
		</measure>
		<measure number="9">
			<print new-system="yes">
				<system-layout>
					<system-margins>
						<left-margin>30</left-margin>
						<right-margin>0</right-margin>
					</system-margins>
					<system-distance>110</system-distance>
				</system-layout>
				<staff-layout number="1">
					<staff-distance>50</staff-distance>
				</staff-layout>
			</print>
			<attributes>
				<clef>
					<sign>G</sign>
					<line>2</line>
					<clef-octave-change>-1</clef-octave-change>
				</clef>
			</attributes>
			<note>
				<pitch>
					<step>A</step>
					<octave>3</octave>
				</pitch>
				<duration>240</duration>
				<voice>1</voice>
				<type>eighth</type>
				<accidental cautionary="yes">natural</accidental>
				<lyric default-y="-85" number="1">
					<syllabic>single</syllabic>
					<text>warm</text>
				</lyric>
			</note>
			<note>
				<rest>
					<display-step>B</display-step>
					<display-octave>3</display-octave>
				</rest>
				<duration>120</duration>
				<voice>1</voice>
				<type>16th</type>
			</note>
			<note>
				<pitch>
					<step>C</step>
					<octave>4</octave>
				</pitch>
				<duration>120</duration>
				<voice>1</voice>
				<type>16th</type>
				<lyric default-y="-85" number="1">
					<syllabic>single</syllabic>
					<text>im</text>
				</lyric>
			</note>
			<note>
				<pitch>
					<step>C</step>
					<octave>4</octave>
				</pitch>
				<duration>240</duration>
				<voice>1</voice>
				<type>eighth</type>
				<lyric default-y="-85" number="1">
					<syllabic>begin</syllabic>
					<text>Glau</text>
				</lyric>
			</note>
			<note>
				<pitch>
					<step>F</step>
					<octave>3</octave>
				</pitch>
				<duration>240</duration>
				<voice>1</voice>
				<type>eighth</type>
				<lyric default-y="-85" number="1">
					<syllabic>end</syllabic>
					<text>ben</text>
				</lyric>
			</note>
			<note>
				<rest>
					<display-step>B</display-step>
					<display-octave>3</display-octave>
				</rest>
				<duration>240</duration>
				<voice>1</voice>
				<type>eighth</type>
			</note>
			<note>
				<pitch>
					<step>F</step>
					<octave>4</octave>
				</pitch>
				<duration>120</duration>
				<voice>1</voice>
				<type>16th</type>
				<lyric default-y="-85" number="1">
					<syllabic>single</syllabic>
					<text>und</text>
				</lyric>
			</note>
			<note>
				<pitch>
					<step>D</step>
					<octave>4</octave>
				</pitch>
				<duration>120</duration>
				<voice>1</voice>
				<type>16th</type>
				<lyric default-y="-85" number="1">
					<syllabic>single</syllabic>
					<text>im</text>
				</lyric>
			</note>
			<note>
				<pitch>
					<step>B</step>
					<octave>3</octave>
				</pitch>
				<duration>360</duration>
				<voice>1</voice>
				<type>eighth</type>
				<dot/>
				<accidental>natural</accidental>
				<lyric default-y="-85" number="1">
					<syllabic>begin</syllabic>
					<text>Lie</text>
				</lyric>
			</note>
			<note>
				<pitch>
					<step>E</step>
					<alter>-1</alter>
					<octave>4</octave>
				</pitch>
				<duration>120</duration>
				<voice>1</voice>
				<type>16th</type>
				<lyric default-y="-85" number="1">
					<syllabic>end</syllabic>
					<text>ben</text>
				</lyric>
			</note>
		</measure>
		<measure number="10">
			<note>
				<pitch>
					<step>C</step>
					<octave>4</octave>
				</pitch>
				<duration>480</duration>
				<voice>1</voice>
				<type>quarter</type>
				<lyric default-y="-85" number="1">
					<syllabic>single</syllabic>
					<text>sein.</text>
				</lyric>
			</note>
			<note>
				<rest>
					<display-step>B</display-step>
					<display-octave>3</display-octave>
				</rest>
				<duration>480</duration>
				<voice>1</voice>
				<type>quarter</type>
			</note>
			<note>
				<rest>
					<display-step>B</display-step>
					<display-octave>3</display-octave>
				</rest>
				<duration>240</duration>
				<voice>1</voice>
				<type>eighth</type>
			</note>
			<note>
				<pitch>
					<step>G</step>
					<octave>3</octave>
				</pitch>
				<duration>240</duration>
				<voice>1</voice>
				<type>eighth</type>
				<lyric default-y="-85" number="1">
					<syllabic>single</syllabic>
					<text>Die</text>
				</lyric>
			</note>
			<note>
				<pitch>
					<step>E</step>
					<octave>4</octave>
				</pitch>
				<duration>240</duration>
				<voice>1</voice>
				<type>eighth</type>
				<accidental>natural</accidental>
				<lyric default-y="-85" number="1">
					<syllabic>begin</syllabic>
					<text>nac</text>
				</lyric>
			</note>
			<note>
				<pitch>
					<step>E</step>
					<octave>4</octave>
				</pitch>
				<duration>240</duration>
				<voice>1</voice>
				<type>eighth</type>
				<lyric default-y="-85" number="1">
					<syllabic>end</syllabic>
					<text>ket</text>
				</lyric>
			</note>
		</measure>
		<measure number="11">
			<note>
				<rest>
					<display-step>B</display-step>
					<display-octave>3</display-octave>
				</rest>
				<duration>480</duration>
				<voice>1</voice>
				<type>quarter</type>
			</note>
			<note>
				<pitch>
					<step>G</step>
					<octave>4</octave>
				</pitch>
				<duration>240</duration>
				<voice>1</voice>
				<type>eighth</type>
				<lyric default-y="-85" number="1">
					<syllabic>single</syllabic>
					<text>bloss</text>
				</lyric>
			</note>
			<note>
				<rest>
					<display-step>B</display-step>
					<display-octave>3</display-octave>
				</rest>
				<duration>120</duration>
				<voice>1</voice>
				<type>16th</type>
			</note>
			<note>
				<pitch>
					<step>E</step>
					<octave>4</octave>
				</pitch>
				<duration>120</duration>
				<voice>1</voice>
				<type>16th</type>
				<accidental>natural</accidental>
				<lyric default-y="-85" number="1">
					<syllabic>single</syllabic>
					<text>und</text>
				</lyric>
			</note>
			<note>
				<pitch>
					<step>C</step>
					<alter>1</alter>
					<octave>4</octave>
				</pitch>
				<duration>480</duration>
				<voice>1</voice>
				<type>quarter</type>
				<accidental>sharp</accidental>
				<lyric default-y="-85" number="1">
					<syllabic>single</syllabic>
					<text>blind,</text>
				</lyric>
			</note>
			<note>
				<rest>
					<display-step>B</display-step>
					<display-octave>3</display-octave>
				</rest>
				<duration>120</duration>
				<voice>1</voice>
				<type>16th</type>
			</note>
			<note>
				<pitch>
					<step>A</step>
					<octave>3</octave>
				</pitch>
				<duration>120</duration>
				<voice>1</voice>
				<type>16th</type>
				<lyric default-y="-85" number="1">
					<syllabic>single</syllabic>
					<text>die</text>
				</lyric>
			</note>
			<note>
				<pitch>
					<step>C</step>
					<alter>1</alter>
					<octave>4</octave>
				</pitch>
				<duration>120</duration>
				<voice>1</voice>
				<type>16th</type>
				<lyric default-y="-85" number="1">
					<syllabic>begin</syllabic>
					<text>vol</text>
				</lyric>
			</note>
			<note>
				<pitch>
					<step>E</step>
					<octave>4</octave>
				</pitch>
				<duration>120</duration>
				<voice>1</voice>
				<type>16th</type>
				<lyric default-y="-85" number="1">
					<syllabic>end</syllabic>
					<text>ler</text>
				</lyric>
			</note>
		</measure>
		<measure number="12">
			<print new-system="yes">
				<system-layout>
					<system-margins>
						<left-margin>30</left-margin>
						<right-margin>0</right-margin>
					</system-margins>
					<system-distance>110</system-distance>
				</system-layout>
				<staff-layout number="1">
					<staff-distance>50</staff-distance>
				</staff-layout>
			</print>
			<attributes>
				<clef>
					<sign>G</sign>
					<line>2</line>
					<clef-octave-change>-1</clef-octave-change>
				</clef>
			</attributes>
			<note>
				<pitch>
					<step>A</step>
					<octave>4</octave>
				</pitch>
				<duration>240</duration>
				<voice>1</voice>
				<type>eighth</type>
				<lyric default-y="-85" number="1">
					<syllabic>single</syllabic>
					<text>Stolz</text>
				</lyric>
			</note>
			<note>
				<pitch>
					<step>E</step>
					<octave>4</octave>
				</pitch>
				<duration>240</duration>
				<voice>1</voice>
				<type>eighth</type>
				<accidental>natural</accidental>
				<lyric default-y="-85" number="1">
					<syllabic>single</syllabic>
					<text>und</text>
				</lyric>
			</note>
			<note>
				<pitch>
					<step>C</step>
					<alter>1</alter>
					<octave>4</octave>
				</pitch>
				<duration>240</duration>
				<voice>1</voice>
				<type>eighth</type>
				<accidental>sharp</accidental>
				<lyric default-y="-85" number="1">
					<syllabic>begin</syllabic>
					<text>Hof</text>
				</lyric>
			</note>
			<note>
				<pitch>
					<step>A</step>
					<octave>3</octave>
				</pitch>
				<duration>240</duration>
				<voice>1</voice>
				<type>eighth</type>
				<lyric default-y="-85" number="1">
					<syllabic>end</syllabic>
					<text>farth</text>
				</lyric>
			</note>
			<note>
				<pitch>
					<step>D</step>
					<octave>4</octave>
				</pitch>
				<duration>480</duration>
				<voice>1</voice>
				<type>quarter</type>
				<lyric default-y="-85" number="1">
					<syllabic>single</syllabic>
					<text>sind,</text>
				</lyric>
			</note>
			<note>
				<rest>
					<display-step>B</display-step>
					<display-octave>3</display-octave>
				</rest>
				<duration>240</duration>
				<voice>1</voice>
				<type>eighth</type>
			</note>
			<note>
				<pitch>
					<step>D</step>
					<octave>4</octave>
				</pitch>
				<duration>240</duration>
				<voice>1</voice>
				<type>eighth</type>
				<lyric default-y="-85" number="1">
					<syllabic>single</syllabic>
					<text>will</text>
				</lyric>
			</note>
		</measure>
		<measure number="13">
			<note>
				<pitch>
					<step>B</step>
					<alter>-1</alter>
					<octave>3</octave>
				</pitch>
				<duration>120</duration>
				<voice>1</voice>
				<type>16th</type>
				<beam number="1">begin</beam>
				<beam number="2">begin</beam>
				<lyric default-y="-85" number="1">
					<syllabic>single</syllabic>
					<text>sei</text>
				</lyric>
			</note>
			<note>
				<pitch>
					<step>G</step>
					<octave>3</octave>
				</pitch>
				<duration>120</duration>
				<voice>1</voice>
				<type>16th</type>
				<beam number="1">continue</beam>
				<beam number="2">continue</beam>
			</note>
			<note>
				<pitch>
					<step>B</step>
					<alter>-1</alter>
					<octave>3</octave>
				</pitch>
				<duration>120</duration>
				<voice>1</voice>
				<type>16th</type>
				<beam number="1">end</beam>
				<beam number="2">end</beam>
			</note>
			<note>
				<pitch>
					<step>D</step>
					<octave>4</octave>
				</pitch>
				<duration>120</duration>
				<voice>1</voice>
				<type>16th</type>
				<lyric default-y="-85" number="1">
					<syllabic>single</syllabic>
					<text>ne</text>
				</lyric>
			</note>
			<note>
				<pitch>
					<step>G</step>
					<octave>4</octave>
				</pitch>
				<duration>240</duration>
				<voice>1</voice>
				<type>eighth</type>
				<lyric default-y="-85" number="1">
					<syllabic>single</syllabic>
					<text>Hand</text>
				</lyric>
			</note>
			<note>
				<rest>
					<display-step>B</display-step>
					<display-octave>3</display-octave>
				</rest>
				<duration>120</duration>
				<voice>1</voice>
				<type>16th</type>
			</note>
			<note>
				<pitch>
					<step>E</step>
					<octave>4</octave>
				</pitch>
				<duration>120</duration>
				<voice>1</voice>
				<type>16th</type>
				<accidental>natural</accidental>
				<lyric default-y="-85" number="1">
					<syllabic>single</syllabic>
					<text>wie</text>
				</lyric>
			</note>
			<note>
				<pitch>
					<step>C</step>
					<alter>1</alter>
					<octave>4</octave>
				</pitch>
				<duration>120</duration>
				<voice>1</voice>
				<type>16th</type>
				<accidental>sharp</accidental>
				<beam number="1">begin</beam>
				<beam number="2">begin</beam>
				<lyric default-y="-85" number="1">
					<syllabic>single</syllabic>
					<text>Spreu</text>
				</lyric>
			</note>
			<note>
				<pitch>
					<step>G</step>
					<octave>4</octave>
				</pitch>
				<duration>120</duration>
				<voice>1</voice>
				<type>16th</type>
				<beam number="1">continue</beam>
				<beam number="2">continue</beam>
			</note>
			<note>
				<pitch>
					<step>E</step>
					<octave>4</octave>
				</pitch>
				<duration>120</duration>
				<voice>1</voice>
				<type>16th</type>
				<beam number="1">continue</beam>
				<beam number="2">continue</beam>
			</note>
			<note>
				<pitch>
					<step>C</step>
					<alter>1</alter>
					<octave>4</octave>
				</pitch>
				<duration>120</duration>
				<voice>1</voice>
				<type>16th</type>
				<beam number="1">continue</beam>
				<beam number="2">continue</beam>
				<beam number="3">end</beam>
				<beam number="4">end</beam>
			</note>
			<note>
				<pitch>
					<step>A</step>
					<octave>3</octave>
				</pitch>
				<duration>240</duration>
				<voice>1</voice>
				<type>eighth</type>
				<beam number="1">end</beam>
				<beam number="2">end</beam>
			</note>
			<note>
				<rest>
					<display-step>B</display-step>
					<display-octave>3</display-octave>
				</rest>
				<duration>120</duration>
				<voice>1</voice>
				<type>16th</type>
			</note>
			<note>
				<pitch>
					<step>G</step>
					<octave>3</octave>
				</pitch>
				<duration>120</duration>
				<voice>1</voice>
				<type>16th</type>
				<lyric default-y="-85" number="1">
					<syllabic>begin</syllabic>
					<text>zer</text>
				</lyric>
			</note>
		</measure>
		<measure number="14">
			<print new-system="yes">
				<system-layout>
					<system-margins>
						<left-margin>30</left-margin>
						<right-margin>0</right-margin>
					</system-margins>
					<system-distance>110</system-distance>
				</system-layout>
				<staff-layout number="1">
					<staff-distance>50</staff-distance>
				</staff-layout>
			</print>
			<attributes>
				<clef>
					<sign>G</sign>
					<line>2</line>
					<clef-octave-change>-1</clef-octave-change>
				</clef>
			</attributes>
			<note>
				<pitch>
					<step>F</step>
					<octave>3</octave>
				</pitch>
				<duration>80</duration>
				<voice>1</voice>
				<type>16th</type>
				<time-modification>
					<actual-notes>3</actual-notes>
					<normal-notes>2</normal-notes>
				</time-modification>
				<beam number="1">begin</beam>
				<beam number="2">begin</beam>
				<lyric default-y="-85" number="1">
					<syllabic>end</syllabic>
					<text>streu'n,</text>
				</lyric>
			</note>
			<note>
				<pitch>
					<step>E</step>
					<alter>-1</alter>
					<octave>3</octave>
				</pitch>
				<duration>80</duration>
				<voice>1</voice>
				<type>16th</type>
				<time-modification>
					<actual-notes>3</actual-notes>
					<normal-notes>2</normal-notes>
				</time-modification>
				<beam number="1">continue</beam>
				<beam number="2">continue</beam>
			</note>
			<note>
				<pitch>
					<step>D</step>
					<octave>3</octave>
				</pitch>
				<duration>80</duration>
				<voice>1</voice>
				<type>16th</type>
				<time-modification>
					<actual-notes>3</actual-notes>
					<normal-notes>2</normal-notes>
				</time-modification>
				<beam number="1">end</beam>
				<beam number="2">end</beam>
			</note>
			<note>
				<pitch>
					<step>A</step>
					<octave>3</octave>
				</pitch>
				<duration>80</duration>
				<voice>1</voice>
				<type>16th</type>
				<time-modification>
					<actual-notes>3</actual-notes>
					<normal-notes>2</normal-notes>
				</time-modification>
				<beam number="1">begin</beam>
				<beam number="2">begin</beam>
			</note>
			<note>
				<pitch>
					<step>G</step>
					<octave>3</octave>
				</pitch>
				<duration>80</duration>
				<voice>1</voice>
				<type>16th</type>
				<time-modification>
					<actual-notes>3</actual-notes>
					<normal-notes>2</normal-notes>
				</time-modification>
				<beam number="1">continue</beam>
				<beam number="2">continue</beam>
			</note>
			<note>
				<pitch>
					<step>F</step>
					<octave>3</octave>
				</pitch>
				<duration>80</duration>
				<voice>1</voice>
				<type>16th</type>
				<time-modification>
					<actual-notes>3</actual-notes>
					<normal-notes>2</normal-notes>
				</time-modification>
				<beam number="1">end</beam>
				<beam number="2">end</beam>
			</note>
			<note>
				<pitch>
					<step>C</step>
					<octave>4</octave>
				</pitch>
				<duration>80</duration>
				<voice>1</voice>
				<type>16th</type>
				<time-modification>
					<actual-notes>3</actual-notes>
					<normal-notes>2</normal-notes>
				</time-modification>
				<beam number="1">begin</beam>
				<beam number="2">begin</beam>
			</note>
			<note>
				<pitch>
					<step>B</step>
					<alter>-1</alter>
					<octave>3</octave>
				</pitch>
				<duration>80</duration>
				<voice>1</voice>
				<type>16th</type>
				<time-modification>
					<actual-notes>3</actual-notes>
					<normal-notes>2</normal-notes>
				</time-modification>
				<beam number="1">continue</beam>
				<beam number="2">continue</beam>
			</note>
			<note>
				<pitch>
					<step>A</step>
					<octave>3</octave>
				</pitch>
				<duration>80</duration>
				<voice>1</voice>
				<type>16th</type>
				<time-modification>
					<actual-notes>3</actual-notes>
					<normal-notes>2</normal-notes>
				</time-modification>
				<beam number="1">end</beam>
				<beam number="2">end</beam>
			</note>
			<note>
				<pitch>
					<step>E</step>
					<alter>-1</alter>
					<octave>4</octave>
				</pitch>
				<duration>80</duration>
				<voice>1</voice>
				<type>16th</type>
				<accidental cautionary="yes">flat</accidental>
				<time-modification>
					<actual-notes>3</actual-notes>
					<normal-notes>2</normal-notes>
				</time-modification>
				<beam number="1">begin</beam>
				<beam number="2">begin</beam>
			</note>
			<note>
				<pitch>
					<step>D</step>
					<octave>4</octave>
				</pitch>
				<duration>80</duration>
				<voice>1</voice>
				<type>16th</type>
				<time-modification>
					<actual-notes>3</actual-notes>
					<normal-notes>2</normal-notes>
				</time-modification>
				<beam number="1">continue</beam>
				<beam number="2">continue</beam>
			</note>
			<note>
				<pitch>
					<step>C</step>
					<octave>4</octave>
				</pitch>
				<duration>80</duration>
				<voice>1</voice>
				<type>16th</type>
				<time-modification>
					<actual-notes>3</actual-notes>
					<normal-notes>2</normal-notes>
				</time-modification>
				<beam number="1">end</beam>
				<beam number="2">end</beam>
			</note>
			<note>
				<pitch>
					<step>B</step>
					<octave>3</octave>
				</pitch>
				<duration>80</duration>
				<voice>1</voice>
				<type>16th</type>
				<accidental>natural</accidental>
				<time-modification>
					<actual-notes>3</actual-notes>
					<normal-notes>2</normal-notes>
				</time-modification>
				<beam number="1">begin</beam>
				<beam number="2">begin</beam>
			</note>
			<note>
				<pitch>
					<step>A</step>
					<octave>3</octave>
				</pitch>
				<duration>80</duration>
				<voice>1</voice>
				<type>16th</type>
				<time-modification>
					<actual-notes>3</actual-notes>
					<normal-notes>2</normal-notes>
				</time-modification>
				<beam number="1">continue</beam>
				<beam number="2">continue</beam>
			</note>
			<note>
				<pitch>
					<step>G</step>
					<alter>1</alter>
					<octave>3</octave>
				</pitch>
				<duration>80</duration>
				<voice>1</voice>
				<type>16th</type>
				<accidental>sharp</accidental>
				<time-modification>
					<actual-notes>3</actual-notes>
					<normal-notes>2</normal-notes>
				</time-modification>
				<beam number="1">end</beam>
				<beam number="2">end</beam>
			</note>
			<note>
				<pitch>
					<step>D</step>
					<octave>4</octave>
				</pitch>
				<duration>80</duration>
				<voice>1</voice>
				<type>16th</type>
				<time-modification>
					<actual-notes>3</actual-notes>
					<normal-notes>2</normal-notes>
				</time-modification>
				<beam number="1">begin</beam>
				<beam number="2">begin</beam>
			</note>
			<note>
				<pitch>
					<step>C</step>
					<octave>4</octave>
				</pitch>
				<duration>80</duration>
				<voice>1</voice>
				<type>16th</type>
				<time-modification>
					<actual-notes>3</actual-notes>
					<normal-notes>2</normal-notes>
				</time-modification>
				<beam number="1">continue</beam>
				<beam number="2">continue</beam>
			</note>
			<note>
				<pitch>
					<step>B</step>
					<octave>3</octave>
				</pitch>
				<duration>80</duration>
				<voice>1</voice>
				<type>16th</type>
				<time-modification>
					<actual-notes>3</actual-notes>
					<normal-notes>2</normal-notes>
				</time-modification>
				<beam number="1">end</beam>
				<beam number="2">end</beam>
			</note>
			<note>
				<pitch>
					<step>F</step>
					<octave>4</octave>
				</pitch>
				<duration>80</duration>
				<voice>1</voice>
				<type>16th</type>
				<time-modification>
					<actual-notes>3</actual-notes>
					<normal-notes>2</normal-notes>
				</time-modification>
				<beam number="1">begin</beam>
				<beam number="2">begin</beam>
			</note>
			<note>
				<pitch>
					<step>E</step>
					<octave>4</octave>
				</pitch>
				<duration>80</duration>
				<voice>1</voice>
				<type>16th</type>
				<accidental>natural</accidental>
				<time-modification>
					<actual-notes>3</actual-notes>
					<normal-notes>2</normal-notes>
				</time-modification>
				<beam number="1">continue</beam>
				<beam number="2">continue</beam>
			</note>
			<note>
				<pitch>
					<step>D</step>
					<octave>4</octave>
				</pitch>
				<duration>80</duration>
				<voice>1</voice>
				<type>16th</type>
				<time-modification>
					<actual-notes>3</actual-notes>
					<normal-notes>2</normal-notes>
				</time-modification>
				<beam number="1">end</beam>
				<beam number="2">end</beam>
			</note>
			<note>
				<pitch>
					<step>C</step>
					<alter>1</alter>
					<octave>4</octave>
				</pitch>
				<duration>80</duration>
				<voice>1</voice>
				<type>16th</type>
				<accidental>sharp</accidental>
				<time-modification>
					<actual-notes>3</actual-notes>
					<normal-notes>2</normal-notes>
				</time-modification>
				<beam number="1">begin</beam>
				<beam number="2">begin</beam>
			</note>
			<note>
				<pitch>
					<step>D</step>
					<octave>4</octave>
				</pitch>
				<duration>80</duration>
				<voice>1</voice>
				<type>16th</type>
				<time-modification>
					<actual-notes>3</actual-notes>
					<normal-notes>2</normal-notes>
				</time-modification>
				<beam number="1">continue</beam>
				<beam number="2">continue</beam>
			</note>
			<note>
				<pitch>
					<step>E</step>
					<octave>4</octave>
				</pitch>
				<duration>80</duration>
				<voice>1</voice>
				<type>16th</type>
				<time-modification>
					<actual-notes>3</actual-notes>
					<normal-notes>2</normal-notes>
				</time-modification>
				<beam number="1">end</beam>
				<beam number="2">end</beam>
			</note>
		</measure>
		<measure number="15">
			<note>
				<pitch>
					<step>G</step>
					<octave>3</octave>
				</pitch>
				<duration>80</duration>
				<voice>1</voice>
				<type>16th</type>
				<time-modification>
					<actual-notes>3</actual-notes>
					<normal-notes>2</normal-notes>
				</time-modification>
				<beam number="1">begin</beam>
				<beam number="2">begin</beam>
			</note>
			<note>
				<pitch>
					<step>F</step>
					<octave>3</octave>
				</pitch>
				<duration>80</duration>
				<voice>1</voice>
				<type>16th</type>
				<time-modification>
					<actual-notes>3</actual-notes>
					<normal-notes>2</normal-notes>
				</time-modification>
				<beam number="1">continue</beam>
				<beam number="2">continue</beam>
			</note>
			<note>
				<pitch>
					<step>E</step>
					<octave>3</octave>
				</pitch>
				<duration>80</duration>
				<voice>1</voice>
				<type>16th</type>
				<accidental>natural</accidental>
				<time-modification>
					<actual-notes>3</actual-notes>
					<normal-notes>2</normal-notes>
				</time-modification>
				<beam number="1">end</beam>
				<beam number="2">end</beam>
			</note>
			<note>
				<pitch>
					<step>B</step>
					<alter>-1</alter>
					<octave>3</octave>
				</pitch>
				<duration>80</duration>
				<voice>1</voice>
				<type>16th</type>
				<time-modification>
					<actual-notes>3</actual-notes>
					<normal-notes>2</normal-notes>
				</time-modification>
				<beam number="1">begin</beam>
				<beam number="2">begin</beam>
			</note>
			<note>
				<pitch>
					<step>A</step>
					<octave>3</octave>
				</pitch>
				<duration>80</duration>
				<voice>1</voice>
				<type>16th</type>
				<time-modification>
					<actual-notes>3</actual-notes>
					<normal-notes>2</normal-notes>
				</time-modification>
				<beam number="1">continue</beam>
				<beam number="2">continue</beam>
			</note>
			<note>
				<pitch>
					<step>G</step>
					<octave>3</octave>
				</pitch>
				<duration>80</duration>
				<voice>1</voice>
				<type>16th</type>
				<time-modification>
					<actual-notes>3</actual-notes>
					<normal-notes>2</normal-notes>
				</time-modification>
				<beam number="1">end</beam>
				<beam number="2">end</beam>
			</note>
			<note>
				<pitch>
					<step>C</step>
					<alter>1</alter>
					<octave>4</octave>
				</pitch>
				<duration>80</duration>
				<voice>1</voice>
				<type>16th</type>
				<accidental>sharp</accidental>
				<time-modification>
					<actual-notes>3</actual-notes>
					<normal-notes>2</normal-notes>
				</time-modification>
				<beam number="1">begin</beam>
				<beam number="2">begin</beam>
			</note>
			<note>
				<pitch>
					<step>B</step>
					<octave>3</octave>
				</pitch>
				<duration>80</duration>
				<voice>1</voice>
				<type>16th</type>
				<accidental>natural</accidental>
				<time-modification>
					<actual-notes>3</actual-notes>
					<normal-notes>2</normal-notes>
				</time-modification>
				<beam number="1">continue</beam>
				<beam number="2">continue</beam>
			</note>
			<note>
				<pitch>
					<step>A</step>
					<octave>3</octave>
				</pitch>
				<duration>80</duration>
				<voice>1</voice>
				<type>16th</type>
				<time-modification>
					<actual-notes>3</actual-notes>
					<normal-notes>2</normal-notes>
				</time-modification>
				<beam number="1">end</beam>
				<beam number="2">end</beam>
			</note>
			<note>
				<pitch>
					<step>E</step>
					<octave>4</octave>
				</pitch>
				<duration>80</duration>
				<voice>1</voice>
				<type>16th</type>
				<accidental>natural</accidental>
				<time-modification>
					<actual-notes>3</actual-notes>
					<normal-notes>2</normal-notes>
				</time-modification>
				<beam number="1">begin</beam>
				<beam number="2">begin</beam>
			</note>
			<note>
				<pitch>
					<step>D</step>
					<octave>4</octave>
				</pitch>
				<duration>80</duration>
				<voice>1</voice>
				<type>16th</type>
				<time-modification>
					<actual-notes>3</actual-notes>
					<normal-notes>2</normal-notes>
				</time-modification>
				<beam number="1">continue</beam>
				<beam number="2">continue</beam>
			</note>
			<note>
				<pitch>
					<step>C</step>
					<alter>1</alter>
					<octave>4</octave>
				</pitch>
				<duration>80</duration>
				<voice>1</voice>
				<type>16th</type>
				<accidental cautionary="yes">sharp</accidental>
				<time-modification>
					<actual-notes>3</actual-notes>
					<normal-notes>2</normal-notes>
				</time-modification>
				<beam number="1">end</beam>
				<beam number="2">end</beam>
			</note>
			<note>
				<pitch>
					<step>F</step>
					<octave>4</octave>
				</pitch>
				<duration>240</duration>
				<voice>1</voice>
				<type>eighth</type>
			</note>
			<note>
				<rest>
					<display-step>B</display-step>
					<display-octave>3</display-octave>
				</rest>
				<duration>120</duration>
				<voice>1</voice>
				<type>16th</type>
			</note>
			<note>
				<pitch>
					<step>D</step>
					<octave>4</octave>
				</pitch>
				<duration>120</duration>
				<voice>1</voice>
				<type>16th</type>
				<lyric default-y="-85" number="1">
					<syllabic>single</syllabic>
					<text>wie</text>
				</lyric>
			</note>
			<note>
				<pitch>
					<step>G</step>
					<alter>1</alter>
					<octave>4</octave>
				</pitch>
				<duration>120</duration>
				<voice>1</voice>
				<type>16th</type>
				<accidental>sharp</accidental>
				<beam number="1">begin</beam>
				<beam number="2">begin</beam>
				<lyric default-y="-85" number="1">
					<syllabic>single</syllabic>
					<text>Spreu</text>
				</lyric>
			</note>
			<note>
				<pitch>
					<step>A</step>
					<octave>4</octave>
				</pitch>
				<duration>120</duration>
				<voice>1</voice>
				<type>16th</type>
				<beam number="1">end</beam>
				<beam number="2">end</beam>
			</note>
			<note>
				<rest>
					<display-step>B</display-step>
					<display-octave>3</display-octave>
				</rest>
				<duration>120</duration>
				<voice>1</voice>
				<type>16th</type>
			</note>
			<note>
				<pitch>
					<step>D</step>
					<octave>4</octave>
				</pitch>
				<duration>120</duration>
				<voice>1</voice>
				<type>16th</type>
				<lyric default-y="-85" number="1">
					<syllabic>begin</syllabic>
					<text>zer</text>
				</lyric>
			</note>
		</measure>
		<measure number="16">
			<note>
				<pitch>
					<step>D</step>
					<octave>4</octave>
				</pitch>
				<duration>120</duration>
				<voice>1</voice>
				<type>16th</type>
				<beam number="1">begin</beam>
				<beam number="2">begin</beam>
				<notations>
					<slur number="1" placement="above" type="start"/>
				</notations>
				<lyric default-y="-85" number="1">
					<syllabic>end</syllabic>
					<text>streu'n.</text>
				</lyric>
			</note>
			<note>
				<pitch>
					<step>A</step>
					<octave>3</octave>
				</pitch>
				<duration>120</duration>
				<voice>1</voice>
				<type>16th</type>
				<beam number="1">end</beam>
				<beam number="2">end</beam>
				<notations>
					<slur number="1" type="stop"/>
				</notations>
			</note>
			<note>
				<rest>
					<display-step>B</display-step>
					<display-octave>3</display-octave>
				</rest>
				<duration>240</duration>
				<voice>1</voice>
				<type>eighth</type>
			</note>
			<note>
				<rest>
					<display-step>B</display-step>
					<display-octave>3</display-octave>
				</rest>
				<duration>480</duration>
				<voice>1</voice>
				<type>quarter</type>
			</note>
			<note>
				<rest>
					<display-step>B</display-step>
					<display-octave>3</display-octave>
				</rest>
				<duration>960</duration>
				<voice>1</voice>
				<type>half</type>
				<notations>
					<fermata type="upright"/>
				</notations>
			</note>
			<barline>
				<bar-style>light-heavy</bar-style>
			</barline>
		</measure>
	</part>
	<part id="P2">
		<measure number="1">
			<print>
				<system-layout>
					<system-margins>
						<left-margin>160</left-margin>
						<right-margin>0</right-margin>
					</system-margins>
					<top-system-distance>160</top-system-distance>
				</system-layout>
				<staff-layout number="1">
					<staff-distance>100</staff-distance>
				</staff-layout>
			</print>
			<attributes>
				<divisions>480</divisions>
				<key>
					<fifths>-2</fifths>
					<mode>major</mode>
				</key>
				<time symbol="common">
					<beats>4</beats>
					<beat-type>4</beat-type>
				</time>
				<clef>
					<sign>F</sign>
					<line>4</line>
				</clef>
			</attributes>
			<direction placement="below">
				<direction-type>
					<words relative-x="170" default-y="-75" font-family="Times New Roman" font-size="8">6</words>
				</direction-type>
			</direction>
			<direction placement="below">
				<direction-type>
					<words relative-x="170" default-y="-90" font-family="Times New Roman" font-size="8">4</words>
				</direction-type>
			</direction>
			<direction placement="below">
				<direction-type>
					<words relative-x="250" default-y="-75" font-family="Times New Roman" font-size="8">2</words>
				</direction-type>
			</direction>
			<note>
				<pitch>
					<step>G</step>
					<octave>2</octave>
				</pitch>
				<duration>1920</duration>
				<tie type="start"/>
				<voice>1</voice>
				<type>whole</type>
				<notations>
					<tied type="start"/>
				</notations>
				<lyric default-y="-75" number="1">
					<syllabic>single</syllabic>
					<text>5</text>
				</lyric>
				<lyric default-y="-90" number="2">
					<syllabic>single</syllabic>
					<text>3</text>
				</lyric>
			</note>
		</measure>
		<measure number="2">
			<direction placement="below">
				<direction-type>
					<words relative-x="145" default-y="-75" font-family="Times New Roman" font-size="8">5</words>
				</direction-type>
			</direction>
			<direction placement="below">
				<direction-type>
					<words relative-x="145" default-y="-90" font-family="Times New Roman" font-size="8">3</words>
				</direction-type>
			</direction>
			<note>
				<pitch>
					<step>G</step>
					<octave>2</octave>
				</pitch>
				<duration>1920</duration>
				<tie type="start"/>
				<tie type="stop"/>
				<voice>1</voice>
				<type>whole</type>
				<notations>
					<tied type="start"/>
					<tied type="stop"/>
				</notations>
				<lyric default-y="-75" number="1">
					<syllabic>single</syllabic>
					<text>7</text>
				</lyric>
				<lyric default-y="-90" number="2">
					<syllabic>single</syllabic>
					<text>4</text>
				</lyric>
				<lyric default-y="-105" number="3">
					<syllabic>single</syllabic>
					<text>2</text>
				</lyric>
			</note>
		</measure>
		<measure number="3">
			<direction placement="below">
				<direction-type>
					<words relative-x="210" default-y="-75" font-family="Times New Roman" font-size="8">7</words>
				</direction-type>
			</direction>
			<note>
				<pitch>
					<step>G</step>
					<octave>2</octave>
				</pitch>
				<duration>1920</duration>
				<tie type="start"/>
				<tie type="stop"/>
				<voice>1</voice>
				<type>whole</type>
				<notations>
					<tied type="start"/>
					<tied type="stop"/>
				</notations>
				<lyric default-y="-75" number="1">
					<syllabic>single</syllabic>
					<text>8</text>
				</lyric>
				<lyric default-y="-90" number="2">
					<syllabic>single</syllabic>
					<text>3</text>
				</lyric>
			</note>
		</measure>
		<measure number="4">
			<print new-system="yes">
				<system-layout>
					<system-margins>
						<left-margin>30</left-margin>
						<right-margin>0</right-margin>
					</system-margins>
					<system-distance>110</system-distance>
				</system-layout>
				<staff-layout number="1">
					<staff-distance>100</staff-distance>
				</staff-layout>
			</print>
			<attributes>
				<time>
					<beats>4</beats>
					<beat-type>4</beat-type>
				</time>
			</attributes>
			<direction placement="below">
				<direction-type>
					<words relative-x="170" default-y="-75" font-family="Times New Roman" font-size="8">6</words>
				</direction-type>
			</direction>
			<direction placement="below">
				<direction-type>
					<words relative-x="170" default-y="-90" font-family="Times New Roman" font-size="8">4</words>
				</direction-type>
			</direction>
			<note>
				<pitch>
					<step>G</step>
					<octave>2</octave>
				</pitch>
				<duration>1920</duration>
				<tie type="start"/>
				<tie type="stop"/>
				<voice>1</voice>
				<type>whole</type>
				<notations>
					<tied type="start"/>
					<tied type="stop"/>
				</notations>
				<lyric default-y="-75" number="1">
					<syllabic>single</syllabic>
					<text>7</text>
				</lyric>
			</note>
		</measure>
		<measure number="5">
			<direction placement="below">
				<direction-type>
					<words relative-x="185" default-y="-75" font-family="Times New Roman" font-size="8">8</words>
				</direction-type>
			</direction>
			<direction placement="below">
				<direction-type>
					<words relative-x="185" default-y="-105" font-family="Times New Roman" font-size="8">3</words>
				</direction-type>
			</direction>
			<direction placement="below">
				<direction-type>
					<words relative-x="185" default-y="-90" font-family="Times New Roman" font-size="8">5</words>
				</direction-type>
			</direction>
			<note>
				<pitch>
					<step>G</step>
					<octave>2</octave>
				</pitch>
				<duration>1440</duration>
				<tie type="stop"/>
				<voice>1</voice>
				<type>half</type>
				<dot/>
				<notations>
					<tied type="stop"/>
				</notations>
				<lyric default-y="-75" number="1">
					<syllabic>single</syllabic>
					<text>7</text>
				</lyric>
				<lyric default-y="-90" number="2">
					<syllabic>single</syllabic>
					<text>4</text>
				</lyric>
				<lyric default-y="-105" number="3">
					<syllabic>single</syllabic>
					<text>2</text>
				</lyric>
			</note>
			<note>
				<pitch>
					<step>F</step>
					<octave>2</octave>
				</pitch>
				<duration>480</duration>
				<voice>1</voice>
				<type>quarter</type>
				<lyric default-y="-75" number="1">
					<syllabic>single</syllabic>
					<text>6</text>
				</lyric>
				<lyric default-y="-90" number="2">
					<syllabic>single</syllabic>
					<text>4</text>
				</lyric>
				<lyric default-y="-105" number="3">
					<syllabic>single</syllabic>
					<text>2</text>
				</lyric>
			</note>
		</measure>
		<measure number="6">
			<direction placement="below">
				<direction-type>
					<words relative-x="100" default-y="-90" font-family="Times New Roman" font-size="8">5</words>
				</direction-type>
			</direction>
			<direction placement="below">
				<direction-type>
					<words relative-x="100" default-y="-75" font-family="Times New Roman" font-size="8">6</words>
				</direction-type>
			</direction>
			<note>
				<pitch>
					<step>E</step>
					<alter>-1</alter>
					<octave>2</octave>
				</pitch>
				<duration>960</duration>
				<voice>1</voice>
				<type>half</type>
				<lyric default-y="-75" number="1">
					<syllabic>single</syllabic>
					<text>7</text>
				</lyric>
			</note>
			<note>
				<rest>
					<display-step>D</display-step>
					<display-octave>3</display-octave>
				</rest>
				<duration>480</duration>
				<voice>1</voice>
				<type>quarter</type>
			</note>
			<note>
				<pitch>
					<step>F</step>
					<octave>2</octave>
				</pitch>
				<duration>480</duration>
				<voice>1</voice>
				<type>quarter</type>
				<lyric default-y="-75" number="1">
					<syllabic>single</syllabic>
					<text>    8  7</text>
				</lyric>
			</note>
		</measure>
		<measure number="7">
			<print new-system="yes">
				<system-layout>
					<system-margins>
						<left-margin>30</left-margin>
						<right-margin>0</right-margin>
					</system-margins>
					<system-distance>110</system-distance>
				</system-layout>
				<staff-layout number="1">
					<staff-distance>100</staff-distance>
				</staff-layout>
			</print>
			<note>
				<pitch>
					<step>B</step>
					<alter>-1</alter>
					<octave>2</octave>
				</pitch>
				<duration>480</duration>
				<voice>1</voice>
				<type>quarter</type>
			</note>
			<note>
				<pitch>
					<step>A</step>
					<alter>-1</alter>
					<octave>2</octave>
				</pitch>
				<duration>1440</duration>
				<voice>1</voice>
				<type>half</type>
				<dot/>
				<accidental>flat</accidental>
				<lyric default-y="-75" number="1">
					<syllabic>single</syllabic>
					<text>6</text>
				</lyric>
				<lyric default-y="-90" number="2">
					<syllabic>single</syllabic>
					<text>4</text>
				</lyric>
				<lyric default-y="-105" number="3">
					<syllabic>single</syllabic>
					<text>2</text>
				</lyric>
			</note>
		</measure>
		<measure number="8">
			<direction placement="below">
				<direction-type>
					<words relative-x="115" default-y="-75" font-family="Times New Roman" font-size="8">5</words>
				</direction-type>
			</direction>
			<note>
				<pitch>
					<step>G</step>
					<octave>2</octave>
				</pitch>
				<duration>960</duration>
				<tie type="stop"/>
				<voice>1</voice>
				<type>half</type>
				<notations>
					<tied type="stop"/>
				</notations>
				<lyric default-y="-75" number="1">
					<syllabic>single</syllabic>
					<text>6</text>
				</lyric>
			</note>
			<direction placement="below">
				<direction-type>
					<words relative-x="135" default-y="-75" font-family="Times New Roman" font-size="8">5</words>
				</direction-type>
			</direction>
			<note>
				<pitch>
					<step>E</step>
					<octave>2</octave>
				</pitch>
				<duration>960</duration>
				<voice>1</voice>
				<type>half</type>
				<accidental>natural</accidental>
				<lyric default-y="-75" number="1">
					<syllabic>single</syllabic>
					<text>6</text>
				</lyric>
			</note>
		</measure>
		<measure number="9">
			<print new-system="yes">
				<system-layout>
					<system-margins>
						<left-margin>30</left-margin>
						<right-margin>0</right-margin>
					</system-margins>
					<system-distance>110</system-distance>
				</system-layout>
				<staff-layout number="1">
					<staff-distance>100</staff-distance>
				</staff-layout>
			</print>
			<note>
				<pitch>
					<step>E</step>
					<alter>-1</alter>
					<octave>2</octave>
				</pitch>
				<duration>960</duration>
				<voice>1</voice>
				<type>half</type>
				<accidental cautionary="yes">flat</accidental>
				<lyric default-y="-75" number="1">
					<syllabic>single</syllabic>
					<text>6</text>
				</lyric>
				<lyric default-y="-90" number="2">
					<syllabic>single</syllabic>
					<text>4</text>
				</lyric>
				<lyric default-y="-105" number="3">
					<syllabic>single</syllabic>
					<text>2</text>
				</lyric>
			</note>
			<note>
				<pitch>
					<step>D</step>
					<octave>2</octave>
				</pitch>
				<duration>480</duration>
				<voice>1</voice>
				<type>quarter</type>
				<lyric default-y="-75" number="1">
					<syllabic>single</syllabic>
					<text>7</text>
				</lyric>
				<lyric default-y="-90" number="2">
					<syllabic>single</syllabic>
					<text>5</text>
				</lyric>
			</note>
			<note>
				<pitch>
					<step>F</step>
					<octave>2</octave>
				</pitch>
				<duration>480</duration>
				<voice>1</voice>
				<type>quarter</type>
				<lyric default-y="-75" number="1">
					<syllabic>single</syllabic>
					<text>6</text>
				</lyric>
				<lyric default-y="-90" number="2">
					<syllabic>single</syllabic>
					<text>4</text>
				</lyric>
				<lyric default-y="-105" number="3">
					<syllabic>single</syllabic>
					<text>3</text>
				</lyric>
			</note>
		</measure>
		<measure number="10">
			<note>
				<rest>
					<display-step>D</display-step>
					<display-octave>3</display-octave>
				</rest>
				<duration>480</duration>
				<voice>1</voice>
				<type>quarter</type>
			</note>
			<note>
				<pitch>
					<step>G</step>
					<octave>2</octave>
				</pitch>
				<duration>480</duration>
				<voice>1</voice>
				<type>quarter</type>
				<lyric default-y="-75" number="1">
					<syllabic>single</syllabic>
					<text>    6  5</text>
				</lyric>
				<lyric default-y="-90" number="2">
					<syllabic>single</syllabic>
					<text>4</text>
				</lyric>
			</note>
			<note>
				<pitch>
					<step>C</step>
					<octave>3</octave>
				</pitch>
				<duration>480</duration>
				<voice>1</voice>
				<type>quarter</type>
			</note>
			<note>
				<pitch>
					<step>B</step>
					<alter>-1</alter>
					<octave>2</octave>
				</pitch>
				<duration>480</duration>
				<voice>1</voice>
				<type>quarter</type>
				<lyric default-y="-75" number="1">
					<syllabic>single</syllabic>
					<text>6</text>
				</lyric>
				<lyric default-y="-90" number="2">
					<syllabic>single</syllabic>
					<text>4</text>
				</lyric>
				<lyric default-y="-105" number="3">
					<syllabic>single</syllabic>
					<text>2</text>
				</lyric>
			</note>
		</measure>
		<measure number="11">
			<note>
				<rest>
					<display-step>D</display-step>
					<display-octave>3</display-octave>
				</rest>
				<duration>960</duration>
				<voice>1</voice>
				<type>half</type>
			</note>
			<note>
				<pitch>
					<step>G</step>
					<octave>2</octave>
				</pitch>
				<duration>960</duration>
				<tie type="start"/>
				<voice>1</voice>
				<type>half</type>
				<notations>
					<tied type="start"/>
				</notations>
				<lyric default-y="-75" number="1">
					<syllabic>single</syllabic>
					<text>6</text>
				</lyric>
				<lyric default-y="-90" number="2">
					<syllabic>single</syllabic>
					<text>  4+</text>
				</lyric>
				<lyric default-y="-105" number="3">
					<syllabic>single</syllabic>
					<text>2</text>
				</lyric>
			</note>
		</measure>
		<measure number="12">
			<print new-system="yes">
				<system-layout>
					<system-margins>
						<left-margin>30</left-margin>
						<right-margin>0</right-margin>
					</system-margins>
					<system-distance>110</system-distance>
				</system-layout>
				<staff-layout number="1">
					<staff-distance>100</staff-distance>
				</staff-layout>
			</print>
			<note>
				<pitch>
					<step>G</step>
					<octave>2</octave>
				</pitch>
				<duration>960</duration>
				<tie type="stop"/>
				<voice>1</voice>
				<type>half</type>
				<notations>
					<tied type="stop"/>
				</notations>
			</note>
			<note>
				<pitch>
					<step>F</step>
					<octave>2</octave>
				</pitch>
				<duration>960</duration>
				<voice>1</voice>
				<type>half</type>
				<lyric default-y="-75" number="1">
					<syllabic>single</syllabic>
					<text>6</text>
				</lyric>
			</note>
		</measure>
		<measure number="13">
			<note>
				<pitch>
					<step>G</step>
					<octave>2</octave>
				</pitch>
				<duration>480</duration>
				<voice>1</voice>
				<type>quarter</type>
			</note>
			<note>
				<rest>
					<display-step>D</display-step>
					<display-octave>3</display-octave>
				</rest>
				<duration>120</duration>
				<voice>1</voice>
				<type>16th</type>
			</note>
			<note>
				<pitch>
					<step>E</step>
					<octave>2</octave>
				</pitch>
				<duration>120</duration>
				<voice>1</voice>
				<type>16th</type>
				<accidental>natural</accidental>
				<beam number="1">begin</beam>
				<beam number="2">begin</beam>
				<lyric default-y="-75" number="1">
					<syllabic>single</syllabic>
					<text>7</text>
				</lyric>
				<lyric default-y="-90" number="2">
					<syllabic>single</syllabic>
					<text>5</text>
				</lyric>
			</note>
			<note>
				<pitch>
					<step>G</step>
					<octave>2</octave>
				</pitch>
				<duration>120</duration>
				<voice>1</voice>
				<type>16th</type>
				<beam number="1">continue</beam>
				<beam number="2">continue</beam>
			</note>
			<note>
				<pitch>
					<step>B</step>
					<alter>-1</alter>
					<octave>2</octave>
				</pitch>
				<duration>120</duration>
				<voice>1</voice>
				<type>16th</type>
				<beam number="1">end</beam>
				<beam number="2">end</beam>
			</note>
			<note>
				<pitch>
					<step>A</step>
					<octave>2</octave>
				</pitch>
				<duration>480</duration>
				<tie type="start"/>
				<voice>1</voice>
				<type>quarter</type>
				<notations>
					<tied type="start"/>
				</notations>
				<lyric default-y="-75" number="1">
					<syllabic>single</syllabic>
					<text>7</text>
				</lyric>
			</note>
			<note>
				<pitch>
					<step>A</step>
					<octave>2</octave>
				</pitch>
				<duration>120</duration>
				<tie type="stop"/>
				<voice>1</voice>
				<type>16th</type>
				<beam number="1">begin</beam>
				<beam number="2">begin</beam>
				<notations>
					<tied type="stop"/>
				</notations>
			</note>
			<note>
				<pitch>
					<step>E</step>
					<octave>3</octave>
				</pitch>
				<duration>120</duration>
				<voice>1</voice>
				<type>16th</type>
				<accidental>natural</accidental>
				<beam number="1">continue</beam>
				<beam number="2">continue</beam>
			</note>
			<note>
				<pitch>
					<step>C</step>
					<alter>1</alter>
					<octave>3</octave>
				</pitch>
				<duration>120</duration>
				<voice>1</voice>
				<type>16th</type>
				<accidental>sharp</accidental>
				<beam number="1">continue</beam>
				<beam number="2">continue</beam>
			</note>
			<note>
				<pitch>
					<step>A</step>
					<octave>2</octave>
				</pitch>
				<duration>120</duration>
				<voice>1</voice>
				<type>16th</type>
				<beam number="1">end</beam>
				<beam number="2">end</beam>
			</note>
		</measure>
		<measure number="14">
			<print new-system="yes">
				<system-layout>
					<system-margins>
						<left-margin>30</left-margin>
						<right-margin>0</right-margin>
					</system-margins>
					<system-distance>110</system-distance>
				</system-layout>
				<staff-layout number="1">
					<staff-distance>100</staff-distance>
				</staff-layout>
			</print>
			<note>
				<pitch>
					<step>D</step>
					<octave>2</octave>
				</pitch>
				<duration>480</duration>
				<voice>1</voice>
				<type>quarter</type>
			</note>
			<note>
				<rest>
					<display-step>D</display-step>
					<display-octave>3</display-octave>
				</rest>
				<duration>240</duration>
				<voice>1</voice>
				<type>eighth</type>
			</note>
			<note>
				<pitch>
					<step>F</step>
					<alter>1</alter>
					<octave>2</octave>
				</pitch>
				<duration>240</duration>
				<voice>1</voice>
				<type>eighth</type>
				<accidental>sharp</accidental>
				<lyric default-y="-75" number="1">
					<syllabic>single</syllabic>
					<text>7</text>
				</lyric>
				<lyric default-y="-90" number="2">
					<syllabic>single</syllabic>
					<text>5</text>
				</lyric>
			</note>
			<note>
				<pitch>
					<step>G</step>
					<alter>1</alter>
					<octave>2</octave>
				</pitch>
				<duration>480</duration>
				<voice>1</voice>
				<type>quarter</type>
				<accidental>sharp</accidental>
				<lyric default-y="-75" number="1">
					<syllabic>single</syllabic>
					<text>7</text>
				</lyric>
				<lyric default-y="-90" number="2">
					<syllabic>single</syllabic>
					<text>5</text>
				</lyric>
			</note>
			<note>
				<rest>
					<display-step>D</display-step>
					<display-octave>3</display-octave>
				</rest>
				<duration>240</duration>
				<voice>1</voice>
				<type>eighth</type>
			</note>
			<note>
				<pitch>
					<step>B</step>
					<alter>-1</alter>
					<octave>2</octave>
				</pitch>
				<duration>240</duration>
				<voice>1</voice>
				<type>eighth</type>
				<accidental cautionary="yes">flat</accidental>
				<lyric default-y="-75" number="1">
					<syllabic>single</syllabic>
					<text>6</text>
				</lyric>
				<lyric default-y="-90" number="2">
					<syllabic>single</syllabic>
					<text>4</text>
				</lyric>
				<lyric default-y="-105" number="3">
					<syllabic>single</syllabic>
					<text>2</text>
				</lyric>
			</note>
		</measure>
		<measure number="15">
			<note>
				<pitch>
					<step>A</step>
					<octave>2</octave>
				</pitch>
				<duration>480</duration>
				<voice>1</voice>
				<type>quarter</type>
				<lyric default-y="-75" number="1">
					<syllabic>single</syllabic>
					<text>7</text>
				</lyric>
			</note>
			<note>
				<rest>
					<display-step>D</display-step>
					<display-octave>3</display-octave>
				</rest>
				<duration>240</duration>
				<voice>1</voice>
				<type>eighth</type>
			</note>
			<note>
				<pitch>
					<step>A</step>
					<octave>3</octave>
				</pitch>
				<duration>240</duration>
				<voice>1</voice>
				<type>eighth</type>
			</note>
			<note>
				<pitch>
					<step>D</step>
					<octave>3</octave>
				</pitch>
				<duration>240</duration>
				<voice>1</voice>
				<type>eighth</type>
				<beam number="1">begin</beam>
			</note>
			<note>
				<pitch>
					<step>F</step>
					<octave>3</octave>
				</pitch>
				<duration>240</duration>
				<voice>1</voice>
				<type>eighth</type>
				<beam number="1">end</beam>
				<lyric default-y="-75" number="1">
					<syllabic>single</syllabic>
					<text>6</text>
				</lyric>
			</note>
			<note>
				<pitch>
					<step>B</step>
					<alter>-1</alter>
					<octave>2</octave>
				</pitch>
				<duration>480</duration>
				<voice>1</voice>
				<type>quarter</type>
				<lyric default-y="-75" number="1">
					<syllabic>single</syllabic>
					<text>6</text>
				</lyric>
				<lyric default-y="-90" number="2">
					<syllabic>single</syllabic>
					<text>5</text>
				</lyric>
				<lyric default-y="-105" number="3">
					<syllabic>single</syllabic>
					<text>3</text>
				</lyric>
			</note>
		</measure>
		<measure number="16">
			<note>
				<rest>
					<display-step>D</display-step>
					<display-octave>3</display-octave>
				</rest>
				<duration>240</duration>
				<voice>1</voice>
				<type>eighth</type>
			</note>
			<note>
				<pitch>
					<step>A</step>
					<octave>2</octave>
				</pitch>
				<duration>240</duration>
				<voice>1</voice>
				<type>eighth</type>
				<lyric default-y="-75" number="1">
					<syllabic>single</syllabic>
					<text>7</text>
				</lyric>
			</note>
			<note>
				<pitch>
					<step>D</step>
					<octave>2</octave>
				</pitch>
				<duration>480</duration>
				<voice>1</voice>
				<type>quarter</type>
			</note>
			<note>
				<rest>
					<display-step>D</display-step>
					<display-octave>3</display-octave>
				</rest>
				<duration>960</duration>
				<voice>1</voice>
				<type>half</type>
				<notations>
					<fermata type="upright"/>
				</notations>
			</note>
			<barline>
				<bar-style>light-heavy</bar-style>
			</barline>
		</measure>
	</part>
</score-partwise>
