<?xml version="1.0" encoding="UTF-8" standalone="no"?>
<!--MusicXML 2.0 file created by CapToMusic.py CapXML to MusicXML converter version 1.34-->
<!DOCTYPE score-partwise PUBLIC "-//Recordare//DTD MusicXML 2.0 Partwise//EN" "http://www.musicxml.org/dtds/partwise.dtd">
<score-partwise version="2.0">
	<identification>
		<encoding>
			<encoding-date>2015-05-25</encoding-date>
			<software>CapToMusic.py CapXML to MusicXML converter version 1.34</software>
			<encoding-description>Options: FinaleDolet33=1, ChordCaseMatters=1, ExportToSibelius=0</encoding-description>
		</encoding>
	</identification>
	<defaults>
		<scaling>
			<millimeters>1.8</millimeters>
			<tenths>10.0</tenths>
		</scaling>
		<page-layout>
			<page-height>1166</page-height>
			<page-width>1650</page-width>
			<page-margins type="both">
				<left-margin>83</left-margin>
				<right-margin>83</right-margin>
				<top-margin>83</top-margin>
				<bottom-margin>83</bottom-margin>
			</page-margins>
		</page-layout>
		<system-layout>
			<system-margins>
				<left-margin>0</left-margin>
				<right-margin>0</right-margin>
			</system-margins>
			<system-distance>40</system-distance>
		</system-layout>
	</defaults>
	<credit>
		<credit-words></credit-words>
	</credit>
	<part-list>
		<part-group type="start" number="1">
			<group-symbol>bracket</group-symbol>
		</part-group>
		<score-part id="P1">
			<part-name></part-name>
			<part-abbreviation></part-abbreviation>
			<score-instrument id="P1-I1">
				<instrument-name>Midi_20</instrument-name>
			</score-instrument>
			<midi-instrument id="P1-I1">
				<midi-channel>1</midi-channel>
				<midi-program>20</midi-program>
			</midi-instrument>
		</score-part>
		<score-part id="P2">
			<part-name></part-name>
			<part-abbreviation></part-abbreviation>
			<score-instrument id="P2-I1">
				<instrument-name>Midi_20</instrument-name>
			</score-instrument>
			<midi-instrument id="P2-I1">
				<midi-channel>2</midi-channel>
				<midi-program>20</midi-program>
			</midi-instrument>
		</score-part>
		<score-part id="P3">
			<part-name></part-name>
			<part-abbreviation></part-abbreviation>
			<score-instrument id="P3-I1">
				<instrument-name>Midi_20</instrument-name>
			</score-instrument>
			<midi-instrument id="P3-I1">
				<midi-channel>3</midi-channel>
				<midi-program>20</midi-program>
			</midi-instrument>
		</score-part>
		<part-group type="stop" number="1"/>
	</part-list>
	<part id="P1">
		<measure number="1">
			<print>
				<system-layout>
					<system-margins>
						<left-margin>130</left-margin>
						<right-margin>0</right-margin>
					</system-margins>
					<top-system-distance>180</top-system-distance>
				</system-layout>
				<staff-layout number="1">
					<staff-distance>140</staff-distance>
				</staff-layout>
			</print>
			<attributes>
				<divisions>480</divisions>
				<key>
					<fifths>2</fifths>
					<mode>major</mode>
				</key>
				<time symbol="common">
					<beats>4</beats>
					<beat-type>4</beat-type>
				</time>
				<clef>
					<sign>G</sign>
					<line>2</line>
				</clef>
			</attributes>
			<note>
				<pitch>
					<step>D</step>
					<octave>5</octave>
				</pitch>
				<duration>1920</duration>
				<voice>1</voice>
				<type>whole</type>
			</note>
		</measure>
		<measure number="2">
			<note>
				<pitch>
					<step>C</step>
					<alter>1</alter>
					<octave>5</octave>
				</pitch>
				<duration>960</duration>
				<voice>1</voice>
				<type>half</type>
			</note>
			<note>
				<pitch>
					<step>B</step>
					<octave>4</octave>
				</pitch>
				<duration>960</duration>
				<voice>1</voice>
				<type>half</type>
			</note>
		</measure>
		<measure number="3">
			<note>
				<pitch>
					<step>C</step>
					<alter>1</alter>
					<octave>5</octave>
				</pitch>
				<duration>960</duration>
				<voice>1</voice>
				<type>half</type>
			</note>
			<note>
				<pitch>
					<step>A</step>
					<octave>4</octave>
				</pitch>
				<duration>960</duration>
				<voice>1</voice>
				<type>half</type>
				<stem>down</stem>
			</note>
		</measure>
		<measure number="4">
			<note>
				<pitch>
					<step>B</step>
					<octave>4</octave>
				</pitch>
				<duration>960</duration>
				<voice>1</voice>
				<type>half</type>
			</note>
			<note>
				<pitch>
					<step>C</step>
					<alter>1</alter>
					<octave>5</octave>
				</pitch>
				<duration>960</duration>
				<voice>1</voice>
				<type>half</type>
			</note>
		</measure>
		<measure number="5">
			<attributes>
				<time>
					<senza-misura/>
				</time>
			</attributes>
			<direction placement="above">
				<direction-type>
					<words relative-x="4" default-y="146" font-family="Times New Roman" font-size="17" font-weight="bold" justify="center">Vom Himmel hoch, da komm ich her.</words>
				</direction-type>
			</direction>
			<note>
				<pitch>
					<step>D</step>
					<octave>5</octave>
				</pitch>
				<duration>960</duration>
				<voice>1</voice>
				<type>half</type>
				<notations>
					<fermata type="upright"/>
				</notations>
			</note>
			<note print-object="no">
				<pitch>
					<step>D</step>
					<octave>5</octave>
				</pitch>
				<duration>1920</duration>
				<tie type="start"/>
				<voice>1</voice>
				<type>whole</type>
				<notations>
					<tied type="start"/>
				</notations>
			</note>
			<note print-object="no">
				<pitch>
					<step>D</step>
					<octave>5</octave>
				</pitch>
				<duration>1920</duration>
				<tie type="start"/>
				<tie type="stop"/>
				<voice>1</voice>
				<type>whole</type>
				<notations>
					<tied type="start"/>
					<tied type="stop"/>
				</notations>
			</note>
			<note print-object="no">
				<pitch>
					<step>D</step>
					<octave>5</octave>
				</pitch>
				<duration>960</duration>
				<tie type="stop"/>
				<voice>1</voice>
				<type>half</type>
				<notations>
					<tied type="stop"/>
				</notations>
			</note>
			<direction placement="above">
				<direction-type>
					<words relative-x="28" default-y="93" font-family="Times New Roman" font-size="10" justify="right">Johann Sebastian Bach
BWV 738a</words>
				</direction-type>
			</direction>
			<note>
				<pitch>
					<step>D</step>
					<octave>5</octave>
				</pitch>
				<duration>960</duration>
				<voice>1</voice>
				<type>half</type>
			</note>
			<barline>
				<bar-style>regular</bar-style>
			</barline>
			<barline location="right">
				<bar-style>none</bar-style>
			</barline>
		</measure>
		<measure number="6">
			<print new-system="yes">
				<system-layout>
					<system-margins>
						<left-margin>0</left-margin>
						<right-margin>0</right-margin>
					</system-margins>
					<system-distance>110</system-distance>
				</system-layout>
				<staff-layout number="1">
					<staff-distance>40</staff-distance>
				</staff-layout>
			</print>
			<note>
				<pitch>
					<step>D</step>
					<octave>5</octave>
				</pitch>
				<duration>960</duration>
				<voice>1</voice>
				<type>half</type>
			</note>
			<note>
				<pitch>
					<step>A</step>
					<octave>4</octave>
				</pitch>
				<duration>960</duration>
				<voice>1</voice>
				<type>half</type>
			</note>
			<barline>
				<bar-style>regular</bar-style>
			</barline>
		</measure>
		<measure number="7">
			<note>
				<pitch>
					<step>A</step>
					<octave>4</octave>
				</pitch>
				<duration>960</duration>
				<voice>1</voice>
				<type>half</type>
			</note>
			<note>
				<pitch>
					<step>F</step>
					<alter>1</alter>
					<octave>4</octave>
				</pitch>
				<duration>720</duration>
				<voice>1</voice>
				<type>quarter</type>
				<dot/>
			</note>
			<note>
				<pitch>
					<step>G</step>
					<octave>4</octave>
				</pitch>
				<duration>240</duration>
				<voice>1</voice>
				<type>eighth</type>
			</note>
			<barline>
				<bar-style>regular</bar-style>
			</barline>
		</measure>
		<measure number="8">
			<note>
				<pitch>
					<step>A</step>
					<octave>4</octave>
				</pitch>
				<duration>960</duration>
				<voice>1</voice>
				<type>half</type>
			</note>
			<note>
				<pitch>
					<step>G</step>
					<octave>4</octave>
				</pitch>
				<duration>960</duration>
				<voice>1</voice>
				<type>half</type>
			</note>
			<barline>
				<bar-style>regular</bar-style>
			</barline>
		</measure>
		<measure number="9">
			<note>
				<pitch>
					<step>F</step>
					<alter>1</alter>
					<octave>4</octave>
				</pitch>
				<duration>1920</duration>
				<tie type="start"/>
				<voice>1</voice>
				<type>whole</type>
				<notations>
					<tied type="start"/>
				</notations>
			</note>
			<barline>
				<bar-style>regular</bar-style>
			</barline>
		</measure>
		<measure number="10">
			<note>
				<pitch>
					<step>F</step>
					<alter>1</alter>
					<octave>4</octave>
				</pitch>
				<duration>1920</duration>
				<tie type="stop"/>
				<voice>1</voice>
				<type>whole</type>
				<notations>
					<tied type="stop"/>
				</notations>
			</note>
			<barline>
				<bar-style>regular</bar-style>
			</barline>
		</measure>
		<measure number="11">
			<note>
				<rest/>
				<duration>960</duration>
				<voice>1</voice>
				<type>half</type>
			</note>
			<note>
				<pitch>
					<step>F</step>
					<alter>1</alter>
					<octave>4</octave>
				</pitch>
				<duration>960</duration>
				<voice>1</voice>
				<type>half</type>
			</note>
			<barline>
				<bar-style>regular</bar-style>
			</barline>
		</measure>
		<measure number="12">
			<note>
				<pitch>
					<step>B</step>
					<octave>4</octave>
				</pitch>
				<duration>960</duration>
				<voice>1</voice>
				<type>half</type>
			</note>
			<note>
				<pitch>
					<step>B</step>
					<octave>4</octave>
				</pitch>
				<duration>960</duration>
				<voice>1</voice>
				<type>half</type>
			</note>
			<barline>
				<bar-style>regular</bar-style>
			</barline>
		</measure>
		<measure number="13">
			<note>
				<pitch>
					<step>A</step>
					<octave>4</octave>
				</pitch>
				<duration>960</duration>
				<voice>1</voice>
				<type>half</type>
			</note>
			<note>
				<pitch>
					<step>C</step>
					<alter>1</alter>
					<octave>5</octave>
				</pitch>
				<duration>960</duration>
				<voice>1</voice>
				<type>half</type>
			</note>
			<barline>
				<bar-style>regular</bar-style>
			</barline>
		</measure>
		<measure number="14">
			<note>
				<pitch>
					<step>D</step>
					<octave>5</octave>
				</pitch>
				<duration>960</duration>
				<voice>1</voice>
				<type>half</type>
			</note>
			<note>
				<pitch>
					<step>B</step>
					<octave>4</octave>
				</pitch>
				<duration>960</duration>
				<voice>1</voice>
				<type>half</type>
			</note>
			<barline>
				<bar-style>regular</bar-style>
			</barline>
			<barline location="right">
				<bar-style>none</bar-style>
			</barline>
		</measure>
		<measure number="15">
			<print new-system="yes">
				<system-layout>
					<system-margins>
						<left-margin>0</left-margin>
						<right-margin>0</right-margin>
					</system-margins>
					<system-distance>110</system-distance>
				</system-layout>
				<staff-layout number="1">
					<staff-distance>40</staff-distance>
				</staff-layout>
			</print>
			<attributes>
				<time>
					<senza-misura/>
				</time>
			</attributes>
			<note>
				<pitch>
					<step>A</step>
					<octave>4</octave>
				</pitch>
				<duration>960</duration>
				<voice>1</voice>
				<type>half</type>
				<notations>
					<fermata type="upright"/>
				</notations>
			</note>
			<note print-object="no">
				<pitch>
					<step>A</step>
					<octave>4</octave>
				</pitch>
				<duration>1920</duration>
				<tie type="start"/>
				<voice>1</voice>
				<type>whole</type>
				<notations>
					<tied type="start"/>
				</notations>
			</note>
			<note print-object="no">
				<pitch>
					<step>A</step>
					<octave>4</octave>
				</pitch>
				<duration>1920</duration>
				<tie type="stop"/>
				<voice>1</voice>
				<type>whole</type>
				<notations>
					<tied type="stop"/>
				</notations>
			</note>
			<note>
				<pitch>
					<step>D</step>
					<octave>5</octave>
				</pitch>
				<duration>960</duration>
				<voice>1</voice>
				<type>half</type>
			</note>
			<barline>
				<bar-style>regular</bar-style>
			</barline>
		</measure>
		<measure number="16">
			<note>
				<pitch>
					<step>C</step>
					<alter>1</alter>
					<octave>5</octave>
				</pitch>
				<duration>960</duration>
				<voice>1</voice>
				<type>half</type>
			</note>
			<note>
				<pitch>
					<step>B</step>
					<octave>4</octave>
				</pitch>
				<duration>960</duration>
				<voice>1</voice>
				<type>half</type>
			</note>
			<barline>
				<bar-style>regular</bar-style>
			</barline>
		</measure>
		<measure number="17">
			<note>
				<pitch>
					<step>A</step>
					<octave>4</octave>
				</pitch>
				<duration>960</duration>
				<voice>1</voice>
				<type>half</type>
			</note>
			<note>
				<pitch>
					<step>B</step>
					<octave>4</octave>
				</pitch>
				<duration>480</duration>
				<voice>1</voice>
				<type>quarter</type>
			</note>
			<note>
				<pitch>
					<step>A</step>
					<octave>4</octave>
				</pitch>
				<duration>480</duration>
				<voice>1</voice>
				<type>quarter</type>
			</note>
			<barline>
				<bar-style>regular</bar-style>
			</barline>
		</measure>
		<measure number="18">
			<note>
				<pitch>
					<step>G</step>
					<octave>4</octave>
				</pitch>
				<duration>960</duration>
				<voice>1</voice>
				<type>half</type>
			</note>
			<note>
				<pitch>
					<step>F</step>
					<alter>1</alter>
					<octave>4</octave>
				</pitch>
				<duration>960</duration>
				<voice>1</voice>
				<type>half</type>
			</note>
			<barline>
				<bar-style>regular</bar-style>
			</barline>
		</measure>
		<measure number="19">
			<note>
				<pitch>
					<step>E</step>
					<octave>4</octave>
				</pitch>
				<duration>1920</duration>
				<voice>1</voice>
				<type>whole</type>
			</note>
			<barline>
				<bar-style>regular</bar-style>
			</barline>
		</measure>
		<measure number="20">
			<note>
				<pitch>
					<step>D</step>
					<octave>4</octave>
				</pitch>
				<duration>1920</duration>
				<voice>1</voice>
				<type>whole</type>
			</note>
			<barline>
				<bar-style>light-heavy</bar-style>
			</barline>
			<barline location="right">
				<bar-style>none</bar-style>
			</barline>
		</measure>
	</part>
	<part id="P2">
		<measure number="1">
			<print>
				<system-layout>
					<system-margins>
						<left-margin>130</left-margin>
						<right-margin>0</right-margin>
					</system-margins>
					<top-system-distance>180</top-system-distance>
				</system-layout>
				<staff-layout number="1">
					<staff-distance>80</staff-distance>
				</staff-layout>
			</print>
			<attributes>
				<divisions>480</divisions>
				<key>
					<fifths>2</fifths>
					<mode>major</mode>
				</key>
				<time symbol="common">
					<beats>4</beats>
					<beat-type>4</beat-type>
				</time>
				<clef>
					<sign>F</sign>
					<line>4</line>
				</clef>
			</attributes>
			<note print-object="no">
				<rest/>
				<duration>1920</duration>
				<voice>1</voice>
				<type>whole</type>
			</note>
			<backup>
				<duration>1920</duration>
			</backup>
			<note>
				<pitch>
					<step>D</step>
					<octave>3</octave>
				</pitch>
				<duration>1920</duration>
				<voice>2</voice>
				<type>whole</type>
				<stem>down</stem>
			</note>
		</measure>
		<measure number="2">
			<note print-object="no">
				<rest/>
				<duration>1920</duration>
				<voice>1</voice>
				<type>whole</type>
			</note>
			<backup>
				<duration>1920</duration>
			</backup>
			<note>
				<pitch>
					<step>A</step>
					<octave>2</octave>
				</pitch>
				<duration>960</duration>
				<tie type="start"/>
				<voice>2</voice>
				<type>half</type>
				<stem>up</stem>
				<notations>
					<tied type="start"/>
				</notations>
			</note>
			<note>
				<pitch>
					<step>A</step>
					<octave>2</octave>
				</pitch>
				<duration>480</duration>
				<tie type="stop"/>
				<voice>2</voice>
				<type>quarter</type>
				<stem>up</stem>
				<notations>
					<tied type="stop"/>
				</notations>
				<lyric default-y="-75" number="1">
					<syllabic>single</syllabic>
					<text>4</text>
				</lyric>
				<lyric default-y="-95" number="2">
					<syllabic>single</syllabic>
					<text>2</text>
				</lyric>
			</note>
			<note>
				<pitch>
					<step>G</step>
					<octave>2</octave>
				</pitch>
				<duration>480</duration>
				<tie type="start"/>
				<voice>2</voice>
				<type>quarter</type>
				<stem>up</stem>
				<notations>
					<tied type="start"/>
				</notations>
				<lyric default-y="-75" number="1">
					<syllabic>single</syllabic>
					<text>6</text>
				</lyric>
			</note>
		</measure>
		<measure number="3">
			<note print-object="no">
				<rest/>
				<duration>960</duration>
				<voice>1</voice>
				<type>half</type>
			</note>
			<note>
				<rest/>
				<duration>160</duration>
				<voice>1</voice>
				<type>16th</type>
				<time-modification>
					<actual-notes>6</actual-notes>
					<normal-notes>8</normal-notes>
				</time-modification>
			</note>
			<note>
				<pitch>
					<step>A</step>
					<octave>4</octave>
				</pitch>
				<duration>160</duration>
				<voice>1</voice>
				<type>16th</type>
				<time-modification>
					<actual-notes>6</actual-notes>
					<normal-notes>8</normal-notes>
				</time-modification>
				<stem>up</stem>
				<beam number="1">begin</beam>
				<beam number="2">begin</beam>
			</note>
			<note>
				<pitch>
					<step>D</step>
					<octave>5</octave>
				</pitch>
				<duration>160</duration>
				<voice>1</voice>
				<type>16th</type>
				<time-modification>
					<actual-notes>6</actual-notes>
					<normal-notes>8</normal-notes>
				</time-modification>
				<stem>up</stem>
				<beam number="1">continue</beam>
				<beam number="2">continue</beam>
			</note>
			<note>
				<pitch>
					<step>C</step>
					<alter>1</alter>
					<octave>5</octave>
				</pitch>
				<duration>160</duration>
				<voice>1</voice>
				<type>16th</type>
				<time-modification>
					<actual-notes>6</actual-notes>
					<normal-notes>8</normal-notes>
				</time-modification>
				<stem>up</stem>
				<beam number="1">continue</beam>
				<beam number="2">continue</beam>
			</note>
			<note>
				<pitch>
					<step>B</step>
					<octave>4</octave>
				</pitch>
				<duration>160</duration>
				<voice>1</voice>
				<type>16th</type>
				<time-modification>
					<actual-notes>6</actual-notes>
					<normal-notes>8</normal-notes>
				</time-modification>
				<stem>up</stem>
				<beam number="1">continue</beam>
				<beam number="2">continue</beam>
			</note>
			<note>
				<pitch>
					<step>A</step>
					<octave>4</octave>
				</pitch>
				<duration>160</duration>
				<voice>1</voice>
				<type>16th</type>
				<time-modification>
					<actual-notes>6</actual-notes>
					<normal-notes>8</normal-notes>
				</time-modification>
				<stem>up</stem>
				<beam number="1">end</beam>
				<beam number="2">end</beam>
			</note>
			<backup>
				<duration>1920</duration>
			</backup>
			<note>
				<pitch>
					<step>G</step>
					<octave>2</octave>
				</pitch>
				<duration>960</duration>
				<tie type="stop"/>
				<voice>2</voice>
				<type>half</type>
				<stem>up</stem>
				<notations>
					<tied type="stop"/>
				</notations>
				<lyric default-y="-75" number="1">
					<syllabic>single</syllabic>
					<text>4</text>
				</lyric>
				<lyric default-y="-95" number="2">
					<syllabic>single</syllabic>
					<text>2</text>
				</lyric>
			</note>
			<note>
				<pitch>
					<step>F</step>
					<alter>1</alter>
					<octave>2</octave>
				</pitch>
				<duration>960</duration>
				<voice>2</voice>
				<type>half</type>
				<stem>up</stem>
				<lyric default-y="-75" number="1">
					<syllabic>single</syllabic>
					<text>6</text>
				</lyric>
			</note>
		</measure>
		<measure number="4">
			<note>
				<rest/>
				<duration>160</duration>
				<voice>1</voice>
				<type>16th</type>
				<time-modification>
					<actual-notes>6</actual-notes>
					<normal-notes>8</normal-notes>
				</time-modification>
			</note>
			<note>
				<pitch>
					<step>D</step>
					<octave>5</octave>
				</pitch>
				<duration>160</duration>
				<voice>1</voice>
				<type>16th</type>
				<time-modification>
					<actual-notes>6</actual-notes>
					<normal-notes>8</normal-notes>
				</time-modification>
				<stem>up</stem>
				<beam number="1">begin</beam>
				<beam number="2">begin</beam>
			</note>
			<note>
				<pitch>
					<step>G</step>
					<octave>5</octave>
				</pitch>
				<duration>160</duration>
				<voice>1</voice>
				<type>16th</type>
				<time-modification>
					<actual-notes>6</actual-notes>
					<normal-notes>8</normal-notes>
				</time-modification>
				<stem>up</stem>
				<beam number="1">continue</beam>
				<beam number="2">continue</beam>
			</note>
			<note>
				<pitch>
					<step>F</step>
					<alter>1</alter>
					<octave>5</octave>
				</pitch>
				<duration>160</duration>
				<voice>1</voice>
				<type>16th</type>
				<time-modification>
					<actual-notes>6</actual-notes>
					<normal-notes>8</normal-notes>
				</time-modification>
				<stem>up</stem>
				<beam number="1">continue</beam>
				<beam number="2">continue</beam>
			</note>
			<note>
				<pitch>
					<step>E</step>
					<octave>5</octave>
				</pitch>
				<duration>160</duration>
				<voice>1</voice>
				<type>16th</type>
				<time-modification>
					<actual-notes>6</actual-notes>
					<normal-notes>8</normal-notes>
				</time-modification>
				<stem>up</stem>
				<beam number="1">continue</beam>
				<beam number="2">continue</beam>
			</note>
			<note>
				<pitch>
					<step>D</step>
					<octave>5</octave>
				</pitch>
				<duration>160</duration>
				<voice>1</voice>
				<type>16th</type>
				<time-modification>
					<actual-notes>6</actual-notes>
					<normal-notes>8</normal-notes>
				</time-modification>
				<stem>up</stem>
				<beam number="1">end</beam>
				<beam number="2">end</beam>
			</note>
			<note print-object="no">
				<rest/>
				<duration>960</duration>
				<voice>1</voice>
				<type>half</type>
			</note>
			<backup>
				<duration>1920</duration>
			</backup>
			<note>
				<pitch>
					<step>G</step>
					<octave>2</octave>
				</pitch>
				<duration>960</duration>
				<voice>2</voice>
				<type>half</type>
				<stem>up</stem>
			</note>
			<note>
				<pitch>
					<step>A</step>
					<octave>2</octave>
				</pitch>
				<duration>960</duration>
				<voice>2</voice>
				<type>half</type>
				<stem>up</stem>
				<lyric default-y="-75" number="1">
					<syllabic>single</syllabic>
					<text>7</text>
				</lyric>
			</note>
		</measure>
		<measure number="5">
			<attributes>
				<time>
					<senza-misura/>
				</time>
			</attributes>
			<note>
				<rest/>
				<duration>160</duration>
				<voice>1</voice>
				<type>16th</type>
				<time-modification>
					<actual-notes>6</actual-notes>
					<normal-notes>8</normal-notes>
				</time-modification>
			</note>
			<note>
				<pitch>
					<step>D</step>
					<octave>4</octave>
				</pitch>
				<duration>160</duration>
				<voice>1</voice>
				<type>16th</type>
				<time-modification>
					<actual-notes>6</actual-notes>
					<normal-notes>8</normal-notes>
				</time-modification>
				<stem>up</stem>
				<beam number="1">begin</beam>
				<beam number="2">begin</beam>
			</note>
			<note>
				<pitch>
					<step>C</step>
					<alter>1</alter>
					<octave>4</octave>
				</pitch>
				<duration>160</duration>
				<voice>1</voice>
				<type>16th</type>
				<time-modification>
					<actual-notes>6</actual-notes>
					<normal-notes>8</normal-notes>
				</time-modification>
				<stem>up</stem>
				<beam number="1">continue</beam>
				<beam number="2">continue</beam>
				<beam number="3">end</beam>
				<beam number="4">end</beam>
			</note>
			<note>
				<pitch>
					<step>B</step>
					<octave>3</octave>
				</pitch>
				<duration>160</duration>
				<voice>1</voice>
				<type>16th</type>
				<time-modification>
					<actual-notes>6</actual-notes>
					<normal-notes>8</normal-notes>
				</time-modification>
				<stem>up</stem>
				<beam number="1">continue</beam>
				<beam number="2">continue</beam>
				<beam number="3">end</beam>
				<beam number="4">end</beam>
			</note>
			<note>
				<pitch>
					<step>A</step>
					<octave>3</octave>
				</pitch>
				<duration>160</duration>
				<voice>1</voice>
				<type>16th</type>
				<time-modification>
					<actual-notes>6</actual-notes>
					<normal-notes>8</normal-notes>
				</time-modification>
				<stem>up</stem>
				<beam number="1">continue</beam>
				<beam number="2">continue</beam>
				<beam number="3">end</beam>
				<beam number="4">end</beam>
			</note>
			<note>
				<pitch>
					<step>G</step>
					<octave>3</octave>
				</pitch>
				<duration>160</duration>
				<voice>1</voice>
				<type>16th</type>
				<time-modification>
					<actual-notes>6</actual-notes>
					<normal-notes>8</normal-notes>
				</time-modification>
				<stem>up</stem>
				<beam number="1">end</beam>
				<beam number="2">end</beam>
			</note>
			<note>
				<pitch>
					<step>F</step>
					<alter>1</alter>
					<octave>3</octave>
				</pitch>
				<duration>160</duration>
				<voice>1</voice>
				<type>16th</type>
				<time-modification>
					<actual-notes>6</actual-notes>
					<normal-notes>8</normal-notes>
				</time-modification>
				<stem>up</stem>
				<beam number="1">begin</beam>
				<beam number="2">begin</beam>
			</note>
			<note>
				<pitch>
					<step>B</step>
					<octave>3</octave>
				</pitch>
				<duration>160</duration>
				<voice>1</voice>
				<type>16th</type>
				<time-modification>
					<actual-notes>6</actual-notes>
					<normal-notes>8</normal-notes>
				</time-modification>
				<stem>up</stem>
				<beam number="1">continue</beam>
				<beam number="2">continue</beam>
				<beam number="3">end</beam>
				<beam number="4">end</beam>
			</note>
			<note>
				<pitch>
					<step>A</step>
					<octave>3</octave>
				</pitch>
				<duration>160</duration>
				<voice>1</voice>
				<type>16th</type>
				<time-modification>
					<actual-notes>6</actual-notes>
					<normal-notes>8</normal-notes>
				</time-modification>
				<stem>up</stem>
				<beam number="1">continue</beam>
				<beam number="2">continue</beam>
				<beam number="3">end</beam>
				<beam number="4">end</beam>
			</note>
			<note>
				<pitch>
					<step>G</step>
					<octave>3</octave>
				</pitch>
				<duration>160</duration>
				<voice>1</voice>
				<type>16th</type>
				<time-modification>
					<actual-notes>6</actual-notes>
					<normal-notes>8</normal-notes>
				</time-modification>
				<stem>up</stem>
				<beam number="1">continue</beam>
				<beam number="2">continue</beam>
				<beam number="3">end</beam>
				<beam number="4">end</beam>
			</note>
			<note>
				<pitch>
					<step>F</step>
					<alter>1</alter>
					<octave>3</octave>
				</pitch>
				<duration>160</duration>
				<voice>1</voice>
				<type>16th</type>
				<time-modification>
					<actual-notes>6</actual-notes>
					<normal-notes>8</normal-notes>
				</time-modification>
				<stem>up</stem>
				<beam number="1">continue</beam>
				<beam number="2">continue</beam>
				<beam number="3">end</beam>
				<beam number="4">end</beam>
			</note>
			<note>
				<pitch>
					<step>E</step>
					<octave>3</octave>
				</pitch>
				<duration>160</duration>
				<voice>1</voice>
				<type>16th</type>
				<time-modification>
					<actual-notes>6</actual-notes>
					<normal-notes>8</normal-notes>
				</time-modification>
				<stem>up</stem>
				<beam number="1">end</beam>
				<beam number="2">end</beam>
			</note>
			<note>
				<pitch>
					<step>D</step>
					<octave>3</octave>
				</pitch>
				<duration>160</duration>
				<voice>1</voice>
				<type>16th</type>
				<time-modification>
					<actual-notes>6</actual-notes>
					<normal-notes>8</normal-notes>
				</time-modification>
				<stem>down</stem>
			</note>
			<note>
				<pitch>
					<step>F</step>
					<alter>1</alter>
					<octave>3</octave>
				</pitch>
				<duration>160</duration>
				<voice>1</voice>
				<type>16th</type>
				<time-modification>
					<actual-notes>6</actual-notes>
					<normal-notes>8</normal-notes>
				</time-modification>
				<beam number="1">begin</beam>
				<beam number="2">begin</beam>
			</note>
			<note>
				<pitch>
					<step>A</step>
					<octave>3</octave>
				</pitch>
				<duration>160</duration>
				<voice>1</voice>
				<type>16th</type>
				<time-modification>
					<actual-notes>6</actual-notes>
					<normal-notes>8</normal-notes>
				</time-modification>
				<beam number="1">continue</beam>
				<beam number="2">continue</beam>
				<beam number="3">end</beam>
				<beam number="4">end</beam>
			</note>
			<note>
				<pitch>
					<step>D</step>
					<octave>4</octave>
				</pitch>
				<duration>160</duration>
				<voice>1</voice>
				<type>16th</type>
				<time-modification>
					<actual-notes>6</actual-notes>
					<normal-notes>8</normal-notes>
				</time-modification>
				<beam number="1">continue</beam>
				<beam number="2">continue</beam>
				<beam number="3">end</beam>
				<beam number="4">end</beam>
			</note>
			<note>
				<pitch>
					<step>C</step>
					<alter>1</alter>
					<octave>4</octave>
				</pitch>
				<duration>160</duration>
				<voice>1</voice>
				<type>16th</type>
				<time-modification>
					<actual-notes>6</actual-notes>
					<normal-notes>8</normal-notes>
				</time-modification>
				<beam number="1">continue</beam>
				<beam number="2">continue</beam>
				<beam number="3">end</beam>
				<beam number="4">end</beam>
			</note>
			<note>
				<pitch>
					<step>B</step>
					<octave>3</octave>
				</pitch>
				<duration>160</duration>
				<voice>1</voice>
				<type>16th</type>
				<time-modification>
					<actual-notes>6</actual-notes>
					<normal-notes>8</normal-notes>
				</time-modification>
				<beam number="1">end</beam>
				<beam number="2">end</beam>
			</note>
			<note>
				<pitch>
					<step>A</step>
					<octave>3</octave>
				</pitch>
				<duration>160</duration>
				<voice>1</voice>
				<type>16th</type>
				<time-modification>
					<actual-notes>6</actual-notes>
					<normal-notes>8</normal-notes>
				</time-modification>
				<stem>down</stem>
			</note>
			<note>
				<pitch>
					<step>C</step>
					<alter>1</alter>
					<octave>4</octave>
				</pitch>
				<duration>160</duration>
				<voice>1</voice>
				<type>16th</type>
				<time-modification>
					<actual-notes>6</actual-notes>
					<normal-notes>8</normal-notes>
				</time-modification>
				<beam number="1">begin</beam>
				<beam number="2">begin</beam>
			</note>
			<note>
				<pitch>
					<step>E</step>
					<octave>4</octave>
				</pitch>
				<duration>160</duration>
				<voice>1</voice>
				<type>16th</type>
				<time-modification>
					<actual-notes>6</actual-notes>
					<normal-notes>8</normal-notes>
				</time-modification>
				<beam number="1">continue</beam>
				<beam number="2">continue</beam>
				<beam number="3">end</beam>
				<beam number="4">end</beam>
			</note>
			<note>
				<pitch>
					<step>G</step>
					<octave>4</octave>
				</pitch>
				<duration>160</duration>
				<voice>1</voice>
				<type>16th</type>
				<time-modification>
					<actual-notes>6</actual-notes>
					<normal-notes>8</normal-notes>
				</time-modification>
				<beam number="1">continue</beam>
				<beam number="2">continue</beam>
				<beam number="3">end</beam>
				<beam number="4">end</beam>
			</note>
			<note>
				<pitch>
					<step>F</step>
					<alter>1</alter>
					<octave>4</octave>
				</pitch>
				<duration>160</duration>
				<voice>1</voice>
				<type>16th</type>
				<time-modification>
					<actual-notes>6</actual-notes>
					<normal-notes>8</normal-notes>
				</time-modification>
				<beam number="1">continue</beam>
				<beam number="2">continue</beam>
				<beam number="3">end</beam>
				<beam number="4">end</beam>
			</note>
			<note>
				<pitch>
					<step>E</step>
					<octave>4</octave>
				</pitch>
				<duration>160</duration>
				<voice>1</voice>
				<type>16th</type>
				<time-modification>
					<actual-notes>6</actual-notes>
					<normal-notes>8</normal-notes>
				</time-modification>
				<beam number="1">end</beam>
				<beam number="2">end</beam>
			</note>
			<note>
				<pitch>
					<step>D</step>
					<octave>4</octave>
				</pitch>
				<duration>160</duration>
				<voice>1</voice>
				<type>16th</type>
				<time-modification>
					<actual-notes>6</actual-notes>
					<normal-notes>8</normal-notes>
				</time-modification>
				<stem>up</stem>
			</note>
			<note>
				<pitch>
					<step>F</step>
					<alter>1</alter>
					<octave>4</octave>
				</pitch>
				<duration>160</duration>
				<voice>1</voice>
				<type>16th</type>
				<time-modification>
					<actual-notes>6</actual-notes>
					<normal-notes>8</normal-notes>
				</time-modification>
				<stem>up</stem>
				<beam number="1">begin</beam>
				<beam number="2">begin</beam>
			</note>
			<note>
				<pitch>
					<step>A</step>
					<octave>4</octave>
				</pitch>
				<duration>160</duration>
				<voice>1</voice>
				<type>16th</type>
				<time-modification>
					<actual-notes>6</actual-notes>
					<normal-notes>8</normal-notes>
				</time-modification>
				<stem>up</stem>
				<beam number="1">continue</beam>
				<beam number="2">continue</beam>
				<beam number="3">end</beam>
				<beam number="4">end</beam>
			</note>
			<note>
				<pitch>
					<step>D</step>
					<octave>5</octave>
				</pitch>
				<duration>160</duration>
				<voice>1</voice>
				<type>16th</type>
				<time-modification>
					<actual-notes>6</actual-notes>
					<normal-notes>8</normal-notes>
				</time-modification>
				<stem>up</stem>
				<beam number="1">continue</beam>
				<beam number="2">continue</beam>
				<beam number="3">end</beam>
				<beam number="4">end</beam>
			</note>
			<note>
				<pitch>
					<step>C</step>
					<alter>1</alter>
					<octave>5</octave>
				</pitch>
				<duration>160</duration>
				<voice>1</voice>
				<type>16th</type>
				<time-modification>
					<actual-notes>6</actual-notes>
					<normal-notes>8</normal-notes>
				</time-modification>
				<stem>up</stem>
				<beam number="1">continue</beam>
				<beam number="2">continue</beam>
				<beam number="3">end</beam>
				<beam number="4">end</beam>
			</note>
			<note>
				<pitch>
					<step>B</step>
					<octave>4</octave>
				</pitch>
				<duration>160</duration>
				<voice>1</voice>
				<type>16th</type>
				<time-modification>
					<actual-notes>6</actual-notes>
					<normal-notes>8</normal-notes>
				</time-modification>
				<stem>up</stem>
				<beam number="1">end</beam>
				<beam number="2">end</beam>
			</note>
			<note>
				<pitch>
					<step>A</step>
					<octave>4</octave>
				</pitch>
				<duration>160</duration>
				<voice>1</voice>
				<type>16th</type>
				<time-modification>
					<actual-notes>6</actual-notes>
					<normal-notes>8</normal-notes>
				</time-modification>
				<stem>up</stem>
			</note>
			<note>
				<pitch>
					<step>C</step>
					<alter>1</alter>
					<octave>5</octave>
				</pitch>
				<duration>160</duration>
				<voice>1</voice>
				<type>16th</type>
				<time-modification>
					<actual-notes>6</actual-notes>
					<normal-notes>8</normal-notes>
				</time-modification>
				<beam number="1">begin</beam>
				<beam number="2">begin</beam>
			</note>
			<note>
				<pitch>
					<step>E</step>
					<octave>5</octave>
				</pitch>
				<duration>160</duration>
				<voice>1</voice>
				<type>16th</type>
				<time-modification>
					<actual-notes>6</actual-notes>
					<normal-notes>8</normal-notes>
				</time-modification>
				<beam number="1">continue</beam>
				<beam number="2">continue</beam>
				<beam number="3">end</beam>
				<beam number="4">end</beam>
			</note>
			<note>
				<pitch>
					<step>G</step>
					<octave>5</octave>
				</pitch>
				<duration>160</duration>
				<voice>1</voice>
				<type>16th</type>
				<time-modification>
					<actual-notes>6</actual-notes>
					<normal-notes>8</normal-notes>
				</time-modification>
				<beam number="1">continue</beam>
				<beam number="2">continue</beam>
				<beam number="3">end</beam>
				<beam number="4">end</beam>
			</note>
			<note>
				<pitch>
					<step>F</step>
					<alter>1</alter>
					<octave>5</octave>
				</pitch>
				<duration>160</duration>
				<voice>1</voice>
				<type>16th</type>
				<time-modification>
					<actual-notes>6</actual-notes>
					<normal-notes>8</normal-notes>
				</time-modification>
				<beam number="1">continue</beam>
				<beam number="2">continue</beam>
				<beam number="3">end</beam>
				<beam number="4">end</beam>
			</note>
			<note>
				<pitch>
					<step>E</step>
					<octave>5</octave>
				</pitch>
				<duration>160</duration>
				<voice>1</voice>
				<type>16th</type>
				<time-modification>
					<actual-notes>6</actual-notes>
					<normal-notes>8</normal-notes>
				</time-modification>
				<beam number="1">end</beam>
				<beam number="2">end</beam>
			</note>
			<note print-object="no">
				<rest/>
				<duration>960</duration>
				<voice>1</voice>
				<type>half</type>
			</note>
			<backup>
				<duration>6720</duration>
			</backup>
			<note>
				<pitch>
					<step>D</step>
					<octave>3</octave>
				</pitch>
				<duration>960</duration>
				<voice>2</voice>
				<type>half</type>
				<stem>down</stem>
				<notations>
					<fermata type="inverted"/>
				</notations>
			</note>
			<note print-object="no">
				<pitch>
					<step>D</step>
					<octave>3</octave>
				</pitch>
				<duration>1920</duration>
				<tie type="start"/>
				<voice>2</voice>
				<type>whole</type>
				<stem>down</stem>
				<notations>
					<tied type="start"/>
				</notations>
			</note>
			<note print-object="no">
				<pitch>
					<step>D</step>
					<octave>3</octave>
				</pitch>
				<duration>1920</duration>
				<tie type="start"/>
				<tie type="stop"/>
				<voice>2</voice>
				<type>whole</type>
				<stem>down</stem>
				<notations>
					<tied type="start"/>
					<tied type="stop"/>
				</notations>
			</note>
			<note print-object="no">
				<pitch>
					<step>D</step>
					<octave>3</octave>
				</pitch>
				<duration>960</duration>
				<tie type="stop"/>
				<voice>2</voice>
				<type>half</type>
				<stem>down</stem>
				<notations>
					<tied type="stop"/>
				</notations>
			</note>
			<note>
				<pitch>
					<step>B</step>
					<octave>3</octave>
				</pitch>
				<duration>960</duration>
				<voice>2</voice>
				<type>half</type>
				<stem>down</stem>
			</note>
			<barline>
				<bar-style>regular</bar-style>
			</barline>
			<barline location="right">
				<bar-style>none</bar-style>
			</barline>
		</measure>
		<measure number="6">
			<print new-system="yes">
				<system-layout>
					<system-margins>
						<left-margin>0</left-margin>
						<right-margin>0</right-margin>
					</system-margins>
					<system-distance>110</system-distance>
				</system-layout>
				<staff-layout number="1">
					<staff-distance>80</staff-distance>
				</staff-layout>
			</print>
			<note>
				<pitch>
					<step>B</step>
					<octave>2</octave>
				</pitch>
				<duration>960</duration>
				<voice>1</voice>
				<type>half</type>
				<stem>up</stem>
			</note>
			<note>
				<pitch>
					<step>F</step>
					<alter>1</alter>
					<octave>2</octave>
				</pitch>
				<duration>960</duration>
				<voice>1</voice>
				<type>half</type>
				<stem>up</stem>
				<lyric default-y="-75" number="1">
					<syllabic>single</syllabic>
					<text>6</text>
				</lyric>
			</note>
			<barline>
				<bar-style>regular</bar-style>
			</barline>
		</measure>
		<measure number="7">
			<note>
				<pitch>
					<step>C</step>
					<alter>1</alter>
					<octave>3</octave>
				</pitch>
				<duration>960</duration>
				<voice>1</voice>
				<type>half</type>
				<stem>up</stem>
				<lyric default-y="-75" number="1">
					<syllabic>single</syllabic>
					<text>6</text>
				</lyric>
			</note>
			<note>
				<pitch>
					<step>D</step>
					<octave>3</octave>
				</pitch>
				<duration>960</duration>
				<voice>1</voice>
				<type>half</type>
			</note>
			<barline>
				<bar-style>regular</bar-style>
			</barline>
		</measure>
		<measure number="8">
			<note>
				<pitch>
					<step>D</step>
					<alter>1</alter>
					<octave>3</octave>
				</pitch>
				<duration>960</duration>
				<voice>1</voice>
				<type>half</type>
				<accidental>sharp</accidental>
				<lyric default-y="-75" number="1">
					<syllabic>single</syllabic>
					<text>7</text>
				</lyric>
			</note>
			<note>
				<pitch>
					<step>E</step>
					<octave>3</octave>
				</pitch>
				<duration>960</duration>
				<tie type="start"/>
				<voice>1</voice>
				<type>half</type>
				<notations>
					<tied type="start"/>
				</notations>
			</note>
			<barline>
				<bar-style>regular</bar-style>
			</barline>
		</measure>
		<measure number="9">
			<note>
				<pitch>
					<step>E</step>
					<octave>3</octave>
				</pitch>
				<duration>960</duration>
				<tie type="stop"/>
				<voice>1</voice>
				<type>half</type>
				<notations>
					<tied type="stop"/>
				</notations>
				<lyric default-y="-75" number="1">
					<syllabic>single</syllabic>
					<text>4</text>
				</lyric>
				<lyric default-y="-95" number="2">
					<syllabic>single</syllabic>
					<text>2</text>
				</lyric>
			</note>
			<note>
				<pitch>
					<step>D</step>
					<octave>3</octave>
				</pitch>
				<duration>480</duration>
				<voice>1</voice>
				<type>quarter</type>
				<lyric default-y="-75" number="1">
					<syllabic>single</syllabic>
					<text>6</text>
				</lyric>
			</note>
			<note>
				<pitch>
					<step>B</step>
					<octave>2</octave>
				</pitch>
				<duration>480</duration>
				<voice>1</voice>
				<type>quarter</type>
				<stem>up</stem>
			</note>
			<barline>
				<bar-style>regular</bar-style>
			</barline>
		</measure>
		<measure number="10">
			<note>
				<pitch>
					<step>F</step>
					<alter>1</alter>
					<octave>3</octave>
				</pitch>
				<duration>1920</duration>
				<voice>1</voice>
				<type>whole</type>
			</note>
			<barline>
				<bar-style>regular</bar-style>
			</barline>
		</measure>
		<measure number="11">
			<note>
				<rest/>
				<duration>960</duration>
				<voice>1</voice>
				<type>half</type>
			</note>
			<note>
				<pitch>
					<step>B</step>
					<octave>2</octave>
				</pitch>
				<duration>480</duration>
				<voice>1</voice>
				<type>quarter</type>
				<stem>up</stem>
			</note>
			<note>
				<pitch>
					<step>A</step>
					<octave>2</octave>
				</pitch>
				<duration>480</duration>
				<voice>1</voice>
				<type>quarter</type>
				<stem>up</stem>
			</note>
			<barline>
				<bar-style>regular</bar-style>
			</barline>
		</measure>
		<measure number="12">
			<note>
				<pitch>
					<step>G</step>
					<octave>2</octave>
				</pitch>
				<duration>480</duration>
				<voice>1</voice>
				<type>quarter</type>
				<stem>up</stem>
			</note>
			<note>
				<pitch>
					<step>A</step>
					<octave>2</octave>
				</pitch>
				<duration>480</duration>
				<voice>1</voice>
				<type>quarter</type>
				<stem>up</stem>
			</note>
			<note>
				<pitch>
					<step>B</step>
					<octave>2</octave>
				</pitch>
				<duration>480</duration>
				<voice>1</voice>
				<type>quarter</type>
				<stem>up</stem>
				<lyric default-y="-75" number="1">
					<syllabic>single</syllabic>
					<text>6</text>
				</lyric>
			</note>
			<note>
				<pitch>
					<step>C</step>
					<alter>1</alter>
					<octave>3</octave>
				</pitch>
				<duration>480</duration>
				<voice>1</voice>
				<type>quarter</type>
				<stem>up</stem>
			</note>
			<barline>
				<bar-style>regular</bar-style>
			</barline>
		</measure>
		<measure number="13">
			<note>
				<pitch>
					<step>D</step>
					<octave>3</octave>
				</pitch>
				<duration>960</duration>
				<voice>1</voice>
				<type>half</type>
			</note>
			<note>
				<pitch>
					<step>A</step>
					<alter>1</alter>
					<octave>2</octave>
				</pitch>
				<duration>960</duration>
				<voice>1</voice>
				<type>half</type>
				<accidental>sharp</accidental>
				<stem>up</stem>
				<lyric default-y="-75" number="1">
					<syllabic>single</syllabic>
					<text>6</text>
				</lyric>
			</note>
			<barline>
				<bar-style>regular</bar-style>
			</barline>
		</measure>
		<measure number="14">
			<note>
				<pitch>
					<step>B</step>
					<octave>2</octave>
				</pitch>
				<duration>960</duration>
				<voice>1</voice>
				<type>half</type>
				<stem>up</stem>
				<lyric default-y="-75" number="1">
					<syllabic>single</syllabic>
					<text>8 7</text>
				</lyric>
			</note>
			<note>
				<pitch>
					<step>C</step>
					<alter>1</alter>
					<octave>3</octave>
				</pitch>
				<duration>960</duration>
				<voice>1</voice>
				<type>half</type>
				<stem>up</stem>
				<lyric default-y="-75" number="1">
					<syllabic>single</syllabic>
					<text>7</text>
				</lyric>
			</note>
			<barline>
				<bar-style>regular</bar-style>
			</barline>
			<barline location="right">
				<bar-style>none</bar-style>
			</barline>
		</measure>
		<measure number="15">
			<print new-system="yes">
				<system-layout>
					<system-margins>
						<left-margin>0</left-margin>
						<right-margin>0</right-margin>
					</system-margins>
					<system-distance>110</system-distance>
				</system-layout>
				<staff-layout number="1">
					<staff-distance>80</staff-distance>
				</staff-layout>
			</print>
			<attributes>
				<time>
					<senza-misura/>
				</time>
			</attributes>
			<note>
				<rest/>
				<duration>160</duration>
				<voice>1</voice>
				<type>16th</type>
				<time-modification>
					<actual-notes>6</actual-notes>
					<normal-notes>8</normal-notes>
				</time-modification>
			</note>
			<note>
				<pitch>
					<step>G</step>
					<alter>1</alter>
					<octave>4</octave>
				</pitch>
				<duration>160</duration>
				<voice>1</voice>
				<type>16th</type>
				<accidental>sharp</accidental>
				<time-modification>
					<actual-notes>6</actual-notes>
					<normal-notes>8</normal-notes>
				</time-modification>
				<stem>down</stem>
				<beam number="1">begin</beam>
				<beam number="2">begin</beam>
			</note>
			<note>
				<pitch>
					<step>F</step>
					<alter>1</alter>
					<octave>4</octave>
				</pitch>
				<duration>160</duration>
				<voice>1</voice>
				<type>16th</type>
				<time-modification>
					<actual-notes>6</actual-notes>
					<normal-notes>8</normal-notes>
				</time-modification>
				<stem>down</stem>
				<beam number="1">continue</beam>
				<beam number="2">continue</beam>
				<beam number="3">end</beam>
				<beam number="4">end</beam>
			</note>
			<note>
				<pitch>
					<step>E</step>
					<alter>1</alter>
					<octave>4</octave>
				</pitch>
				<duration>160</duration>
				<voice>1</voice>
				<type>16th</type>
				<accidental>sharp</accidental>
				<time-modification>
					<actual-notes>6</actual-notes>
					<normal-notes>8</normal-notes>
				</time-modification>
				<stem>down</stem>
				<beam number="1">continue</beam>
				<beam number="2">continue</beam>
				<beam number="3">end</beam>
				<beam number="4">end</beam>
			</note>
			<note>
				<pitch>
					<step>F</step>
					<alter>1</alter>
					<octave>4</octave>
				</pitch>
				<duration>160</duration>
				<voice>1</voice>
				<type>16th</type>
				<time-modification>
					<actual-notes>6</actual-notes>
					<normal-notes>8</normal-notes>
				</time-modification>
				<stem>down</stem>
				<beam number="1">continue</beam>
				<beam number="2">continue</beam>
				<beam number="3">end</beam>
				<beam number="4">end</beam>
			</note>
			<note>
				<pitch>
					<step>C</step>
					<alter>1</alter>
					<octave>4</octave>
				</pitch>
				<duration>160</duration>
				<voice>1</voice>
				<type>16th</type>
				<time-modification>
					<actual-notes>6</actual-notes>
					<normal-notes>8</normal-notes>
				</time-modification>
				<stem>down</stem>
				<beam number="1">end</beam>
				<beam number="2">end</beam>
			</note>
			<note>
				<pitch>
					<step>A</step>
					<octave>3</octave>
				</pitch>
				<duration>160</duration>
				<voice>1</voice>
				<type>16th</type>
				<time-modification>
					<actual-notes>6</actual-notes>
					<normal-notes>8</normal-notes>
				</time-modification>
				<beam number="1">begin</beam>
				<beam number="2">begin</beam>
			</note>
			<note>
				<pitch>
					<step>B</step>
					<octave>3</octave>
				</pitch>
				<duration>160</duration>
				<voice>1</voice>
				<type>16th</type>
				<time-modification>
					<actual-notes>6</actual-notes>
					<normal-notes>8</normal-notes>
				</time-modification>
				<beam number="1">continue</beam>
				<beam number="2">continue</beam>
				<beam number="3">end</beam>
				<beam number="4">end</beam>
			</note>
			<note>
				<pitch>
					<step>C</step>
					<alter>1</alter>
					<octave>4</octave>
				</pitch>
				<duration>160</duration>
				<voice>1</voice>
				<type>16th</type>
				<time-modification>
					<actual-notes>6</actual-notes>
					<normal-notes>8</normal-notes>
				</time-modification>
				<beam number="1">continue</beam>
				<beam number="2">continue</beam>
				<beam number="3">end</beam>
				<beam number="4">end</beam>
			</note>
			<note>
				<pitch>
					<step>A</step>
					<octave>3</octave>
				</pitch>
				<duration>160</duration>
				<voice>1</voice>
				<type>16th</type>
				<time-modification>
					<actual-notes>6</actual-notes>
					<normal-notes>8</normal-notes>
				</time-modification>
				<beam number="1">continue</beam>
				<beam number="2">continue</beam>
				<beam number="3">end</beam>
				<beam number="4">end</beam>
			</note>
			<note>
				<pitch>
					<step>F</step>
					<alter>1</alter>
					<octave>3</octave>
				</pitch>
				<duration>160</duration>
				<voice>1</voice>
				<type>16th</type>
				<time-modification>
					<actual-notes>6</actual-notes>
					<normal-notes>8</normal-notes>
				</time-modification>
				<beam number="1">continue</beam>
				<beam number="2">continue</beam>
				<beam number="3">end</beam>
				<beam number="4">end</beam>
			</note>
			<note>
				<pitch>
					<step>A</step>
					<octave>3</octave>
				</pitch>
				<duration>160</duration>
				<voice>1</voice>
				<type>16th</type>
				<time-modification>
					<actual-notes>6</actual-notes>
					<normal-notes>8</normal-notes>
				</time-modification>
				<beam number="1">end</beam>
				<beam number="2">end</beam>
			</note>
			<note>
				<pitch>
					<step>C</step>
					<alter>1</alter>
					<octave>3</octave>
				</pitch>
				<duration>160</duration>
				<voice>1</voice>
				<type>16th</type>
				<time-modification>
					<actual-notes>6</actual-notes>
					<normal-notes>8</normal-notes>
				</time-modification>
				<beam number="1">begin</beam>
				<beam number="2">begin</beam>
			</note>
			<note>
				<pitch>
					<step>F</step>
					<alter>1</alter>
					<octave>3</octave>
				</pitch>
				<duration>160</duration>
				<voice>1</voice>
				<type>16th</type>
				<time-modification>
					<actual-notes>6</actual-notes>
					<normal-notes>8</normal-notes>
				</time-modification>
				<beam number="1">continue</beam>
				<beam number="2">continue</beam>
				<beam number="3">end</beam>
				<beam number="4">end</beam>
			</note>
			<note>
				<pitch>
					<step>E</step>
					<alter>1</alter>
					<octave>3</octave>
				</pitch>
				<duration>160</duration>
				<voice>1</voice>
				<type>16th</type>
				<accidental>sharp</accidental>
				<time-modification>
					<actual-notes>6</actual-notes>
					<normal-notes>8</normal-notes>
				</time-modification>
				<beam number="1">continue</beam>
				<beam number="2">continue</beam>
				<beam number="3">end</beam>
				<beam number="4">end</beam>
			</note>
			<note>
				<pitch>
					<step>F</step>
					<alter>1</alter>
					<octave>3</octave>
				</pitch>
				<duration>160</duration>
				<voice>1</voice>
				<type>16th</type>
				<time-modification>
					<actual-notes>6</actual-notes>
					<normal-notes>8</normal-notes>
				</time-modification>
				<beam number="1">continue</beam>
				<beam number="2">continue</beam>
				<beam number="3">end</beam>
				<beam number="4">end</beam>
			</note>
			<note>
				<pitch>
					<step>G</step>
					<alter>1</alter>
					<octave>3</octave>
				</pitch>
				<duration>160</duration>
				<voice>1</voice>
				<type>16th</type>
				<accidental>sharp</accidental>
				<time-modification>
					<actual-notes>6</actual-notes>
					<normal-notes>8</normal-notes>
				</time-modification>
				<beam number="1">continue</beam>
				<beam number="2">continue</beam>
				<beam number="3">end</beam>
				<beam number="4">end</beam>
			</note>
			<note>
				<pitch>
					<step>E</step>
					<alter>1</alter>
					<octave>3</octave>
				</pitch>
				<duration>160</duration>
				<voice>1</voice>
				<type>16th</type>
				<time-modification>
					<actual-notes>6</actual-notes>
					<normal-notes>8</normal-notes>
				</time-modification>
				<beam number="1">end</beam>
				<beam number="2">end</beam>
			</note>
			<note>
				<pitch>
					<step>F</step>
					<alter>1</alter>
					<octave>3</octave>
				</pitch>
				<duration>160</duration>
				<voice>1</voice>
				<type>16th</type>
				<time-modification>
					<actual-notes>6</actual-notes>
					<normal-notes>8</normal-notes>
				</time-modification>
				<stem>up</stem>
				<beam number="1">begin</beam>
				<beam number="2">begin</beam>
			</note>
			<note>
				<pitch>
					<step>C</step>
					<alter>1</alter>
					<octave>3</octave>
				</pitch>
				<duration>160</duration>
				<voice>1</voice>
				<type>16th</type>
				<time-modification>
					<actual-notes>6</actual-notes>
					<normal-notes>8</normal-notes>
				</time-modification>
				<stem>up</stem>
				<beam number="1">continue</beam>
				<beam number="2">continue</beam>
				<beam number="3">end</beam>
				<beam number="4">end</beam>
			</note>
			<note>
				<pitch>
					<step>A</step>
					<octave>2</octave>
				</pitch>
				<duration>160</duration>
				<voice>1</voice>
				<type>16th</type>
				<time-modification>
					<actual-notes>6</actual-notes>
					<normal-notes>8</normal-notes>
				</time-modification>
				<stem>up</stem>
				<beam number="1">continue</beam>
				<beam number="2">continue</beam>
				<beam number="3">end</beam>
				<beam number="4">end</beam>
			</note>
			<note>
				<pitch>
					<step>B</step>
					<octave>2</octave>
				</pitch>
				<duration>160</duration>
				<voice>1</voice>
				<type>16th</type>
				<time-modification>
					<actual-notes>6</actual-notes>
					<normal-notes>8</normal-notes>
				</time-modification>
				<stem>up</stem>
				<beam number="1">continue</beam>
				<beam number="2">continue</beam>
				<beam number="3">end</beam>
				<beam number="4">end</beam>
			</note>
			<note>
				<pitch>
					<step>C</step>
					<alter>1</alter>
					<octave>3</octave>
				</pitch>
				<duration>160</duration>
				<voice>1</voice>
				<type>16th</type>
				<time-modification>
					<actual-notes>6</actual-notes>
					<normal-notes>8</normal-notes>
				</time-modification>
				<stem>up</stem>
				<beam number="1">continue</beam>
				<beam number="2">continue</beam>
				<beam number="3">end</beam>
				<beam number="4">end</beam>
			</note>
			<note>
				<pitch>
					<step>A</step>
					<octave>2</octave>
				</pitch>
				<duration>160</duration>
				<voice>1</voice>
				<type>16th</type>
				<time-modification>
					<actual-notes>6</actual-notes>
					<normal-notes>8</normal-notes>
				</time-modification>
				<stem>up</stem>
				<beam number="1">end</beam>
				<beam number="2">end</beam>
			</note>
			<note>
				<pitch>
					<step>F</step>
					<alter>1</alter>
					<octave>2</octave>
				</pitch>
				<duration>160</duration>
				<voice>1</voice>
				<type>16th</type>
				<time-modification>
					<actual-notes>6</actual-notes>
					<normal-notes>8</normal-notes>
				</time-modification>
				<stem>up</stem>
				<beam number="1">begin</beam>
				<beam number="2">begin</beam>
			</note>
			<note>
				<pitch>
					<step>A</step>
					<octave>2</octave>
				</pitch>
				<duration>160</duration>
				<voice>1</voice>
				<type>16th</type>
				<time-modification>
					<actual-notes>6</actual-notes>
					<normal-notes>8</normal-notes>
				</time-modification>
				<stem>up</stem>
				<beam number="1">continue</beam>
				<beam number="2">continue</beam>
				<beam number="3">end</beam>
				<beam number="4">end</beam>
			</note>
			<note>
				<pitch>
					<step>C</step>
					<alter>1</alter>
					<octave>3</octave>
				</pitch>
				<duration>160</duration>
				<voice>1</voice>
				<type>16th</type>
				<time-modification>
					<actual-notes>6</actual-notes>
					<normal-notes>8</normal-notes>
				</time-modification>
				<stem>up</stem>
				<beam number="1">continue</beam>
				<beam number="2">continue</beam>
				<beam number="3">end</beam>
				<beam number="4">end</beam>
			</note>
			<note>
				<pitch>
					<step>F</step>
					<alter>1</alter>
					<octave>3</octave>
				</pitch>
				<duration>160</duration>
				<voice>1</voice>
				<type>16th</type>
				<time-modification>
					<actual-notes>6</actual-notes>
					<normal-notes>8</normal-notes>
				</time-modification>
				<stem>up</stem>
				<beam number="1">continue</beam>
				<beam number="2">continue</beam>
				<beam number="3">end</beam>
				<beam number="4">end</beam>
			</note>
			<note>
				<pitch>
					<step>E</step>
					<alter>1</alter>
					<octave>3</octave>
				</pitch>
				<duration>160</duration>
				<voice>1</voice>
				<type>16th</type>
				<time-modification>
					<actual-notes>6</actual-notes>
					<normal-notes>8</normal-notes>
				</time-modification>
				<stem>up</stem>
				<beam number="1">continue</beam>
				<beam number="2">continue</beam>
				<beam number="3">end</beam>
				<beam number="4">end</beam>
			</note>
			<note>
				<pitch>
					<step>F</step>
					<alter>1</alter>
					<octave>3</octave>
				</pitch>
				<duration>160</duration>
				<voice>1</voice>
				<type>16th</type>
				<time-modification>
					<actual-notes>6</actual-notes>
					<normal-notes>8</normal-notes>
				</time-modification>
				<stem>up</stem>
				<beam number="1">end</beam>
				<beam number="2">end</beam>
			</note>
			<note print-object="no">
				<rest/>
				<duration>960</duration>
				<voice>1</voice>
				<type>half</type>
			</note>
			<backup>
				<duration>5760</duration>
			</backup>
			<note>
				<pitch>
					<step>F</step>
					<alter>1</alter>
					<octave>2</octave>
				</pitch>
				<duration>960</duration>
				<voice>2</voice>
				<type>half</type>
				<stem>up</stem>
				<notations>
					<fermata type="inverted"/>
				</notations>
			</note>
			<note print-object="no">
				<pitch>
					<step>F</step>
					<alter>1</alter>
					<octave>2</octave>
				</pitch>
				<duration>1920</duration>
				<tie type="start"/>
				<voice>2</voice>
				<type>whole</type>
				<stem>down</stem>
				<notations>
					<tied type="start"/>
				</notations>
			</note>
			<note print-object="no">
				<pitch>
					<step>F</step>
					<alter>1</alter>
					<octave>2</octave>
				</pitch>
				<duration>1920</duration>
				<tie type="stop"/>
				<voice>2</voice>
				<type>whole</type>
				<stem>down</stem>
				<notations>
					<tied type="stop"/>
				</notations>
			</note>
			<note>
				<pitch>
					<step>B</step>
					<octave>2</octave>
				</pitch>
				<duration>960</duration>
				<tie type="start"/>
				<voice>2</voice>
				<type>half</type>
				<stem>up</stem>
				<notations>
					<tied type="start"/>
				</notations>
			</note>
			<barline>
				<bar-style>regular</bar-style>
			</barline>
		</measure>
		<measure number="16">
			<note print-object="no">
				<rest/>
				<duration>1920</duration>
				<voice>1</voice>
				<type>whole</type>
			</note>
			<backup>
				<duration>1920</duration>
			</backup>
			<direction placement="below">
				<direction-type>
					<words relative-x="3" default-y="-77" font-family="Times New Roman" font-size="10">\</words>
				</direction-type>
			</direction>
			<note>
				<pitch>
					<step>B</step>
					<octave>2</octave>
				</pitch>
				<duration>480</duration>
				<tie type="stop"/>
				<voice>2</voice>
				<type>quarter</type>
				<stem>up</stem>
				<notations>
					<tied type="stop"/>
				</notations>
				<lyric default-y="-75" number="1">
					<syllabic>single</syllabic>
					<text>6</text>
				</lyric>
				<lyric default-y="-95" number="2">
					<syllabic>single</syllabic>
					<text>4  6</text>
				</lyric>
				<lyric default-y="-115" number="3">
					<syllabic>single</syllabic>
					<text>2</text>
				</lyric>
			</note>
			<note>
				<pitch>
					<step>A</step>
					<octave>2</octave>
				</pitch>
				<duration>960</duration>
				<voice>2</voice>
				<type>half</type>
				<stem>up</stem>
				<lyric default-y="-75" number="1">
					<syllabic>single</syllabic>
					<text>4</text>
				</lyric>
				<lyric default-y="-95" number="2">
					<syllabic>single</syllabic>
					<text>2</text>
				</lyric>
			</note>
			<note>
				<pitch>
					<step>G</step>
					<octave>2</octave>
				</pitch>
				<duration>480</duration>
				<tie type="start"/>
				<voice>2</voice>
				<type>quarter</type>
				<stem>up</stem>
				<notations>
					<tied type="start"/>
				</notations>
				<lyric default-y="-75" number="1">
					<syllabic>single</syllabic>
					<text>6</text>
				</lyric>
			</note>
			<barline>
				<bar-style>regular</bar-style>
			</barline>
		</measure>
		<measure number="17">
			<note print-object="no">
				<rest/>
				<duration>1920</duration>
				<voice>1</voice>
				<type>whole</type>
			</note>
			<backup>
				<duration>1920</duration>
			</backup>
			<note>
				<pitch>
					<step>G</step>
					<octave>2</octave>
				</pitch>
				<duration>480</duration>
				<tie type="stop"/>
				<voice>2</voice>
				<type>quarter</type>
				<stem>up</stem>
				<notations>
					<tied type="stop"/>
				</notations>
				<lyric default-y="-75" number="1">
					<syllabic>single</syllabic>
					<text>4</text>
				</lyric>
				<lyric default-y="-95" number="2">
					<syllabic>single</syllabic>
					<text>2</text>
				</lyric>
			</note>
			<note>
				<pitch>
					<step>F</step>
					<alter>1</alter>
					<octave>2</octave>
				</pitch>
				<duration>480</duration>
				<voice>2</voice>
				<type>quarter</type>
				<stem>up</stem>
				<lyric default-y="-75" number="1">
					<syllabic>single</syllabic>
					<text>6</text>
				</lyric>
			</note>
			<note>
				<pitch>
					<step>G</step>
					<octave>2</octave>
				</pitch>
				<duration>480</duration>
				<voice>2</voice>
				<type>quarter</type>
				<stem>up</stem>
			</note>
			<direction placement="below">
				<direction-type>
					<words relative-x="3" default-y="-77" font-family="Times New Roman" font-size="10">\</words>
				</direction-type>
			</direction>
			<note>
				<pitch>
					<step>F</step>
					<alter>1</alter>
					<octave>2</octave>
				</pitch>
				<duration>480</duration>
				<voice>2</voice>
				<type>quarter</type>
				<stem>up</stem>
				<lyric default-y="-75" number="1">
					<syllabic>single</syllabic>
					<text>6</text>
				</lyric>
			</note>
			<barline>
				<bar-style>regular</bar-style>
			</barline>
		</measure>
		<measure number="18">
			<note print-object="no">
				<rest/>
				<duration>1920</duration>
				<voice>1</voice>
				<type>whole</type>
			</note>
			<backup>
				<duration>1920</duration>
			</backup>
			<note>
				<pitch>
					<step>E</step>
					<octave>2</octave>
				</pitch>
				<duration>960</duration>
				<voice>2</voice>
				<type>half</type>
				<stem>up</stem>
			</note>
			<note>
				<pitch>
					<step>B</step>
					<octave>2</octave>
				</pitch>
				<duration>960</duration>
				<voice>2</voice>
				<type>half</type>
				<stem>up</stem>
			</note>
			<barline>
				<bar-style>regular</bar-style>
			</barline>
		</measure>
		<measure number="19">
			<note print-object="no">
				<rest/>
				<duration>1920</duration>
				<voice>1</voice>
				<type>whole</type>
			</note>
			<backup>
				<duration>1920</duration>
			</backup>
			<note>
				<pitch>
					<step>G</step>
					<octave>2</octave>
				</pitch>
				<duration>960</duration>
				<voice>2</voice>
				<type>half</type>
				<stem>up</stem>
				<lyric default-y="-75" number="1">
					<syllabic>single</syllabic>
					<text>6</text>
				</lyric>
				<lyric default-y="-95" number="2">
					<syllabic>single</syllabic>
					<text>5</text>
				</lyric>
			</note>
			<note>
				<pitch>
					<step>A</step>
					<octave>2</octave>
				</pitch>
				<duration>960</duration>
				<voice>2</voice>
				<type>half</type>
				<stem>up</stem>
				<lyric default-y="-75" number="1">
					<syllabic>single</syllabic>
					<text>   8 7</text>
				</lyric>
			</note>
			<barline>
				<bar-style>regular</bar-style>
			</barline>
		</measure>
		<measure number="20">
			<note print-object="no">
				<rest/>
				<duration>1920</duration>
				<voice>1</voice>
				<type>whole</type>
			</note>
			<backup>
				<duration>1920</duration>
			</backup>
			<note>
				<pitch>
					<step>D</step>
					<octave>2</octave>
				</pitch>
				<duration>1920</duration>
				<voice>2</voice>
				<type>whole</type>
				<stem>down</stem>
			</note>
			<barline>
				<bar-style>light-heavy</bar-style>
			</barline>
			<barline location="right">
				<bar-style>none</bar-style>
			</barline>
		</measure>
	</part>
	<part id="P3">
		<measure number="1">
			<attributes>
				<divisions>480</divisions>
				<time>
					<beats>2</beats>
					<beat-type>2</beat-type>
				</time>
				<staff-details number="1" print-object="no"/>
			</attributes>
			<note>
				<rest/>
				<duration>1920</duration>
			</note>
		</measure>
		<measure number="2">
			<note>
				<rest/>
				<duration>1920</duration>
			</note>
		</measure>
		<measure number="3">
			<note>
				<rest/>
				<duration>1920</duration>
			</note>
		</measure>
		<measure number="4">
			<note>
				<rest/>
				<duration>1920</duration>
			</note>
		</measure>
		<measure number="5">
			<note>
				<rest/>
				<duration>6720</duration>
			</note>
			<barline>
				<bar-style>regular</bar-style>
			</barline>
		</measure>
		<measure number="6">
			<print new-system="yes">
				<system-layout>
					<system-margins>
						<left-margin>0</left-margin>
						<right-margin>0</right-margin>
					</system-margins>
					<system-distance>110</system-distance>
				</system-layout>
			</print>
			<attributes>
				<divisions>480</divisions>
				<time>
					<senza-misura/>
				</time>
				<staff-details number="1" print-object="no"/>
			</attributes>
			<note>
				<rest/>
				<duration>1920</duration>
			</note>
			<barline>
				<bar-style>regular</bar-style>
			</barline>
		</measure>
		<measure number="7">
			<note>
				<rest/>
				<duration>1920</duration>
			</note>
			<barline>
				<bar-style>regular</bar-style>
			</barline>
		</measure>
		<measure number="8">
			<note>
				<rest/>
				<duration>1920</duration>
			</note>
			<barline>
				<bar-style>regular</bar-style>
			</barline>
		</measure>
		<measure number="9">
			<note>
				<rest/>
				<duration>1920</duration>
			</note>
			<barline>
				<bar-style>regular</bar-style>
			</barline>
		</measure>
		<measure number="10">
			<note>
				<rest/>
				<duration>1920</duration>
			</note>
			<barline>
				<bar-style>regular</bar-style>
			</barline>
		</measure>
		<measure number="11">
			<note>
				<rest/>
				<duration>1920</duration>
			</note>
			<barline>
				<bar-style>regular</bar-style>
			</barline>
		</measure>
		<measure number="12">
			<note>
				<rest/>
				<duration>1920</duration>
			</note>
			<barline>
				<bar-style>regular</bar-style>
			</barline>
		</measure>
		<measure number="13">
			<note>
				<rest/>
				<duration>1920</duration>
			</note>
			<barline>
				<bar-style>regular</bar-style>
			</barline>
		</measure>
		<measure number="14">
			<note>
				<rest/>
				<duration>1920</duration>
			</note>
			<barline>
				<bar-style>regular</bar-style>
			</barline>
		</measure>
		<measure number="15">
			<print new-system="yes">
				<system-layout>
					<system-margins>
						<left-margin>0</left-margin>
						<right-margin>0</right-margin>
					</system-margins>
					<system-distance>110</system-distance>
				</system-layout>
			</print>
			<attributes>
				<divisions>480</divisions>
				<time>
					<beats>4</beats>
					<beat-type>4</beat-type>
				</time>
				<staff-details number="1" print-object="no"/>
			</attributes>
			<note>
				<rest/>
				<duration>5760</duration>
			</note>
			<barline>
				<bar-style>regular</bar-style>
			</barline>
		</measure>
		<measure number="16">
			<note>
				<rest/>
				<duration>1920</duration>
			</note>
			<barline>
				<bar-style>regular</bar-style>
			</barline>
		</measure>
		<measure number="17">
			<note>
				<rest/>
				<duration>1920</duration>
			</note>
			<barline>
				<bar-style>regular</bar-style>
			</barline>
		</measure>
		<measure number="18">
			<note>
				<rest/>
				<duration>1920</duration>
			</note>
			<barline>
				<bar-style>regular</bar-style>
			</barline>
		</measure>
		<measure number="19">
			<note>
				<rest/>
				<duration>1920</duration>
			</note>
			<barline>
				<bar-style>regular</bar-style>
			</barline>
		</measure>
		<measure number="20">
			<note>
				<rest/>
				<duration>1920</duration>
			</note>
			<barline>
				<bar-style>light-heavy</bar-style>
			</barline>
		</measure>
	</part>
</score-partwise>
