<?xml version="1.0" encoding="UTF-8" standalone="no"?>
<!--MusicXML 2.0 file created by CapToMusic.py CapXML to MusicXML converter version 1.38-->
<!DOCTYPE score-partwise PUBLIC "-//Recordare//DTD MusicXML 2.0 Partwise//EN" "http://www.musicxml.org/dtds/partwise.dtd">
<score-partwise version="2.0">
	<identification>
		<encoding>
			<encoding-date>2016-09-11</encoding-date>
			<software>CapToMusic.py CapXML to MusicXML converter version 1.38</software>
			<encoding-description>Options: FinaleDolet33=1, ChordCaseMatters=1, ExportToSibelius=0</encoding-description>
		</encoding>
	</identification>
	<defaults>
		<scaling>
			<millimeters>1.4</millimeters>
			<tenths>10.0</tenths>
		</scaling>
		<page-layout>
			<page-height>2121</page-height>
			<page-width>1500</page-width>
			<page-margins type="both">
				<left-margin>71</left-margin>
				<right-margin>71</right-margin>
				<top-margin>71</top-margin>
				<bottom-margin>71</bottom-margin>
			</page-margins>
		</page-layout>
		<system-layout>
			<system-margins>
				<left-margin>0</left-margin>
				<right-margin>0</right-margin>
			</system-margins>
			<system-distance>40</system-distance>
			<top-system-distance>100</top-system-distance>
		</system-layout>
	</defaults>
	<credit>
		<credit-words default-x="1426" default-y="2027" font-family="Times New Roman" font-size="8" justify="right">BWV 28-6 S.#</credit-words>
	</credit>
	<credit>
		<credit-words default-x="1426" default-y="2004" font-family="Times New Roman" font-size="6" justify="right">Neu gesetzt: RS 04/2016</credit-words>
	</credit>
	<part-list>
		<score-part id="P1">
			<part-name>Soprano.  Oboe I. Violino I. Cornetto col Soprano.</part-name>
			<part-abbreviation></part-abbreviation>
			<score-instrument id="P1-I1">
				<instrument-name>Midi_70</instrument-name>
			</score-instrument>
			<midi-instrument id="P1-I1">
				<midi-channel>1</midi-channel>
				<midi-program>70</midi-program>
			</midi-instrument>
		</score-part>
		<score-part id="P2">
			<part-name>Continuo. e Trombone III.</part-name>
			<part-abbreviation></part-abbreviation>
			<score-instrument id="P2-I1">
				<instrument-name>Midi_43</instrument-name>
			</score-instrument>
			<midi-instrument id="P2-I1">
				<midi-channel>2</midi-channel>
				<midi-program>43</midi-program>
			</midi-instrument>
		</score-part>
		<part-group type="stop" number="1"/>
	</part-list>
	<part id="P1">
		<measure number="0">
			<direction>
				<direction-type>
					<other-direction/>
				</direction-type>
				<sound tempo="72"/>
			</direction>
			<print>
				<system-layout>
					<system-margins>
						<left-margin>484</left-margin>
						<right-margin>0</right-margin>
					</system-margins>
					<top-system-distance>140</top-system-distance>
				</system-layout>
				<staff-layout number="1">
					<staff-distance>40</staff-distance>
				</staff-layout>
				<staff-layout number="2">
					<staff-distance>130</staff-distance>
				</staff-layout>
				<staff-layout number="3">
					<staff-distance>130</staff-distance>
				</staff-layout>
				<staff-layout number="4">
					<staff-distance>130</staff-distance>
				</staff-layout>
			</print>
			<attributes>
				<divisions>480</divisions>
				<key>
					<fifths>0</fifths>
					<mode>major</mode>
				</key>
				<time symbol="common">
					<beats>4</beats>
					<beat-type>4</beat-type>
				</time>
				<staves>4</staves>
				<clef number="1">
					<sign>G</sign>
					<line>2</line>
				</clef>
			</attributes>
			<direction placement="above">
				<direction-type>
					<words relative-x="-59" default-y="40" font-family="Times New Roman" font-size="12" font-weight="bold">6. CHORAL.</words>
				</direction-type>
				<staff>1</staff>
			</direction>
			<note>
				<pitch>
					<step>A</step>
					<octave>4</octave>
				</pitch>
				<duration>480</duration>
				<voice>1</voice>
				<type>quarter</type>
				<staff>1</staff>
				<lyric default-y="-85" number="1">
					<syllabic>single</syllabic>
					<text>All'</text>
				</lyric>
				<lyric default-y="-115" number="3">
					<syllabic>single</syllabic>
					<text>die</text>
				</lyric>
			</note>
			<backup>
				<duration>480</duration>
			</backup>
			<attributes>
				<time symbol="common">
					<beats>4</beats>
					<beat-type>4</beat-type>
				</time>
				<staves>4</staves>
				<clef number="2">
					<sign>C</sign>
					<line>3</line>
				</clef>
			</attributes>
			<note>
				<pitch>
					<step>E</step>
					<octave>4</octave>
				</pitch>
				<duration>480</duration>
				<voice>2</voice>
				<type>quarter</type>
				<staff>2</staff>
				<lyric default-y="-85" number="1">
					<syllabic>single</syllabic>
					<text>All'</text>
				</lyric>
				<lyric default-y="-115" number="3">
					<syllabic>single</syllabic>
					<text>die</text>
				</lyric>
			</note>
			<backup>
				<duration>480</duration>
			</backup>
			<attributes>
				<time symbol="common">
					<beats>4</beats>
					<beat-type>4</beat-type>
				</time>
				<staves>4</staves>
				<clef number="3">
					<sign>C</sign>
					<line>4</line>
				</clef>
			</attributes>
			<note>
				<pitch>
					<step>C</step>
					<octave>4</octave>
				</pitch>
				<duration>480</duration>
				<voice>3</voice>
				<type>quarter</type>
				<staff>3</staff>
				<lyric default-y="-85" number="1">
					<syllabic>single</syllabic>
					<text>All'</text>
				</lyric>
				<lyric default-y="-115" number="3">
					<syllabic>single</syllabic>
					<text>die</text>
				</lyric>
			</note>
			<backup>
				<duration>480</duration>
			</backup>
			<attributes>
				<time symbol="common">
					<beats>4</beats>
					<beat-type>4</beat-type>
				</time>
				<staves>4</staves>
				<clef number="4">
					<sign>F</sign>
					<line>4</line>
				</clef>
			</attributes>
			<note>
				<pitch>
					<step>A</step>
					<octave>2</octave>
				</pitch>
				<duration>480</duration>
				<voice>4</voice>
				<type>quarter</type>
				<staff>4</staff>
				<lyric default-y="-85" number="1">
					<syllabic>single</syllabic>
					<text>All'</text>
				</lyric>
				<lyric default-y="-115" number="3">
					<syllabic>single</syllabic>
					<text>die</text>
				</lyric>
			</note>
			<barline>
				<bar-style>regular</bar-style>
			</barline>
		</measure>
		<measure number="1">
			<note>
				<pitch>
					<step>A</step>
					<octave>4</octave>
				</pitch>
				<duration>480</duration>
				<voice>1</voice>
				<type>quarter</type>
				<stem>down</stem>
				<staff>1</staff>
				<lyric default-y="-85" number="1">
					<syllabic>single</syllabic>
					<text>solch'</text>
				</lyric>
				<lyric default-y="-115" number="3">
					<syllabic>single</syllabic>
					<text>du</text>
				</lyric>
			</note>
			<note>
				<pitch>
					<step>B</step>
					<octave>4</octave>
				</pitch>
				<duration>480</duration>
				<voice>1</voice>
				<type>quarter</type>
				<staff>1</staff>
				<lyric default-y="-85" number="1">
					<syllabic>single</syllabic>
					<text>dein'</text>
				</lyric>
				<lyric default-y="-115" number="3">
					<syllabic>single</syllabic>
					<text>uns</text>
				</lyric>
			</note>
			<note>
				<pitch>
					<step>C</step>
					<octave>5</octave>
				</pitch>
				<duration>480</duration>
				<voice>1</voice>
				<type>quarter</type>
				<staff>1</staff>
				<lyric default-y="-85" number="1">
					<syllabic>single</syllabic>
					<text>G端t'</text>
				</lyric>
				<lyric default-y="-115" number="3">
					<syllabic>single</syllabic>
					<text>thust</text>
				</lyric>
			</note>
			<note>
				<pitch>
					<step>D</step>
					<octave>5</octave>
				</pitch>
				<duration>480</duration>
				<voice>1</voice>
				<type>quarter</type>
				<staff>1</staff>
				<lyric default-y="-85" number="1">
					<syllabic>single</syllabic>
					<text>wir</text>
				</lyric>
				<lyric default-y="-115" number="3">
					<syllabic>begin</syllabic>
					<text>be</text>
				</lyric>
			</note>
			<backup>
				<duration>1920</duration>
			</backup>
			<note>
				<pitch>
					<step>E</step>
					<octave>4</octave>
				</pitch>
				<duration>480</duration>
				<voice>2</voice>
				<type>quarter</type>
				<staff>2</staff>
				<lyric default-y="-85" number="1">
					<syllabic>end</syllabic>
					<text>solch'</text>
				</lyric>
				<lyric default-y="-115" number="3">
					<syllabic>single</syllabic>
					<text>du</text>
				</lyric>
			</note>
			<note>
				<pitch>
					<step>E</step>
					<octave>4</octave>
				</pitch>
				<duration>480</duration>
				<voice>2</voice>
				<type>quarter</type>
				<staff>2</staff>
				<lyric default-y="-85" number="1">
					<syllabic>single</syllabic>
					<text>dein'</text>
				</lyric>
				<lyric default-y="-115" number="3">
					<syllabic>single</syllabic>
					<text>uns</text>
				</lyric>
			</note>
			<note>
				<pitch>
					<step>E</step>
					<octave>4</octave>
				</pitch>
				<duration>480</duration>
				<voice>2</voice>
				<type>quarter</type>
				<staff>2</staff>
				<lyric default-y="-85" number="1">
					<syllabic>single</syllabic>
					<text>G端t'</text>
				</lyric>
				<lyric default-y="-115" number="3">
					<syllabic>single</syllabic>
					<text>thust</text>
				</lyric>
			</note>
			<note>
				<pitch>
					<step>D</step>
					<octave>4</octave>
				</pitch>
				<duration>480</duration>
				<voice>2</voice>
				<type>quarter</type>
				<staff>2</staff>
				<lyric default-y="-85" number="1">
					<syllabic>single</syllabic>
					<text>wir</text>
				</lyric>
				<lyric default-y="-115" number="3">
					<syllabic>begin</syllabic>
					<text>be</text>
				</lyric>
			</note>
			<backup>
				<duration>1920</duration>
			</backup>
			<note>
				<pitch>
					<step>C</step>
					<octave>4</octave>
				</pitch>
				<duration>480</duration>
				<voice>3</voice>
				<type>quarter</type>
				<staff>3</staff>
				<lyric default-y="-85" number="1">
					<syllabic>end</syllabic>
					<text>solch'</text>
				</lyric>
				<lyric default-y="-115" number="3">
					<syllabic>single</syllabic>
					<text>du</text>
				</lyric>
			</note>
			<note>
				<pitch>
					<step>B</step>
					<octave>3</octave>
				</pitch>
				<duration>480</duration>
				<voice>3</voice>
				<type>quarter</type>
				<staff>3</staff>
				<lyric default-y="-85" number="1">
					<syllabic>single</syllabic>
					<text>dein'</text>
				</lyric>
				<lyric default-y="-115" number="3">
					<syllabic>single</syllabic>
					<text>uns</text>
				</lyric>
			</note>
			<note>
				<pitch>
					<step>A</step>
					<octave>3</octave>
				</pitch>
				<duration>480</duration>
				<voice>3</voice>
				<type>quarter</type>
				<staff>3</staff>
				<lyric default-y="-85" number="1">
					<syllabic>single</syllabic>
					<text>G端t'</text>
				</lyric>
				<lyric default-y="-115" number="3">
					<syllabic>single</syllabic>
					<text>thust</text>
				</lyric>
			</note>
			<note>
				<pitch>
					<step>A</step>
					<octave>3</octave>
				</pitch>
				<duration>480</duration>
				<voice>3</voice>
				<type>quarter</type>
				<staff>3</staff>
				<lyric default-y="-85" number="1">
					<syllabic>single</syllabic>
					<text>wir</text>
				</lyric>
				<lyric default-y="-115" number="3">
					<syllabic>begin</syllabic>
					<text>be</text>
				</lyric>
			</note>
			<backup>
				<duration>1920</duration>
			</backup>
			<note>
				<pitch>
					<step>A</step>
					<octave>3</octave>
				</pitch>
				<duration>480</duration>
				<voice>4</voice>
				<type>quarter</type>
				<staff>4</staff>
				<lyric default-y="-85" number="1">
					<syllabic>end</syllabic>
					<text>solch'</text>
				</lyric>
				<lyric default-y="-115" number="3">
					<syllabic>single</syllabic>
					<text>du</text>
				</lyric>
			</note>
			<note>
				<pitch>
					<step>G</step>
					<alter>1</alter>
					<octave>3</octave>
				</pitch>
				<duration>480</duration>
				<voice>4</voice>
				<type>quarter</type>
				<accidental>sharp</accidental>
				<staff>4</staff>
				<lyric default-y="-85" number="1">
					<syllabic>single</syllabic>
					<text>dein'</text>
				</lyric>
				<lyric default-y="-115" number="3">
					<syllabic>single</syllabic>
					<text>uns</text>
				</lyric>
			</note>
			<note>
				<pitch>
					<step>A</step>
					<octave>3</octave>
				</pitch>
				<duration>480</duration>
				<voice>4</voice>
				<type>quarter</type>
				<staff>4</staff>
				<lyric default-y="-85" number="1">
					<syllabic>single</syllabic>
					<text>G端t'</text>
				</lyric>
				<lyric default-y="-115" number="3">
					<syllabic>single</syllabic>
					<text>thust</text>
				</lyric>
			</note>
			<note>
				<pitch>
					<step>F</step>
					<alter>1</alter>
					<octave>3</octave>
				</pitch>
				<duration>480</duration>
				<voice>4</voice>
				<type>quarter</type>
				<accidental>sharp</accidental>
				<staff>4</staff>
				<lyric default-y="-85" number="1">
					<syllabic>single</syllabic>
					<text>wir</text>
				</lyric>
				<lyric default-y="-115" number="3">
					<syllabic>begin</syllabic>
					<text>be</text>
				</lyric>
			</note>
		</measure>
		<measure number="2">
			<note>
				<pitch>
					<step>B</step>
					<octave>4</octave>
				</pitch>
				<duration>720</duration>
				<voice>1</voice>
				<type>quarter</type>
				<dot/>
				<staff>1</staff>
				<notations>
					<slur number="1" placement="above" type="start"/>
				</notations>
				<lyric default-y="-85" number="1">
					<syllabic>middle</syllabic>
					<text>prei</text>
				</lyric>
				<lyric default-y="-115" number="3">
					<syllabic>middle</syllabic>
					<text>wei</text>
				</lyric>
			</note>
			<note>
				<pitch>
					<step>C</step>
					<octave>5</octave>
				</pitch>
				<duration>240</duration>
				<voice>1</voice>
				<type>eighth</type>
				<staff>1</staff>
				<notations>
					<slur number="1" type="stop"/>
				</notations>
			</note>
			<note>
				<pitch>
					<step>D</step>
					<octave>5</octave>
				</pitch>
				<duration>480</duration>
				<voice>1</voice>
				<type>quarter</type>
				<staff>1</staff>
				<notations>
					<fermata type="upright"/>
				</notations>
				<lyric default-y="-85" number="1">
					<syllabic>end</syllabic>
					<text>sen,</text>
				</lyric>
				<lyric default-y="-115" number="3">
					<syllabic>single</syllabic>
					<text>sen,</text>
				</lyric>
			</note>
			<note>
				<pitch>
					<step>E</step>
					<octave>5</octave>
				</pitch>
				<duration>480</duration>
				<voice>1</voice>
				<type>quarter</type>
				<staff>1</staff>
				<lyric default-y="-85" number="1">
					<syllabic>begin</syllabic>
					<text>Va</text>
				</lyric>
				<lyric default-y="-115" number="3">
					<syllabic>end</syllabic>
					<text>durch</text>
				</lyric>
			</note>
			<backup>
				<duration>1920</duration>
			</backup>
			<note>
				<pitch>
					<step>D</step>
					<octave>4</octave>
				</pitch>
				<duration>480</duration>
				<voice>2</voice>
				<type>quarter</type>
				<staff>2</staff>
				<notations>
					<slur number="1" placement="above" type="start"/>
				</notations>
				<lyric default-y="-85" number="1">
					<syllabic>begin</syllabic>
					<text>prei</text>
				</lyric>
				<lyric default-y="-115" number="3">
					<syllabic>middle</syllabic>
					<text>wei</text>
				</lyric>
			</note>
			<note>
				<pitch>
					<step>G</step>
					<octave>4</octave>
				</pitch>
				<duration>240</duration>
				<voice>2</voice>
				<type>eighth</type>
				<staff>2</staff>
				<beam number="1">begin</beam>
			</note>
			<note>
				<pitch>
					<step>F</step>
					<alter>1</alter>
					<octave>4</octave>
				</pitch>
				<duration>240</duration>
				<voice>2</voice>
				<type>eighth</type>
				<accidental>sharp</accidental>
				<staff>2</staff>
				<beam number="1">end</beam>
				<notations>
					<slur number="1" type="stop"/>
				</notations>
			</note>
			<note>
				<pitch>
					<step>G</step>
					<octave>4</octave>
				</pitch>
				<duration>480</duration>
				<voice>2</voice>
				<type>quarter</type>
				<staff>2</staff>
				<notations>
					<fermata type="upright"/>
				</notations>
				<lyric default-y="-85" number="1">
					<syllabic>end</syllabic>
					<text>sen,</text>
				</lyric>
				<lyric default-y="-115" number="3">
					<syllabic>single</syllabic>
					<text>sen,</text>
				</lyric>
			</note>
			<note>
				<pitch>
					<step>E</step>
					<octave>4</octave>
				</pitch>
				<duration>480</duration>
				<voice>2</voice>
				<type>quarter</type>
				<staff>2</staff>
				<lyric default-y="-85" number="1">
					<syllabic>begin</syllabic>
					<text>Va</text>
				</lyric>
				<lyric default-y="-115" number="3">
					<syllabic>end</syllabic>
					<text>durch</text>
				</lyric>
			</note>
			<backup>
				<duration>1920</duration>
			</backup>
			<note>
				<pitch>
					<step>G</step>
					<octave>3</octave>
				</pitch>
				<duration>240</duration>
				<voice>3</voice>
				<type>eighth</type>
				<staff>3</staff>
				<beam number="1">begin</beam>
				<lyric default-y="-85" number="1">
					<syllabic>single</syllabic>
					<text>prei</text>
				</lyric>
				<lyric default-y="-115" number="3">
					<syllabic>single</syllabic>
					<text>wei</text>
				</lyric>
			</note>
			<note>
				<pitch>
					<step>F</step>
					<alter>1</alter>
					<octave>3</octave>
				</pitch>
				<duration>240</duration>
				<voice>3</voice>
				<type>eighth</type>
				<accidental>sharp</accidental>
				<staff>3</staff>
				<beam number="1">end</beam>
			</note>
			<note>
				<pitch>
					<step>G</step>
					<octave>3</octave>
				</pitch>
				<duration>240</duration>
				<voice>3</voice>
				<type>eighth</type>
				<staff>3</staff>
				<beam number="1">begin</beam>
			</note>
			<note>
				<pitch>
					<step>A</step>
					<octave>3</octave>
				</pitch>
				<duration>240</duration>
				<voice>3</voice>
				<type>eighth</type>
				<staff>3</staff>
				<beam number="1">end</beam>
			</note>
			<note>
				<pitch>
					<step>B</step>
					<octave>3</octave>
				</pitch>
				<duration>480</duration>
				<voice>3</voice>
				<type>quarter</type>
				<staff>3</staff>
				<notations>
					<fermata type="upright"/>
				</notations>
				<lyric default-y="-85" number="1">
					<syllabic>single</syllabic>
					<text>sen,</text>
				</lyric>
				<lyric default-y="-115" number="3">
					<syllabic>single</syllabic>
					<text>sen,</text>
				</lyric>
			</note>
			<note>
				<pitch>
					<step>B</step>
					<octave>3</octave>
				</pitch>
				<duration>480</duration>
				<voice>3</voice>
				<type>quarter</type>
				<staff>3</staff>
				<lyric default-y="-85" number="1">
					<syllabic>begin</syllabic>
					<text>Va</text>
				</lyric>
				<lyric default-y="-115" number="3">
					<syllabic>end</syllabic>
					<text>durch</text>
				</lyric>
			</note>
			<backup>
				<duration>1920</duration>
			</backup>
			<note>
				<pitch>
					<step>G</step>
					<octave>3</octave>
				</pitch>
				<duration>960</duration>
				<voice>4</voice>
				<type>half</type>
				<staff>4</staff>
				<lyric default-y="-85" number="1">
					<syllabic>begin</syllabic>
					<text>prei</text>
				</lyric>
				<lyric default-y="-115" number="3">
					<syllabic>middle</syllabic>
					<text>wei</text>
				</lyric>
			</note>
			<note>
				<pitch>
					<step>G</step>
					<octave>2</octave>
				</pitch>
				<duration>480</duration>
				<voice>4</voice>
				<type>quarter</type>
				<staff>4</staff>
				<notations>
					<fermata type="upright"/>
				</notations>
				<lyric default-y="-85" number="1">
					<syllabic>end</syllabic>
					<text>sen,</text>
				</lyric>
				<lyric default-y="-115" number="3">
					<syllabic>single</syllabic>
					<text>sen,</text>
				</lyric>
			</note>
			<note>
				<pitch>
					<step>G</step>
					<alter>1</alter>
					<octave>3</octave>
				</pitch>
				<duration>480</duration>
				<voice>4</voice>
				<type>quarter</type>
				<accidental>sharp</accidental>
				<staff>4</staff>
				<lyric default-y="-85" number="1">
					<syllabic>begin</syllabic>
					<text>Va</text>
				</lyric>
				<lyric default-y="-115" number="3">
					<syllabic>end</syllabic>
					<text>durch</text>
				</lyric>
			</note>
		</measure>
		<measure number="3">
			<note>
				<pitch>
					<step>C</step>
					<octave>5</octave>
				</pitch>
				<duration>480</duration>
				<voice>1</voice>
				<type>quarter</type>
				<staff>1</staff>
				<lyric default-y="-85" number="1">
					<syllabic>single</syllabic>
					<text>ter</text>
				</lyric>
				<lyric default-y="-115" number="3">
					<syllabic>begin</syllabic>
					<text>Chri</text>
				</lyric>
			</note>
			<note>
				<pitch>
					<step>A</step>
					<octave>4</octave>
				</pitch>
				<duration>480</duration>
				<voice>1</voice>
				<type>quarter</type>
				<staff>1</staff>
				<lyric default-y="-85" number="1">
					<syllabic>end</syllabic>
					<text>in's</text>
				</lyric>
				<lyric default-y="-115" number="3">
					<syllabic>single</syllabic>
					<text>stum,</text>
				</lyric>
			</note>
			<note>
				<pitch>
					<step>B</step>
					<octave>4</octave>
				</pitch>
				<duration>480</duration>
				<voice>1</voice>
				<type>quarter</type>
				<staff>1</staff>
				<lyric default-y="-85" number="1">
					<syllabic>begin</syllabic>
					<text>Him</text>
				</lyric>
				<lyric default-y="-115" number="3">
					<syllabic>middle</syllabic>
					<text>dei</text>
				</lyric>
			</note>
			<note>
				<pitch>
					<step>B</step>
					<octave>4</octave>
				</pitch>
				<duration>480</duration>
				<voice>1</voice>
				<type>quarter</type>
				<staff>1</staff>
				<lyric default-y="-85" number="1">
					<syllabic>middle</syllabic>
					<text>mels</text>
				</lyric>
				<lyric default-y="-115" number="3">
					<syllabic>end</syllabic>
					<text>nen</text>
				</lyric>
			</note>
			<backup>
				<duration>1920</duration>
			</backup>
			<note>
				<pitch>
					<step>E</step>
					<octave>4</octave>
				</pitch>
				<duration>480</duration>
				<voice>2</voice>
				<type>quarter</type>
				<staff>2</staff>
				<lyric default-y="-85" number="1">
					<syllabic>single</syllabic>
					<text>ter</text>
				</lyric>
				<lyric default-y="-115" number="3">
					<syllabic>begin</syllabic>
					<text>Chri</text>
				</lyric>
			</note>
			<note>
				<pitch>
					<step>A</step>
					<octave>4</octave>
				</pitch>
				<duration>480</duration>
				<voice>2</voice>
				<type>quarter</type>
				<staff>2</staff>
				<lyric default-y="-85" number="1">
					<syllabic>end</syllabic>
					<text>in's</text>
				</lyric>
				<lyric default-y="-115" number="3">
					<syllabic>single</syllabic>
					<text>stum</text>
				</lyric>
			</note>
			<note>
				<pitch>
					<step>A</step>
					<octave>4</octave>
				</pitch>
				<duration>480</duration>
				<voice>2</voice>
				<type>quarter</type>
				<staff>2</staff>
				<lyric default-y="-85" number="1">
					<syllabic>begin</syllabic>
					<text>Him</text>
				</lyric>
				<lyric default-y="-115" number="3">
					<syllabic>middle</syllabic>
					<text>dei</text>
				</lyric>
			</note>
			<note>
				<pitch>
					<step>G</step>
					<alter>1</alter>
					<octave>4</octave>
				</pitch>
				<duration>480</duration>
				<voice>2</voice>
				<type>quarter</type>
				<accidental>sharp</accidental>
				<staff>2</staff>
				<lyric default-y="-85" number="1">
					<syllabic>middle</syllabic>
					<text>mels</text>
				</lyric>
				<lyric default-y="-115" number="3">
					<syllabic>end</syllabic>
					<text>nen</text>
				</lyric>
			</note>
			<backup>
				<duration>1920</duration>
			</backup>
			<note>
				<pitch>
					<step>A</step>
					<octave>3</octave>
				</pitch>
				<duration>240</duration>
				<voice>3</voice>
				<type>eighth</type>
				<staff>3</staff>
				<beam number="1">begin</beam>
				<lyric default-y="-85" number="1">
					<syllabic>single</syllabic>
					<text>ter</text>
				</lyric>
				<lyric default-y="-115" number="3">
					<syllabic>begin</syllabic>
					<text>Chri</text>
				</lyric>
			</note>
			<note>
				<pitch>
					<step>B</step>
					<octave>3</octave>
				</pitch>
				<duration>240</duration>
				<voice>3</voice>
				<type>eighth</type>
				<staff>3</staff>
				<beam number="1">end</beam>
			</note>
			<note>
				<pitch>
					<step>C</step>
					<octave>4</octave>
				</pitch>
				<duration>480</duration>
				<voice>3</voice>
				<type>quarter</type>
				<staff>3</staff>
				<lyric default-y="-85" number="1">
					<syllabic>end</syllabic>
					<text>in's</text>
				</lyric>
				<lyric default-y="-115" number="3">
					<syllabic>single</syllabic>
					<text>stum</text>
				</lyric>
			</note>
			<note>
				<pitch>
					<step>F</step>
					<octave>4</octave>
				</pitch>
				<duration>480</duration>
				<voice>3</voice>
				<type>quarter</type>
				<staff>3</staff>
				<lyric default-y="-85" number="1">
					<syllabic>begin</syllabic>
					<text>Him</text>
				</lyric>
				<lyric default-y="-115" number="3">
					<syllabic>middle</syllabic>
					<text>dei</text>
				</lyric>
			</note>
			<note>
				<pitch>
					<step>E</step>
					<octave>4</octave>
				</pitch>
				<duration>240</duration>
				<voice>3</voice>
				<type>eighth</type>
				<staff>3</staff>
				<beam number="1">begin</beam>
				<lyric default-y="-85" number="1">
					<syllabic>middle</syllabic>
					<text>mels</text>
				</lyric>
				<lyric default-y="-115" number="3">
					<syllabic>end</syllabic>
					<text>nen</text>
				</lyric>
			</note>
			<note>
				<pitch>
					<step>D</step>
					<octave>4</octave>
				</pitch>
				<duration>240</duration>
				<voice>3</voice>
				<type>eighth</type>
				<staff>3</staff>
				<beam number="1">end</beam>
			</note>
			<backup>
				<duration>1920</duration>
			</backup>
			<note>
				<pitch>
					<step>A</step>
					<octave>3</octave>
				</pitch>
				<duration>240</duration>
				<voice>4</voice>
				<type>eighth</type>
				<staff>4</staff>
				<beam number="1">begin</beam>
				<lyric default-y="-85" number="1">
					<syllabic>single</syllabic>
					<text>ter</text>
				</lyric>
				<lyric default-y="-115" number="3">
					<syllabic>begin</syllabic>
					<text>Chri</text>
				</lyric>
			</note>
			<note>
				<pitch>
					<step>G</step>
					<octave>3</octave>
				</pitch>
				<duration>240</duration>
				<voice>4</voice>
				<type>eighth</type>
				<staff>4</staff>
				<beam number="1">end</beam>
			</note>
			<note>
				<pitch>
					<step>F</step>
					<octave>3</octave>
				</pitch>
				<duration>240</duration>
				<voice>4</voice>
				<type>eighth</type>
				<staff>4</staff>
				<beam number="1">begin</beam>
				<lyric default-y="-85" number="1">
					<syllabic>end</syllabic>
					<text>in's</text>
				</lyric>
				<lyric default-y="-115" number="3">
					<syllabic>single</syllabic>
					<text>stum,</text>
				</lyric>
			</note>
			<note>
				<pitch>
					<step>E</step>
					<octave>3</octave>
				</pitch>
				<duration>240</duration>
				<voice>4</voice>
				<type>eighth</type>
				<staff>4</staff>
				<beam number="1">end</beam>
			</note>
			<note>
				<pitch>
					<step>D</step>
					<octave>3</octave>
				</pitch>
				<duration>480</duration>
				<voice>4</voice>
				<type>quarter</type>
				<staff>4</staff>
				<lyric default-y="-85" number="1">
					<syllabic>begin</syllabic>
					<text>Him</text>
				</lyric>
				<lyric default-y="-115" number="3">
					<syllabic>middle</syllabic>
					<text>dei</text>
				</lyric>
			</note>
			<note>
				<pitch>
					<step>E</step>
					<octave>3</octave>
				</pitch>
				<duration>480</duration>
				<voice>4</voice>
				<type>quarter</type>
				<staff>4</staff>
				<lyric default-y="-85" number="1">
					<syllabic>middle</syllabic>
					<text>mels</text>
				</lyric>
				<lyric default-y="-115" number="3">
					<syllabic>end</syllabic>
					<text>nen</text>
				</lyric>
			</note>
		</measure>
		<measure number="4">
			<note>
				<pitch>
					<step>A</step>
					<octave>4</octave>
				</pitch>
				<duration>1440</duration>
				<voice>1</voice>
				<type>half</type>
				<dot/>
				<staff>1</staff>
				<lyric default-y="-85" number="1">
					<syllabic>single</syllabic>
					<text>thron,</text>
				</lyric>
				<lyric default-y="-115" number="3">
					<syllabic>single</syllabic>
					<text>Sohn,</text>
				</lyric>
			</note>
			<backup>
				<duration>1440</duration>
			</backup>
			<note>
				<pitch>
					<step>E</step>
					<octave>4</octave>
				</pitch>
				<duration>1440</duration>
				<voice>2</voice>
				<type>half</type>
				<dot/>
				<staff>2</staff>
				<lyric default-y="-85" number="1">
					<syllabic>single</syllabic>
					<text>thron,</text>
				</lyric>
				<lyric default-y="-115" number="3">
					<syllabic>single</syllabic>
					<text>Sohn,</text>
				</lyric>
			</note>
			<backup>
				<duration>1440</duration>
			</backup>
			<note>
				<pitch>
					<step>C</step>
					<octave>4</octave>
				</pitch>
				<duration>1440</duration>
				<voice>3</voice>
				<type>half</type>
				<dot/>
				<staff>3</staff>
				<lyric default-y="-85" number="1">
					<syllabic>single</syllabic>
					<text>thron,</text>
				</lyric>
				<lyric default-y="-115" number="3">
					<syllabic>single</syllabic>
					<text>Sohn,</text>
				</lyric>
			</note>
			<backup>
				<duration>1440</duration>
			</backup>
			<note>
				<pitch>
					<step>A</step>
					<octave>3</octave>
				</pitch>
				<duration>1440</duration>
				<voice>4</voice>
				<type>half</type>
				<dot/>
				<staff>4</staff>
				<lyric default-y="-85" number="1">
					<syllabic>single</syllabic>
					<text>thron,</text>
				</lyric>
				<lyric default-y="-115" number="3">
					<syllabic>single</syllabic>
					<text>Sohn,</text>
				</lyric>
			</note>
			<barline>
				<bar-style>light-heavy</bar-style>
				<repeat direction="backward"/>
			</barline>
		</measure>
		<measure number="5">
			<note>
				<pitch>
					<step>E</step>
					<octave>5</octave>
				</pitch>
				<duration>480</duration>
				<voice>1</voice>
				<type>quarter</type>
				<staff>1</staff>
				<lyric default-y="-100" number="2">
					<syllabic>single</syllabic>
					<text>und</text>
				</lyric>
			</note>
			<backup>
				<duration>480</duration>
			</backup>
			<direction placement="above">
				<direction-type>
					<words relative-x="-5" default-y="23" font-family="Times New Roman" font-size="8">Ob. Viol. Tromb.</words>
				</direction-type>
				<staff>2</staff>
			</direction>
			<note>
				<pitch>
					<step>A</step>
					<octave>4</octave>
				</pitch>
				<duration>480</duration>
				<voice>2</voice>
				<type>quarter</type>
				<staff>2</staff>
				<lyric default-y="-100" number="2">
					<syllabic>single</syllabic>
					<text>und</text>
				</lyric>
			</note>
			<backup>
				<duration>480</duration>
			</backup>
			<direction placement="above">
				<direction-type>
					<words relative-x="-10" default-y="18" font-family="Times New Roman" font-size="8">Taille, Viola, Tromb. II.</words>
				</direction-type>
				<staff>3</staff>
			</direction>
			<note>
				<pitch>
					<step>C</step>
					<octave>4</octave>
				</pitch>
				<duration>480</duration>
				<voice>3</voice>
				<type>quarter</type>
				<staff>3</staff>
				<lyric default-y="-100" number="2">
					<syllabic>single</syllabic>
					<text>und</text>
				</lyric>
			</note>
			<backup>
				<duration>480</duration>
			</backup>
			<note>
				<pitch>
					<step>A</step>
					<octave>2</octave>
				</pitch>
				<duration>480</duration>
				<voice>4</voice>
				<type>quarter</type>
				<staff>4</staff>
				<lyric default-y="-100" number="2">
					<syllabic>single</syllabic>
					<text>und</text>
				</lyric>
			</note>
			<barline>
				<bar-style>regular</bar-style>
			</barline>
		</measure>
		<measure number="6">
			<note>
				<pitch>
					<step>D</step>
					<octave>5</octave>
				</pitch>
				<duration>480</duration>
				<voice>1</voice>
				<type>quarter</type>
				<staff>1</staff>
				<lyric default-y="-100" number="2">
					<syllabic>begin</syllabic>
					<text>bit</text>
				</lyric>
			</note>
			<note>
				<pitch>
					<step>C</step>
					<octave>5</octave>
				</pitch>
				<duration>480</duration>
				<voice>1</voice>
				<type>quarter</type>
				<staff>1</staff>
				<lyric default-y="-100" number="2">
					<syllabic>end</syllabic>
					<text>ten</text>
				</lyric>
			</note>
			<note>
				<pitch>
					<step>B</step>
					<octave>4</octave>
				</pitch>
				<duration>480</duration>
				<voice>1</voice>
				<type>quarter</type>
				<staff>1</staff>
				<lyric default-y="-100" number="2">
					<syllabic>begin</syllabic>
					<text>fer</text>
				</lyric>
			</note>
			<note>
				<pitch>
					<step>A</step>
					<octave>4</octave>
				</pitch>
				<duration>480</duration>
				<voice>1</voice>
				<type>quarter</type>
				<staff>1</staff>
				<lyric default-y="-100" number="2">
					<syllabic>end</syllabic>
					<text>ner</text>
				</lyric>
			</note>
			<backup>
				<duration>1920</duration>
			</backup>
			<note>
				<pitch>
					<step>A</step>
					<octave>4</octave>
				</pitch>
				<duration>240</duration>
				<voice>2</voice>
				<type>eighth</type>
				<staff>2</staff>
				<beam number="1">begin</beam>
				<lyric default-y="-100" number="2">
					<syllabic>single</syllabic>
					<text>bit</text>
				</lyric>
			</note>
			<note>
				<pitch>
					<step>G</step>
					<alter>1</alter>
					<octave>4</octave>
				</pitch>
				<duration>240</duration>
				<voice>2</voice>
				<type>eighth</type>
				<accidental>sharp</accidental>
				<staff>2</staff>
				<beam number="1">end</beam>
			</note>
			<note>
				<pitch>
					<step>A</step>
					<octave>4</octave>
				</pitch>
				<duration>480</duration>
				<tie type="start"/>
				<voice>2</voice>
				<type>quarter</type>
				<staff>2</staff>
				<notations>
					<tied type="start"/>
				</notations>
				<lyric default-y="-100" number="2">
					<syllabic>single</syllabic>
					<text>ten</text>
				</lyric>
			</note>
			<note>
				<pitch>
					<step>A</step>
					<octave>4</octave>
				</pitch>
				<duration>240</duration>
				<tie type="stop"/>
				<voice>2</voice>
				<type>eighth</type>
				<staff>2</staff>
				<beam number="1">begin</beam>
				<notations>
					<tied type="stop"/>
				</notations>
				<lyric default-y="-100" number="2">
					<syllabic>begin</syllabic>
					<text>fer</text>
				</lyric>
			</note>
			<note>
				<pitch>
					<step>G</step>
					<alter>1</alter>
					<octave>4</octave>
				</pitch>
				<duration>240</duration>
				<voice>2</voice>
				<type>eighth</type>
				<staff>2</staff>
				<beam number="1">end</beam>
			</note>
			<note>
				<pitch>
					<step>A</step>
					<octave>4</octave>
				</pitch>
				<duration>240</duration>
				<voice>2</voice>
				<type>eighth</type>
				<staff>2</staff>
				<beam number="1">begin</beam>
				<lyric default-y="-100" number="2">
					<syllabic>end</syllabic>
					<text>ner</text>
				</lyric>
			</note>
			<note>
				<pitch>
					<step>A</step>
					<octave>3</octave>
				</pitch>
				<duration>240</duration>
				<voice>2</voice>
				<type>eighth</type>
				<staff>2</staff>
				<beam number="1">end</beam>
			</note>
			<backup>
				<duration>1920</duration>
			</backup>
			<note>
				<pitch>
					<step>D</step>
					<octave>4</octave>
				</pitch>
				<duration>480</duration>
				<voice>3</voice>
				<type>quarter</type>
				<staff>3</staff>
				<lyric default-y="-100" number="2">
					<syllabic>begin</syllabic>
					<text>bit</text>
				</lyric>
			</note>
			<note>
				<pitch>
					<step>E</step>
					<octave>4</octave>
				</pitch>
				<duration>480</duration>
				<voice>3</voice>
				<type>quarter</type>
				<staff>3</staff>
				<lyric default-y="-100" number="2">
					<syllabic>end</syllabic>
					<text>ten</text>
				</lyric>
			</note>
			<note>
				<pitch>
					<step>F</step>
					<octave>4</octave>
				</pitch>
				<duration>240</duration>
				<voice>3</voice>
				<type>eighth</type>
				<staff>3</staff>
				<beam number="1">begin</beam>
				<lyric default-y="-100" number="2">
					<syllabic>single</syllabic>
					<text>fer</text>
				</lyric>
			</note>
			<note>
				<pitch>
					<step>E</step>
					<octave>4</octave>
				</pitch>
				<duration>240</duration>
				<tie type="start"/>
				<voice>3</voice>
				<type>eighth</type>
				<staff>3</staff>
				<beam number="1">end</beam>
				<notations>
					<tied type="start"/>
				</notations>
			</note>
			<note>
				<pitch>
					<step>E</step>
					<octave>4</octave>
				</pitch>
				<duration>240</duration>
				<tie type="stop"/>
				<voice>3</voice>
				<type>eighth</type>
				<staff>3</staff>
				<beam number="1">begin</beam>
				<notations>
					<tied type="stop"/>
				</notations>
				<lyric default-y="-100" number="2">
					<syllabic>single</syllabic>
					<text>ner</text>
				</lyric>
			</note>
			<note>
				<pitch>
					<step>D</step>
					<octave>4</octave>
				</pitch>
				<duration>240</duration>
				<voice>3</voice>
				<type>eighth</type>
				<staff>3</staff>
				<beam number="1">end</beam>
			</note>
			<backup>
				<duration>1920</duration>
			</backup>
			<note>
				<pitch>
					<step>B</step>
					<octave>2</octave>
				</pitch>
				<duration>480</duration>
				<voice>4</voice>
				<type>quarter</type>
				<staff>4</staff>
				<lyric default-y="-100" number="2">
					<syllabic>begin</syllabic>
					<text>bit</text>
				</lyric>
			</note>
			<note>
				<pitch>
					<step>C</step>
					<octave>3</octave>
				</pitch>
				<duration>480</duration>
				<voice>4</voice>
				<type>quarter</type>
				<staff>4</staff>
				<lyric default-y="-100" number="2">
					<syllabic>end</syllabic>
					<text>ten</text>
				</lyric>
			</note>
			<note>
				<pitch>
					<step>D</step>
					<octave>3</octave>
				</pitch>
				<duration>240</duration>
				<voice>4</voice>
				<type>eighth</type>
				<staff>4</staff>
				<beam number="1">begin</beam>
				<lyric default-y="-100" number="2">
					<syllabic>single</syllabic>
					<text>fer</text>
				</lyric>
			</note>
			<note>
				<pitch>
					<step>E</step>
					<octave>3</octave>
				</pitch>
				<duration>240</duration>
				<voice>4</voice>
				<type>eighth</type>
				<staff>4</staff>
				<beam number="1">end</beam>
			</note>
			<note>
				<pitch>
					<step>F</step>
					<octave>3</octave>
				</pitch>
				<duration>480</duration>
				<voice>4</voice>
				<type>quarter</type>
				<staff>4</staff>
				<lyric default-y="-100" number="2">
					<syllabic>single</syllabic>
					<text>ner</text>
				</lyric>
			</note>
		</measure>
		<measure number="7">
			<print new-system="yes">
				<system-layout>
					<system-margins>
						<left-margin>0</left-margin>
						<right-margin>0</right-margin>
					</system-margins>
					<system-distance>200</system-distance>
				</system-layout>
				<staff-layout number="1">
					<staff-distance>100</staff-distance>
				</staff-layout>
				<staff-layout number="2">
					<staff-distance>120</staff-distance>
				</staff-layout>
				<staff-layout number="3">
					<staff-distance>120</staff-distance>
				</staff-layout>
				<staff-layout number="4">
					<staff-distance>110</staff-distance>
				</staff-layout>
			</print>
			<attributes>
				<time symbol="common">
					<beats>4</beats>
					<beat-type>4</beat-type>
				</time>
				<staves>4</staves>
			</attributes>
			<note>
				<pitch>
					<step>B</step>
					<octave>4</octave>
				</pitch>
				<duration>1440</duration>
				<voice>1</voice>
				<type>half</type>
				<dot/>
				<staff>1</staff>
				<lyric default-y="-95" number="1">
					<syllabic>single</syllabic>
					<text>dich:</text>
				</lyric>
			</note>
			<note>
				<pitch>
					<step>B</step>
					<octave>4</octave>
				</pitch>
				<duration>480</duration>
				<voice>1</voice>
				<type>quarter</type>
				<staff>1</staff>
				<lyric default-y="-95" number="1">
					<syllabic>single</syllabic>
					<text>gieb</text>
				</lyric>
			</note>
			<backup>
				<duration>1920</duration>
			</backup>
			<note>
				<pitch>
					<step>E</step>
					<octave>4</octave>
				</pitch>
				<duration>1440</duration>
				<voice>2</voice>
				<type>half</type>
				<dot/>
				<staff>2</staff>
				<lyric default-y="-95" number="1">
					<syllabic>single</syllabic>
					<text>dich:</text>
				</lyric>
			</note>
			<note>
				<pitch>
					<step>G</step>
					<alter>1</alter>
					<octave>4</octave>
				</pitch>
				<duration>480</duration>
				<voice>2</voice>
				<type>quarter</type>
				<accidental>sharp</accidental>
				<staff>2</staff>
				<lyric default-y="-95" number="1">
					<syllabic>single</syllabic>
					<text>gieb</text>
				</lyric>
			</note>
			<backup>
				<duration>1920</duration>
			</backup>
			<note>
				<pitch>
					<step>G</step>
					<alter>1</alter>
					<octave>3</octave>
				</pitch>
				<duration>1440</duration>
				<voice>3</voice>
				<type>half</type>
				<dot/>
				<accidental>sharp</accidental>
				<staff>3</staff>
				<lyric default-y="-95" number="1">
					<syllabic>single</syllabic>
					<text>dich:</text>
				</lyric>
			</note>
			<note>
				<pitch>
					<step>E</step>
					<octave>4</octave>
				</pitch>
				<duration>480</duration>
				<voice>3</voice>
				<type>quarter</type>
				<staff>3</staff>
				<lyric default-y="-95" number="1">
					<syllabic>single</syllabic>
					<text>gieb</text>
				</lyric>
			</note>
			<backup>
				<duration>1920</duration>
			</backup>
			<note>
				<pitch>
					<step>E</step>
					<octave>3</octave>
				</pitch>
				<duration>1440</duration>
				<voice>4</voice>
				<type>half</type>
				<dot/>
				<staff>4</staff>
				<lyric default-y="-95" number="1">
					<syllabic>single</syllabic>
					<text>dich:</text>
				</lyric>
			</note>
			<note>
				<pitch>
					<step>E</step>
					<octave>3</octave>
				</pitch>
				<duration>480</duration>
				<voice>4</voice>
				<type>quarter</type>
				<staff>4</staff>
				<lyric default-y="-95" number="1">
					<syllabic>single</syllabic>
					<text>gieb</text>
				</lyric>
			</note>
		</measure>
		<measure number="8">
			<note>
				<pitch>
					<step>C</step>
					<octave>5</octave>
				</pitch>
				<duration>480</duration>
				<voice>1</voice>
				<type>quarter</type>
				<staff>1</staff>
				<lyric default-y="-95" number="1">
					<syllabic>single</syllabic>
					<text>uns</text>
				</lyric>
			</note>
			<note>
				<pitch>
					<step>D</step>
					<octave>5</octave>
				</pitch>
				<duration>480</duration>
				<voice>1</voice>
				<type>quarter</type>
				<staff>1</staff>
				<lyric default-y="-95" number="1">
					<syllabic>single</syllabic>
					<text>ein</text>
				</lyric>
			</note>
			<note>
				<pitch>
					<step>E</step>
					<octave>5</octave>
				</pitch>
				<duration>480</duration>
				<voice>1</voice>
				<type>quarter</type>
				<staff>1</staff>
				<lyric default-y="-95" number="1">
					<syllabic>begin</syllabic>
					<text>fried</text>
				</lyric>
			</note>
			<note>
				<pitch>
					<step>C</step>
					<octave>5</octave>
				</pitch>
				<duration>480</duration>
				<voice>1</voice>
				<type>quarter</type>
				<staff>1</staff>
				<lyric default-y="-95" number="1">
					<syllabic>end</syllabic>
					<text>lich's</text>
				</lyric>
			</note>
			<backup>
				<duration>1920</duration>
			</backup>
			<note>
				<pitch>
					<step>A</step>
					<octave>4</octave>
				</pitch>
				<duration>480</duration>
				<voice>2</voice>
				<type>quarter</type>
				<staff>2</staff>
				<lyric default-y="-95" number="1">
					<syllabic>single</syllabic>
					<text>uns</text>
				</lyric>
			</note>
			<note>
				<pitch>
					<step>G</step>
					<octave>4</octave>
				</pitch>
				<duration>480</duration>
				<voice>2</voice>
				<type>quarter</type>
				<staff>2</staff>
				<lyric default-y="-95" number="1">
					<syllabic>single</syllabic>
					<text>ein</text>
				</lyric>
			</note>
			<note>
				<pitch>
					<step>G</step>
					<octave>4</octave>
				</pitch>
				<duration>480</duration>
				<voice>2</voice>
				<type>quarter</type>
				<staff>2</staff>
				<lyric default-y="-95" number="1">
					<syllabic>begin</syllabic>
					<text>fried</text>
				</lyric>
			</note>
			<note>
				<pitch>
					<step>A</step>
					<octave>4</octave>
				</pitch>
				<duration>480</duration>
				<voice>2</voice>
				<type>quarter</type>
				<staff>2</staff>
				<lyric default-y="-95" number="1">
					<syllabic>end</syllabic>
					<text>lich's</text>
				</lyric>
			</note>
			<backup>
				<duration>1920</duration>
			</backup>
			<note>
				<pitch>
					<step>E</step>
					<octave>4</octave>
				</pitch>
				<duration>480</duration>
				<voice>3</voice>
				<type>quarter</type>
				<staff>3</staff>
				<lyric default-y="-95" number="1">
					<syllabic>single</syllabic>
					<text>uns</text>
				</lyric>
			</note>
			<note>
				<pitch>
					<step>D</step>
					<octave>4</octave>
				</pitch>
				<duration>480</duration>
				<voice>3</voice>
				<type>quarter</type>
				<staff>3</staff>
				<lyric default-y="-95" number="1">
					<syllabic>single</syllabic>
					<text>ein</text>
				</lyric>
			</note>
			<note>
				<pitch>
					<step>C</step>
					<octave>4</octave>
				</pitch>
				<duration>240</duration>
				<voice>3</voice>
				<type>eighth</type>
				<staff>3</staff>
				<beam number="1">begin</beam>
				<lyric default-y="-95" number="1">
					<syllabic>begin</syllabic>
					<text>fried</text>
				</lyric>
			</note>
			<note>
				<pitch>
					<step>D</step>
					<octave>4</octave>
				</pitch>
				<duration>240</duration>
				<voice>3</voice>
				<type>eighth</type>
				<staff>3</staff>
				<beam number="1">end</beam>
			</note>
			<note>
				<pitch>
					<step>E</step>
					<octave>4</octave>
				</pitch>
				<duration>480</duration>
				<voice>3</voice>
				<type>quarter</type>
				<staff>3</staff>
				<lyric default-y="-95" number="1">
					<syllabic>end</syllabic>
					<text>lich's</text>
				</lyric>
			</note>
			<backup>
				<duration>1920</duration>
			</backup>
			<note>
				<pitch>
					<step>A</step>
					<octave>3</octave>
				</pitch>
				<duration>480</duration>
				<voice>4</voice>
				<type>quarter</type>
				<staff>4</staff>
				<lyric default-y="-95" number="1">
					<syllabic>single</syllabic>
					<text>uns</text>
				</lyric>
			</note>
			<note>
				<pitch>
					<step>B</step>
					<octave>3</octave>
				</pitch>
				<duration>480</duration>
				<voice>4</voice>
				<type>quarter</type>
				<staff>4</staff>
				<lyric default-y="-95" number="1">
					<syllabic>single</syllabic>
					<text>ein</text>
				</lyric>
			</note>
			<note>
				<pitch>
					<step>C</step>
					<octave>4</octave>
				</pitch>
				<duration>240</duration>
				<voice>4</voice>
				<type>eighth</type>
				<staff>4</staff>
				<beam number="1">begin</beam>
				<lyric default-y="-95" number="1">
					<syllabic>begin</syllabic>
					<text>fried</text>
				</lyric>
			</note>
			<note>
				<pitch>
					<step>B</step>
					<octave>3</octave>
				</pitch>
				<duration>240</duration>
				<voice>4</voice>
				<type>eighth</type>
				<staff>4</staff>
				<beam number="1">end</beam>
			</note>
			<note>
				<pitch>
					<step>A</step>
					<octave>3</octave>
				</pitch>
				<duration>240</duration>
				<voice>4</voice>
				<type>eighth</type>
				<staff>4</staff>
				<beam number="1">begin</beam>
				<lyric default-y="-95" number="1">
					<syllabic>end</syllabic>
					<text>lich's</text>
				</lyric>
			</note>
			<note>
				<pitch>
					<step>G</step>
					<octave>3</octave>
				</pitch>
				<duration>240</duration>
				<voice>4</voice>
				<type>eighth</type>
				<staff>4</staff>
				<beam number="1">end</beam>
			</note>
		</measure>
		<measure number="9">
			<note>
				<pitch>
					<step>D</step>
					<octave>5</octave>
				</pitch>
				<duration>720</duration>
				<voice>1</voice>
				<type>quarter</type>
				<dot/>
				<staff>1</staff>
				<notations>
					<slur number="1" placement="above" type="start"/>
				</notations>
				<lyric default-y="-95" number="1">
					<syllabic>begin</syllabic>
					<text>Jah</text>
				</lyric>
			</note>
			<note>
				<pitch>
					<step>C</step>
					<octave>5</octave>
				</pitch>
				<duration>240</duration>
				<voice>1</voice>
				<type>eighth</type>
				<staff>1</staff>
				<notations>
					<slur number="1" type="stop"/>
				</notations>
			</note>
			<note>
				<pitch>
					<step>B</step>
					<octave>4</octave>
				</pitch>
				<duration>480</duration>
				<voice>1</voice>
				<type>quarter</type>
				<staff>1</staff>
				<notations>
					<fermata type="upright"/>
				</notations>
				<lyric default-y="-95" number="1">
					<syllabic>end</syllabic>
					<text>re,</text>
				</lyric>
			</note>
			<note>
				<pitch>
					<step>B</step>
					<octave>4</octave>
				</pitch>
				<duration>480</duration>
				<voice>1</voice>
				<type>quarter</type>
				<staff>1</staff>
				<lyric default-y="-95" number="1">
					<syllabic>single</syllabic>
					<text>f端r</text>
				</lyric>
			</note>
			<backup>
				<duration>1920</duration>
			</backup>
			<note>
				<pitch>
					<step>A</step>
					<octave>4</octave>
				</pitch>
				<duration>480</duration>
				<voice>2</voice>
				<type>quarter</type>
				<staff>2</staff>
				<notations>
					<slur number="1" placement="above" type="start"/>
				</notations>
				<lyric default-y="-95" number="1">
					<syllabic>begin</syllabic>
					<text>Jah</text>
				</lyric>
			</note>
			<note>
				<pitch>
					<step>G</step>
					<octave>4</octave>
				</pitch>
				<duration>240</duration>
				<voice>2</voice>
				<type>eighth</type>
				<staff>2</staff>
				<beam number="1">begin</beam>
			</note>
			<note>
				<pitch>
					<step>F</step>
					<alter>1</alter>
					<octave>4</octave>
				</pitch>
				<duration>240</duration>
				<voice>2</voice>
				<type>eighth</type>
				<accidental>sharp</accidental>
				<staff>2</staff>
				<beam number="1">end</beam>
				<notations>
					<slur number="1" type="stop"/>
				</notations>
			</note>
			<note>
				<pitch>
					<step>G</step>
					<octave>4</octave>
				</pitch>
				<duration>480</duration>
				<voice>2</voice>
				<type>quarter</type>
				<staff>2</staff>
				<notations>
					<fermata type="upright"/>
				</notations>
				<lyric default-y="-95" number="1">
					<syllabic>end</syllabic>
					<text>re,</text>
				</lyric>
			</note>
			<note>
				<pitch>
					<step>G</step>
					<octave>4</octave>
				</pitch>
				<duration>480</duration>
				<voice>2</voice>
				<type>quarter</type>
				<staff>2</staff>
				<lyric default-y="-95" number="1">
					<syllabic>single</syllabic>
					<text>f端r</text>
				</lyric>
			</note>
			<backup>
				<duration>1920</duration>
			</backup>
			<note>
				<pitch>
					<step>A</step>
					<octave>3</octave>
				</pitch>
				<duration>480</duration>
				<voice>3</voice>
				<type>quarter</type>
				<staff>3</staff>
				<notations>
					<slur number="1" placement="above" type="start"/>
				</notations>
				<lyric default-y="-95" number="1">
					<syllabic>begin</syllabic>
					<text>Ja</text>
				</lyric>
			</note>
			<note>
				<pitch>
					<step>D</step>
					<octave>4</octave>
				</pitch>
				<duration>480</duration>
				<voice>3</voice>
				<type>quarter</type>
				<staff>3</staff>
				<notations>
					<slur number="1" type="stop"/>
				</notations>
			</note>
			<note>
				<pitch>
					<step>D</step>
					<octave>4</octave>
				</pitch>
				<duration>480</duration>
				<voice>3</voice>
				<type>quarter</type>
				<staff>3</staff>
				<notations>
					<fermata type="upright"/>
				</notations>
				<lyric default-y="-95" number="1">
					<syllabic>end</syllabic>
					<text>re,</text>
				</lyric>
			</note>
			<note>
				<pitch>
					<step>D</step>
					<octave>4</octave>
				</pitch>
				<duration>480</duration>
				<voice>3</voice>
				<type>quarter</type>
				<staff>3</staff>
				<lyric default-y="-95" number="1">
					<syllabic>single</syllabic>
					<text>f端r</text>
				</lyric>
			</note>
			<backup>
				<duration>1920</duration>
			</backup>
			<note>
				<pitch>
					<step>F</step>
					<alter>1</alter>
					<octave>3</octave>
				</pitch>
				<duration>240</duration>
				<voice>4</voice>
				<type>eighth</type>
				<accidental>sharp</accidental>
				<staff>4</staff>
				<beam number="1">begin</beam>
				<notations>
					<slur number="1" placement="above" type="start"/>
				</notations>
				<lyric default-y="-95" number="1">
					<syllabic>single</syllabic>
					<text>Jah</text>
				</lyric>
			</note>
			<note>
				<pitch>
					<step>E</step>
					<octave>3</octave>
				</pitch>
				<duration>240</duration>
				<voice>4</voice>
				<type>eighth</type>
				<staff>4</staff>
				<beam number="1">end</beam>
			</note>
			<note>
				<pitch>
					<step>D</step>
					<octave>3</octave>
				</pitch>
				<duration>480</duration>
				<voice>4</voice>
				<type>quarter</type>
				<staff>4</staff>
				<notations>
					<slur number="1" type="stop"/>
				</notations>
			</note>
			<note>
				<pitch>
					<step>G</step>
					<octave>3</octave>
				</pitch>
				<duration>480</duration>
				<voice>4</voice>
				<type>quarter</type>
				<staff>4</staff>
				<notations>
					<fermata type="upright"/>
				</notations>
				<lyric default-y="-95" number="1">
					<syllabic>single</syllabic>
					<text>re,</text>
				</lyric>
			</note>
			<note>
				<pitch>
					<step>F</step>
					<octave>3</octave>
				</pitch>
				<duration>480</duration>
				<voice>4</voice>
				<type>quarter</type>
				<accidental>natural</accidental>
				<staff>4</staff>
				<lyric default-y="-95" number="1">
					<syllabic>single</syllabic>
					<text>f端r</text>
				</lyric>
			</note>
		</measure>
		<measure number="10">
			<note>
				<pitch>
					<step>C</step>
					<octave>5</octave>
				</pitch>
				<duration>480</duration>
				<voice>1</voice>
				<type>quarter</type>
				<staff>1</staff>
				<lyric default-y="-95" number="1">
					<syllabic>begin</syllabic>
					<text>al</text>
				</lyric>
			</note>
			<note>
				<pitch>
					<step>D</step>
					<octave>5</octave>
				</pitch>
				<duration>480</duration>
				<voice>1</voice>
				<type>quarter</type>
				<staff>1</staff>
				<lyric default-y="-95" number="1">
					<syllabic>end</syllabic>
					<text>lem</text>
				</lyric>
			</note>
			<note>
				<pitch>
					<step>E</step>
					<octave>5</octave>
				</pitch>
				<duration>480</duration>
				<voice>1</voice>
				<type>quarter</type>
				<staff>1</staff>
				<lyric default-y="-95" number="1">
					<syllabic>single</syllabic>
					<text>Leid</text>
				</lyric>
			</note>
			<note>
				<pitch>
					<step>C</step>
					<octave>5</octave>
				</pitch>
				<duration>480</duration>
				<voice>1</voice>
				<type>quarter</type>
				<staff>1</staff>
				<lyric default-y="-95" number="1">
					<syllabic>begin</syllabic>
					<text>be</text>
				</lyric>
			</note>
			<backup>
				<duration>1920</duration>
			</backup>
			<note>
				<pitch>
					<step>G</step>
					<octave>4</octave>
				</pitch>
				<duration>480</duration>
				<voice>2</voice>
				<type>quarter</type>
				<staff>2</staff>
				<lyric default-y="-95" number="1">
					<syllabic>middle</syllabic>
					<text>al</text>
				</lyric>
			</note>
			<note>
				<pitch>
					<step>F</step>
					<octave>4</octave>
				</pitch>
				<duration>480</duration>
				<voice>2</voice>
				<type>quarter</type>
				<staff>2</staff>
				<lyric default-y="-95" number="1">
					<syllabic>end</syllabic>
					<text>lem</text>
				</lyric>
			</note>
			<note>
				<pitch>
					<step>E</step>
					<octave>4</octave>
				</pitch>
				<duration>480</duration>
				<voice>2</voice>
				<type>quarter</type>
				<staff>2</staff>
				<lyric default-y="-95" number="1">
					<syllabic>single</syllabic>
					<text>Leid</text>
				</lyric>
			</note>
			<note>
				<pitch>
					<step>A</step>
					<octave>4</octave>
				</pitch>
				<duration>480</duration>
				<voice>2</voice>
				<type>quarter</type>
				<staff>2</staff>
				<lyric default-y="-95" number="1">
					<syllabic>begin</syllabic>
					<text>be</text>
				</lyric>
			</note>
			<backup>
				<duration>1920</duration>
			</backup>
			<note>
				<pitch>
					<step>G</step>
					<octave>3</octave>
				</pitch>
				<duration>480</duration>
				<voice>3</voice>
				<type>quarter</type>
				<staff>3</staff>
				<lyric default-y="-95" number="1">
					<syllabic>middle</syllabic>
					<text>al</text>
				</lyric>
			</note>
			<note>
				<pitch>
					<step>A</step>
					<octave>3</octave>
				</pitch>
				<duration>240</duration>
				<voice>3</voice>
				<type>eighth</type>
				<staff>3</staff>
				<beam number="1">begin</beam>
				<lyric default-y="-95" number="1">
					<syllabic>end</syllabic>
					<text>lem</text>
				</lyric>
			</note>
			<note>
				<pitch>
					<step>B</step>
					<octave>3</octave>
				</pitch>
				<duration>240</duration>
				<voice>3</voice>
				<type>eighth</type>
				<staff>3</staff>
				<beam number="1">end</beam>
			</note>
			<note>
				<pitch>
					<step>C</step>
					<octave>4</octave>
				</pitch>
				<duration>240</duration>
				<voice>3</voice>
				<type>eighth</type>
				<staff>3</staff>
				<beam number="1">begin</beam>
				<lyric default-y="-95" number="1">
					<syllabic>single</syllabic>
					<text>Leid</text>
				</lyric>
			</note>
			<note>
				<pitch>
					<step>D</step>
					<octave>4</octave>
				</pitch>
				<duration>240</duration>
				<voice>3</voice>
				<type>eighth</type>
				<staff>3</staff>
				<beam number="1">end</beam>
			</note>
			<note>
				<pitch>
					<step>E</step>
					<octave>4</octave>
				</pitch>
				<duration>480</duration>
				<voice>3</voice>
				<type>quarter</type>
				<staff>3</staff>
				<lyric default-y="-95" number="1">
					<syllabic>begin</syllabic>
					<text>be</text>
				</lyric>
			</note>
			<backup>
				<duration>1920</duration>
			</backup>
			<note>
				<pitch>
					<step>E</step>
					<octave>3</octave>
				</pitch>
				<duration>480</duration>
				<voice>4</voice>
				<type>quarter</type>
				<staff>4</staff>
				<lyric default-y="-95" number="1">
					<syllabic>middle</syllabic>
					<text>al</text>
				</lyric>
			</note>
			<note>
				<pitch>
					<step>D</step>
					<octave>3</octave>
				</pitch>
				<duration>480</duration>
				<voice>4</voice>
				<type>quarter</type>
				<staff>4</staff>
				<lyric default-y="-95" number="1">
					<syllabic>end</syllabic>
					<text>lem</text>
				</lyric>
			</note>
			<note>
				<pitch>
					<step>C</step>
					<octave>3</octave>
				</pitch>
				<duration>480</duration>
				<voice>4</voice>
				<type>quarter</type>
				<staff>4</staff>
				<lyric default-y="-95" number="1">
					<syllabic>single</syllabic>
					<text>Leid</text>
				</lyric>
			</note>
			<note>
				<pitch>
					<step>B</step>
					<octave>2</octave>
				</pitch>
				<duration>240</duration>
				<voice>4</voice>
				<type>eighth</type>
				<staff>4</staff>
				<beam number="1">begin</beam>
				<lyric default-y="-95" number="1">
					<syllabic>begin</syllabic>
					<text>be</text>
				</lyric>
			</note>
			<note>
				<pitch>
					<step>A</step>
					<octave>2</octave>
				</pitch>
				<duration>240</duration>
				<voice>4</voice>
				<type>eighth</type>
				<staff>4</staff>
				<beam number="1">end</beam>
			</note>
		</measure>
		<measure number="11">
			<note>
				<pitch>
					<step>D</step>
					<octave>5</octave>
				</pitch>
				<duration>720</duration>
				<voice>1</voice>
				<type>quarter</type>
				<dot/>
				<staff>1</staff>
				<notations>
					<slur number="1" placement="above" type="start"/>
				</notations>
				<lyric default-y="-95" number="1">
					<syllabic>middle</syllabic>
					<text>wah</text>
				</lyric>
			</note>
			<note>
				<pitch>
					<step>C</step>
					<octave>5</octave>
				</pitch>
				<duration>240</duration>
				<voice>1</voice>
				<type>eighth</type>
				<staff>1</staff>
				<notations>
					<slur number="1" type="stop"/>
				</notations>
			</note>
			<note>
				<pitch>
					<step>B</step>
					<octave>4</octave>
				</pitch>
				<duration>480</duration>
				<voice>1</voice>
				<type>quarter</type>
				<staff>1</staff>
				<notations>
					<fermata type="upright"/>
				</notations>
				<lyric default-y="-95" number="1">
					<syllabic>end</syllabic>
					<text>re</text>
				</lyric>
			</note>
			<note>
				<pitch>
					<step>E</step>
					<octave>5</octave>
				</pitch>
				<duration>480</duration>
				<voice>1</voice>
				<type>quarter</type>
				<staff>1</staff>
				<lyric default-y="-95" number="1">
					<syllabic>single</syllabic>
					<text>und</text>
				</lyric>
			</note>
			<backup>
				<duration>1920</duration>
			</backup>
			<note>
				<pitch>
					<step>A</step>
					<octave>4</octave>
				</pitch>
				<duration>240</duration>
				<voice>2</voice>
				<type>eighth</type>
				<staff>2</staff>
				<beam number="1">begin</beam>
				<notations>
					<slur number="1" placement="above" type="start"/>
				</notations>
				<lyric default-y="-95" number="1">
					<syllabic>single</syllabic>
					<text>wah</text>
				</lyric>
			</note>
			<note>
				<pitch>
					<step>G</step>
					<octave>4</octave>
				</pitch>
				<duration>240</duration>
				<voice>2</voice>
				<type>eighth</type>
				<staff>2</staff>
				<beam number="1">continue</beam>
			</note>
			<note>
				<pitch>
					<step>F</step>
					<alter>1</alter>
					<octave>4</octave>
				</pitch>
				<duration>240</duration>
				<voice>2</voice>
				<type>eighth</type>
				<accidental>sharp</accidental>
				<staff>2</staff>
				<beam number="1">continue</beam>
			</note>
			<note>
				<pitch>
					<step>E</step>
					<octave>4</octave>
				</pitch>
				<duration>240</duration>
				<voice>2</voice>
				<type>eighth</type>
				<staff>2</staff>
				<beam number="1">end</beam>
				<notations>
					<slur number="1" type="stop"/>
				</notations>
			</note>
			<note>
				<pitch>
					<step>D</step>
					<octave>4</octave>
				</pitch>
				<duration>480</duration>
				<voice>2</voice>
				<type>quarter</type>
				<staff>2</staff>
				<notations>
					<fermata type="upright"/>
				</notations>
				<lyric default-y="-95" number="1">
					<syllabic>single</syllabic>
					<text>re</text>
				</lyric>
			</note>
			<note>
				<pitch>
					<step>E</step>
					<octave>4</octave>
				</pitch>
				<duration>480</duration>
				<voice>2</voice>
				<type>quarter</type>
				<staff>2</staff>
				<lyric default-y="-95" number="1">
					<syllabic>single</syllabic>
					<text>und</text>
				</lyric>
			</note>
			<backup>
				<duration>1920</duration>
			</backup>
			<note>
				<pitch>
					<step>D</step>
					<octave>4</octave>
				</pitch>
				<duration>480</duration>
				<voice>3</voice>
				<type>quarter</type>
				<staff>3</staff>
				<notations>
					<slur number="1" placement="above" type="start"/>
				</notations>
				<lyric default-y="-95" number="1">
					<syllabic>begin</syllabic>
					<text>wah</text>
				</lyric>
			</note>
			<note>
				<pitch>
					<step>A</step>
					<octave>3</octave>
				</pitch>
				<duration>480</duration>
				<voice>3</voice>
				<type>quarter</type>
				<staff>3</staff>
				<notations>
					<slur number="1" type="stop"/>
				</notations>
			</note>
			<note>
				<pitch>
					<step>B</step>
					<octave>3</octave>
				</pitch>
				<duration>480</duration>
				<voice>3</voice>
				<type>quarter</type>
				<staff>3</staff>
				<notations>
					<fermata type="upright"/>
				</notations>
				<lyric default-y="-95" number="1">
					<syllabic>end</syllabic>
					<text>re</text>
				</lyric>
			</note>
			<note>
				<pitch>
					<step>B</step>
					<octave>3</octave>
				</pitch>
				<duration>480</duration>
				<voice>3</voice>
				<type>quarter</type>
				<staff>3</staff>
				<lyric default-y="-95" number="1">
					<syllabic>single</syllabic>
					<text>und</text>
				</lyric>
			</note>
			<backup>
				<duration>1920</duration>
			</backup>
			<note>
				<pitch>
					<step>B</step>
					<octave>2</octave>
				</pitch>
				<duration>240</duration>
				<voice>4</voice>
				<type>eighth</type>
				<staff>4</staff>
				<beam number="1">begin</beam>
				<notations>
					<slur number="1" placement="below" type="start"/>
				</notations>
				<lyric default-y="-95" number="1">
					<syllabic>single</syllabic>
					<text>wah</text>
				</lyric>
			</note>
			<note>
				<pitch>
					<step>C</step>
					<octave>3</octave>
				</pitch>
				<duration>240</duration>
				<voice>4</voice>
				<type>eighth</type>
				<staff>4</staff>
				<beam number="1">end</beam>
			</note>
			<note>
				<pitch>
					<step>D</step>
					<octave>3</octave>
				</pitch>
				<duration>480</duration>
				<voice>4</voice>
				<type>quarter</type>
				<staff>4</staff>
				<notations>
					<slur number="1" type="stop"/>
				</notations>
			</note>
			<note>
				<pitch>
					<step>G</step>
					<octave>2</octave>
				</pitch>
				<duration>480</duration>
				<voice>4</voice>
				<type>quarter</type>
				<staff>4</staff>
				<notations>
					<fermata type="upright"/>
				</notations>
				<lyric default-y="-95" number="1">
					<syllabic>single</syllabic>
					<text>re</text>
				</lyric>
			</note>
			<note>
				<pitch>
					<step>G</step>
					<alter>1</alter>
					<octave>3</octave>
				</pitch>
				<duration>480</duration>
				<voice>4</voice>
				<type>quarter</type>
				<accidental>sharp</accidental>
				<staff>4</staff>
				<lyric default-y="-95" number="1">
					<syllabic>single</syllabic>
					<text>und</text>
				</lyric>
			</note>
		</measure>
		<measure number="12">
			<note>
				<pitch>
					<step>C</step>
					<octave>5</octave>
				</pitch>
				<duration>240</duration>
				<voice>1</voice>
				<type>eighth</type>
				<staff>1</staff>
				<beam number="1">begin</beam>
				<lyric default-y="-95" number="1">
					<syllabic>single</syllabic>
					<text>n辰hr'</text>
				</lyric>
			</note>
			<note>
				<pitch>
					<step>B</step>
					<octave>4</octave>
				</pitch>
				<duration>240</duration>
				<voice>1</voice>
				<type>eighth</type>
				<staff>1</staff>
				<beam number="1">end</beam>
			</note>
			<note>
				<pitch>
					<step>A</step>
					<octave>4</octave>
				</pitch>
				<duration>480</duration>
				<voice>1</voice>
				<type>quarter</type>
				<staff>1</staff>
				<lyric default-y="-95" number="1">
					<syllabic>single</syllabic>
					<text>uns</text>
				</lyric>
			</note>
			<note>
				<pitch>
					<step>B</step>
					<octave>4</octave>
				</pitch>
				<duration>480</duration>
				<voice>1</voice>
				<type>quarter</type>
				<staff>1</staff>
				<lyric default-y="-95" number="1">
					<syllabic>begin</syllabic>
					<text>mil</text>
				</lyric>
			</note>
			<note>
				<pitch>
					<step>B</step>
					<octave>4</octave>
				</pitch>
				<duration>480</duration>
				<voice>1</voice>
				<type>quarter</type>
				<staff>1</staff>
				<lyric default-y="-95" number="1">
					<syllabic>middle</syllabic>
					<text>dig</text>
				</lyric>
			</note>
			<backup>
				<duration>1920</duration>
			</backup>
			<note>
				<pitch>
					<step>E</step>
					<octave>4</octave>
				</pitch>
				<duration>480</duration>
				<voice>2</voice>
				<type>quarter</type>
				<staff>2</staff>
				<lyric default-y="-95" number="1">
					<syllabic>end</syllabic>
					<text>n辰hr'</text>
				</lyric>
			</note>
			<note>
				<pitch>
					<step>A</step>
					<octave>4</octave>
				</pitch>
				<duration>480</duration>
				<voice>2</voice>
				<type>quarter</type>
				<staff>2</staff>
				<lyric default-y="-95" number="1">
					<syllabic>single</syllabic>
					<text>uns</text>
				</lyric>
			</note>
			<note>
				<pitch>
					<step>A</step>
					<octave>4</octave>
				</pitch>
				<duration>480</duration>
				<voice>2</voice>
				<type>quarter</type>
				<staff>2</staff>
				<lyric default-y="-95" number="1">
					<syllabic>begin</syllabic>
					<text>mil</text>
				</lyric>
			</note>
			<note>
				<pitch>
					<step>G</step>
					<alter>1</alter>
					<octave>4</octave>
				</pitch>
				<duration>480</duration>
				<voice>2</voice>
				<type>quarter</type>
				<accidental>sharp</accidental>
				<staff>2</staff>
				<lyric default-y="-95" number="1">
					<syllabic>middle</syllabic>
					<text>dig</text>
				</lyric>
			</note>
			<backup>
				<duration>1920</duration>
			</backup>
			<note>
				<pitch>
					<step>A</step>
					<octave>3</octave>
				</pitch>
				<duration>240</duration>
				<voice>3</voice>
				<type>eighth</type>
				<staff>3</staff>
				<beam number="1">begin</beam>
				<lyric default-y="-95" number="1">
					<syllabic>end</syllabic>
					<text>n辰hr'</text>
				</lyric>
			</note>
			<note>
				<pitch>
					<step>B</step>
					<octave>3</octave>
				</pitch>
				<duration>240</duration>
				<voice>3</voice>
				<type>eighth</type>
				<staff>3</staff>
				<beam number="1">end</beam>
			</note>
			<note>
				<pitch>
					<step>C</step>
					<octave>4</octave>
				</pitch>
				<duration>480</duration>
				<voice>3</voice>
				<type>quarter</type>
				<staff>3</staff>
				<lyric default-y="-95" number="1">
					<syllabic>single</syllabic>
					<text>uns</text>
				</lyric>
			</note>
			<note>
				<pitch>
					<step>F</step>
					<octave>4</octave>
				</pitch>
				<duration>480</duration>
				<voice>3</voice>
				<type>quarter</type>
				<staff>3</staff>
				<lyric default-y="-95" number="1">
					<syllabic>begin</syllabic>
					<text>mil</text>
				</lyric>
			</note>
			<note>
				<pitch>
					<step>E</step>
					<octave>4</octave>
				</pitch>
				<duration>240</duration>
				<voice>3</voice>
				<type>eighth</type>
				<staff>3</staff>
				<beam number="1">begin</beam>
				<lyric default-y="-95" number="1">
					<syllabic>end</syllabic>
					<text>dig</text>
				</lyric>
			</note>
			<note>
				<pitch>
					<step>D</step>
					<octave>4</octave>
				</pitch>
				<duration>240</duration>
				<voice>3</voice>
				<type>eighth</type>
				<staff>3</staff>
				<beam number="1">end</beam>
			</note>
			<backup>
				<duration>1920</duration>
			</backup>
			<note>
				<pitch>
					<step>A</step>
					<octave>3</octave>
				</pitch>
				<duration>240</duration>
				<voice>4</voice>
				<type>eighth</type>
				<staff>4</staff>
				<beam number="1">begin</beam>
				<lyric default-y="-95" number="1">
					<syllabic>single</syllabic>
					<text>n辰hr'</text>
				</lyric>
			</note>
			<note>
				<pitch>
					<step>G</step>
					<octave>3</octave>
				</pitch>
				<duration>240</duration>
				<voice>4</voice>
				<type>eighth</type>
				<staff>4</staff>
				<beam number="1">end</beam>
			</note>
			<note>
				<pitch>
					<step>F</step>
					<octave>3</octave>
				</pitch>
				<duration>240</duration>
				<voice>4</voice>
				<type>eighth</type>
				<staff>4</staff>
				<beam number="1">begin</beam>
				<lyric default-y="-95" number="1">
					<syllabic>single</syllabic>
					<text>uns</text>
				</lyric>
			</note>
			<note>
				<pitch>
					<step>E</step>
					<octave>3</octave>
				</pitch>
				<duration>240</duration>
				<voice>4</voice>
				<type>eighth</type>
				<staff>4</staff>
				<beam number="1">end</beam>
			</note>
			<note>
				<pitch>
					<step>D</step>
					<octave>3</octave>
				</pitch>
				<duration>480</duration>
				<voice>4</voice>
				<type>quarter</type>
				<staff>4</staff>
				<lyric default-y="-95" number="1">
					<syllabic>begin</syllabic>
					<text>mil</text>
				</lyric>
			</note>
			<note>
				<pitch>
					<step>E</step>
					<octave>3</octave>
				</pitch>
				<duration>480</duration>
				<voice>4</voice>
				<type>quarter</type>
				<staff>4</staff>
				<lyric default-y="-95" number="1">
					<syllabic>middle</syllabic>
					<text>dig</text>
				</lyric>
			</note>
		</measure>
		<measure number="13">
			<note>
				<pitch>
					<step>A</step>
					<octave>4</octave>
				</pitch>
				<duration>1440</duration>
				<voice>1</voice>
				<type>half</type>
				<dot/>
				<staff>1</staff>
				<lyric default-y="-95" number="1">
					<syllabic>end</syllabic>
					<text>lich.</text>
				</lyric>
			</note>
			<backup>
				<duration>1440</duration>
			</backup>
			<note>
				<pitch>
					<step>E</step>
					<octave>4</octave>
				</pitch>
				<duration>1440</duration>
				<voice>2</voice>
				<type>half</type>
				<dot/>
				<staff>2</staff>
				<lyric default-y="-95" number="1">
					<syllabic>single</syllabic>
					<text>lich.</text>
				</lyric>
			</note>
			<backup>
				<duration>1440</duration>
			</backup>
			<note>
				<pitch>
					<step>C</step>
					<alter>1</alter>
					<octave>4</octave>
				</pitch>
				<duration>1440</duration>
				<voice>3</voice>
				<type>half</type>
				<dot/>
				<accidental>sharp</accidental>
				<staff>3</staff>
				<lyric default-y="-95" number="1">
					<syllabic>single</syllabic>
					<text>lich.</text>
				</lyric>
			</note>
			<backup>
				<duration>1440</duration>
			</backup>
			<note>
				<pitch>
					<step>A</step>
					<octave>2</octave>
				</pitch>
				<duration>1440</duration>
				<voice>4</voice>
				<type>half</type>
				<dot/>
				<staff>4</staff>
				<lyric default-y="-95" number="1">
					<syllabic>single</syllabic>
					<text>lich.</text>
				</lyric>
			</note>
			<barline>
				<bar-style>light-heavy</bar-style>
			</barline>
		</measure>
	</part>
	<part id="P2">
		<measure number="0">
			<direction>
				<direction-type>
					<other-direction/>
				</direction-type>
				<sound tempo="72"/>
			</direction>
			<print>
				<system-layout>
					<system-margins>
						<left-margin>484</left-margin>
						<right-margin>0</right-margin>
					</system-margins>
					<top-system-distance>140</top-system-distance>
				</system-layout>
				<staff-layout number="1">
					<staff-distance>130</staff-distance>
				</staff-layout>
			</print>
			<attributes>
				<divisions>480</divisions>
				<key>
					<fifths>0</fifths>
					<mode>major</mode>
				</key>
				<time symbol="common">
					<beats>4</beats>
					<beat-type>4</beat-type>
				</time>
				<clef>
					<sign>F</sign>
					<line>4</line>
				</clef>
			</attributes>
			<note>
				<pitch>
					<step>A</step>
					<octave>2</octave>
				</pitch>
				<duration>480</duration>
				<voice>1</voice>
				<type>quarter</type>
			</note>
			<barline>
				<bar-style>regular</bar-style>
			</barline>
		</measure>
		<measure number="1">
			<note>
				<pitch>
					<step>A</step>
					<octave>3</octave>
				</pitch>
				<duration>480</duration>
				<voice>1</voice>
				<type>quarter</type>
			</note>
			<note>
				<pitch>
					<step>G</step>
					<alter>1</alter>
					<octave>3</octave>
				</pitch>
				<duration>480</duration>
				<voice>1</voice>
				<type>quarter</type>
				<accidental>sharp</accidental>
			</note>
			<note>
				<pitch>
					<step>A</step>
					<octave>3</octave>
				</pitch>
				<duration>480</duration>
				<voice>1</voice>
				<type>quarter</type>
			</note>
			<note>
				<pitch>
					<step>F</step>
					<alter>1</alter>
					<octave>3</octave>
				</pitch>
				<duration>480</duration>
				<voice>1</voice>
				<type>quarter</type>
				<accidental>sharp</accidental>
			</note>
		</measure>
		<measure number="2">
			<note>
				<pitch>
					<step>G</step>
					<octave>3</octave>
				</pitch>
				<duration>960</duration>
				<voice>1</voice>
				<type>half</type>
			</note>
			<note>
				<pitch>
					<step>G</step>
					<octave>2</octave>
				</pitch>
				<duration>480</duration>
				<voice>1</voice>
				<type>quarter</type>
				<notations>
					<fermata type="upright"/>
				</notations>
			</note>
			<note>
				<pitch>
					<step>G</step>
					<alter>1</alter>
					<octave>3</octave>
				</pitch>
				<duration>480</duration>
				<voice>1</voice>
				<type>quarter</type>
				<accidental>sharp</accidental>
			</note>
		</measure>
		<measure number="3">
			<note>
				<pitch>
					<step>A</step>
					<octave>3</octave>
				</pitch>
				<duration>240</duration>
				<voice>1</voice>
				<type>eighth</type>
				<beam number="1">begin</beam>
				<notations>
					<slur number="1" placement="above" type="start"/>
				</notations>
			</note>
			<note>
				<pitch>
					<step>G</step>
					<octave>3</octave>
				</pitch>
				<duration>240</duration>
				<voice>1</voice>
				<type>eighth</type>
				<beam number="1">continue</beam>
				<beam number="2">end</beam>
				<notations>
					<slur number="1" type="stop"/>
				</notations>
			</note>
			<note>
				<pitch>
					<step>F</step>
					<octave>3</octave>
				</pitch>
				<duration>240</duration>
				<voice>1</voice>
				<type>eighth</type>
				<beam number="1">continue</beam>
				<notations>
					<slur number="1" placement="above" type="start"/>
				</notations>
			</note>
			<note>
				<pitch>
					<step>E</step>
					<octave>3</octave>
				</pitch>
				<duration>240</duration>
				<voice>1</voice>
				<type>eighth</type>
				<beam number="1">end</beam>
				<notations>
					<slur number="1" type="stop"/>
				</notations>
			</note>
			<note>
				<pitch>
					<step>D</step>
					<octave>3</octave>
				</pitch>
				<duration>480</duration>
				<voice>1</voice>
				<type>quarter</type>
			</note>
			<note>
				<pitch>
					<step>E</step>
					<octave>3</octave>
				</pitch>
				<duration>480</duration>
				<voice>1</voice>
				<type>quarter</type>
			</note>
		</measure>
		<measure number="4">
			<note>
				<pitch>
					<step>A</step>
					<octave>3</octave>
				</pitch>
				<duration>1440</duration>
				<voice>1</voice>
				<type>half</type>
				<dot/>
			</note>
			<barline>
				<bar-style>light-heavy</bar-style>
				<repeat direction="backward"/>
			</barline>
		</measure>
		<measure number="5">
			<note>
				<pitch>
					<step>A</step>
					<octave>2</octave>
				</pitch>
				<duration>480</duration>
				<voice>1</voice>
				<type>quarter</type>
			</note>
			<barline>
				<bar-style>regular</bar-style>
			</barline>
		</measure>
		<measure number="6">
			<note>
				<pitch>
					<step>B</step>
					<octave>2</octave>
				</pitch>
				<duration>480</duration>
				<voice>1</voice>
				<type>quarter</type>
			</note>
			<note>
				<pitch>
					<step>C</step>
					<octave>3</octave>
				</pitch>
				<duration>480</duration>
				<voice>1</voice>
				<type>quarter</type>
			</note>
			<note>
				<pitch>
					<step>D</step>
					<octave>3</octave>
				</pitch>
				<duration>240</duration>
				<voice>1</voice>
				<type>eighth</type>
				<beam number="1">begin</beam>
			</note>
			<note>
				<pitch>
					<step>E</step>
					<octave>3</octave>
				</pitch>
				<duration>240</duration>
				<voice>1</voice>
				<type>eighth</type>
				<beam number="1">end</beam>
			</note>
			<note>
				<pitch>
					<step>F</step>
					<octave>3</octave>
				</pitch>
				<duration>480</duration>
				<voice>1</voice>
				<type>quarter</type>
			</note>
		</measure>
		<measure number="7">
			<print new-system="yes">
				<system-layout>
					<system-margins>
						<left-margin>0</left-margin>
						<right-margin>0</right-margin>
					</system-margins>
					<system-distance>200</system-distance>
				</system-layout>
				<staff-layout number="1">
					<staff-distance>120</staff-distance>
				</staff-layout>
			</print>
			<attributes>
				<time symbol="common">
					<beats>4</beats>
					<beat-type>4</beat-type>
				</time>
			</attributes>
			<note>
				<pitch>
					<step>E</step>
					<octave>3</octave>
				</pitch>
				<duration>1440</duration>
				<voice>1</voice>
				<type>half</type>
				<dot/>
			</note>
			<note>
				<pitch>
					<step>E</step>
					<octave>3</octave>
				</pitch>
				<duration>480</duration>
				<voice>1</voice>
				<type>quarter</type>
			</note>
		</measure>
		<measure number="8">
			<note>
				<pitch>
					<step>A</step>
					<octave>3</octave>
				</pitch>
				<duration>480</duration>
				<voice>1</voice>
				<type>quarter</type>
			</note>
			<note>
				<pitch>
					<step>B</step>
					<octave>3</octave>
				</pitch>
				<duration>480</duration>
				<voice>1</voice>
				<type>quarter</type>
			</note>
			<note>
				<pitch>
					<step>C</step>
					<octave>4</octave>
				</pitch>
				<duration>240</duration>
				<voice>1</voice>
				<type>eighth</type>
				<beam number="1">begin</beam>
				<notations>
					<slur number="1" placement="above" type="start"/>
				</notations>
			</note>
			<note>
				<pitch>
					<step>B</step>
					<octave>3</octave>
				</pitch>
				<duration>240</duration>
				<voice>1</voice>
				<type>eighth</type>
				<beam number="1">continue</beam>
				<beam number="2">end</beam>
			</note>
			<note>
				<pitch>
					<step>A</step>
					<octave>3</octave>
				</pitch>
				<duration>240</duration>
				<voice>1</voice>
				<type>eighth</type>
				<beam number="1">continue</beam>
			</note>
			<note>
				<pitch>
					<step>G</step>
					<octave>3</octave>
				</pitch>
				<duration>240</duration>
				<voice>1</voice>
				<type>eighth</type>
				<beam number="1">end</beam>
				<notations>
					<slur number="1" type="stop"/>
				</notations>
			</note>
		</measure>
		<measure number="9">
			<note>
				<pitch>
					<step>F</step>
					<alter>1</alter>
					<octave>3</octave>
				</pitch>
				<duration>240</duration>
				<voice>1</voice>
				<type>eighth</type>
				<accidental>sharp</accidental>
				<beam number="1">begin</beam>
				<notations>
					<slur number="1" placement="above" type="start"/>
				</notations>
			</note>
			<note>
				<pitch>
					<step>E</step>
					<octave>3</octave>
				</pitch>
				<duration>240</duration>
				<voice>1</voice>
				<type>eighth</type>
				<beam number="1">end</beam>
			</note>
			<note>
				<pitch>
					<step>D</step>
					<octave>3</octave>
				</pitch>
				<duration>480</duration>
				<voice>1</voice>
				<type>quarter</type>
				<notations>
					<slur number="1" type="stop"/>
				</notations>
			</note>
			<note>
				<pitch>
					<step>G</step>
					<octave>3</octave>
				</pitch>
				<duration>480</duration>
				<voice>1</voice>
				<type>quarter</type>
				<notations>
					<fermata type="upright"/>
				</notations>
			</note>
			<note>
				<pitch>
					<step>F</step>
					<octave>3</octave>
				</pitch>
				<duration>480</duration>
				<voice>1</voice>
				<type>quarter</type>
				<accidental>natural</accidental>
			</note>
		</measure>
		<measure number="10">
			<note>
				<pitch>
					<step>E</step>
					<octave>3</octave>
				</pitch>
				<duration>480</duration>
				<voice>1</voice>
				<type>quarter</type>
			</note>
			<note>
				<pitch>
					<step>D</step>
					<octave>3</octave>
				</pitch>
				<duration>480</duration>
				<voice>1</voice>
				<type>quarter</type>
			</note>
			<note>
				<pitch>
					<step>C</step>
					<octave>3</octave>
				</pitch>
				<duration>480</duration>
				<voice>1</voice>
				<type>quarter</type>
			</note>
			<note>
				<pitch>
					<step>B</step>
					<octave>2</octave>
				</pitch>
				<duration>240</duration>
				<voice>1</voice>
				<type>eighth</type>
				<beam number="1">begin</beam>
			</note>
			<note>
				<pitch>
					<step>A</step>
					<octave>2</octave>
				</pitch>
				<duration>240</duration>
				<voice>1</voice>
				<type>eighth</type>
				<beam number="1">end</beam>
			</note>
		</measure>
		<measure number="11">
			<note>
				<pitch>
					<step>B</step>
					<octave>2</octave>
				</pitch>
				<duration>240</duration>
				<voice>1</voice>
				<type>eighth</type>
				<beam number="1">begin</beam>
				<notations>
					<slur number="1" placement="below" type="start"/>
				</notations>
			</note>
			<note>
				<pitch>
					<step>C</step>
					<octave>3</octave>
				</pitch>
				<duration>240</duration>
				<voice>1</voice>
				<type>eighth</type>
				<beam number="1">end</beam>
			</note>
			<note>
				<pitch>
					<step>D</step>
					<octave>3</octave>
				</pitch>
				<duration>480</duration>
				<voice>1</voice>
				<type>quarter</type>
				<notations>
					<slur number="1" type="stop"/>
				</notations>
			</note>
			<note>
				<pitch>
					<step>G</step>
					<octave>2</octave>
				</pitch>
				<duration>480</duration>
				<voice>1</voice>
				<type>quarter</type>
				<notations>
					<fermata type="upright"/>
				</notations>
			</note>
			<note>
				<pitch>
					<step>G</step>
					<alter>1</alter>
					<octave>3</octave>
				</pitch>
				<duration>480</duration>
				<voice>1</voice>
				<type>quarter</type>
				<accidental>sharp</accidental>
			</note>
		</measure>
		<measure number="12">
			<note>
				<pitch>
					<step>A</step>
					<octave>3</octave>
				</pitch>
				<duration>240</duration>
				<voice>1</voice>
				<type>eighth</type>
				<beam number="1">begin</beam>
			</note>
			<note>
				<pitch>
					<step>G</step>
					<octave>3</octave>
				</pitch>
				<duration>240</duration>
				<voice>1</voice>
				<type>eighth</type>
				<beam number="1">continue</beam>
				<beam number="2">end</beam>
			</note>
			<note>
				<pitch>
					<step>F</step>
					<octave>3</octave>
				</pitch>
				<duration>240</duration>
				<voice>1</voice>
				<type>eighth</type>
				<beam number="1">continue</beam>
			</note>
			<note>
				<pitch>
					<step>E</step>
					<octave>3</octave>
				</pitch>
				<duration>240</duration>
				<voice>1</voice>
				<type>eighth</type>
				<beam number="1">end</beam>
			</note>
			<note>
				<pitch>
					<step>D</step>
					<octave>3</octave>
				</pitch>
				<duration>480</duration>
				<voice>1</voice>
				<type>quarter</type>
			</note>
			<note>
				<pitch>
					<step>E</step>
					<octave>3</octave>
				</pitch>
				<duration>480</duration>
				<voice>1</voice>
				<type>quarter</type>
			</note>
		</measure>
		<measure number="13">
			<note>
				<pitch>
					<step>A</step>
					<octave>2</octave>
				</pitch>
				<duration>1440</duration>
				<voice>1</voice>
				<type>half</type>
				<dot/>
			</note>
			<barline>
				<bar-style>light-heavy</bar-style>
			</barline>
		</measure>
	</part>
</score-partwise>
