<?xml version="1.0" encoding="UTF-8" standalone="no"?>
<!--MusicXML 2.0 file created by CapToMusic.py CapXML to MusicXML converter version 1.37-->
<!DOCTYPE score-partwise PUBLIC "-//Recordare//DTD MusicXML 2.0 Partwise//EN" "http://www.musicxml.org/dtds/partwise.dtd">
<score-partwise version="2.0">
	<identification>
		<encoding>
			<encoding-date>2016-05-06</encoding-date>
			<software>CapToMusic.py CapXML to MusicXML converter version 1.37</software>
			<encoding-description>Options: FinaleDolet33=1, ChordCaseMatters=1, ExportToSibelius=0</encoding-description>
		</encoding>
	</identification>
	<defaults>
		<scaling>
			<millimeters>1.6</millimeters>
			<tenths>10.0</tenths>
		</scaling>
		<page-layout>
			<page-height>1856</page-height>
			<page-width>1312</page-width>
			<page-margins type="both">
				<left-margin>93</left-margin>
				<right-margin>93</right-margin>
				<top-margin>93</top-margin>
				<bottom-margin>93</bottom-margin>
			</page-margins>
		</page-layout>
		<system-layout>
			<system-margins>
				<left-margin>0</left-margin>
				<right-margin>0</right-margin>
			</system-margins>
			<system-distance>0</system-distance>
			<top-system-distance>90</top-system-distance>
		</system-layout>
	</defaults>
	<credit>
		<credit-words></credit-words>
	</credit>
	<part-list>
		<score-part id="P1">
			<part-name></part-name>
			<part-abbreviation></part-abbreviation>
			<score-instrument id="P1-I1">
				<instrument-name>Midi_1</instrument-name>
			</score-instrument>
			<midi-instrument id="P1-I1">
				<midi-channel>1</midi-channel>
				<midi-program>1</midi-program>
			</midi-instrument>
		</score-part>
	</part-list>
	<part id="P1">
		<measure number="0">
			<print>
				<system-layout>
					<system-margins>
						<left-margin>0</left-margin>
						<right-margin>0</right-margin>
					</system-margins>
					<top-system-distance>220</top-system-distance>
				</system-layout>
				<staff-layout number="1">
					<staff-distance>130</staff-distance>
				</staff-layout>
				<staff-layout number="2">
					<staff-distance>200</staff-distance>
				</staff-layout>
			</print>
			<attributes>
				<divisions>480</divisions>
				<key>
					<fifths>-1</fifths>
					<mode>major</mode>
				</key>
				<time symbol="common">
					<beats>4</beats>
					<beat-type>4</beat-type>
				</time>
				<staves>2</staves>
				<clef number="1">
					<sign>G</sign>
					<line>2</line>
				</clef>
			</attributes>
			<note>
				<pitch>
					<step>A</step>
					<octave>4</octave>
				</pitch>
				<duration>480</duration>
				<voice>1</voice>
				<type>quarter</type>
				<stem>up</stem>
				<staff>1</staff>
			</note>
			<backup>
				<duration>480</duration>
			</backup>
			<note>
				<pitch>
					<step>F</step>
					<alter>1</alter>
					<octave>4</octave>
				</pitch>
				<duration>480</duration>
				<voice>2</voice>
				<type>quarter</type>
				<accidental>sharp</accidental>
				<stem>down</stem>
				<staff>1</staff>
				<lyric default-y="-105" number="1">
					<syllabic>single</syllabic>
					<text>Ach</text>
				</lyric>
				<lyric default-y="-130" number="2">
					<syllabic>single</syllabic>
					<text>wie</text>
				</lyric>
				<lyric default-y="-155" number="3">
					<syllabic>single</syllabic>
					<text>Das</text>
				</lyric>
				<lyric default-y="-180" number="4">
					<syllabic>single</syllabic>
					<text>und</text>
				</lyric>
			</note>
			<backup>
				<duration>480</duration>
			</backup>
			<attributes>
				<time symbol="common">
					<beats>4</beats>
					<beat-type>4</beat-type>
				</time>
				<staves>2</staves>
				<clef number="2">
					<sign>F</sign>
					<line>4</line>
				</clef>
			</attributes>
			<note>
				<pitch>
					<step>D</step>
					<octave>4</octave>
				</pitch>
				<duration>480</duration>
				<voice>3</voice>
				<type>quarter</type>
				<stem>up</stem>
				<staff>2</staff>
			</note>
			<backup>
				<duration>480</duration>
			</backup>
			<note>
				<pitch>
					<step>D</step>
					<octave>3</octave>
				</pitch>
				<duration>480</duration>
				<voice>4</voice>
				<type>quarter</type>
				<stem>down</stem>
				<staff>2</staff>
			</note>
			<barline>
				<bar-style>regular</bar-style>
			</barline>
		</measure>
		<measure number="1">
			<note>
				<pitch>
					<step>B</step>
					<alter>-1</alter>
					<octave>4</octave>
				</pitch>
				<duration>480</duration>
				<voice>1</voice>
				<type>quarter</type>
				<stem>up</stem>
				<staff>1</staff>
			</note>
			<note>
				<pitch>
					<step>A</step>
					<octave>4</octave>
				</pitch>
				<duration>480</duration>
				<voice>1</voice>
				<type>quarter</type>
				<stem>up</stem>
				<staff>1</staff>
			</note>
			<note>
				<pitch>
					<step>G</step>
					<octave>4</octave>
				</pitch>
				<duration>480</duration>
				<voice>1</voice>
				<type>quarter</type>
				<stem>up</stem>
				<staff>1</staff>
			</note>
			<note>
				<pitch>
					<step>D</step>
					<octave>5</octave>
				</pitch>
				<duration>480</duration>
				<voice>1</voice>
				<type>quarter</type>
				<stem>up</stem>
				<staff>1</staff>
			</note>
			<backup>
				<duration>1920</duration>
			</backup>
			<note>
				<pitch>
					<step>G</step>
					<octave>4</octave>
				</pitch>
				<duration>480</duration>
				<voice>2</voice>
				<type>quarter</type>
				<stem>down</stem>
				<staff>1</staff>
				<lyric default-y="-105" number="1">
					<syllabic>single</syllabic>
					<text>Gott,</text>
				</lyric>
				<lyric default-y="-130" number="2">
					<syllabic>begin</syllabic>
					<text>we</text>
				</lyric>
				<lyric default-y="-155" number="3">
					<syllabic>end</syllabic>
					<text>wollst</text>
				</lyric>
				<lyric default-y="-180" number="4">
					<syllabic>single</syllabic>
					<text>laß</text>
				</lyric>
			</note>
			<note>
				<pitch>
					<step>F</step>
					<alter>1</alter>
					<octave>4</octave>
				</pitch>
				<duration>480</duration>
				<voice>2</voice>
				<type>quarter</type>
				<accidental>sharp</accidental>
				<stem>down</stem>
				<staff>1</staff>
				<lyric default-y="-105" number="1">
					<syllabic>single</syllabic>
					<text>vom</text>
				</lyric>
				<lyric default-y="-130" number="2">
					<syllabic>single</syllabic>
					<text>nig</text>
				</lyric>
				<lyric default-y="-155" number="3">
					<syllabic>single</syllabic>
					<text>du</text>
				</lyric>
				<lyric default-y="-180" number="4">
					<syllabic>single</syllabic>
					<text>uns</text>
				</lyric>
			</note>
			<note>
				<pitch>
					<step>G</step>
					<octave>4</octave>
				</pitch>
				<duration>480</duration>
				<voice>2</voice>
				<type>quarter</type>
				<stem>down</stem>
				<staff>1</staff>
				<lyric default-y="-105" number="1">
					<syllabic>begin</syllabic>
					<text>Him</text>
				</lyric>
				<lyric default-y="-130" number="2">
					<syllabic>end</syllabic>
					<text>sind</text>
				</lyric>
				<lyric default-y="-155" number="3">
					<syllabic>single</syllabic>
					<text>Gott</text>
				</lyric>
				<lyric default-y="-180" number="4">
					<syllabic>single</syllabic>
					<text>die</text>
				</lyric>
			</note>
			<note>
				<pitch>
					<step>B</step>
					<alter>-1</alter>
					<octave>4</octave>
				</pitch>
				<duration>480</duration>
				<voice>2</voice>
				<type>quarter</type>
				<stem>down</stem>
				<staff>1</staff>
				<lyric default-y="-105" number="1">
					<syllabic>single</syllabic>
					<text>mel</text>
				</lyric>
				<lyric default-y="-130" number="2">
					<syllabic>single</syllabic>
					<text>der</text>
				</lyric>
				<lyric default-y="-155" number="3">
					<syllabic>begin</syllabic>
					<text>be</text>
				</lyric>
				<lyric default-y="-180" number="4">
					<syllabic>middle</syllabic>
					<text>be</text>
				</lyric>
			</note>
			<backup>
				<duration>1920</duration>
			</backup>
			<note>
				<pitch>
					<step>D</step>
					<octave>4</octave>
				</pitch>
				<duration>480</duration>
				<voice>3</voice>
				<type>quarter</type>
				<stem>up</stem>
				<staff>2</staff>
			</note>
			<note>
				<pitch>
					<step>C</step>
					<octave>4</octave>
				</pitch>
				<duration>480</duration>
				<voice>3</voice>
				<type>quarter</type>
				<stem>up</stem>
				<staff>2</staff>
			</note>
			<note>
				<pitch>
					<step>D</step>
					<octave>4</octave>
				</pitch>
				<duration>480</duration>
				<voice>3</voice>
				<type>quarter</type>
				<stem>up</stem>
				<staff>2</staff>
			</note>
			<note>
				<pitch>
					<step>G</step>
					<octave>4</octave>
				</pitch>
				<duration>480</duration>
				<voice>3</voice>
				<type>quarter</type>
				<stem>up</stem>
				<staff>2</staff>
			</note>
			<backup>
				<duration>1920</duration>
			</backup>
			<note>
				<pitch>
					<step>G</step>
					<octave>3</octave>
				</pitch>
				<duration>480</duration>
				<voice>4</voice>
				<type>quarter</type>
				<stem>down</stem>
				<staff>2</staff>
			</note>
			<note>
				<pitch>
					<step>A</step>
					<octave>3</octave>
				</pitch>
				<duration>480</duration>
				<voice>4</voice>
				<type>quarter</type>
				<stem>down</stem>
				<staff>2</staff>
			</note>
			<note>
				<pitch>
					<step>B</step>
					<alter>-1</alter>
					<octave>3</octave>
				</pitch>
				<duration>480</duration>
				<voice>4</voice>
				<type>quarter</type>
				<stem>down</stem>
				<staff>2</staff>
			</note>
			<note>
				<pitch>
					<step>A</step>
					<octave>3</octave>
				</pitch>
				<duration>240</duration>
				<voice>4</voice>
				<type>eighth</type>
				<stem>down</stem>
				<staff>2</staff>
				<beam number="1">begin</beam>
			</note>
			<note>
				<pitch>
					<step>G</step>
					<octave>3</octave>
				</pitch>
				<duration>240</duration>
				<voice>4</voice>
				<type>eighth</type>
				<stem>down</stem>
				<staff>2</staff>
				<beam number="1">end</beam>
			</note>
		</measure>
		<measure number="2">
			<note>
				<pitch>
					<step>D</step>
					<octave>5</octave>
				</pitch>
				<duration>240</duration>
				<voice>1</voice>
				<type>eighth</type>
				<stem>up</stem>
				<staff>1</staff>
				<beam number="1">begin</beam>
			</note>
			<note>
				<pitch>
					<step>C</step>
					<octave>5</octave>
				</pitch>
				<duration>240</duration>
				<voice>1</voice>
				<type>eighth</type>
				<stem>up</stem>
				<staff>1</staff>
				<beam number="1">end</beam>
			</note>
			<direction placement="above">
				<direction-type>
					<words relative-x="47" default-y="176" font-family="Times New Roman" font-size="18" justify="center">Ach Gott, vom Himmel sieh´ darein</words>
				</direction-type>
				<staff>1</staff>
			</direction>
			<note>
				<pitch>
					<step>B</step>
					<alter>-1</alter>
					<octave>4</octave>
				</pitch>
				<duration>480</duration>
				<voice>1</voice>
				<type>quarter</type>
				<stem>up</stem>
				<staff>1</staff>
			</note>
			<note>
				<pitch>
					<step>A</step>
					<octave>4</octave>
				</pitch>
				<duration>480</duration>
				<voice>1</voice>
				<type>quarter</type>
				<stem>up</stem>
				<staff>1</staff>
				<notations>
					<fermata type="upright"/>
				</notations>
			</note>
			<direction placement="above">
				<direction-type>
					<words relative-x="-39" default-y="137" font-family="Times New Roman" font-size="12" font-style="italic" justify="center">(Kant. 2 &quot;Ach Gott, vom Himmel sieh´ darein&quot;)</words>
				</direction-type>
				<staff>1</staff>
			</direction>
			<note>
				<pitch>
					<step>C</step>
					<octave>5</octave>
				</pitch>
				<duration>480</duration>
				<voice>1</voice>
				<type>quarter</type>
				<stem>up</stem>
				<staff>1</staff>
			</note>
			<backup>
				<duration>1920</duration>
			</backup>
			<note>
				<pitch>
					<step>A</step>
					<octave>4</octave>
				</pitch>
				<duration>480</duration>
				<voice>2</voice>
				<type>quarter</type>
				<stem>down</stem>
				<staff>1</staff>
				<lyric default-y="-105" number="1">
					<syllabic>end</syllabic>
					<text>sieh</text>
				</lyric>
				<lyric default-y="-130" number="2">
					<syllabic>begin</syllabic>
					<text>Heil´</text>
				</lyric>
				<lyric default-y="-155" number="3">
					<syllabic>middle</syllabic>
					<text>wah</text>
				</lyric>
				<lyric default-y="-180" number="4">
					<syllabic>middle</syllabic>
					<text>foh</text>
				</lyric>
			</note>
			<note>
				<pitch>
					<step>G</step>
					<octave>4</octave>
				</pitch>
				<duration>480</duration>
				<voice>2</voice>
				<type>quarter</type>
				<stem>down</stem>
				<staff>1</staff>
				<lyric default-y="-105" number="1">
					<syllabic>middle</syllabic>
					<text>da</text>
				</lyric>
				<lyric default-y="-130" number="2">
					<syllabic>end</syllabic>
					<text>gen</text>
				</lyric>
				<lyric default-y="-155" number="3">
					<syllabic>single</syllabic>
					<text>rn</text>
				</lyric>
				<lyric default-y="-180" number="4">
					<syllabic>single</syllabic>
					<text>len</text>
				</lyric>
			</note>
			<note>
				<pitch>
					<step>F</step>
					<alter>1</alter>
					<octave>4</octave>
				</pitch>
				<duration>480</duration>
				<voice>2</voice>
				<type>quarter</type>
				<accidental>sharp</accidental>
				<stem>down</stem>
				<staff>1</staff>
				<lyric default-y="-105" number="1">
					<syllabic>single</syllabic>
					<text>rein</text>
				</lyric>
				<lyric default-y="-130" number="2">
					<syllabic>single</syllabic>
					<text>dein,</text>
				</lyric>
				<lyric default-y="-155" number="3">
					<syllabic>single</syllabic>
					<text>rein</text>
				</lyric>
				<lyric default-y="-180" number="4">
					<syllabic>single</syllabic>
					<text>sein,</text>
				</lyric>
			</note>
			<note>
				<pitch>
					<step>A</step>
					<alter>-1</alter>
					<octave>4</octave>
				</pitch>
				<duration>480</duration>
				<voice>2</voice>
				<type>quarter</type>
				<accidental>flat</accidental>
				<stem>down</stem>
				<staff>1</staff>
				<lyric default-y="-105" number="1">
					<syllabic>single</syllabic>
					<text>und</text>
				</lyric>
				<lyric default-y="-130" number="2">
					<syllabic>begin</syllabic>
					<text>ver</text>
				</lyric>
				<lyric default-y="-155" number="3">
					<syllabic>end</syllabic>
					<text>vor</text>
				</lyric>
				<lyric default-y="-180" number="4">
					<syllabic>single</syllabic>
					<text>daß</text>
				</lyric>
			</note>
			<backup>
				<duration>1920</duration>
			</backup>
			<note>
				<pitch>
					<step>D</step>
					<octave>4</octave>
				</pitch>
				<duration>480</duration>
				<voice>3</voice>
				<type>quarter</type>
				<stem>up</stem>
				<staff>2</staff>
			</note>
			<note>
				<pitch>
					<step>D</step>
					<octave>4</octave>
				</pitch>
				<duration>480</duration>
				<voice>3</voice>
				<type>quarter</type>
				<stem>up</stem>
				<staff>2</staff>
			</note>
			<note>
				<pitch>
					<step>D</step>
					<octave>4</octave>
				</pitch>
				<duration>480</duration>
				<voice>3</voice>
				<type>quarter</type>
				<stem>up</stem>
				<staff>2</staff>
			</note>
			<note>
				<pitch>
					<step>E</step>
					<alter>-1</alter>
					<octave>4</octave>
				</pitch>
				<duration>480</duration>
				<voice>3</voice>
				<type>quarter</type>
				<accidental>flat</accidental>
				<stem>up</stem>
				<staff>2</staff>
			</note>
			<backup>
				<duration>1920</duration>
			</backup>
			<note>
				<pitch>
					<step>F</step>
					<alter>1</alter>
					<octave>3</octave>
				</pitch>
				<duration>480</duration>
				<voice>4</voice>
				<type>quarter</type>
				<accidental>sharp</accidental>
				<stem>down</stem>
				<staff>2</staff>
			</note>
			<note>
				<pitch>
					<step>G</step>
					<octave>3</octave>
				</pitch>
				<duration>480</duration>
				<voice>4</voice>
				<type>quarter</type>
				<stem>down</stem>
				<staff>2</staff>
			</note>
			<note>
				<pitch>
					<step>D</step>
					<octave>3</octave>
				</pitch>
				<duration>480</duration>
				<voice>4</voice>
				<type>quarter</type>
				<stem>down</stem>
				<staff>2</staff>
				<notations>
					<fermata type="inverted"/>
				</notations>
			</note>
			<note>
				<pitch>
					<step>C</step>
					<octave>3</octave>
				</pitch>
				<duration>480</duration>
				<voice>4</voice>
				<type>quarter</type>
				<stem>down</stem>
				<staff>2</staff>
			</note>
		</measure>
		<measure number="3">
			<note>
				<pitch>
					<step>B</step>
					<alter>-1</alter>
					<octave>4</octave>
				</pitch>
				<duration>480</duration>
				<voice>1</voice>
				<type>quarter</type>
				<stem>up</stem>
				<staff>1</staff>
			</note>
			<direction placement="above">
				<direction-type>
					<words relative-x="201" default-y="92" font-family="Times New Roman" font-size="12" font-style="italic" justify="center">Worte: Martin Luther, 1524
Quelle: Erfurter Enchiridion</words>
				</direction-type>
				<staff>1</staff>
			</direction>
			<note>
				<pitch>
					<step>A</step>
					<octave>4</octave>
				</pitch>
				<duration>480</duration>
				<voice>1</voice>
				<type>quarter</type>
				<stem>up</stem>
				<staff>1</staff>
			</note>
			<note>
				<pitch>
					<step>G</step>
					<octave>4</octave>
				</pitch>
				<duration>480</duration>
				<voice>1</voice>
				<type>quarter</type>
				<stem>up</stem>
				<staff>1</staff>
			</note>
			<note>
				<pitch>
					<step>C</step>
					<octave>5</octave>
				</pitch>
				<duration>480</duration>
				<voice>1</voice>
				<type>quarter</type>
				<stem>up</stem>
				<staff>1</staff>
			</note>
			<backup>
				<duration>1920</duration>
			</backup>
			<note>
				<pitch>
					<step>G</step>
					<octave>4</octave>
				</pitch>
				<duration>480</duration>
				<voice>2</voice>
				<type>quarter</type>
				<stem>down</stem>
				<staff>1</staff>
				<lyric default-y="-105" number="1">
					<syllabic>single</syllabic>
					<text>laß</text>
				</lyric>
				<lyric default-y="-130" number="2">
					<syllabic>begin</syllabic>
					<text>las</text>
				</lyric>
				<lyric default-y="-155" number="3">
					<syllabic>middle</syllabic>
					<text>die</text>
				</lyric>
				<lyric default-y="-180" number="4">
					<syllabic>end</syllabic>
					<text>sich´s</text>
				</lyric>
			</note>
			<note>
				<pitch>
					<step>F</step>
					<alter>1</alter>
					<octave>4</octave>
				</pitch>
				<duration>480</duration>
				<voice>2</voice>
				<type>quarter</type>
				<accidental>sharp</accidental>
				<stem>down</stem>
				<staff>1</staff>
				<lyric default-y="-105" number="1">
					<syllabic>single</syllabic>
					<text>dich</text>
				</lyric>
				<lyric default-y="-130" number="2">
					<syllabic>single</syllabic>
					<text>sen</text>
				</lyric>
				<lyric default-y="-155" number="3">
					<syllabic>single</syllabic>
					<text>sem</text>
				</lyric>
				<lyric default-y="-180" number="4">
					<syllabic>single</syllabic>
					<text>in</text>
				</lyric>
			</note>
			<note>
				<pitch>
					<step>C</step>
					<alter>1</alter>
					<octave>4</octave>
				</pitch>
				<duration>480</duration>
				<voice>2</voice>
				<type>quarter</type>
				<accidental>sharp</accidental>
				<stem>down</stem>
				<staff>1</staff>
				<lyric default-y="-105" number="1">
					<syllabic>single</syllabic>
					<text>dies</text>
				</lyric>
				<lyric default-y="-130" number="2">
					<syllabic>single</syllabic>
					<text>sind</text>
				</lyric>
				<lyric default-y="-155" number="3">
					<syllabic>single</syllabic>
					<text>arg´n</text>
				</lyric>
				<lyric default-y="-180" number="4">
					<syllabic>single</syllabic>
					<text>uns</text>
				</lyric>
			</note>
			<note>
				<pitch>
					<step>D</step>
					<octave>4</octave>
				</pitch>
				<duration>480</duration>
				<voice>2</voice>
				<type>quarter</type>
				<stem>down</stem>
				<staff>1</staff>
				<lyric default-y="-105" number="1">
					<syllabic>begin</syllabic>
					<text>er</text>
				</lyric>
				<lyric default-y="-130" number="2">
					<syllabic>end</syllabic>
					<text>wir</text>
				</lyric>
				<lyric default-y="-155" number="3">
					<syllabic>begin</syllabic>
					<text>Ge</text>
				</lyric>
				<lyric default-y="-180" number="4">
					<syllabic>end</syllabic>
					<text>nicht</text>
				</lyric>
			</note>
			<backup>
				<duration>1920</duration>
			</backup>
			<note>
				<pitch>
					<step>E</step>
					<octave>4</octave>
				</pitch>
				<duration>480</duration>
				<voice>3</voice>
				<type>quarter</type>
				<accidental cautionary="yes">natural</accidental>
				<stem>up</stem>
				<staff>2</staff>
			</note>
			<note>
				<pitch>
					<step>D</step>
					<octave>4</octave>
				</pitch>
				<duration>240</duration>
				<voice>3</voice>
				<type>eighth</type>
				<stem>up</stem>
				<staff>2</staff>
				<beam number="1">begin</beam>
			</note>
			<note>
				<pitch>
					<step>C</step>
					<octave>4</octave>
				</pitch>
				<duration>240</duration>
				<voice>3</voice>
				<type>eighth</type>
				<accidental cautionary="yes">natural</accidental>
				<stem>up</stem>
				<staff>2</staff>
				<beam number="1">end</beam>
			</note>
			<note>
				<pitch>
					<step>B</step>
					<alter>-1</alter>
					<octave>3</octave>
				</pitch>
				<duration>480</duration>
				<voice>3</voice>
				<type>quarter</type>
				<stem>up</stem>
				<staff>2</staff>
			</note>
			<note>
				<pitch>
					<step>A</step>
					<octave>3</octave>
				</pitch>
				<duration>480</duration>
				<voice>3</voice>
				<type>quarter</type>
				<stem>up</stem>
				<staff>2</staff>
			</note>
			<backup>
				<duration>1920</duration>
			</backup>
			<note>
				<pitch>
					<step>C</step>
					<alter>1</alter>
					<octave>3</octave>
				</pitch>
				<duration>480</duration>
				<voice>4</voice>
				<type>quarter</type>
				<accidental>sharp</accidental>
				<stem>down</stem>
				<staff>2</staff>
			</note>
			<note>
				<pitch>
					<step>D</step>
					<octave>3</octave>
				</pitch>
				<duration>480</duration>
				<voice>4</voice>
				<type>quarter</type>
				<stem>down</stem>
				<staff>2</staff>
			</note>
			<note>
				<pitch>
					<step>E</step>
					<octave>3</octave>
				</pitch>
				<duration>480</duration>
				<voice>4</voice>
				<type>quarter</type>
				<accidental cautionary="yes">natural</accidental>
				<stem>down</stem>
				<staff>2</staff>
			</note>
			<note>
				<pitch>
					<step>F</step>
					<alter>1</alter>
					<octave>3</octave>
				</pitch>
				<duration>480</duration>
				<voice>4</voice>
				<type>quarter</type>
				<accidental>sharp</accidental>
				<stem>down</stem>
				<staff>2</staff>
			</note>
		</measure>
		<measure number="4">
			<note>
				<pitch>
					<step>B</step>
					<alter>-1</alter>
					<octave>4</octave>
				</pitch>
				<duration>480</duration>
				<voice>1</voice>
				<type>quarter</type>
				<stem>up</stem>
				<staff>1</staff>
				<notations>
					<slur number="1" placement="above" type="start"/>
				</notations>
			</note>
			<note>
				<pitch>
					<step>A</step>
					<octave>4</octave>
				</pitch>
				<duration>480</duration>
				<voice>1</voice>
				<type>quarter</type>
				<stem>up</stem>
				<staff>1</staff>
				<notations>
					<slur number="1" type="stop"/>
				</notations>
			</note>
			<note>
				<pitch>
					<step>G</step>
					<octave>4</octave>
				</pitch>
				<duration>480</duration>
				<voice>1</voice>
				<type>quarter</type>
				<stem>up</stem>
				<staff>1</staff>
				<notations>
					<fermata type="upright"/>
				</notations>
			</note>
			<backup>
				<duration>1440</duration>
			</backup>
			<note>
				<pitch>
					<step>D</step>
					<octave>4</octave>
				</pitch>
				<duration>960</duration>
				<voice>2</voice>
				<type>half</type>
				<stem>down</stem>
				<staff>1</staff>
				<lyric default-y="-105" number="1">
					<syllabic>begin</syllabic>
					<text>bar</text>
				</lyric>
				<lyric default-y="-130" number="2">
					<syllabic>middle</syllabic>
					<text>Ar</text>
				</lyric>
				<lyric default-y="-155" number="3">
					<syllabic>middle</syllabic>
					<text>schlech</text>
				</lyric>
				<lyric default-y="-180" number="4">
					<syllabic>middle</syllabic>
					<text>flech</text>
				</lyric>
			</note>
			<note>
				<pitch>
					<step>D</step>
					<octave>4</octave>
				</pitch>
				<duration>480</duration>
				<voice>2</voice>
				<type>quarter</type>
				<stem>down</stem>
				<staff>1</staff>
				<lyric default-y="-105" number="1">
					<syllabic>end</syllabic>
					<text>men,</text>
				</lyric>
				<lyric default-y="-130" number="2">
					<syllabic>single</syllabic>
					<text>men:</text>
				</lyric>
				<lyric default-y="-155" number="3">
					<syllabic>single</syllabic>
					<text>te,</text>
				</lyric>
				<lyric default-y="-180" number="4">
					<syllabic>single</syllabic>
					<text>te,</text>
				</lyric>
			</note>
			<backup>
				<duration>1440</duration>
			</backup>
			<note>
				<pitch>
					<step>G</step>
					<octave>3</octave>
				</pitch>
				<duration>480</duration>
				<voice>3</voice>
				<type>quarter</type>
				<stem>up</stem>
				<staff>2</staff>
				<notations>
					<slur number="1" placement="above" type="start"/>
				</notations>
			</note>
			<note>
				<pitch>
					<step>F</step>
					<alter>1</alter>
					<octave>3</octave>
				</pitch>
				<duration>120</duration>
				<voice>3</voice>
				<type>16th</type>
				<accidental>sharp</accidental>
				<stem>up</stem>
				<staff>2</staff>
				<beam number="1">begin</beam>
				<beam number="2">begin</beam>
				<notations>
					<slur number="1" type="stop"/>
				</notations>
			</note>
			<note>
				<pitch>
					<step>A</step>
					<octave>3</octave>
				</pitch>
				<duration>120</duration>
				<voice>3</voice>
				<type>16th</type>
				<stem>up</stem>
				<staff>2</staff>
				<beam number="1">continue</beam>
				<beam number="2">continue</beam>
			</note>
			<note>
				<pitch>
					<step>C</step>
					<octave>4</octave>
				</pitch>
				<duration>240</duration>
				<voice>3</voice>
				<type>eighth</type>
				<stem>up</stem>
				<staff>2</staff>
				<beam number="1">end</beam>
				<beam number="2">end</beam>
			</note>
			<note>
				<pitch>
					<step>B</step>
					<alter>-1</alter>
					<octave>3</octave>
				</pitch>
				<duration>480</duration>
				<voice>3</voice>
				<type>quarter</type>
				<stem>up</stem>
				<staff>2</staff>
			</note>
			<backup>
				<duration>1440</duration>
			</backup>
			<note>
				<pitch>
					<step>G</step>
					<octave>3</octave>
				</pitch>
				<duration>480</duration>
				<voice>4</voice>
				<type>quarter</type>
				<stem>down</stem>
				<staff>2</staff>
				<notations>
					<slur number="1" placement="below" type="start"/>
				</notations>
			</note>
			<note>
				<pitch>
					<step>D</step>
					<octave>3</octave>
				</pitch>
				<duration>480</duration>
				<voice>4</voice>
				<type>quarter</type>
				<stem>down</stem>
				<staff>2</staff>
				<notations>
					<slur number="1" type="stop"/>
				</notations>
			</note>
			<note>
				<pitch>
					<step>G</step>
					<octave>2</octave>
				</pitch>
				<duration>480</duration>
				<voice>4</voice>
				<type>quarter</type>
				<stem>down</stem>
				<staff>2</staff>
				<notations>
					<fermata type="inverted"/>
				</notations>
			</note>
			<barline>
				<bar-style>light-heavy</bar-style>
				<repeat direction="backward"/>
			</barline>
		</measure>
		<measure number="5">
			<print new-system="yes">
				<system-layout>
					<system-margins>
						<left-margin>0</left-margin>
						<right-margin>0</right-margin>
					</system-margins>
					<system-distance>160</system-distance>
				</system-layout>
				<staff-layout number="1">
					<staff-distance>80</staff-distance>
				</staff-layout>
				<staff-layout number="2">
					<staff-distance>160</staff-distance>
				</staff-layout>
			</print>
			<attributes>
				<time>
					<beats>4</beats>
					<beat-type>4</beat-type>
				</time>
				<staves>2</staves>
			</attributes>
			<note>
				<pitch>
					<step>G</step>
					<octave>4</octave>
				</pitch>
				<duration>480</duration>
				<voice>1</voice>
				<type>quarter</type>
				<stem>up</stem>
				<staff>1</staff>
			</note>
			<backup>
				<duration>480</duration>
			</backup>
			<note>
				<pitch>
					<step>D</step>
					<octave>4</octave>
				</pitch>
				<duration>480</duration>
				<voice>2</voice>
				<type>quarter</type>
				<stem>down</stem>
				<staff>1</staff>
				<lyric default-y="-110" number="1">
					<syllabic>single</syllabic>
					<text>dein</text>
				</lyric>
				<lyric default-y="-135" number="2">
					<syllabic>single</syllabic>
					<text>der</text>
				</lyric>
			</note>
			<backup>
				<duration>480</duration>
			</backup>
			<note>
				<pitch>
					<step>B</step>
					<alter>-1</alter>
					<octave>3</octave>
				</pitch>
				<duration>480</duration>
				<voice>3</voice>
				<type>quarter</type>
				<stem>up</stem>
				<staff>2</staff>
			</note>
			<backup>
				<duration>480</duration>
			</backup>
			<note>
				<pitch>
					<step>G</step>
					<octave>3</octave>
				</pitch>
				<duration>480</duration>
				<voice>4</voice>
				<type>quarter</type>
				<stem>down</stem>
				<staff>2</staff>
			</note>
			<barline>
				<bar-style>regular</bar-style>
			</barline>
		</measure>
		<measure number="6">
			<note>
				<pitch>
					<step>A</step>
					<octave>4</octave>
				</pitch>
				<duration>480</duration>
				<voice>1</voice>
				<type>quarter</type>
				<stem>up</stem>
				<staff>1</staff>
			</note>
			<note>
				<pitch>
					<step>F</step>
					<octave>4</octave>
				</pitch>
				<duration>480</duration>
				<voice>1</voice>
				<type>quarter</type>
				<accidental cautionary="yes">natural</accidental>
				<stem>up</stem>
				<staff>1</staff>
			</note>
			<note>
				<pitch>
					<step>E</step>
					<octave>4</octave>
				</pitch>
				<duration>480</duration>
				<voice>1</voice>
				<type>quarter</type>
				<stem>up</stem>
				<staff>1</staff>
			</note>
			<note>
				<pitch>
					<step>D</step>
					<octave>4</octave>
				</pitch>
				<duration>240</duration>
				<voice>1</voice>
				<type>eighth</type>
				<stem>up</stem>
				<staff>1</staff>
				<beam number="1">begin</beam>
			</note>
			<note>
				<pitch>
					<step>E</step>
					<octave>4</octave>
				</pitch>
				<duration>240</duration>
				<voice>1</voice>
				<type>eighth</type>
				<stem>up</stem>
				<staff>1</staff>
				<beam number="1">end</beam>
			</note>
			<backup>
				<duration>1920</duration>
			</backup>
			<note>
				<pitch>
					<step>E</step>
					<octave>4</octave>
				</pitch>
				<duration>480</duration>
				<voice>2</voice>
				<type>quarter</type>
				<stem>down</stem>
				<staff>1</staff>
				<lyric default-y="-110" number="1">
					<syllabic>single</syllabic>
					<text>Wort</text>
				</lyric>
				<lyric default-y="-135" number="2">
					<syllabic>begin</syllabic>
					<text>gott</text>
				</lyric>
			</note>
			<note>
				<pitch>
					<step>D</step>
					<octave>4</octave>
				</pitch>
				<duration>480</duration>
				<voice>2</voice>
				<type>quarter</type>
				<stem>down</stem>
				<staff>1</staff>
				<lyric default-y="-110" number="1">
					<syllabic>end</syllabic>
					<text>man</text>
				</lyric>
				<lyric default-y="-135" number="2">
					<syllabic>single</syllabic>
					<text>los´</text>
				</lyric>
			</note>
			<note>
				<pitch>
					<step>C</step>
					<alter>1</alter>
					<octave>4</octave>
				</pitch>
				<duration>480</duration>
				<voice>2</voice>
				<type>quarter</type>
				<accidental>sharp</accidental>
				<stem>down</stem>
				<staff>1</staff>
				<lyric default-y="-110" number="1">
					<syllabic>single</syllabic>
					<text>läßt</text>
				</lyric>
				<lyric default-y="-135" number="2">
					<syllabic>single</syllabic>
					<text>Hauf´</text>
				</lyric>
			</note>
			<note>
				<pitch>
					<step>D</step>
					<octave>4</octave>
				</pitch>
				<duration>480</duration>
				<voice>2</voice>
				<type>quarter</type>
				<stem>down</stem>
				<staff>1</staff>
				<lyric default-y="-110" number="1">
					<syllabic>single</syllabic>
					<text>nicht</text>
				</lyric>
				<lyric default-y="-135" number="2">
					<syllabic>single</syllabic>
					<text>sich</text>
				</lyric>
			</note>
			<backup>
				<duration>1920</duration>
			</backup>
			<note>
				<pitch>
					<step>A</step>
					<octave>3</octave>
				</pitch>
				<duration>480</duration>
				<voice>3</voice>
				<type>quarter</type>
				<stem>up</stem>
				<staff>2</staff>
			</note>
			<note>
				<pitch>
					<step>A</step>
					<octave>3</octave>
				</pitch>
				<duration>480</duration>
				<voice>3</voice>
				<type>quarter</type>
				<stem>up</stem>
				<staff>2</staff>
			</note>
			<note>
				<pitch>
					<step>A</step>
					<octave>3</octave>
				</pitch>
				<duration>480</duration>
				<voice>3</voice>
				<type>quarter</type>
				<stem>up</stem>
				<staff>2</staff>
			</note>
			<note>
				<pitch>
					<step>A</step>
					<octave>3</octave>
				</pitch>
				<duration>480</duration>
				<voice>3</voice>
				<type>quarter</type>
				<stem>up</stem>
				<staff>2</staff>
			</note>
			<backup>
				<duration>1920</duration>
			</backup>
			<note>
				<pitch>
					<step>C</step>
					<alter>1</alter>
					<octave>3</octave>
				</pitch>
				<duration>480</duration>
				<voice>4</voice>
				<type>quarter</type>
				<accidental>sharp</accidental>
				<stem>down</stem>
				<staff>2</staff>
			</note>
			<note>
				<pitch>
					<step>D</step>
					<octave>3</octave>
				</pitch>
				<duration>480</duration>
				<voice>4</voice>
				<type>quarter</type>
				<stem>down</stem>
				<staff>2</staff>
			</note>
			<note>
				<pitch>
					<step>A</step>
					<octave>3</octave>
				</pitch>
				<duration>240</duration>
				<voice>4</voice>
				<type>eighth</type>
				<stem>down</stem>
				<staff>2</staff>
				<beam number="1">begin</beam>
			</note>
			<note>
				<pitch>
					<step>G</step>
					<octave>3</octave>
				</pitch>
				<duration>240</duration>
				<voice>4</voice>
				<type>eighth</type>
				<stem>down</stem>
				<staff>2</staff>
				<beam number="1">end</beam>
			</note>
			<note>
				<pitch>
					<step>F</step>
					<octave>3</octave>
				</pitch>
				<duration>240</duration>
				<voice>4</voice>
				<type>eighth</type>
				<accidental cautionary="yes">natural</accidental>
				<stem>down</stem>
				<staff>2</staff>
				<beam number="1">begin</beam>
			</note>
			<note>
				<pitch>
					<step>E</step>
					<octave>3</octave>
				</pitch>
				<duration>240</duration>
				<voice>4</voice>
				<type>eighth</type>
				<stem>down</stem>
				<staff>2</staff>
				<beam number="1">end</beam>
			</note>
		</measure>
		<measure number="7">
			<note>
				<pitch>
					<step>F</step>
					<octave>4</octave>
				</pitch>
				<duration>480</duration>
				<voice>1</voice>
				<type>quarter</type>
				<stem>up</stem>
				<staff>1</staff>
			</note>
			<note>
				<pitch>
					<step>G</step>
					<octave>4</octave>
				</pitch>
				<duration>480</duration>
				<voice>1</voice>
				<type>quarter</type>
				<stem>up</stem>
				<staff>1</staff>
			</note>
			<note>
				<pitch>
					<step>A</step>
					<octave>4</octave>
				</pitch>
				<duration>480</duration>
				<voice>1</voice>
				<type>quarter</type>
				<stem>up</stem>
				<staff>1</staff>
				<notations>
					<fermata type="upright"/>
				</notations>
			</note>
			<note>
				<pitch>
					<step>F</step>
					<octave>4</octave>
				</pitch>
				<duration>480</duration>
				<voice>1</voice>
				<type>quarter</type>
				<stem>up</stem>
				<staff>1</staff>
			</note>
			<backup>
				<duration>1920</duration>
			</backup>
			<note>
				<pitch>
					<step>D</step>
					<octave>4</octave>
				</pitch>
				<duration>480</duration>
				<voice>2</voice>
				<type>quarter</type>
				<stem>down</stem>
				<staff>1</staff>
				<lyric default-y="-110" number="1">
					<syllabic>begin</syllabic>
					<text>ha</text>
				</lyric>
				<lyric default-y="-135" number="2">
					<syllabic>middle</syllabic>
					<text>um</text>
				</lyric>
			</note>
			<note>
				<pitch>
					<step>D</step>
					<octave>4</octave>
				</pitch>
				<duration>480</duration>
				<voice>2</voice>
				<type>quarter</type>
				<stem>down</stem>
				<staff>1</staff>
				<lyric default-y="-110" number="1">
					<syllabic>end</syllabic>
					<text>ben</text>
				</lyric>
				<lyric default-y="-135" number="2">
					<syllabic>single</syllabic>
					<text>her</text>
				</lyric>
			</note>
			<note>
				<pitch>
					<step>E</step>
					<octave>4</octave>
				</pitch>
				<duration>480</duration>
				<voice>2</voice>
				<type>quarter</type>
				<stem>down</stem>
				<staff>1</staff>
				<lyric default-y="-110" number="1">
					<syllabic>single</syllabic>
					<text>wahr,</text>
				</lyric>
				<lyric default-y="-135" number="2">
					<syllabic>single</syllabic>
					<text>find´t,</text>
				</lyric>
			</note>
			<note>
				<pitch>
					<step>D</step>
					<octave>4</octave>
				</pitch>
				<duration>240</duration>
				<voice>2</voice>
				<type>eighth</type>
				<stem>down</stem>
				<staff>1</staff>
				<beam number="1">begin</beam>
				<lyric default-y="-110" number="1">
					<syllabic>single</syllabic>
					<text>der</text>
				</lyric>
				<lyric default-y="-135" number="2">
					<syllabic>single</syllabic>
					<text>wo</text>
				</lyric>
			</note>
			<note>
				<pitch>
					<step>C</step>
					<octave>4</octave>
				</pitch>
				<duration>240</duration>
				<voice>2</voice>
				<type>eighth</type>
				<accidental cautionary="yes">natural</accidental>
				<stem>down</stem>
				<staff>1</staff>
				<beam number="1">end</beam>
			</note>
			<backup>
				<duration>1920</duration>
			</backup>
			<note>
				<pitch>
					<step>A</step>
					<octave>3</octave>
				</pitch>
				<duration>480</duration>
				<voice>3</voice>
				<type>quarter</type>
				<stem>up</stem>
				<staff>2</staff>
			</note>
			<note>
				<pitch>
					<step>D</step>
					<octave>4</octave>
				</pitch>
				<duration>480</duration>
				<voice>3</voice>
				<type>quarter</type>
				<stem>up</stem>
				<staff>2</staff>
			</note>
			<note>
				<pitch>
					<step>C</step>
					<alter>1</alter>
					<octave>4</octave>
				</pitch>
				<duration>480</duration>
				<voice>3</voice>
				<type>quarter</type>
				<accidental>sharp</accidental>
				<stem>up</stem>
				<staff>2</staff>
			</note>
			<note>
				<pitch>
					<step>A</step>
					<octave>3</octave>
				</pitch>
				<duration>480</duration>
				<voice>3</voice>
				<type>quarter</type>
				<stem>up</stem>
				<staff>2</staff>
			</note>
			<backup>
				<duration>1920</duration>
			</backup>
			<note>
				<pitch>
					<step>D</step>
					<octave>3</octave>
				</pitch>
				<duration>240</duration>
				<voice>4</voice>
				<type>eighth</type>
				<stem>down</stem>
				<staff>2</staff>
				<beam number="1">begin</beam>
			</note>
			<note>
				<pitch>
					<step>C</step>
					<octave>3</octave>
				</pitch>
				<duration>240</duration>
				<voice>4</voice>
				<type>eighth</type>
				<accidental cautionary="yes">natural</accidental>
				<stem>down</stem>
				<staff>2</staff>
				<beam number="1">end</beam>
			</note>
			<note>
				<pitch>
					<step>B</step>
					<alter>-1</alter>
					<octave>2</octave>
				</pitch>
				<duration>480</duration>
				<voice>4</voice>
				<type>quarter</type>
				<stem>down</stem>
				<staff>2</staff>
			</note>
			<note>
				<pitch>
					<step>A</step>
					<octave>2</octave>
				</pitch>
				<duration>480</duration>
				<voice>4</voice>
				<type>quarter</type>
				<stem>down</stem>
				<staff>2</staff>
				<notations>
					<fermata type="inverted"/>
				</notations>
			</note>
			<note>
				<pitch>
					<step>D</step>
					<octave>3</octave>
				</pitch>
				<duration>480</duration>
				<voice>4</voice>
				<type>quarter</type>
				<stem>down</stem>
				<staff>2</staff>
			</note>
		</measure>
		<measure number="8">
			<note>
				<pitch>
					<step>G</step>
					<octave>4</octave>
				</pitch>
				<duration>240</duration>
				<voice>1</voice>
				<type>eighth</type>
				<stem>up</stem>
				<staff>1</staff>
				<beam number="1">begin</beam>
			</note>
			<note>
				<pitch>
					<step>A</step>
					<octave>4</octave>
				</pitch>
				<duration>240</duration>
				<voice>1</voice>
				<type>eighth</type>
				<stem>up</stem>
				<staff>1</staff>
				<beam number="1">end</beam>
			</note>
			<note>
				<pitch>
					<step>B</step>
					<alter>-1</alter>
					<octave>4</octave>
				</pitch>
				<duration>480</duration>
				<voice>1</voice>
				<type>quarter</type>
				<stem>up</stem>
				<staff>1</staff>
			</note>
			<note>
				<pitch>
					<step>A</step>
					<octave>4</octave>
				</pitch>
				<duration>480</duration>
				<voice>1</voice>
				<type>quarter</type>
				<stem>up</stem>
				<staff>1</staff>
			</note>
			<note>
				<pitch>
					<step>B</step>
					<alter>-1</alter>
					<octave>4</octave>
				</pitch>
				<duration>480</duration>
				<voice>1</voice>
				<type>quarter</type>
				<stem>up</stem>
				<staff>1</staff>
			</note>
			<backup>
				<duration>1920</duration>
			</backup>
			<note>
				<pitch>
					<step>B</step>
					<alter>-1</alter>
					<octave>3</octave>
				</pitch>
				<duration>240</duration>
				<voice>2</voice>
				<type>eighth</type>
				<stem>down</stem>
				<staff>1</staff>
				<beam number="1">begin</beam>
				<lyric default-y="-110" number="1">
					<syllabic>single</syllabic>
					<text>Glaub´</text>
				</lyric>
				<lyric default-y="-135" number="2">
					<syllabic>single</syllabic>
					<text>sol</text>
				</lyric>
			</note>
			<note>
				<pitch>
					<step>C</step>
					<octave>4</octave>
				</pitch>
				<duration>240</duration>
				<voice>2</voice>
				<type>eighth</type>
				<stem>down</stem>
				<staff>1</staff>
				<beam number="1">end</beam>
			</note>
			<note>
				<pitch>
					<step>D</step>
					<octave>4</octave>
				</pitch>
				<duration>480</duration>
				<voice>2</voice>
				<type>quarter</type>
				<stem>down</stem>
				<staff>1</staff>
				<lyric default-y="-110" number="1">
					<syllabic>single</syllabic>
					<text>ist</text>
				</lyric>
				<lyric default-y="-135" number="2">
					<syllabic>single</syllabic>
					<text>che</text>
				</lyric>
			</note>
			<note>
				<pitch>
					<step>C</step>
					<octave>4</octave>
				</pitch>
				<duration>480</duration>
				<voice>2</voice>
				<type>quarter</type>
				<stem>down</stem>
				<staff>1</staff>
				<lyric default-y="-110" number="1">
					<syllabic>single</syllabic>
					<text>auch</text>
				</lyric>
				<lyric default-y="-135" number="2">
					<syllabic>begin</syllabic>
					<text>lo</text>
				</lyric>
			</note>
			<note>
				<pitch>
					<step>D</step>
					<octave>4</octave>
				</pitch>
				<duration>480</duration>
				<voice>2</voice>
				<type>quarter</type>
				<stem>down</stem>
				<staff>1</staff>
				<lyric default-y="-110" number="1">
					<syllabic>middle</syllabic>
					<text>ver</text>
				</lyric>
				<lyric default-y="-135" number="2">
					<syllabic>end</syllabic>
					<text>se</text>
				</lyric>
			</note>
			<backup>
				<duration>1920</duration>
			</backup>
			<note>
				<pitch>
					<step>G</step>
					<octave>3</octave>
				</pitch>
				<duration>480</duration>
				<voice>3</voice>
				<type>quarter</type>
				<stem>up</stem>
				<staff>2</staff>
			</note>
			<note>
				<pitch>
					<step>F</step>
					<octave>3</octave>
				</pitch>
				<duration>240</duration>
				<voice>3</voice>
				<type>eighth</type>
				<stem>up</stem>
				<staff>2</staff>
				<beam number="1">begin</beam>
			</note>
			<note>
				<pitch>
					<step>G</step>
					<octave>3</octave>
				</pitch>
				<duration>240</duration>
				<voice>3</voice>
				<type>eighth</type>
				<stem>up</stem>
				<staff>2</staff>
				<beam number="1">end</beam>
			</note>
			<note>
				<pitch>
					<step>A</step>
					<octave>3</octave>
				</pitch>
				<duration>240</duration>
				<voice>3</voice>
				<type>eighth</type>
				<stem>up</stem>
				<staff>2</staff>
				<beam number="1">begin</beam>
			</note>
			<note>
				<pitch>
					<step>G</step>
					<octave>3</octave>
				</pitch>
				<duration>240</duration>
				<voice>3</voice>
				<type>eighth</type>
				<stem>up</stem>
				<staff>2</staff>
				<beam number="1">end</beam>
			</note>
			<note>
				<pitch>
					<step>F</step>
					<alter>1</alter>
					<octave>3</octave>
				</pitch>
				<duration>480</duration>
				<voice>3</voice>
				<type>quarter</type>
				<accidental>sharp</accidental>
				<stem>up</stem>
				<staff>2</staff>
			</note>
			<backup>
				<duration>1920</duration>
			</backup>
			<note>
				<pitch>
					<step>E</step>
					<alter>-1</alter>
					<octave>3</octave>
				</pitch>
				<duration>480</duration>
				<voice>4</voice>
				<type>quarter</type>
				<accidental>flat</accidental>
				<stem>down</stem>
				<staff>2</staff>
			</note>
			<note>
				<pitch>
					<step>D</step>
					<octave>3</octave>
				</pitch>
				<duration>240</duration>
				<voice>4</voice>
				<type>eighth</type>
				<stem>down</stem>
				<staff>2</staff>
				<beam number="1">begin</beam>
			</note>
			<note>
				<pitch>
					<step>E</step>
					<octave>3</octave>
				</pitch>
				<duration>240</duration>
				<voice>4</voice>
				<type>eighth</type>
				<accidental>natural</accidental>
				<stem>down</stem>
				<staff>2</staff>
				<beam number="1">end</beam>
			</note>
			<note>
				<pitch>
					<step>F</step>
					<octave>3</octave>
				</pitch>
				<duration>240</duration>
				<voice>4</voice>
				<type>eighth</type>
				<stem>down</stem>
				<staff>2</staff>
				<beam number="1">begin</beam>
			</note>
			<note>
				<pitch>
					<step>E</step>
					<alter>-1</alter>
					<octave>3</octave>
				</pitch>
				<duration>240</duration>
				<voice>4</voice>
				<type>eighth</type>
				<accidental>flat</accidental>
				<stem>down</stem>
				<staff>2</staff>
				<beam number="1">end</beam>
			</note>
			<note>
				<pitch>
					<step>D</step>
					<octave>3</octave>
				</pitch>
				<duration>240</duration>
				<voice>4</voice>
				<type>eighth</type>
				<stem>down</stem>
				<staff>2</staff>
				<beam number="1">begin</beam>
			</note>
			<note>
				<pitch>
					<step>C</step>
					<octave>3</octave>
				</pitch>
				<duration>240</duration>
				<voice>4</voice>
				<type>eighth</type>
				<stem>down</stem>
				<staff>2</staff>
				<beam number="1">end</beam>
			</note>
		</measure>
		<measure number="9">
			<print new-system="yes">
				<system-layout>
					<system-margins>
						<left-margin>0</left-margin>
						<right-margin>0</right-margin>
					</system-margins>
					<system-distance>160</system-distance>
				</system-layout>
				<staff-layout number="1">
					<staff-distance>80</staff-distance>
				</staff-layout>
				<staff-layout number="2">
					<staff-distance>160</staff-distance>
				</staff-layout>
			</print>
			<note>
				<pitch>
					<step>G</step>
					<octave>4</octave>
				</pitch>
				<duration>480</duration>
				<voice>1</voice>
				<type>quarter</type>
				<stem>up</stem>
				<staff>1</staff>
			</note>
			<note>
				<pitch>
					<step>F</step>
					<alter>1</alter>
					<octave>4</octave>
				</pitch>
				<duration>480</duration>
				<voice>1</voice>
				<type>quarter</type>
				<accidental>sharp</accidental>
				<stem>up</stem>
				<staff>1</staff>
			</note>
			<note>
				<pitch>
					<step>G</step>
					<octave>4</octave>
				</pitch>
				<duration>480</duration>
				<voice>1</voice>
				<type>quarter</type>
				<stem>up</stem>
				<staff>1</staff>
				<notations>
					<fermata type="upright"/>
				</notations>
			</note>
			<note>
				<pitch>
					<step>G</step>
					<octave>4</octave>
				</pitch>
				<duration>480</duration>
				<voice>1</voice>
				<type>quarter</type>
				<stem>up</stem>
				<staff>1</staff>
			</note>
			<backup>
				<duration>1920</duration>
			</backup>
			<note>
				<pitch>
					<step>D</step>
					<octave>4</octave>
				</pitch>
				<duration>240</duration>
				<voice>2</voice>
				<type>eighth</type>
				<stem>down</stem>
				<staff>1</staff>
				<beam number="1">begin</beam>
				<lyric default-y="-115" number="1">
					<syllabic>single</syllabic>
					<text>lo</text>
				</lyric>
				<lyric default-y="-140" number="2">
					<syllabic>single</syllabic>
					<text>Leu</text>
				</lyric>
			</note>
			<note>
				<pitch>
					<step>E</step>
					<alter>-1</alter>
					<octave>4</octave>
				</pitch>
				<duration>240</duration>
				<voice>2</voice>
				<type>eighth</type>
				<accidental>flat</accidental>
				<stem>down</stem>
				<staff>1</staff>
				<beam number="1">end</beam>
			</note>
			<note>
				<pitch>
					<step>D</step>
					<octave>4</octave>
				</pitch>
				<duration>480</duration>
				<voice>2</voice>
				<type>quarter</type>
				<stem>down</stem>
				<staff>1</staff>
				<lyric default-y="-115" number="1">
					<syllabic>single</syllabic>
					<text>schen</text>
				</lyric>
				<lyric default-y="-140" number="2">
					<syllabic>single</syllabic>
					<text>te</text>
				</lyric>
			</note>
			<note>
				<pitch>
					<step>D</step>
					<octave>4</octave>
				</pitch>
				<duration>480</duration>
				<voice>2</voice>
				<type>quarter</type>
				<stem>down</stem>
				<staff>1</staff>
				<lyric default-y="-115" number="1">
					<syllabic>single</syllabic>
					<text>gar</text>
				</lyric>
				<lyric default-y="-140" number="2">
					<syllabic>single</syllabic>
					<text>sind</text>
				</lyric>
			</note>
			<note>
				<pitch>
					<step>D</step>
					<octave>4</octave>
				</pitch>
				<duration>480</duration>
				<voice>2</voice>
				<type>quarter</type>
				<stem>down</stem>
				<staff>1</staff>
				<lyric default-y="-115" number="1">
					<syllabic>single</syllabic>
					<text>bei</text>
				</lyric>
				<lyric default-y="-140" number="2">
					<syllabic>single</syllabic>
					<text>in</text>
				</lyric>
			</note>
			<backup>
				<duration>1920</duration>
			</backup>
			<note>
				<pitch>
					<step>G</step>
					<octave>3</octave>
				</pitch>
				<duration>240</duration>
				<voice>3</voice>
				<type>eighth</type>
				<stem>up</stem>
				<staff>2</staff>
				<beam number="1">begin</beam>
			</note>
			<note>
				<pitch>
					<step>C</step>
					<octave>4</octave>
				</pitch>
				<duration>240</duration>
				<voice>3</voice>
				<type>eighth</type>
				<stem>up</stem>
				<staff>2</staff>
				<beam number="1">end</beam>
			</note>
			<note>
				<pitch>
					<step>A</step>
					<octave>3</octave>
				</pitch>
				<duration>480</duration>
				<voice>3</voice>
				<type>quarter</type>
				<stem>up</stem>
				<staff>2</staff>
			</note>
			<note>
				<pitch>
					<step>B</step>
					<alter>-1</alter>
					<octave>3</octave>
				</pitch>
				<duration>480</duration>
				<voice>3</voice>
				<type>quarter</type>
				<stem>up</stem>
				<staff>2</staff>
			</note>
			<note>
				<pitch>
					<step>B</step>
					<alter>-1</alter>
					<octave>3</octave>
				</pitch>
				<duration>480</duration>
				<voice>3</voice>
				<type>quarter</type>
				<stem>up</stem>
				<staff>2</staff>
			</note>
			<backup>
				<duration>1920</duration>
			</backup>
			<note>
				<pitch>
					<step>B</step>
					<alter>-1</alter>
					<octave>2</octave>
				</pitch>
				<duration>240</duration>
				<voice>4</voice>
				<type>eighth</type>
				<stem>down</stem>
				<staff>2</staff>
				<beam number="1">begin</beam>
			</note>
			<note>
				<pitch>
					<step>C</step>
					<octave>3</octave>
				</pitch>
				<duration>240</duration>
				<voice>4</voice>
				<type>eighth</type>
				<stem>down</stem>
				<staff>2</staff>
				<beam number="1">end</beam>
			</note>
			<note>
				<pitch>
					<step>D</step>
					<octave>3</octave>
				</pitch>
				<duration>480</duration>
				<voice>4</voice>
				<type>quarter</type>
				<stem>down</stem>
				<staff>2</staff>
			</note>
			<note>
				<pitch>
					<step>G</step>
					<octave>2</octave>
				</pitch>
				<duration>480</duration>
				<voice>4</voice>
				<type>quarter</type>
				<stem>down</stem>
				<staff>2</staff>
				<notations>
					<fermata type="inverted"/>
				</notations>
			</note>
			<note>
				<pitch>
					<step>G</step>
					<octave>3</octave>
				</pitch>
				<duration>480</duration>
				<voice>4</voice>
				<type>quarter</type>
				<stem>down</stem>
				<staff>2</staff>
			</note>
		</measure>
		<measure number="10">
			<note>
				<pitch>
					<step>D</step>
					<octave>5</octave>
				</pitch>
				<duration>480</duration>
				<voice>1</voice>
				<type>quarter</type>
				<stem>up</stem>
				<staff>1</staff>
			</note>
			<note>
				<pitch>
					<step>B</step>
					<alter>-1</alter>
					<octave>4</octave>
				</pitch>
				<duration>480</duration>
				<voice>1</voice>
				<type>quarter</type>
				<stem>up</stem>
				<staff>1</staff>
			</note>
			<note>
				<pitch>
					<step>C</step>
					<octave>5</octave>
				</pitch>
				<duration>480</duration>
				<voice>1</voice>
				<type>quarter</type>
				<stem>up</stem>
				<staff>1</staff>
			</note>
			<note>
				<pitch>
					<step>D</step>
					<octave>5</octave>
				</pitch>
				<duration>480</duration>
				<voice>1</voice>
				<type>quarter</type>
				<stem>up</stem>
				<staff>1</staff>
			</note>
			<backup>
				<duration>1920</duration>
			</backup>
			<note>
				<pitch>
					<step>D</step>
					<octave>4</octave>
				</pitch>
				<duration>480</duration>
				<voice>2</voice>
				<type>quarter</type>
				<stem>down</stem>
				<staff>1</staff>
				<lyric default-y="-115" number="1">
					<syllabic>begin</syllabic>
					<text>al</text>
				</lyric>
				<lyric default-y="-140" number="2">
					<syllabic>middle</syllabic>
					<text>dei</text>
				</lyric>
			</note>
			<note>
				<pitch>
					<step>D</step>
					<octave>4</octave>
				</pitch>
				<duration>480</duration>
				<voice>2</voice>
				<type>quarter</type>
				<stem>down</stem>
				<staff>1</staff>
				<lyric default-y="-115" number="1">
					<syllabic>end</syllabic>
					<text>len</text>
				</lyric>
				<lyric default-y="-140" number="2">
					<syllabic>single</syllabic>
					<text>nem</text>
				</lyric>
			</note>
			<note>
				<pitch>
					<step>E</step>
					<alter>-1</alter>
					<octave>4</octave>
				</pitch>
				<duration>480</duration>
				<voice>2</voice>
				<type>quarter</type>
				<accidental>flat</accidental>
				<stem>down</stem>
				<staff>1</staff>
				<lyric default-y="-115" number="1">
					<syllabic>begin</syllabic>
					<text>Men</text>
				</lyric>
				<lyric default-y="-140" number="2">
					<syllabic>end</syllabic>
					<text>Volk</text>
				</lyric>
			</note>
			<note>
				<pitch>
					<step>F</step>
					<octave>4</octave>
				</pitch>
				<duration>480</duration>
				<voice>2</voice>
				<type>quarter</type>
				<accidental cautionary="yes">natural</accidental>
				<stem>down</stem>
				<staff>1</staff>
				<lyric default-y="-115" number="1">
					<syllabic>begin</syllabic>
					<text>schen</text>
				</lyric>
				<lyric default-y="-140" number="2">
					<syllabic>middle</syllabic>
					<text>er</text>
				</lyric>
			</note>
			<backup>
				<duration>1920</duration>
			</backup>
			<note>
				<pitch>
					<step>A</step>
					<octave>3</octave>
				</pitch>
				<duration>480</duration>
				<voice>3</voice>
				<type>quarter</type>
				<stem>up</stem>
				<staff>2</staff>
			</note>
			<note>
				<pitch>
					<step>G</step>
					<octave>3</octave>
				</pitch>
				<duration>480</duration>
				<voice>3</voice>
				<type>quarter</type>
				<stem>up</stem>
				<staff>2</staff>
			</note>
			<note>
				<pitch>
					<step>G</step>
					<octave>3</octave>
				</pitch>
				<duration>480</duration>
				<voice>3</voice>
				<type>quarter</type>
				<stem>up</stem>
				<staff>2</staff>
			</note>
			<note>
				<pitch>
					<step>G</step>
					<octave>3</octave>
				</pitch>
				<duration>480</duration>
				<voice>3</voice>
				<type>quarter</type>
				<stem>up</stem>
				<staff>2</staff>
			</note>
			<backup>
				<duration>1920</duration>
			</backup>
			<note>
				<pitch>
					<step>F</step>
					<alter>1</alter>
					<octave>3</octave>
				</pitch>
				<duration>480</duration>
				<voice>4</voice>
				<type>quarter</type>
				<accidental>sharp</accidental>
				<stem>down</stem>
				<staff>2</staff>
			</note>
			<note>
				<pitch>
					<step>G</step>
					<octave>3</octave>
				</pitch>
				<duration>240</duration>
				<voice>4</voice>
				<type>eighth</type>
				<stem>down</stem>
				<staff>2</staff>
				<beam number="1">begin</beam>
			</note>
			<note>
				<pitch>
					<step>F</step>
					<octave>3</octave>
				</pitch>
				<duration>240</duration>
				<voice>4</voice>
				<type>eighth</type>
				<accidental>natural</accidental>
				<stem>down</stem>
				<staff>2</staff>
				<beam number="1">end</beam>
			</note>
			<note>
				<pitch>
					<step>E</step>
					<alter>-1</alter>
					<octave>3</octave>
				</pitch>
				<duration>240</duration>
				<voice>4</voice>
				<type>eighth</type>
				<accidental>flat</accidental>
				<stem>down</stem>
				<staff>2</staff>
				<beam number="1">begin</beam>
			</note>
			<note>
				<pitch>
					<step>D</step>
					<octave>3</octave>
				</pitch>
				<duration>240</duration>
				<voice>4</voice>
				<type>eighth</type>
				<stem>down</stem>
				<staff>2</staff>
				<beam number="1">end</beam>
			</note>
			<note>
				<pitch>
					<step>C</step>
					<octave>3</octave>
				</pitch>
				<duration>240</duration>
				<voice>4</voice>
				<type>eighth</type>
				<stem>down</stem>
				<staff>2</staff>
				<beam number="1">begin</beam>
			</note>
			<note>
				<pitch>
					<step>B</step>
					<octave>2</octave>
				</pitch>
				<duration>240</duration>
				<voice>4</voice>
				<type>eighth</type>
				<accidental>natural</accidental>
				<stem>down</stem>
				<staff>2</staff>
				<beam number="1">end</beam>
			</note>
		</measure>
		<measure number="11">
			<note>
				<pitch>
					<step>C</step>
					<octave>5</octave>
				</pitch>
				<duration>240</duration>
				<voice>1</voice>
				<type>eighth</type>
				<stem>up</stem>
				<staff>1</staff>
				<notations>
					<slur number="1" placement="above" type="start"/>
				</notations>
			</note>
			<note print-object="no">
				<rest/>
				<duration>240</duration>
				<voice>1</voice>
				<type>eighth</type>
				<staff>1</staff>
			</note>
			<note>
				<pitch>
					<step>B</step>
					<alter>-1</alter>
					<octave>4</octave>
				</pitch>
				<duration>480</duration>
				<voice>1</voice>
				<type>quarter</type>
				<stem>up</stem>
				<staff>1</staff>
			</note>
			<note>
				<pitch>
					<step>A</step>
					<octave>4</octave>
				</pitch>
				<duration>960</duration>
				<voice>1</voice>
				<type>half</type>
				<stem>up</stem>
				<staff>1</staff>
				<notations>
					<slur number="1" type="stop"/>
				</notations>
			</note>
			<backup>
				<duration>1920</duration>
			</backup>
			<note>
				<pitch>
					<step>E</step>
					<alter>-1</alter>
					<octave>4</octave>
				</pitch>
				<duration>480</duration>
				<voice>2</voice>
				<type>quarter</type>
				<accidental>flat</accidental>
				<stem>down</stem>
				<staff>1</staff>
				<notations>
					<slur number="1" placement="below" type="start"/>
				</notations>
				<lyric default-y="-115" number="1">
					<syllabic>end</syllabic>
					<text>kin</text>
				</lyric>
				<lyric default-y="-140" number="2">
					<syllabic>single</syllabic>
					<text>ha</text>
				</lyric>
			</note>
			<note>
				<pitch>
					<step>D</step>
					<octave>4</octave>
				</pitch>
				<duration>480</duration>
				<voice>2</voice>
				<type>quarter</type>
				<stem>down</stem>
				<staff>1</staff>
			</note>
			<note>
				<pitch>
					<step>C</step>
					<alter>1</alter>
					<octave>4</octave>
				</pitch>
				<duration>240</duration>
				<voice>2</voice>
				<type>eighth</type>
				<accidental>sharp</accidental>
				<stem>down</stem>
				<staff>1</staff>
			</note>
			<note>
				<pitch>
					<step>D</step>
					<octave>4</octave>
				</pitch>
				<duration>480</duration>
				<voice>2</voice>
				<type>quarter</type>
				<stem>down</stem>
				<staff>1</staff>
			</note>
			<note>
				<pitch>
					<step>C</step>
					<alter>1</alter>
					<octave>4</octave>
				</pitch>
				<duration>240</duration>
				<voice>2</voice>
				<type>eighth</type>
				<stem>down</stem>
				<staff>1</staff>
				<notations>
					<slur number="1" type="stop"/>
				</notations>
			</note>
			<backup>
				<duration>1920</duration>
			</backup>
			<note>
				<pitch>
					<step>G</step>
					<octave>3</octave>
				</pitch>
				<duration>960</duration>
				<tie type="start"/>
				<voice>3</voice>
				<type>half</type>
				<stem>up</stem>
				<staff>2</staff>
				<notations>
					<tied type="start"/>
				</notations>
			</note>
			<note>
				<pitch>
					<step>G</step>
					<octave>3</octave>
				</pitch>
				<duration>240</duration>
				<tie type="stop"/>
				<voice>3</voice>
				<type>eighth</type>
				<stem>up</stem>
				<staff>2</staff>
				<beam number="1">begin</beam>
				<notations>
					<tied type="stop"/>
					<slur number="1" placement="above" type="start"/>
				</notations>
			</note>
			<note>
				<pitch>
					<step>F</step>
					<octave>3</octave>
				</pitch>
				<duration>240</duration>
				<voice>3</voice>
				<type>eighth</type>
				<stem>up</stem>
				<staff>2</staff>
				<beam number="1">end</beam>
				<notations>
					<slur number="1" type="stop"/>
				</notations>
			</note>
			<note>
				<pitch>
					<step>E</step>
					<octave>3</octave>
				</pitch>
				<duration>480</duration>
				<voice>3</voice>
				<type>quarter</type>
				<accidental cautionary="yes">natural</accidental>
				<stem>up</stem>
				<staff>2</staff>
			</note>
			<backup>
				<duration>1920</duration>
			</backup>
			<note>
				<pitch>
					<step>C</step>
					<octave>3</octave>
				</pitch>
				<duration>480</duration>
				<voice>4</voice>
				<type>quarter</type>
				<stem>down</stem>
				<staff>2</staff>
				<notations>
					<slur number="1" placement="below" type="start"/>
				</notations>
			</note>
			<note>
				<pitch>
					<step>G</step>
					<octave>2</octave>
				</pitch>
				<duration>480</duration>
				<voice>4</voice>
				<type>quarter</type>
				<stem>down</stem>
				<staff>2</staff>
			</note>
			<note>
				<pitch>
					<step>A</step>
					<octave>2</octave>
				</pitch>
				<duration>960</duration>
				<voice>4</voice>
				<type>half</type>
				<stem>down</stem>
				<staff>2</staff>
				<notations>
					<slur number="1" type="stop"/>
				</notations>
			</note>
		</measure>
		<measure number="12">
			<note>
				<pitch>
					<step>A</step>
					<octave>4</octave>
				</pitch>
				<duration>1440</duration>
				<voice>1</voice>
				<type>half</type>
				<dot/>
				<stem>up</stem>
				<staff>1</staff>
				<notations>
					<fermata type="upright"/>
				</notations>
			</note>
			<backup>
				<duration>1440</duration>
			</backup>
			<note>
				<pitch>
					<step>D</step>
					<octave>4</octave>
				</pitch>
				<duration>1440</duration>
				<voice>2</voice>
				<type>half</type>
				<dot/>
				<stem>down</stem>
				<staff>1</staff>
				<lyric default-y="-115" number="1">
					<syllabic>single</syllabic>
					<text>dern.</text>
				</lyric>
				<lyric default-y="-140" number="2">
					<syllabic>single</syllabic>
					<text>ben.</text>
				</lyric>
			</note>
			<backup>
				<duration>1440</duration>
			</backup>
			<note>
				<pitch>
					<step>F</step>
					<alter>1</alter>
					<octave>3</octave>
				</pitch>
				<duration>1440</duration>
				<voice>3</voice>
				<type>half</type>
				<dot/>
				<accidental>sharp</accidental>
				<stem>up</stem>
				<staff>2</staff>
			</note>
			<backup>
				<duration>1440</duration>
			</backup>
			<note>
				<pitch>
					<step>D</step>
					<octave>3</octave>
				</pitch>
				<duration>1440</duration>
				<voice>4</voice>
				<type>half</type>
				<dot/>
				<stem>down</stem>
				<staff>2</staff>
				<notations>
					<fermata type="inverted"/>
				</notations>
			</note>
			<barline>
				<bar-style>light-heavy</bar-style>
			</barline>
		</measure>
	</part>
</score-partwise>
