<?xml version="1.0" encoding="UTF-8" standalone="no"?>
<!--MusicXML 2.0 file created by CapToMusic.py CapXML to MusicXML converter version 1.35-->
<!DOCTYPE score-partwise PUBLIC "-//Recordare//DTD MusicXML 2.0 Partwise//EN" "http://www.musicxml.org/dtds/partwise.dtd">
<score-partwise version="2.0">
	<identification>
		<encoding>
			<encoding-date>2015-11-09</encoding-date>
			<software>CapToMusic.py CapXML to MusicXML converter version 1.35</software>
			<encoding-description>Options: FinaleDolet33=1, ChordCaseMatters=1, ExportToSibelius=0</encoding-description>
		</encoding>
	</identification>
	<defaults>
		<scaling>
			<millimeters>1.6</millimeters>
			<tenths>10.0</tenths>
		</scaling>
		<page-layout>
			<page-height>1856</page-height>
			<page-width>1312</page-width>
			<page-margins type="both">
				<left-margin>125</left-margin>
				<right-margin>125</right-margin>
				<top-margin>125</top-margin>
				<bottom-margin>125</bottom-margin>
			</page-margins>
		</page-layout>
		<system-layout>
			<system-margins>
				<left-margin>0</left-margin>
				<right-margin>0</right-margin>
			</system-margins>
			<system-distance>20</system-distance>
		</system-layout>
	</defaults>
	<credit>
		<credit-words></credit-words>
	</credit>
	<part-list>
		<score-part id="P1">
			<part-name></part-name>
			<part-abbreviation></part-abbreviation>
			<score-instrument id="P1-I1">
				<instrument-name>Midi_20</instrument-name>
			</score-instrument>
			<midi-instrument id="P1-I1">
				<midi-channel>1</midi-channel>
				<midi-program>20</midi-program>
			</midi-instrument>
		</score-part>
	</part-list>
	<part id="P1">
		<measure number="1">
			<print>
				<system-layout>
					<system-margins>
						<left-margin>130</left-margin>
						<right-margin>0</right-margin>
					</system-margins>
					<top-system-distance>150</top-system-distance>
				</system-layout>
				<staff-layout number="1">
					<staff-distance>110</staff-distance>
				</staff-layout>
				<staff-layout number="2">
					<staff-distance>70</staff-distance>
				</staff-layout>
			</print>
			<attributes>
				<divisions>480</divisions>
				<key>
					<fifths>0</fifths>
					<mode>major</mode>
				</key>
				<time symbol="common">
					<beats>4</beats>
					<beat-type>4</beat-type>
				</time>
				<staves>2</staves>
				<clef number="1">
					<sign>G</sign>
					<line>2</line>
				</clef>
			</attributes>
			<note>
				<pitch>
					<step>G</step>
					<octave>4</octave>
				</pitch>
				<duration>1440</duration>
				<voice>1</voice>
				<type>half</type>
				<dot/>
				<staff>1</staff>
			</note>
			<note>
				<pitch>
					<step>F</step>
					<octave>4</octave>
				</pitch>
				<duration>480</duration>
				<voice>1</voice>
				<type>quarter</type>
				<staff>1</staff>
			</note>
			<backup>
				<duration>1920</duration>
			</backup>
			<attributes>
				<staves>2</staves>
				<clef number="2">
					<sign>F</sign>
					<line>4</line>
				</clef>
			</attributes>
			<note>
				<rest/>
				<duration>960</duration>
				<voice>2</voice>
				<type>half</type>
				<staff>2</staff>
			</note>
			<note>
				<pitch>
					<step>C</step>
					<octave>4</octave>
				</pitch>
				<duration>960</duration>
				<tie type="start"/>
				<voice>2</voice>
				<type>half</type>
				<staff>2</staff>
				<notations>
					<tied type="start"/>
				</notations>
			</note>
		</measure>
		<measure number="2">
			<note>
				<pitch>
					<step>E</step>
					<octave>4</octave>
				</pitch>
				<duration>480</duration>
				<voice>1</voice>
				<type>quarter</type>
				<staff>1</staff>
			</note>
			<note>
				<pitch>
					<step>D</step>
					<octave>4</octave>
				</pitch>
				<duration>480</duration>
				<voice>1</voice>
				<type>quarter</type>
				<staff>1</staff>
			</note>
			<direction placement="above">
				<direction-type>
					<words relative-x="-16" default-y="118" font-family="Times New Roman" font-size="17" font-weight="bold" justify="center">Kanon zu 2 Stimmen in C-Dur.</words>
				</direction-type>
				<staff>1</staff>
			</direction>
			<note>
				<pitch>
					<step>C</step>
					<octave>4</octave>
				</pitch>
				<duration>480</duration>
				<voice>1</voice>
				<type>quarter</type>
				<staff>1</staff>
			</note>
			<note>
				<pitch>
					<step>D</step>
					<octave>4</octave>
				</pitch>
				<duration>240</duration>
				<voice>1</voice>
				<type>eighth</type>
				<staff>1</staff>
				<beam number="1">begin</beam>
			</note>
			<note>
				<pitch>
					<step>C</step>
					<octave>4</octave>
				</pitch>
				<duration>240</duration>
				<voice>1</voice>
				<type>eighth</type>
				<staff>1</staff>
				<beam number="1">end</beam>
			</note>
			<backup>
				<duration>1920</duration>
			</backup>
			<note>
				<pitch>
					<step>C</step>
					<octave>4</octave>
				</pitch>
				<duration>480</duration>
				<tie type="stop"/>
				<voice>2</voice>
				<type>quarter</type>
				<staff>2</staff>
				<notations>
					<tied type="stop"/>
				</notations>
			</note>
			<note>
				<pitch>
					<step>D</step>
					<octave>4</octave>
				</pitch>
				<duration>480</duration>
				<voice>2</voice>
				<type>quarter</type>
				<staff>2</staff>
			</note>
			<note>
				<pitch>
					<step>E</step>
					<octave>4</octave>
				</pitch>
				<duration>480</duration>
				<voice>2</voice>
				<type>quarter</type>
				<staff>2</staff>
			</note>
			<note>
				<pitch>
					<step>F</step>
					<octave>4</octave>
				</pitch>
				<duration>480</duration>
				<voice>2</voice>
				<type>quarter</type>
				<staff>2</staff>
			</note>
		</measure>
		<measure number="3">
			<note>
				<pitch>
					<step>B</step>
					<octave>3</octave>
				</pitch>
				<duration>480</duration>
				<voice>1</voice>
				<type>quarter</type>
				<staff>1</staff>
			</note>
			<direction placement="above">
				<direction-type>
					<words relative-x="262" default-y="62" font-family="Times New Roman" font-size="10" justify="right">Johann Sebastian Bach
BWV 1086</words>
				</direction-type>
				<staff>1</staff>
			</direction>
			<note>
				<pitch>
					<step>A</step>
					<octave>3</octave>
				</pitch>
				<duration>240</duration>
				<voice>1</voice>
				<type>eighth</type>
				<staff>1</staff>
				<beam number="1">begin</beam>
			</note>
			<note>
				<pitch>
					<step>B</step>
					<octave>3</octave>
				</pitch>
				<duration>240</duration>
				<voice>1</voice>
				<type>eighth</type>
				<staff>1</staff>
				<beam number="1">end</beam>
			</note>
			<note>
				<pitch>
					<step>C</step>
					<octave>4</octave>
				</pitch>
				<duration>720</duration>
				<voice>1</voice>
				<type>quarter</type>
				<dot/>
				<staff>1</staff>
			</note>
			<note>
				<pitch>
					<step>D</step>
					<octave>4</octave>
				</pitch>
				<duration>240</duration>
				<voice>1</voice>
				<type>eighth</type>
				<staff>1</staff>
			</note>
			<backup>
				<duration>1920</duration>
			</backup>
			<note>
				<pitch>
					<step>G</step>
					<octave>4</octave>
				</pitch>
				<duration>480</duration>
				<voice>2</voice>
				<type>quarter</type>
				<staff>2</staff>
			</note>
			<note>
				<pitch>
					<step>F</step>
					<octave>4</octave>
				</pitch>
				<duration>240</duration>
				<voice>2</voice>
				<type>eighth</type>
				<staff>2</staff>
				<beam number="1">begin</beam>
			</note>
			<note>
				<pitch>
					<step>G</step>
					<octave>4</octave>
				</pitch>
				<duration>240</duration>
				<voice>2</voice>
				<type>eighth</type>
				<staff>2</staff>
				<beam number="1">end</beam>
			</note>
			<note>
				<pitch>
					<step>A</step>
					<octave>4</octave>
				</pitch>
				<duration>480</duration>
				<voice>2</voice>
				<type>quarter</type>
				<staff>2</staff>
			</note>
			<note>
				<pitch>
					<step>B</step>
					<octave>4</octave>
				</pitch>
				<duration>240</duration>
				<voice>2</voice>
				<type>eighth</type>
				<staff>2</staff>
				<beam number="1">begin</beam>
			</note>
			<note>
				<pitch>
					<step>A</step>
					<octave>4</octave>
				</pitch>
				<duration>240</duration>
				<voice>2</voice>
				<type>eighth</type>
				<staff>2</staff>
				<beam number="1">end</beam>
			</note>
		</measure>
		<measure number="4">
			<print new-system="yes">
				<system-layout>
					<system-margins>
						<left-margin>0</left-margin>
						<right-margin>0</right-margin>
					</system-margins>
					<system-distance>90</system-distance>
				</system-layout>
				<staff-layout number="1">
					<staff-distance>30</staff-distance>
				</staff-layout>
				<staff-layout number="2">
					<staff-distance>70</staff-distance>
				</staff-layout>
			</print>
			<note>
				<pitch>
					<step>E</step>
					<octave>4</octave>
				</pitch>
				<duration>240</duration>
				<voice>1</voice>
				<type>eighth</type>
				<staff>1</staff>
				<beam number="1">begin</beam>
			</note>
			<note>
				<pitch>
					<step>F</step>
					<octave>4</octave>
				</pitch>
				<duration>240</duration>
				<voice>1</voice>
				<type>eighth</type>
				<staff>1</staff>
				<beam number="1">continue</beam>
			</note>
			<note>
				<pitch>
					<step>G</step>
					<octave>4</octave>
				</pitch>
				<duration>240</duration>
				<voice>1</voice>
				<type>eighth</type>
				<staff>1</staff>
				<beam number="1">continue</beam>
			</note>
			<note>
				<pitch>
					<step>A</step>
					<octave>4</octave>
				</pitch>
				<duration>240</duration>
				<voice>1</voice>
				<type>eighth</type>
				<staff>1</staff>
				<beam number="1">end</beam>
			</note>
			<note>
				<pitch>
					<step>G</step>
					<octave>4</octave>
				</pitch>
				<duration>960</duration>
				<tie type="start"/>
				<voice>1</voice>
				<type>half</type>
				<staff>1</staff>
				<notations>
					<tied type="start"/>
				</notations>
			</note>
			<backup>
				<duration>1920</duration>
			</backup>
			<note>
				<pitch>
					<step>G</step>
					<octave>4</octave>
				</pitch>
				<duration>720</duration>
				<voice>2</voice>
				<type>quarter</type>
				<dot/>
				<staff>2</staff>
			</note>
			<note>
				<pitch>
					<step>F</step>
					<octave>4</octave>
				</pitch>
				<duration>240</duration>
				<voice>2</voice>
				<type>eighth</type>
				<staff>2</staff>
			</note>
			<note>
				<pitch>
					<step>E</step>
					<octave>4</octave>
				</pitch>
				<duration>240</duration>
				<voice>2</voice>
				<type>eighth</type>
				<staff>2</staff>
				<beam number="1">begin</beam>
			</note>
			<note>
				<pitch>
					<step>D</step>
					<octave>4</octave>
				</pitch>
				<duration>240</duration>
				<voice>2</voice>
				<type>eighth</type>
				<staff>2</staff>
				<beam number="1">continue</beam>
			</note>
			<note>
				<pitch>
					<step>C</step>
					<octave>4</octave>
				</pitch>
				<duration>240</duration>
				<voice>2</voice>
				<type>eighth</type>
				<staff>2</staff>
				<beam number="1">continue</beam>
			</note>
			<note>
				<pitch>
					<step>B</step>
					<octave>3</octave>
				</pitch>
				<duration>240</duration>
				<voice>2</voice>
				<type>eighth</type>
				<staff>2</staff>
				<beam number="1">end</beam>
			</note>
		</measure>
		<measure number="5">
			<note>
				<pitch>
					<step>G</step>
					<octave>4</octave>
				</pitch>
				<duration>480</duration>
				<tie type="stop"/>
				<voice>1</voice>
				<type>quarter</type>
				<staff>1</staff>
				<notations>
					<tied type="stop"/>
				</notations>
			</note>
			<note>
				<pitch>
					<step>A</step>
					<octave>4</octave>
				</pitch>
				<duration>240</duration>
				<voice>1</voice>
				<type>eighth</type>
				<staff>1</staff>
				<beam number="1">begin</beam>
			</note>
			<note>
				<pitch>
					<step>B</step>
					<octave>4</octave>
				</pitch>
				<duration>240</duration>
				<voice>1</voice>
				<type>eighth</type>
				<staff>1</staff>
				<beam number="1">end</beam>
			</note>
			<note>
				<pitch>
					<step>C</step>
					<octave>5</octave>
				</pitch>
				<duration>240</duration>
				<voice>1</voice>
				<type>eighth</type>
				<staff>1</staff>
				<beam number="1">begin</beam>
			</note>
			<note>
				<pitch>
					<step>E</step>
					<octave>5</octave>
				</pitch>
				<duration>240</duration>
				<voice>1</voice>
				<type>eighth</type>
				<staff>1</staff>
				<beam number="1">continue</beam>
			</note>
			<note>
				<pitch>
					<step>D</step>
					<octave>5</octave>
				</pitch>
				<duration>240</duration>
				<voice>1</voice>
				<type>eighth</type>
				<staff>1</staff>
				<beam number="1">continue</beam>
			</note>
			<note>
				<pitch>
					<step>C</step>
					<octave>5</octave>
				</pitch>
				<duration>240</duration>
				<voice>1</voice>
				<type>eighth</type>
				<staff>1</staff>
				<beam number="1">end</beam>
			</note>
			<backup>
				<duration>1920</duration>
			</backup>
			<note>
				<pitch>
					<step>C</step>
					<octave>4</octave>
				</pitch>
				<duration>1440</duration>
				<voice>2</voice>
				<type>half</type>
				<dot/>
				<staff>2</staff>
			</note>
			<note>
				<pitch>
					<step>B</step>
					<octave>3</octave>
				</pitch>
				<duration>240</duration>
				<voice>2</voice>
				<type>eighth</type>
				<staff>2</staff>
				<beam number="1">begin</beam>
			</note>
			<note>
				<pitch>
					<step>A</step>
					<octave>3</octave>
				</pitch>
				<duration>240</duration>
				<voice>2</voice>
				<type>eighth</type>
				<staff>2</staff>
				<beam number="1">end</beam>
			</note>
		</measure>
		<measure number="6">
			<note>
				<pitch>
					<step>B</step>
					<octave>4</octave>
				</pitch>
				<duration>240</duration>
				<voice>1</voice>
				<type>eighth</type>
				<staff>1</staff>
				<beam number="1">begin</beam>
			</note>
			<note>
				<pitch>
					<step>C</step>
					<octave>5</octave>
				</pitch>
				<duration>240</duration>
				<voice>1</voice>
				<type>eighth</type>
				<staff>1</staff>
				<beam number="1">continue</beam>
			</note>
			<note>
				<pitch>
					<step>D</step>
					<octave>5</octave>
				</pitch>
				<duration>240</duration>
				<voice>1</voice>
				<type>eighth</type>
				<staff>1</staff>
				<beam number="1">continue</beam>
			</note>
			<note>
				<pitch>
					<step>E</step>
					<octave>5</octave>
				</pitch>
				<duration>240</duration>
				<voice>1</voice>
				<type>eighth</type>
				<staff>1</staff>
				<beam number="1">end</beam>
			</note>
			<note>
				<pitch>
					<step>F</step>
					<octave>5</octave>
				</pitch>
				<duration>240</duration>
				<voice>1</voice>
				<type>eighth</type>
				<staff>1</staff>
				<beam number="1">begin</beam>
			</note>
			<note>
				<pitch>
					<step>E</step>
					<octave>5</octave>
				</pitch>
				<duration>240</duration>
				<voice>1</voice>
				<type>eighth</type>
				<staff>1</staff>
				<beam number="1">continue</beam>
			</note>
			<note>
				<pitch>
					<step>D</step>
					<octave>5</octave>
				</pitch>
				<duration>240</duration>
				<voice>1</voice>
				<type>eighth</type>
				<staff>1</staff>
				<beam number="1">continue</beam>
			</note>
			<note>
				<pitch>
					<step>C</step>
					<octave>5</octave>
				</pitch>
				<duration>240</duration>
				<voice>1</voice>
				<type>eighth</type>
				<staff>1</staff>
				<beam number="1">end</beam>
			</note>
			<backup>
				<duration>1920</duration>
			</backup>
			<note>
				<pitch>
					<step>G</step>
					<octave>3</octave>
				</pitch>
				<duration>240</duration>
				<voice>2</voice>
				<type>eighth</type>
				<staff>2</staff>
				<beam number="1">begin</beam>
			</note>
			<note>
				<pitch>
					<step>E</step>
					<octave>3</octave>
				</pitch>
				<duration>240</duration>
				<voice>2</voice>
				<type>eighth</type>
				<staff>2</staff>
				<beam number="1">continue</beam>
			</note>
			<note>
				<pitch>
					<step>F</step>
					<octave>3</octave>
				</pitch>
				<duration>240</duration>
				<voice>2</voice>
				<type>eighth</type>
				<staff>2</staff>
				<beam number="1">continue</beam>
			</note>
			<note>
				<pitch>
					<step>G</step>
					<octave>3</octave>
				</pitch>
				<duration>240</duration>
				<voice>2</voice>
				<type>eighth</type>
				<staff>2</staff>
				<beam number="1">end</beam>
			</note>
			<note>
				<pitch>
					<step>A</step>
					<octave>3</octave>
				</pitch>
				<duration>240</duration>
				<voice>2</voice>
				<type>eighth</type>
				<staff>2</staff>
				<beam number="1">begin</beam>
			</note>
			<note>
				<pitch>
					<step>G</step>
					<octave>3</octave>
				</pitch>
				<duration>240</duration>
				<voice>2</voice>
				<type>eighth</type>
				<staff>2</staff>
				<beam number="1">continue</beam>
			</note>
			<note>
				<pitch>
					<step>F</step>
					<octave>3</octave>
				</pitch>
				<duration>240</duration>
				<voice>2</voice>
				<type>eighth</type>
				<staff>2</staff>
				<beam number="1">continue</beam>
			</note>
			<note>
				<pitch>
					<step>E</step>
					<octave>3</octave>
				</pitch>
				<duration>240</duration>
				<voice>2</voice>
				<type>eighth</type>
				<staff>2</staff>
				<beam number="1">end</beam>
			</note>
		</measure>
		<measure number="7">
			<print new-system="yes">
				<system-layout>
					<system-margins>
						<left-margin>0</left-margin>
						<right-margin>0</right-margin>
					</system-margins>
					<system-distance>90</system-distance>
				</system-layout>
				<staff-layout number="1">
					<staff-distance>30</staff-distance>
				</staff-layout>
				<staff-layout number="2">
					<staff-distance>70</staff-distance>
				</staff-layout>
			</print>
			<note>
				<pitch>
					<step>B</step>
					<octave>4</octave>
				</pitch>
				<duration>240</duration>
				<voice>1</voice>
				<type>eighth</type>
				<staff>1</staff>
				<beam number="1">begin</beam>
			</note>
			<note>
				<pitch>
					<step>C</step>
					<octave>5</octave>
				</pitch>
				<duration>240</duration>
				<voice>1</voice>
				<type>eighth</type>
				<staff>1</staff>
				<beam number="1">continue</beam>
			</note>
			<note>
				<pitch>
					<step>D</step>
					<octave>5</octave>
				</pitch>
				<duration>240</duration>
				<voice>1</voice>
				<type>eighth</type>
				<staff>1</staff>
				<beam number="1">continue</beam>
			</note>
			<note>
				<pitch>
					<step>B</step>
					<octave>4</octave>
				</pitch>
				<duration>240</duration>
				<voice>1</voice>
				<type>eighth</type>
				<staff>1</staff>
				<beam number="1">end</beam>
			</note>
			<note>
				<pitch>
					<step>C</step>
					<octave>5</octave>
				</pitch>
				<duration>240</duration>
				<voice>1</voice>
				<type>eighth</type>
				<staff>1</staff>
				<beam number="1">begin</beam>
			</note>
			<note>
				<pitch>
					<step>B</step>
					<octave>4</octave>
				</pitch>
				<duration>240</duration>
				<voice>1</voice>
				<type>eighth</type>
				<staff>1</staff>
				<beam number="1">continue</beam>
			</note>
			<note>
				<pitch>
					<step>A</step>
					<octave>4</octave>
				</pitch>
				<duration>240</duration>
				<voice>1</voice>
				<type>eighth</type>
				<staff>1</staff>
				<beam number="1">continue</beam>
			</note>
			<note>
				<pitch>
					<step>C</step>
					<octave>5</octave>
				</pitch>
				<duration>240</duration>
				<voice>1</voice>
				<type>eighth</type>
				<staff>1</staff>
				<beam number="1">end</beam>
			</note>
			<backup>
				<duration>1920</duration>
			</backup>
			<note>
				<pitch>
					<step>D</step>
					<octave>3</octave>
				</pitch>
				<duration>240</duration>
				<voice>2</voice>
				<type>eighth</type>
				<staff>2</staff>
				<beam number="1">begin</beam>
			</note>
			<note>
				<pitch>
					<step>E</step>
					<octave>3</octave>
				</pitch>
				<duration>240</duration>
				<voice>2</voice>
				<type>eighth</type>
				<staff>2</staff>
				<beam number="1">continue</beam>
			</note>
			<note>
				<pitch>
					<step>F</step>
					<octave>3</octave>
				</pitch>
				<duration>240</duration>
				<voice>2</voice>
				<type>eighth</type>
				<staff>2</staff>
				<beam number="1">continue</beam>
			</note>
			<note>
				<pitch>
					<step>G</step>
					<octave>3</octave>
				</pitch>
				<duration>240</duration>
				<voice>2</voice>
				<type>eighth</type>
				<staff>2</staff>
				<beam number="1">end</beam>
			</note>
			<note>
				<pitch>
					<step>A</step>
					<octave>3</octave>
				</pitch>
				<duration>240</duration>
				<voice>2</voice>
				<type>eighth</type>
				<staff>2</staff>
				<beam number="1">begin</beam>
			</note>
			<note>
				<pitch>
					<step>G</step>
					<octave>3</octave>
				</pitch>
				<duration>240</duration>
				<voice>2</voice>
				<type>eighth</type>
				<staff>2</staff>
				<beam number="1">continue</beam>
			</note>
			<note>
				<pitch>
					<step>F</step>
					<octave>3</octave>
				</pitch>
				<duration>240</duration>
				<voice>2</voice>
				<type>eighth</type>
				<staff>2</staff>
				<beam number="1">continue</beam>
			</note>
			<note>
				<pitch>
					<step>A</step>
					<octave>3</octave>
				</pitch>
				<duration>240</duration>
				<voice>2</voice>
				<type>eighth</type>
				<staff>2</staff>
				<beam number="1">end</beam>
			</note>
		</measure>
		<measure number="8">
			<note>
				<pitch>
					<step>B</step>
					<octave>4</octave>
				</pitch>
				<duration>240</duration>
				<voice>1</voice>
				<type>eighth</type>
				<staff>1</staff>
				<beam number="1">begin</beam>
			</note>
			<note>
				<pitch>
					<step>A</step>
					<octave>4</octave>
				</pitch>
				<duration>240</duration>
				<voice>1</voice>
				<type>eighth</type>
				<staff>1</staff>
				<beam number="1">continue</beam>
			</note>
			<note>
				<pitch>
					<step>G</step>
					<octave>4</octave>
				</pitch>
				<duration>240</duration>
				<voice>1</voice>
				<type>eighth</type>
				<staff>1</staff>
				<beam number="1">continue</beam>
			</note>
			<note>
				<pitch>
					<step>F</step>
					<octave>4</octave>
				</pitch>
				<duration>240</duration>
				<voice>1</voice>
				<type>eighth</type>
				<staff>1</staff>
				<beam number="1">end</beam>
			</note>
			<note>
				<pitch>
					<step>E</step>
					<octave>4</octave>
				</pitch>
				<duration>240</duration>
				<voice>1</voice>
				<type>eighth</type>
				<staff>1</staff>
				<beam number="1">begin</beam>
			</note>
			<note>
				<pitch>
					<step>D</step>
					<octave>4</octave>
				</pitch>
				<duration>240</duration>
				<voice>1</voice>
				<type>eighth</type>
				<staff>1</staff>
				<beam number="1">continue</beam>
			</note>
			<note>
				<pitch>
					<step>E</step>
					<octave>4</octave>
				</pitch>
				<duration>240</duration>
				<voice>1</voice>
				<type>eighth</type>
				<staff>1</staff>
				<beam number="1">continue</beam>
			</note>
			<note>
				<pitch>
					<step>F</step>
					<octave>4</octave>
				</pitch>
				<duration>240</duration>
				<voice>1</voice>
				<type>eighth</type>
				<staff>1</staff>
				<beam number="1">end</beam>
			</note>
			<backup>
				<duration>1920</duration>
			</backup>
			<note>
				<pitch>
					<step>G</step>
					<octave>3</octave>
				</pitch>
				<duration>240</duration>
				<voice>2</voice>
				<type>eighth</type>
				<staff>2</staff>
				<beam number="1">begin</beam>
			</note>
			<note>
				<pitch>
					<step>A</step>
					<octave>3</octave>
				</pitch>
				<duration>240</duration>
				<voice>2</voice>
				<type>eighth</type>
				<staff>2</staff>
				<beam number="1">continue</beam>
			</note>
			<note>
				<pitch>
					<step>B</step>
					<octave>3</octave>
				</pitch>
				<duration>240</duration>
				<voice>2</voice>
				<type>eighth</type>
				<staff>2</staff>
				<beam number="1">continue</beam>
			</note>
			<note>
				<pitch>
					<step>G</step>
					<octave>3</octave>
				</pitch>
				<duration>240</duration>
				<voice>2</voice>
				<type>eighth</type>
				<staff>2</staff>
				<beam number="1">end</beam>
			</note>
			<note>
				<pitch>
					<step>A</step>
					<octave>3</octave>
				</pitch>
				<duration>240</duration>
				<voice>2</voice>
				<type>eighth</type>
				<staff>2</staff>
				<beam number="1">begin</beam>
			</note>
			<note>
				<pitch>
					<step>B</step>
					<octave>3</octave>
				</pitch>
				<duration>240</duration>
				<voice>2</voice>
				<type>eighth</type>
				<staff>2</staff>
				<beam number="1">continue</beam>
			</note>
			<note>
				<pitch>
					<step>C</step>
					<octave>4</octave>
				</pitch>
				<duration>240</duration>
				<voice>2</voice>
				<type>eighth</type>
				<staff>2</staff>
				<beam number="1">continue</beam>
			</note>
			<note>
				<pitch>
					<step>D</step>
					<octave>4</octave>
				</pitch>
				<duration>240</duration>
				<voice>2</voice>
				<type>eighth</type>
				<staff>2</staff>
				<beam number="1">end</beam>
			</note>
		</measure>
		<measure number="9">
			<note>
				<pitch>
					<step>G</step>
					<octave>4</octave>
				</pitch>
				<duration>1440</duration>
				<voice>1</voice>
				<type>half</type>
				<dot/>
				<staff>1</staff>
			</note>
			<note>
				<pitch>
					<step>F</step>
					<octave>4</octave>
				</pitch>
				<duration>480</duration>
				<voice>1</voice>
				<type>quarter</type>
				<staff>1</staff>
			</note>
			<backup>
				<duration>1920</duration>
			</backup>
			<note>
				<pitch>
					<step>E</step>
					<octave>4</octave>
				</pitch>
				<duration>240</duration>
				<voice>2</voice>
				<type>eighth</type>
				<staff>2</staff>
				<beam number="1">begin</beam>
			</note>
			<note>
				<pitch>
					<step>F</step>
					<octave>4</octave>
				</pitch>
				<duration>240</duration>
				<voice>2</voice>
				<type>eighth</type>
				<staff>2</staff>
				<beam number="1">continue</beam>
			</note>
			<note>
				<pitch>
					<step>E</step>
					<octave>4</octave>
				</pitch>
				<duration>240</duration>
				<voice>2</voice>
				<type>eighth</type>
				<staff>2</staff>
				<beam number="1">continue</beam>
			</note>
			<note>
				<pitch>
					<step>D</step>
					<octave>4</octave>
				</pitch>
				<duration>240</duration>
				<voice>2</voice>
				<type>eighth</type>
				<staff>2</staff>
				<beam number="1">end</beam>
			</note>
			<note>
				<pitch>
					<step>C</step>
					<octave>4</octave>
				</pitch>
				<duration>960</duration>
				<tie type="start"/>
				<voice>2</voice>
				<type>half</type>
				<staff>2</staff>
				<notations>
					<tied type="start"/>
				</notations>
			</note>
		</measure>
		<measure number="10">
			<print new-system="yes">
				<system-layout>
					<system-margins>
						<left-margin>0</left-margin>
						<right-margin>0</right-margin>
					</system-margins>
					<system-distance>90</system-distance>
				</system-layout>
				<staff-layout number="1">
					<staff-distance>30</staff-distance>
				</staff-layout>
				<staff-layout number="2">
					<staff-distance>70</staff-distance>
				</staff-layout>
			</print>
			<note>
				<pitch>
					<step>E</step>
					<octave>4</octave>
				</pitch>
				<duration>480</duration>
				<voice>1</voice>
				<type>quarter</type>
				<staff>1</staff>
			</note>
			<note>
				<pitch>
					<step>D</step>
					<octave>4</octave>
				</pitch>
				<duration>480</duration>
				<voice>1</voice>
				<type>quarter</type>
				<staff>1</staff>
			</note>
			<note>
				<pitch>
					<step>C</step>
					<octave>4</octave>
				</pitch>
				<duration>480</duration>
				<voice>1</voice>
				<type>quarter</type>
				<staff>1</staff>
			</note>
			<note>
				<pitch>
					<step>D</step>
					<octave>4</octave>
				</pitch>
				<duration>240</duration>
				<voice>1</voice>
				<type>eighth</type>
				<staff>1</staff>
				<beam number="1">begin</beam>
			</note>
			<note>
				<pitch>
					<step>C</step>
					<octave>4</octave>
				</pitch>
				<duration>240</duration>
				<voice>1</voice>
				<type>eighth</type>
				<staff>1</staff>
				<beam number="1">end</beam>
			</note>
			<backup>
				<duration>1920</duration>
			</backup>
			<note>
				<pitch>
					<step>C</step>
					<octave>4</octave>
				</pitch>
				<duration>480</duration>
				<tie type="stop"/>
				<voice>2</voice>
				<type>quarter</type>
				<staff>2</staff>
				<notations>
					<tied type="stop"/>
				</notations>
			</note>
			<note>
				<pitch>
					<step>D</step>
					<octave>4</octave>
				</pitch>
				<duration>480</duration>
				<voice>2</voice>
				<type>quarter</type>
				<staff>2</staff>
			</note>
			<note>
				<pitch>
					<step>E</step>
					<octave>4</octave>
				</pitch>
				<duration>480</duration>
				<voice>2</voice>
				<type>quarter</type>
				<staff>2</staff>
			</note>
			<note>
				<pitch>
					<step>F</step>
					<octave>4</octave>
				</pitch>
				<duration>480</duration>
				<voice>2</voice>
				<type>quarter</type>
				<staff>2</staff>
			</note>
		</measure>
		<measure number="11">
			<note>
				<pitch>
					<step>B</step>
					<octave>3</octave>
				</pitch>
				<duration>480</duration>
				<voice>1</voice>
				<type>quarter</type>
				<staff>1</staff>
			</note>
			<note>
				<pitch>
					<step>A</step>
					<octave>3</octave>
				</pitch>
				<duration>240</duration>
				<voice>1</voice>
				<type>eighth</type>
				<staff>1</staff>
				<beam number="1">begin</beam>
			</note>
			<note>
				<pitch>
					<step>B</step>
					<octave>3</octave>
				</pitch>
				<duration>240</duration>
				<voice>1</voice>
				<type>eighth</type>
				<staff>1</staff>
				<beam number="1">end</beam>
			</note>
			<note>
				<pitch>
					<step>C</step>
					<octave>4</octave>
				</pitch>
				<duration>720</duration>
				<voice>1</voice>
				<type>quarter</type>
				<dot/>
				<staff>1</staff>
			</note>
			<note>
				<pitch>
					<step>D</step>
					<octave>4</octave>
				</pitch>
				<duration>240</duration>
				<voice>1</voice>
				<type>eighth</type>
				<staff>1</staff>
			</note>
			<backup>
				<duration>1920</duration>
			</backup>
			<note>
				<pitch>
					<step>G</step>
					<octave>4</octave>
				</pitch>
				<duration>480</duration>
				<voice>2</voice>
				<type>quarter</type>
				<staff>2</staff>
			</note>
			<note>
				<pitch>
					<step>F</step>
					<octave>4</octave>
				</pitch>
				<duration>240</duration>
				<voice>2</voice>
				<type>eighth</type>
				<staff>2</staff>
				<beam number="1">begin</beam>
			</note>
			<note>
				<pitch>
					<step>G</step>
					<octave>4</octave>
				</pitch>
				<duration>240</duration>
				<voice>2</voice>
				<type>eighth</type>
				<staff>2</staff>
				<beam number="1">end</beam>
			</note>
			<note>
				<pitch>
					<step>A</step>
					<octave>4</octave>
				</pitch>
				<duration>480</duration>
				<voice>2</voice>
				<type>quarter</type>
				<staff>2</staff>
			</note>
			<note>
				<pitch>
					<step>B</step>
					<octave>4</octave>
				</pitch>
				<duration>240</duration>
				<voice>2</voice>
				<type>eighth</type>
				<staff>2</staff>
				<beam number="1">begin</beam>
			</note>
			<note>
				<pitch>
					<step>A</step>
					<octave>4</octave>
				</pitch>
				<duration>240</duration>
				<voice>2</voice>
				<type>eighth</type>
				<staff>2</staff>
				<beam number="1">end</beam>
			</note>
		</measure>
		<measure number="12">
			<note>
				<pitch>
					<step>E</step>
					<octave>4</octave>
				</pitch>
				<duration>240</duration>
				<voice>1</voice>
				<type>eighth</type>
				<staff>1</staff>
				<beam number="1">begin</beam>
			</note>
			<note>
				<pitch>
					<step>F</step>
					<octave>4</octave>
				</pitch>
				<duration>240</duration>
				<voice>1</voice>
				<type>eighth</type>
				<staff>1</staff>
				<beam number="1">continue</beam>
			</note>
			<note>
				<pitch>
					<step>G</step>
					<octave>4</octave>
				</pitch>
				<duration>240</duration>
				<voice>1</voice>
				<type>eighth</type>
				<staff>1</staff>
				<beam number="1">continue</beam>
			</note>
			<note>
				<pitch>
					<step>A</step>
					<octave>4</octave>
				</pitch>
				<duration>240</duration>
				<voice>1</voice>
				<type>eighth</type>
				<staff>1</staff>
				<beam number="1">end</beam>
			</note>
			<note>
				<pitch>
					<step>G</step>
					<octave>4</octave>
				</pitch>
				<duration>960</duration>
				<tie type="start"/>
				<voice>1</voice>
				<type>half</type>
				<staff>1</staff>
				<notations>
					<tied type="start"/>
				</notations>
			</note>
			<backup>
				<duration>1920</duration>
			</backup>
			<note>
				<pitch>
					<step>G</step>
					<octave>4</octave>
				</pitch>
				<duration>720</duration>
				<voice>2</voice>
				<type>quarter</type>
				<dot/>
				<staff>2</staff>
			</note>
			<note>
				<pitch>
					<step>F</step>
					<octave>4</octave>
				</pitch>
				<duration>240</duration>
				<voice>2</voice>
				<type>eighth</type>
				<staff>2</staff>
			</note>
			<note>
				<pitch>
					<step>E</step>
					<octave>4</octave>
				</pitch>
				<duration>240</duration>
				<voice>2</voice>
				<type>eighth</type>
				<staff>2</staff>
				<beam number="1">begin</beam>
			</note>
			<note>
				<pitch>
					<step>D</step>
					<octave>4</octave>
				</pitch>
				<duration>240</duration>
				<voice>2</voice>
				<type>eighth</type>
				<staff>2</staff>
				<beam number="1">continue</beam>
			</note>
			<note>
				<pitch>
					<step>C</step>
					<octave>4</octave>
				</pitch>
				<duration>240</duration>
				<voice>2</voice>
				<type>eighth</type>
				<staff>2</staff>
				<beam number="1">continue</beam>
			</note>
			<note>
				<pitch>
					<step>B</step>
					<octave>3</octave>
				</pitch>
				<duration>240</duration>
				<voice>2</voice>
				<type>eighth</type>
				<staff>2</staff>
				<beam number="1">end</beam>
			</note>
		</measure>
		<measure number="13">
			<print new-system="yes">
				<system-layout>
					<system-margins>
						<left-margin>0</left-margin>
						<right-margin>0</right-margin>
					</system-margins>
					<system-distance>90</system-distance>
				</system-layout>
				<staff-layout number="1">
					<staff-distance>30</staff-distance>
				</staff-layout>
				<staff-layout number="2">
					<staff-distance>70</staff-distance>
				</staff-layout>
			</print>
			<note>
				<pitch>
					<step>G</step>
					<octave>4</octave>
				</pitch>
				<duration>480</duration>
				<tie type="stop"/>
				<voice>1</voice>
				<type>quarter</type>
				<staff>1</staff>
				<notations>
					<tied type="stop"/>
				</notations>
			</note>
			<note>
				<pitch>
					<step>A</step>
					<octave>4</octave>
				</pitch>
				<duration>240</duration>
				<voice>1</voice>
				<type>eighth</type>
				<staff>1</staff>
				<beam number="1">begin</beam>
			</note>
			<note>
				<pitch>
					<step>B</step>
					<octave>4</octave>
				</pitch>
				<duration>240</duration>
				<voice>1</voice>
				<type>eighth</type>
				<staff>1</staff>
				<beam number="1">end</beam>
			</note>
			<note>
				<pitch>
					<step>C</step>
					<octave>5</octave>
				</pitch>
				<duration>240</duration>
				<voice>1</voice>
				<type>eighth</type>
				<staff>1</staff>
				<beam number="1">begin</beam>
			</note>
			<note>
				<pitch>
					<step>E</step>
					<octave>5</octave>
				</pitch>
				<duration>240</duration>
				<voice>1</voice>
				<type>eighth</type>
				<staff>1</staff>
				<beam number="1">continue</beam>
			</note>
			<note>
				<pitch>
					<step>D</step>
					<octave>5</octave>
				</pitch>
				<duration>240</duration>
				<voice>1</voice>
				<type>eighth</type>
				<staff>1</staff>
				<beam number="1">continue</beam>
			</note>
			<note>
				<pitch>
					<step>C</step>
					<octave>5</octave>
				</pitch>
				<duration>240</duration>
				<voice>1</voice>
				<type>eighth</type>
				<staff>1</staff>
				<beam number="1">end</beam>
			</note>
			<backup>
				<duration>1920</duration>
			</backup>
			<note>
				<pitch>
					<step>C</step>
					<octave>4</octave>
				</pitch>
				<duration>1440</duration>
				<voice>2</voice>
				<type>half</type>
				<dot/>
				<staff>2</staff>
			</note>
			<note>
				<pitch>
					<step>B</step>
					<octave>3</octave>
				</pitch>
				<duration>240</duration>
				<voice>2</voice>
				<type>eighth</type>
				<staff>2</staff>
				<beam number="1">begin</beam>
			</note>
			<note>
				<pitch>
					<step>A</step>
					<octave>3</octave>
				</pitch>
				<duration>240</duration>
				<voice>2</voice>
				<type>eighth</type>
				<staff>2</staff>
				<beam number="1">end</beam>
			</note>
		</measure>
		<measure number="14">
			<note>
				<pitch>
					<step>B</step>
					<octave>4</octave>
				</pitch>
				<duration>240</duration>
				<voice>1</voice>
				<type>eighth</type>
				<staff>1</staff>
				<beam number="1">begin</beam>
			</note>
			<note>
				<pitch>
					<step>C</step>
					<octave>5</octave>
				</pitch>
				<duration>240</duration>
				<voice>1</voice>
				<type>eighth</type>
				<staff>1</staff>
				<beam number="1">continue</beam>
			</note>
			<note>
				<pitch>
					<step>D</step>
					<octave>5</octave>
				</pitch>
				<duration>240</duration>
				<voice>1</voice>
				<type>eighth</type>
				<staff>1</staff>
				<beam number="1">continue</beam>
			</note>
			<note>
				<pitch>
					<step>E</step>
					<octave>5</octave>
				</pitch>
				<duration>240</duration>
				<voice>1</voice>
				<type>eighth</type>
				<staff>1</staff>
				<beam number="1">end</beam>
			</note>
			<note>
				<pitch>
					<step>F</step>
					<octave>5</octave>
				</pitch>
				<duration>240</duration>
				<voice>1</voice>
				<type>eighth</type>
				<staff>1</staff>
				<beam number="1">begin</beam>
			</note>
			<note>
				<pitch>
					<step>E</step>
					<octave>5</octave>
				</pitch>
				<duration>240</duration>
				<voice>1</voice>
				<type>eighth</type>
				<staff>1</staff>
				<beam number="1">continue</beam>
			</note>
			<note>
				<pitch>
					<step>D</step>
					<octave>5</octave>
				</pitch>
				<duration>240</duration>
				<voice>1</voice>
				<type>eighth</type>
				<staff>1</staff>
				<beam number="1">continue</beam>
			</note>
			<note>
				<pitch>
					<step>C</step>
					<octave>5</octave>
				</pitch>
				<duration>240</duration>
				<voice>1</voice>
				<type>eighth</type>
				<staff>1</staff>
				<beam number="1">end</beam>
			</note>
			<backup>
				<duration>1920</duration>
			</backup>
			<note>
				<pitch>
					<step>G</step>
					<octave>3</octave>
				</pitch>
				<duration>240</duration>
				<voice>2</voice>
				<type>eighth</type>
				<staff>2</staff>
				<beam number="1">begin</beam>
			</note>
			<note>
				<pitch>
					<step>E</step>
					<octave>3</octave>
				</pitch>
				<duration>240</duration>
				<voice>2</voice>
				<type>eighth</type>
				<staff>2</staff>
				<beam number="1">continue</beam>
			</note>
			<note>
				<pitch>
					<step>F</step>
					<octave>3</octave>
				</pitch>
				<duration>240</duration>
				<voice>2</voice>
				<type>eighth</type>
				<staff>2</staff>
				<beam number="1">continue</beam>
			</note>
			<note>
				<pitch>
					<step>G</step>
					<octave>3</octave>
				</pitch>
				<duration>240</duration>
				<voice>2</voice>
				<type>eighth</type>
				<staff>2</staff>
				<beam number="1">end</beam>
			</note>
			<note>
				<pitch>
					<step>A</step>
					<octave>3</octave>
				</pitch>
				<duration>240</duration>
				<voice>2</voice>
				<type>eighth</type>
				<staff>2</staff>
				<beam number="1">begin</beam>
			</note>
			<note>
				<pitch>
					<step>G</step>
					<octave>3</octave>
				</pitch>
				<duration>240</duration>
				<voice>2</voice>
				<type>eighth</type>
				<staff>2</staff>
				<beam number="1">continue</beam>
			</note>
			<note>
				<pitch>
					<step>F</step>
					<octave>3</octave>
				</pitch>
				<duration>240</duration>
				<voice>2</voice>
				<type>eighth</type>
				<staff>2</staff>
				<beam number="1">continue</beam>
			</note>
			<note>
				<pitch>
					<step>E</step>
					<octave>3</octave>
				</pitch>
				<duration>240</duration>
				<voice>2</voice>
				<type>eighth</type>
				<staff>2</staff>
				<beam number="1">end</beam>
			</note>
		</measure>
		<measure number="15">
			<note>
				<pitch>
					<step>B</step>
					<octave>4</octave>
				</pitch>
				<duration>240</duration>
				<voice>1</voice>
				<type>eighth</type>
				<staff>1</staff>
				<beam number="1">begin</beam>
			</note>
			<note>
				<pitch>
					<step>C</step>
					<octave>5</octave>
				</pitch>
				<duration>240</duration>
				<voice>1</voice>
				<type>eighth</type>
				<staff>1</staff>
				<beam number="1">continue</beam>
			</note>
			<note>
				<pitch>
					<step>D</step>
					<octave>5</octave>
				</pitch>
				<duration>240</duration>
				<voice>1</voice>
				<type>eighth</type>
				<staff>1</staff>
				<beam number="1">continue</beam>
			</note>
			<note>
				<pitch>
					<step>B</step>
					<octave>4</octave>
				</pitch>
				<duration>240</duration>
				<voice>1</voice>
				<type>eighth</type>
				<staff>1</staff>
				<beam number="1">end</beam>
			</note>
			<note>
				<pitch>
					<step>C</step>
					<octave>5</octave>
				</pitch>
				<duration>240</duration>
				<voice>1</voice>
				<type>eighth</type>
				<staff>1</staff>
				<beam number="1">begin</beam>
			</note>
			<note>
				<pitch>
					<step>B</step>
					<octave>4</octave>
				</pitch>
				<duration>240</duration>
				<voice>1</voice>
				<type>eighth</type>
				<staff>1</staff>
				<beam number="1">continue</beam>
			</note>
			<note>
				<pitch>
					<step>A</step>
					<octave>4</octave>
				</pitch>
				<duration>240</duration>
				<voice>1</voice>
				<type>eighth</type>
				<staff>1</staff>
				<beam number="1">continue</beam>
			</note>
			<note>
				<pitch>
					<step>C</step>
					<octave>5</octave>
				</pitch>
				<duration>240</duration>
				<voice>1</voice>
				<type>eighth</type>
				<staff>1</staff>
				<beam number="1">end</beam>
			</note>
			<backup>
				<duration>1920</duration>
			</backup>
			<note>
				<pitch>
					<step>D</step>
					<octave>3</octave>
				</pitch>
				<duration>240</duration>
				<voice>2</voice>
				<type>eighth</type>
				<staff>2</staff>
				<beam number="1">begin</beam>
			</note>
			<note>
				<pitch>
					<step>E</step>
					<octave>3</octave>
				</pitch>
				<duration>240</duration>
				<voice>2</voice>
				<type>eighth</type>
				<staff>2</staff>
				<beam number="1">continue</beam>
			</note>
			<note>
				<pitch>
					<step>F</step>
					<octave>3</octave>
				</pitch>
				<duration>240</duration>
				<voice>2</voice>
				<type>eighth</type>
				<staff>2</staff>
				<beam number="1">continue</beam>
			</note>
			<note>
				<pitch>
					<step>G</step>
					<octave>3</octave>
				</pitch>
				<duration>240</duration>
				<voice>2</voice>
				<type>eighth</type>
				<staff>2</staff>
				<beam number="1">end</beam>
			</note>
			<note>
				<pitch>
					<step>A</step>
					<octave>3</octave>
				</pitch>
				<duration>240</duration>
				<voice>2</voice>
				<type>eighth</type>
				<staff>2</staff>
				<beam number="1">begin</beam>
			</note>
			<note>
				<pitch>
					<step>G</step>
					<octave>3</octave>
				</pitch>
				<duration>240</duration>
				<voice>2</voice>
				<type>eighth</type>
				<staff>2</staff>
				<beam number="1">continue</beam>
			</note>
			<note>
				<pitch>
					<step>F</step>
					<octave>3</octave>
				</pitch>
				<duration>240</duration>
				<voice>2</voice>
				<type>eighth</type>
				<staff>2</staff>
				<beam number="1">continue</beam>
			</note>
			<note>
				<pitch>
					<step>A</step>
					<octave>3</octave>
				</pitch>
				<duration>240</duration>
				<voice>2</voice>
				<type>eighth</type>
				<staff>2</staff>
				<beam number="1">end</beam>
			</note>
		</measure>
		<measure number="16">
			<print new-system="yes">
				<system-layout>
					<system-margins>
						<left-margin>0</left-margin>
						<right-margin>0</right-margin>
					</system-margins>
					<system-distance>90</system-distance>
				</system-layout>
				<staff-layout number="1">
					<staff-distance>30</staff-distance>
				</staff-layout>
				<staff-layout number="2">
					<staff-distance>70</staff-distance>
				</staff-layout>
			</print>
			<note>
				<pitch>
					<step>B</step>
					<octave>4</octave>
				</pitch>
				<duration>240</duration>
				<voice>1</voice>
				<type>eighth</type>
				<staff>1</staff>
				<beam number="1">begin</beam>
			</note>
			<note>
				<pitch>
					<step>A</step>
					<octave>4</octave>
				</pitch>
				<duration>240</duration>
				<voice>1</voice>
				<type>eighth</type>
				<staff>1</staff>
				<beam number="1">continue</beam>
			</note>
			<note>
				<pitch>
					<step>G</step>
					<octave>4</octave>
				</pitch>
				<duration>240</duration>
				<voice>1</voice>
				<type>eighth</type>
				<staff>1</staff>
				<beam number="1">continue</beam>
			</note>
			<note>
				<pitch>
					<step>F</step>
					<octave>4</octave>
				</pitch>
				<duration>240</duration>
				<voice>1</voice>
				<type>eighth</type>
				<staff>1</staff>
				<beam number="1">end</beam>
			</note>
			<note>
				<pitch>
					<step>E</step>
					<octave>4</octave>
				</pitch>
				<duration>240</duration>
				<voice>1</voice>
				<type>eighth</type>
				<staff>1</staff>
				<beam number="1">begin</beam>
			</note>
			<note>
				<pitch>
					<step>D</step>
					<octave>4</octave>
				</pitch>
				<duration>240</duration>
				<voice>1</voice>
				<type>eighth</type>
				<staff>1</staff>
				<beam number="1">continue</beam>
			</note>
			<note>
				<pitch>
					<step>E</step>
					<octave>4</octave>
				</pitch>
				<duration>240</duration>
				<voice>1</voice>
				<type>eighth</type>
				<staff>1</staff>
				<beam number="1">continue</beam>
			</note>
			<note>
				<pitch>
					<step>F</step>
					<octave>4</octave>
				</pitch>
				<duration>240</duration>
				<voice>1</voice>
				<type>eighth</type>
				<staff>1</staff>
				<beam number="1">end</beam>
			</note>
			<backup>
				<duration>1920</duration>
			</backup>
			<note>
				<pitch>
					<step>G</step>
					<octave>3</octave>
				</pitch>
				<duration>240</duration>
				<voice>2</voice>
				<type>eighth</type>
				<staff>2</staff>
				<beam number="1">begin</beam>
			</note>
			<note>
				<pitch>
					<step>A</step>
					<octave>3</octave>
				</pitch>
				<duration>240</duration>
				<voice>2</voice>
				<type>eighth</type>
				<staff>2</staff>
				<beam number="1">continue</beam>
			</note>
			<note>
				<pitch>
					<step>B</step>
					<octave>3</octave>
				</pitch>
				<duration>240</duration>
				<voice>2</voice>
				<type>eighth</type>
				<staff>2</staff>
				<beam number="1">continue</beam>
			</note>
			<note>
				<pitch>
					<step>G</step>
					<octave>3</octave>
				</pitch>
				<duration>240</duration>
				<voice>2</voice>
				<type>eighth</type>
				<staff>2</staff>
				<beam number="1">end</beam>
			</note>
			<note>
				<pitch>
					<step>A</step>
					<octave>3</octave>
				</pitch>
				<duration>240</duration>
				<voice>2</voice>
				<type>eighth</type>
				<staff>2</staff>
				<beam number="1">begin</beam>
			</note>
			<note>
				<pitch>
					<step>B</step>
					<octave>3</octave>
				</pitch>
				<duration>240</duration>
				<voice>2</voice>
				<type>eighth</type>
				<staff>2</staff>
				<beam number="1">continue</beam>
			</note>
			<note>
				<pitch>
					<step>C</step>
					<octave>4</octave>
				</pitch>
				<duration>240</duration>
				<voice>2</voice>
				<type>eighth</type>
				<staff>2</staff>
				<beam number="1">continue</beam>
			</note>
			<note>
				<pitch>
					<step>D</step>
					<octave>4</octave>
				</pitch>
				<duration>240</duration>
				<voice>2</voice>
				<type>eighth</type>
				<staff>2</staff>
				<beam number="1">end</beam>
			</note>
		</measure>
		<measure number="17">
			<note>
				<pitch>
					<step>G</step>
					<octave>4</octave>
				</pitch>
				<duration>1440</duration>
				<voice>1</voice>
				<type>half</type>
				<dot/>
				<staff>1</staff>
			</note>
			<note>
				<pitch>
					<step>F</step>
					<octave>4</octave>
				</pitch>
				<duration>480</duration>
				<voice>1</voice>
				<type>quarter</type>
				<staff>1</staff>
			</note>
			<backup>
				<duration>1920</duration>
			</backup>
			<note>
				<pitch>
					<step>E</step>
					<octave>4</octave>
				</pitch>
				<duration>240</duration>
				<voice>2</voice>
				<type>eighth</type>
				<staff>2</staff>
				<beam number="1">begin</beam>
			</note>
			<note>
				<pitch>
					<step>F</step>
					<octave>4</octave>
				</pitch>
				<duration>240</duration>
				<voice>2</voice>
				<type>eighth</type>
				<staff>2</staff>
				<beam number="1">continue</beam>
			</note>
			<note>
				<pitch>
					<step>E</step>
					<octave>4</octave>
				</pitch>
				<duration>240</duration>
				<voice>2</voice>
				<type>eighth</type>
				<staff>2</staff>
				<beam number="1">continue</beam>
			</note>
			<note>
				<pitch>
					<step>D</step>
					<octave>4</octave>
				</pitch>
				<duration>240</duration>
				<voice>2</voice>
				<type>eighth</type>
				<staff>2</staff>
				<beam number="1">end</beam>
			</note>
			<note>
				<pitch>
					<step>C</step>
					<octave>4</octave>
				</pitch>
				<duration>960</duration>
				<tie type="start"/>
				<voice>2</voice>
				<type>half</type>
				<staff>2</staff>
				<notations>
					<tied type="start"/>
				</notations>
			</note>
		</measure>
		<measure number="18">
			<note>
				<pitch>
					<step>E</step>
					<octave>4</octave>
				</pitch>
				<duration>1920</duration>
				<voice>1</voice>
				<type>whole</type>
				<staff>1</staff>
			</note>
			<backup>
				<duration>1920</duration>
			</backup>
			<note>
				<pitch>
					<step>C</step>
					<octave>4</octave>
				</pitch>
				<duration>1920</duration>
				<voice>2</voice>
				<type>whole</type>
				<staff>2</staff>
			</note>
			<barline>
				<bar-style>light-heavy</bar-style>
			</barline>
		</measure>
	</part>
</score-partwise>
