<?xml version="1.0" encoding="utf-8"?>
<!DOCTYPE score-partwise  PUBLIC "-//Recordare//DTD MusicXML 3.0 Partwise//EN" "http://www.musicxml.org/dtds/partwise.dtd">
<score-partwise version="3.0">
  <work>
    <work-title>Vom Leiden vnnd Sterben vnsers HERRN Jesu Christi.</work-title>
  </work>
  <movement-title>CaSe_16_UNSP_UNSP_RexChriste_005_00016.mxl</movement-title>
  <identification>
    <creator type="composer">(Seth Calvisius)</creator>
    <rights>Copyright ©</rights>
    <encoding>
      <encoding-date>2021-05-03</encoding-date>
      <software>music21 v.6.7.1</software>
      <software>Sibelius 20.3.0</software>
      <software>Direct export, not from Dolet</software>
      <supports attribute="new-system" element="print" type="yes" value="yes" />
      <supports attribute="new-page" element="print" type="yes" value="yes" />
    </encoding>
  </identification>
  <defaults>
    <scaling>
      <millimeters>210</millimeters>
      <tenths>2100</tenths>
    </scaling>
    <page-layout>
      <page-height>2970</page-height>
      <page-width>2100</page-width>
      <page-margins>
        <left-margin>150</left-margin>
        <right-margin>150</right-margin>
        <top-margin>150</top-margin>
        <bottom-margin>150</bottom-margin>
      </page-margins>
    </page-layout>
    <system-layout>
      <system-margins>
        <left-margin>45</left-margin>
        <right-margin>0</right-margin>
      </system-margins>
      <system-distance>92</system-distance>
    </system-layout>
    <appearance>
      <line-width type="stem">0.9375</line-width>
      <line-width type="beam">5</line-width>
      <line-width type="staff">0.9375</line-width>
      <line-width type="light barline">1.5625</line-width>
      <line-width type="heavy barline">5</line-width>
      <line-width type="leger">1.5625</line-width>
      <line-width type="ending">1.5625</line-width>
      <line-width type="wedge">1.25</line-width>
      <line-width type="enclosure">0.9375</line-width>
      <line-width type="tuplet bracket">1.25</line-width>
      <line-width type="bracket">5</line-width>
      <line-width type="dashes">1.5625</line-width>
      <line-width type="extend">0.9375</line-width>
      <line-width type="octave shift">1.5625</line-width>
      <line-width type="pedal">1.5625</line-width>
      <line-width type="slur middle">1.5625</line-width>
      <line-width type="slur tip">0.625</line-width>
      <line-width type="tie middle">1.5625</line-width>
      <line-width type="tie tip">0.625</line-width>
      <note-size type="cue">75</note-size>
      <note-size type="grace">60</note-size>
    </appearance>
    <music-font font-family="Opus Std" font-size="11.3386" />
    <word-font font-family="Times New Roman" font-size="6.8209" />
    <lyric-font font-family="Junicode" font-size="7.9724" />
    <lyric-language xml:lang="de" />
  </defaults>
  <credit page="1">
    <credit-words default-x="1050" default-y="202" font-family="Junicode" font-size="12.5787" font-style="normal" font-weight="normal" justify="center" valign="middle">Vom Leiden vnnd Sterben vnsers HERRN Jesu Christi.</credit-words>
  </credit>
  <credit page="1">
    <credit-words default-x="1050" default-y="115" font-family="Junicode" font-size="7.9724" font-style="italic" font-weight="normal" justify="center" valign="middle">Rex Christe factor omnium</credit-words>
  </credit>
  <credit page="1">
    <credit-words default-x="1950" default-y="64" font-family="Junicode" font-size="6.2894" font-style="normal" font-weight="normal" justify="right" valign="middle">(Seth Calvisius)</credit-words>
  </credit>
  <part-list>
    <part-group number="1" type="start">
      <group-symbol>bracket</group-symbol>
      <group-barline>yes</group-barline>
    </part-group>
    <score-part id="P1">
      <part-name>P1</part-name>
      <part-abbreviation>S.</part-abbreviation>
      <score-instrument id="Ibc72783dabb5381abe162ea595ac6eb6">
        <instrument-name>Soprano</instrument-name>
      </score-instrument>
    </score-part>
    <score-part id="P2">
      <part-name>P2</part-name>
      <part-abbreviation>A.</part-abbreviation>
      <score-instrument id="I1fadabfaaa257bb086d71db5c6bf69aa">
        <instrument-name>Alto</instrument-name>
      </score-instrument>
    </score-part>
    <score-part id="P3">
      <part-name>P3</part-name>
      <part-abbreviation>T.</part-abbreviation>
      <score-instrument id="I400da496ea672541292a537e0857c578">
        <instrument-name>Tenor</instrument-name>
      </score-instrument>
    </score-part>
    <score-part id="P4">
      <part-name>P4</part-name>
      <part-abbreviation>B.</part-abbreviation>
      <score-instrument id="Ide23e3b0359ffdd3fa4d9dd1dcb4db85">
        <instrument-name>Bass (2)</instrument-name>
      </score-instrument>
    </score-part>
    <part-group number="1" type="stop" />
  </part-list>
  <!--=========================== Part 1 ===========================-->
  <part id="P1">
    <!--========================= Measure 1 ==========================-->
    <measure number="1" width="218">
      <print new-page="yes">
        <system-layout>
          <system-margins>
            <left-margin>173</left-margin>
            <right-margin>0</right-margin>
          </system-margins>
          <top-system-distance>238</top-system-distance>
        </system-layout>
        <staff-layout number="1" />
      </print>
      <attributes>
        <divisions>10080</divisions>
        <key color="#000000">
          <fifths>-1</fifths>
          <mode>major</mode>
        </key>
        <time color="#000000" symbol="cut">
          <beats>2</beats>
          <beat-type>2</beat-type>
        </time>
        <clef color="#000000">
          <sign>G</sign>
          <line>2</line>
        </clef>
        <staff-details print-object="yes" />
      </attributes>
      <direction>
        <direction-type>
          <words default-x="-140" default-y="-40" enclosure="none" font-family="capella-Renaissance" font-size="12.5787" font-style="normal" font-weight="normal" justify="left" valign="middle"></words>
        </direction-type>
      </direction>
      <direction>
        <direction-type>
          <words default-x="-120" default-y="-10" enclosure="none" font-family="capellaMittelalter" font-size="12.5787" font-style="normal" font-weight="normal" justify="left" valign="middle"></words>
        </direction-type>
      </direction>
      <direction>
        <direction-type>
          <words default-x="-96" default-y="-20" enclosure="none" font-family="capellaMittelalter" font-size="12.5787" font-style="normal" font-weight="normal" justify="left" valign="middle"></words>
        </direction-type>
      </direction>
      <note color="#000000" default-x="93">
        <pitch>
          <step>G</step>
          <octave>4</octave>
        </pitch>
        <duration>40320</duration>
        <type>whole</type>
        <notehead color="#000000" parentheses="no">normal</notehead>
        <lyric color="#000000" default-y="-80" name="part1verse1" number="1">
          <syllabic>single</syllabic>
          <text>1.</text>
        </lyric>
        <lyric color="#000000" default-y="-80" name="part1verse1" number="2">
          <syllabic>single</syllabic>
          <text>Rex</text>
        </lyric>
      </note>
    </measure>
    <!--========================= Measure 2 ==========================-->
    <measure number="2" width="184">
      <note color="#000000" default-x="15" default-y="5">
        <pitch>
          <step>G</step>
          <octave>4</octave>
        </pitch>
        <duration>20160</duration>
        <type>half</type>
        <stem>up</stem>
        <notehead color="#000000" parentheses="no">normal</notehead>
        <lyric color="#000000" default-y="-80" name="part1verse1" number="1">
          <syllabic>begin</syllabic>
          <text>Chri</text>
        </lyric>
      </note>
      <note color="#000000" default-x="105">
        <pitch>
          <step>F</step>
          <alter>1</alter>
          <octave>4</octave>
        </pitch>
        <duration>20160</duration>
        <type>half</type>
        <accidental>sharp</accidental>
        <stem>up</stem>
        <notehead color="#000000" parentheses="no">normal</notehead>
        <lyric color="#000000" default-y="-80" name="part1verse1" number="1">
          <syllabic>end</syllabic>
          <text>ste</text>
        </lyric>
      </note>
    </measure>
    <!--========================= Measure 3 ==========================-->
    <measure number="3" width="178">
      <note color="#000000" default-x="15" default-y="5">
        <pitch>
          <step>G</step>
          <octave>4</octave>
        </pitch>
        <duration>20160</duration>
        <type>half</type>
        <stem>up</stem>
        <notehead color="#000000" parentheses="no">normal</notehead>
        <lyric color="#000000" default-y="-80" name="part1verse1" number="1">
          <syllabic>begin</syllabic>
          <text>fac</text>
        </lyric>
      </note>
      <note color="#000000" default-x="105" default-y="-5">
        <pitch>
          <step>E</step>
          <octave>4</octave>
        </pitch>
        <duration>20160</duration>
        <type>half</type>
        <stem>up</stem>
        <notehead color="#000000" parentheses="no">normal</notehead>
        <lyric color="#000000" default-y="-80" name="part1verse1" number="1">
          <syllabic>end</syllabic>
          <text>tor</text>
        </lyric>
      </note>
    </measure>
    <!--========================= Measure 4 ==========================-->
    <measure number="4" width="297">
      <note color="#000000" default-x="19" default-y="-10">
        <pitch>
          <step>D</step>
          <octave>4</octave>
        </pitch>
        <duration>20160</duration>
        <type>half</type>
        <stem>up</stem>
        <notehead color="#000000" parentheses="no">normal</notehead>
        <lyric color="#000000" default-y="-80" name="part1verse1" number="1">
          <syllabic>begin</syllabic>
          <text>om</text>
        </lyric>
      </note>
      <note color="#000000" default-x="110" default-y="-10">
        <pitch>
          <step>D</step>
          <octave>4</octave>
        </pitch>
        <duration>20160</duration>
        <type>half</type>
        <stem>up</stem>
        <notehead color="#000000" parentheses="no">normal</notehead>
        <lyric color="#000000" default-y="-80" name="part1verse1" number="1">
          <syllabic>middle</syllabic>
          <text>ni</text>
        </lyric>
      </note>
      <note color="#000000" default-x="200" default-y="-15">
        <pitch>
          <step>C</step>
          <octave>4</octave>
        </pitch>
        <duration>20160</duration>
        <type>half</type>
        <stem>up</stem>
        <notehead color="#000000" parentheses="no">normal</notehead>
        <lyric color="#000000" default-y="-80" name="part1verse1" number="1">
          <syllabic>end</syllabic>
          <text>um,</text>
        </lyric>
      </note>
    </measure>
    <!--========================= Measure 5 ==========================-->
    <measure number="5" width="184">
      <note color="#000000" default-x="15" default-y="-15">
        <pitch>
          <step>C</step>
          <octave>4</octave>
        </pitch>
        <duration>20160</duration>
        <type>half</type>
        <stem>up</stem>
        <notehead color="#000000" parentheses="no">normal</notehead>
        <lyric color="#000000" default-y="-80" name="part1verse1" number="1">
          <syllabic>begin</syllabic>
          <text>re</text>
        </lyric>
      </note>
      <note color="#000000" default-x="105" default-y="-5">
        <pitch>
          <step>E</step>
          <octave>4</octave>
        </pitch>
        <duration>20160</duration>
        <type>half</type>
        <stem>up</stem>
        <notehead color="#000000" parentheses="no">normal</notehead>
        <lyric color="#000000" default-y="-80" name="part1verse1" number="1">
          <syllabic>middle</syllabic>
          <text>dem</text>
        </lyric>
      </note>
    </measure>
    <!--========================= Measure 6 ==========================-->
    <measure number="6" width="178">
      <note color="#000000" default-x="15">
        <pitch>
          <step>F</step>
          <octave>4</octave>
        </pitch>
        <duration>20160</duration>
        <type>half</type>
        <stem>up</stem>
        <notehead color="#000000" parentheses="no">normal</notehead>
        <lyric color="#000000" default-y="-80" name="part1verse1" number="1">
          <syllabic>end</syllabic>
          <text>tor</text>
        </lyric>
      </note>
      <note color="#000000" default-x="105" default-y="5">
        <pitch>
          <step>G</step>
          <octave>4</octave>
        </pitch>
        <duration>20160</duration>
        <type>half</type>
        <stem>up</stem>
        <notehead color="#000000" parentheses="no">normal</notehead>
        <lyric color="#000000" default-y="-80" name="part1verse1" number="1">
          <syllabic>single</syllabic>
          <text>&amp;</text>
        </lyric>
      </note>
    </measure>
    <!--========================= Measure 7 ==========================-->
    <measure number="7" width="182">
      <note color="#000000" default-x="16" default-y="5">
        <pitch>
          <step>G</step>
          <octave>4</octave>
        </pitch>
        <duration>20160</duration>
        <type>half</type>
        <stem>up</stem>
        <notehead color="#000000" parentheses="no">normal</notehead>
        <lyric color="#000000" default-y="-80" name="part1verse1" number="1">
          <syllabic>begin</syllabic>
          <text>cre</text>
        </lyric>
      </note>
      <note color="#000000" default-x="106" default-y="10">
        <pitch>
          <step>A</step>
          <octave>4</octave>
        </pitch>
        <duration>20160</duration>
        <type>half</type>
        <stem>up</stem>
        <notehead color="#000000" parentheses="no">normal</notehead>
        <lyric color="#000000" default-y="-80" name="part1verse1" number="1">
          <syllabic>middle</syllabic>
          <text>den</text>
        </lyric>
      </note>
    </measure>
    <!--========================= Measure 8 ==========================-->
    <measure number="8" width="202">
      <note color="#000000" default-x="15" default-y="5">
        <pitch>
          <step>G</step>
          <octave>4</octave>
        </pitch>
        <duration>20160</duration>
        <type>half</type>
        <stem>up</stem>
        <notehead color="#000000" parentheses="no">normal</notehead>
        <lyric color="#000000" default-y="-80" name="part1verse1" number="1">
          <syllabic>middle</syllabic>
          <text>ti</text>
        </lyric>
      </note>
      <note color="#000000" default-x="105" default-y="5">
        <pitch>
          <step>G</step>
          <octave>4</octave>
        </pitch>
        <duration>20160</duration>
        <type>half</type>
        <stem>up</stem>
        <notehead color="#000000" parentheses="no">normal</notehead>
        <lyric color="#000000" default-y="-80" name="part1verse1" number="1">
          <syllabic>end</syllabic>
          <text>um,</text>
        </lyric>
      </note>
    </measure>
    <!--========================= Measure 9 ==========================-->
    <measure number="9" width="257">
      <print new-system="yes">
        <system-layout>
          <system-margins>
            <left-margin>21</left-margin>
            <right-margin>0</right-margin>
          </system-margins>
          <system-distance>143</system-distance>
        </system-layout>
        <staff-layout number="1" />
      </print>
      <attributes>
        <staff-details print-object="yes" />
      </attributes>
      <note color="#000000" default-x="73" default-y="10">
        <pitch>
          <step>A</step>
          <octave>4</octave>
        </pitch>
        <duration>20160</duration>
        <type>half</type>
        <stem>up</stem>
        <notehead color="#000000" parentheses="no">normal</notehead>
        <lyric color="#000000" default-y="-80" name="part1verse1" number="1">
          <syllabic>begin</syllabic>
          <text>Pla</text>
        </lyric>
      </note>
      <note color="#000000" default-x="173" default-y="-50">
        <pitch>
          <step>C</step>
          <octave>5</octave>
        </pitch>
        <duration>20160</duration>
        <type>half</type>
        <stem>down</stem>
        <notehead color="#000000" parentheses="no">normal</notehead>
        <lyric color="#000000" default-y="-80" name="part1verse1" number="1">
          <syllabic>middle</syllabic>
          <text>ca</text>
        </lyric>
      </note>
    </measure>
    <!--========================= Measure 10 =========================-->
    <measure number="10" width="204">
      <note color="#000000" default-x="17" default-y="-45">
        <pitch>
          <step>D</step>
          <octave>5</octave>
        </pitch>
        <duration>20160</duration>
        <type>half</type>
        <stem>down</stem>
        <notehead color="#000000" parentheses="no">normal</notehead>
        <lyric color="#000000" default-y="-80" name="part1verse1" number="1">
          <syllabic>end</syllabic>
          <text>re</text>
        </lyric>
      </note>
      <note color="#000000" default-x="116" default-y="-50">
        <pitch>
          <step>C</step>
          <octave>5</octave>
        </pitch>
        <duration>20160</duration>
        <type>half</type>
        <stem>down</stem>
        <notehead color="#000000" parentheses="no">normal</notehead>
        <lyric color="#000000" default-y="-80" name="part1verse1" number="1">
          <syllabic>begin</syllabic>
          <text>vo</text>
        </lyric>
      </note>
    </measure>
    <!--========================= Measure 11 =========================-->
    <measure number="11" width="193">
      <note color="#000000" default-x="16" default-y="5">
        <pitch>
          <step>G</step>
          <octave>4</octave>
        </pitch>
        <duration>20160</duration>
        <type>half</type>
        <stem>up</stem>
        <notehead color="#000000" parentheses="no">normal</notehead>
        <lyric color="#000000" default-y="-80" name="part1verse1" number="1">
          <syllabic>end</syllabic>
          <text>tis</text>
        </lyric>
      </note>
      <note color="#000000" default-x="109" default-y="15">
        <pitch>
          <step>B</step>
          <alter>-1</alter>
          <octave>4</octave>
        </pitch>
        <duration>20160</duration>
        <type>half</type>
        <stem>up</stem>
        <notehead color="#000000" parentheses="no">normal</notehead>
        <lyric color="#000000" default-y="-80" name="part1verse1" number="1">
          <syllabic>begin</syllabic>
          <text>Supp</text>
        </lyric>
      </note>
    </measure>
    <!--========================= Measure 12 =========================-->
    <measure number="12" width="220">
      <note color="#000000" default-x="15" default-y="5">
        <pitch>
          <step>G</step>
          <octave>4</octave>
        </pitch>
        <duration>20160</duration>
        <type>half</type>
        <stem>up</stem>
        <notehead color="#000000" parentheses="no">normal</notehead>
        <lyric color="#000000" default-y="-80" name="part1verse1" number="1">
          <syllabic>middle</syllabic>
          <text>li</text>
        </lyric>
      </note>
      <note color="#000000" default-x="114">
        <pitch>
          <step>F</step>
          <octave>4</octave>
        </pitch>
        <duration>20160</duration>
        <type>half</type>
        <stem>up</stem>
        <notehead color="#000000" parentheses="no">normal</notehead>
        <lyric color="#000000" default-y="-80" name="part1verse1" number="1">
          <syllabic>end</syllabic>
          <text>cum,</text>
        </lyric>
      </note>
    </measure>
    <!--========================= Measure 13 =========================-->
    <measure number="13" width="198">
      <note color="#000000" default-x="15">
        <pitch>
          <step>F</step>
          <octave>4</octave>
        </pitch>
        <duration>20160</duration>
        <type>half</type>
        <stem>up</stem>
        <notehead color="#000000" parentheses="no">normal</notehead>
        <lyric color="#000000" default-y="-80" name="part1verse1" number="1">
          <syllabic>single</syllabic>
          <text>Te</text>
        </lyric>
      </note>
      <note color="#000000" default-x="114" default-y="10">
        <pitch>
          <step>A</step>
          <octave>4</octave>
        </pitch>
        <duration>20160</duration>
        <type>half</type>
        <stem>up</stem>
        <notehead color="#000000" parentheses="no">normal</notehead>
        <lyric color="#000000" default-y="-80" name="part1verse1" number="1">
          <syllabic>begin</syllabic>
          <text>lau</text>
        </lyric>
      </note>
    </measure>
    <!--========================= Measure 14 =========================-->
    <measure number="14" width="198">
      <note color="#000000" default-x="15" default-y="15">
        <pitch>
          <step>B</step>
          <alter>-1</alter>
          <octave>4</octave>
        </pitch>
        <duration>20160</duration>
        <type>half</type>
        <stem>up</stem>
        <notehead color="#000000" parentheses="no">normal</notehead>
        <lyric color="#000000" default-y="-80" name="part1verse1" number="1">
          <syllabic>middle</syllabic>
          <text>di</text>
        </lyric>
      </note>
      <note color="#000000" default-x="114" default-y="-50">
        <pitch>
          <step>C</step>
          <octave>5</octave>
        </pitch>
        <duration>20160</duration>
        <type>half</type>
        <stem>down</stem>
        <notehead color="#000000" parentheses="no">normal</notehead>
        <lyric color="#000000" default-y="-80" name="part1verse1" number="1">
          <syllabic>end</syllabic>
          <text>bus</text>
        </lyric>
      </note>
    </measure>
    <!--========================= Measure 15 =========================-->
    <measure number="15" width="298">
      <note color="#000000" default-x="15" default-y="15">
        <pitch>
          <step>B</step>
          <alter>-1</alter>
          <octave>4</octave>
        </pitch>
        <duration>20160</duration>
        <type>half</type>
        <stem>up</stem>
        <notehead color="#000000" parentheses="no">normal</notehead>
        <lyric color="#000000" default-y="-80" name="part1verse1" number="1">
          <syllabic>begin</syllabic>
          <text>co</text>
        </lyric>
      </note>
      <note color="#000000" default-x="114" default-y="10">
        <pitch>
          <step>A</step>
          <octave>4</octave>
        </pitch>
        <duration>20160</duration>
        <type>half</type>
        <stem>up</stem>
        <notehead color="#000000" parentheses="no">normal</notehead>
        <lyric color="#000000" default-y="-80" name="part1verse1" number="1">
          <syllabic>middle</syllabic>
          <text>len</text>
        </lyric>
      </note>
      <note color="#000000" default-x="214" default-y="10">
        <pitch>
          <step>A</step>
          <octave>4</octave>
        </pitch>
        <duration>20160</duration>
        <type>half</type>
        <stem>up</stem>
        <notehead color="#000000" parentheses="no">normal</notehead>
        <lyric color="#000000" default-y="-80" name="part1verse1" number="1">
          <syllabic>middle</syllabic>
          <text>ti</text>
        </lyric>
      </note>
    </measure>
    <!--========================= Measure 16 =========================-->
    <measure number="16" width="207">
      <note color="#000000" default-x="15">
        <pitch>
          <step>G</step>
          <octave>4</octave>
        </pitch>
        <duration>40320</duration>
        <tie type="start" />
        <type>whole</type>
        <notehead color="#000000" parentheses="no">normal</notehead>
        <notations>
          <tied type="start" />
        </notations>
        <lyric color="#000000" default-y="-80" name="part1verse1" number="1">
          <syllabic>end</syllabic>
          <text>um.</text>
        </lyric>
      </note>
      <barline location="right">
        <bar-style>light-heavy</bar-style>
      </barline>
    </measure>
  </part>
  <!--=========================== Part 2 ===========================-->
  <part id="P2">
    <!--========================= Measure 1 ==========================-->
    <measure number="1" width="218">
      <print new-page="yes">
        <system-layout>
          <system-margins>
            <left-margin>173</left-margin>
            <right-margin>0</right-margin>
          </system-margins>
        </system-layout>
        <staff-layout number="1">
          <staff-distance>80</staff-distance>
        </staff-layout>
      </print>
      <attributes>
        <divisions>10080</divisions>
        <key color="#000000">
          <fifths>-1</fifths>
          <mode>major</mode>
        </key>
        <time color="#000000" symbol="cut">
          <beats>2</beats>
          <beat-type>2</beat-type>
        </time>
        <clef color="#000000">
          <sign>G</sign>
          <line>2</line>
        </clef>
        <staff-details print-object="yes" />
      </attributes>
      <direction>
        <direction-type>
          <words default-x="-140" default-y="-20" enclosure="none" font-family="capella-Renaissance" font-size="12.5787" font-style="normal" font-weight="normal" justify="left" valign="middle"></words>
        </direction-type>
      </direction>
      <direction>
        <direction-type>
          <words default-x="-120" default-y="-25" enclosure="none" font-family="capellaMittelalter" font-size="12.5787" font-style="normal" font-weight="normal" justify="left" valign="middle"></words>
        </direction-type>
      </direction>
      <direction>
        <direction-type>
          <words default-x="-96" default-y="-20" enclosure="none" font-family="capellaMittelalter" font-size="12.5787" font-style="normal" font-weight="normal" justify="left" valign="middle"></words>
        </direction-type>
      </direction>
      <note color="#000000" default-x="93">
        <pitch>
          <step>C</step>
          <octave>4</octave>
        </pitch>
        <duration>40320</duration>
        <type>whole</type>
        <notehead color="#000000" parentheses="no">normal</notehead>
        <lyric color="#000000" default-y="-89" name="part2verse1" number="1">
          <syllabic>single</syllabic>
          <text>2.</text>
        </lyric>
        <lyric color="#000000" default-y="-90" name="part2verse1" number="2">
          <syllabic>begin</syllabic>
          <text>Cu</text>
        </lyric>
      </note>
    </measure>
    <!--========================= Measure 2 ==========================-->
    <measure number="2" width="184">
      <note color="#000000" default-x="15" default-y="-15">
        <pitch>
          <step>C</step>
          <octave>4</octave>
        </pitch>
        <duration>20160</duration>
        <type>half</type>
        <stem>up</stem>
        <notehead color="#000000" parentheses="no">normal</notehead>
        <lyric color="#000000" default-y="-90" name="part2verse1" number="1">
          <syllabic>end</syllabic>
          <text>jus</text>
        </lyric>
      </note>
      <note color="#000000" default-x="105" default-y="-15">
        <pitch>
          <step>C</step>
          <octave>4</octave>
        </pitch>
        <duration>20160</duration>
        <type>half</type>
        <stem>up</stem>
        <notehead color="#000000" parentheses="no">normal</notehead>
        <lyric color="#000000" default-y="-90" name="part2verse1" number="1">
          <syllabic>begin</syllabic>
          <text>be</text>
        </lyric>
      </note>
    </measure>
    <!--========================= Measure 3 ==========================-->
    <measure number="3" width="178">
      <note color="#000000" default-x="15" default-y="-10">
        <pitch>
          <step>D</step>
          <octave>4</octave>
        </pitch>
        <duration>20160</duration>
        <type>half</type>
        <stem>up</stem>
        <notehead color="#000000" parentheses="no">normal</notehead>
        <lyric color="#000000" default-y="-90" name="part2verse1" number="1">
          <syllabic>middle</syllabic>
          <text>nig</text>
        </lyric>
      </note>
      <note color="#000000" default-x="105" default-y="-15">
        <pitch>
          <step>C</step>
          <octave>4</octave>
        </pitch>
        <duration>20160</duration>
        <type>half</type>
        <stem>up</stem>
        <notehead color="#000000" parentheses="no">normal</notehead>
        <lyric color="#000000" default-y="-90" name="part2verse1" number="1">
          <syllabic>end</syllabic>
          <text>na</text>
        </lyric>
      </note>
    </measure>
    <!--========================= Measure 4 ==========================-->
    <measure number="4" width="297">
      <note color="#000000" default-x="19" default-y="-20">
        <pitch>
          <step>B</step>
          <alter>1</alter>
          <octave>3</octave>
        </pitch>
        <duration>20160</duration>
        <type>half</type>
        <accidental>sharp</accidental>
        <stem>up</stem>
        <notehead color="#000000" parentheses="no">normal</notehead>
        <lyric color="#000000" default-y="-90" name="part2verse1" number="1">
          <syllabic>begin</syllabic>
          <text>gra</text>
        </lyric>
      </note>
      <note color="#000000" default-x="110" default-y="-20">
        <pitch>
          <step>B</step>
          <alter>1</alter>
          <octave>3</octave>
        </pitch>
        <duration>20160</duration>
        <type>half</type>
        <stem>up</stem>
        <notehead color="#000000" parentheses="no">normal</notehead>
        <lyric color="#000000" default-y="-90" name="part2verse1" number="1">
          <syllabic>middle</syllabic>
          <text>ti</text>
        </lyric>
      </note>
      <note color="#000000" default-x="200" default-y="-15">
        <pitch>
          <step>C</step>
          <octave>4</octave>
        </pitch>
        <duration>20160</duration>
        <type>half</type>
        <stem>up</stem>
        <notehead color="#000000" parentheses="no">normal</notehead>
        <lyric color="#000000" default-y="-90" name="part2verse1" number="1">
          <syllabic>end</syllabic>
          <text>a,</text>
        </lyric>
      </note>
    </measure>
    <!--========================= Measure 5 ==========================-->
    <measure number="5" width="184">
      <note color="#000000" default-x="15" default-y="-20">
        <pitch>
          <step>G</step>
          <octave>3</octave>
        </pitch>
        <duration>20160</duration>
        <type>half</type>
        <stem>up</stem>
        <notehead color="#000000" parentheses="no">normal</notehead>
        <lyric color="#000000" default-y="-90" name="part2verse1" number="1">
          <syllabic>begin</syllabic>
          <text>cru</text>
        </lyric>
      </note>
      <note color="#000000" default-x="105" default-y="-15">
        <pitch>
          <step>C</step>
          <octave>4</octave>
        </pitch>
        <duration>20160</duration>
        <type>half</type>
        <stem>up</stem>
        <notehead color="#000000" parentheses="no">normal</notehead>
        <lyric color="#000000" default-y="-90" name="part2verse1" number="1">
          <syllabic>end</syllabic>
          <text>cis</text>
        </lyric>
      </note>
    </measure>
    <!--========================= Measure 6 ==========================-->
    <measure number="6" width="178">
      <note color="#000000" default-x="15" default-y="-15">
        <pitch>
          <step>C</step>
          <octave>4</octave>
        </pitch>
        <duration>20160</duration>
        <type>half</type>
        <stem>up</stem>
        <notehead color="#000000" parentheses="no">normal</notehead>
        <lyric color="#000000" default-y="-90" name="part2verse1" number="1">
          <syllabic>single</syllabic>
          <text>per</text>
        </lyric>
      </note>
      <note color="#000000" default-x="105" default-y="-10">
        <pitch>
          <step>D</step>
          <octave>4</octave>
        </pitch>
        <duration>20160</duration>
        <type>half</type>
        <stem>up</stem>
        <notehead color="#000000" parentheses="no">normal</notehead>
        <lyric color="#000000" default-y="-90" name="part2verse1" number="1">
          <syllabic>begin</syllabic>
          <text>al</text>
        </lyric>
      </note>
    </measure>
    <!--========================= Measure 7 ==========================-->
    <measure number="7" width="182">
      <note color="#000000" default-x="16" default-y="-20">
        <pitch>
          <step>B</step>
          <alter>-1</alter>
          <octave>3</octave>
        </pitch>
        <duration>20160</duration>
        <type>half</type>
        <stem>up</stem>
        <notehead color="#000000" parentheses="no">normal</notehead>
        <lyric color="#000000" default-y="-90" name="part2verse1" number="1">
          <syllabic>end</syllabic>
          <text>ma</text>
        </lyric>
      </note>
      <note color="#000000" default-x="106" default-y="-10">
        <pitch>
          <step>D</step>
          <octave>4</octave>
        </pitch>
        <duration>20160</duration>
        <type>half</type>
        <stem>up</stem>
        <notehead color="#000000" parentheses="no">normal</notehead>
        <lyric color="#000000" default-y="-90" name="part2verse1" number="1">
          <syllabic>begin</syllabic>
          <text>vul</text>
        </lyric>
      </note>
    </measure>
    <!--========================= Measure 8 ==========================-->
    <measure number="8" width="202">
      <note color="#000000" default-x="15" default-y="-10">
        <pitch>
          <step>D</step>
          <octave>4</octave>
        </pitch>
        <duration>20160</duration>
        <type>half</type>
        <stem>up</stem>
        <notehead color="#000000" parentheses="no">normal</notehead>
        <lyric color="#000000" default-y="-90" name="part2verse1" number="1">
          <syllabic>middle</syllabic>
          <text>ne</text>
        </lyric>
      </note>
      <note color="#000000" default-x="105" default-y="-10">
        <pitch>
          <step>D</step>
          <octave>4</octave>
        </pitch>
        <duration>20160</duration>
        <type>half</type>
        <stem>up</stem>
        <notehead color="#000000" parentheses="no">normal</notehead>
        <lyric color="#000000" default-y="-90" name="part2verse1" number="1">
          <syllabic>end</syllabic>
          <text>ra</text>
        </lyric>
      </note>
    </measure>
    <!--========================= Measure 9 ==========================-->
    <measure number="9" width="257">
      <print new-system="yes">
        <system-layout>
          <system-margins>
            <left-margin>21</left-margin>
            <right-margin>0</right-margin>
          </system-margins>
        </system-layout>
        <staff-layout number="1">
          <staff-distance>80</staff-distance>
        </staff-layout>
      </print>
      <attributes>
        <staff-details print-object="yes" />
      </attributes>
      <note color="#000000" default-x="73">
        <pitch>
          <step>F</step>
          <octave>4</octave>
        </pitch>
        <duration>20160</duration>
        <type>half</type>
        <stem>up</stem>
        <notehead color="#000000" parentheses="no">normal</notehead>
        <lyric color="#000000" default-y="-80" name="part2verse1" number="1">
          <syllabic>begin</syllabic>
          <text>vir</text>
        </lyric>
      </note>
      <note color="#000000" default-x="173" default-y="-5">
        <pitch>
          <step>E</step>
          <octave>4</octave>
        </pitch>
        <duration>20160</duration>
        <type>half</type>
        <stem>up</stem>
        <notehead color="#000000" parentheses="no">normal</notehead>
        <lyric color="#000000" default-y="-80" name="part2verse1" number="1">
          <syllabic>end</syllabic>
          <text>tus</text>
        </lyric>
      </note>
    </measure>
    <!--========================= Measure 10 =========================-->
    <measure number="10" width="204">
      <note color="#000000" default-x="17" default-y="-10">
        <pitch>
          <step>D</step>
          <octave>4</octave>
        </pitch>
        <duration>20160</duration>
        <type>half</type>
        <stem>up</stem>
        <notehead color="#000000" parentheses="no">normal</notehead>
        <lyric color="#000000" default-y="-80" name="part2verse1" number="1">
          <syllabic>single</syllabic>
          <text>te</text>
        </lyric>
      </note>
      <note color="#000000" default-x="116" default-y="5">
        <pitch>
          <step>G</step>
          <octave>4</octave>
        </pitch>
        <duration>20160</duration>
        <type>half</type>
        <stem>up</stem>
        <notehead color="#000000" parentheses="no">normal</notehead>
        <lyric color="#000000" default-y="-80" name="part2verse1" number="1">
          <syllabic>begin</syllabic>
          <text>sol</text>
        </lyric>
      </note>
    </measure>
    <!--========================= Measure 11 =========================-->
    <measure number="11" width="193">
      <note color="#000000" default-x="16" default-y="5">
        <pitch>
          <step>G</step>
          <octave>4</octave>
        </pitch>
        <duration>20160</duration>
        <type>half</type>
        <stem>up</stem>
        <notehead color="#000000" parentheses="no">normal</notehead>
        <lyric color="#000000" default-y="-80" name="part2verse1" number="1">
          <syllabic>end</syllabic>
          <text>vit,</text>
        </lyric>
      </note>
      <note color="#000000" default-x="109">
        <pitch>
          <step>F</step>
          <octave>4</octave>
        </pitch>
        <duration>20160</duration>
        <type>half</type>
        <stem>up</stem>
        <notehead color="#000000" parentheses="no">normal</notehead>
        <lyric color="#000000" default-y="-80" name="part2verse1" number="1">
          <syllabic>begin</syllabic>
          <text>ar</text>
        </lyric>
      </note>
    </measure>
    <!--========================= Measure 12 =========================-->
    <measure number="12" width="220">
      <note color="#000000" default-x="15" default-y="-5">
        <pitch>
          <step>E</step>
          <octave>4</octave>
        </pitch>
        <duration>20160</duration>
        <type>half</type>
        <stem>up</stem>
        <notehead color="#000000" parentheses="no">normal</notehead>
        <lyric color="#000000" default-y="-80" name="part2verse1" number="1">
          <syllabic>middle</syllabic>
          <text>du</text>
        </lyric>
      </note>
      <note color="#000000" default-x="114" default-y="-10">
        <pitch>
          <step>D</step>
          <octave>4</octave>
        </pitch>
        <duration>20160</duration>
        <type>half</type>
        <stem>up</stem>
        <notehead color="#000000" parentheses="no">normal</notehead>
        <lyric color="#000000" default-y="-80" name="part2verse1" number="1">
          <syllabic>end</syllabic>
          <text>a</text>
        </lyric>
      </note>
    </measure>
    <!--========================= Measure 13 =========================-->
    <measure number="13" width="198">
      <note color="#000000" default-x="15" default-y="-10">
        <pitch>
          <step>D</step>
          <octave>4</octave>
        </pitch>
        <duration>20160</duration>
        <type>half</type>
        <stem>up</stem>
        <notehead color="#000000" parentheses="no">normal</notehead>
        <lyric color="#000000" default-y="-80" name="part2verse1" number="1">
          <syllabic>begin</syllabic>
          <text>pri</text>
        </lyric>
      </note>
      <note color="#000000" default-x="114">
        <pitch>
          <step>F</step>
          <alter>1</alter>
          <octave>4</octave>
        </pitch>
        <duration>20160</duration>
        <type>half</type>
        <accidental>sharp</accidental>
        <stem>up</stem>
        <notehead color="#000000" parentheses="no">normal</notehead>
        <lyric color="#000000" default-y="-80" name="part2verse1" number="1">
          <syllabic>end</syllabic>
          <text>mi</text>
        </lyric>
      </note>
    </measure>
    <!--========================= Measure 14 =========================-->
    <measure number="14" width="198">
      <note color="#000000" default-x="15" default-y="5">
        <pitch>
          <step>G</step>
          <octave>4</octave>
        </pitch>
        <duration>20160</duration>
        <type>half</type>
        <stem>up</stem>
        <notehead color="#000000" parentheses="no">normal</notehead>
        <lyric color="#000000" default-y="-80" name="part2verse1" number="1">
          <syllabic>begin</syllabic>
          <text>pa</text>
        </lyric>
      </note>
      <note color="#000000" default-x="114" default-y="5">
        <pitch>
          <step>G</step>
          <octave>4</octave>
        </pitch>
        <duration>20160</duration>
        <type>half</type>
        <stem>up</stem>
        <notehead color="#000000" parentheses="no">normal</notehead>
        <lyric color="#000000" default-y="-80" name="part2verse1" number="1">
          <syllabic>middle</syllabic>
          <text>ren</text>
        </lyric>
      </note>
    </measure>
    <!--========================= Measure 15 =========================-->
    <measure number="15" width="298">
      <note color="#000000" default-x="15" default-y="5">
        <pitch>
          <step>G</step>
          <octave>4</octave>
        </pitch>
        <duration>20160</duration>
        <type>half</type>
        <stem>up</stem>
        <notehead color="#000000" parentheses="no">normal</notehead>
        <lyric color="#000000" default-y="-80" name="part2verse1" number="1">
          <syllabic>end</syllabic>
          <text>tis</text>
        </lyric>
      </note>
      <note color="#000000" default-x="114" default-y="5">
        <pitch>
          <step>G</step>
          <octave>4</octave>
        </pitch>
        <duration>20160</duration>
        <type>half</type>
        <stem>up</stem>
        <notehead color="#000000" parentheses="no">normal</notehead>
        <lyric color="#000000" default-y="-80" name="part2verse1" number="1">
          <syllabic>begin</syllabic>
          <text>vin</text>
        </lyric>
      </note>
      <note color="#000000" default-x="214">
        <pitch>
          <step>F</step>
          <alter>1</alter>
          <octave>4</octave>
        </pitch>
        <duration>20160</duration>
        <type>half</type>
        <accidental>sharp</accidental>
        <stem>up</stem>
        <notehead color="#000000" parentheses="no">normal</notehead>
        <lyric color="#000000" default-y="-80" name="part2verse1" number="1">
          <syllabic>middle</syllabic>
          <text>cu</text>
        </lyric>
      </note>
    </measure>
    <!--========================= Measure 16 =========================-->
    <measure number="16" width="207">
      <note color="#000000" default-x="15">
        <pitch>
          <step>G</step>
          <octave>4</octave>
        </pitch>
        <duration>40320</duration>
        <tie type="start" />
        <type>whole</type>
        <notehead color="#000000" parentheses="no">normal</notehead>
        <notations>
          <tied type="start" />
        </notations>
        <lyric color="#000000" default-y="-80" name="part2verse1" number="1">
          <syllabic>end</syllabic>
          <text>la.</text>
        </lyric>
      </note>
      <barline location="right">
        <bar-style>light-heavy</bar-style>
      </barline>
    </measure>
  </part>
  <!--=========================== Part 3 ===========================-->
  <part id="P3">
    <!--========================= Measure 1 ==========================-->
    <measure number="1" width="218">
      <print new-page="yes">
        <system-layout>
          <system-margins>
            <left-margin>173</left-margin>
            <right-margin>0</right-margin>
          </system-margins>
        </system-layout>
        <staff-layout number="1">
          <staff-distance>80</staff-distance>
        </staff-layout>
      </print>
      <attributes>
        <divisions>10080</divisions>
        <key color="#000000">
          <fifths>-1</fifths>
          <mode>major</mode>
        </key>
        <time color="#000000" symbol="cut">
          <beats>2</beats>
          <beat-type>2</beat-type>
        </time>
        <clef color="#000000">
          <sign>G</sign>
          <line>2</line>
          <clef-octave-change>-1</clef-octave-change>
        </clef>
        <staff-details print-object="yes" />
        <transpose>
          <diatonic>0</diatonic>
          <chromatic>0</chromatic>
          <octave-change>-1</octave-change>
        </transpose>
      </attributes>
      <direction>
        <direction-type>
          <words default-x="-140" default-y="-20" enclosure="none" font-family="capella-Renaissance" font-size="12.5787" font-style="normal" font-weight="normal" justify="left" valign="middle"></words>
        </direction-type>
      </direction>
      <direction>
        <direction-type>
          <words default-x="-120" default-y="-25" enclosure="none" font-family="capellaMittelalter" font-size="12.5787" font-style="normal" font-weight="normal" justify="left" valign="middle"></words>
        </direction-type>
      </direction>
      <direction>
        <direction-type>
          <words default-x="-96" default-y="-20" enclosure="none" font-family="capellaMittelalter" font-size="12.5787" font-style="normal" font-weight="normal" justify="left" valign="middle"></words>
        </direction-type>
      </direction>
      <note color="#000000" default-x="93">
        <pitch>
          <step>G</step>
          <octave>3</octave>
        </pitch>
        <duration>40320</duration>
        <type>whole</type>
        <notehead color="#000000" parentheses="no">normal</notehead>
        <lyric color="#000000" default-y="-80" name="part3verse1" number="1">
          <syllabic>single</syllabic>
          <text>3.</text>
        </lyric>
        <lyric color="#000000" default-y="-80" name="part3verse1" number="2">
          <syllabic>single</syllabic>
          <text>Qui</text>
        </lyric>
      </note>
    </measure>
    <!--========================= Measure 2 ==========================-->
    <measure number="2" width="184">
      <note color="#000000" default-x="15" default-y="5">
        <pitch>
          <step>G</step>
          <octave>3</octave>
        </pitch>
        <duration>20160</duration>
        <type>half</type>
        <stem>up</stem>
        <notehead color="#000000" parentheses="no">normal</notehead>
        <lyric color="#000000" default-y="-80" name="part3verse1" number="1">
          <syllabic>single</syllabic>
          <text>es</text>
        </lyric>
      </note>
      <note color="#000000" default-x="105" default-y="-50">
        <pitch>
          <step>C</step>
          <octave>4</octave>
        </pitch>
        <duration>20160</duration>
        <type>half</type>
        <stem>down</stem>
        <notehead color="#000000" parentheses="no">normal</notehead>
        <lyric color="#000000" default-y="-80" name="part3verse1" number="1">
          <syllabic>begin</syllabic>
          <text>cre</text>
        </lyric>
      </note>
    </measure>
    <!--========================= Measure 3 ==========================-->
    <measure number="3" width="178">
      <note color="#000000" default-x="15" default-y="15">
        <pitch>
          <step>B</step>
          <alter>-1</alter>
          <octave>3</octave>
        </pitch>
        <duration>20160</duration>
        <type>half</type>
        <stem>up</stem>
        <notehead color="#000000" parentheses="no">normal</notehead>
        <lyric color="#000000" default-y="-80" name="part3verse1" number="1">
          <syllabic>middle</syllabic>
          <text>a</text>
        </lyric>
      </note>
      <note color="#000000" default-x="105" default-y="5">
        <pitch>
          <step>G</step>
          <octave>3</octave>
        </pitch>
        <duration>20160</duration>
        <type>half</type>
        <stem>up</stem>
        <notehead color="#000000" parentheses="no">normal</notehead>
        <lyric color="#000000" default-y="-80" name="part3verse1" number="1">
          <syllabic>end</syllabic>
          <text>tor</text>
        </lyric>
      </note>
    </measure>
    <!--========================= Measure 4 ==========================-->
    <measure number="4" width="297">
      <note color="#000000" default-x="19" default-y="5">
        <pitch>
          <step>G</step>
          <octave>3</octave>
        </pitch>
        <duration>20160</duration>
        <type>half</type>
        <stem>up</stem>
        <notehead color="#000000" parentheses="no">normal</notehead>
        <lyric color="#000000" default-y="-80" name="part3verse1" number="1">
          <syllabic>begin</syllabic>
          <text>fi</text>
        </lyric>
      </note>
      <note color="#000000" default-x="110" default-y="5">
        <pitch>
          <step>G</step>
          <octave>3</octave>
        </pitch>
        <duration>20160</duration>
        <type>half</type>
        <stem>up</stem>
        <notehead color="#000000" parentheses="no">normal</notehead>
        <lyric color="#000000" default-y="-80" name="part3verse1" number="1">
          <syllabic>middle</syllabic>
          <text>de</text>
        </lyric>
      </note>
      <note color="#000000" default-x="200" default-y="5">
        <pitch>
          <step>G</step>
          <octave>3</octave>
        </pitch>
        <duration>20160</duration>
        <type>half</type>
        <stem>up</stem>
        <notehead color="#000000" parentheses="no">normal</notehead>
        <lyric color="#000000" default-y="-80" name="part3verse1" number="1">
          <syllabic>end</syllabic>
          <text>rum,</text>
        </lyric>
      </note>
    </measure>
    <!--========================= Measure 5 ==========================-->
    <measure number="5" width="184">
      <note color="#000000" default-x="15" default-y="5">
        <pitch>
          <step>G</step>
          <octave>3</octave>
        </pitch>
        <duration>20160</duration>
        <type>half</type>
        <stem>up</stem>
        <notehead color="#000000" parentheses="no">normal</notehead>
        <lyric color="#000000" default-y="-80" name="part3verse1" number="1">
          <syllabic>begin</syllabic>
          <text>teg</text>
        </lyric>
      </note>
      <note color="#000000" default-x="105" default-y="5">
        <pitch>
          <step>G</step>
          <octave>3</octave>
        </pitch>
        <duration>20160</duration>
        <type>half</type>
        <stem>up</stem>
        <notehead color="#000000" parentheses="no">normal</notehead>
        <lyric color="#000000" default-y="-80" name="part3verse1" number="1">
          <syllabic>end</syllabic>
          <text>men</text>
        </lyric>
      </note>
    </measure>
    <!--========================= Measure 6 ==========================-->
    <measure number="6" width="178">
      <note color="#000000" default-x="15" default-y="-50">
        <pitch>
          <step>C</step>
          <octave>4</octave>
        </pitch>
        <duration>20160</duration>
        <type>half</type>
        <stem>down</stem>
        <notehead color="#000000" parentheses="no">normal</notehead>
        <lyric color="#000000" default-y="-80" name="part3verse1" number="1">
          <syllabic>single</syllabic>
          <text>sub</text>
        </lyric>
      </note>
      <note color="#000000" default-x="105" default-y="15">
        <pitch>
          <step>B</step>
          <alter>-1</alter>
          <octave>3</octave>
        </pitch>
        <duration>20160</duration>
        <type>half</type>
        <stem>up</stem>
        <notehead color="#000000" parentheses="no">normal</notehead>
        <lyric color="#000000" default-y="-80" name="part3verse1" number="1">
          <syllabic>begin</syllabic>
          <text>i</text>
        </lyric>
      </note>
    </measure>
    <!--========================= Measure 7 ==========================-->
    <measure number="7" width="182">
      <note color="#000000" default-x="16" default-y="5">
        <pitch>
          <step>G</step>
          <octave>3</octave>
        </pitch>
        <duration>20160</duration>
        <type>half</type>
        <stem>up</stem>
        <notehead color="#000000" parentheses="no">normal</notehead>
        <lyric color="#000000" default-y="-80" name="part3verse1" number="1">
          <syllabic>end</syllabic>
          <text>sti</text>
        </lyric>
      </note>
      <note color="#000000" default-x="106">
        <pitch>
          <step>F</step>
          <alter>1</alter>
          <octave>3</octave>
        </pitch>
        <duration>20160</duration>
        <type>half</type>
        <accidental>sharp</accidental>
        <stem>up</stem>
        <notehead color="#000000" parentheses="no">normal</notehead>
        <lyric color="#000000" default-y="-80" name="part3verse1" number="1">
          <syllabic>begin</syllabic>
          <text>car</text>
        </lyric>
      </note>
    </measure>
    <!--========================= Measure 8 ==========================-->
    <measure number="8" width="202">
      <note color="#000000" default-x="15" default-y="5">
        <pitch>
          <step>G</step>
          <octave>3</octave>
        </pitch>
        <duration>20160</duration>
        <type>half</type>
        <stem>up</stem>
        <notehead color="#000000" parentheses="no">normal</notehead>
        <lyric color="#000000" default-y="-80" name="part3verse1" number="1">
          <syllabic>middle</syllabic>
          <text>ne</text>
        </lyric>
      </note>
      <note color="#000000" default-x="105" default-y="5">
        <pitch>
          <step>G</step>
          <octave>3</octave>
        </pitch>
        <duration>20160</duration>
        <type>half</type>
        <stem>up</stem>
        <notehead color="#000000" parentheses="no">normal</notehead>
        <lyric color="#000000" default-y="-80" name="part3verse1" number="1">
          <syllabic>end</syllabic>
          <text>um,</text>
        </lyric>
      </note>
    </measure>
    <!--========================= Measure 9 ==========================-->
    <measure number="9" width="257">
      <print new-system="yes">
        <system-layout>
          <system-margins>
            <left-margin>21</left-margin>
            <right-margin>0</right-margin>
          </system-margins>
        </system-layout>
        <staff-layout number="1">
          <staff-distance>80</staff-distance>
        </staff-layout>
      </print>
      <attributes>
        <staff-details print-object="yes" />
      </attributes>
      <note color="#000000" default-x="73" default-y="-45">
        <pitch>
          <step>D</step>
          <octave>4</octave>
        </pitch>
        <duration>20160</duration>
        <type>half</type>
        <stem>down</stem>
        <notehead color="#000000" parentheses="no">normal</notehead>
        <lyric color="#000000" default-y="-80" name="part3verse1" number="1">
          <syllabic>begin</syllabic>
          <text>dig</text>
        </lyric>
      </note>
      <note color="#000000" default-x="173" default-y="5">
        <pitch>
          <step>G</step>
          <octave>3</octave>
        </pitch>
        <duration>20160</duration>
        <type>half</type>
        <stem>up</stem>
        <notehead color="#000000" parentheses="no">normal</notehead>
        <lyric color="#000000" default-y="-80" name="part3verse1" number="1">
          <syllabic>middle</syllabic>
          <text>na</text>
        </lyric>
      </note>
    </measure>
    <!--========================= Measure 10 =========================-->
    <measure number="10" width="204">
      <note color="#000000" default-x="17" default-y="-45">
        <pitch>
          <step>D</step>
          <octave>4</octave>
        </pitch>
        <duration>20160</duration>
        <type>half</type>
        <stem>down</stem>
        <notehead color="#000000" parentheses="no">normal</notehead>
        <lyric color="#000000" default-y="-80" name="part3verse1" number="1">
          <syllabic>end</syllabic>
          <text>tus</text>
        </lyric>
      </note>
      <note color="#000000" default-x="116" default-y="-40">
        <pitch>
          <step>E</step>
          <alter>-1</alter>
          <octave>4</octave>
        </pitch>
        <duration>20160</duration>
        <type>half</type>
        <accidental>flat</accidental>
        <stem>down</stem>
        <notehead color="#000000" parentheses="no">normal</notehead>
        <lyric color="#000000" default-y="-80" name="part3verse1" number="1">
          <syllabic>single</syllabic>
          <text>hanc</text>
        </lyric>
      </note>
    </measure>
    <!--========================= Measure 11 =========================-->
    <measure number="11" width="193">
      <note color="#000000" default-x="16" default-y="-40">
        <pitch>
          <step>E</step>
          <octave>4</octave>
        </pitch>
        <duration>20160</duration>
        <type>half</type>
        <stem>down</stem>
        <notehead color="#000000" parentheses="no">normal</notehead>
        <lyric color="#000000" default-y="-80" name="part3verse1" number="1">
          <syllabic>begin</syllabic>
          <text>vi</text>
        </lyric>
      </note>
      <note color="#000000" default-x="109" default-y="-45">
        <pitch>
          <step>D</step>
          <octave>4</octave>
        </pitch>
        <duration>20160</duration>
        <type>half</type>
        <stem>down</stem>
        <notehead color="#000000" parentheses="no">normal</notehead>
        <lyric color="#000000" default-y="-80" name="part3verse1" number="1">
          <syllabic>middle</syllabic>
          <text>li</text>
        </lyric>
      </note>
    </measure>
    <!--========================= Measure 12 =========================-->
    <measure number="12" width="220">
      <note color="#000000" default-x="15" default-y="-50">
        <pitch>
          <step>C</step>
          <octave>4</octave>
        </pitch>
        <duration>20160</duration>
        <type>half</type>
        <stem>down</stem>
        <notehead color="#000000" parentheses="no">normal</notehead>
        <lyric color="#000000" default-y="-80" name="part3verse1" number="1">
          <syllabic>middle</syllabic>
          <text>ßi</text>
        </lyric>
      </note>
      <note color="#000000" default-x="114" default-y="10">
        <pitch>
          <step>A</step>
          <octave>3</octave>
        </pitch>
        <duration>20160</duration>
        <type>half</type>
        <stem>up</stem>
        <notehead color="#000000" parentheses="no">normal</notehead>
        <lyric color="#000000" default-y="-80" name="part3verse1" number="1">
          <syllabic>end</syllabic>
          <text>mam,</text>
        </lyric>
      </note>
    </measure>
    <!--========================= Measure 13 =========================-->
    <measure number="13" width="198">
      <note color="#000000" default-x="15" default-y="15">
        <pitch>
          <step>B</step>
          <alter>-1</alter>
          <octave>3</octave>
        </pitch>
        <duration>20160</duration>
        <type>half</type>
        <stem>up</stem>
        <notehead color="#000000" parentheses="no">normal</notehead>
        <lyric color="#000000" default-y="-80" name="part3verse1" number="1">
          <syllabic>begin</syllabic>
          <text>pa</text>
        </lyric>
      </note>
      <note color="#000000" default-x="114" default-y="-50">
        <pitch>
          <step>C</step>
          <octave>4</octave>
        </pitch>
        <duration>20160</duration>
        <type>half</type>
        <stem>down</stem>
        <notehead color="#000000" parentheses="no">normal</notehead>
        <lyric color="#000000" default-y="-80" name="part3verse1" number="1">
          <syllabic>end</syllabic>
          <text>ti</text>
        </lyric>
      </note>
    </measure>
    <!--========================= Measure 14 =========================-->
    <measure number="14" width="198">
      <note color="#000000" default-x="15" default-y="-45">
        <pitch>
          <step>D</step>
          <octave>4</octave>
        </pitch>
        <duration>20160</duration>
        <type>half</type>
        <stem>down</stem>
        <notehead color="#000000" parentheses="no">normal</notehead>
        <lyric color="#000000" default-y="-80" name="part3verse1" number="1">
          <syllabic>begin</syllabic>
          <text>do</text>
        </lyric>
      </note>
      <note color="#000000" default-x="114" default-y="-40">
        <pitch>
          <step>E</step>
          <alter>-1</alter>
          <octave>4</octave>
        </pitch>
        <duration>20160</duration>
        <type>half</type>
        <accidental>flat</accidental>
        <stem>down</stem>
        <notehead color="#000000" parentheses="no">normal</notehead>
        <lyric color="#000000" default-y="-80" name="part3verse1" number="1">
          <syllabic>middle</syllabic>
          <text>lo</text>
        </lyric>
      </note>
    </measure>
    <!--========================= Measure 15 =========================-->
    <measure number="15" width="298">
      <note color="#000000" default-x="15" default-y="-45">
        <pitch>
          <step>D</step>
          <octave>4</octave>
        </pitch>
        <duration>20160</duration>
        <type>half</type>
        <stem>down</stem>
        <notehead color="#000000" parentheses="no">normal</notehead>
        <lyric color="#000000" default-y="-80" name="part3verse1" number="1">
          <syllabic>end</syllabic>
          <text>ris</text>
        </lyric>
      </note>
      <note color="#000000" default-x="114" default-y="-45">
        <pitch>
          <step>D</step>
          <octave>4</octave>
        </pitch>
        <duration>20160</duration>
        <type>half</type>
        <stem>down</stem>
        <notehead color="#000000" parentheses="no">normal</notehead>
        <lyric color="#000000" default-y="-80" name="part3verse1" number="1">
          <syllabic>begin</syllabic>
          <text>for</text>
        </lyric>
      </note>
      <note color="#000000" default-x="214" default-y="-45">
        <pitch>
          <step>D</step>
          <octave>4</octave>
        </pitch>
        <duration>20160</duration>
        <type>half</type>
        <stem>down</stem>
        <notehead color="#000000" parentheses="no">normal</notehead>
        <lyric color="#000000" default-y="-80" name="part3verse1" number="1">
          <syllabic>middle</syllabic>
          <text>mu</text>
        </lyric>
      </note>
    </measure>
    <!--========================= Measure 16 =========================-->
    <measure number="16" width="207">
      <note color="#000000" default-x="15">
        <pitch>
          <step>D</step>
          <octave>4</octave>
        </pitch>
        <duration>40320</duration>
        <tie type="start" />
        <type>whole</type>
        <notehead color="#000000" parentheses="no">normal</notehead>
        <notations>
          <tied type="start" />
        </notations>
        <lyric color="#000000" default-y="-80" name="part3verse1" number="1">
          <syllabic>end</syllabic>
          <text>lam.</text>
        </lyric>
      </note>
      <barline location="right">
        <bar-style>light-heavy</bar-style>
      </barline>
    </measure>
  </part>
  <!--=========================== Part 4 ===========================-->
  <part id="P4">
    <!--========================= Measure 1 ==========================-->
    <measure number="1" width="218">
      <print new-page="yes">
        <system-layout>
          <system-margins>
            <left-margin>173</left-margin>
            <right-margin>0</right-margin>
          </system-margins>
        </system-layout>
        <staff-layout number="1">
          <staff-distance>80</staff-distance>
        </staff-layout>
      </print>
      <attributes>
        <divisions>10080</divisions>
        <key color="#000000">
          <fifths>-1</fifths>
          <mode>major</mode>
        </key>
        <time color="#000000" symbol="cut">
          <beats>2</beats>
          <beat-type>2</beat-type>
        </time>
        <clef color="#000000">
          <sign>F</sign>
          <line>4</line>
        </clef>
        <staff-details print-object="yes" />
      </attributes>
      <direction>
        <direction-type>
          <words default-x="-146" default-y="-9" enclosure="none" font-family="capella-Renaissance" font-size="12.5787" font-style="normal" font-weight="normal" justify="left" valign="middle"></words>
        </direction-type>
      </direction>
      <direction>
        <direction-type>
          <words default-x="-116" default-y="-30" enclosure="none" font-family="capellaMittelalter" font-size="12.5787" font-style="normal" font-weight="normal" justify="left" valign="middle"></words>
        </direction-type>
      </direction>
      <direction>
        <direction-type>
          <words default-x="-96" default-y="-20" enclosure="none" font-family="capellaMittelalter" font-size="12.5787" font-style="normal" font-weight="normal" justify="left" valign="middle"></words>
        </direction-type>
      </direction>
      <note color="#000000" default-x="93">
        <pitch>
          <step>C</step>
          <octave>3</octave>
        </pitch>
        <duration>40320</duration>
        <type>whole</type>
        <notehead color="#000000" parentheses="no">normal</notehead>
        <lyric color="#000000" default-y="-80" name="part4verse1" number="1">
          <syllabic>single</syllabic>
          <text>4.</text>
        </lyric>
        <lyric color="#000000" default-y="-80" name="part4verse1" number="2">
          <syllabic>begin</syllabic>
          <text>Li</text>
        </lyric>
      </note>
    </measure>
    <!--========================= Measure 2 ==========================-->
    <measure number="2" width="184">
      <note color="#000000" default-x="15" default-y="10">
        <pitch>
          <step>C</step>
          <octave>3</octave>
        </pitch>
        <duration>20160</duration>
        <type>half</type>
        <stem>up</stem>
        <notehead color="#000000" parentheses="no">normal</notehead>
        <lyric color="#000000" default-y="-80" name="part4verse1" number="1">
          <syllabic>middle</syllabic>
          <text>ga</text>
        </lyric>
      </note>
      <note color="#000000" default-x="105">
        <pitch>
          <step>A</step>
          <octave>2</octave>
        </pitch>
        <duration>20160</duration>
        <type>half</type>
        <stem>up</stem>
        <notehead color="#000000" parentheses="no">normal</notehead>
        <lyric color="#000000" default-y="-80" name="part4verse1" number="1">
          <syllabic>end</syllabic>
          <text>tus</text>
        </lyric>
      </note>
    </measure>
    <!--========================= Measure 3 ==========================-->
    <measure number="3" width="178">
      <note color="#000000" default-x="15" default-y="-5">
        <pitch>
          <step>G</step>
          <octave>2</octave>
        </pitch>
        <duration>20160</duration>
        <type>half</type>
        <stem>up</stem>
        <notehead color="#000000" parentheses="no">normal</notehead>
        <lyric color="#000000" default-y="-80" name="part4verse1" number="1">
          <syllabic>single</syllabic>
          <text>es</text>
        </lyric>
      </note>
      <note color="#000000" default-x="105" default-y="10">
        <pitch>
          <step>C</step>
          <octave>3</octave>
        </pitch>
        <duration>20160</duration>
        <type>half</type>
        <stem>up</stem>
        <notehead color="#000000" parentheses="no">normal</notehead>
        <lyric color="#000000" default-y="-80" name="part4verse1" number="1">
          <syllabic>single</syllabic>
          <text>ut</text>
        </lyric>
      </note>
    </measure>
    <!--========================= Measure 4 ==========================-->
    <measure number="4" width="297">
      <note color="#000000" default-x="19" default-y="-5">
        <pitch>
          <step>G</step>
          <octave>2</octave>
        </pitch>
        <duration>20160</duration>
        <type>half</type>
        <stem>up</stem>
        <notehead color="#000000" parentheses="no">normal</notehead>
        <lyric color="#000000" default-y="-80" name="part4verse1" number="1">
          <syllabic>begin</syllabic>
          <text>sol</text>
        </lyric>
      </note>
      <note color="#000000" default-x="110" default-y="-5">
        <pitch>
          <step>G</step>
          <octave>2</octave>
        </pitch>
        <duration>20160</duration>
        <type>half</type>
        <stem>up</stem>
        <notehead color="#000000" parentheses="no">normal</notehead>
        <lyric color="#000000" default-y="-80" name="part4verse1" number="1">
          <syllabic>middle</syllabic>
          <text>ve</text>
        </lyric>
      </note>
      <note color="#000000" default-x="200" default-y="10">
        <pitch>
          <step>C</step>
          <octave>3</octave>
        </pitch>
        <duration>20160</duration>
        <type>half</type>
        <stem>up</stem>
        <notehead color="#000000" parentheses="no">normal</notehead>
        <lyric color="#000000" default-y="-80" name="part4verse1" number="1">
          <syllabic>end</syllabic>
          <text>res,</text>
        </lyric>
      </note>
    </measure>
    <!--========================= Measure 5 ==========================-->
    <measure number="5" width="184">
      <note color="#000000" default-x="15" default-y="10">
        <pitch>
          <step>C</step>
          <octave>3</octave>
        </pitch>
        <duration>20160</duration>
        <type>half</type>
        <stem>up</stem>
        <notehead color="#000000" parentheses="no">normal</notehead>
        <lyric color="#000000" default-y="-80" name="part4verse1" number="1">
          <syllabic>begin</syllabic>
          <text>mun</text>
        </lyric>
      </note>
      <note color="#000000" default-x="105" default-y="10">
        <pitch>
          <step>C</step>
          <octave>3</octave>
        </pitch>
        <duration>20160</duration>
        <type>half</type>
        <stem>up</stem>
        <notehead color="#000000" parentheses="no">normal</notehead>
        <lyric color="#000000" default-y="-80" name="part4verse1" number="1">
          <syllabic>end</syllabic>
          <text>di</text>
        </lyric>
      </note>
    </measure>
    <!--========================= Measure 6 ==========================-->
    <measure number="6" width="178">
      <note color="#000000" default-x="15">
        <pitch>
          <step>A</step>
          <octave>2</octave>
        </pitch>
        <duration>20160</duration>
        <type>half</type>
        <stem>up</stem>
        <notehead color="#000000" parentheses="no">normal</notehead>
        <lyric color="#000000" default-y="-80" name="part4verse1" number="1">
          <syllabic>begin</syllabic>
          <text>ru</text>
        </lyric>
      </note>
      <note color="#000000" default-x="105" default-y="-5">
        <pitch>
          <step>G</step>
          <octave>2</octave>
        </pitch>
        <duration>20160</duration>
        <type>half</type>
        <stem>up</stem>
        <notehead color="#000000" parentheses="no">normal</notehead>
        <lyric color="#000000" default-y="-80" name="part4verse1" number="1">
          <syllabic>middle</syllabic>
          <text>en</text>
        </lyric>
      </note>
    </measure>
    <!--========================= Measure 7 ==========================-->
    <measure number="7" width="182">
      <note color="#000000" default-x="16" default-y="-50">
        <pitch>
          <step>E</step>
          <alter>-1</alter>
          <octave>3</octave>
        </pitch>
        <duration>20160</duration>
        <type>half</type>
        <accidental>flat</accidental>
        <stem>down</stem>
        <notehead color="#000000" parentheses="no">normal</notehead>
        <lyric color="#000000" default-y="-80" name="part4verse1" number="1">
          <syllabic>end</syllabic>
          <text>tis</text>
        </lyric>
      </note>
      <note color="#000000" default-x="106" default-y="15">
        <pitch>
          <step>D</step>
          <octave>3</octave>
        </pitch>
        <duration>20160</duration>
        <type>half</type>
        <stem>up</stem>
        <notehead color="#000000" parentheses="no">normal</notehead>
        <lyric color="#000000" default-y="-80" name="part4verse1" number="1">
          <syllabic>begin</syllabic>
          <text>com</text>
        </lyric>
      </note>
    </measure>
    <!--========================= Measure 8 ==========================-->
    <measure number="8" width="202">
      <note color="#000000" default-x="15" default-y="-5">
        <pitch>
          <step>G</step>
          <octave>2</octave>
        </pitch>
        <duration>20160</duration>
        <type>half</type>
        <stem>up</stem>
        <notehead color="#000000" parentheses="no">normal</notehead>
        <lyric color="#000000" default-y="-80" name="part4verse1" number="1">
          <syllabic>middle</syllabic>
          <text>pli</text>
        </lyric>
      </note>
      <note color="#000000" default-x="105" default-y="-5">
        <pitch>
          <step>G</step>
          <octave>2</octave>
        </pitch>
        <duration>20160</duration>
        <type>half</type>
        <stem>up</stem>
        <notehead color="#000000" parentheses="no">normal</notehead>
        <lyric color="#000000" default-y="-80" name="part4verse1" number="1">
          <syllabic>end</syllabic>
          <text>ces,</text>
        </lyric>
      </note>
    </measure>
    <!--========================= Measure 9 ==========================-->
    <measure number="9" width="257">
      <print new-system="yes">
        <system-layout>
          <system-margins>
            <left-margin>21</left-margin>
            <right-margin>0</right-margin>
          </system-margins>
        </system-layout>
        <staff-layout number="1">
          <staff-distance>80</staff-distance>
        </staff-layout>
      </print>
      <attributes>
        <staff-details print-object="yes" />
      </attributes>
      <note color="#000000" default-x="73" default-y="15">
        <pitch>
          <step>D</step>
          <octave>3</octave>
        </pitch>
        <duration>20160</duration>
        <type>half</type>
        <stem>up</stem>
        <notehead color="#000000" parentheses="no">normal</notehead>
        <lyric color="#000000" default-y="-80" name="part4verse1" number="1">
          <syllabic>single</syllabic>
          <text>per</text>
        </lyric>
      </note>
      <note color="#000000" default-x="173" default-y="10">
        <pitch>
          <step>C</step>
          <octave>3</octave>
        </pitch>
        <duration>20160</duration>
        <type>half</type>
        <stem>up</stem>
        <notehead color="#000000" parentheses="no">normal</notehead>
        <lyric color="#000000" default-y="-80" name="part4verse1" number="1">
          <syllabic>begin</syllabic>
          <text>prob</text>
        </lyric>
      </note>
    </measure>
    <!--========================= Measure 10 =========================-->
    <measure number="10" width="204">
      <note color="#000000" default-x="17" default-y="5">
        <pitch>
          <step>B</step>
          <alter>1</alter>
          <octave>2</octave>
        </pitch>
        <duration>20160</duration>
        <type>half</type>
        <accidental>sharp</accidental>
        <stem>up</stem>
        <notehead color="#000000" parentheses="no">normal</notehead>
        <lyric color="#000000" default-y="-80" name="part4verse1" number="1">
          <syllabic>end</syllabic>
          <text>ra</text>
        </lyric>
      </note>
      <note color="#000000" default-x="116" default-y="10">
        <pitch>
          <step>C</step>
          <octave>3</octave>
        </pitch>
        <duration>20160</duration>
        <type>half</type>
        <stem>up</stem>
        <notehead color="#000000" parentheses="no">normal</notehead>
        <lyric color="#000000" default-y="-80" name="part4verse1" number="1">
          <syllabic>begin</syllabic>
          <text>ter</text>
        </lyric>
      </note>
    </measure>
    <!--========================= Measure 11 =========================-->
    <measure number="11" width="193">
      <note color="#000000" default-x="16" default-y="-50">
        <pitch>
          <step>E</step>
          <alter>-1</alter>
          <octave>3</octave>
        </pitch>
        <duration>20160</duration>
        <type>half</type>
        <accidental>flat</accidental>
        <stem>down</stem>
        <notehead color="#000000" parentheses="no">normal</notehead>
        <lyric color="#000000" default-y="-80" name="part4verse1" number="1">
          <syllabic>end</syllabic>
          <text>gens</text>
        </lyric>
      </note>
      <note color="#000000" default-x="109" default-y="5">
        <pitch>
          <step>B</step>
          <alter>-1</alter>
          <octave>2</octave>
        </pitch>
        <duration>20160</duration>
        <type>half</type>
        <stem>up</stem>
        <notehead color="#000000" parentheses="no">normal</notehead>
        <lyric color="#000000" default-y="-80" name="part4verse1" number="1">
          <syllabic>begin</syllabic>
          <text>cri</text>
        </lyric>
      </note>
    </measure>
    <!--========================= Measure 12 =========================-->
    <measure number="12" width="220">
      <note color="#000000" default-x="15" default-y="10">
        <pitch>
          <step>C</step>
          <octave>3</octave>
        </pitch>
        <duration>20160</duration>
        <type>half</type>
        <stem>up</stem>
        <notehead color="#000000" parentheses="no">normal</notehead>
        <lyric color="#000000" default-y="-80" name="part4verse1" number="1">
          <syllabic>middle</syllabic>
          <text>mi</text>
        </lyric>
      </note>
      <note color="#000000" default-x="114" default-y="15">
        <pitch>
          <step>D</step>
          <octave>3</octave>
        </pitch>
        <duration>20160</duration>
        <type>half</type>
        <stem>up</stem>
        <notehead color="#000000" parentheses="no">normal</notehead>
        <lyric color="#000000" default-y="-80" name="part4verse1" number="1">
          <syllabic>end</syllabic>
          <text>na,</text>
        </lyric>
      </note>
    </measure>
    <!--========================= Measure 13 =========================-->
    <measure number="13" width="198">
      <note color="#000000" default-x="15" default-y="5">
        <pitch>
          <step>B</step>
          <alter>-1</alter>
          <octave>2</octave>
        </pitch>
        <duration>20160</duration>
        <type>half</type>
        <stem>up</stem>
        <notehead color="#000000" parentheses="no">normal</notehead>
        <lyric color="#000000" default-y="-80" name="part4verse1" number="1">
          <syllabic>single</syllabic>
          <text>quæ</text>
        </lyric>
      </note>
      <note color="#000000" default-x="114">
        <pitch>
          <step>A</step>
          <octave>2</octave>
        </pitch>
        <duration>20160</duration>
        <type>half</type>
        <stem>up</stem>
        <notehead color="#000000" parentheses="no">normal</notehead>
        <lyric color="#000000" default-y="-80" name="part4verse1" number="1">
          <syllabic>begin</syllabic>
          <text>mun</text>
        </lyric>
      </note>
    </measure>
    <!--========================= Measure 14 =========================-->
    <measure number="14" width="198">
      <note color="#000000" default-x="15" default-y="-5">
        <pitch>
          <step>G</step>
          <octave>2</octave>
        </pitch>
        <duration>20160</duration>
        <type>half</type>
        <stem>up</stem>
        <notehead color="#000000" parentheses="no">normal</notehead>
        <lyric color="#000000" default-y="-80" name="part4verse1" number="1">
          <syllabic>end</syllabic>
          <text>dus</text>
        </lyric>
      </note>
      <note color="#000000" default-x="114" default-y="10">
        <pitch>
          <step>C</step>
          <octave>3</octave>
        </pitch>
        <duration>20160</duration>
        <type>half</type>
        <stem>up</stem>
        <notehead color="#000000" parentheses="no">normal</notehead>
        <lyric color="#000000" default-y="-80" name="part4verse1" number="1">
          <syllabic>begin</syllabic>
          <text>au</text>
        </lyric>
      </note>
    </measure>
    <!--========================= Measure 15 =========================-->
    <measure number="15" width="298">
      <note color="#000000" default-x="15" default-y="-5">
        <pitch>
          <step>G</step>
          <octave>2</octave>
        </pitch>
        <duration>20160</duration>
        <type>half</type>
        <stem>up</stem>
        <notehead color="#000000" parentheses="no">normal</notehead>
        <lyric color="#000000" default-y="-80" name="part4verse1" number="1">
          <syllabic>end</syllabic>
          <text>xit</text>
        </lyric>
      </note>
      <note color="#000000" default-x="114" default-y="15">
        <pitch>
          <step>D</step>
          <octave>3</octave>
        </pitch>
        <duration>20160</duration>
        <type>half</type>
        <stem>up</stem>
        <notehead color="#000000" parentheses="no">normal</notehead>
        <lyric color="#000000" default-y="-80" name="part4verse1" number="1">
          <syllabic>begin</syllabic>
          <text>plu</text>
        </lyric>
      </note>
      <note color="#000000" default-x="214" default-y="15">
        <pitch>
          <step>D</step>
          <octave>3</octave>
        </pitch>
        <duration>20160</duration>
        <type>half</type>
        <stem>up</stem>
        <notehead color="#000000" parentheses="no">normal</notehead>
        <lyric color="#000000" default-y="-80" name="part4verse1" number="1">
          <syllabic>middle</syllabic>
          <text>ri</text>
        </lyric>
      </note>
    </measure>
    <!--========================= Measure 16 =========================-->
    <measure number="16" width="207">
      <note color="#000000" default-x="15">
        <pitch>
          <step>G</step>
          <octave>2</octave>
        </pitch>
        <duration>40320</duration>
        <tie type="start" />
        <type>whole</type>
        <notehead color="#000000" parentheses="no">normal</notehead>
        <notations>
          <tied type="start" />
        </notations>
        <lyric color="#000000" default-y="-80" name="part4verse1" number="1">
          <syllabic>end</syllabic>
          <text>ma.</text>
        </lyric>
      </note>
      <barline location="right">
        <bar-style>light-heavy</bar-style>
      </barline>
    </measure>
  </part>
</score-partwise>