<?xml version="1.0" encoding="UTF-8" standalone="no"?>
<!DOCTYPE score-partwise PUBLIC "-//Recordare//DTD MusicXML 3.1 Partwise//EN" "http://www.musicxml.org/dtds/partwise.dtd">
<score-partwise version="3.1">
  <identification>
    <rights>©</rights>
    <encoding>
      <software>Finale v26.3 for Windows</software>
      <encoding-date>2021-04-20</encoding-date>
      <supports attribute="new-system" element="print" type="yes" value="yes"/>
      <supports attribute="new-page" element="print" type="yes" value="yes"/>
      <supports element="accidental" type="yes"/>
      <supports element="beam" type="yes"/>
      <supports element="stem" type="yes"/>
    </encoding>
  </identification>
  <defaults>
    <scaling>
      <millimeters>7.2319</millimeters>
      <tenths>40</tenths>
    </scaling>
    <page-layout>
      <page-height>1545</page-height>
      <page-width>1194</page-width>
      <page-margins type="both">
        <left-margin>140</left-margin>
        <right-margin>70</right-margin>
        <top-margin>70</top-margin>
        <bottom-margin>70</bottom-margin>
      </page-margins>
    </page-layout>
    <system-layout>
      <system-margins>
        <left-margin>0</left-margin>
        <right-margin>0</right-margin>
      </system-margins>
      <system-distance>121</system-distance>
      <top-system-distance>70</top-system-distance>
    </system-layout>
    <staff-layout>
      <staff-distance>80</staff-distance>
    </staff-layout>
    <appearance>
      <line-width type="stem">0.918</line-width>
      <line-width type="beam">5</line-width>
      <line-width type="staff">0.918</line-width>
      <line-width type="light barline">0.918</line-width>
      <line-width type="heavy barline">5</line-width>
      <line-width type="leger">1.0807</line-width>
      <line-width type="ending">0.918</line-width>
      <line-width type="wedge">0.918</line-width>
      <line-width type="enclosure">0.918</line-width>
      <line-width type="tuplet bracket">0.918</line-width>
      <note-size type="grace">60</note-size>
      <note-size type="cue">60</note-size>
      <distance type="hyphen">120</distance>
      <distance type="beam">7.5</distance>
    </appearance>
    <music-font font-family="Maestro,engraved" font-size="20.5"/>
    <word-font font-family="Times New Roman" font-size="10.25"/>
  </defaults>
  <credit page="1">
    <credit-type>rights</credit-type>
    <credit-words default-x="632" default-y="53" font-size="10" justify="center" valign="bottom">©</credit-words>
  </credit>
  <credit page="1">
    <credit-type>part name</credit-type>
    <credit-words default-x="140" default-y="1478" font-size="12" valign="top">Score</credit-words>
  </credit>
  <credit page="2">
    <credit-type>page number</credit-type>
    <credit-words default-x="140" default-y="1497" font-size="12" valign="top">2</credit-words>
  </credit>
  <part-list>
    <score-part id="P1">
      <part-name>Piano</part-name>
      <part-abbreviation>Pno.</part-abbreviation>
      <score-instrument id="P1-I1">
        <instrument-name>SmartMusic SoftSynth</instrument-name>
        <instrument-sound>keyboard.piano</instrument-sound>
        <virtual-instrument/>
      </score-instrument>
      <midi-device>SmartMusic SoftSynth</midi-device>
      <midi-instrument id="P1-I1">
        <midi-channel>1</midi-channel>
        <midi-bank>15489</midi-bank>
        <midi-program>1</midi-program>
        <volume>80</volume>
        <pan>0</pan>
      </midi-instrument>
    </score-part>
  </part-list>
  <!--=========================================================-->
  <part id="P1">
    <measure number="1" width="379">
      <print page-number="1">
        <system-layout>
          <system-margins>
            <left-margin>70</left-margin>
            <right-margin>0</right-margin>
          </system-margins>
          <top-system-distance>177</top-system-distance>
        </system-layout>
        <measure-numbering>system</measure-numbering>
      </print>
      <attributes>
        <divisions>40</divisions>
        <key>
          <fifths>0</fifths>
          <mode>major</mode>
        </key>
        <time>
          <beats>4</beats>
          <beat-type>4</beat-type>
        </time>
        <staves>2</staves>
        <clef number="1">
          <sign>G</sign>
          <line>2</line>
        </clef>
        <clef number="2">
          <sign>F</sign>
          <line>4</line>
        </clef>
      </attributes>
      <sound tempo="120"/>
      <note default-x="121">
        <pitch>
          <step>C</step>
          <alter>-1</alter>
          <octave>4</octave>
        </pitch>
        <duration>20</duration>
        <voice>1</voice>
        <type>eighth</type>
        <accidental>flat</accidental>
        <stem default-y="20">up</stem>
        <staff>1</staff>
        <beam number="1">begin</beam>
      </note>
      <note default-x="121">
        <chord/>
        <pitch>
          <step>F</step>
          <alter>1</alter>
          <octave>4</octave>
        </pitch>
        <duration>20</duration>
        <voice>1</voice>
        <type>eighth</type>
        <accidental>sharp</accidental>
        <stem>up</stem>
        <staff>1</staff>
      </note>
      <note default-x="133">
        <chord/>
        <pitch>
          <step>G</step>
          <octave>4</octave>
        </pitch>
        <duration>20</duration>
        <voice>1</voice>
        <type>eighth</type>
        <stem>up</stem>
        <staff>1</staff>
      </note>
      <note default-x="121">
        <chord/>
        <pitch>
          <step>B</step>
          <alter>3</alter>
          <octave>4</octave>
        </pitch>
        <duration>20</duration>
        <voice>1</voice>
        <type>eighth</type>
        <accidental>triple-sharp</accidental>
        <stem>up</stem>
        <staff>1</staff>
      </note>
      <note default-x="194">
        <pitch>
          <step>B</step>
          <alter>-3</alter>
          <octave>3</octave>
        </pitch>
        <duration>16</duration>
        <voice>1</voice>
        <type>eighth</type>
        <accidental>triple-flat</accidental>
        <time-modification>
          <actual-notes>5</actual-notes>
          <normal-notes>4</normal-notes>
        </time-modification>
        <stem default-y="25">up</stem>
        <staff>1</staff>
        <beam number="1">end</beam>
        <notations>
          <tuplet bracket="yes" number="1" type="start"/>
        </notations>
      </note>
      <note default-x="194">
        <chord/>
        <pitch>
          <step>G</step>
          <alter>1</alter>
          <octave>4</octave>
        </pitch>
        <duration>16</duration>
        <voice>1</voice>
        <type>eighth</type>
        <accidental>sharp</accidental>
        <time-modification>
          <actual-notes>5</actual-notes>
          <normal-notes>4</normal-notes>
        </time-modification>
        <stem>up</stem>
        <staff>1</staff>
      </note>
      <note default-x="194">
        <chord/>
        <pitch>
          <step>D</step>
          <alter>2</alter>
          <octave>5</octave>
        </pitch>
        <duration>16</duration>
        <voice>1</voice>
        <type>eighth</type>
        <accidental>double-sharp</accidental>
        <time-modification>
          <actual-notes>5</actual-notes>
          <normal-notes>4</normal-notes>
        </time-modification>
        <stem>up</stem>
        <staff>1</staff>
      </note>
      <note default-x="219">
        <rest>
          <display-step>A</display-step>
          <display-octave>5</display-octave>
        </rest>
        <duration>32</duration>
        <voice>1</voice>
        <type>quarter</type>
        <time-modification>
          <actual-notes>5</actual-notes>
          <normal-notes>4</normal-notes>
        </time-modification>
        <staff>1</staff>
      </note>
      <note default-x="255">
        <rest>
          <display-step>A</display-step>
          <display-octave>5</display-octave>
        </rest>
        <duration>16</duration>
        <voice>1</voice>
        <type>eighth</type>
        <time-modification>
          <actual-notes>5</actual-notes>
          <normal-notes>4</normal-notes>
        </time-modification>
        <staff>1</staff>
      </note>
      <note default-x="277">
        <rest>
          <display-step>A</display-step>
          <display-octave>5</display-octave>
        </rest>
        <duration>16</duration>
        <voice>1</voice>
        <type>eighth</type>
        <time-modification>
          <actual-notes>5</actual-notes>
          <normal-notes>4</normal-notes>
        </time-modification>
        <staff>1</staff>
        <notations>
          <tuplet number="1" type="stop"/>
        </notations>
      </note>
      <note default-x="300">
        <rest>
          <display-step>A</display-step>
          <display-octave>5</display-octave>
        </rest>
        <duration>20</duration>
        <voice>1</voice>
        <type>eighth</type>
        <staff>1</staff>
      </note>
      <note default-x="325">
        <rest>
          <display-step>A</display-step>
          <display-octave>5</display-octave>
        </rest>
        <duration>20</duration>
        <voice>1</voice>
        <type>eighth</type>
        <staff>1</staff>
      </note>
      <note default-x="352">
        <rest>
          <display-step>A</display-step>
          <display-octave>5</display-octave>
        </rest>
        <duration>20</duration>
        <voice>1</voice>
        <type>eighth</type>
        <staff>1</staff>
      </note>
      <backup>
        <duration>160</duration>
      </backup>
      <note default-x="121">
        <pitch>
          <step>D</step>
          <octave>6</octave>
        </pitch>
        <duration>80</duration>
        <voice>2</voice>
        <type>half</type>
        <stem default-y="-20">down</stem>
        <staff>1</staff>
      </note>
      <note default-x="271">
        <pitch>
          <step>B</step>
          <octave>5</octave>
        </pitch>
        <duration>80</duration>
        <voice>2</voice>
        <type>half</type>
        <stem default-y="-20">down</stem>
        <staff>1</staff>
      </note>
      <backup>
        <duration>160</duration>
      </backup>
      <note default-x="120">
        <rest/>
        <duration>80</duration>
        <voice>3</voice>
        <type>half</type>
        <staff>2</staff>
      </note>
      <note default-x="271">
        <pitch>
          <step>F</step>
          <octave>2</octave>
        </pitch>
        <duration>40</duration>
        <voice>3</voice>
        <type>quarter</type>
        <stem default-y="-73">down</stem>
        <staff>2</staff>
      </note>
      <note default-x="271">
        <chord/>
        <pitch>
          <step>F</step>
          <octave>3</octave>
        </pitch>
        <duration>40</duration>
        <voice>3</voice>
        <type>quarter</type>
        <stem>down</stem>
        <staff>2</staff>
      </note>
      <note default-x="271">
        <chord/>
        <pitch>
          <step>F</step>
          <octave>4</octave>
        </pitch>
        <duration>40</duration>
        <voice>3</voice>
        <type>quarter</type>
        <stem>down</stem>
        <staff>2</staff>
      </note>
      <note default-x="326">
        <rest/>
        <duration>40</duration>
        <voice>3</voice>
        <type>quarter</type>
        <staff>2</staff>
      </note>
    </measure>
    <!--=======================================================-->
    <measure number="2" width="239">
      <attributes>
        <time>
          <beats>6</beats>
          <beat-type>8</beat-type>
        </time>
      </attributes>
      <note default-x="46">
        <pitch>
          <step>F</step>
          <octave>4</octave>
        </pitch>
        <duration>40</duration>
        <voice>1</voice>
        <type>quarter</type>
        <stem default-y="18">up</stem>
        <staff>1</staff>
      </note>
      <note default-x="46">
        <chord/>
        <pitch>
          <step>D</step>
          <octave>5</octave>
        </pitch>
        <duration>40</duration>
        <voice>1</voice>
        <type>quarter</type>
        <stem>up</stem>
        <staff>1</staff>
      </note>
      <note default-x="89">
        <rest>
          <display-step>A</display-step>
          <display-octave>5</display-octave>
        </rest>
        <duration>5</duration>
        <voice>1</voice>
        <type>32nd</type>
        <staff>1</staff>
      </note>
      <note default-x="109">
        <rest>
          <display-step>A</display-step>
          <display-octave>5</display-octave>
        </rest>
        <duration>15</duration>
        <voice>1</voice>
        <type>16th</type>
        <dot/>
        <staff>1</staff>
      </note>
      <note default-x="140">
        <rest>
          <display-step>A</display-step>
          <display-octave>5</display-octave>
        </rest>
        <duration>40</duration>
        <voice>1</voice>
        <type>quarter</type>
        <staff>1</staff>
      </note>
      <note default-x="187">
        <rest>
          <display-step>A</display-step>
          <display-octave>5</display-octave>
        </rest>
        <duration>5</duration>
        <voice>1</voice>
        <type>32nd</type>
        <staff>1</staff>
      </note>
      <note default-x="208">
        <rest>
          <display-step>A</display-step>
          <display-octave>5</display-octave>
        </rest>
        <duration>15</duration>
        <voice>1</voice>
        <type>16th</type>
        <dot/>
        <staff>1</staff>
      </note>
      <backup>
        <duration>120</duration>
      </backup>
      <note default-x="46">
        <pitch>
          <step>C</step>
          <octave>6</octave>
        </pitch>
        <duration>80</duration>
        <voice>2</voice>
        <type>half</type>
        <stem default-y="-20">down</stem>
        <staff>1</staff>
      </note>
      <note default-x="161">
        <rest>
          <display-step>C</display-step>
          <display-octave>4</display-octave>
        </rest>
        <duration>20</duration>
        <voice>2</voice>
        <type>eighth</type>
        <staff>1</staff>
      </note>
      <note default-x="187">
        <rest>
          <display-step>C</display-step>
          <display-octave>4</display-octave>
        </rest>
        <duration>20</duration>
        <voice>2</voice>
        <type>eighth</type>
        <staff>1</staff>
      </note>
      <backup>
        <duration>120</duration>
      </backup>
      <note default-x="46">
        <pitch>
          <step>F</step>
          <octave>3</octave>
        </pitch>
        <duration>40</duration>
        <voice>3</voice>
        <type>quarter</type>
        <stem default-y="18">up</stem>
        <staff>2</staff>
      </note>
      <note default-x="89">
        <pitch>
          <step>E</step>
          <octave>3</octave>
        </pitch>
        <duration>40</duration>
        <voice>3</voice>
        <type>quarter</type>
        <stem default-y="13.5">up</stem>
        <staff>2</staff>
      </note>
      <note default-x="161">
        <pitch>
          <step>F</step>
          <octave>2</octave>
        </pitch>
        <duration>40</duration>
        <voice>3</voice>
        <type>quarter</type>
        <stem default-y="-10">up</stem>
        <staff>2</staff>
      </note>
      <backup>
        <duration>120</duration>
      </backup>
      <note default-x="58">
        <pitch>
          <step>B</step>
          <octave>2</octave>
        </pitch>
        <duration>80</duration>
        <voice>4</voice>
        <type>half</type>
        <stem default-y="-58">down</stem>
        <staff>2</staff>
      </note>
      <note default-x="161">
        <rest>
          <display-step>E</display-step>
          <display-octave>2</display-octave>
        </rest>
        <duration>20</duration>
        <voice>4</voice>
        <type>eighth</type>
        <staff>2</staff>
      </note>
      <note default-x="187">
        <rest>
          <display-step>E</display-step>
          <display-octave>2</display-octave>
        </rest>
        <duration>20</duration>
        <voice>4</voice>
        <type>eighth</type>
        <staff>2</staff>
      </note>
    </measure>
    <!--=======================================================-->
    <measure number="3" width="127">
      <note default-x="13">
        <pitch>
          <step>A</step>
          <octave>4</octave>
        </pitch>
        <duration>80</duration>
        <voice>2</voice>
        <type>half</type>
        <stem default-y="10">up</stem>
        <staff>1</staff>
      </note>
      <note default-x="77">
        <rest/>
        <duration>20</duration>
        <voice>2</voice>
        <type>eighth</type>
        <staff>1</staff>
      </note>
      <note default-x="101">
        <rest/>
        <duration>20</duration>
        <voice>2</voice>
        <type>eighth</type>
        <staff>1</staff>
      </note>
      <backup>
        <duration>120</duration>
      </backup>
      <note>
        <rest measure="yes"/>
        <duration>120</duration>
        <voice>3</voice>
        <staff>2</staff>
      </note>
    </measure>
    <!--=======================================================-->
    <measure number="4" width="168">
      <note default-x="13">
        <pitch>
          <step>C</step>
          <octave>5</octave>
        </pitch>
        <duration>80</duration>
        <voice>2</voice>
        <type>half</type>
        <stem default-y="-50">down</stem>
        <staff>1</staff>
      </note>
      <backup>
        <duration>80</duration>
      </backup>
      <note default-x="13">
        <pitch>
          <step>D</step>
          <octave>3</octave>
        </pitch>
        <duration>40</duration>
        <voice>3</voice>
        <type>quarter</type>
        <stem default-y="-55">down</stem>
        <staff>2</staff>
      </note>
      <note default-x="53">
        <rest/>
        <duration>20</duration>
        <voice>3</voice>
        <type>eighth</type>
        <staff>2</staff>
      </note>
      <note default-x="77">
        <rest/>
        <duration>60</duration>
        <voice>3</voice>
        <type>quarter</type>
        <dot/>
        <staff>2</staff>
      </note>
    </measure>
    <!--=======================================================-->
    <measure number="5" width="228">
      <print new-system="yes">
        <system-layout>
          <system-distance>114</system-distance>
        </system-layout>
      </print>
      <attributes>
        <time>
          <beats>4</beats>
          <beat-type>4</beat-type>
        </time>
      </attributes>
      <note>
        <rest measure="yes"/>
        <duration>160</duration>
        <voice>1</voice>
        <staff>1</staff>
      </note>
      <backup>
        <duration>160</duration>
      </backup>
      <note default-x="84">
        <pitch>
          <step>F</step>
          <octave>3</octave>
        </pitch>
        <duration>40</duration>
        <voice>3</voice>
        <type>quarter</type>
        <stem default-y="-45">down</stem>
        <staff>2</staff>
      </note>
      <note default-x="120">
        <rest/>
        <duration>40</duration>
        <voice>3</voice>
        <type>quarter</type>
        <staff>2</staff>
      </note>
      <note default-x="156">
        <pitch>
          <step>D</step>
          <octave>3</octave>
        </pitch>
        <duration>40</duration>
        <voice>3</voice>
        <type>quarter</type>
        <stem default-y="-55">down</stem>
        <staff>2</staff>
      </note>
      <note default-x="192">
        <rest/>
        <duration>40</duration>
        <voice>3</voice>
        <type>quarter</type>
        <staff>2</staff>
      </note>
    </measure>
    <!--=======================================================-->
    <measure number="6" width="108">
      <note>
        <rest measure="yes"/>
        <duration>160</duration>
        <voice>1</voice>
        <staff>1</staff>
      </note>
      <backup>
        <duration>160</duration>
      </backup>
      <note>
        <rest measure="yes"/>
        <duration>160</duration>
        <voice>3</voice>
        <staff>2</staff>
      </note>
    </measure>
    <!--=======================================================-->
    <measure number="7" width="108">
      <note>
        <rest measure="yes"/>
        <duration>160</duration>
        <voice>1</voice>
        <staff>1</staff>
      </note>
      <backup>
        <duration>160</duration>
      </backup>
      <note>
        <rest measure="yes"/>
        <duration>160</duration>
        <voice>3</voice>
        <staff>2</staff>
      </note>
    </measure>
    <!--=======================================================-->
    <measure number="8" width="108">
      <note>
        <rest measure="yes"/>
        <duration>160</duration>
        <voice>1</voice>
        <staff>1</staff>
      </note>
      <backup>
        <duration>160</duration>
      </backup>
      <note>
        <rest measure="yes"/>
        <duration>160</duration>
        <voice>3</voice>
        <staff>2</staff>
      </note>
    </measure>
    <!--=======================================================-->
    <measure number="9" width="108">
      <note>
        <rest measure="yes"/>
        <duration>160</duration>
        <voice>1</voice>
        <staff>1</staff>
      </note>
      <backup>
        <duration>160</duration>
      </backup>
      <note>
        <rest measure="yes"/>
        <duration>160</duration>
        <voice>3</voice>
        <staff>2</staff>
      </note>
    </measure>
    <!--=======================================================-->
    <measure number="10" width="108">
      <note>
        <rest measure="yes"/>
        <duration>160</duration>
        <voice>1</voice>
        <staff>1</staff>
      </note>
      <backup>
        <duration>160</duration>
      </backup>
      <note>
        <rest measure="yes"/>
        <duration>160</duration>
        <voice>3</voice>
        <staff>2</staff>
      </note>
    </measure>
    <!--=======================================================-->
    <measure number="11" width="108">
      <note>
        <rest measure="yes"/>
        <duration>160</duration>
        <voice>1</voice>
        <staff>1</staff>
      </note>
      <backup>
        <duration>160</duration>
      </backup>
      <note>
        <rest measure="yes"/>
        <duration>160</duration>
        <voice>3</voice>
        <staff>2</staff>
      </note>
    </measure>
    <!--=======================================================-->
    <measure number="12" width="108">
      <note>
        <rest measure="yes"/>
        <duration>160</duration>
        <voice>1</voice>
        <staff>1</staff>
      </note>
      <backup>
        <duration>160</duration>
      </backup>
      <note>
        <rest measure="yes"/>
        <duration>160</duration>
        <voice>3</voice>
        <staff>2</staff>
      </note>
    </measure>
    <!--=======================================================-->
    <measure number="13" width="157">
      <print new-system="yes">
        <system-layout>
          <system-distance>114</system-distance>
        </system-layout>
      </print>
      <note>
        <rest measure="yes"/>
        <duration>160</duration>
        <voice>1</voice>
        <staff>1</staff>
      </note>
      <backup>
        <duration>160</duration>
      </backup>
      <note>
        <rest measure="yes"/>
        <duration>160</duration>
        <voice>3</voice>
        <staff>2</staff>
      </note>
    </measure>
    <!--=======================================================-->
    <measure number="14" width="118">
      <note>
        <rest measure="yes"/>
        <duration>160</duration>
        <voice>1</voice>
        <staff>1</staff>
      </note>
      <backup>
        <duration>160</duration>
      </backup>
      <note>
        <rest measure="yes"/>
        <duration>160</duration>
        <voice>3</voice>
        <staff>2</staff>
      </note>
    </measure>
    <!--=======================================================-->
    <measure number="15" width="118">
      <note>
        <rest measure="yes"/>
        <duration>160</duration>
        <voice>1</voice>
        <staff>1</staff>
      </note>
      <backup>
        <duration>160</duration>
      </backup>
      <note>
        <rest measure="yes"/>
        <duration>160</duration>
        <voice>3</voice>
        <staff>2</staff>
      </note>
    </measure>
    <!--=======================================================-->
    <measure number="16" width="118">
      <note>
        <rest measure="yes"/>
        <duration>160</duration>
        <voice>1</voice>
        <staff>1</staff>
      </note>
      <backup>
        <duration>160</duration>
      </backup>
      <note>
        <rest measure="yes"/>
        <duration>160</duration>
        <voice>3</voice>
        <staff>2</staff>
      </note>
    </measure>
    <!--=======================================================-->
    <measure number="17" width="118">
      <note>
        <rest measure="yes"/>
        <duration>160</duration>
        <voice>1</voice>
        <staff>1</staff>
      </note>
      <backup>
        <duration>160</duration>
      </backup>
      <note>
        <rest measure="yes"/>
        <duration>160</duration>
        <voice>3</voice>
        <staff>2</staff>
      </note>
    </measure>
    <!--=======================================================-->
    <measure number="18" width="118">
      <note>
        <rest measure="yes"/>
        <duration>160</duration>
        <voice>1</voice>
        <staff>1</staff>
      </note>
      <backup>
        <duration>160</duration>
      </backup>
      <note>
        <rest measure="yes"/>
        <duration>160</duration>
        <voice>3</voice>
        <staff>2</staff>
      </note>
    </measure>
    <!--=======================================================-->
    <measure number="19" width="118">
      <note>
        <rest measure="yes"/>
        <duration>160</duration>
        <voice>1</voice>
        <staff>1</staff>
      </note>
      <backup>
        <duration>160</duration>
      </backup>
      <note>
        <rest measure="yes"/>
        <duration>160</duration>
        <voice>3</voice>
        <staff>2</staff>
      </note>
    </measure>
    <!--=======================================================-->
    <measure number="20" width="119">
      <note>
        <rest measure="yes"/>
        <duration>160</duration>
        <voice>1</voice>
        <staff>1</staff>
      </note>
      <backup>
        <duration>160</duration>
      </backup>
      <note>
        <rest measure="yes"/>
        <duration>160</duration>
        <voice>3</voice>
        <staff>2</staff>
      </note>
    </measure>
    <!--=======================================================-->
    <measure number="21" width="157">
      <print new-system="yes">
        <system-layout>
          <system-distance>114</system-distance>
        </system-layout>
      </print>
      <note>
        <rest measure="yes"/>
        <duration>160</duration>
        <voice>1</voice>
        <staff>1</staff>
      </note>
      <backup>
        <duration>160</duration>
      </backup>
      <note>
        <rest measure="yes"/>
        <duration>160</duration>
        <voice>3</voice>
        <staff>2</staff>
      </note>
    </measure>
    <!--=======================================================-->
    <measure number="22" width="118">
      <note>
        <rest measure="yes"/>
        <duration>160</duration>
        <voice>1</voice>
        <staff>1</staff>
      </note>
      <backup>
        <duration>160</duration>
      </backup>
      <note>
        <rest measure="yes"/>
        <duration>160</duration>
        <voice>3</voice>
        <staff>2</staff>
      </note>
    </measure>
    <!--=======================================================-->
    <measure number="23" width="118">
      <note>
        <rest measure="yes"/>
        <duration>160</duration>
        <voice>1</voice>
        <staff>1</staff>
      </note>
      <backup>
        <duration>160</duration>
      </backup>
      <note>
        <rest measure="yes"/>
        <duration>160</duration>
        <voice>3</voice>
        <staff>2</staff>
      </note>
    </measure>
    <!--=======================================================-->
    <measure number="24" width="118">
      <note>
        <rest measure="yes"/>
        <duration>160</duration>
        <voice>1</voice>
        <staff>1</staff>
      </note>
      <backup>
        <duration>160</duration>
      </backup>
      <note>
        <rest measure="yes"/>
        <duration>160</duration>
        <voice>3</voice>
        <staff>2</staff>
      </note>
    </measure>
    <!--=======================================================-->
    <measure number="25" width="118">
      <note>
        <rest measure="yes"/>
        <duration>160</duration>
        <voice>1</voice>
        <staff>1</staff>
      </note>
      <backup>
        <duration>160</duration>
      </backup>
      <note>
        <rest measure="yes"/>
        <duration>160</duration>
        <voice>3</voice>
        <staff>2</staff>
      </note>
    </measure>
    <!--=======================================================-->
    <measure number="26" width="118">
      <note>
        <rest measure="yes"/>
        <duration>160</duration>
        <voice>1</voice>
        <staff>1</staff>
      </note>
      <backup>
        <duration>160</duration>
      </backup>
      <note>
        <rest measure="yes"/>
        <duration>160</duration>
        <voice>3</voice>
        <staff>2</staff>
      </note>
    </measure>
    <!--=======================================================-->
    <measure number="27" width="118">
      <note>
        <rest measure="yes"/>
        <duration>160</duration>
        <voice>1</voice>
        <staff>1</staff>
      </note>
      <backup>
        <duration>160</duration>
      </backup>
      <note>
        <rest measure="yes"/>
        <duration>160</duration>
        <voice>3</voice>
        <staff>2</staff>
      </note>
    </measure>
    <!--=======================================================-->
    <measure number="28" width="119">
      <note>
        <rest measure="yes"/>
        <duration>160</duration>
        <voice>1</voice>
        <staff>1</staff>
      </note>
      <backup>
        <duration>160</duration>
      </backup>
      <note>
        <rest measure="yes"/>
        <duration>160</duration>
        <voice>3</voice>
        <staff>2</staff>
      </note>
    </measure>
    <!--=======================================================-->
    <measure number="29" width="354">
      <print new-page="yes" page-number="2"/>
      <note>
        <rest measure="yes"/>
        <duration>160</duration>
        <voice>1</voice>
        <staff>1</staff>
      </note>
      <backup>
        <duration>160</duration>
      </backup>
      <note>
        <rest measure="yes"/>
        <duration>160</duration>
        <voice>3</voice>
        <staff>2</staff>
      </note>
    </measure>
    <!--=======================================================-->
    <measure number="30" width="315">
      <note>
        <rest measure="yes"/>
        <duration>160</duration>
        <voice>1</voice>
        <staff>1</staff>
      </note>
      <backup>
        <duration>160</duration>
      </backup>
      <note>
        <rest measure="yes"/>
        <duration>160</duration>
        <voice>3</voice>
        <staff>2</staff>
      </note>
    </measure>
    <!--=======================================================-->
    <measure number="31" width="315">
      <note>
        <rest measure="yes"/>
        <duration>160</duration>
        <voice>1</voice>
        <staff>1</staff>
      </note>
      <backup>
        <duration>160</duration>
      </backup>
      <note>
        <rest measure="yes"/>
        <duration>160</duration>
        <voice>3</voice>
        <staff>2</staff>
      </note>
      <barline location="right">
        <bar-style>light-heavy</bar-style>
      </barline>
    </measure>
  </part>
  <!--=========================================================-->
</score-partwise>
