<?xml version="1.0" encoding="utf-8"?>
<!DOCTYPE score-partwise  PUBLIC "-//Recordare//DTD MusicXML 3.0 Partwise//EN" "http://www.musicxml.org/dtds/partwise.dtd">
<score-partwise version="3.0">
  <work>
    <work-title>14 Bagatelles</work-title>
  </work>
  <movement-number>1</movement-number>
  <movement-title>Molto sostenuto</movement-title>
  <identification>
    <creator type="composer">Bartók, Béla</creator>
    <rights>Oli 2020</rights>
    <encoding>
      <encoding-date>2021-05-03</encoding-date>
      <software>music21 v.6.7.1</software>
      <software>MuseScore 3.5.2</software>
      <supports attribute="new-system" element="print" type="yes" value="yes" />
      <supports attribute="new-page" element="print" type="yes" value="yes" />
    </encoding>
    <miscellaneous>
      <miscellaneous-field name="number"> Sz.38</miscellaneous-field>
    </miscellaneous>
  </identification>
  <defaults>
    <scaling>
      <millimeters>5.2</millimeters>
      <tenths>40</tenths>
    </scaling>
    <page-layout>
      <page-height>2284.09</page-height>
      <page-width>1615.85</page-width>
      <page-margins>
        <left-margin>76.9231</left-margin>
        <right-margin>76.9231</right-margin>
        <top-margin>76.9231</top-margin>
        <bottom-margin>153.846</bottom-margin>
      </page-margins>
    </page-layout>
    <word-font font-family="FreeSerif" font-size="10" />
    <lyric-font font-family="FreeSerif" font-size="11" />
  </defaults>
  <credit page="1">
    <credit-words default-x="1538.92" default-y="2126.56" font-size="12" justify="right" valign="baseline" />
    <credit-words />
  </credit>
  <credit page="1">
    <credit-words default-x="807.923" default-y="2114.85" font-size="14" justify="center" valign="top">1. Molto sostenuto</credit-words>
    <credit-words />
  </credit>
  <credit page="1">
    <credit-words default-x="807.923" default-y="2207.16" font-size="24" justify="center" valign="top">14 Bagatelles</credit-words>
  </credit>
  <credit page="1">
    <credit-words default-x="1538.92" default-y="2114.85" font-size="12" justify="right" valign="bottom">Béla Bartók</credit-words>
    <credit-words />
  </credit>
  <credit page="1">
    <credit-words default-x="807.923" default-y="153.846" font-size="8" justify="center" valign="bottom">Oli 2020</credit-words>
  </credit>
  <part-list>
    <part-group number="1" type="start">
      <group-name>Piano</group-name>
      <group-name-display print-object="no" />
      <group-symbol>brace</group-symbol>
      <group-barline>yes</group-barline>
    </part-group>
    <score-part id="P1">
      <part-name>Piano</part-name>
      <score-instrument id="I2d51c2f8e115858faf46184e7aac99a1">
        <instrument-name>Grand Piano</instrument-name>
      </score-instrument>
      <midi-instrument id="I2d51c2f8e115858faf46184e7aac99a1">
        <midi-channel>1</midi-channel>
        <midi-program>1</midi-program>
      </midi-instrument>
    </score-part>
    <part-group number="1" type="stop" />
  </part-list>
  <!--=========================== Part 1 ===========================-->
  <part id="P1">
    <!--========================= Measure 1 ==========================-->
    <measure number="1" width="368.43">
      <print>
        <system-layout>
          <system-margins>
            <left-margin>70.54</left-margin>
            <right-margin>0</right-margin>
          </system-margins>
          <top-system-distance>290</top-system-distance>
        </system-layout>
      </print>
      <attributes>
        <divisions>10080</divisions>
        <key number="1">
          <fifths>4</fifths>
        </key>
        <key number="2">
          <fifths>-4</fifths>
        </key>
        <time>
          <beats>4</beats>
          <beat-type>4</beat-type>
        </time>
        <staves>2</staves>
        <clef number="1">
          <sign>G</sign>
          <line>2</line>
        </clef>
        <clef number="2">
          <sign>G</sign>
          <line>2</line>
        </clef>
      </attributes>
      <direction placement="above">
        <direction-type>
          <words default-x="-36.9" default-y="4.46" enclosure="none" font-size="12" font-weight="bold" relative-y="20">Molto Sostenuto</words>
        </direction-type>
        <staff>1</staff>
      </direction>
      <direction>
        <direction-type>
          <metronome parentheses="no">
            <beat-unit>quarter</beat-unit>
            <per-minute>66</per-minute>
          </metronome>
        </direction-type>
        <staff>1</staff>
        <sound tempo="66" />
      </direction>
      <note>
        <rest />
        <duration>10080</duration>
        <voice>1</voice>
        <type>quarter</type>
        <staff>1</staff>
      </note>
      <direction placement="below">
        <direction-type>
          <dynamics default-x="-36" default-y="-80">
            <mf />
          </dynamics>
        </direction-type>
        <staff>1</staff>
        <sound dynamics="69" />
      </direction>
      <direction placement="below">
        <direction-type>
          <dynamics default-x="-36" default-y="-80">
            <other-dynamics />
          </dynamics>
        </direction-type>
        <staff>1</staff>
        <sound dynamics="63" />
      </direction>
      <direction placement="below">
        <direction-type>
          <wedge number="1" spread="0" type="crescendo" />
        </direction-type>
        <staff>1</staff>
      </direction>
      <note default-x="191.5" default-y="-50">
        <pitch>
          <step>C</step>
          <alter>1</alter>
          <octave>4</octave>
        </pitch>
        <duration>10080</duration>
        <voice>1</voice>
        <type>quarter</type>
        <stem>up</stem>
        <staff>1</staff>
        <notations>
          <slur number="1" placement="above" type="start" />
          <articulations>
            <tenuto />
          </articulations>
          <technical>
            <fingering alternate="no" substitution="no">1</fingering>
          </technical>
        </notations>
      </note>
      <note default-x="249.94" default-y="-50">
        <pitch>
          <step>C</step>
          <alter>1</alter>
          <octave>4</octave>
        </pitch>
        <duration>10080</duration>
        <voice>1</voice>
        <type>quarter</type>
        <stem>up</stem>
        <staff>1</staff>
        <notations>
          <articulations>
            <tenuto />
          </articulations>
        </notations>
      </note>
      <note default-x="308.39" default-y="-45">
        <pitch>
          <step>D</step>
          <alter>1</alter>
          <octave>4</octave>
        </pitch>
        <duration>10080</duration>
        <voice>1</voice>
        <type>quarter</type>
        <stem>up</stem>
        <staff>1</staff>
        <notations>
          <articulations>
            <tenuto />
          </articulations>
        </notations>
      </note>
      <backup>
        <duration>40320</duration>
      </backup>
      <direction>
        <direction-type>
          <metronome parentheses="no">
            <beat-unit>quarter</beat-unit>
            <per-minute>66</per-minute>
          </metronome>
        </direction-type>
        <staff>2</staff>
        <sound tempo="66" />
      </direction>
      <note>
        <rest measure="yes" />
        <duration>40320</duration>
        <voice>2</voice>
        <staff>2</staff>
      </note>
    </measure>
    <!--========================= Measure 2 ==========================-->
    <measure number="2" width="272.61">
      <note default-x="10" default-y="-40">
        <pitch>
          <step>E</step>
          <octave>4</octave>
        </pitch>
        <duration>40320</duration>
        <tie type="start" />
        <voice>1</voice>
        <type>whole</type>
        <staff>1</staff>
        <notations>
          <tied type="start" />
          <articulations>
            <strong-accent type="up" />
          </articulations>
        </notations>
      </note>
      <backup>
        <duration>40320</duration>
      </backup>
      <note print-object="no" print-spacing="yes">
        <rest />
        <duration>10080</duration>
        <voice>2</voice>
        <type>quarter</type>
        <staff>1</staff>
      </note>
      <direction placement="below">
        <direction-type>
          <wedge number="1" spread="15" type="stop" />
        </direction-type>
        <staff>1</staff>
      </direction>
      <note print-object="no" print-spacing="yes">
        <rest />
        <duration>10080</duration>
        <voice>2</voice>
        <type>quarter</type>
        <staff>1</staff>
      </note>
      <note print-object="no" print-spacing="yes">
        <rest />
        <duration>20160</duration>
        <voice>2</voice>
        <type>half</type>
        <staff>1</staff>
      </note>
      <backup>
        <duration>40320</duration>
      </backup>
      <note>
        <rest />
        <duration>20160</duration>
        <voice>3</voice>
        <type>half</type>
        <staff>2</staff>
      </note>
      <direction placement="below">
        <direction-type>
          <dynamics default-x="-36" default-y="-80">
            <p />
          </dynamics>
        </direction-type>
        <staff>2</staff>
        <sound dynamics="44" />
      </direction>
      <direction placement="below">
        <direction-type>
          <dynamics default-x="-36" default-y="-80">
            <other-dynamics />
          </dynamics>
        </direction-type>
        <staff>2</staff>
        <sound dynamics="63" />
      </direction>
      <direction placement="below">
        <direction-type>
          <wedge number="1" spread="15" type="diminuendo" />
        </direction-type>
        <staff>2</staff>
      </direction>
      <note default-x="127.85" default-y="-150">
        <pitch>
          <step>G</step>
          <octave>4</octave>
        </pitch>
        <duration>5040</duration>
        <voice>3</voice>
        <type>eighth</type>
        <stem>up</stem>
        <staff>2</staff>
        <beam number="1">begin</beam>
        <notations>
          <slur number="2" placement="below" type="start" />
          <articulations>
            <detached-legato />
          </articulations>
          <technical>
            <fingering alternate="no" placement="above" substitution="no">1</fingering>
          </technical>
        </notations>
      </note>
      <note default-x="163.64" default-y="-155">
        <pitch>
          <step>F</step>
          <octave>4</octave>
        </pitch>
        <duration>5040</duration>
        <voice>3</voice>
        <type>eighth</type>
        <stem>up</stem>
        <staff>2</staff>
        <beam number="1">continue</beam>
        <notations>
          <articulations>
            <detached-legato />
          </articulations>
        </notations>
      </note>
      <note default-x="199.43" default-y="-160">
        <pitch>
          <step>E</step>
          <alter>-1</alter>
          <octave>4</octave>
        </pitch>
        <duration>5040</duration>
        <voice>3</voice>
        <type>eighth</type>
        <stem>up</stem>
        <staff>2</staff>
        <beam number="1">continue</beam>
        <notations>
          <articulations>
            <detached-legato />
          </articulations>
        </notations>
      </note>
      <note default-x="235.22" default-y="-165">
        <pitch>
          <step>D</step>
          <alter>-1</alter>
          <octave>4</octave>
        </pitch>
        <duration>5040</duration>
        <voice>3</voice>
        <type>eighth</type>
        <stem>up</stem>
        <staff>2</staff>
        <beam number="1">end</beam>
        <notations>
          <articulations>
            <detached-legato />
          </articulations>
        </notations>
      </note>
    </measure>
    <!--========================= Measure 3 ==========================-->
    <measure number="3" width="241.18">
      <note default-x="13.8" default-y="-40">
        <pitch>
          <step>E</step>
          <octave>4</octave>
        </pitch>
        <duration>10080</duration>
        <tie type="stop" />
        <voice>1</voice>
        <type>quarter</type>
        <stem>up</stem>
        <staff>1</staff>
        <notations>
          <tied type="stop" />
          <slur number="1" type="stop" />
        </notations>
      </note>
      <direction placement="below">
        <direction-type>
          <wedge number="2" spread="0" type="crescendo" />
        </direction-type>
        <staff>1</staff>
      </direction>
      <note default-x="70.25" default-y="-30">
        <pitch>
          <step>G</step>
          <alter>1</alter>
          <octave>4</octave>
        </pitch>
        <duration>10080</duration>
        <voice>1</voice>
        <type>quarter</type>
        <stem>up</stem>
        <staff>1</staff>
        <notations>
          <slur number="3" placement="above" type="start" />
          <articulations>
            <tenuto />
          </articulations>
        </notations>
      </note>
      <note default-x="126.69" default-y="-50">
        <pitch>
          <step>C</step>
          <alter>1</alter>
          <octave>4</octave>
        </pitch>
        <duration>10080</duration>
        <voice>1</voice>
        <type>quarter</type>
        <stem>up</stem>
        <staff>1</staff>
        <notations>
          <articulations>
            <tenuto />
          </articulations>
        </notations>
      </note>
      <note default-x="183.14" default-y="-45">
        <pitch>
          <step>D</step>
          <alter>1</alter>
          <octave>4</octave>
        </pitch>
        <duration>10080</duration>
        <voice>1</voice>
        <type>quarter</type>
        <stem>up</stem>
        <staff>1</staff>
        <notations>
          <articulations>
            <tenuto />
          </articulations>
        </notations>
      </note>
      <direction placement="below">
        <direction-type>
          <wedge number="2" spread="15" type="stop" />
        </direction-type>
        <staff>1</staff>
      </direction>
      <backup>
        <duration>40320</duration>
      </backup>
      <direction placement="below">
        <direction-type>
          <dynamics default-x="-36" default-y="-80">
            <other-dynamics />
          </dynamics>
        </direction-type>
        <staff>2</staff>
        <sound dynamics="63" />
      </direction>
      <direction placement="below">
        <direction-type>
          <dynamics default-x="-36" default-y="-80">
            <pp />
          </dynamics>
        </direction-type>
        <staff>2</staff>
        <sound dynamics="31" />
      </direction>
      <direction placement="below">
        <direction-type>
          <dynamics default-x="-36" default-y="-80">
            <other-dynamics />
          </dynamics>
        </direction-type>
        <staff>2</staff>
        <sound dynamics="63" />
      </direction>
      <note default-x="13.8" default-y="-170">
        <pitch>
          <step>C</step>
          <octave>4</octave>
        </pitch>
        <duration>10080</duration>
        <voice>2</voice>
        <type>quarter</type>
        <stem>up</stem>
        <staff>2</staff>
        <notations>
          <slur number="2" type="stop" />
          <articulations>
            <tenuto />
          </articulations>
        </notations>
      </note>
      <direction placement="below">
        <direction-type>
          <wedge number="1" spread="0" type="stop" />
        </direction-type>
        <staff>2</staff>
      </direction>
      <note>
        <rest />
        <duration>10080</duration>
        <voice>2</voice>
        <type>quarter</type>
        <staff>2</staff>
      </note>
      <note>
        <rest />
        <duration>20160</duration>
        <voice>2</voice>
        <type>half</type>
        <staff>2</staff>
      </note>
    </measure>
    <!--========================= Measure 4 ==========================-->
    <measure number="4" width="253.82">
      <note default-x="10" default-y="-40">
        <pitch>
          <step>E</step>
          <octave>4</octave>
        </pitch>
        <duration>40320</duration>
        <tie type="start" />
        <voice>1</voice>
        <type>whole</type>
        <staff>1</staff>
        <notations>
          <tied type="start" />
          <articulations>
            <strong-accent type="up" />
          </articulations>
        </notations>
      </note>
      <backup>
        <duration>40320</duration>
      </backup>
      <note>
        <rest />
        <duration>20160</duration>
        <voice>2</voice>
        <type>half</type>
        <staff>2</staff>
      </note>
      <direction placement="below">
        <direction-type>
          <wedge number="2" spread="15" type="diminuendo" />
        </direction-type>
        <staff>2</staff>
      </direction>
      <note default-x="98.09" default-y="-150">
        <pitch>
          <step>G</step>
          <octave>4</octave>
        </pitch>
        <duration>5040</duration>
        <voice>2</voice>
        <type>eighth</type>
        <stem>up</stem>
        <staff>2</staff>
        <beam number="1">begin</beam>
        <notations>
          <slur number="4" placement="below" type="start" />
          <articulations>
            <detached-legato />
          </articulations>
        </notations>
      </note>
      <note default-x="136.62" default-y="-155">
        <pitch>
          <step>F</step>
          <octave>4</octave>
        </pitch>
        <duration>5040</duration>
        <voice>2</voice>
        <type>eighth</type>
        <stem>up</stem>
        <staff>2</staff>
        <beam number="1">continue</beam>
        <notations>
          <articulations>
            <detached-legato />
          </articulations>
        </notations>
      </note>
      <note default-x="175.15" default-y="-160">
        <pitch>
          <step>E</step>
          <alter>-1</alter>
          <octave>4</octave>
        </pitch>
        <duration>5040</duration>
        <voice>2</voice>
        <type>eighth</type>
        <stem>up</stem>
        <staff>2</staff>
        <beam number="1">continue</beam>
        <notations>
          <articulations>
            <detached-legato />
          </articulations>
        </notations>
      </note>
      <note default-x="213.68" default-y="-165">
        <pitch>
          <step>D</step>
          <alter>-1</alter>
          <octave>4</octave>
        </pitch>
        <duration>5040</duration>
        <voice>2</voice>
        <type>eighth</type>
        <stem>up</stem>
        <staff>2</staff>
        <beam number="1">end</beam>
        <notations>
          <articulations>
            <detached-legato />
          </articulations>
        </notations>
      </note>
    </measure>
    <!--========================= Measure 5 ==========================-->
    <measure number="5" width="255.42">
      <note default-x="13.8" default-y="-40">
        <pitch>
          <step>E</step>
          <octave>4</octave>
        </pitch>
        <duration>10080</duration>
        <tie type="stop" />
        <voice>1</voice>
        <type>quarter</type>
        <stem>up</stem>
        <staff>1</staff>
        <notations>
          <tied type="stop" />
          <slur number="3" type="stop" />
        </notations>
      </note>
      <direction placement="below">
        <direction-type>
          <wedge number="3" spread="0" type="crescendo" />
        </direction-type>
        <staff>1</staff>
      </direction>
      <note default-x="70.28" default-y="-35">
        <pitch>
          <step>F</step>
          <alter>1</alter>
          <octave>4</octave>
        </pitch>
        <duration>10080</duration>
        <voice>1</voice>
        <type>quarter</type>
        <stem>up</stem>
        <staff>1</staff>
        <notations>
          <slur number="5" placement="below" type="start" />
          <articulations>
            <tenuto />
          </articulations>
          <technical>
            <fingering alternate="no" substitution="no">2</fingering>
          </technical>
        </notations>
      </note>
      <note default-x="126.75" default-y="-30">
        <pitch>
          <step>G</step>
          <alter>1</alter>
          <octave>4</octave>
        </pitch>
        <duration>10080</duration>
        <voice>1</voice>
        <type>quarter</type>
        <stem>up</stem>
        <staff>1</staff>
        <notations>
          <articulations>
            <tenuto />
          </articulations>
        </notations>
      </note>
      <note default-x="183.23" default-y="-40">
        <pitch>
          <step>E</step>
          <octave>4</octave>
        </pitch>
        <duration>5040</duration>
        <voice>1</voice>
        <type>eighth</type>
        <stem>up</stem>
        <staff>1</staff>
        <beam number="1">begin</beam>
        <notations>
          <articulations>
            <tenuto />
          </articulations>
        </notations>
      </note>
      <note default-x="218.52" default-y="-35">
        <pitch>
          <step>F</step>
          <alter>1</alter>
          <octave>4</octave>
        </pitch>
        <duration>5040</duration>
        <voice>1</voice>
        <type>eighth</type>
        <stem>up</stem>
        <staff>1</staff>
        <beam number="1">end</beam>
      </note>
      <direction placement="below">
        <direction-type>
          <wedge number="3" spread="15" type="stop" />
        </direction-type>
        <staff>1</staff>
      </direction>
      <backup>
        <duration>40320</duration>
      </backup>
      <note default-x="13.8" default-y="-170">
        <pitch>
          <step>C</step>
          <octave>4</octave>
        </pitch>
        <duration>10080</duration>
        <voice>2</voice>
        <type>quarter</type>
        <stem>up</stem>
        <staff>2</staff>
        <notations>
          <slur number="4" type="stop" />
          <articulations>
            <tenuto />
          </articulations>
        </notations>
      </note>
      <direction placement="below">
        <direction-type>
          <wedge number="2" spread="0" type="stop" />
        </direction-type>
        <staff>2</staff>
      </direction>
      <note>
        <rest />
        <duration>10080</duration>
        <voice>2</voice>
        <type>quarter</type>
        <staff>2</staff>
      </note>
      <note>
        <rest />
        <duration>20160</duration>
        <voice>2</voice>
        <type>half</type>
        <staff>2</staff>
      </note>
    </measure>
    <!--========================= Measure 6 ==========================-->
    <measure number="6" width="448.8">
      <print new-system="yes">
        <system-layout>
          <system-margins>
            <left-margin>20.54</left-margin>
            <right-margin>0</right-margin>
          </system-margins>
          <system-distance>150</system-distance>
        </system-layout>
      </print>
      <note default-x="111.02" default-y="-25">
        <pitch>
          <step>A</step>
          <octave>4</octave>
        </pitch>
        <duration>20160</duration>
        <voice>1</voice>
        <type>half</type>
        <stem>up</stem>
        <staff>1</staff>
        <notations>
          <slur number="5" type="stop" />
          <articulations>
            <strong-accent type="up" />
          </articulations>
        </notations>
      </note>
      <direction placement="below">
        <direction-type>
          <words default-y="-61.74" enclosure="none" font-size="12" font-style="italic" relative-y="-40">sonore</words>
        </direction-type>
        <staff>1</staff>
      </direction>
      <direction placement="below">
        <direction-type>
          <wedge number="4" spread="0" type="crescendo" />
        </direction-type>
        <staff>1</staff>
      </direction>
      <note default-x="279.29" default-y="-20">
        <pitch>
          <step>B</step>
          <octave>4</octave>
        </pitch>
        <duration>5040</duration>
        <voice>1</voice>
        <type>eighth</type>
        <stem>down</stem>
        <staff>1</staff>
        <notations>
          <slur number="6" placement="above" type="start" />
          <technical>
            <fingering alternate="no" substitution="no">2</fingering>
          </technical>
        </notations>
      </note>
      <note default-x="321.27" default-y="-15">
        <pitch>
          <step>C</step>
          <alter>1</alter>
          <octave>5</octave>
        </pitch>
        <duration>10080</duration>
        <voice>1</voice>
        <type>quarter</type>
        <stem>down</stem>
        <staff>1</staff>
      </note>
      <note default-x="405.22" default-y="-25">
        <pitch>
          <step>A</step>
          <octave>4</octave>
        </pitch>
        <duration>5040</duration>
        <voice>1</voice>
        <type>eighth</type>
        <stem>up</stem>
        <staff>1</staff>
      </note>
      <backup>
        <duration>40320</duration>
      </backup>
      <attributes>
        <staff-details print-object="yes" />
      </attributes>
      <direction placement="below">
        <direction-type>
          <wedge number="3" spread="15" type="diminuendo" />
        </direction-type>
        <staff>2</staff>
      </direction>
      <note default-x="111.39" default-y="-135">
        <pitch>
          <step>C</step>
          <octave>5</octave>
        </pitch>
        <duration>5040</duration>
        <voice>2</voice>
        <type>eighth</type>
        <stem>up</stem>
        <staff>2</staff>
        <beam number="1">begin</beam>
        <notations>
          <slur number="1" placement="below" type="start" />
          <articulations>
            <detached-legato />
          </articulations>
        </notations>
      </note>
      <note default-x="153.36" default-y="-140">
        <pitch>
          <step>B</step>
          <alter>-1</alter>
          <octave>4</octave>
        </pitch>
        <duration>5040</duration>
        <voice>2</voice>
        <type>eighth</type>
        <stem>up</stem>
        <staff>2</staff>
        <beam number="1">continue</beam>
        <notations>
          <articulations>
            <detached-legato />
          </articulations>
        </notations>
      </note>
      <note default-x="195.34" default-y="-145">
        <pitch>
          <step>A</step>
          <alter>-1</alter>
          <octave>4</octave>
        </pitch>
        <duration>5040</duration>
        <voice>2</voice>
        <type>eighth</type>
        <stem>up</stem>
        <staff>2</staff>
        <beam number="1">continue</beam>
        <notations>
          <articulations>
            <detached-legato />
          </articulations>
        </notations>
      </note>
      <note default-x="237.32" default-y="-150">
        <pitch>
          <step>G</step>
          <octave>4</octave>
        </pitch>
        <duration>5040</duration>
        <voice>2</voice>
        <type>eighth</type>
        <stem>up</stem>
        <staff>2</staff>
        <beam number="1">end</beam>
        <notations>
          <articulations>
            <detached-legato />
          </articulations>
        </notations>
      </note>
      <direction placement="below">
        <direction-type>
          <wedge number="3" spread="0" type="stop" />
        </direction-type>
        <staff>2</staff>
      </direction>
      <note default-x="279.29" default-y="-155">
        <pitch>
          <step>F</step>
          <octave>4</octave>
        </pitch>
        <duration>10080</duration>
        <voice>2</voice>
        <type>quarter</type>
        <stem>up</stem>
        <staff>2</staff>
        <notations>
          <slur number="1" type="stop" />
        </notations>
      </note>
      <note>
        <rest />
        <duration>10080</duration>
        <voice>2</voice>
        <type>quarter</type>
        <staff>2</staff>
      </note>
    </measure>
    <!--========================= Measure 7 ==========================-->
    <measure number="7" width="332.88">
      <note default-x="10" default-y="-20">
        <pitch>
          <step>B</step>
          <octave>4</octave>
        </pitch>
        <duration>5040</duration>
        <voice>1</voice>
        <type>eighth</type>
        <stem>down</stem>
        <staff>1</staff>
        <notations>
          <technical>
            <fingering alternate="no" substitution="no">5</fingering>
          </technical>
        </notations>
      </note>
      <note default-x="54.62" default-y="-35">
        <pitch>
          <step>F</step>
          <alter>1</alter>
          <octave>4</octave>
        </pitch>
        <duration>10080</duration>
        <voice>1</voice>
        <type>quarter</type>
        <stem>up</stem>
        <staff>1</staff>
      </note>
      <note default-x="126.02" default-y="-40">
        <pitch>
          <step>E</step>
          <octave>4</octave>
        </pitch>
        <duration>5040</duration>
        <voice>1</voice>
        <type>eighth</type>
        <stem>up</stem>
        <staff>1</staff>
      </note>
      <note default-x="170.64" default-y="-35">
        <pitch>
          <step>F</step>
          <alter>1</alter>
          <octave>4</octave>
        </pitch>
        <duration>5040</duration>
        <voice>1</voice>
        <type>eighth</type>
        <stem>up</stem>
        <staff>1</staff>
        <notations>
          <technical>
            <fingering alternate="no" substitution="no">3</fingering>
          </technical>
        </notations>
      </note>
      <direction placement="below">
        <direction-type>
          <wedge number="4" spread="15" type="stop" />
        </direction-type>
        <staff>1</staff>
      </direction>
      <direction placement="below">
        <direction-type>
          <wedge number="4" spread="15" type="diminuendo" />
        </direction-type>
        <staff>1</staff>
      </direction>
      <note default-x="215.26" default-y="-50">
        <pitch>
          <step>C</step>
          <alter>1</alter>
          <octave>4</octave>
        </pitch>
        <duration>10080</duration>
        <voice>1</voice>
        <type>quarter</type>
        <stem>up</stem>
        <staff>1</staff>
      </note>
      <note default-x="286.66" default-y="-30">
        <pitch>
          <step>G</step>
          <alter>1</alter>
          <octave>4</octave>
        </pitch>
        <duration>5040</duration>
        <voice>1</voice>
        <type>eighth</type>
        <stem>up</stem>
        <staff>1</staff>
        <notations>
          <technical>
            <fingering alternate="no" substitution="no">5</fingering>
          </technical>
        </notations>
      </note>
      <backup>
        <duration>40320</duration>
      </backup>
      <note>
        <rest measure="yes" />
        <duration>40320</duration>
        <voice>2</voice>
        <staff>2</staff>
      </note>
    </measure>
    <!--========================= Measure 8 ==========================-->
    <measure number="8" width="320.58">
      <note default-x="10" default-y="-35">
        <pitch>
          <step>F</step>
          <alter>1</alter>
          <octave>4</octave>
        </pitch>
        <duration>5040</duration>
        <voice>1</voice>
        <type>eighth</type>
        <stem>up</stem>
        <staff>1</staff>
      </note>
      <note default-x="55.79" default-y="-30">
        <pitch>
          <step>G</step>
          <alter>1</alter>
          <octave>4</octave>
        </pitch>
        <duration>10080</duration>
        <voice>1</voice>
        <type>quarter</type>
        <stem>up</stem>
        <staff>1</staff>
      </note>
      <note default-x="118.74" default-y="-60">
        <pitch>
          <step>A</step>
          <octave>3</octave>
        </pitch>
        <duration>5040</duration>
        <voice>1</voice>
        <type>eighth</type>
        <stem>up</stem>
        <staff>1</staff>
        <notations>
          <slur number="6" type="stop" />
        </notations>
      </note>
      <direction placement="below">
        <direction-type>
          <wedge number="4" spread="0" type="stop" />
        </direction-type>
        <staff>1</staff>
      </direction>
      <note default-x="164.53" default-y="-55">
        <pitch>
          <step>B</step>
          <octave>3</octave>
        </pitch>
        <duration>2520</duration>
        <voice>1</voice>
        <type>16th</type>
        <stem>up</stem>
        <staff>1</staff>
        <beam number="1">begin</beam>
        <beam number="2">forward hook</beam>
        <notations>
          <technical>
            <fingering alternate="no" substitution="no">2</fingering>
          </technical>
        </notations>
      </note>
      <note default-x="193.15" default-y="-40">
        <pitch>
          <step>E</step>
          <octave>4</octave>
        </pitch>
        <duration>7560</duration>
        <voice>1</voice>
        <type>eighth</type>
        <dot />
        <stem>up</stem>
        <staff>1</staff>
        <beam number="1">end</beam>
      </note>
      <note default-x="248.98" default-y="-40">
        <pitch>
          <step>E</step>
          <octave>4</octave>
        </pitch>
        <duration>10080</duration>
        <tie type="start" />
        <voice>1</voice>
        <type>quarter</type>
        <stem>up</stem>
        <staff>1</staff>
        <notations>
          <tied type="start" />
          <articulations>
            <strong-accent type="up" />
          </articulations>
        </notations>
      </note>
      <backup>
        <duration>40320</duration>
      </backup>
      <note>
        <rest measure="yes" />
        <duration>40320</duration>
        <voice>2</voice>
        <staff>2</staff>
      </note>
    </measure>
    <!--========================= Measure 9 ==========================-->
    <measure number="9" width="339.2">
      <note default-x="10" default-y="-40">
        <pitch>
          <step>E</step>
          <octave>4</octave>
        </pitch>
        <duration>40320</duration>
        <tie type="stop" />
        <tie type="start" />
        <voice>1</voice>
        <type>whole</type>
        <staff>1</staff>
        <notations>
          <tied type="stop" />
          <tied type="start" />
        </notations>
      </note>
      <backup>
        <duration>40320</duration>
      </backup>
      <attributes>
        <clef number="2">
          <sign>F</sign>
          <line>4</line>
        </clef>
      </attributes>
      <direction placement="below">
        <direction-type>
          <wedge number="5" spread="15" type="diminuendo" />
        </direction-type>
        <staff>2</staff>
      </direction>
      <note>
        <rest />
        <duration>20160</duration>
        <voice>6</voice>
        <type>half</type>
        <staff>2</staff>
      </note>
      <direction placement="below">
        <direction-type>
          <wedge number="5" spread="0" type="stop" />
        </direction-type>
        <staff>2</staff>
      </direction>
      <note default-x="175.46" default-y="-125">
        <pitch>
          <step>G</step>
          <octave>3</octave>
        </pitch>
        <duration>5040</duration>
        <voice>6</voice>
        <type>eighth</type>
        <stem>up</stem>
        <staff>2</staff>
        <beam number="1">begin</beam>
        <notations>
          <slur number="2" placement="above" type="start" />
          <articulations>
            <detached-legato />
          </articulations>
        </notations>
      </note>
      <note default-x="216" default-y="-130">
        <pitch>
          <step>F</step>
          <octave>3</octave>
        </pitch>
        <duration>5040</duration>
        <voice>6</voice>
        <type>eighth</type>
        <stem>up</stem>
        <staff>2</staff>
        <beam number="1">continue</beam>
        <notations>
          <articulations>
            <detached-legato />
          </articulations>
        </notations>
      </note>
      <note default-x="256.53" default-y="-135">
        <pitch>
          <step>E</step>
          <alter>-1</alter>
          <octave>3</octave>
        </pitch>
        <duration>5040</duration>
        <voice>6</voice>
        <type>eighth</type>
        <stem>up</stem>
        <staff>2</staff>
        <beam number="1">continue</beam>
        <notations>
          <articulations>
            <detached-legato />
          </articulations>
        </notations>
      </note>
      <note default-x="297.07" default-y="-140">
        <pitch>
          <step>D</step>
          <alter>-1</alter>
          <octave>3</octave>
        </pitch>
        <duration>5040</duration>
        <voice>6</voice>
        <type>eighth</type>
        <stem>up</stem>
        <staff>2</staff>
        <beam number="1">end</beam>
        <notations>
          <articulations>
            <detached-legato />
          </articulations>
        </notations>
      </note>
      <backup>
        <duration>40320</duration>
      </backup>
      <note default-x="13.32" default-y="-140">
        <pitch>
          <step>D</step>
          <alter>-1</alter>
          <octave>3</octave>
        </pitch>
        <duration>5040</duration>
        <voice>7</voice>
        <type>eighth</type>
        <stem>down</stem>
        <staff>2</staff>
        <beam number="1">begin</beam>
        <notations>
          <slur number="3" placement="below" type="start" />
          <articulations>
            <detached-legato />
          </articulations>
        </notations>
      </note>
      <note default-x="53.86" default-y="-145">
        <pitch>
          <step>C</step>
          <octave>3</octave>
        </pitch>
        <duration>5040</duration>
        <voice>7</voice>
        <type>eighth</type>
        <stem>down</stem>
        <staff>2</staff>
        <beam number="1">continue</beam>
        <notations>
          <articulations>
            <detached-legato />
          </articulations>
        </notations>
      </note>
      <note default-x="94.39" default-y="-150">
        <pitch>
          <step>B</step>
          <alter>-1</alter>
          <octave>2</octave>
        </pitch>
        <duration>5040</duration>
        <voice>7</voice>
        <type>eighth</type>
        <stem>down</stem>
        <staff>2</staff>
        <beam number="1">continue</beam>
        <notations>
          <articulations>
            <detached-legato />
          </articulations>
        </notations>
      </note>
      <note default-x="134.93" default-y="-155">
        <pitch>
          <step>A</step>
          <alter>-1</alter>
          <octave>2</octave>
        </pitch>
        <duration>5040</duration>
        <voice>7</voice>
        <type>eighth</type>
        <stem>down</stem>
        <staff>2</staff>
        <beam number="1">end</beam>
        <notations>
          <articulations>
            <detached-legato />
          </articulations>
        </notations>
      </note>
      <note default-x="175.46" default-y="-160">
        <pitch>
          <step>G</step>
          <octave>2</octave>
        </pitch>
        <duration>10080</duration>
        <voice>7</voice>
        <type>quarter</type>
        <stem>down</stem>
        <staff>2</staff>
        <notations>
          <slur number="3" type="stop" />
          <articulations>
            <tenuto />
          </articulations>
        </notations>
      </note>
      <note>
        <rest>
          <display-step>B</display-step>
          <display-octave>2</display-octave>
        </rest>
        <duration>10080</duration>
        <voice>7</voice>
        <type>quarter</type>
        <staff>2</staff>
      </note>
    </measure>
    <!--========================= Measure 10 =========================-->
    <measure number="10" width="325.41">
      <print new-system="yes">
        <system-layout>
          <system-margins>
            <left-margin>20.54</left-margin>
            <right-margin>0</right-margin>
          </system-margins>
          <system-distance>150</system-distance>
        </system-layout>
      </print>
      <note default-x="112.62" default-y="-40">
        <pitch>
          <step>E</step>
          <octave>4</octave>
        </pitch>
        <duration>10080</duration>
        <tie type="stop" />
        <voice>1</voice>
        <type>quarter</type>
        <stem>up</stem>
        <staff>1</staff>
        <notations>
          <tied type="stop" />
        </notations>
      </note>
      <direction placement="below">
        <direction-type>
          <wedge number="5" spread="0" type="crescendo" />
        </direction-type>
        <staff>1</staff>
      </direction>
      <note default-x="162.31" default-y="-30">
        <pitch>
          <step>G</step>
          <alter>1</alter>
          <octave>4</octave>
        </pitch>
        <duration>10080</duration>
        <voice>1</voice>
        <type>quarter</type>
        <stem>up</stem>
        <staff>1</staff>
        <notations>
          <slur number="4" placement="below" type="start" />
        </notations>
      </note>
      <note default-x="212.01" default-y="-35">
        <pitch>
          <step>F</step>
          <alter>1</alter>
          <octave>4</octave>
        </pitch>
        <duration>10080</duration>
        <voice>1</voice>
        <type>quarter</type>
        <stem>up</stem>
        <staff>1</staff>
      </note>
      <note default-x="261.7" default-y="-50">
        <pitch>
          <step>C</step>
          <alter>1</alter>
          <octave>4</octave>
        </pitch>
        <duration>5040</duration>
        <voice>1</voice>
        <type>eighth</type>
        <stem>up</stem>
        <staff>1</staff>
        <beam number="1">begin</beam>
      </note>
      <direction placement="below">
        <direction-type>
          <wedge number="5" spread="15" type="stop" />
        </direction-type>
        <staff>1</staff>
      </direction>
      <note default-x="292.76" default-y="-55">
        <pitch>
          <step>B</step>
          <octave>3</octave>
        </pitch>
        <duration>5040</duration>
        <voice>1</voice>
        <type>eighth</type>
        <stem>up</stem>
        <staff>1</staff>
        <beam number="1">end</beam>
        <notations>
          <slur number="4" type="stop" />
        </notations>
      </note>
      <backup>
        <duration>40320</duration>
      </backup>
      <attributes>
        <staff-details print-object="yes" />
      </attributes>
      <note default-x="112.62" default-y="-156.52">
        <pitch>
          <step>C</step>
          <octave>3</octave>
        </pitch>
        <duration>10080</duration>
        <voice>2</voice>
        <type>quarter</type>
        <stem>up</stem>
        <staff>2</staff>
        <notations>
          <slur number="2" type="stop" />
        </notations>
      </note>
      <note>
        <rest />
        <duration>10080</duration>
        <voice>2</voice>
        <type>quarter</type>
        <staff>2</staff>
      </note>
      <note>
        <rest />
        <duration>20160</duration>
        <voice>2</voice>
        <type>half</type>
        <staff>2</staff>
      </note>
    </measure>
    <!--========================= Measure 11 =========================-->
    <measure number="11" width="291.54">
      <note default-x="13.8" default-y="-50">
        <pitch>
          <step>C</step>
          <alter>1</alter>
          <octave>4</octave>
        </pitch>
        <duration>2520</duration>
        <voice>1</voice>
        <type>16th</type>
        <stem>up</stem>
        <staff>1</staff>
        <beam number="1">begin</beam>
        <beam number="2">forward hook</beam>
        <notations>
          <slur number="5" placement="below" type="start" />
          <articulations>
            <accent />
          </articulations>
        </notations>
      </note>
      <note default-x="34.72" default-y="-40">
        <pitch>
          <step>E</step>
          <octave>4</octave>
        </pitch>
        <duration>7560</duration>
        <voice>1</voice>
        <type>eighth</type>
        <dot />
        <stem>up</stem>
        <staff>1</staff>
        <beam number="1">end</beam>
        <notations>
          <slur number="5" type="stop" />
        </notations>
      </note>
      <note default-x="88.75" default-y="-40">
        <pitch>
          <step>E</step>
          <octave>4</octave>
        </pitch>
        <duration>30240</duration>
        <tie type="start" />
        <voice>1</voice>
        <type>half</type>
        <dot />
        <stem>up</stem>
        <staff>1</staff>
        <notations>
          <tied type="start" />
          <articulations>
            <strong-accent type="down" />
          </articulations>
        </notations>
      </note>
      <backup>
        <duration>40320</duration>
      </backup>
      <direction placement="below">
        <direction-type>
          <wedge number="6" spread="15" type="diminuendo" />
        </direction-type>
        <staff>2</staff>
      </direction>
      <note>
        <rest />
        <duration>20160</duration>
        <voice>6</voice>
        <type>half</type>
        <staff>2</staff>
      </note>
      <direction placement="below">
        <direction-type>
          <wedge number="6" spread="0" type="stop" />
        </direction-type>
        <staff>2</staff>
      </direction>
      <note default-x="156.06" default-y="-136.52">
        <pitch>
          <step>G</step>
          <octave>3</octave>
        </pitch>
        <duration>5040</duration>
        <voice>6</voice>
        <type>eighth</type>
        <stem>up</stem>
        <staff>2</staff>
        <beam number="1">begin</beam>
        <notations>
          <slur number="6" placement="above" type="start" />
          <articulations>
            <detached-legato />
          </articulations>
        </notations>
      </note>
      <note default-x="189.53" default-y="-141.52">
        <pitch>
          <step>F</step>
          <octave>3</octave>
        </pitch>
        <duration>5040</duration>
        <voice>6</voice>
        <type>eighth</type>
        <stem>up</stem>
        <staff>2</staff>
        <beam number="1">continue</beam>
        <notations>
          <articulations>
            <detached-legato />
          </articulations>
        </notations>
      </note>
      <note default-x="223" default-y="-146.52">
        <pitch>
          <step>E</step>
          <alter>-1</alter>
          <octave>3</octave>
        </pitch>
        <duration>5040</duration>
        <voice>6</voice>
        <type>eighth</type>
        <stem>up</stem>
        <staff>2</staff>
        <beam number="1">continue</beam>
        <notations>
          <articulations>
            <detached-legato />
          </articulations>
        </notations>
      </note>
      <note default-x="256.47" default-y="-151.52">
        <pitch>
          <step>D</step>
          <alter>-1</alter>
          <octave>3</octave>
        </pitch>
        <duration>5040</duration>
        <voice>6</voice>
        <type>eighth</type>
        <stem>up</stem>
        <staff>2</staff>
        <beam number="1">end</beam>
        <notations>
          <articulations>
            <detached-legato />
          </articulations>
        </notations>
      </note>
      <backup>
        <duration>40320</duration>
      </backup>
      <note default-x="13.8" default-y="-151.52">
        <pitch>
          <step>D</step>
          <alter>-1</alter>
          <octave>3</octave>
        </pitch>
        <duration>5040</duration>
        <voice>7</voice>
        <type>eighth</type>
        <stem>down</stem>
        <staff>2</staff>
        <beam number="1">begin</beam>
        <notations>
          <articulations>
            <detached-legato />
          </articulations>
        </notations>
      </note>
      <note default-x="55.64" default-y="-156.52">
        <pitch>
          <step>C</step>
          <octave>3</octave>
        </pitch>
        <duration>5040</duration>
        <voice>7</voice>
        <type>eighth</type>
        <stem>down</stem>
        <staff>2</staff>
        <beam number="1">continue</beam>
        <notations>
          <articulations>
            <detached-legato />
          </articulations>
        </notations>
      </note>
      <note default-x="89.11" default-y="-161.52">
        <pitch>
          <step>B</step>
          <alter>-1</alter>
          <octave>2</octave>
        </pitch>
        <duration>5040</duration>
        <voice>7</voice>
        <type>eighth</type>
        <stem>down</stem>
        <staff>2</staff>
        <beam number="1">continue</beam>
        <notations>
          <articulations>
            <detached-legato />
          </articulations>
        </notations>
      </note>
      <note default-x="122.58" default-y="-166.52">
        <pitch>
          <step>A</step>
          <alter>-1</alter>
          <octave>2</octave>
        </pitch>
        <duration>5040</duration>
        <voice>7</voice>
        <type>eighth</type>
        <stem>down</stem>
        <staff>2</staff>
        <beam number="1">end</beam>
        <notations>
          <articulations>
            <detached-legato />
          </articulations>
        </notations>
      </note>
      <note default-x="156.06" default-y="-171.52">
        <pitch>
          <step>G</step>
          <octave>2</octave>
        </pitch>
        <duration>10080</duration>
        <voice>7</voice>
        <type>quarter</type>
        <stem>down</stem>
        <staff>2</staff>
        <notations>
          <articulations>
            <tenuto />
          </articulations>
        </notations>
      </note>
      <note>
        <rest />
        <duration>10080</duration>
        <voice>7</voice>
        <type>quarter</type>
        <staff>2</staff>
      </note>
    </measure>
    <!--========================= Measure 12 =========================-->
    <measure number="12" width="251.35">
      <forward>
        <duration>10080</duration>
        <staff>1</staff>
      </forward>
      <direction placement="below">
        <direction-type>
          <words default-y="-114.47" enclosure="none" font-family="FreeSerif" font-size="12" font-style="italic">molto cresc.</words>
        </direction-type>
        <staff>1</staff>
      </direction>
      <backup>
        <duration>10080</duration>
      </backup>
      <note default-x="10.94" default-y="-40">
        <pitch>
          <step>E</step>
          <octave>4</octave>
        </pitch>
        <duration>10080</duration>
        <tie type="stop" />
        <voice>1</voice>
        <type>quarter</type>
        <stem>up</stem>
        <staff>1</staff>
        <notations>
          <tied type="stop" />
        </notations>
      </note>
      <direction placement="above">
        <direction-type>
          <bracket line-end="none" line-type="dashed" number="1" type="start" />
        </direction-type>
        <staff>1</staff>
      </direction>
      <note default-x="67.13" default-y="-35">
        <pitch>
          <step>F</step>
          <alter>1</alter>
          <octave>4</octave>
        </pitch>
        <duration>10080</duration>
        <voice>1</voice>
        <type>quarter</type>
        <stem>up</stem>
        <staff>1</staff>
        <notations>
          <articulations>
            <tenuto />
          </articulations>
          <technical>
            <fingering alternate="no" substitution="no">1</fingering>
          </technical>
        </notations>
      </note>
      <note default-x="123.32" default-y="-20">
        <pitch>
          <step>B</step>
          <octave>4</octave>
        </pitch>
        <duration>5040</duration>
        <voice>1</voice>
        <type>eighth</type>
        <stem>up</stem>
        <staff>1</staff>
      </note>
      <note default-x="158.44" default-y="-15">
        <pitch>
          <step>C</step>
          <alter>1</alter>
          <octave>5</octave>
        </pitch>
        <duration>10080</duration>
        <voice>1</voice>
        <type>quarter</type>
        <stem>up</stem>
        <staff>1</staff>
        <notations>
          <slur number="1" placement="above" type="start" />
        </notations>
      </note>
      <note default-x="214.63" default-y="0">
        <pitch>
          <step>F</step>
          <alter>1</alter>
          <octave>5</octave>
        </pitch>
        <duration>5040</duration>
        <voice>1</voice>
        <type>eighth</type>
        <stem>up</stem>
        <staff>1</staff>
        <notations>
          <slur number="1" type="stop" />
          <technical>
            <fingering alternate="no" substitution="no">5</fingering>
          </technical>
        </notations>
      </note>
      <backup>
        <duration>40320</duration>
      </backup>
      <note>
        <rest />
        <duration>10080</duration>
        <voice>2</voice>
        <type>quarter</type>
        <staff>1</staff>
      </note>
      <note default-x="67.13" default-y="-60">
        <pitch>
          <step>A</step>
          <octave>3</octave>
        </pitch>
        <duration>10080</duration>
        <voice>2</voice>
        <type>quarter</type>
        <stem>down</stem>
        <staff>1</staff>
      </note>
      <note default-x="123.32" default-y="-55">
        <pitch>
          <step>B</step>
          <octave>3</octave>
        </pitch>
        <duration>5040</duration>
        <voice>2</voice>
        <type>eighth</type>
        <stem>down</stem>
        <staff>1</staff>
      </note>
      <note default-x="158.44" default-y="-50">
        <pitch>
          <step>C</step>
          <alter>1</alter>
          <octave>4</octave>
        </pitch>
        <duration>10080</duration>
        <voice>2</voice>
        <type>quarter</type>
        <stem>down</stem>
        <staff>1</staff>
        <notations>
          <slur number="2" placement="below" type="start" />
        </notations>
      </note>
      <note default-x="214.63" default-y="-35">
        <pitch>
          <step>F</step>
          <alter>1</alter>
          <octave>4</octave>
        </pitch>
        <duration>5040</duration>
        <voice>2</voice>
        <type>eighth</type>
        <stem>down</stem>
        <staff>1</staff>
        <notations>
          <slur number="2" type="stop" />
        </notations>
      </note>
      <backup>
        <duration>40320</duration>
      </backup>
      <note default-x="10.94" default-y="-156.52">
        <pitch>
          <step>C</step>
          <octave>3</octave>
        </pitch>
        <duration>10080</duration>
        <voice>3</voice>
        <type>quarter</type>
        <stem>up</stem>
        <staff>2</staff>
        <notations>
          <slur number="6" type="stop" />
          <articulations>
            <tenuto />
          </articulations>
        </notations>
      </note>
      <note>
        <rest />
        <duration>10080</duration>
        <voice>3</voice>
        <type>quarter</type>
        <staff>2</staff>
      </note>
      <note>
        <rest />
        <duration>20160</duration>
        <voice>3</voice>
        <type>half</type>
        <staff>2</staff>
      </note>
    </measure>
    <!--========================= Measure 13 =========================-->
    <measure number="13" width="301.01">
      <forward>
        <duration>35280</duration>
        <staff>1</staff>
      </forward>
      <attributes>
        <clef>
          <sign>F</sign>
          <line>4</line>
        </clef>
      </attributes>
      <backup>
        <duration>35280</duration>
      </backup>
      <note default-x="10" default-y="-5">
        <pitch>
          <step>E</step>
          <octave>5</octave>
        </pitch>
        <duration>10080</duration>
        <voice>1</voice>
        <type>quarter</type>
        <stem>up</stem>
        <staff>1</staff>
        <notations>
          <slur number="3" placement="above" type="start" />
          <technical>
            <fingering alternate="no" substitution="no">5</fingering>
          </technical>
        </notations>
      </note>
      <note default-x="71.12" default-y="-20">
        <pitch>
          <step>B</step>
          <octave>4</octave>
        </pitch>
        <duration>5040</duration>
        <voice>1</voice>
        <type>eighth</type>
        <stem>up</stem>
        <staff>1</staff>
        <beam number="1">begin</beam>
        <notations>
          <slur number="3" type="stop" />
        </notations>
      </note>
      <note default-x="109.31" default-y="-35">
        <pitch>
          <step>F</step>
          <alter>1</alter>
          <octave>4</octave>
        </pitch>
        <duration>5040</duration>
        <voice>1</voice>
        <type>eighth</type>
        <stem>up</stem>
        <staff>1</staff>
        <beam number="1">end</beam>
        <notations>
          <slur number="4" placement="above" type="start" />
          <technical>
            <fingering alternate="no" substitution="no">1</fingering>
          </technical>
        </notations>
      </note>
      <direction placement="above">
        <direction-type>
          <bracket line-end="none" line-type="dashed" number="1" type="stop" />
        </direction-type>
        <staff>1</staff>
      </direction>
      <direction placement="below">
        <direction-type>
          <wedge number="1" spread="15" type="diminuendo" />
        </direction-type>
        <staff>1</staff>
      </direction>
      <note default-x="147.51" default-y="-15">
        <pitch>
          <step>C</step>
          <alter>1</alter>
          <octave>5</octave>
        </pitch>
        <duration>10080</duration>
        <voice>1</voice>
        <type>quarter</type>
        <stem>up</stem>
        <staff>1</staff>
        <notations>
          <technical>
            <fingering alternate="no" substitution="no">5</fingering>
          </technical>
        </notations>
      </note>
      <note default-x="208.63" default-y="-30">
        <pitch>
          <step>G</step>
          <alter>1</alter>
          <octave>4</octave>
        </pitch>
        <duration>5040</duration>
        <voice>1</voice>
        <type>eighth</type>
        <stem>up</stem>
        <staff>1</staff>
        <beam number="1">begin</beam>
        <notations>
          <slur number="4" type="stop" />
        </notations>
      </note>
      <note default-x="261.21" default-y="15">
        <pitch>
          <step>D</step>
          <alter>1</alter>
          <octave>4</octave>
        </pitch>
        <duration>5040</duration>
        <voice>1</voice>
        <type>eighth</type>
        <stem>up</stem>
        <staff>1</staff>
        <beam number="1">end</beam>
        <notations>
          <slur number="5" placement="above" type="start" />
          <technical>
            <fingering alternate="no" substitution="no">1</fingering>
          </technical>
        </notations>
      </note>
      <backup>
        <duration>40320</duration>
      </backup>
      <note default-x="10" default-y="-40">
        <pitch>
          <step>E</step>
          <octave>4</octave>
        </pitch>
        <duration>10080</duration>
        <voice>2</voice>
        <type>quarter</type>
        <stem>down</stem>
        <staff>1</staff>
        <notations>
          <slur number="6" placement="below" type="start" />
        </notations>
      </note>
      <note default-x="71.12" default-y="-55">
        <pitch>
          <step>B</step>
          <octave>3</octave>
        </pitch>
        <duration>5040</duration>
        <voice>2</voice>
        <type>eighth</type>
        <stem>down</stem>
        <staff>1</staff>
        <beam number="1">begin</beam>
        <notations>
          <slur number="6" type="stop" />
        </notations>
      </note>
      <note default-x="109.31" default-y="-70">
        <pitch>
          <step>F</step>
          <alter>1</alter>
          <octave>3</octave>
        </pitch>
        <duration>5040</duration>
        <voice>2</voice>
        <type>eighth</type>
        <stem>down</stem>
        <staff>1</staff>
        <beam number="1">end</beam>
        <notations>
          <slur number="1" placement="below" type="start" />
        </notations>
      </note>
      <note default-x="147.51" default-y="-50">
        <pitch>
          <step>C</step>
          <alter>1</alter>
          <octave>4</octave>
        </pitch>
        <duration>10080</duration>
        <voice>2</voice>
        <type>quarter</type>
        <stem>down</stem>
        <staff>1</staff>
      </note>
      <note default-x="208.63" default-y="-65">
        <pitch>
          <step>G</step>
          <alter>1</alter>
          <octave>3</octave>
        </pitch>
        <duration>5040</duration>
        <voice>2</voice>
        <type>eighth</type>
        <stem>down</stem>
        <staff>1</staff>
        <beam number="1">begin</beam>
        <notations>
          <slur number="1" type="stop" />
        </notations>
      </note>
      <note default-x="261.21" default-y="-20">
        <pitch>
          <step>D</step>
          <alter>1</alter>
          <octave>3</octave>
        </pitch>
        <duration>5040</duration>
        <voice>2</voice>
        <type>eighth</type>
        <stem>down</stem>
        <staff>1</staff>
        <beam number="1">end</beam>
        <notations>
          <slur number="2" placement="below" type="start" />
        </notations>
      </note>
      <backup>
        <duration>40320</duration>
      </backup>
      <note>
        <rest measure="yes" />
        <duration>40320</duration>
        <voice>3</voice>
        <staff>2</staff>
      </note>
    </measure>
    <!--========================= Measure 14 =========================-->
    <measure number="14" width="272.14">
      <note default-x="13.8" default-y="35">
        <pitch>
          <step>A</step>
          <octave>4</octave>
        </pitch>
        <duration>10080</duration>
        <voice>1</voice>
        <type>quarter</type>
        <stem>up</stem>
        <staff>1</staff>
      </note>
      <note default-x="67.33" default-y="20">
        <pitch>
          <step>E</step>
          <octave>4</octave>
        </pitch>
        <duration>5040</duration>
        <voice>1</voice>
        <type>eighth</type>
        <stem>up</stem>
        <staff>1</staff>
        <beam number="1">begin</beam>
        <notations>
          <slur number="5" type="stop" />
        </notations>
      </note>
      <direction placement="below">
        <direction-type>
          <wedge number="1" spread="0" type="stop" />
        </direction-type>
        <staff>1</staff>
      </direction>
      <direction placement="below">
        <direction-type>
          <wedge number="6" spread="0" type="crescendo" />
        </direction-type>
        <staff>1</staff>
      </direction>
      <note default-x="106.27" default-y="5">
        <pitch>
          <step>B</step>
          <octave>3</octave>
        </pitch>
        <duration>5040</duration>
        <voice>1</voice>
        <type>eighth</type>
        <stem>up</stem>
        <staff>1</staff>
        <beam number="1">end</beam>
      </note>
      <note default-x="145.2" default-y="10">
        <pitch>
          <step>C</step>
          <alter>1</alter>
          <octave>4</octave>
        </pitch>
        <duration>2520</duration>
        <voice>1</voice>
        <type>16th</type>
        <stem>up</stem>
        <staff>1</staff>
        <beam number="1">begin</beam>
        <beam number="2">forward hook</beam>
        <notations>
          <slur number="3" placement="above" type="start" />
        </notations>
      </note>
      <direction placement="below">
        <direction-type>
          <wedge number="6" spread="15" type="stop" />
        </direction-type>
        <staff>1</staff>
      </direction>
      <note default-x="169.54" default-y="25">
        <pitch>
          <step>F</step>
          <alter>1</alter>
          <octave>4</octave>
        </pitch>
        <duration>7560</duration>
        <voice>1</voice>
        <type>eighth</type>
        <dot />
        <stem>up</stem>
        <staff>1</staff>
        <beam number="1">end</beam>
        <notations>
          <slur number="3" type="stop" />
        </notations>
      </note>
      <note default-x="217.01" default-y="30">
        <pitch>
          <step>G</step>
          <alter>1</alter>
          <octave>4</octave>
        </pitch>
        <duration>10080</duration>
        <tie type="start" />
        <voice>1</voice>
        <type>quarter</type>
        <stem>up</stem>
        <staff>1</staff>
        <notations>
          <tied type="start" />
          <articulations>
            <strong-accent type="up" />
          </articulations>
        </notations>
      </note>
      <backup>
        <duration>40320</duration>
      </backup>
      <note default-x="13.8" default-y="0">
        <pitch>
          <step>A</step>
          <octave>3</octave>
        </pitch>
        <duration>10080</duration>
        <voice>2</voice>
        <type>quarter</type>
        <stem>down</stem>
        <staff>1</staff>
      </note>
      <note default-x="67.33" default-y="-15">
        <pitch>
          <step>E</step>
          <octave>3</octave>
        </pitch>
        <duration>5040</duration>
        <voice>2</voice>
        <type>eighth</type>
        <stem>down</stem>
        <staff>1</staff>
        <beam number="1">begin</beam>
        <notations>
          <slur number="2" type="stop" />
        </notations>
      </note>
      <note default-x="106.27" default-y="-30">
        <pitch>
          <step>B</step>
          <octave>2</octave>
        </pitch>
        <duration>5040</duration>
        <voice>2</voice>
        <type>eighth</type>
        <stem>down</stem>
        <staff>1</staff>
        <beam number="1">end</beam>
      </note>
      <note default-x="145.2" default-y="-25">
        <pitch>
          <step>C</step>
          <alter>1</alter>
          <octave>3</octave>
        </pitch>
        <duration>2520</duration>
        <voice>2</voice>
        <type>16th</type>
        <stem>down</stem>
        <staff>1</staff>
        <beam number="1">begin</beam>
        <beam number="2">forward hook</beam>
        <notations>
          <slur number="4" placement="below" type="start" />
        </notations>
      </note>
      <note default-x="169.54" default-y="-10">
        <pitch>
          <step>F</step>
          <alter>1</alter>
          <octave>3</octave>
        </pitch>
        <duration>7560</duration>
        <voice>2</voice>
        <type>eighth</type>
        <dot />
        <stem>down</stem>
        <staff>1</staff>
        <beam number="1">end</beam>
        <notations>
          <slur number="4" type="stop" />
        </notations>
      </note>
      <note default-x="217.01" default-y="-5">
        <pitch>
          <step>G</step>
          <alter>1</alter>
          <octave>3</octave>
        </pitch>
        <duration>10080</duration>
        <tie type="start" />
        <voice>2</voice>
        <type>quarter</type>
        <stem>down</stem>
        <staff>1</staff>
        <notations>
          <tied type="start" />
        </notations>
      </note>
      <backup>
        <duration>40320</duration>
      </backup>
      <note>
        <rest measure="yes" />
        <duration>40320</duration>
        <voice>3</voice>
        <staff>2</staff>
      </note>
    </measure>
    <!--========================= Measure 15 =========================-->
    <measure number="15" width="429.34">
      <print new-system="yes">
        <system-layout>
          <system-margins>
            <left-margin>20.54</left-margin>
            <right-margin>0</right-margin>
          </system-margins>
          <system-distance>150</system-distance>
        </system-layout>
      </print>
      <note default-x="116.42" default-y="30">
        <pitch>
          <step>G</step>
          <alter>1</alter>
          <octave>4</octave>
        </pitch>
        <duration>40320</duration>
        <tie type="stop" />
        <voice>1</voice>
        <type>whole</type>
        <staff>1</staff>
        <notations>
          <tied type="stop" />
        </notations>
      </note>
      <backup>
        <duration>40320</duration>
      </backup>
      <note default-x="119.38" default-y="-5">
        <pitch>
          <step>G</step>
          <alter>1</alter>
          <octave>3</octave>
        </pitch>
        <duration>30240</duration>
        <tie type="stop" />
        <voice>2</voice>
        <type>half</type>
        <dot />
        <stem>down</stem>
        <staff>1</staff>
        <notations>
          <tied type="stop" />
        </notations>
      </note>
      <note>
        <rest />
        <duration>10080</duration>
        <voice>2</voice>
        <type>quarter</type>
        <staff>1</staff>
      </note>
      <backup>
        <duration>40320</duration>
      </backup>
      <attributes>
        <staff-details print-object="yes" />
      </attributes>
      <direction placement="below">
        <direction-type>
          <wedge number="2" spread="15" type="diminuendo" />
        </direction-type>
        <staff>2</staff>
      </direction>
      <note default-x="119.74" default-y="-129.86">
        <pitch>
          <step>G</step>
          <octave>3</octave>
        </pitch>
        <duration>5040</duration>
        <voice>3</voice>
        <type>eighth</type>
        <stem>down</stem>
        <staff>2</staff>
        <beam number="1">begin</beam>
        <notations>
          <slur number="5" placement="above" type="start" />
          <articulations>
            <detached-legato />
          </articulations>
          <technical>
            <fingering alternate="no" placement="above" substitution="no">1</fingering>
          </technical>
        </notations>
      </note>
      <note default-x="157.58" default-y="-134.86">
        <pitch>
          <step>F</step>
          <octave>3</octave>
        </pitch>
        <duration>5040</duration>
        <voice>3</voice>
        <type>eighth</type>
        <stem>down</stem>
        <staff>2</staff>
        <beam number="1">continue</beam>
        <notations>
          <articulations>
            <detached-legato />
          </articulations>
        </notations>
      </note>
      <note default-x="195.42" default-y="-139.86">
        <pitch>
          <step>E</step>
          <alter>-1</alter>
          <octave>3</octave>
        </pitch>
        <duration>5040</duration>
        <voice>3</voice>
        <type>eighth</type>
        <stem>down</stem>
        <staff>2</staff>
        <beam number="1">continue</beam>
        <notations>
          <articulations>
            <detached-legato />
          </articulations>
        </notations>
      </note>
      <note default-x="233.27" default-y="-144.86">
        <pitch>
          <step>D</step>
          <alter>-1</alter>
          <octave>3</octave>
        </pitch>
        <duration>5040</duration>
        <voice>3</voice>
        <type>eighth</type>
        <stem>down</stem>
        <staff>2</staff>
        <beam number="1">end</beam>
        <notations>
          <articulations>
            <detached-legato />
          </articulations>
        </notations>
      </note>
      <note default-x="271.11" default-y="-149.86">
        <pitch>
          <step>C</step>
          <octave>3</octave>
        </pitch>
        <duration>5040</duration>
        <voice>3</voice>
        <type>eighth</type>
        <stem>up</stem>
        <staff>2</staff>
        <beam number="1">begin</beam>
        <notations>
          <articulations>
            <detached-legato />
          </articulations>
          <technical>
            <fingering alternate="no" placement="above" substitution="no">1</fingering>
          </technical>
        </notations>
      </note>
      <note default-x="308.95" default-y="-154.86">
        <pitch>
          <step>B</step>
          <alter>-1</alter>
          <octave>2</octave>
        </pitch>
        <duration>5040</duration>
        <voice>3</voice>
        <type>eighth</type>
        <stem>up</stem>
        <staff>2</staff>
        <beam number="1">continue</beam>
        <notations>
          <articulations>
            <detached-legato />
          </articulations>
        </notations>
      </note>
      <note default-x="346.79" default-y="-159.86">
        <pitch>
          <step>A</step>
          <alter>-1</alter>
          <octave>2</octave>
        </pitch>
        <duration>5040</duration>
        <voice>3</voice>
        <type>eighth</type>
        <stem>up</stem>
        <staff>2</staff>
        <beam number="1">continue</beam>
        <notations>
          <articulations>
            <detached-legato />
          </articulations>
        </notations>
      </note>
      <note default-x="384.63" default-y="-164.86">
        <pitch>
          <step>G</step>
          <octave>2</octave>
        </pitch>
        <duration>5040</duration>
        <voice>3</voice>
        <type>eighth</type>
        <stem>up</stem>
        <staff>2</staff>
        <beam number="1">end</beam>
        <notations>
          <slur number="5" type="stop" />
          <articulations>
            <detached-legato />
          </articulations>
        </notations>
      </note>
      <direction placement="below">
        <direction-type>
          <wedge number="2" spread="0" type="stop" />
        </direction-type>
        <staff>2</staff>
      </direction>
    </measure>
    <!--========================= Measure 16 =========================-->
    <measure number="16" width="319.2">
      <attributes>
        <clef>
          <sign>G</sign>
          <line>2</line>
        </clef>
      </attributes>
      <direction placement="below">
        <direction-type>
          <wedge number="1" spread="0" type="crescendo" />
        </direction-type>
        <staff>1</staff>
      </direction>
      <note default-x="13.8" default-y="-50">
        <pitch>
          <step>C</step>
          <alter>1</alter>
          <octave>4</octave>
        </pitch>
        <duration>2520</duration>
        <voice>1</voice>
        <type>16th</type>
        <stem>up</stem>
        <staff>1</staff>
        <beam number="1">begin</beam>
        <beam number="2">forward hook</beam>
        <notations>
          <slur number="6" placement="below" type="start" />
        </notations>
      </note>
      <note default-x="40.1" default-y="-35">
        <pitch>
          <step>F</step>
          <alter>1</alter>
          <octave>4</octave>
        </pitch>
        <duration>7560</duration>
        <voice>1</voice>
        <type>eighth</type>
        <dot />
        <stem>up</stem>
        <staff>1</staff>
        <beam number="1">end</beam>
        <notations>
          <slur number="6" type="stop" />
        </notations>
      </note>
      <direction placement="below">
        <direction-type>
          <wedge number="1" spread="15" type="stop" />
        </direction-type>
        <staff>1</staff>
      </direction>
      <note default-x="91.05" default-y="-30">
        <pitch>
          <step>G</step>
          <alter>1</alter>
          <octave>4</octave>
        </pitch>
        <duration>30240</duration>
        <voice>1</voice>
        <type>half</type>
        <dot />
        <stem>up</stem>
        <staff>1</staff>
        <notations>
          <articulations>
            <strong-accent type="up" />
          </articulations>
        </notations>
      </note>
      <backup>
        <duration>40320</duration>
      </backup>
      <note>
        <rest />
        <duration>20160</duration>
        <voice>2</voice>
        <type>half</type>
        <staff>2</staff>
      </note>
      <direction placement="below">
        <direction-type>
          <wedge number="3" spread="15" type="diminuendo" />
        </direction-type>
        <staff>2</staff>
      </direction>
      <note default-x="149.27" default-y="-129.86">
        <pitch>
          <step>G</step>
          <octave>3</octave>
        </pitch>
        <duration>5040</duration>
        <voice>2</voice>
        <type>eighth</type>
        <stem>down</stem>
        <staff>2</staff>
        <beam number="1">begin</beam>
        <notations>
          <slur number="1" placement="above" type="start" />
          <articulations>
            <detached-legato />
          </articulations>
          <technical>
            <fingering alternate="no" placement="above" substitution="no">1</fingering>
          </technical>
        </notations>
      </note>
      <note default-x="191.36" default-y="-134.86">
        <pitch>
          <step>F</step>
          <octave>3</octave>
        </pitch>
        <duration>5040</duration>
        <voice>2</voice>
        <type>eighth</type>
        <stem>down</stem>
        <staff>2</staff>
        <beam number="1">continue</beam>
        <notations>
          <articulations>
            <detached-legato />
          </articulations>
        </notations>
      </note>
      <note default-x="233.44" default-y="-139.86">
        <pitch>
          <step>E</step>
          <alter>-1</alter>
          <octave>3</octave>
        </pitch>
        <duration>5040</duration>
        <voice>2</voice>
        <type>eighth</type>
        <stem>down</stem>
        <staff>2</staff>
        <beam number="1">continue</beam>
        <notations>
          <articulations>
            <detached-legato />
          </articulations>
        </notations>
      </note>
      <note default-x="275.52" default-y="-144.86">
        <pitch>
          <step>D</step>
          <alter>-1</alter>
          <octave>3</octave>
        </pitch>
        <duration>5040</duration>
        <voice>2</voice>
        <type>eighth</type>
        <stem>down</stem>
        <staff>2</staff>
        <beam number="1">end</beam>
        <notations>
          <articulations>
            <detached-legato />
          </articulations>
        </notations>
      </note>
      <direction placement="below">
        <direction-type>
          <wedge number="3" spread="0" type="stop" />
        </direction-type>
        <staff>2</staff>
      </direction>
    </measure>
    <!--========================= Measure 17 =========================-->
    <measure number="17" width="374.28">
      <direction placement="below">
        <direction-type>
          <dynamics default-x="-36" default-y="-80">
            <p />
          </dynamics>
        </direction-type>
        <staff>1</staff>
        <sound dynamics="44" />
      </direction>
      <note default-x="16.2" default-y="-60">
        <pitch>
          <step>A</step>
          <octave>3</octave>
        </pitch>
        <duration>2520</duration>
        <voice>1</voice>
        <type>16th</type>
        <stem>up</stem>
        <staff>1</staff>
        <beam number="1">begin</beam>
        <beam number="2">forward hook</beam>
        <notations>
          <slur number="2" placement="below" type="start" />
        </notations>
      </note>
      <note default-x="43.21" default-y="-55">
        <pitch>
          <step>B</step>
          <octave>3</octave>
        </pitch>
        <duration>7560</duration>
        <voice>1</voice>
        <type>eighth</type>
        <dot />
        <stem>up</stem>
        <staff>1</staff>
        <beam number="1">end</beam>
        <notations>
          <slur number="2" type="stop" />
        </notations>
      </note>
      <note default-x="113.06" default-y="-40">
        <pitch>
          <step>E</step>
          <octave>4</octave>
        </pitch>
        <duration>20160</duration>
        <voice>1</voice>
        <type>half</type>
        <stem>up</stem>
        <staff>1</staff>
        <notations>
          <articulations>
            <accent />
          </articulations>
        </notations>
      </note>
      <note default-x="286.26" default-y="-40">
        <pitch>
          <step>E</step>
          <octave>4</octave>
        </pitch>
        <duration>10080</duration>
        <tie type="start" />
        <voice>1</voice>
        <type>quarter</type>
        <stem>up</stem>
        <staff>1</staff>
        <notations>
          <tied type="start" />
          <articulations>
            <strong-accent type="up" />
          </articulations>
        </notations>
      </note>
      <backup>
        <duration>40320</duration>
      </backup>
      <direction placement="below">
        <direction-type>
          <dynamics default-x="-36" default-y="-80">
            <other-dynamics />
          </dynamics>
        </direction-type>
        <staff>2</staff>
        <sound dynamics="63" />
      </direction>
      <direction placement="below">
        <direction-type>
          <dynamics default-x="-36" default-y="-80">
            <ppp />
          </dynamics>
        </direction-type>
        <staff>2</staff>
        <sound dynamics="19" />
      </direction>
      <direction placement="below">
        <direction-type>
          <dynamics default-x="-36" default-y="-80">
            <other-dynamics />
          </dynamics>
        </direction-type>
        <staff>2</staff>
        <sound dynamics="63" />
      </direction>
      <forward>
        <duration>20160</duration>
        <staff>2</staff>
      </forward>
      <direction placement="above">
        <direction-type>
          <dynamics default-x="-36" default-y="-80">
            <pp />
          </dynamics>
        </direction-type>
        <staff>2</staff>
        <sound dynamics="31" />
      </direction>
      <backup>
        <duration>20160</duration>
      </backup>
      <note>
        <rest>
          <display-step>A</display-step>
          <display-octave>3</display-octave>
        </rest>
        <duration>20160</duration>
        <voice>6</voice>
        <type>half</type>
        <staff>2</staff>
      </note>
      <note default-x="199.84" default-y="-129.86">
        <pitch>
          <step>G</step>
          <octave>3</octave>
        </pitch>
        <duration>5040</duration>
        <voice>6</voice>
        <type>eighth</type>
        <stem>up</stem>
        <staff>2</staff>
        <beam number="1">begin</beam>
        <notations>
          <slur number="3" placement="above" type="start" />
          <articulations>
            <detached-legato />
          </articulations>
        </notations>
      </note>
      <note default-x="243.05" default-y="-134.86">
        <pitch>
          <step>F</step>
          <octave>3</octave>
        </pitch>
        <duration>5040</duration>
        <voice>6</voice>
        <type>eighth</type>
        <stem>up</stem>
        <staff>2</staff>
        <beam number="1">continue</beam>
        <notations>
          <articulations>
            <detached-legato />
          </articulations>
        </notations>
      </note>
      <note default-x="286.26" default-y="-139.86">
        <pitch>
          <step>E</step>
          <alter>-1</alter>
          <octave>3</octave>
        </pitch>
        <duration>5040</duration>
        <voice>6</voice>
        <type>eighth</type>
        <stem>up</stem>
        <staff>2</staff>
        <beam number="1">continue</beam>
        <notations>
          <articulations>
            <detached-legato />
          </articulations>
        </notations>
      </note>
      <note default-x="329.47" default-y="-144.86">
        <pitch>
          <step>D</step>
          <alter>-1</alter>
          <octave>3</octave>
        </pitch>
        <duration>5040</duration>
        <voice>6</voice>
        <type>eighth</type>
        <stem>up</stem>
        <staff>2</staff>
        <beam number="1">end</beam>
        <notations>
          <articulations>
            <detached-legato />
          </articulations>
        </notations>
      </note>
      <backup>
        <duration>40320</duration>
      </backup>
      <note default-x="16.2" default-y="-149.86">
        <pitch>
          <step>C</step>
          <octave>3</octave>
        </pitch>
        <duration>5040</duration>
        <voice>7</voice>
        <type>eighth</type>
        <stem>down</stem>
        <staff>2</staff>
        <beam number="1">begin</beam>
        <notations>
          <slur number="1" type="stop" />
          <slur number="4" placement="below" type="start" />
          <articulations>
            <detached-legato />
          </articulations>
          <technical>
            <fingering alternate="no" placement="above" substitution="no">1</fingering>
          </technical>
        </notations>
      </note>
      <note default-x="70.21" default-y="-154.86">
        <pitch>
          <step>B</step>
          <alter>-1</alter>
          <octave>2</octave>
        </pitch>
        <duration>5040</duration>
        <voice>7</voice>
        <type>eighth</type>
        <stem>down</stem>
        <staff>2</staff>
        <beam number="1">continue</beam>
        <notations>
          <articulations>
            <detached-legato />
          </articulations>
          <technical>
            <fingering alternate="no" placement="above" substitution="no">3</fingering>
          </technical>
        </notations>
      </note>
      <note default-x="113.42" default-y="-159.86">
        <pitch>
          <step>A</step>
          <alter>-1</alter>
          <octave>2</octave>
        </pitch>
        <duration>5040</duration>
        <voice>7</voice>
        <type>eighth</type>
        <stem>down</stem>
        <staff>2</staff>
        <beam number="1">continue</beam>
        <notations>
          <articulations>
            <detached-legato />
          </articulations>
        </notations>
      </note>
      <note default-x="156.63" default-y="-164.86">
        <pitch>
          <step>G</step>
          <octave>2</octave>
        </pitch>
        <duration>5040</duration>
        <tie type="start" />
        <voice>7</voice>
        <type>eighth</type>
        <stem>down</stem>
        <staff>2</staff>
        <beam number="1">end</beam>
        <notations>
          <tied type="start" />
          <articulations>
            <detached-legato />
          </articulations>
        </notations>
      </note>
      <note default-x="199.84" default-y="-164.86">
        <pitch>
          <step>G</step>
          <octave>2</octave>
        </pitch>
        <duration>5040</duration>
        <tie type="stop" />
        <voice>7</voice>
        <type>eighth</type>
        <stem>down</stem>
        <staff>2</staff>
        <notations>
          <tied type="stop" />
          <slur number="4" type="stop" />
        </notations>
      </note>
      <note>
        <rest />
        <duration>5040</duration>
        <voice>7</voice>
        <type>eighth</type>
        <staff>2</staff>
      </note>
      <note>
        <rest />
        <duration>10080</duration>
        <voice>7</voice>
        <type>quarter</type>
        <staff>2</staff>
      </note>
    </measure>
    <!--========================= Measure 18 =========================-->
    <measure number="18" width="318.64">
      <direction placement="above">
        <direction-type>
          <words enclosure="none" font-size="12" font-style="italic" relative-y="20">ritard.</words>
        </direction-type>
        <staff>1</staff>
      </direction>
      <direction placement="above">
        <direction-type>
          <words default-y="22.37" enclosure="none" font-size="12" font-weight="bold" relative-y="20">T</words>
        </direction-type>
        <staff>1</staff>
      </direction>
      <note default-x="10.48" default-y="-40">
        <pitch>
          <step>E</step>
          <octave>4</octave>
        </pitch>
        <duration>40320</duration>
        <tie type="stop" />
        <voice>1</voice>
        <type>whole</type>
        <staff>1</staff>
        <notations>
          <tied type="stop" />
        </notations>
      </note>
      <backup>
        <duration>40320</duration>
      </backup>
      <direction placement="below">
        <direction-type>
          <wedge number="4" spread="15" type="diminuendo" />
        </direction-type>
        <staff>2</staff>
      </direction>
      <note default-x="18.1" default-y="-149.86">
        <pitch>
          <step>C</step>
          <octave>3</octave>
        </pitch>
        <duration>10080</duration>
        <voice>6</voice>
        <type>quarter</type>
        <stem>up</stem>
        <staff>2</staff>
        <notations>
          <slur number="3" type="stop" />
        </notations>
      </note>
      <note>
        <rest>
          <display-step>F</display-step>
          <display-octave>1</display-octave>
        </rest>
        <duration>10080</duration>
        <voice>6</voice>
        <type>quarter</type>
        <staff>2</staff>
      </note>
      <direction placement="below">
        <direction-type>
          <wedge number="4" spread="0" type="stop" />
        </direction-type>
        <staff>2</staff>
      </direction>
      <note>
        <rest>
          <display-step>A</display-step>
          <display-octave>1</display-octave>
        </rest>
        <duration>20160</duration>
        <voice>6</voice>
        <type>half</type>
        <staff>2</staff>
      </note>
      <backup>
        <duration>40320</duration>
      </backup>
      <note default-x="13.8" default-y="-94.86">
        <pitch>
          <step>G</step>
          <octave>4</octave>
        </pitch>
        <duration>5040</duration>
        <voice>7</voice>
        <type>eighth</type>
        <stem>down</stem>
        <staff>2</staff>
        <beam number="1">begin</beam>
        <notations>
          <slur number="5" placement="above" type="start" />
          <articulations>
            <detached-legato />
          </articulations>
          <technical>
            <fingering alternate="no" placement="above" substitution="no">5</fingering>
          </technical>
        </notations>
      </note>
      <note default-x="61.26" default-y="-99.86">
        <pitch>
          <step>F</step>
          <octave>4</octave>
        </pitch>
        <duration>5040</duration>
        <voice>7</voice>
        <type>eighth</type>
        <stem>down</stem>
        <staff>2</staff>
        <beam number="1">continue</beam>
        <notations>
          <articulations>
            <detached-legato />
          </articulations>
          <technical>
            <fingering alternate="no" placement="above" substitution="no">4</fingering>
          </technical>
        </notations>
      </note>
      <note default-x="108.72" default-y="-104.86">
        <pitch>
          <step>E</step>
          <alter>-1</alter>
          <octave>4</octave>
        </pitch>
        <duration>5040</duration>
        <voice>7</voice>
        <type>eighth</type>
        <stem>down</stem>
        <staff>2</staff>
        <beam number="1">continue</beam>
        <notations>
          <articulations>
            <detached-legato />
          </articulations>
        </notations>
      </note>
      <note default-x="156.18" default-y="-109.86">
        <pitch>
          <step>D</step>
          <alter>-1</alter>
          <octave>4</octave>
        </pitch>
        <duration>5040</duration>
        <voice>7</voice>
        <type>eighth</type>
        <stem>down</stem>
        <staff>2</staff>
        <beam number="1">end</beam>
        <notations>
          <articulations>
            <detached-legato />
          </articulations>
        </notations>
      </note>
      <note default-x="203.27" default-y="-114.86">
        <pitch>
          <step>C</step>
          <octave>4</octave>
        </pitch>
        <duration>20160</duration>
        <voice>7</voice>
        <type>half</type>
        <stem>down</stem>
        <staff>2</staff>
        <notations>
          <slur number="5" type="stop" />
        </notations>
      </note>
      <barline location="right">
        <bar-style>light-heavy</bar-style>
      </barline>
    </measure>
  </part>
</score-partwise>
