<?xml version="1.0" encoding="UTF-8" standalone="no"?>
<!DOCTYPE score-partwise PUBLIC "-//Recordare//DTD MusicXML 3.1 Partwise//EN" "http://www.musicxml.org/dtds/partwise.dtd">
<score-partwise version="3.1">
  <identification>
    <encoding>
      <software>Finale v26.3 for Windows</software>
      <encoding-date>2021-11-18</encoding-date>
      <supports attribute="new-system" element="print" type="yes" value="yes"/>
      <supports attribute="new-page" element="print" type="yes" value="yes"/>
      <supports element="accidental" type="yes"/>
      <supports element="beam" type="yes"/>
      <supports element="stem" type="yes"/>
    </encoding>
  </identification>
  <defaults>
    <scaling>
      <millimeters>5.7573</millimeters>
      <tenths>40</tenths>
    </scaling>
    <page-layout>
      <page-height>2064</page-height>
      <page-width>1459</page-width>
      <page-margins type="both">
        <left-margin>83</left-margin>
        <right-margin>83</right-margin>
        <top-margin>83</top-margin>
        <bottom-margin>83</bottom-margin>
      </page-margins>
    </page-layout>
    <system-layout>
      <system-margins>
        <left-margin>0</left-margin>
        <right-margin>0</right-margin>
      </system-margins>
      <system-distance>0</system-distance>
      <top-system-distance>0</top-system-distance>
    </system-layout>
    <staff-layout>
      <staff-distance>80</staff-distance>
    </staff-layout>
    <appearance>
      <line-width type="stem">0.918</line-width>
      <line-width type="beam">5</line-width>
      <line-width type="staff">0.918</line-width>
      <line-width type="light barline">0.918</line-width>
      <line-width type="heavy barline">5</line-width>
      <line-width type="leger">1.0807</line-width>
      <line-width type="ending">0.957</line-width>
      <line-width type="wedge">0.918</line-width>
      <line-width type="enclosure">0.918</line-width>
      <line-width type="tuplet bracket">0.918</line-width>
      <note-size type="grace">60</note-size>
      <note-size type="cue">60</note-size>
      <distance type="hyphen">120</distance>
      <distance type="beam">7.5</distance>
    </appearance>
    <music-font font-family="Maestro,engraved" font-size="16.3"/>
    <word-font font-family="Times New Roman" font-size="8.2"/>
    <lyric-font font-family="Finale Lyrics" font-size="8.2"/>
  </defaults>
  <credit page="1">
    <credit-words default-x="725" default-y="80" font-size="8" justify="center" valign="bottom">BWV 7 - S. #</credit-words>
  </credit>
  <part-list>
    <score-part id="P1">
      <part-name print-object="no">MusicXML Part</part-name>
      <score-instrument id="P1-I1">
        <instrument-name>Midi_53</instrument-name>
      </score-instrument>
      <midi-instrument id="P1-I1">
        <midi-channel>1</midi-channel>
        <midi-program>53</midi-program>
      </midi-instrument>
    </score-part>
    <score-part id="P2">
      <part-name print-object="no">MusicXML Part</part-name>
      <score-instrument id="P2-I1">
        <instrument-name>Midi_53</instrument-name>
      </score-instrument>
      <midi-instrument id="P2-I1">
        <midi-channel>1</midi-channel>
        <midi-program>53</midi-program>
      </midi-instrument>
    </score-part>
  </part-list>
  <!--=========================================================-->
  <part id="P1">
    <?SmartMusic maxVoice=1?>
    <measure number="0" width="181">
      <print>
        <system-layout>
          <system-margins>
            <left-margin>190</left-margin>
            <right-margin>0</right-margin>
          </system-margins>
          <top-system-distance>80</top-system-distance>
        </system-layout>
        <measure-numbering>system</measure-numbering>
      </print>
      <attributes>
        <divisions>2</divisions>
        <key>
          <fifths>2</fifths>
          <mode>major</mode>
        </key>
        <time symbol="common">
          <beats>4</beats>
          <beat-type>4</beat-type>
        </time>
        <clef>
          <sign>G</sign>
          <line>2</line>
        </clef>
      </attributes>
      <sound tempo="120"/>
      <direction placement="below">
        <direction-type>
          <words default-y="-69" font-size="8" halign="center" relative-x="-234">Violino I. col Soprano.</words>
        </direction-type>
      </direction>
      <direction placement="below">
        <direction-type>
          <words default-y="-48" font-size="8" halign="center" relative-x="-236">Oboe d'amore I. II.</words>
        </direction-type>
      </direction>
      <direction placement="above">
        <direction-type>
          <words default-y="35" font-size="12" font-weight="bold" relative-x="-60">7. Choral.</words>
        </direction-type>
      </direction>
      <note default-x="124">
        <pitch>
          <step>E</step>
          <octave>4</octave>
        </pitch>
        <duration>1</duration>
        <voice>1</voice>
        <type>eighth</type>
        <stem default-y="-5">up</stem>
        <beam number="1">begin</beam>
        <lyric default-y="-75" number="1">
          <syllabic>single</syllabic>
          <text>Das</text>
        </lyric>
        <lyric default-y="-95" number="2">
          <syllabic>single</syllabic>
          <text>Der</text>
        </lyric>
      </note>
      <note default-x="153">
        <pitch>
          <step>F</step>
          <alter>1</alter>
          <octave>4</octave>
        </pitch>
        <duration>1</duration>
        <voice>1</voice>
        <type>eighth</type>
        <stem default-y="0">up</stem>
        <beam number="1">end</beam>
      </note>
    </measure>
    <!--=======================================================-->
    <measure number="1" width="210">
      <note default-x="13">
        <pitch>
          <step>G</step>
          <octave>4</octave>
        </pitch>
        <duration>2</duration>
        <voice>1</voice>
        <type>quarter</type>
        <stem default-y="5">up</stem>
        <lyric default-y="-75" number="1">
          <syllabic>single</syllabic>
          <text>Aug'</text>
        </lyric>
        <lyric default-y="-95" number="2" relative-x="3">
          <syllabic>single</syllabic>
          <text>Glaub'</text>
        </lyric>
      </note>
      <note default-x="59">
        <pitch>
          <step>A</step>
          <octave>4</octave>
        </pitch>
        <duration>2</duration>
        <voice>1</voice>
        <type>quarter</type>
        <stem default-y="10">up</stem>
        <lyric default-y="-75" number="1">
          <syllabic>begin</syllabic>
          <text>al</text>
        </lyric>
        <lyric default-y="-95" number="2">
          <syllabic>begin</syllabic>
          <text>al</text>
        </lyric>
      </note>
      <note default-x="106">
        <pitch>
          <step>B</step>
          <octave>4</octave>
        </pitch>
        <duration>2</duration>
        <voice>1</voice>
        <type>quarter</type>
        <stem default-y="-55">down</stem>
        <lyric default-y="-75" number="1">
          <syllabic>end</syllabic>
          <text>lein</text>
        </lyric>
        <lyric default-y="-95" number="2">
          <syllabic>end</syllabic>
          <text>lein</text>
        </lyric>
      </note>
      <note default-x="152">
        <pitch>
          <step>A</step>
          <octave>4</octave>
        </pitch>
        <duration>2</duration>
        <voice>1</voice>
        <type>quarter</type>
        <stem default-y="10">up</stem>
        <lyric default-y="-75" number="1">
          <syllabic>single</syllabic>
          <text>das</text>
        </lyric>
        <lyric default-y="-95" number="2">
          <syllabic>single</syllabic>
          <text>die</text>
        </lyric>
      </note>
    </measure>
    <!--=======================================================-->
    <measure number="2" width="238">
      <note default-x="13">
        <pitch>
          <step>D</step>
          <octave>5</octave>
        </pitch>
        <duration>2</duration>
        <voice>1</voice>
        <type>quarter</type>
        <stem default-y="-45">down</stem>
        <lyric default-y="-75" number="1">
          <syllabic>begin</syllabic>
          <text>Was</text>
        </lyric>
        <lyric default-y="-95" number="2">
          <syllabic>single</syllabic>
          <text>Kraft</text>
        </lyric>
      </note>
      <note default-x="71">
        <pitch>
          <step>C</step>
          <alter>1</alter>
          <octave>5</octave>
        </pitch>
        <duration>2</duration>
        <voice>1</voice>
        <type>quarter</type>
        <stem default-y="-50">down</stem>
        <lyric default-y="-75" number="1">
          <syllabic>end</syllabic>
          <text>ser</text>
        </lyric>
        <lyric default-y="-95" number="2">
          <syllabic>begin</syllabic>
          <text>ver</text>
        </lyric>
      </note>
      <note default-x="138">
        <pitch>
          <step>B</step>
          <octave>4</octave>
        </pitch>
        <duration>2</duration>
        <voice>1</voice>
        <type>quarter</type>
        <stem default-y="-55">down</stem>
        <notations>
          <fermata default-x="-6" default-y="5" type="upright"/>
        </notations>
        <lyric default-y="-75" number="1">
          <syllabic>single</syllabic>
          <text>sieht,</text>
        </lyric>
        <lyric default-y="-95" number="2">
          <syllabic>end</syllabic>
          <text>steht</text>
        </lyric>
      </note>
      <note default-x="190">
        <pitch>
          <step>A</step>
          <octave>4</octave>
        </pitch>
        <duration>2</duration>
        <voice>1</voice>
        <type>quarter</type>
        <stem default-y="10">up</stem>
        <lyric default-y="-75" number="1">
          <syllabic>single</syllabic>
          <text>wie</text>
        </lyric>
        <lyric default-y="-95" number="2">
          <syllabic>single</syllabic>
          <text>des</text>
        </lyric>
      </note>
    </measure>
    <!--=======================================================-->
    <measure number="3" width="256">
      <note default-x="13">
        <pitch>
          <step>D</step>
          <octave>5</octave>
        </pitch>
        <duration>2</duration>
        <voice>1</voice>
        <type>quarter</type>
        <stem default-y="-45">down</stem>
        <lyric default-y="-75" number="1">
          <syllabic>begin</syllabic>
          <text>Men</text>
        </lyric>
        <lyric default-y="-95" number="2">
          <syllabic>begin</syllabic>
          <text>Blu</text>
        </lyric>
      </note>
      <note default-x="75">
        <pitch>
          <step>C</step>
          <alter>1</alter>
          <octave>5</octave>
        </pitch>
        <duration>2</duration>
        <voice>1</voice>
        <type>quarter</type>
        <stem default-y="-50">down</stem>
        <lyric default-y="-75" number="1">
          <syllabic>end</syllabic>
          <text>schen</text>
        </lyric>
        <lyric default-y="-95" number="2">
          <syllabic>end</syllabic>
          <text>tes</text>
        </lyric>
      </note>
      <note default-x="135">
        <pitch>
          <step>B</step>
          <octave>4</octave>
        </pitch>
        <duration>2</duration>
        <voice>1</voice>
        <type>quarter</type>
        <stem default-y="-55">down</stem>
        <lyric default-y="-75" number="1">
          <syllabic>begin</syllabic>
          <text>Was</text>
        </lyric>
        <lyric default-y="-95" number="2">
          <syllabic>begin</syllabic>
          <text>Je</text>
        </lyric>
      </note>
      <note default-x="193">
        <pitch>
          <step>A</step>
          <octave>4</octave>
        </pitch>
        <duration>2</duration>
        <voice>1</voice>
        <type>quarter</type>
        <stem default-y="10">up</stem>
        <lyric default-y="-75" number="1">
          <syllabic>end</syllabic>
          <text>ser</text>
        </lyric>
        <lyric default-y="-95" number="2">
          <syllabic>end</syllabic>
          <text>su</text>
        </lyric>
      </note>
    </measure>
    <!--=======================================================-->
    <measure number="4" width="218">
      <note default-x="13">
        <pitch>
          <step>G</step>
          <octave>4</octave>
        </pitch>
        <duration>2</duration>
        <voice>1</voice>
        <type>quarter</type>
        <stem default-y="5">up</stem>
        <lyric default-y="-75" number="1">
          <syllabic>begin</syllabic>
          <text>gie</text>
        </lyric>
        <lyric default-y="-95" number="2">
          <syllabic>begin</syllabic>
          <text>Chri</text>
        </lyric>
      </note>
      <note default-x="60">
        <pitch>
          <step>F</step>
          <alter>1</alter>
          <octave>4</octave>
        </pitch>
        <duration>2</duration>
        <voice>1</voice>
        <type>quarter</type>
        <stem default-y="0">up</stem>
      </note>
      <note default-x="120">
        <pitch>
          <step>E</step>
          <octave>4</octave>
        </pitch>
        <duration>2</duration>
        <voice>1</voice>
        <type>quarter</type>
        <stem default-y="-5">up</stem>
        <notations>
          <fermata default-x="-7" default-y="-55" type="inverted"/>
        </notations>
        <lyric default-y="-75" number="1">
          <syllabic>end</syllabic>
          <text>ssen,</text>
        </lyric>
        <lyric default-y="-95" number="2">
          <syllabic>end</syllabic>
          <text>sti,</text>
        </lyric>
      </note>
      <barline location="right">
        <bar-style>light-heavy</bar-style>
        <repeat direction="backward" winged="none"/>
      </barline>
    </measure>
    <!--=======================================================-->
    <measure number="5" width="178">
      <print new-system="yes">
        <system-layout>
          <system-margins>
            <left-margin>30</left-margin>
            <right-margin>0</right-margin>
          </system-margins>
          <system-distance>110</system-distance>
        </system-layout>
      </print>
      <attributes>
        <time>
          <beats>4</beats>
          <beat-type>4</beat-type>
        </time>
      </attributes>
      <note default-x="125">
        <pitch>
          <step>E</step>
          <octave>4</octave>
        </pitch>
        <duration>2</duration>
        <voice>1</voice>
        <type>quarter</type>
        <stem default-y="-5">up</stem>
        <lyric default-y="-75" number="1">
          <syllabic>single</syllabic>
          <text>und</text>
        </lyric>
      </note>
    </measure>
    <!--=======================================================-->
    <measure number="6" width="209">
      <note default-x="13">
        <pitch>
          <step>A</step>
          <octave>4</octave>
        </pitch>
        <duration>2</duration>
        <voice>1</voice>
        <type>quarter</type>
        <stem default-y="10">up</stem>
        <lyric default-y="-75" number="1">
          <syllabic>single</syllabic>
          <text>ist</text>
        </lyric>
      </note>
      <note default-x="64">
        <pitch>
          <step>A</step>
          <octave>4</octave>
        </pitch>
        <duration>1</duration>
        <voice>1</voice>
        <type>eighth</type>
        <stem default-y="10">up</stem>
        <beam number="1">begin</beam>
        <lyric default-y="-75" number="1" relative-x="5">
          <syllabic>single</syllabic>
          <text>für</text>
        </lyric>
      </note>
      <note default-x="90">
        <pitch>
          <step>G</step>
          <octave>4</octave>
        </pitch>
        <duration>1</duration>
        <voice>1</voice>
        <type>eighth</type>
        <stem default-y="5">up</stem>
        <beam number="1">end</beam>
      </note>
      <note default-x="116">
        <pitch>
          <step>F</step>
          <alter>1</alter>
          <octave>4</octave>
        </pitch>
        <duration>2</duration>
        <voice>1</voice>
        <type>quarter</type>
        <stem default-y="0">up</stem>
        <lyric default-y="-75" number="1">
          <syllabic>single</syllabic>
          <text>ihn</text>
        </lyric>
      </note>
      <note default-x="157">
        <pitch>
          <step>B</step>
          <octave>4</octave>
        </pitch>
        <duration>2</duration>
        <voice>1</voice>
        <type>quarter</type>
        <stem default-y="-55">down</stem>
        <lyric default-y="-75" number="1">
          <syllabic>single</syllabic>
          <text>ein'</text>
        </lyric>
      </note>
    </measure>
    <!--=======================================================-->
    <measure number="7" width="204">
      <note default-x="16">
        <pitch>
          <step>B</step>
          <octave>4</octave>
        </pitch>
        <duration>2</duration>
        <voice>1</voice>
        <type>quarter</type>
        <stem default-y="-55">down</stem>
        <lyric default-y="-75" number="1">
          <syllabic>begin</syllabic>
          <text>ro</text>
        </lyric>
      </note>
      <note default-x="60">
        <pitch>
          <step>A</step>
          <alter>1</alter>
          <octave>4</octave>
        </pitch>
        <duration>2</duration>
        <voice>1</voice>
        <type>quarter</type>
        <accidental>sharp</accidental>
        <stem default-y="10">up</stem>
        <lyric default-y="-75" number="1">
          <syllabic>end</syllabic>
          <text>the</text>
        </lyric>
      </note>
      <note default-x="104">
        <pitch>
          <step>B</step>
          <octave>4</octave>
        </pitch>
        <duration>2</duration>
        <voice>1</voice>
        <type>quarter</type>
        <stem default-y="-55">down</stem>
        <notations>
          <fermata default-x="-6" default-y="5" type="upright"/>
        </notations>
        <lyric default-y="-75" number="1">
          <syllabic>single</syllabic>
          <text>Fluth</text>
        </lyric>
      </note>
      <note default-x="148">
        <pitch>
          <step>B</step>
          <octave>4</octave>
        </pitch>
        <duration>2</duration>
        <voice>1</voice>
        <type>quarter</type>
        <stem default-y="-55">down</stem>
        <lyric default-y="-75" number="1">
          <syllabic>single</syllabic>
          <text>von</text>
        </lyric>
      </note>
    </measure>
    <!--=======================================================-->
    <measure number="8" width="205">
      <note default-x="13">
        <pitch>
          <step>E</step>
          <octave>5</octave>
        </pitch>
        <duration>2</duration>
        <voice>1</voice>
        <type>quarter</type>
        <stem default-y="-39.5">down</stem>
        <lyric default-y="-75" number="1">
          <syllabic>begin</syllabic>
          <text>Chri</text>
        </lyric>
      </note>
      <note default-x="63">
        <pitch>
          <step>E</step>
          <octave>5</octave>
        </pitch>
        <duration>2</duration>
        <voice>1</voice>
        <type>quarter</type>
        <stem default-y="-39.5">down</stem>
        <lyric default-y="-75" number="1">
          <syllabic>end</syllabic>
          <text>sti</text>
        </lyric>
      </note>
      <note default-x="104">
        <pitch>
          <step>F</step>
          <alter>1</alter>
          <octave>5</octave>
        </pitch>
        <duration>1</duration>
        <voice>1</voice>
        <type>eighth</type>
        <stem default-y="-35">down</stem>
        <beam number="1">begin</beam>
        <lyric default-y="-75" number="1" relative-x="9">
          <syllabic>single</syllabic>
          <text>Blut</text>
        </lyric>
      </note>
      <note default-x="129">
        <pitch>
          <step>E</step>
          <octave>5</octave>
        </pitch>
        <duration>1</duration>
        <voice>1</voice>
        <type>eighth</type>
        <stem default-y="-39.5">down</stem>
        <beam number="1">end</beam>
      </note>
      <note default-x="153">
        <pitch>
          <step>D</step>
          <octave>5</octave>
        </pitch>
        <duration>2</duration>
        <voice>1</voice>
        <type>quarter</type>
        <stem default-y="-45">down</stem>
        <lyric default-y="-75" number="1">
          <syllabic>begin</syllabic>
          <text>ge</text>
        </lyric>
      </note>
    </measure>
    <!--=======================================================-->
    <measure number="9" width="215">
      <note default-x="13">
        <pitch>
          <step>E</step>
          <octave>5</octave>
        </pitch>
        <duration>1</duration>
        <voice>1</voice>
        <type>eighth</type>
        <stem default-y="-39.5">down</stem>
        <beam number="1">begin</beam>
        <lyric default-y="-75" number="1">
          <syllabic>end</syllabic>
          <text>fär</text>
        </lyric>
      </note>
      <note default-x="40">
        <pitch>
          <step>D</step>
          <octave>5</octave>
        </pitch>
        <duration>1</duration>
        <voice>1</voice>
        <type>eighth</type>
        <stem default-y="-45">down</stem>
        <beam number="1">end</beam>
      </note>
      <note default-x="71">
        <pitch>
          <step>C</step>
          <alter>1</alter>
          <octave>5</octave>
        </pitch>
        <duration>2</duration>
        <voice>1</voice>
        <type>quarter</type>
        <accidental>sharp</accidental>
        <stem default-y="-50">down</stem>
      </note>
      <note default-x="126">
        <pitch>
          <step>B</step>
          <octave>4</octave>
        </pitch>
        <duration>2</duration>
        <voice>1</voice>
        <type>quarter</type>
        <stem default-y="-55">down</stem>
        <notations>
          <fermata default-x="-6" default-y="5" type="upright"/>
        </notations>
        <lyric default-y="-75" number="1">
          <syllabic>single</syllabic>
          <text>bet,</text>
        </lyric>
      </note>
      <note default-x="171">
        <pitch>
          <step>C</step>
          <alter>1</alter>
          <octave>5</octave>
        </pitch>
        <duration>2</duration>
        <voice>1</voice>
        <type>quarter</type>
        <stem default-y="-50">down</stem>
        <lyric default-y="-75" number="1">
          <syllabic>single</syllabic>
          <text>die</text>
        </lyric>
      </note>
    </measure>
    <!--=======================================================-->
    <measure number="10" width="253">
      <note default-x="13">
        <pitch>
          <step>D</step>
          <octave>5</octave>
        </pitch>
        <duration>2</duration>
        <voice>1</voice>
        <type>quarter</type>
        <stem default-y="-45">down</stem>
        <lyric default-y="-75" number="1">
          <syllabic>begin</syllabic>
          <text>al</text>
        </lyric>
      </note>
      <note default-x="73">
        <pitch>
          <step>C</step>
          <alter>1</alter>
          <octave>5</octave>
        </pitch>
        <duration>2</duration>
        <voice>1</voice>
        <type>quarter</type>
        <accidental>sharp</accidental>
        <stem default-y="-50">down</stem>
        <lyric default-y="-75" number="1">
          <syllabic>end</syllabic>
          <text>len</text>
        </lyric>
      </note>
      <note default-x="133">
        <pitch>
          <step>B</step>
          <octave>4</octave>
        </pitch>
        <duration>2</duration>
        <voice>1</voice>
        <type>quarter</type>
        <stem default-y="-55">down</stem>
        <lyric default-y="-75" number="1">
          <syllabic>begin</syllabic>
          <text>Scha</text>
        </lyric>
      </note>
      <note default-x="191">
        <pitch>
          <step>A</step>
          <octave>4</octave>
        </pitch>
        <duration>2</duration>
        <voice>1</voice>
        <type>quarter</type>
        <stem default-y="10">up</stem>
        <lyric default-y="-75" number="1">
          <syllabic>end</syllabic>
          <text>den</text>
        </lyric>
      </note>
    </measure>
    <!--=======================================================-->
    <measure number="11" width="314">
      <print new-system="yes">
        <system-layout>
          <system-margins>
            <left-margin>30</left-margin>
            <right-margin>0</right-margin>
          </system-margins>
          <system-distance>110</system-distance>
        </system-layout>
      </print>
      <note default-x="104">
        <pitch>
          <step>B</step>
          <octave>4</octave>
        </pitch>
        <duration>1</duration>
        <voice>1</voice>
        <type>eighth</type>
        <stem default-y="15">up</stem>
        <beam number="1">begin</beam>
        <lyric default-y="-75" number="1">
          <syllabic>begin</syllabic>
          <text>hei</text>
        </lyric>
      </note>
      <note default-x="132">
        <pitch>
          <step>A</step>
          <octave>4</octave>
        </pitch>
        <duration>1</duration>
        <voice>1</voice>
        <type>eighth</type>
        <stem default-y="10">up</stem>
        <beam number="1">end</beam>
      </note>
      <note default-x="162">
        <pitch>
          <step>G</step>
          <octave>4</octave>
        </pitch>
        <duration>2</duration>
        <voice>1</voice>
        <type>quarter</type>
        <stem default-y="5">up</stem>
        <lyric default-y="-75" number="1">
          <syllabic>end</syllabic>
          <text>let</text>
        </lyric>
      </note>
      <note default-x="208">
        <pitch>
          <step>F</step>
          <alter>1</alter>
          <octave>4</octave>
        </pitch>
        <duration>2</duration>
        <voice>1</voice>
        <type>quarter</type>
        <stem default-y="0">up</stem>
        <notations>
          <fermata default-x="-6" default-y="-50" type="inverted"/>
        </notations>
        <lyric default-y="-75" number="1">
          <syllabic>single</syllabic>
          <text>gut</text>
        </lyric>
      </note>
      <note default-x="255">
        <pitch>
          <step>E</step>
          <octave>4</octave>
        </pitch>
        <duration>1</duration>
        <voice>1</voice>
        <type>eighth</type>
        <stem default-y="-5">up</stem>
        <beam number="1">begin</beam>
        <lyric default-y="-75" number="1" relative-x="6">
          <syllabic>single</syllabic>
          <text>von</text>
        </lyric>
      </note>
      <note default-x="284">
        <pitch>
          <step>F</step>
          <alter>1</alter>
          <octave>4</octave>
        </pitch>
        <duration>1</duration>
        <voice>1</voice>
        <type>eighth</type>
        <stem default-y="0">up</stem>
        <beam number="1">end</beam>
      </note>
    </measure>
    <!--=======================================================-->
    <measure number="12" width="265">
      <note default-x="24">
        <pitch>
          <step>G</step>
          <octave>4</octave>
        </pitch>
        <duration>2</duration>
        <voice>1</voice>
        <type>quarter</type>
        <stem default-y="5">up</stem>
        <lyric default-y="-75" number="1">
          <syllabic>begin</syllabic>
          <text>A</text>
        </lyric>
      </note>
      <note default-x="88">
        <pitch>
          <step>A</step>
          <octave>4</octave>
        </pitch>
        <duration>2</duration>
        <voice>1</voice>
        <type>quarter</type>
        <stem default-y="10">up</stem>
        <lyric default-y="-75" number="1">
          <syllabic>end</syllabic>
          <text>dam</text>
        </lyric>
      </note>
      <note default-x="151">
        <pitch>
          <step>B</step>
          <octave>4</octave>
        </pitch>
        <duration>2</duration>
        <voice>1</voice>
        <type>quarter</type>
        <stem default-y="-55">down</stem>
        <lyric default-y="-75" number="1">
          <syllabic>single</syllabic>
          <text>her</text>
        </lyric>
      </note>
      <note default-x="202">
        <pitch>
          <step>A</step>
          <octave>4</octave>
        </pitch>
        <duration>1</duration>
        <voice>1</voice>
        <type>eighth</type>
        <stem default-y="10">up</stem>
        <beam number="1">begin</beam>
        <lyric default-y="-75" number="1">
          <syllabic>begin</syllabic>
          <text>ge</text>
        </lyric>
      </note>
      <note default-x="233">
        <pitch>
          <step>G</step>
          <octave>4</octave>
        </pitch>
        <duration>1</duration>
        <voice>1</voice>
        <type>eighth</type>
        <stem default-y="5">up</stem>
        <beam number="1">end</beam>
      </note>
    </measure>
    <!--=======================================================-->
    <measure number="13" width="225">
      <note default-x="24">
        <pitch>
          <step>A</step>
          <octave>4</octave>
        </pitch>
        <duration>1</duration>
        <voice>1</voice>
        <type>eighth</type>
        <stem default-y="10">up</stem>
        <beam number="1">begin</beam>
        <lyric default-y="-75" number="1">
          <syllabic>middle</syllabic>
          <text>er</text>
        </lyric>
      </note>
      <note default-x="54">
        <pitch>
          <step>G</step>
          <octave>4</octave>
        </pitch>
        <duration>1</duration>
        <voice>1</voice>
        <type>eighth</type>
        <stem default-y="5">up</stem>
        <beam number="1">end</beam>
      </note>
      <note default-x="83">
        <pitch>
          <step>F</step>
          <alter>1</alter>
          <octave>4</octave>
        </pitch>
        <duration>2</duration>
        <voice>1</voice>
        <type>quarter</type>
        <stem default-y="0">up</stem>
      </note>
      <note default-x="130">
        <pitch>
          <step>E</step>
          <octave>4</octave>
        </pitch>
        <duration>2</duration>
        <voice>1</voice>
        <type>quarter</type>
        <stem default-y="-5">up</stem>
        <notations>
          <fermata default-x="-7" default-y="-55" type="inverted"/>
        </notations>
        <lyric default-y="-75" number="1">
          <syllabic>end</syllabic>
          <text>bet,</text>
        </lyric>
      </note>
      <note default-x="176">
        <pitch>
          <step>E</step>
          <octave>5</octave>
        </pitch>
        <duration>2</duration>
        <voice>1</voice>
        <type>quarter</type>
        <stem default-y="-39.5">down</stem>
        <lyric default-y="-75" number="1">
          <syllabic>single</syllabic>
          <text>auch</text>
        </lyric>
      </note>
    </measure>
    <!--=======================================================-->
    <measure number="14" width="271">
      <note default-x="26">
        <pitch>
          <step>E</step>
          <octave>5</octave>
        </pitch>
        <duration>2</duration>
        <voice>1</voice>
        <type>quarter</type>
        <stem default-y="-39.5">down</stem>
        <lyric default-y="-75" number="1">
          <syllabic>single</syllabic>
          <text>von</text>
        </lyric>
      </note>
      <note default-x="86">
        <pitch>
          <step>E</step>
          <octave>5</octave>
        </pitch>
        <duration>2</duration>
        <voice>1</voice>
        <type>quarter</type>
        <stem default-y="-39.5">down</stem>
        <lyric default-y="-75" number="1">
          <syllabic>single</syllabic>
          <text>uns</text>
        </lyric>
      </note>
      <note default-x="148">
        <pitch>
          <step>F</step>
          <alter>1</alter>
          <octave>5</octave>
        </pitch>
        <duration>2</duration>
        <voice>1</voice>
        <type>quarter</type>
        <stem default-y="-35">down</stem>
        <lyric default-y="-75" number="1">
          <syllabic>single</syllabic>
          <text>selbst</text>
        </lyric>
      </note>
      <note default-x="208">
        <pitch>
          <step>E</step>
          <octave>5</octave>
        </pitch>
        <duration>2</duration>
        <voice>1</voice>
        <type>quarter</type>
        <stem default-y="-39.5">down</stem>
        <lyric default-y="-75" number="1">
          <syllabic>begin</syllabic>
          <text>be</text>
        </lyric>
      </note>
    </measure>
    <!--=======================================================-->
    <measure number="15" width="187">
      <note default-x="13">
        <pitch>
          <step>D</step>
          <octave>5</octave>
        </pitch>
        <duration>2</duration>
        <voice>1</voice>
        <type>quarter</type>
        <stem default-y="-45">down</stem>
        <lyric default-y="-75" number="1">
          <syllabic>middle</syllabic>
          <text>gan</text>
        </lyric>
      </note>
      <note default-x="71">
        <pitch>
          <step>C</step>
          <alter>1</alter>
          <octave>5</octave>
        </pitch>
        <duration>2</duration>
        <voice>1</voice>
        <type>quarter</type>
        <accidental>sharp</accidental>
        <stem default-y="-50">down</stem>
      </note>
      <note default-x="130">
        <pitch>
          <step>B</step>
          <octave>4</octave>
        </pitch>
        <duration>2</duration>
        <voice>1</voice>
        <type>quarter</type>
        <stem default-y="-55">down</stem>
        <notations>
          <fermata default-x="-7" default-y="5" type="upright"/>
        </notations>
        <lyric default-y="-75" number="1">
          <syllabic>end</syllabic>
          <text>gen.</text>
        </lyric>
      </note>
      <barline location="right">
        <bar-style>light-heavy</bar-style>
      </barline>
    </measure>
  </part>
  <!--=========================================================-->
  <part id="P2">
    <?SmartMusic maxVoice=1?>
    <measure number="0" width="181">
      <print>
        <measure-numbering>none</measure-numbering>
      </print>
      <attributes>
        <divisions>2</divisions>
        <key>
          <fifths>2</fifths>
          <mode>major</mode>
        </key>
        <time symbol="common">
          <beats>4</beats>
          <beat-type>4</beat-type>
        </time>
        <clef>
          <sign>G</sign>
          <line>2</line>
        </clef>
      </attributes>
      <sound tempo="120"/>
      <direction placement="below">
        <direction-type>
          <words default-y="-49" font-size="8" halign="center" relative-x="-232">Violino II. coll'Alto.</words>
        </direction-type>
      </direction>
      <note default-x="124">
        <pitch>
          <step>B</step>
          <octave>3</octave>
        </pitch>
        <duration>2</duration>
        <voice>1</voice>
        <type>quarter</type>
        <stem default-y="-20">up</stem>
        <lyric default-y="-75" number="1">
          <syllabic>single</syllabic>
          <text>Das</text>
        </lyric>
        <lyric default-y="-95" number="2">
          <syllabic>single</syllabic>
          <text>Der</text>
        </lyric>
      </note>
    </measure>
    <!--=======================================================-->
    <measure number="1" width="210">
      <note default-x="13">
        <pitch>
          <step>E</step>
          <octave>4</octave>
        </pitch>
        <duration>2</duration>
        <voice>1</voice>
        <type>quarter</type>
        <stem default-y="-5">up</stem>
        <lyric default-y="-75" number="1">
          <syllabic>single</syllabic>
          <text>Aug'</text>
        </lyric>
        <lyric default-y="-95" number="2" relative-x="3">
          <syllabic>single</syllabic>
          <text>Glaub'</text>
        </lyric>
      </note>
      <note default-x="59">
        <pitch>
          <step>F</step>
          <alter>1</alter>
          <octave>4</octave>
        </pitch>
        <duration>2</duration>
        <voice>1</voice>
        <type>quarter</type>
        <stem default-y="0">up</stem>
        <lyric default-y="-75" number="1">
          <syllabic>begin</syllabic>
          <text>al</text>
        </lyric>
        <lyric default-y="-95" number="2">
          <syllabic>begin</syllabic>
          <text>al</text>
        </lyric>
      </note>
      <note default-x="106">
        <pitch>
          <step>G</step>
          <octave>4</octave>
        </pitch>
        <duration>2</duration>
        <voice>1</voice>
        <type>quarter</type>
        <stem default-y="5">up</stem>
        <lyric default-y="-75" number="1">
          <syllabic>end</syllabic>
          <text>lein</text>
        </lyric>
        <lyric default-y="-95" number="2">
          <syllabic>end</syllabic>
          <text>lein</text>
        </lyric>
      </note>
      <note default-x="152">
        <pitch>
          <step>F</step>
          <alter>1</alter>
          <octave>4</octave>
        </pitch>
        <duration>2</duration>
        <voice>1</voice>
        <type>quarter</type>
        <stem default-y="0">up</stem>
        <lyric default-y="-75" number="1">
          <syllabic>single</syllabic>
          <text>das</text>
        </lyric>
        <lyric default-y="-95" number="2">
          <syllabic>single</syllabic>
          <text>die</text>
        </lyric>
      </note>
    </measure>
    <!--=======================================================-->
    <measure number="2" width="238">
      <note default-x="13">
        <pitch>
          <step>B</step>
          <octave>4</octave>
        </pitch>
        <duration>3</duration>
        <voice>1</voice>
        <type>quarter</type>
        <dot/>
        <stem default-y="-55">down</stem>
        <lyric default-y="-75" number="1">
          <syllabic>begin</syllabic>
          <text>Was</text>
        </lyric>
        <lyric default-y="-95" number="2">
          <syllabic>single</syllabic>
          <text>Kraft</text>
        </lyric>
      </note>
      <note default-x="99">
        <pitch>
          <step>A</step>
          <alter>1</alter>
          <octave>4</octave>
        </pitch>
        <duration>1</duration>
        <voice>1</voice>
        <type>eighth</type>
        <accidental>sharp</accidental>
        <stem default-y="10">up</stem>
        <lyric default-y="-75" number="1">
          <syllabic>end</syllabic>
          <text>ser</text>
        </lyric>
        <lyric default-y="-95" number="2">
          <syllabic>begin</syllabic>
          <text>ver</text>
        </lyric>
      </note>
      <note default-x="138">
        <pitch>
          <step>F</step>
          <alter>1</alter>
          <octave>4</octave>
        </pitch>
        <duration>2</duration>
        <voice>1</voice>
        <type>quarter</type>
        <stem default-y="0">up</stem>
        <notations>
          <fermata default-x="-6" default-y="-50" type="inverted"/>
        </notations>
        <lyric default-y="-75" number="1">
          <syllabic>single</syllabic>
          <text>sieht</text>
        </lyric>
        <lyric default-y="-95" number="2">
          <syllabic>end</syllabic>
          <text>steht</text>
        </lyric>
      </note>
      <note default-x="190">
        <pitch>
          <step>F</step>
          <alter>1</alter>
          <octave>4</octave>
        </pitch>
        <duration>2</duration>
        <voice>1</voice>
        <type>quarter</type>
        <stem default-y="0">up</stem>
        <lyric default-y="-75" number="1">
          <syllabic>single</syllabic>
          <text>wie</text>
        </lyric>
        <lyric default-y="-95" number="2">
          <syllabic>single</syllabic>
          <text>des</text>
        </lyric>
      </note>
    </measure>
    <!--=======================================================-->
    <measure number="3" width="256">
      <note default-x="13">
        <pitch>
          <step>F</step>
          <alter>1</alter>
          <octave>4</octave>
        </pitch>
        <duration>1</duration>
        <voice>1</voice>
        <type>eighth</type>
        <stem default-y="0">up</stem>
        <beam number="1">begin</beam>
        <lyric default-y="-75" number="1">
          <syllabic>single</syllabic>
          <text>Men</text>
        </lyric>
        <lyric default-y="-95" number="2">
          <syllabic>single</syllabic>
          <text>Blu</text>
        </lyric>
      </note>
      <note default-x="43">
        <pitch>
          <step>G</step>
          <octave>4</octave>
        </pitch>
        <duration>1</duration>
        <voice>1</voice>
        <type>eighth</type>
        <stem default-y="5">up</stem>
        <beam number="1">end</beam>
      </note>
      <note default-x="75">
        <pitch>
          <step>G</step>
          <octave>4</octave>
        </pitch>
        <duration>1</duration>
        <voice>1</voice>
        <type>eighth</type>
        <stem default-y="5">up</stem>
        <beam number="1">begin</beam>
        <lyric default-y="-75" number="1">
          <syllabic>single</syllabic>
          <text>schen</text>
        </lyric>
        <lyric default-y="-95" number="2" relative-x="4">
          <syllabic>single</syllabic>
          <text>tes</text>
        </lyric>
      </note>
      <note default-x="105">
        <pitch>
          <step>F</step>
          <alter>1</alter>
          <octave>4</octave>
        </pitch>
        <duration>1</duration>
        <voice>1</voice>
        <type>eighth</type>
        <stem default-y="0">up</stem>
        <beam number="1">end</beam>
      </note>
      <note default-x="135">
        <pitch>
          <step>F</step>
          <alter>1</alter>
          <octave>4</octave>
        </pitch>
        <duration>1</duration>
        <voice>1</voice>
        <type>eighth</type>
        <stem default-y="0">up</stem>
        <beam number="1">begin</beam>
        <lyric default-y="-75" number="1" relative-x="10">
          <syllabic>single</syllabic>
          <text>Was</text>
        </lyric>
        <lyric default-y="-95" number="2">
          <syllabic>single</syllabic>
          <text>Je</text>
        </lyric>
      </note>
      <note default-x="164">
        <pitch>
          <step>E</step>
          <octave>4</octave>
        </pitch>
        <duration>1</duration>
        <voice>1</voice>
        <type>eighth</type>
        <stem default-y="-5">up</stem>
        <beam number="1">end</beam>
      </note>
      <note default-x="193">
        <pitch>
          <step>E</step>
          <octave>4</octave>
        </pitch>
        <duration>1</duration>
        <voice>1</voice>
        <type>eighth</type>
        <stem default-y="-5">up</stem>
        <beam number="1">begin</beam>
        <lyric default-y="-75" number="1" relative-x="5">
          <syllabic>single</syllabic>
          <text>ser</text>
        </lyric>
        <lyric default-y="-95" number="2">
          <syllabic>single</syllabic>
          <text>su</text>
        </lyric>
      </note>
      <note default-x="226">
        <pitch>
          <step>D</step>
          <alter>1</alter>
          <octave>4</octave>
        </pitch>
        <duration>1</duration>
        <voice>1</voice>
        <type>eighth</type>
        <accidental>sharp</accidental>
        <stem default-y="-10">up</stem>
        <beam number="1">end</beam>
      </note>
    </measure>
    <!--=======================================================-->
    <measure number="4" width="218">
      <note default-x="13">
        <pitch>
          <step>E</step>
          <octave>4</octave>
        </pitch>
        <duration>2</duration>
        <voice>1</voice>
        <type>quarter</type>
        <stem default-y="-5">up</stem>
        <lyric default-y="-75" number="1">
          <syllabic>begin</syllabic>
          <text>gie</text>
        </lyric>
        <lyric default-y="-95" number="2">
          <syllabic>begin</syllabic>
          <text>Chri</text>
        </lyric>
      </note>
      <note default-x="60">
        <pitch>
          <step>D</step>
          <alter>1</alter>
          <octave>4</octave>
        </pitch>
        <duration>2</duration>
        <voice>1</voice>
        <type>quarter</type>
        <accidental>sharp</accidental>
        <stem default-y="-10">up</stem>
      </note>
      <note default-x="120">
        <pitch>
          <step>B</step>
          <octave>3</octave>
        </pitch>
        <duration>2</duration>
        <voice>1</voice>
        <type>quarter</type>
        <stem default-y="-20">up</stem>
        <notations>
          <fermata default-x="-7" default-y="-70" type="inverted"/>
        </notations>
        <lyric default-y="-75" number="1">
          <syllabic>end</syllabic>
          <text>ssen,</text>
        </lyric>
        <lyric default-y="-95" number="2">
          <syllabic>end</syllabic>
          <text>sti,</text>
        </lyric>
      </note>
      <barline location="right">
        <bar-style>light-heavy</bar-style>
        <repeat direction="backward" winged="none"/>
      </barline>
    </measure>
    <!--=======================================================-->
    <measure number="5" width="178">
      <print new-system="yes">
        <staff-layout number="1">
          <staff-distance>60</staff-distance>
        </staff-layout>
      </print>
      <attributes>
        <time>
          <beats>4</beats>
          <beat-type>4</beat-type>
        </time>
      </attributes>
      <note default-x="125">
        <pitch>
          <step>B</step>
          <octave>3</octave>
        </pitch>
        <duration>2</duration>
        <voice>1</voice>
        <type>quarter</type>
        <stem default-y="-20">up</stem>
        <lyric default-y="-75" number="1">
          <syllabic>single</syllabic>
          <text>und</text>
        </lyric>
      </note>
    </measure>
    <!--=======================================================-->
    <measure number="6" width="209">
      <note default-x="13">
        <pitch>
          <step>E</step>
          <octave>4</octave>
        </pitch>
        <duration>1</duration>
        <voice>1</voice>
        <type>eighth</type>
        <stem default-y="-5">up</stem>
        <beam number="1">begin</beam>
        <lyric default-y="-75" number="1">
          <syllabic>single</syllabic>
          <text>ist</text>
        </lyric>
      </note>
      <note default-x="39">
        <pitch>
          <step>D</step>
          <octave>4</octave>
        </pitch>
        <duration>1</duration>
        <voice>1</voice>
        <type>eighth</type>
        <stem default-y="-10">up</stem>
        <beam number="1">end</beam>
      </note>
      <note default-x="64">
        <pitch>
          <step>E</step>
          <octave>4</octave>
        </pitch>
        <duration>1</duration>
        <voice>1</voice>
        <type>eighth</type>
        <stem default-y="-5">up</stem>
        <beam number="1">begin</beam>
        <lyric default-y="-75" number="1" relative-x="5">
          <syllabic>single</syllabic>
          <text>für</text>
        </lyric>
      </note>
      <note default-x="90">
        <pitch>
          <step>C</step>
          <alter>1</alter>
          <octave>4</octave>
        </pitch>
        <duration>1</duration>
        <voice>1</voice>
        <type>eighth</type>
        <stem default-y="-10">up</stem>
        <beam number="1">end</beam>
      </note>
      <note default-x="116">
        <pitch>
          <step>D</step>
          <octave>4</octave>
        </pitch>
        <duration>2</duration>
        <voice>1</voice>
        <type>quarter</type>
        <stem default-y="-10">up</stem>
        <lyric default-y="-75" number="1">
          <syllabic>single</syllabic>
          <text>ihn</text>
        </lyric>
      </note>
      <note default-x="157">
        <pitch>
          <step>D</step>
          <octave>4</octave>
        </pitch>
        <duration>2</duration>
        <voice>1</voice>
        <type>quarter</type>
        <stem default-y="-10">up</stem>
        <lyric default-y="-75" number="1">
          <syllabic>single</syllabic>
          <text>ein'</text>
        </lyric>
      </note>
    </measure>
    <!--=======================================================-->
    <measure number="7" width="204">
      <note default-x="16">
        <pitch>
          <step>C</step>
          <alter>1</alter>
          <octave>4</octave>
        </pitch>
        <duration>2</duration>
        <voice>1</voice>
        <type>quarter</type>
        <stem default-y="-15">up</stem>
        <lyric default-y="-75" number="1">
          <syllabic>begin</syllabic>
          <text>ro</text>
        </lyric>
      </note>
      <note default-x="60">
        <pitch>
          <step>C</step>
          <alter>1</alter>
          <octave>4</octave>
        </pitch>
        <duration>2</duration>
        <voice>1</voice>
        <type>quarter</type>
        <stem default-y="-15">up</stem>
        <lyric default-y="-75" number="1">
          <syllabic>end</syllabic>
          <text>the</text>
        </lyric>
      </note>
      <note default-x="104">
        <pitch>
          <step>D</step>
          <alter>1</alter>
          <octave>4</octave>
        </pitch>
        <duration>2</duration>
        <voice>1</voice>
        <type>quarter</type>
        <accidental>sharp</accidental>
        <stem default-y="-10">up</stem>
        <notations>
          <fermata default-x="-6" default-y="-60" type="inverted"/>
        </notations>
        <lyric default-y="-75" number="1">
          <syllabic>single</syllabic>
          <text>Fluth</text>
        </lyric>
      </note>
      <note default-x="148">
        <pitch>
          <step>E</step>
          <octave>4</octave>
        </pitch>
        <duration>2</duration>
        <voice>1</voice>
        <type>quarter</type>
        <stem default-y="-5">up</stem>
        <lyric default-y="-75" number="1">
          <syllabic>single</syllabic>
          <text>von</text>
        </lyric>
      </note>
    </measure>
    <!--=======================================================-->
    <measure number="8" width="205">
      <note default-x="13">
        <pitch>
          <step>E</step>
          <octave>4</octave>
        </pitch>
        <duration>1</duration>
        <voice>1</voice>
        <type>eighth</type>
        <stem default-y="-5">up</stem>
        <beam number="1">begin</beam>
        <lyric default-y="-75" number="1">
          <syllabic>begin</syllabic>
          <text>Chri</text>
        </lyric>
      </note>
      <note default-x="38">
        <pitch>
          <step>F</step>
          <alter>1</alter>
          <octave>4</octave>
        </pitch>
        <duration>1</duration>
        <voice>1</voice>
        <type>eighth</type>
        <stem default-y="0">up</stem>
        <beam number="1">end</beam>
      </note>
      <note default-x="63">
        <pitch>
          <step>G</step>
          <octave>4</octave>
        </pitch>
        <duration>2</duration>
        <voice>1</voice>
        <type>quarter</type>
        <stem default-y="5">up</stem>
        <lyric default-y="-75" number="1">
          <syllabic>end</syllabic>
          <text>sti</text>
        </lyric>
      </note>
      <note default-x="104">
        <pitch>
          <step>F</step>
          <alter>1</alter>
          <octave>4</octave>
        </pitch>
        <duration>2</duration>
        <voice>1</voice>
        <type>quarter</type>
        <stem default-y="0">up</stem>
        <lyric default-y="-75" number="1">
          <syllabic>single</syllabic>
          <text>Blut</text>
        </lyric>
      </note>
      <note default-x="153">
        <pitch>
          <step>B</step>
          <octave>4</octave>
        </pitch>
        <duration>1</duration>
        <voice>1</voice>
        <type>eighth</type>
        <stem default-y="15">up</stem>
        <beam number="1">begin</beam>
        <lyric default-y="-75" number="1">
          <syllabic>single</syllabic>
          <text>ge</text>
        </lyric>
      </note>
      <note default-x="179">
        <pitch>
          <step>A</step>
          <octave>4</octave>
        </pitch>
        <duration>1</duration>
        <voice>1</voice>
        <type>eighth</type>
        <stem default-y="10">up</stem>
        <beam number="1">end</beam>
      </note>
    </measure>
    <!--=======================================================-->
    <measure number="9" width="215">
      <note default-x="13">
        <pitch>
          <step>G</step>
          <octave>4</octave>
        </pitch>
        <duration>1</duration>
        <voice>1</voice>
        <type>eighth</type>
        <stem default-y="5">up</stem>
        <beam number="1">begin</beam>
        <lyric default-y="-75" number="1">
          <syllabic>single</syllabic>
          <text>fär</text>
        </lyric>
      </note>
      <note default-x="40">
        <pitch>
          <step>F</step>
          <alter>1</alter>
          <octave>4</octave>
        </pitch>
        <duration>1</duration>
        <voice>1</voice>
        <type>eighth</type>
        <stem default-y="0">up</stem>
        <beam number="1">end</beam>
      </note>
      <note default-x="71">
        <pitch>
          <step>E</step>
          <octave>4</octave>
        </pitch>
        <duration>2</duration>
        <voice>1</voice>
        <type>quarter</type>
        <stem default-y="-5">up</stem>
      </note>
      <note default-x="126">
        <pitch>
          <step>D</step>
          <octave>4</octave>
        </pitch>
        <duration>2</duration>
        <voice>1</voice>
        <type>quarter</type>
        <stem default-y="-10">up</stem>
        <notations>
          <fermata default-x="-6" default-y="-60" type="inverted"/>
        </notations>
        <lyric default-y="-75" number="1">
          <syllabic>single</syllabic>
          <text>bet,</text>
        </lyric>
      </note>
      <note default-x="171">
        <pitch>
          <step>F</step>
          <alter>1</alter>
          <octave>4</octave>
        </pitch>
        <duration>2</duration>
        <voice>1</voice>
        <type>quarter</type>
        <stem default-y="0">up</stem>
        <lyric default-y="-75" number="1">
          <syllabic>single</syllabic>
          <text>die</text>
        </lyric>
      </note>
    </measure>
    <!--=======================================================-->
    <measure number="10" width="253">
      <note default-x="13">
        <pitch>
          <step>F</step>
          <alter>1</alter>
          <octave>4</octave>
        </pitch>
        <duration>2</duration>
        <voice>1</voice>
        <type>quarter</type>
        <stem default-y="0">up</stem>
        <lyric default-y="-75" number="1">
          <syllabic>begin</syllabic>
          <text>al</text>
        </lyric>
      </note>
      <note default-x="73">
        <pitch>
          <step>E</step>
          <octave>4</octave>
        </pitch>
        <duration>2</duration>
        <voice>1</voice>
        <type>quarter</type>
        <stem default-y="-5">up</stem>
        <lyric default-y="-75" number="1">
          <syllabic>end</syllabic>
          <text>len</text>
        </lyric>
      </note>
      <note default-x="133">
        <pitch>
          <step>D</step>
          <octave>4</octave>
        </pitch>
        <duration>1</duration>
        <voice>1</voice>
        <type>eighth</type>
        <stem default-y="-10">up</stem>
        <beam number="1">begin</beam>
        <lyric default-y="-75" number="1" relative-x="12">
          <syllabic>single</syllabic>
          <text>Scha</text>
        </lyric>
      </note>
      <note default-x="162">
        <pitch>
          <step>E</step>
          <octave>4</octave>
        </pitch>
        <duration>1</duration>
        <voice>1</voice>
        <type>eighth</type>
        <stem default-y="-5">up</stem>
        <beam number="1">end</beam>
      </note>
      <note default-x="191">
        <pitch>
          <step>F</step>
          <alter>1</alter>
          <octave>4</octave>
        </pitch>
        <duration>2</duration>
        <voice>1</voice>
        <type>quarter</type>
        <stem default-y="0">up</stem>
        <lyric default-y="-75" number="1">
          <syllabic>single</syllabic>
          <text>den</text>
        </lyric>
      </note>
    </measure>
    <!--=======================================================-->
    <measure number="11" width="314">
      <print new-system="yes">
        <staff-layout number="1">
          <staff-distance>60</staff-distance>
        </staff-layout>
      </print>
      <note default-x="104">
        <pitch>
          <step>F</step>
          <alter>1</alter>
          <octave>4</octave>
        </pitch>
        <duration>2</duration>
        <voice>1</voice>
        <type>quarter</type>
        <stem default-y="0">up</stem>
        <lyric default-y="-75" number="1">
          <syllabic>begin</syllabic>
          <text>hei</text>
        </lyric>
      </note>
      <note default-x="162">
        <pitch>
          <step>E</step>
          <octave>4</octave>
        </pitch>
        <duration>2</duration>
        <voice>1</voice>
        <type>quarter</type>
        <stem default-y="-5">up</stem>
        <lyric default-y="-75" number="1">
          <syllabic>end</syllabic>
          <text>let</text>
        </lyric>
      </note>
      <note default-x="208">
        <pitch>
          <step>D</step>
          <alter>1</alter>
          <octave>4</octave>
        </pitch>
        <duration>2</duration>
        <voice>1</voice>
        <type>quarter</type>
        <accidental>sharp</accidental>
        <stem default-y="-10">up</stem>
        <notations>
          <fermata default-x="-6" default-y="-60" type="inverted"/>
        </notations>
        <lyric default-y="-75" number="1">
          <syllabic>single</syllabic>
          <text>gut</text>
        </lyric>
      </note>
      <note default-x="255">
        <pitch>
          <step>B</step>
          <octave>3</octave>
        </pitch>
        <duration>2</duration>
        <voice>1</voice>
        <type>quarter</type>
        <stem default-y="-20">up</stem>
        <lyric default-y="-75" number="1">
          <syllabic>single</syllabic>
          <text>von</text>
        </lyric>
      </note>
    </measure>
    <!--=======================================================-->
    <measure number="12" width="265">
      <note default-x="24">
        <pitch>
          <step>E</step>
          <octave>4</octave>
        </pitch>
        <duration>2</duration>
        <voice>1</voice>
        <type>quarter</type>
        <stem default-y="-5">up</stem>
        <lyric default-y="-75" number="1">
          <syllabic>begin</syllabic>
          <text>A</text>
        </lyric>
      </note>
      <note default-x="88">
        <pitch>
          <step>E</step>
          <octave>4</octave>
        </pitch>
        <duration>1</duration>
        <voice>1</voice>
        <type>eighth</type>
        <stem default-y="-5">up</stem>
        <beam number="1">begin</beam>
        <lyric default-y="-75" number="1" relative-x="4">
          <syllabic>end</syllabic>
          <text>dam</text>
        </lyric>
      </note>
      <note default-x="119">
        <pitch>
          <step>F</step>
          <alter>1</alter>
          <octave>4</octave>
        </pitch>
        <duration>1</duration>
        <voice>1</voice>
        <type>eighth</type>
        <stem default-y="0">up</stem>
        <beam number="1">end</beam>
      </note>
      <note default-x="151">
        <pitch>
          <step>G</step>
          <octave>4</octave>
        </pitch>
        <duration>2</duration>
        <voice>1</voice>
        <type>quarter</type>
        <stem default-y="5">up</stem>
        <lyric default-y="-75" number="1">
          <syllabic>single</syllabic>
          <text>her</text>
        </lyric>
      </note>
      <note default-x="202">
        <pitch>
          <step>F</step>
          <alter>1</alter>
          <octave>4</octave>
        </pitch>
        <duration>2</duration>
        <voice>1</voice>
        <type>quarter</type>
        <stem default-y="0">up</stem>
        <lyric default-y="-75" number="1">
          <syllabic>begin</syllabic>
          <text>ge</text>
        </lyric>
      </note>
    </measure>
    <!--=======================================================-->
    <measure number="13" width="225">
      <note default-x="24">
        <pitch>
          <step>E</step>
          <octave>4</octave>
        </pitch>
        <duration>2</duration>
        <voice>1</voice>
        <type>quarter</type>
        <stem default-y="-5">up</stem>
        <lyric default-y="-75" number="1">
          <syllabic>middle</syllabic>
          <text>er</text>
        </lyric>
      </note>
      <note default-x="83">
        <pitch>
          <step>D</step>
          <alter>1</alter>
          <octave>4</octave>
        </pitch>
        <duration>2</duration>
        <voice>1</voice>
        <type>quarter</type>
        <accidental>sharp</accidental>
        <stem default-y="-10">up</stem>
      </note>
      <note default-x="130">
        <pitch>
          <step>B</step>
          <octave>3</octave>
        </pitch>
        <duration>2</duration>
        <voice>1</voice>
        <type>quarter</type>
        <stem default-y="-20">up</stem>
        <notations>
          <fermata default-x="-7" default-y="-70" type="inverted"/>
        </notations>
        <lyric default-y="-75" number="1">
          <syllabic>end</syllabic>
          <text>bet,</text>
        </lyric>
      </note>
      <note default-x="176">
        <pitch>
          <step>G</step>
          <alter>1</alter>
          <octave>4</octave>
        </pitch>
        <duration>2</duration>
        <voice>1</voice>
        <type>quarter</type>
        <accidental>sharp</accidental>
        <stem default-y="5">up</stem>
        <lyric default-y="-75" number="1">
          <syllabic>single</syllabic>
          <text>auch</text>
        </lyric>
      </note>
    </measure>
    <!--=======================================================-->
    <measure number="14" width="271">
      <note default-x="26">
        <pitch>
          <step>A</step>
          <octave>4</octave>
        </pitch>
        <duration>2</duration>
        <voice>1</voice>
        <type>quarter</type>
        <stem default-y="10">up</stem>
        <lyric default-y="-75" number="1">
          <syllabic>single</syllabic>
          <text>von</text>
        </lyric>
      </note>
      <note default-x="86">
        <pitch>
          <step>A</step>
          <octave>4</octave>
        </pitch>
        <duration>2</duration>
        <voice>1</voice>
        <type>quarter</type>
        <stem default-y="10">up</stem>
        <lyric default-y="-75" number="1">
          <syllabic>single</syllabic>
          <text>uns</text>
        </lyric>
      </note>
      <note default-x="148">
        <pitch>
          <step>A</step>
          <octave>4</octave>
        </pitch>
        <duration>2</duration>
        <voice>1</voice>
        <type>quarter</type>
        <stem default-y="10">up</stem>
        <lyric default-y="-75" number="1">
          <syllabic>single</syllabic>
          <text>selbst</text>
        </lyric>
      </note>
      <note default-x="208">
        <pitch>
          <step>G</step>
          <octave>4</octave>
        </pitch>
        <duration>1</duration>
        <voice>1</voice>
        <type>eighth</type>
        <accidental>natural</accidental>
        <stem default-y="5">up</stem>
        <beam number="1">begin</beam>
        <lyric default-y="-75" number="1">
          <syllabic>single</syllabic>
          <text>be</text>
        </lyric>
      </note>
      <note default-x="240">
        <pitch>
          <step>F</step>
          <alter>1</alter>
          <octave>4</octave>
        </pitch>
        <duration>1</duration>
        <voice>1</voice>
        <type>eighth</type>
        <stem default-y="0">up</stem>
        <beam number="1">end</beam>
      </note>
    </measure>
    <!--=======================================================-->
    <measure number="15" width="187">
      <note default-x="13">
        <pitch>
          <step>B</step>
          <octave>4</octave>
        </pitch>
        <duration>2</duration>
        <voice>1</voice>
        <type>quarter</type>
        <stem default-y="-55">down</stem>
        <lyric default-y="-75" number="1">
          <syllabic>begin</syllabic>
          <text>gan</text>
        </lyric>
      </note>
      <note default-x="71">
        <pitch>
          <step>A</step>
          <alter>1</alter>
          <octave>4</octave>
        </pitch>
        <duration>2</duration>
        <voice>1</voice>
        <type>quarter</type>
        <accidental>sharp</accidental>
        <stem default-y="10">up</stem>
      </note>
      <note default-x="130">
        <pitch>
          <step>F</step>
          <alter>1</alter>
          <octave>4</octave>
        </pitch>
        <duration>2</duration>
        <voice>1</voice>
        <type>quarter</type>
        <stem default-y="0">up</stem>
        <notations>
          <fermata default-x="-7" default-y="-50" type="inverted"/>
        </notations>
        <lyric default-y="-75" number="1">
          <syllabic>end</syllabic>
          <text>gen.</text>
        </lyric>
      </note>
      <barline location="right">
        <bar-style>light-heavy</bar-style>
      </barline>
    </measure>
  </part>
  <!--=========================================================-->
</score-partwise>
